<?xml version="1.0" encoding="utf-8"?>
<!-- Generator: Adobe Illustrator 21.0.1, SVG Export Plug-In . SVG Version: 6.00 Build 0)  -->
<svg version="1.1" id="Layer_1" xmlns="http://www.w3.org/2000/svg" xmlns:xlink="http://www.w3.org/1999/xlink" x="0px" y="0px"
	 viewBox="0 0 50 50" style="enable-background:new 0 0 50 50;" xml:space="preserve">
<g>
	<path d="M41,15.1L36.7,15c-0.2,0-0.3,0.1-0.4,0.2L25.9,27.5c-1.1,1.3-3.2-0.4-2-1.7l10.3-12.3c0.1-0.1,0.1-0.3,0.1-0.5l-0.9-4.2
		c0-0.2,0-0.3,0.1-0.5c2.3-2.7,4.5-5.4,6.8-8.1c0.3-0.3,0.8-0.2,0.9,0.2l1.5,4.5c0.1,0.2,0.2,0.3,0.4,0.4l4.6,0.7
		c0.4,0.1,0.6,0.5,0.3,0.9c-2.3,2.7-4.5,5.4-6.8,8.1C41.3,15,41.2,15.1,41,15.1z"/>
	<path d="M25,3.1c3.2,0,6.3,0.6,9.1,1.8c-0.6,0.7-1.5,1.7-2,2.4c-2.2-0.8-4.6-1.3-7-1.3c-11.3,0-20.4,9.1-20.4,20.4
		c0,11.3,9.1,20.4,20.4,20.4s20.4-9.1,20.4-20.4c0-3.7-1-7.3-2.8-10.3c0.6-0.6,1.4-1.7,2-2.4c2.4,3.7,3.7,8,3.7,12.7
		c0,12.9-10.5,23.4-23.4,23.4S1.6,39.5,1.6,26.5S12.1,3.1,25,3.1L25,3.1z"/>
	<path d="M25,11.2c2.6,0,5.1,0.7,7.2,1.8l-2,2.4c-1.6-0.7-3.4-1.2-5.2-1.2c-6.8,0-12.3,5.5-12.3,12.3c0,6.8,5.5,12.3,12.3,12.3
		s12.3-5.5,12.3-12.3c0-2.6-0.8-5.1-2.3-7.1l2-2.4c2,2.6,3.3,5.9,3.3,9.5c0,8.5-6.8,15.3-15.3,15.3S9.7,35,9.7,26.5
		C9.7,18.1,16.5,11.2,25,11.2L25,11.2z"/>
	<path d="M25,19.3c0.6,0,1.2,0.1,1.8,0.2l-2.4,2.8c-2,0.3-3.6,2-3.6,4.2c0,2.3,1.9,4.2,4.2,4.2s4.2-1.9,4.2-4.2v-0.1l2.4-2.8
		c0.4,0.9,0.6,1.9,0.6,3c0,4-3.2,7.2-7.2,7.2c-4,0-7.2-3.2-7.2-7.2C17.8,22.6,21,19.3,25,19.3L25,19.3z"/>
</g>
</svg>
