<?xml version="1.0" encoding="utf-8"?>
<!-- Generator: Adobe Illustrator 21.0.1, SVG Export Plug-In . SVG Version: 6.00 Build 0)  -->
<svg version="1.1" id="Layer_1" xmlns="http://www.w3.org/2000/svg" xmlns:xlink="http://www.w3.org/1999/xlink" x="0px" y="0px"
	 viewBox="0 0 50 50" style="enable-background:new 0 0 50 50;" xml:space="preserve">
<path d="M11.2,49.7C11.2,49.7,11.2,49.7,11.2,49.7c-1,0-1.9-0.8-1.9-1.9V21.1c0-1,0.8-1.9,1.9-1.9s1.9,0.8,1.9,1.9v26.8
	C13.1,48.9,12.2,49.7,11.2,49.7C11.2,49.7,11.2,49.7,11.2,49.7z"/>
<path d="M38.3,49.9H2.7c-1.4,0-2.6-1.2-2.6-2.6V21.8c0-1.4,1.2-2.6,2.6-2.6H10c0.7-0.1,6.8-0.9,9.1-6.4c0.6-1.9,0.7-3.2,1-5.5l0.1-1
	C20.5,1,24.1,0.1,26.1,0c2.8-0.1,4.4,1,5.3,2c1.9,2,2.5,5.4,1.9,10.3l0,0.1l-0.6,3.3l0,0.1c-0.1,0.4-0.3,0.9-0.3,1.3
	c0.5,0.1,0.9,0.1,1.4,0.1H43c2.1,0.1,4.1,1.1,5.4,2.7c1.3,1.7,1.8,4,1.3,6.1L45,45.4C44.7,46.9,42.8,49.9,38.3,49.9z M3.8,46.2h34.5
	c2.7,0,3.2-1.6,3.2-1.6L46.1,25c0.2-1,0-2-0.6-2.8c-0.6-0.8-1.6-1.3-2.6-1.3h-9.2c-2.6,0-3.8-0.4-4.7-1.7l0-0.1
	c-0.3-0.4-0.9-1.2,0.1-4.4l0.5-3c0.4-3.5,0.1-6.1-1-7.3c-0.5-0.6-1.3-0.8-2.4-0.8c-1.7,0.1-2.3,0.7-2.4,2.8l0,0.2l-0.1,1.1
	c-0.3,2.4-0.5,3.9-1.2,6.1L22.5,14c-3.2,8-11.9,8.8-12.3,8.9l-0.1,0H3.8C3.8,22.9,3.8,46.2,3.8,46.2z M32,17L32,17L32,17z"/>
</svg>
