<?xml version="1.0" encoding="utf-8"?>
<!-- Generator: Adobe Illustrator 21.0.1, SVG Export Plug-In . SVG Version: 6.00 Build 0)  -->
<svg version="1.1" id="Layer_1" xmlns="http://www.w3.org/2000/svg" xmlns:xlink="http://www.w3.org/1999/xlink" x="0px" y="0px"
	 viewBox="0 0 50 50" style="enable-background:new 0 0 50 50;" xml:space="preserve">
<path d="M45.2,11.8L26,0.3c-0.6-0.4-1.4-0.4-2,0L4.8,11.8c-0.6,0.4-1,1.1-0.9,1.8l1.2,14.6c0.5,5.9,3.6,11.3,8.6,14.6l10.3,6.8
	c0.6,0.4,1.5,0.4,2.1,0l10.3-6.8c4.9-3.3,8.1-8.6,8.6-14.6l1.2-14.6C46.2,12.9,45.8,12.2,45.2,11.8z M41.1,27.9
	c-0.4,4.7-2.9,9.1-6.9,11.7L25,45.8l-9.2-6.1c-4-2.6-6.5-6.9-6.9-11.7L7.8,14.5L25,4.2l17.2,10.3L41.1,27.9z"/>
<path d="M18.7,21.7c-0.8-0.7-2-0.7-2.7,0c-0.7,0.7-0.7,1.9,0,2.7l5.8,5.8c0.8,0.8,2,0.8,2.7,0l9.6-9.6c0.7-0.8,0.7-2,0-2.7
	c-0.7-0.7-1.9-0.7-2.7,0l-8.3,8.3L18.7,21.7z"/>
</svg>
