<?xml version="1.0" encoding="UTF-8"?>
<svg width="48px" height="48px" viewBox="0 0 48 48" version="1.1" xmlns="http://www.w3.org/2000/svg" xmlns:xlink="http://www.w3.org/1999/xlink">
    <!-- Generator: Sketch 52.5 (67469) - http://www.bohemiancoding.com/sketch -->
    <title>Twitter_ico</title>
    <desc>Created with Sketch.</desc>
    <g stroke="none" stroke-width="1" fill="none" fill-rule="evenodd" opacity="1">
        <g id="Thales-AIR-524" transform="translate(-1728.000000, -571.000000)" fill="#000000" fill-rule="nonzero">
            <path d="M1752,571 C1738.74425,571 1728,581.744247 1728,595 C1728,608.255753 1738.74425,619 1752,619 C1765.25575,619 1776,608.255753 1776,595 C1776,581.744247 1765.25575,571 1752,571 Z M1764.20669,590.400782 C1764.07121,600.644811 1757.51976,607.661746 1747.74121,608.102909 C1743.70821,608.287017 1740.7868,606.984368 1738.24403,605.369084 C1741.22449,605.844985 1744.92054,604.653495 1746.89709,602.961789 C1743.97568,602.676943 1742.24577,601.190187 1741.43639,598.796787 C1742.2805,598.942683 1743.16978,598.904472 1743.97221,598.73426 C1741.33565,597.851932 1739.45289,596.222753 1739.35562,592.808076 C1740.09553,593.145028 1740.8667,593.461138 1741.89145,593.523665 C1739.91837,592.40165 1738.4594,588.299175 1740.13026,585.586192 C1743.05862,588.795918 1746.58098,591.415111 1752.36474,591.769431 C1750.91272,585.561876 1759.13851,582.195832 1762.58098,586.367781 C1764.03647,586.086409 1765.22102,585.534086 1766.3604,584.933131 C1765.89145,586.374729 1764.98828,587.38211 1763.8871,588.188016 C1765.09596,588.02475 1766.16587,587.729483 1767.07946,587.277898 C1766.51324,588.455493 1765.27312,589.511507 1764.20669,590.400782 Z" id="Twitter_ico"></path>
        </g>
    </g>
</svg>