<?xml version="1.0" encoding="UTF-8"?>
<svg width="48px" height="48px" viewBox="0 0 48 48" version="1.1" xmlns="http://www.w3.org/2000/svg" xmlns:xlink="http://www.w3.org/1999/xlink">
    <!-- Generator: Sketch 52.5 (67469) - http://www.bohemiancoding.com/sketch -->
    <title>Telegram_ico</title>
    <desc>Created with Sketch.</desc>
    <g stroke="none" stroke-width="1" fill="none" fill-rule="evenodd" opacity="1">
        <g id="Thales-AIR-524" transform="translate(-1728.000000, -651.000000)" fill="#006abd" fill-rule="nonzero">
            <path d="M1752,651 C1738.74063,651 1728,661.74271 1728,675 C1728,688.25729 1738.74271,699 1752,699 C1765.25831,699 1776,688.25729 1776,675 C1776,661.74271 1765.25729,651 1752,651 Z M1763.7884,667.44179 L1759.84724,686.003855 C1759.55614,687.321015 1758.77369,687.639982 1757.6795,687.020627 L1751.68003,682.597403 L1748.78661,685.3845 C1748.46661,685.7045 1748.19616,685.974953 1747.5768,685.974953 L1748.0021,679.868115 L1759.12261,669.822179 C1759.60777,669.395856 1759.01629,669.154306 1758.37629,669.580631 L1744.63382,678.230937 L1738.71177,676.383194 C1737.42455,675.977516 1737.39564,675.095966 1738.98222,674.476611 L1762.12234,665.553789 C1763.19589,665.16566 1764.13524,665.81495 1763.78634,667.440755 L1763.7884,667.442819 L1763.7884,667.44179 Z" id="Telegram_ico"></path>
        </g>
    </g>
</svg>