<?xml version="1.0" encoding="UTF-8"?>
<svg width="48px" height="48px" viewBox="0 0 48 48" version="1.1" xmlns="http://www.w3.org/2000/svg" xmlns:xlink="http://www.w3.org/1999/xlink">
    <!-- Generator: Sketch 52.5 (67469) - http://www.bohemiancoding.com/sketch -->
    <title>BSC_ico</title>
    <desc>Created with Sketch.</desc>
    <g stroke="none" stroke-width="1" fill="none" fill-rule="evenodd" opacity="1">
        <g id="Thales-AIR-524" transform="translate(-1728.000000, -811.000000)" fill="#000000">
            <g id="BSC_ico" transform="translate(1728.000000, 811.000000)">
                <g transform="translate(0.919645, 0.919645)">
                    <path d="M46.1049822,20.9851271 C46.1196489,21.4209373 46.1280299,21.9279853 46.1280299,22.5062717 C46.1280299,35.5512557 35.767049,46.1280135 22.9861145,46.1280135 C17.6432512,46.1280135 12.1788475,44.4622973 8.41370025,42.008769 C15.6192488,40.7516247 14.9005649,41.3215284 26.9230388,36.4249366 C37.9146542,31.9495028 46.1070611,21.9112054 46.1070611,20.9850927 L46.1049822,20.9851271 Z" id="路径"></path>
                    <path d="M23.5099247,0.0327397702 L23.509924,0.0327397701 C28.6430997,0.0337437128 33.631851,1.73250202 37.6989093,4.8643628 L37.6989104,4.86436366 C41.7955705,8.02104323 44.7541418,12.4247117 46.1280631,17.410664 C46.1699679,17.4441878 43.9217748,22.3805581 37.0829097,27.2855326 C36.747671,27.4615328 37.0556715,13.8885483 36.8084333,11.8121976 C36.9131952,10.651436 36.0080498,10.6807677 35.2893856,10.6577217 L35.2893869,10.6577218 C33.897075,10.6190476 32.5039529,10.6190461 31.1116361,10.6577172 C29.9320173,10.6493362 29.758109,10.9280033 29.5925883,11.6215295 C29.52135,11.8436252 29.5527787,31.2392666 29.6386836,31.5535527 C28.8362081,31.9160291 27.6188701,32.4628855 26.7472517,32.8044113 C26.5502989,32.8400304 26.7472517,18.9905068 26.7472517,17.3981077 C26.7472517,16.193346 26.4832514,15.6653454 25.6074392,15.6653454 C24.3230551,15.6653454 22.1921955,15.5982978 20.8596225,15.6653454 C19.6988609,15.7219169 19.3615239,16.6144893 19.3405748,17.3981077 C19.3070509,18.6447774 19.5019081,34.8095565 19.3573367,35.1489855 C18.4563816,35.3815572 17.5491457,35.6015574 16.6419049,35.8047974 C16.6209525,35.8676546 16.6900954,22.8352421 16.6838098,22.2129557 C16.6712383,20.9914288 16.0259059,20.760954 14.9740935,20.8636224 C14.2973324,20.9306699 12.0617075,20.8133366 11.3681862,20.8636224 C9.99161315,20.8929558 9.66894447,21.3015275 9.6584699,22.2129557 C9.64799372,23.2563855 9.67104135,37.1080043 9.70666047,37.1038301 C7.72246932,37.4055448 5.93941635,37.6171624 4.49368565,37.7470706 L4.49368358,37.7470677 C1.58256457,33.6812764 0.0221440048,28.8037627 0.0327560707,23.8032256 C0.0327560673,10.6765273 10.5445942,0.0327381304 23.5099262,0.0327381304 L23.5099247,0.0327397702 Z" id="路径"></path>
                </g>
            </g>
        </g>
    </g>
</svg>