<?xml version="1.0" encoding="UTF-8"?>
<svg width="48px" height="48px" viewBox="0 0 48 48" version="1.1" xmlns="http://www.w3.org/2000/svg" xmlns:xlink="http://www.w3.org/1999/xlink">
    <!-- Generator: Sketch 52.5 (67469) - http://www.bohemiancoding.com/sketch -->
    <title>PancakeSwap_ico</title>
    <desc>Created with Sketch.</desc>
    <g stroke="none" stroke-width="1" fill="none" fill-rule="evenodd">
        <g transform="translate(-1806.000000, -731.000000)" fill="#006abd">
            <g transform="translate(1806.000000, 571.000000)">
                <path d="M24,208 C10.745166,208 0,197.254834 0,184 C0,170.745166 10.745166,160 24,160 C37.254834,160 48,170.745166 48,184 C48,197.254834 37.254834,208 24,208 Z M15.8633902,180.871965 C12.0809956,182.746119 9.6,185.890708 9.6,189.453801 C9.6,195.197563 16.0470996,199.853801 24,199.853801 C31.9529004,199.853801 38.4,195.197563 38.4,189.453801 C38.4,185.956911 36.0103426,182.863118 32.3460873,180.977742 L33.7778595,171.211267 C33.958804,169.976999 33.1659678,168.809277 31.9520154,168.522089 L29.0131483,167.826832 C27.720614,167.521054 26.4249252,168.320977 26.1191465,169.613511 C26.0826868,169.767627 26.0615394,169.924968 26.0560124,170.083241 L25.7401288,179.128963 C25.1696824,179.079338 24.5889705,179.053801 24,179.053801 C23.4880608,179.053801 22.9823611,179.073095 22.484219,179.110731 L22.1689721,170.083241 C22.163445,169.924968 22.1422977,169.767627 22.105838,169.613511 C21.8000592,168.320977 20.5043705,167.521054 19.2118362,167.826832 L16.2729691,168.522089 C15.0590166,168.809277 14.2661804,169.976999 14.447125,171.211267 L15.8633902,180.871965 Z M19.2,190.253801 C18.3163444,190.253801 17.6,189.179285 17.6,187.853801 C17.6,186.528318 18.3163444,185.453801 19.2,185.453801 C20.0836556,185.453801 20.8,186.528318 20.8,187.853801 C20.8,189.179285 20.0836556,190.253801 19.2,190.253801 Z M28.8,190.253801 C27.9163444,190.253801 27.2,189.179285 27.2,187.853801 C27.2,186.528318 27.9163444,185.453801 28.8,185.453801 C29.6836556,185.453801 30.4,186.528318 30.4,187.853801 C30.4,189.179285 29.6836556,190.253801 28.8,190.253801 Z" id="PancakeSwap_ico"></path>
            </g>
        </g>
    </g>
</svg>