<?xml version="1.0" encoding="UTF-8"?>
<svg width="48px" height="48px" viewBox="0 0 48 48" version="1.1" xmlns="http://www.w3.org/2000/svg" xmlns:xlink="http://www.w3.org/1999/xlink">
    <!-- Generator: Sketch 52.5 (67469) - http://www.bohemiancoding.com/sketch -->
    <title>Github_ico</title>
    <desc>Created with Sketch.</desc>
    <g id="页面-1" stroke="none" stroke-width="1" fill="none" fill-rule="evenodd" opacity="1">
        <g id="Thales-AIR-524" transform="translate(-1728.000000, -891.000000)" fill="#000000">
            <path d="M1771.40497,930.055944 C1768.48964,934.230077 1764.3527,937.343858 1759.59423,938.945747 C1759.17038,939.06689 1758.71576,938.98276 1758.36001,938.717353 C1758.10295,938.466955 1757.96523,938.114096 1757.98289,937.75107 L1757.98289,931.004658 C1758.12145,929.315956 1757.52549,927.65071 1756.35441,926.454342 C1757.42909,926.346363 1758.4947,926.158468 1759.54279,925.892141 C1760.57154,925.609314 1761.55775,925.183724 1762.47405,924.627189 C1763.43417,924.090474 1764.28862,923.375588 1764.99391,922.518934 C1765.76853,921.51591 1766.35024,920.371222 1766.70809,919.145728 C1767.16294,917.57841 1767.38258,915.949317 1767.35949,914.314317 C1767.413,911.86786 1766.51936,909.499182 1764.87392,907.72602 C1765.64724,905.601817 1765.56085,903.249055 1764.63393,901.190433 C1763.77888,901.030645 1762.8964,901.153701 1762.11407,901.541808 C1761.1111,901.91143 1760.14642,902.382238 1759.23425,902.947305 L1758.05146,903.702763 C1754.12693,902.578323 1749.97668,902.578323 1746.05216,903.702762 C1745.70932,903.4568 1745.28077,903.193268 1744.73223,902.841892 C1743.87837,902.33175 1742.9838,901.896802 1742.05816,901.541731 C1741.22817,901.109787 1740.28671,900.956142 1739.36688,901.102512 C1738.44263,903.181315 1738.36247,905.551393 1739.14404,907.690804 C1737.52155,909.491616 1736.63763,911.863396 1736.67561,914.314235 C1736.65117,915.937832 1736.87088,917.55556 1737.32701,919.110551 C1737.69897,920.330132 1738.27938,921.472284 1739.0412,922.483757 C1739.73086,923.365742 1740.58814,924.094951 1741.56105,924.627148 C1742.48938,925.158831 1743.4725,925.583086 1744.4923,925.892099 C1745.54595,926.159634 1746.61734,926.34754 1747.69783,926.4543 C1746.80062,927.32027 1746.25055,928.4979 1746.15506,929.757231 C1745.70411,929.977264 1745.22513,930.13104 1744.73229,930.214019 C1744.16716,930.322946 1743.59313,930.375897 1743.01811,930.372138 C1742.23058,930.377287 1741.46197,930.124947 1740.82394,929.651779 C1740.11351,929.124047 1739.52772,928.43961 1739.10975,927.648938 C1738.73147,926.986677 1738.21665,926.417064 1737.60127,925.979904 C1737.14267,925.619005 1736.61806,925.356135 1736.0585,925.206878 L1735.4414,925.206878 C1735.13232,925.188537 1734.8229,925.236405 1734.53288,925.347428 C1734.36146,925.45284 1734.31003,925.575822 1734.3786,925.716372 C1734.45975,925.873275 1734.55747,926.020565 1734.67001,926.155592 C1734.79417,926.303508 1734.93194,926.438826 1735.08142,926.559674 L1735.30426,926.700224 C1735.84227,926.996816 1736.31035,927.410596 1736.67561,927.91247 C1737.05819,928.412863 1737.38586,928.954903 1737.6527,929.528798 L1737.96125,930.266687 C1738.20446,931.059187 1738.68409,931.753539 1739.3326,932.25196 C1739.94943,932.710186 1740.65789,933.02223 1741.40677,933.165536 C1742.1171,933.317906 1742.84092,933.394446 1743.56664,933.39393 C1744.14045,933.404704 1744.71407,933.36355 1745.28083,933.270949 L1746.00079,933.147967 L1746.00079,937.750988 C1746.00739,938.119099 1745.85718,938.471888 1745.58938,938.717274 C1745.22638,938.980892 1744.7675,939.064646 1744.33802,938.945668 C1739.59427,937.323274 1735.48023,934.190151 1732.59584,930.003158 C1729.55343,925.853193 1727.93796,920.787234 1728.00182,915.596757 C1727.97682,911.274707 1729.0902,907.026004 1731.22457,903.298458 C1733.32074,899.556029 1736.34962,896.451741 1740.00115,894.303353 C1743.63808,892.115854 1747.78356,890.974767 1752.00046,891.000423 C1756.21733,890.974766 1760.36285,892.115854 1763.99976,894.303354 C1767.65132,896.451737 1770.68022,899.55608 1772.7764,903.298571 C1774.91233,907.025406 1776.02581,911.274581 1775.99907,915.596721 C1776.0449,920.800682 1774.43182,925.877594 1771.40497,930.055944 Z" id="Github_ico"></path>
        </g>
    </g>
</svg>