<?xml version="1.0" standalone="no"?>
<!DOCTYPE svg PUBLIC "-//W3C//DTD SVG 1.1//EN" "http://www.w3.org/Graphics/SVG/1.1/DTD/svg11.dtd" >
<svg>
<metadata>
Created by FontForge 20090914 at Thu May 20 08:36:08 2021
 By www-data
Copyright 2017 The Archivo Narrow Project Authors (https://github.com/Omnibus-Type/ArchivoNarrow)
</metadata>
<defs>
<font id="ArchivoNarrow-Bold" horiz-adv-x="456" >
  <font-face 
    font-family="Archivo Narrow"
    font-weight="700"
    font-stretch="normal"
    units-per-em="1000"
    panose-1="2 11 8 6 2 2 2 2 11 4"
    ascent="800"
    descent="-200"
    x-height="526"
    cap-height="686"
    bbox="-200 -263.002 960 957"
    underline-thickness="50"
    underline-position="-50"
    unicode-range="U+000D-U+FB02"
  />
<missing-glyph horiz-adv-x="500" 
d="M0 700h500v-700h-500v700zM420 650h-340l170 -255zM220 350l-170 255v-510zM450 605l-170 -255l170 -255v510zM420 50l-170 255l-170 -255h340z" />
    <glyph glyph-name=".notdef" horiz-adv-x="500" 
d="M0 700h500v-700h-500v700zM420 650h-340l170 -255zM220 350l-170 255v-510zM450 605l-170 -255l170 -255v510zM420 50l-170 255l-170 -255h340z" />
    <glyph glyph-name="NULL" horiz-adv-x="0" 
 />
    <glyph glyph-name="NULL" horiz-adv-x="0" 
 />
    <glyph glyph-name="nonmarkingreturn" unicode="&#xd;" horiz-adv-x="228" 
 />
    <glyph glyph-name="space" unicode=" " horiz-adv-x="228" 
 />
    <glyph glyph-name="exclam" unicode="!" horiz-adv-x="273" 
d="M60 686h153l-36 -489h-82zM68 137h138v-137h-138v137z" />
    <glyph glyph-name="quotedbl" unicode="&#x22;" horiz-adv-x="389" 
d="M45 539v147h122v-147l-21 -132h-79zM226 539v147h122v-147l-21 -132h-79z" />
    <glyph glyph-name="numbersign" unicode="#" 
d="M68 195h-63v84h82l31 141h-74v84h93l44 194h88l-44 -194h75l44 194h88l-44 -194h62v-84h-81l-31 -141h73v-84h-92l-44 -195h-88l44 195h-75l-44 -195h-88zM250 279l31 141h-75l-31 -141h75z" />
    <glyph glyph-name="dollar" unicode="$" 
d="M198 69c-52 4.66699 -92.5 21.832 -121.5 51.499s-43.5 67.834 -43.5 114.501l1 12h110v-7c0 -21.333 5 -38.666 15 -51.999s23 -22.333 39 -27v143c-32.667 9.33301 -59.667 18.833 -81 28.5s-39.333 24.667 -54 45s-22 47.166 -22 80.499c0 46 14.333 82.667 43 110
s66.667 43.333 114 48v107h55v-106c45.333 -4 82.333 -18.667 111 -44s43 -58 43 -98l-1 -23h-110v10c0 32 -14.333 53.333 -43 64v-129c34.667 -9.33301 63.167 -18.833 85.5 -28.5s41.5 -25 57.5 -46s24 -49.167 24 -84.5c0 -104.667 -55.667 -161 -167 -169v-118h-55v118
zM198 525.998c-14 -4.66699 -25.333 -12.001 -34 -22.001s-13 -22 -13 -36c0 -13.333 4 -24.166 12 -32.499s19.667 -15.5 35 -21.5v112zM294 180.997c10.667 10.667 16 24.667 16 42c0 15.333 -4.83301 27.833 -14.5 37.5s-23.834 18.167 -42.501 25.5v-127
c16.667 4 30.334 11.333 41.001 22z" />
    <glyph glyph-name="percent" unicode="%" horiz-adv-x="729" 
d="M69.5 377.5c-23 27 -34.5 73.5 -34.5 139.5s11.5 112.667 34.5 140s57.5 41 103.5 41s80.5 -13.667 103.5 -41s34.5 -74 34.5 -140s-11.5 -112.5 -34.5 -139.5s-57.5 -40.5 -103.5 -40.5s-80.5 13.5 -103.5 40.5zM532 686h86l-419 -686h-85zM211.5 435.5
c7 17 10.5 41.833 10.5 74.5v15c0 32.667 -3.5 57.5 -10.5 74.5s-19.833 25.5 -38.5 25.5s-31.5 -8.5 -38.5 -25.5s-10.5 -41.833 -10.5 -74.5v-15c0 -32.667 3.5 -57.5 10.5 -74.5s19.833 -25.5 38.5 -25.5s31.5 8.5 38.5 25.5zM453.5 28.5c-23 27 -34.5 73.5 -34.5 139.5
s11.5 112.667 34.5 140s57.5 41 103.5 41s80.5 -13.667 103.5 -41s34.5 -74 34.5 -140s-11.5 -112.5 -34.5 -139.5s-57.5 -40.5 -103.5 -40.5s-80.5 13.5 -103.5 40.5zM595.5 86.5c7 17 10.5 41.833 10.5 74.5v15c0 32.667 -3.5 57.5 -10.5 74.5s-19.833 25.5 -38.5 25.5
s-31.5 -8.5 -38.5 -25.5s-10.5 -41.833 -10.5 -74.5v-15c0 -32.667 3.5 -57.5 10.5 -74.5s19.833 -25.5 38.5 -25.5s31.5 8.5 38.5 25.5z" />
    <glyph glyph-name="ampersand" unicode="&#x26;" horiz-adv-x="592" 
d="M148 11.5c-35.333 15.667 -62.832 38.3311 -82.499 67.998s-29.5 64.5 -29.5 104.5c0 43.333 10.667 79.333 32 108s49.666 48.667 84.999 60v4c-32.667 16 -58 36.167 -76 60.5s-27 55.5 -27 93.5c0 60 20.667 106.333 62 139s97 49 167 49
c42.667 0 80.667 -7.83301 114 -23.5s59.166 -37.667 77.499 -66s27.5 -61.166 27.5 -98.499v-28h-120v19c0 64 -33.667 96 -101 96c-32 0 -57 -8.16699 -75 -24.5s-27 -38.833 -27 -67.5c0 -32.667 9.16699 -58.5 27.5 -77.5s41.833 -28.5 70.5 -28.5h41v-101h-38
c-76.667 0 -115 -36 -115 -108c0 -33.333 9.66699 -58.5 29 -75.5s46.333 -25.5 81 -25.5c35.333 0 62 8.83301 80 26.5s27 42.834 27 75.501v208h199v-101h-79v-104c0 -63.333 -19.833 -113.5 -59.5 -150.5s-96.167 -55.5 -169.5 -55.5
c-45.333 0 -85.666 7.83301 -120.999 23.5z" />
    <glyph glyph-name="quotesingle" unicode="'" horiz-adv-x="195" 
d="M37 539v147h122v-147l-21 -132h-79z" />
    <glyph glyph-name="parenleft" unicode="(" horiz-adv-x="273" 
d="M68.5 50c-25.667 76.667 -38.5 156.003 -38.5 238.003s12.833 161.667 38.5 239s62.5 146.666 110.5 207.999h79c-34.667 -64.667 -63 -136.334 -85 -215.001s-33 -155.334 -33 -230.001s11 -151.667 33 -231s50.333 -151.333 85 -216h-79
c-48 61.333 -84.833 130.333 -110.5 207z" />
    <glyph glyph-name="parenright" unicode=")" horiz-adv-x="273" 
d="M100 59c22 79.333 33 156.33 33 230.997s-11 151.334 -33 230.001s-50.333 150.334 -85 215.001h79c48 -61.333 84.833 -130.666 110.5 -207.999s38.5 -157 38.5 -239s-12.833 -161.333 -38.5 -238s-62.5 -145.667 -110.5 -207h-79c34.667 64.667 63 136.667 85 216z" />
    <glyph glyph-name="asterisk" unicode="*" horiz-adv-x="319" 
d="M131 483l-84 -60l-39 68l93 42l-93 44l39 66l84 -59l-10 102h78l-10 -101l84 58l39 -66l-93 -44l93 -42l-39 -68l-84 60l10 -102h-78z" />
    <glyph glyph-name="plus" unicode="+" horiz-adv-x="479" 
d="M187 203h-154v104h154v204h103v-204h155v-104h-155v-203h-103v203z" />
    <glyph glyph-name="comma" unicode="," horiz-adv-x="228" 
d="M100 0h-55v137h138v-125l-66 -168h-72z" />
    <glyph glyph-name="hyphen" unicode="-" horiz-adv-x="273" 
d="M16 329h241v-118h-241v118z" />
    <glyph glyph-name="period" unicode="." horiz-adv-x="228" 
d="M45 137h138v-137h-138v137z" />
    <glyph glyph-name="slash" unicode="/" horiz-adv-x="228" 
d="M143 735h85l-141 -784h-86z" />
    <glyph glyph-name="zero" unicode="0" 
d="M119 19.5c-28.667 21 -50.667 57.5 -66 109.5s-23 123.333 -23 214s7.66699 162 23 214s37.333 88.5 66 109.5s65 31.5 109 31.5c43.333 0 79.5 -10.667 108.5 -32s51.167 -58 66.5 -110s23 -123 23 -213s-7.66699 -161 -23 -213s-37.5 -88.667 -66.5 -110
s-65.167 -32 -108.5 -32c-44 0 -80.333 10.5 -109 31.5zM273.5 112c10.333 15.333 17.5 38.5 21.5 69.5s6 73.167 6 126.5v70c0 53.333 -2 95.5 -6 126.5s-11.167 54.167 -21.5 69.5s-25.5 23 -45.5 23s-35.167 -7.66699 -45.5 -23s-17.5 -38.5 -21.5 -69.5
s-6 -73.167 -6 -126.5v-70c0 -53.333 2 -95.5 6 -126.5s11.167 -54.167 21.5 -69.5s25.5 -23 45.5 -23s35.167 7.66699 45.5 23z" />
    <glyph glyph-name="one" unicode="1" 
d="M40 101l154 0.00195312v428h-155v80c29.333 3.33301 65 12.166 107 26.499s78.333 31.166 109 50.499h59v-585h141v-101h-415v101z" />
    <glyph glyph-name="two" unicode="2" 
d="M33 24c0 34.667 6.50195 67.499 19.502 98.499s31.167 61.833 54.5 92.5c18 22.667 39 47 63 73c29.333 32.667 52.166 59.5 68.499 80.5s30.166 44.5 41.499 70.5s17 53.333 17 82c0 19.333 -5 36.5 -15 51.5s-26 22.5 -48 22.5c-23.333 0 -40.666 -9.66699 -51.999 -29
s-17 -44.333 -17 -75v-41h-123c-0.666992 2 -1.33398 6.66699 -2.00098 14s-1 16 -1 26c0 69.333 18.833 121.333 56.5 156s85.5 52 143.5 52c54.667 0 99 -14.667 133 -44s51 -74 51 -134c0 -38.667 -8.33301 -76.5 -25 -113.5s-36.167 -70.167 -58.5 -99.5
s-50.5 -63.666 -84.5 -102.999c-29.333 -33.333 -46.333 -53.333 -51 -60c-10 -13.333 -17 -24 -21 -32h243v-112h-393v24z" />
    <glyph glyph-name="three" unicode="3" 
d="M78 43.5c-35.333 37 -52.998 87.1689 -52.998 150.502v18h125v-21c0 -32.667 6.5 -57.834 19.5 -75.501s31.833 -26.5 56.5 -26.5c23.333 0 41.666 8.5 54.999 25.5s20 42.167 20 75.5c0 72 -27.333 108 -82 108h-33v101h35c20 0 36.333 9.16699 49 27.5s19 44.5 19 78.5
c0 61.333 -21 92 -63 92c-20.667 0 -36.5 -8 -47.5 -24s-16.5 -40 -16.5 -72v-19h-125v28c0 37.333 8 70.166 24 98.499s38.167 50.333 66.5 66s60.833 23.5 97.5 23.5c58 0 104 -16.333 138 -49s51 -79 51 -139c0 -38 -7.83301 -69.167 -23.5 -93.5
s-37.5 -44.5 -65.5 -60.5v-4c30.667 -11.333 55.167 -31.333 73.5 -60s27.5 -64.667 27.5 -108c0 -60 -18.333 -107.667 -55 -143s-84.334 -53 -143.001 -53c-64.667 0 -114.667 18.5 -150 55.5z" />
    <glyph glyph-name="four" unicode="4" 
d="M255 155h-247.006v96c34.667 60.667 66.834 130.334 96.501 209.001s55.167 158 76.5 238h120c-11.333 -54.667 -29.166 -112.167 -53.499 -172.5s-49.166 -115 -74.499 -164s-45.666 -84.167 -60.999 -105.5h143v154c12.667 25.333 25.334 55.666 38.001 90.999
s22.334 67 29.001 95h53v-340h70v-101h-70v-155h-120v155z" />
    <glyph glyph-name="five" unicode="5" 
d="M85 48.5c-36.667 40.333 -54.999 95.168 -54.999 164.501h125c0 -38.667 6.83301 -69.167 20.5 -91.5s32.5 -33.5 56.5 -33.5c23.333 0 42 11.667 56 35s21 57 21 101c0 38.667 -6.5 69 -19.5 91s-29.833 33 -50.5 33c-32 0 -56.667 -19.333 -74 -58l-116 16l23 380h332
v-112h-226l-10 -162c28 22.667 60.667 34 98 34c49.333 0 89.5 -18.833 120.5 -56.5s46.5 -92.834 46.5 -165.501c0 -74.667 -17.833 -132.667 -53.5 -174s-84.834 -62 -147.501 -62c-61.333 0 -110.333 20.167 -147 60.5z" />
    <glyph glyph-name="six" unicode="6" 
d="M82.5 64.5c-35 51 -52.501 137.17 -52.501 258.503c0 92.667 7.66699 166.667 23 222s37.5 94.666 66.5 117.999s65.167 35 108.5 35c60.667 0 105.834 -20.333 135.501 -61s44.5 -94.667 44.5 -162h-123c0 40.667 -4.66699 71.167 -14 91.5s-25 30.5 -47 30.5
c-20 0 -34.833 -8.66699 -44.5 -26s-16.167 -41 -19.5 -71s-5.33301 -71 -6 -123c11.333 17.333 26.333 30.666 45 39.999s39 14 61 14c54 0 95.167 -20.333 123.5 -61s42.5 -94 42.5 -160c0 -44.667 -8.16699 -83.834 -24.5 -117.501s-38.833 -59.5 -67.5 -77.5
s-61 -27 -97 -27c-68 0 -119.5 25.5 -154.5 76.5zM284.499 122.503c11.667 22.333 17.5 51.5 17.5 87.5c0 38 -5.83301 68 -17.5 90s-29.167 33 -52.5 33s-41 -11 -53 -33s-18 -52 -18 -90c0 -36 6 -65.167 18 -87.5s29.667 -33.5 53 -33.5s40.833 11.167 52.5 33.5z" />
    <glyph glyph-name="seven" unicode="7" 
d="M157.5 306.5c39 101.667 87.5 190.833 145.5 267.5h-280v112h410v-81c-56.667 -85.333 -104.5 -175.333 -143.5 -270s-58.5 -189.334 -58.5 -284.001c0 -18 0.333008 -35 1 -51h-133c0 102.667 19.5 204.834 58.5 306.501z" />
    <glyph glyph-name="eight" unicode="8" 
d="M79 43.5c-32.667 37 -48.9971 85.167 -48.9971 144.5c0 80 29.333 134.667 88 164c-24.667 16 -43.167 37.5 -55.5 64.5s-18.5 57.167 -18.5 90.5c0 55.333 16 101 48 137s77.333 54 136 54s104 -18 136 -54s48 -81.667 48 -137c0 -33.333 -6.33301 -63.5 -19 -90.5
s-31.334 -48.5 -56.001 -64.5c59.333 -29.333 89 -84 89 -164c0 -59.333 -16.333 -107.5 -49 -144.5s-82.334 -55.5 -149.001 -55.5s-116.334 18.5 -149.001 55.5zM274.503 425.5c11 17 16.5 41.502 16.5 73.502s-5.5 56.5 -16.5 73.5s-26.5 25.5 -46.5 25.5
s-35.333 -8.33301 -46 -25s-16 -41.334 -16 -74.001s5.33301 -57.334 16 -74.001s26 -25 46 -25s35.5 8.5 46.5 25.5zM283.003 115.002c12.667 18 19 44.333 19 79s-6.33301 61.167 -19 79.5s-31 27.5 -55 27.5s-42.333 -9.16699 -55 -27.5s-19 -44.833 -19 -79.5
s6.33301 -61 19 -79s31 -27 55 -27s42.333 9 55 27z" />
    <glyph glyph-name="nine" unicode="9" 
d="M92.5 49c-29.667 40.667 -44.499 94.6641 -44.499 161.997h123c0 -40.667 4.66699 -71.167 14 -91.5s25 -30.5 47 -30.5c20 0 34.833 8.66699 44.5 26s16.167 41 19.5 71s5.33301 71 6 123c-11.333 -17.333 -26.333 -30.666 -45 -39.999s-39 -14 -61 -14
c-54 0 -95.167 20.333 -123.5 61s-42.5 94 -42.5 160c0 44.667 8.16699 83.834 24.5 117.501s38.833 59.5 67.5 77.5s61 27 97 27c68 0 119.5 -25.5 154.5 -76.5s52.5 -137.167 52.5 -258.5c0 -92.667 -7.66699 -166.667 -23 -222s-37.5 -94.666 -66.5 -117.999
s-65.167 -35 -108.5 -35c-60.667 0 -105.834 20.333 -135.501 61zM277.001 385.997c12 22 18 52 18 90c0 36 -6 65.167 -18 87.5s-29.667 33.5 -53 33.5s-40.833 -11.167 -52.5 -33.5s-17.5 -51.5 -17.5 -87.5c0 -38 5.83301 -68 17.5 -90s29.167 -33 52.5 -33s41 11 53 33z
" />
    <glyph glyph-name="colon" unicode=":" horiz-adv-x="273" 
d="M55 526h138v-137h-138v137zM55 137h138v-137h-138v137z" />
    <glyph glyph-name="semicolon" unicode=";" horiz-adv-x="273" 
d="M55 526h138v-137h-138v137zM109 0h-55v137h138v-125l-66 -168h-72z" />
    <glyph glyph-name="less" unicode="&#x3c;" horiz-adv-x="479" 
d="M34 197v127l412 207v-118l-311 -152l311 -152v-118z" />
    <glyph glyph-name="equal" unicode="=" horiz-adv-x="479" 
d="M33 412h412v-104h-412v104zM33 199h412v-103h-412v103z" />
    <glyph glyph-name="greater" unicode="&#x3e;" horiz-adv-x="479" 
d="M34 109l311 152l-311 152v118l412 -207v-127l-412 -206v118z" />
    <glyph glyph-name="question" unicode="?" horiz-adv-x="501" 
d="M202 240c0 26 4.83301 48.166 14.5 66.499s24.167 39.166 43.5 62.499c20.667 24.667 36.167 46.834 46.5 66.501s15.5 44.167 15.5 73.5c0 18 -5 36.167 -15 54.5s-28.333 27.5 -55 27.5c-29.333 0 -49.5 -10.833 -60.5 -32.5s-16.5 -45.834 -16.5 -72.501
c0 -7.33301 0.166992 -13.333 0.5 -18s0.5 -7.66699 0.5 -9h-126c-0.666992 2.66699 -1.33398 7.33398 -2.00098 14.001s-1 13.667 -1 21c0 38 8 72.5 24 103.5s40 55.5 72 73.5s71 27 117 27c58.667 0 105.5 -16.333 140.5 -49s52.5 -75.667 52.5 -129
c0 -43.333 -6.16699 -77.666 -18.5 -102.999s-30.166 -51.333 -53.499 -78c-18 -20.667 -31.333 -39 -40 -55s-13 -35.667 -13 -59v-28h-126v43zM197 136.999h138v-137h-138v137z" />
    <glyph glyph-name="at" unicode="@" horiz-adv-x="800" 
d="M117.5 -51c-61.667 68 -92.5 172.331 -92.5 312.998c0 102 17.167 185.5 51.5 250.5s80.5 112.167 138.5 141.5s123.667 44 197 44c110.667 0 199 -30.833 265 -92.5s99 -156.5 99 -284.5c0 -70.667 -10.167 -128.334 -30.5 -173.001s-45.666 -76.834 -75.999 -96.501
s-61.166 -29.5 -92.499 -29.5c-30.667 0 -53.5 5.33301 -68.5 16s-26.833 26.334 -35.5 47.001h-5c-14.667 -21.333 -31 -37.166 -49 -47.499s-41.667 -15.5 -71 -15.5c-30 0 -57.5 10.167 -82.5 30.5s-37.5 54.833 -37.5 103.5c0 60.667 20.667 103.667 62 129
s99.666 38 174.999 38v50c0 18.667 -3.5 33.167 -10.5 43.5s-20.167 15.5 -39.5 15.5c-20.667 0 -35.334 -4.83301 -44.001 -14.5s-13 -21.5 -13 -35.5v-13h-106c-0.666992 3.33301 -1 10 -1 20c0 39.333 14.667 71.166 44 95.499s68.333 36.5 117 36.5
c54.667 0 95.5 -12.167 122.5 -36.5s40.5 -59.166 40.5 -104.499v-228c0 -25.333 10 -38 30 -38c26.667 0 49.667 16.667 69 50s29 86 29 158c0 104 -26 181.167 -78 231.5s-123.333 75.5 -214 75.5c-98.667 0 -175.5 -31 -230.5 -93s-82.5 -153.667 -82.5 -275
c0 -115.333 23 -201.666 69 -258.999s117 -86 213 -86c23.333 0 51.666 3.16699 84.999 9.5s58.333 13.833 75 22.5v-74c-19.333 -7.33301 -45.166 -13.666 -77.499 -18.999s-59.833 -8 -82.5 -8c-113.333 0 -200.833 34 -262.5 102zM447.5 141.998
c11.667 19.333 17.499 44.333 17.499 75v27c-83.333 0 -125 -26 -125 -78c0 -16.667 4.33301 -29.667 13 -39s22 -14 40 -14c24.667 0 42.834 9.66699 54.501 29z" />
    <glyph glyph-name="A" unicode="A" horiz-adv-x="592" 
d="M221 686h149l221 -686h-131l-42 135h-253l-41 -135h-124zM383 249l-69 228.999c-4.66699 14.667 -9 32.334 -13 53.001s-6.33301 34 -7 40h-4l-8 -41.5c-4 -21 -8 -38.167 -12 -51.5l-70 -229h183z" />
    <glyph glyph-name="B" unicode="B" horiz-adv-x="592" 
d="M60 686l295.001 0.00292969c36 0 68.167 -7.16699 96.5 -21.5s50.5 -34.333 66.5 -60s24 -55.167 24 -88.5c0 -38 -9.83301 -70.833 -29.5 -98.5s-44.834 -46.834 -75.501 -57.501v-4c35.333 -10.667 64.333 -31.334 87 -62.001s34 -67.334 34 -110.001
c0 -37.333 -9.16699 -69.833 -27.5 -97.5s-42.833 -49 -73.5 -64s-64.667 -22.5 -102 -22.5h-295v686zM320.001 408.003c29.333 0 51.833 8 67.5 24s23.5 36.333 23.5 61c0 25.333 -7.66699 44.833 -23 58.5s-36 20.5 -62 20.5h-138v-164h132zM334.001 114.003
c27.333 0 49.667 7.5 67 22.5s26 36.167 26 63.5c0 28 -8.5 50.833 -25.5 68.5s-41.5 26.5 -73.5 26.5h-140v-181h146z" />
    <glyph glyph-name="C" unicode="C" horiz-adv-x="592" 
d="M104.5 76.5c-47 59 -70.498 147.835 -70.498 266.502s23.5 207.5 70.5 266.5s114.5 88.5 202.5 88.5c75.333 0 136.166 -22.333 182.499 -67s69.5 -111.334 69.5 -200.001h-131c0 51.333 -10.833 90.333 -32.5 117s-51.167 40 -88.5 40
c-46.667 0 -81.834 -19.167 -105.501 -57.5s-35.5 -92.5 -35.5 -162.5v-50c0 -70 12.167 -124.167 36.5 -162.5s60.5 -57.5 108.5 -57.5c38 0 68 13.167 90 39.5s33 65.166 33 116.499h125c0 -86.667 -23 -152.667 -69 -198s-107 -68 -183 -68
c-88 0 -155.5 29.5 -202.5 88.5z" />
    <glyph glyph-name="D" unicode="D" horiz-adv-x="592" 
d="M60 686l223 0.000976562c86.667 0 154.167 -28.333 202.5 -85s72.5 -139.334 72.5 -248.001c0 -115.333 -24 -203 -72 -263s-115.667 -90 -203 -90h-223v686zM271 114.001c48.667 0 86.667 18.167 114 54.5s41 89.5 41 159.5v50c0 63.333 -13.667 111.5 -41 144.5
s-65.333 49.5 -114 49.5h-83v-458h83z" />
    <glyph glyph-name="E" unicode="E" horiz-adv-x="547" 
d="M60 686h437v-114h-309v-164h265v-114h-265v-180h315v-114h-443v686z" />
    <glyph glyph-name="F" unicode="F" horiz-adv-x="501" 
d="M60 686h403v-114h-275v-173h235v-114h-235v-285h-128v686z" />
    <glyph glyph-name="G" unicode="G" horiz-adv-x="638" 
d="M302 373l285.001 0.000976562v-373h-83l-22 76c-22 -28.667 -48.833 -50.5 -80.5 -65.5s-65.834 -22.5 -102.501 -22.5c-86 0 -151.667 29.167 -197 87.5s-68 147.5 -68 267.5c0 119.333 25 208.333 75 267s122 88 216 88c47.333 0 90.833 -9.83301 130.5 -29.5
s71.5 -48.5 95.5 -86.5s36 -83.333 36 -136h-131c0 44.667 -12.833 79.5 -38.5 104.5s-57.834 37.5 -96.501 37.5c-52 0 -90.833 -19 -116.5 -57s-38.5 -92.333 -38.5 -163v-50c0 -71.333 12.833 -125.833 38.5 -163.5s64.834 -56.5 117.501 -56.5
c39.333 0 71.5 15.167 96.5 45.5s37.5 70.166 37.5 119.499h-154v110z" />
    <glyph glyph-name="H" unicode="H" horiz-adv-x="592" 
d="M60 686h128v-278h216v278h128v-686h-128v294h-216v-294h-128v686z" />
    <glyph glyph-name="I" unicode="I" horiz-adv-x="228" 
d="M50 686h128v-686h-128v686z" />
    <glyph glyph-name="J" unicode="J" 
d="M59.5 33c-33.667 30 -50.5 73.333 -50.5 130v53h127v-43c0 -24 5.66699 -42.5 17 -55.5s28 -19.5 50 -19.5c21.333 0 37.5 6.5 48.5 19.5s16.5 31.5 16.5 55.5v513h128v-523c0 -56.667 -16.667 -100 -50 -130s-81 -45 -143 -45s-109.833 15 -143.5 45z" />
    <glyph glyph-name="K" unicode="K" horiz-adv-x="592" 
d="M60 686h129v-351l251 351h143l-203 -279l209 -407h-144l-149 306l-107 -131v-175h-129v686z" />
    <glyph glyph-name="L" unicode="L" horiz-adv-x="501" 
d="M60 686h128v-566h290v-120h-418v686z" />
    <glyph glyph-name="M" unicode="M" horiz-adv-x="683" 
d="M53 686l180 0.000976562l85 -378c4 -18.667 9 -46.167 15 -82.5l12 -72.5h4c1.33301 12.667 4.5 37.5 9.5 74.5s9.5 63.833 13.5 80.5l84 378h174v-686h-118v437c0 20 0.666992 41.167 2 63.5s2.33301 37.833 3 46.5h-4l-24 -108l-96 -439h-111l-97 441l-24 106h-4
c0.666992 -8.66699 1.66699 -24.334 3 -47.001s2 -43.667 2 -63v-437h-109v686z" />
    <glyph glyph-name="N" unicode="N" horiz-adv-x="592" 
d="M60 686l113 -0.000976562l212 -378c4.66699 -7.33301 10.5 -18.5 17.5 -33.5s11.5 -25.167 13.5 -30.5l3 3l-1 57v382h114v-686h-114l-212 378l-17.5 36l-13.5 28l-4 -3c0 -4 0.333008 -11.667 1 -23s1 -22.666 1 -33.999v-382h-113v686z" />
    <glyph glyph-name="O" unicode="O" horiz-adv-x="638" 
d="M108.5 76.5c-49.667 59 -74.5 147.833 -74.5 266.5s24.833 207.5 74.5 266.5s119.834 88.5 210.501 88.5s160.834 -29.5 210.501 -88.5s74.5 -147.833 74.5 -266.5s-24.833 -207.5 -74.5 -266.5s-119.834 -88.5 -210.501 -88.5s-160.834 29.5 -210.501 88.5zM433 155.5
c26 38.333 39 92.5 39 162.5v50c0 70 -13 124.167 -39 162.5s-64 57.5 -114 57.5s-88 -19.167 -114 -57.5s-39 -92.5 -39 -162.5v-50c0 -70 13 -124.167 39 -162.5s64 -57.5 114 -57.5s88 19.167 114 57.5z" />
    <glyph glyph-name="P" unicode="P" horiz-adv-x="547" 
d="M60 686h245c68.667 0 121.667 -19 159 -57s56 -87.667 56 -149c0 -42.667 -9 -80.167 -27 -112.5s-43.167 -57.333 -75.5 -75s-69.833 -26.5 -112.5 -26.5h-117v-266h-128v686zM292 379c30.667 0 54.333 8.83301 71 26.5s25 42.5 25 74.5c0 28 -8.5 50.333 -25.5 67
s-40.5 25 -70.5 25h-104v-193h104z" />
    <glyph glyph-name="Q" unicode="Q" horiz-adv-x="638" 
d="M331 -12h-12.001c-90.667 0 -160.834 29.5 -210.501 88.5s-74.5 147.833 -74.5 266.5s24.833 207.5 74.5 266.5s119.834 88.5 210.501 88.5s160.834 -29.5 210.501 -88.5s74.5 -147.833 74.5 -266.5c0 -84 -12.833 -153.167 -38.5 -207.5s-62.5 -93.833 -110.5 -118.5
l132 -141h-157zM432.999 155.5c26 38.333 39 92.5 39 162.5v50c0 70 -13 124.167 -39 162.5s-64 57.5 -114 57.5s-88 -19.167 -114 -57.5s-39 -92.5 -39 -162.5v-50c0 -70 13 -124.167 39 -162.5s64 -57.5 114 -57.5s88 19.167 114 57.5z" />
    <glyph glyph-name="R" unicode="R" horiz-adv-x="592" 
d="M60 686l287.001 0.000976562c67.333 0 119.166 -18 155.499 -54s54.5 -83.333 54.5 -142c0 -41.333 -10.167 -77.333 -30.5 -108s-48.5 -53.334 -84.5 -68.001l132 -314h-139l-114 286h-133v-286h-128v686zM329.001 399.001c30 0 52.5 7.83301 67.5 23.5
s22.5 38.167 22.5 67.5c0 26 -7 46.167 -21 60.5s-35.333 21.5 -64 21.5h-146v-173h141z" />
    <glyph glyph-name="S" unicode="S" horiz-adv-x="547" 
d="M148 12.5c-36 16.333 -64.667 40.501 -86 72.501s-32 70.667 -32 116l1 22h133l-1 -16c0 -33.333 9.66699 -59.833 29 -79.5s46.333 -29.5 81 -29.5c35.333 0 61.5 7.83301 78.5 23.5s25.5 34.834 25.5 57.501s-6 41.167 -18 55.5s-26.833 25.5 -44.5 33.5
s-42.5 17.333 -74.5 28c-42 13.333 -76 26.666 -102 39.999s-48.167 33.666 -66.5 60.999s-27.5 63.666 -27.5 108.999c0 41.333 10.333 76.5 31 105.5s48.334 50.667 83.001 65s73 21.5 115 21.5c65.333 0 118.833 -16.833 160.5 -50.5s62.5 -84.167 62.5 -151.5v-12h-131
v9c0 29.333 -8.33301 52.5 -25 69.5s-39.334 25.5 -68.001 25.5c-30 0 -53.5 -6.83301 -70.5 -20.5s-25.5 -31.167 -25.5 -52.5c0 -18.667 5.66699 -34 17 -46s25.5 -21.667 42.5 -29s40.5 -15.666 70.5 -24.999c43.333 -14 78.333 -27.5 105 -40.5s49.667 -33.167 69 -60.5
s29 -63.333 29 -108c0 -75.333 -21.5 -130.5 -64.5 -165.5s-102.167 -52.5 -177.5 -52.5c-43.333 0 -83 8.16699 -119 24.5z" />
    <glyph glyph-name="T" unicode="T" horiz-adv-x="501" 
d="M187 572h-170v114h468v-114h-170v-572h-128v572z" />
    <glyph glyph-name="U" unicode="U" horiz-adv-x="592" 
d="M122.5 46.5c-41 39 -61.5 95.167 -61.5 168.5v471h128v-467c0 -39.333 9.33301 -69.333 28 -90s45 -31 79 -31s60.5 10.333 79.5 31s28.5 50.667 28.5 90v467h128v-471c0 -73.333 -20.667 -129.5 -62 -168.5s-99.333 -58.5 -174 -58.5s-132.5 19.5 -173.5 58.5z" />
    <glyph glyph-name="V" unicode="V" horiz-adv-x="547" 
d="M0 686h132l144 -491h4l142 491h125l-209 -686h-129z" />
    <glyph glyph-name="W" unicode="W" horiz-adv-x="774" 
d="M0 686l126.993 -0.00195312l82 -422c2.66699 -12.667 5.33398 -30 8.00098 -52s4.33398 -36.667 5.00098 -44h4c0.666992 7.33301 2.33398 22.166 5.00098 44.499s5.33398 39.5 8.00098 51.5l83 422h145l82 -422c2.66699 -17.333 5.33398 -35.833 8.00098 -55.5
s4.33398 -33.167 5.00098 -40.5h4c0.666992 6.66699 2.33398 20.834 5.00098 42.501s5.33398 39.5 8.00098 53.5l84 422h110l-149 -686h-129l-93 437c-3.33301 14.667 -6.33301 32.834 -9 54.501s-4.33398 35.834 -5.00098 42.501h-4
c-0.666992 -7.33301 -2.5 -22.333 -5.5 -45s-5.83301 -40 -8.5 -52l-92 -437h-129z" />
    <glyph glyph-name="X" unicode="X" horiz-adv-x="547" 
d="M194 360l-176 326h143l115 -224h4l115 224h133l-177 -324l195 -362h-142l-134 259h-4l-133 -259h-133z" />
    <glyph glyph-name="Y" unicode="Y" horiz-adv-x="547" 
d="M210 259l-210 427h135l140 -301h4l139 301h129l-209 -427v-259h-128v259z" />
    <glyph glyph-name="Z" unicode="Z" horiz-adv-x="501" 
d="M16 49l282 523h-261v114h436v-50l-282 -522h289v-114h-464v49z" />
    <glyph glyph-name="bracketleft" unicode="[" horiz-adv-x="273" 
d="M49 735h199v-95h-83v-706h83v-95h-199v896z" />
    <glyph glyph-name="backslash" unicode="\" horiz-adv-x="228" 
d="M1 735h85l142 -784h-86z" />
    <glyph glyph-name="bracketright" unicode="]" horiz-adv-x="273" 
d="M25 -66h83v706h-83v95h199v-896h-199v95z" />
    <glyph glyph-name="asciicircum" unicode="^" horiz-adv-x="479" 
d="M188 686h107l157 -392h-110l-101 270l-99 -270h-110z" />
    <glyph glyph-name="underscore" unicode="_" 
d="M0 -63h455v-69h-455v69z" />
    <glyph glyph-name="grave" unicode="`" horiz-adv-x="273" 
d="M21 720l1 3h120l86 -132h-99z" />
    <glyph glyph-name="a" unicode="a" 
d="M55.5 21.5c-27.667 22.333 -41.4971 60.5 -41.4971 114.5c0 66.667 22.667 114 68 142s109.666 42 192.999 42v55c0 20.667 -3.83301 36.667 -11.5 48s-22.167 17 -43.5 17c-22 0 -38 -5.5 -48 -16.5s-15 -23.833 -15 -38.5v-15h-117c-0.666992 4 -1 11.333 -1 22
c0 44 16.167 79.333 48.5 106s75.5 40 129.5 40c60 0 104.833 -13.333 134.5 -40s44.5 -65 44.5 -115v-259c0 -12 2.66699 -20.833 8 -26.5s12 -8.5 20 -8.5h24v-85c-20 -10.667 -43.667 -16 -71 -16c-23.333 0 -43.166 6.16699 -59.499 18.5s-27.5 29.166 -33.5 50.499h-5
c-16.667 -23.333 -34.834 -40.666 -54.501 -51.999s-45.834 -17 -78.501 -17s-62.834 11.167 -90.501 33.5zM255.503 120c13 21.333 19.501 49 19.501 83v30c-40.667 0 -73.834 -6.5 -99.501 -19.5s-38.5 -35.167 -38.5 -66.5c0 -18.667 4.83301 -33.167 14.5 -43.5
s24.5 -15.5 44.5 -15.5c26.667 0 46.5 10.667 59.5 32z" />
    <glyph glyph-name="b" unicode="b" horiz-adv-x="501" 
d="M222 7.5c-20.667 13 -37.333 32.167 -50 57.5h-5l-12 -65h-100v723h120v-251h5c9.33301 20.667 24.5 36.834 45.5 48.501s44.833 17.5 71.5 17.5c49.333 0 88.833 -22.833 118.5 -68.5s44.5 -114.167 44.5 -205.5c0 -92.667 -14.833 -161.834 -44.5 -207.501
s-71.167 -68.5 -124.5 -68.5c-25.333 0 -48.333 6.5 -69 19.5zM316.001 133.5c12.667 24.333 19 61.167 19 110.5v38c0 49.333 -6.33301 86.166 -19 110.499s-33 36.5 -61 36.5s-48.333 -12.5 -61 -37.5s-19 -62.167 -19 -111.5v-36c0 -49.333 6.33301 -86.166 19 -110.499
s33 -36.5 61 -36.5s48.333 12.167 61 36.5z" />
    <glyph glyph-name="c" unicode="c" 
d="M89 54.5c-32 44.333 -48 113.831 -48 208.498c0 94 16.167 163.333 48.5 208s81.166 67 146.499 67c58 0 103.167 -17.167 135.5 -51.5s48.5 -87.166 48.5 -158.499h-123c0 72.667 -20.333 109 -61 109c-24.667 0 -42.5 -12.833 -53.5 -38.5s-16.5 -64.5 -16.5 -116.5
v-38c0 -52 5.83301 -90.833 17.5 -116.5s30.5 -38.5 56.5 -38.5c21.333 0 36.833 9 46.5 27s14.5 45.333 14.5 82h119c0 -71.333 -15.667 -124.166 -47 -158.499s-75.666 -51.5 -132.999 -51.5c-68.667 0 -119 22.167 -151 66.5z" />
    <glyph glyph-name="d" unicode="d" horiz-adv-x="501" 
d="M85.5 56.5c-29.667 45.667 -44.499 114.834 -44.499 207.501c0 91.333 14.833 159.833 44.5 205.5s69.167 68.5 118.5 68.5c26.667 0 50.5 -5.83301 71.5 -17.5s36.167 -27.834 45.5 -48.501h5v251h120v-723h-100l-12 65h-5c-12.667 -25.333 -29.334 -44.5 -50.001 -57.5
s-43.667 -19.5 -69 -19.5c-53.333 0 -94.833 22.833 -124.5 68.5zM307.001 133.5c12.667 24.333 19 61.165 19 110.498v36c0 49.333 -6.33301 86.5 -19 111.5s-33 37.5 -61 37.5s-48.333 -12.167 -61 -36.5s-19 -61.166 -19 -110.499v-38
c0 -49.333 6.33301 -86.166 19 -110.499s33 -36.5 61 -36.5s48.333 12.167 61 36.5z" />
    <glyph glyph-name="e" unicode="e" 
d="M82.5 55.5c-34.333 45 -51.5 114.165 -51.5 207.498c0 183.333 67.333 275 202 275c64 0 111.667 -22.333 143 -67s47 -114 47 -208v-30h-267c0.666992 -49.333 7.16699 -86.166 19.5 -110.499s32.833 -36.5 61.5 -36.5c20.667 0 37 8.83301 49 26.5s18 42.167 18 73.5
h119c0 -65.333 -17 -114.666 -51 -147.999s-79 -50 -135 -50c-68.667 0 -120.167 22.5 -154.5 67.5zM297 319.998c0 80 -21.333 119.999 -64 119.999c-24.667 0 -43 -10.167 -55 -30.5s-19 -50.166 -21 -89.499h140z" />
    <glyph glyph-name="f" unicode="f" horiz-adv-x="273" 
d="M62 425l-53.001 -0.000976562v101h53v64c0 40 9.66699 73.5 29 100.5s51 40.5 95 40.5c13.333 0 28.5 -1.16699 45.5 -3.5s30.833 -5.16602 41.5 -8.49902v-89h-49c-13.333 0 -23.666 -3.66699 -30.999 -11s-11 -18 -11 -32v-61h91v-101h-91v-425h-120v425z" />
    <glyph glyph-name="g" unicode="g" horiz-adv-x="501" 
d="M49.5 -148c-22.333 22.667 -33.4971 51.665 -33.4971 86.998c0 46.667 22.333 82.334 67 107.001c-28 17.333 -42 43.666 -42 78.999c0 22 7.16699 40.833 21.5 56.5s32.833 27.5 55.5 35.5c-42.667 31.333 -64 78.666 -64 141.999c0 55.333 16.833 99 50.5 131
s81.5 48 143.5 48c33.333 0 62.666 -5 87.999 -15c18 12.667 31 27.834 39 45.501s12 32.834 12 45.501h99c0 -72 -28.333 -116.667 -85 -134c28 -31.333 42 -71.666 42 -120.999c0 -55.333 -16.833 -99 -50.5 -131s-81.834 -48 -144.501 -48h-50
c-10.667 0 -19.334 -3 -26.001 -9s-10 -13.667 -10 -23c0 -8.66699 3 -16 9 -22s13.333 -9 22 -9h182c34 0 62.5 -12.5 85.5 -37.5s34.5 -58.167 34.5 -99.5c0 -32 -7.5 -60.333 -22.5 -85s-35.5 -43.667 -61.5 -57s-54.667 -20 -86 -20h-193
c-32.667 0 -60.167 11.333 -82.5 34zM304.003 292.498c12.667 15.667 19 37.834 19 66.501s-6.33301 50.834 -19 66.501s-31.334 23.5 -56.001 23.5c-24 0 -42.333 -7.83301 -55 -23.5s-19 -37.834 -19 -66.501s6.33301 -50.834 19 -66.501s31 -23.5 55 -23.5
c24.667 0 43.334 7.83301 56.001 23.5zM320.003 -91.002c15.333 0 28.166 4.49805 38.499 13.498s15.5 20.833 15.5 35.5s-4.66699 26.334 -14 35.001s-21 13 -35 13h-140c-13.333 0 -24.666 -4.66699 -33.999 -14s-14 -20.666 -14 -33.999c0 -14.667 4.5 -26.5 13.5 -35.5
s20.5 -13.5 34.5 -13.5h135z" />
    <glyph glyph-name="h" unicode="h" horiz-adv-x="501" 
d="M55 723l120.002 -0.00195312v-253h4c13.333 19.333 30.666 35.5 51.999 48.5s46.333 19.5 75 19.5c43.333 0 77.5 -13.5 102.5 -40.5s37.5 -69.833 37.5 -128.5v-369h-120v336c0 32.667 -5.83301 56.334 -17.5 71.001s-28.834 22 -51.501 22
c-23.333 0 -42.833 -10.167 -58.5 -30.5s-23.5 -45.166 -23.5 -74.499v-324h-120v723z" />
    <glyph glyph-name="i" unicode="i" horiz-adv-x="228" 
d="M54 723h120v-109h-120v109zM54 526h120v-526h-120v526z" />
    <glyph glyph-name="j" unicode="j" horiz-adv-x="228" 
d="M54 723h120v-109h-120v109zM5.5 -178.5c-17 2.33301 -31.167 5.16797 -42.5 8.50098v89h44c31.333 0 47 16 47 48v559h120v-567c0 -40.667 -9.33301 -74.334 -28 -101.001s-50 -40 -94 -40c-14 0 -29.5 1.16699 -46.5 3.5z" />
    <glyph glyph-name="k" unicode="k" 
d="M54 723h120v-406l147 209h128l-156 -214l164 -312h-133l-106 218l-44 -54v-164h-120v723z" />
    <glyph glyph-name="l" unicode="l" horiz-adv-x="228" 
d="M54 723h120v-723h-120v723z" />
    <glyph glyph-name="m" unicode="m" horiz-adv-x="729" 
d="M55 526l100.003 0.00292969l12 -65h6c14 22.667 31.5 41.167 52.5 55.5s45.167 21.5 72.5 21.5c56 0 93.667 -25.667 113 -77c14.667 22.667 33.667 41.167 57 55.5s49.666 21.5 78.999 21.5c86.667 0 130 -56.333 130 -169v-369h-120v336
c0 33.333 -4.66699 57.166 -14 71.499s-24.333 21.5 -45 21.5c-20 0 -37.167 -9.16699 -51.5 -27.5s-21.5 -41.5 -21.5 -69.5v-332h-118v336c0 33.333 -4.83301 57.166 -14.5 71.499s-24.834 21.5 -45.501 21.5s-37.834 -9.83301 -51.501 -29.5s-20.5 -44.834 -20.5 -75.501
v-324h-120v526z" />
    <glyph glyph-name="n" unicode="n" horiz-adv-x="501" 
d="M55 526l100.001 -0.00195312l12 -65h6c15.333 22.667 34 41.167 56 55.5s47.667 21.5 77 21.5c43.333 0 77.5 -13.5 102.5 -40.5s37.5 -69.833 37.5 -128.5v-369h-120v336c0 32.667 -5.83301 56.334 -17.5 71.001s-28.834 22 -51.501 22
c-23.333 0 -42.833 -10.167 -58.5 -30.5s-23.5 -45.166 -23.5 -74.499v-324h-120v526z" />
    <glyph glyph-name="o" unicode="o" horiz-adv-x="501" 
d="M93 55c-34.667 44.667 -52 114 -52 208s17.333 163.333 52 208s87.334 67 158.001 67s123.334 -22.333 158.001 -67s52 -114 52 -208s-17.333 -163.333 -52 -208s-87.334 -67 -158.001 -67s-123.334 22.333 -158.001 67zM316 127.5c13.333 25.667 20 64.5 20 116.5v38
c0 52 -6.66699 90.833 -20 116.5s-35 38.5 -65 38.5s-51.667 -12.833 -65 -38.5s-20 -64.5 -20 -116.5v-38c0 -52 6.66699 -90.833 20 -116.5s35 -38.5 65 -38.5s51.667 12.833 65 38.5z" />
    <glyph glyph-name="p" unicode="p" horiz-adv-x="501" 
d="M55 526h99.999l12 -65h5c12.667 25.333 29.334 44.5 50.001 57.5s43.667 19.5 69 19.5c53.333 0 94.833 -22.833 124.5 -68.5s44.5 -114.834 44.5 -207.501c0 -91.333 -14.833 -159.833 -44.5 -205.5s-69.167 -68.5 -118.5 -68.5c-26.667 0 -50.5 5.83301 -71.5 17.5
s-36.167 27.834 -45.5 48.501h-5v-227h-120v699zM315.999 133.5c12.667 24.333 19 61.167 19 110.5v38c0 49.333 -6.33301 86.166 -19 110.499s-33 36.5 -61 36.5s-48.333 -12.167 -61 -36.5s-19 -61.166 -19 -110.499v-36c0 -49.333 6.33301 -86.5 19 -111.5
s33 -37.5 61 -37.5s48.333 12.167 61 36.5z" />
    <glyph glyph-name="q" unicode="q" horiz-adv-x="501" 
d="M326 54h-5.00098c-9.33301 -20.667 -24.5 -36.834 -45.5 -48.501s-44.833 -17.5 -71.5 -17.5c-49.333 0 -88.833 22.833 -118.5 68.5s-44.5 114.167 -44.5 205.5c0 92.667 14.833 161.834 44.5 207.501s71.167 68.5 124.5 68.5c25.333 0 48.333 -6.5 69 -19.5
s37.334 -32.167 50.001 -57.5h5l12 65h100v-699h-120v227zM306.999 134.5c12.667 25 19 62.166 19 111.499v36c0 49.333 -6.33301 86.166 -19 110.499s-33 36.5 -61 36.5s-48.333 -12.167 -61 -36.5s-19 -61.166 -19 -110.499v-38c0 -49.333 6.33301 -86.166 19 -110.499
s33 -36.5 61 -36.5s48.333 12.5 61 37.5z" />
    <glyph glyph-name="r" unicode="r" horiz-adv-x="319" 
d="M55 526h100l14 -77h6c8.66699 26.667 20 48.167 34 64.5s33 24.5 57 24.5c12.667 0 23.667 -1.16699 33 -3.5s15 -3.83301 17 -4.5v-116h-43c-29.333 0 -53 -9.33301 -71 -28s-27 -49.667 -27 -93v-293h-120v526z" />
    <glyph glyph-name="s" unicode="s" 
d="M83.5 33.5c-33.667 30.333 -50.499 70.8369 -50.499 121.504l1 12h122v-7c0.666992 -26 8 -44.833 22 -56.5s30.667 -17.5 50 -17.5c18.667 0 35 4.5 49 13.5s21 23.5 21 43.5c0 21.333 -8 36.833 -24 46.5s-41.333 19.167 -76 28.5
c-33.333 9.33301 -60.333 18.666 -81 27.999s-38.5 24.666 -53.5 45.999s-22.5 50 -22.5 86c0 51.333 17.5 90.833 52.5 118.5s80.167 41.5 135.5 41.5c51.333 0 93.833 -12.833 127.5 -38.5s50.5 -60.5 50.5 -104.5l-1 -23h-122v2c-0.666992 44 -20.334 66 -59.001 66
c-18.667 0 -33.667 -4.66699 -45 -14s-17 -22 -17 -38c0 -18.667 7.66699 -32.167 23 -40.5s39.333 -16.833 72 -25.5c34 -8.66699 61.667 -17.834 83 -27.501s39.833 -25.334 55.5 -47.001s23.5 -51.5 23.5 -89.5c0 -113.333 -65.333 -170 -196 -170
c-60 0 -106.833 15.167 -140.5 45.5z" />
    <glyph glyph-name="t" unicode="t" horiz-adv-x="273" 
d="M91 28.5c-19.333 27 -28.999 60.499 -28.999 100.499v296h-53v101h53l18 148h102v-148h76v-101h-76v-293c0 -14 3.66699 -24.667 11 -32s17.666 -11 30.999 -11h34v-89c-8.66699 -3.33301 -20 -6.16602 -34 -8.49902s-26.667 -3.5 -38 -3.5c-44 0 -75.667 13.5 -95 40.5z
" />
    <glyph glyph-name="u" unicode="u" horiz-adv-x="501" 
d="M92.5 28.5c-25 27 -37.499 69.832 -37.499 128.499v369h120v-336c0 -33.333 5.66699 -57.166 17 -71.499s28.666 -21.5 51.999 -21.5s42.833 9.83301 58.5 29.5s23.5 44.167 23.5 73.5v326h120v-526h-100l-12 65h-6c-15.333 -22.667 -34 -41.167 -56 -55.5
s-47.667 -21.5 -77 -21.5c-43.333 0 -77.5 13.5 -102.5 40.5z" />
    <glyph glyph-name="v" unicode="v" 
d="M4 526h126.001l68 -226c5.33301 -16.667 11.666 -44 18.999 -82s12 -63.333 14 -76h4l12 73.5c6 37 12 65.167 18 84.5l67 226h120l-163 -526h-122z" />
    <glyph glyph-name="w" unicode="w" horiz-adv-x="638" 
d="M1 526l119.998 0.000976562l50 -216c6.66699 -29.333 11.834 -62.333 15.501 -99s5.5 -58.667 5.5 -66h4c0.666992 10 3 32 7 66s9 66.667 15 98l45 217h120l45 -218c4.66699 -21.333 9.16699 -50.833 13.5 -88.5l8.5 -74.5h4c1.33301 11.333 4.83301 35.166 10.5 71.499
s10.834 66.833 15.501 91.5l46 218h111l-127 -526h-121l-52 251c-4.66699 22 -8.16699 47 -10.5 75s-3.83301 46.333 -4.5 55h-6c-0.666992 -8.66699 -2.16699 -26.667 -4.5 -54s-5.83301 -52.333 -10.5 -75l-51 -252h-121z" />
    <glyph glyph-name="x" unicode="x" 
d="M157 272l-140 254h136l78 -153h5l78 153h129l-142 -251l150 -275h-135l-89 174h-5l-89 -174h-128z" />
    <glyph glyph-name="y" unicode="y" 
d="M67.5 -178.5c-15.667 2.33301 -23.499 4.16797 -23.499 5.50098v92h54c18 0 34.333 6.66699 49 20s25.334 33.666 32.001 60.999l-175 526h127l79 -247c5.33301 -16.667 11 -41 17 -73s9.66699 -53.333 11 -64h4c1.33301 10 4.66602 30.5 9.99902 61.5
s10.333 55.833 15 74.5l65 248h120l-144 -499c-18.667 -64.667 -42.667 -115.667 -72 -153s-67.333 -56 -114 -56c-20.667 0 -38.834 1.16699 -54.501 3.5z" />
    <glyph glyph-name="z" unicode="z" horiz-adv-x="410" 
d="M18 51l204 374h-192v101h355v-50l-205 -375h212v-101h-374v51z" />
    <glyph glyph-name="braceleft" unicode="{" horiz-adv-x="319" 
d="M154 -128c-35.333 20.667 -53 59.6641 -53 116.997v193c0 20.667 -7.66699 35.834 -23 45.501s-33.333 14.5 -54 14.5v92c20.667 0 38.667 4.83301 54 14.5s23 24.834 23 45.501v193c0 57.333 17.667 96.333 53 117s83.333 31 144 31v-77c-22 0 -40.667 -4.5 -56 -13.5
s-23 -24.833 -23 -47.5c0 -26.667 -1.33301 -66.667 -4 -120l-3 -76c-1.33301 -35.333 -10.333 -62.166 -27 -80.499s-43.667 -27.5 -81 -27.5v-10c37.333 0 64.333 -9 81 -27s25.667 -45 27 -81l3 -76c2.66699 -53.333 4 -93.333 4 -120c0 -40.667 26.333 -61 79 -61v-77
c-60.667 0 -108.667 10.333 -144 31z" />
    <glyph glyph-name="bar" unicode="|" horiz-adv-x="230" 
d="M70 723h90v-896h-90v896z" />
    <glyph glyph-name="braceright" unicode="}" horiz-adv-x="319" 
d="M21 -82c52.667 0 79 20.3359 79 61.0029c0 26.667 1.33301 66.667 4 120l3 76c1.33301 36 10.333 63 27 81s43.667 27 81 27v10c-37.333 0 -64.333 9.16699 -81 27.5s-25.667 45.166 -27 80.499l-3 76c-2.66699 53.333 -4 93.333 -4 120c0 22.667 -7.66699 38.5 -23 47.5
s-34 13.5 -56 13.5v77c60.667 0 108.667 -10.333 144 -31s53 -59.667 53 -117v-193c0 -20.667 7.66699 -35.834 23 -45.501s33.333 -14.5 54 -14.5v-92c-20.667 0 -38.667 -4.83301 -54 -14.5s-23 -24.834 -23 -45.501v-193c0 -57.333 -17.667 -96.333 -53 -117
s-83.333 -31 -144 -31v77z" />
    <glyph glyph-name="asciitilde" unicode="~" horiz-adv-x="479" 
d="M27 317c0 2 5.33301 9.33301 16 22s25.167 24.334 43.5 35.001s39.5 16 63.5 16c14 0 27.5 -2.5 40.5 -7.5s28.833 -12.5 47.5 -22.5s34.834 -17.667 48.501 -23s27.834 -8 42.501 -8c21.333 0 41.166 5.33301 59.499 16s33.5 22.5 45.5 35.5s18 20.167 18 21.5v-120
c0 -2 -5.33301 -9.33301 -16 -22s-25.167 -24.334 -43.5 -35.001s-39.5 -16 -63.5 -16c-14 0 -27.5 2.5 -40.5 7.5s-28.833 12.5 -47.5 22.5s-34.834 17.667 -48.501 23s-27.834 8 -42.501 8c-21.333 0 -41.166 -5.33301 -59.499 -16s-33.5 -22.5 -45.5 -35.5
s-18 -20.167 -18 -21.5v120z" />
    <glyph glyph-name="uni00A0" unicode="&#xa0;" horiz-adv-x="228" 
 />
    <glyph glyph-name="exclamdown" unicode="&#xa1;" horiz-adv-x="273" 
d="M68 526h138v-137h-138v137zM95 329h82l36 -489h-153z" />
    <glyph glyph-name="cent" unicode="&#xa2;" 
d="M207 70c-56.667 6.66699 -98.5 32.1641 -125.5 76.4971s-40.5 109.833 -40.5 196.5s13.667 152.334 41 197.001s69 70 125 76v107h55v-106c50 -5.33301 88.833 -25.166 116.5 -59.499s41.5 -84.166 41.5 -149.499h-111c0 60.667 -15.667 96.667 -47 108v-348
c34 10 51 46.667 51 110h107c0 -66.667 -13.833 -117.167 -41.5 -151.5s-66.5 -53.5 -116.5 -57.5v-118h-55v119zM207 514.997c-18.667 -8 -32.167 -24.668 -40.5 -50.001s-12.5 -59.666 -12.5 -102.999v-38c0 -85.333 17.667 -136 53 -152v343z" />
    <glyph glyph-name="sterling" unicode="&#xa3;" 
d="M20 108l51.001 -0.000976562v180h-62v101h62v110c0 65.333 15.833 114.833 47.5 148.5s76.167 50.5 133.5 50.5c56 0 100.167 -16.5 132.5 -49.5s48.5 -81.167 48.5 -144.5v-13h-119v26c0 26 -5.5 45.833 -16.5 59.5s-26.167 20.5 -45.5 20.5
c-18.667 0 -33.334 -6.16699 -44.001 -18.5s-16 -30.166 -16 -53.499v-136h120v-101h-121l-11 -180h246v-108h-406v108z" />
    <glyph glyph-name="currency" unicode="&#xa4;" 
d="M103 155l-42 -42l-61 61l50 50c-18.667 35.333 -28 74.666 -28 117.999c0 42.667 9 81.334 27 116.001l-49 50l60 62l42 -42c38 32.667 80 49 126 49c22.667 0 44.667 -4.33301 66 -13s41 -20.667 59 -36l42 42l60 -62l-49 -49c18.667 -36 28 -75 28 -117
s-9.66699 -81.667 -29 -119l50 -49l-61 -61l-42 42c-38 -31.333 -79.333 -47 -124 -47c-45.333 0 -87 15.667 -125 47zM288.5 217.5c18.333 13 33 30.5 44 52.5s16.5 46 16.5 72c0 26.667 -5.5 51 -16.5 73s-25.667 39.5 -44 52.5s-38.5 19.5 -60.5 19.5
s-42.333 -6.5 -61 -19.5s-33.5 -30.5 -44.5 -52.5s-16.5 -46.333 -16.5 -73c0 -26 5.5 -50 16.5 -72s25.833 -39.5 44.5 -52.5s39 -19.5 61 -19.5s42.167 6.5 60.5 19.5z" />
    <glyph glyph-name="yen" unicode="&#xa5;" 
d="M168 153h-140v81h139v70h-139v81h105l-129 301h131l94 -263h4l93 263h125l-128 -301h105v-82h-140v-69h140v-81h-140v-153h-120v153z" />
    <glyph glyph-name="brokenbar" unicode="&#xa6;" horiz-adv-x="230" 
d="M70 723h90v-372h-90v372zM70 199h90v-372h-90v372z" />
    <glyph glyph-name="section" unicode="&#xa7;" 
d="M101.5 -143.5c-33.667 25.667 -50.5 60.5 -50.5 104.5l1 23h122c0 -22.667 5.16699 -39.667 15.5 -51s24.833 -17 43.5 -17s33.667 4.66699 45 14s17 22 17 38c0 18.667 -4.83301 34.834 -14.5 48.501s-21.667 25 -36 34s-34.166 19.833 -59.499 32.5
c-32 16 -57.667 30.667 -77 44s-36 31.5 -50 54.5s-21 51.833 -21 86.5c0 26.667 5.66699 52.667 17 78s27.333 47 48 65c-34 32.667 -51 75 -51 127c0 51.333 17.333 90.833 52 118.5s80 41.5 136 41.5c51.333 0 93.833 -12.833 127.5 -38.5s50.5 -60.5 50.5 -104.5l-1 -23
h-122c0 22.667 -5.16699 39.667 -15.5 51s-24.833 17 -43.5 17s-33.667 -4.66699 -45 -14s-17 -22 -17 -38c0 -18.667 4.83301 -34.834 14.5 -48.501s21.667 -25 36 -34s34.166 -19.833 59.499 -32.5c32 -16 57.667 -30.667 77 -44s36 -31.5 50 -54.5s21 -51.833 21 -86.5
c0 -27.333 -5.66699 -53.5 -17 -78.5s-27.333 -46.5 -48 -64.5c34 -34 51 -76.333 51 -127c0 -51.333 -17.333 -90.833 -52 -118.5s-80 -41.5 -136 -41.5c-51.333 0 -93.833 12.833 -127.5 38.5zM313 213c0 22 -4.99902 41.002 -14.999 57.002s-22.5 29.167 -37.5 39.5
s-35.5 22.5 -61.5 36.5l-23 13c-14 -18.667 -21 -37.334 -21 -56.001c0 -22.667 5.16699 -42 15.5 -58s23.166 -29.333 38.499 -40s36 -23.334 62 -38.001l20 -11c14.667 18 22 37 22 57z" />
    <glyph glyph-name="dieresis" unicode="&#xa8;" horiz-adv-x="273" 
d="M-1 723h100v-109h-100v109zM174 723h100v-109h-100v109z" />
    <glyph glyph-name="copyright" unicode="&#xa9;" horiz-adv-x="604" 
d="M149.5 31.5c-43 29 -76 70.167 -99 123.5s-34.5 116 -34.5 188s11.5 134.667 34.5 188s56 94.5 99 123.5s93.833 43.5 152.5 43.5s109.5 -14.5 152.5 -43.5s76 -70.167 99 -123.5s34.5 -116 34.5 -188s-11.5 -134.667 -34.5 -188s-56 -94.5 -99 -123.5
s-93.833 -43.5 -152.5 -43.5s-109.5 14.5 -152.5 43.5zM425 79.5c34.667 24.333 61.167 59.166 79.5 104.499s27.5 98.333 27.5 159s-9.16699 113.667 -27.5 159s-44.833 80.166 -79.5 104.499s-75.667 36.5 -123 36.5s-88.333 -12.167 -123 -36.5
s-61.167 -59.166 -79.5 -104.499s-27.5 -98.333 -27.5 -159s9.16699 -113.667 27.5 -159s44.833 -80.166 79.5 -104.499s75.667 -36.5 123 -36.5s88.333 12.167 123 36.5zM185 186c-28 34.667 -42 87 -42 157s14 122.5 42 157.5s67.667 52.5 119 52.5
c44.667 0 80.667 -13.167 108 -39.5s41 -65.833 41 -118.5h-87c0 27.333 -5.5 48 -16.5 62s-26.167 21 -45.5 21c-24 0 -42.167 -10.5 -54.5 -31.5s-18.5 -50.5 -18.5 -88.5v-29c0 -38 6.33301 -67.5 19 -88.5s31.667 -31.5 57 -31.5c19.333 0 34.5 6.83301 45.5 20.5
s16.5 34.167 16.5 61.5h84c0 -51.333 -13.667 -90.333 -41 -117s-63.333 -40 -108 -40c-51.333 0 -91 17.333 -119 52z" />
    <glyph glyph-name="ordfeminine" unicode="&#xaa;" horiz-adv-x="303" 
d="M42 385.5c-18.667 15 -27.999 40.8311 -27.999 77.498c0 44.667 15 76.5 45 95.5s72.333 28.5 127 28.5v37c0 12.667 -2.33301 22.5 -7 29.5s-13.334 10.5 -26.001 10.5c-13.333 0 -23 -3.16699 -29 -9.5s-9 -14.166 -9 -23.499v-10h-83
c-0.666992 2.66699 -1 7.33398 -1 14.001c0 30 10.833 54 32.5 72s50.834 27 87.501 27c40.667 0 71 -9 91 -27s30 -44 30 -78v-170c0 -8 1.83301 -14 5.5 -18s8.16699 -6 13.5 -6h16v-62c-14.667 -6.66699 -30.667 -10 -48 -10c-15.333 0 -28.5 4.16699 -39.5 12.5
s-18.5 19.5 -22.5 33.5h-4c-10.667 -15.333 -22.834 -26.833 -36.501 -34.5s-31.5 -11.5 -53.5 -11.5s-42.333 7.5 -61 22.5zM174.001 454.998c8 14 12 31.667 12 53v20c-56.667 0 -85 -19.333 -85 -58c0 -24 12 -36 36 -36c16.667 0 29 7 37 21z" />
    <glyph glyph-name="guillemotleft" unicode="&#xab;" 
d="M19 326l136 200h91l-108 -200l108 -200h-91zM202 326l136 200h91l-108 -200l108 -200h-91z" />
    <glyph glyph-name="logicalnot" unicode="&#xac;" horiz-adv-x="479" 
d="M341 350h-312v113h416v-276h-104v163z" />
    <glyph glyph-name="uni00AD" unicode="&#xad;" horiz-adv-x="273" 
d="M16 329h241v-118h-241v118z" />
    <glyph glyph-name="registered" unicode="&#xae;" horiz-adv-x="604" 
d="M149.5 31.5c-43 29 -76 70.167 -99 123.5s-34.5 116 -34.5 188s11.5 134.667 34.5 188s56 94.5 99 123.5s93.833 43.5 152.5 43.5s109.5 -14.5 152.5 -43.5s76 -70.167 99 -123.5s34.5 -116 34.5 -188s-11.5 -134.667 -34.5 -188s-56 -94.5 -99 -123.5
s-93.833 -43.5 -152.5 -43.5s-109.5 14.5 -152.5 43.5zM425 79.5c34.667 24.333 61.167 59.166 79.5 104.499s27.5 98.333 27.5 159s-9.16699 113.667 -27.5 159s-44.833 80.166 -79.5 104.499s-75.667 36.5 -123 36.5s-88.333 -12.167 -123 -36.5
s-61.167 -59.166 -79.5 -104.499s-27.5 -98.333 -27.5 -159s9.16699 -113.667 27.5 -159s44.833 -80.166 79.5 -104.499s75.667 -36.5 123 -36.5s88.333 12.167 123 36.5zM355 214c0 33.333 -5.5 56.833 -16.5 70.5s-25.167 20.5 -42.5 20.5h-36v-165h-86v406h158
c32.667 0 59.667 -9.5 81 -28.5s32 -43.5 32 -73.5c0 -24.667 -5.66699 -44.834 -17 -60.501s-26.666 -27.167 -45.999 -34.5v-4c14.667 -5.33301 28.167 -16.166 40.5 -32.499s18.5 -41.5 18.5 -75.5c0 -23.333 2.33301 -40.333 7 -51s12 -17.667 22 -21v-20
c-2.66699 -2 -8.33398 -3.83301 -17.001 -5.5s-16 -2.5 -22 -2.5c-50.667 0 -76 25.667 -76 77zM301 382c16.667 0 30.167 4.33301 40.5 13s15.5 19.667 15.5 33c0 12.667 -4.83301 22.5 -14.5 29.5s-22.5 10.5 -38.5 10.5h-44v-86h41z" />
    <glyph glyph-name="macron" unicode="&#xaf;" horiz-adv-x="273" 
d="M9 686h255v-87h-255v87z" />
    <glyph glyph-name="degree" unicode="&#xb0;" horiz-adv-x="400" 
d="M126.5 433c-21.667 12.667 -38.834 29.834 -51.501 51.501s-19 45.5 -19 71.5s6.33301 49.833 19 71.5s29.834 38.834 51.501 51.501s45.5 19 71.5 19s49.833 -6.33301 71.5 -19s38.834 -29.834 51.501 -51.501s19 -45.5 19 -71.5s-6.33301 -49.833 -19 -71.5
s-29.834 -38.834 -51.501 -51.501s-45.5 -19 -71.5 -19s-49.833 6.33301 -71.5 19zM250 503.5c14 14.333 21 31.833 21 52.5s-7 38 -21 52s-31.333 21 -52 21s-38.167 -7 -52.5 -21s-21.5 -31.333 -21.5 -52s7.16699 -38.167 21.5 -52.5s31.833 -21.5 52.5 -21.5
s38 7.16699 52 21.5z" />
    <glyph glyph-name="plusminus" unicode="&#xb1;" horiz-adv-x="549" 
d="M222 317h-154v104h154v174h103v-174h155v-104h-155v-173h-103v173zM68 103h412v-103h-412v103z" />
    <glyph glyph-name="uni00B2" unicode="&#xb2;" horiz-adv-x="273" 
d="M15 338c0 28 6.33398 52.832 19.001 74.499s31.667 47.167 57 76.5c26.667 30 46.167 54.833 58.5 74.5s18.5 40.834 18.5 63.501c0 10 -2.5 18.667 -7.5 26s-13.167 11 -24.5 11s-20 -5.16699 -26 -15.5s-9 -23.5 -9 -39.5v-28h-79
c-0.666992 1.33301 -1.33398 4.5 -2.00098 9.5s-1 10.833 -1 17.5c0 42.667 11.333 74.334 34 95.001s51.334 31 86.001 31c33.333 0 60.333 -8.83301 81 -26.5s31 -44.834 31 -81.501c0 -22.667 -4.5 -44 -13.5 -64s-18.833 -37 -29.5 -51s-28.334 -35.667 -53.001 -65
c-18.667 -22.667 -32 -40 -40 -52h138v-74h-238v18z" />
    <glyph glyph-name="uni00B3" unicode="&#xb3;" horiz-adv-x="273" 
d="M46.5 345.5c-21.667 22.333 -32.4971 52.834 -32.4971 91.501v15h82v-17c0 -36 13.333 -54 40 -54c11.333 0 20.5 4.5 27.5 13.5s10.5 22.5 10.5 40.5c0 38.667 -14 58 -42 58h-25v67h26c9.33301 0 17.333 5 24 15s10 24 10 42c0 32 -10.333 48 -31 48
c-22 0 -33 -16.667 -33 -50v-16h-82v21c0 34 10.5 61.5 31.5 82.5s48.5 31.5 82.5 31.5c34.667 0 62.5 -10 83.5 -30s31.5 -48 31.5 -84c0 -21.333 -4.33301 -38.833 -13 -52.5s-21.334 -26.167 -38.001 -37.5c17.333 -8.66699 31.166 -21.334 41.499 -38.001
s15.5 -37 15.5 -61c0 -36.667 -11 -65.667 -33 -87s-50.667 -32 -86 -32c-38.667 0 -68.834 11.167 -90.501 33.5z" />
    <glyph glyph-name="acute" unicode="&#xb4;" horiz-adv-x="273" 
d="M134 723h120l1 -3l-108 -129h-99z" />
    <glyph glyph-name="uni00B5" unicode="&#xb5;" horiz-adv-x="501" 
d="M55 526l120.001 -0.000976562v-336c0 -33.333 5.66699 -57.166 17 -71.499s28.666 -21.5 51.999 -21.5s42.833 9.83301 58.5 29.5s23.5 44.167 23.5 73.5v326h120v-526h-100l-12 65h-6c-12.667 -22.667 -28.5 -41.167 -47.5 -55.5s-40.833 -21.5 -65.5 -21.5
c-14 0 -27.333 2.66699 -40 8v-169h-120v699z" />
    <glyph glyph-name="paragraph" unicode="&#xb6;" 
d="M187 250c-32 4 -60.8311 16.1689 -86.498 36.502s-45.834 46.166 -60.501 77.499s-22 65.666 -22 102.999c0 40 8.5 76.667 25.5 110s40.167 59.833 69.5 79.5s61.666 29.5 96.999 29.5h239v-76h-48v-783h-81v783h-53v-783h-80v423z" />
    <glyph glyph-name="periodcentered" unicode="&#xb7;" horiz-adv-x="228" 
d="M53 409h121v-131h-121v131z" />
    <glyph glyph-name="cedilla" unicode="&#xb8;" horiz-adv-x="273" 
d="M36 -174v48.9971h71c12 0 21 1.83301 27 5.5s9 9.83398 9 18.501c0 8 -2.5 14 -7.5 18s-13.833 6 -26.5 6h-33l11 88h68l-5 -44c23.333 -1.33301 42.333 -7.66602 57 -18.999s22 -27.666 22 -48.999c0 -30 -11.167 -51 -33.5 -63s-47.5 -18 -75.5 -18
c-30.667 0 -58.667 2.66699 -84 8z" />
    <glyph glyph-name="uni00B9" unicode="&#xb9;" horiz-adv-x="273" 
d="M33 389l74 -0.000976562v233h-75v56c15.333 2 34.333 7.33301 57 16s42 18.334 58 29.001h40v-334h66v-69h-220v69z" />
    <glyph glyph-name="ordmasculine" unicode="&#xba;" horiz-adv-x="299" 
d="M45 407.5c-23.333 30.333 -35 77.166 -35 140.499s11.667 110.166 35 140.499s59 45.5 107 45.5s83.667 -15.167 107 -45.5s35 -77.166 35 -140.499s-11.667 -110.166 -35 -140.499s-59 -45.5 -107 -45.5s-83.667 15.167 -107 45.5zM192.5 460
c8.33301 16.667 12.5 41.667 12.5 75v26c0 33.333 -4.16699 58.333 -12.5 75s-21.833 25 -40.5 25s-32.167 -8.33301 -40.5 -25s-12.5 -41.667 -12.5 -75v-26c0 -33.333 4.16699 -58.333 12.5 -75s21.833 -25 40.5 -25s32.167 8.33301 40.5 25z" />
    <glyph glyph-name="guillemotright" unicode="&#xbb;" 
d="M135 326l-108 200h91l136 -200l-136 -200h-91zM318 326l-108 200h91l136 -200l-136 -200h-91z" />
    <glyph glyph-name="onequarter" unicode="&#xbc;" horiz-adv-x="684" 
d="M526 698h66l-395 -710h-67zM33 352l74 -0.000976562v233h-75v56c15.333 2 34.333 7.33301 57 16s42 18.334 58 29.001h40v-334h66v-69h-220v69zM540 88.999l-143 -0.000976562v61c38.667 68.667 72.667 156.667 102 264h79c-10 -46 -26 -94 -48 -144
s-41.333 -87.333 -58 -112h68v37c8 15.333 17.5 36.833 28.5 64.5s18.833 49.834 23.5 66.501h27v-168h42v-69h-42v-89h-79v89z" />
    <glyph glyph-name="onehalf" unicode="&#xbd;" horiz-adv-x="684" 
d="M521 698h66l-395 -710h-67zM33 352l74 -0.000976562v233h-75v56c15.333 2 34.333 7.33301 57 16s42 18.334 58 29.001h40v-334h66v-69h-220v69zM425 17.999c0 28 6.33301 52.832 19 74.499s31.667 47.167 57 76.5c26.667 30 46.167 54.833 58.5 74.5
s18.5 40.834 18.5 63.501c0 10 -2.5 18.667 -7.5 26s-13.167 11 -24.5 11s-20 -5.16699 -26 -15.5s-9 -23.5 -9 -39.5v-28h-79c-0.666992 1.33301 -1.33398 4.5 -2.00098 9.5s-1 10.833 -1 17.5c0 42.667 11.333 74.334 34 95.001s51.334 31 86.001 31
c33.333 0 60.333 -8.83301 81 -26.5s31 -44.834 31 -81.501c0 -22.667 -4.33301 -44 -13 -64s-18.5 -37.167 -29.5 -51.5s-28.5 -35.5 -52.5 -63.5c-21.333 -26 -35 -43.667 -41 -53h138v-74h-238v18z" />
    <glyph glyph-name="threequarters" unicode="&#xbe;" horiz-adv-x="684" 
d="M61.5 309.5c-21.667 22.333 -32.4971 52.834 -32.4971 91.501v15h82v-17c0 -36 13.333 -54 40 -54c11.333 0 20.5 4.5 27.5 13.5s10.5 22.5 10.5 40.5c0 38.667 -14 58 -42 58h-25v67h26c9.33301 0 17.333 5 24 15s10 24 10 42c0 32 -10.333 48 -31 48
c-22 0 -33 -16.667 -33 -50v-16h-82v21c0 34 10.5 61.5 31.5 82.5s48.5 31.5 82.5 31.5c34.667 0 62.5 -10 83.5 -30s31.5 -48 31.5 -84c0 -21.333 -4.33301 -38.833 -13 -52.5s-21.334 -26.167 -38.001 -37.5c17.333 -8.66699 31.166 -21.334 41.499 -38.001
s15.5 -37 15.5 -61c0 -36.667 -11 -65.667 -33 -87s-50.667 -32 -86 -32c-38.667 0 -68.834 11.167 -90.501 33.5zM522.003 698.001h66l-395 -710h-67zM537.003 89.001l-143 -0.000976562v61c38.667 68.667 72.667 156.667 102 264h79c-10 -46 -26 -94 -48 -144
s-41.333 -87.333 -58 -112h68v37c8 15.333 17.5 36.833 28.5 64.5s18.833 49.834 23.5 66.501h27v-168h42v-69h-42v-89h-79v89z" />
    <glyph glyph-name="questiondown" unicode="&#xbf;" horiz-adv-x="501" 
d="M166 526h138v-137h-138v137zM100.5 -123c-35 32.667 -52.5 75.668 -52.5 129.001c0 43.333 6.16699 77.666 18.5 102.999s30.166 51.333 53.499 78c18 20.667 31.333 39 40 55s13 35.667 13 59v28h126v-43c0 -26 -4.83301 -48.167 -14.5 -66.5
s-24.167 -39.166 -43.5 -62.499c-20.667 -24.667 -36.167 -46.834 -46.5 -66.501s-15.5 -44.167 -15.5 -73.5c0 -18 5 -36.167 15 -54.5s28.333 -27.5 55 -27.5c29.333 0 49.5 10.833 60.5 32.5s16.5 45.834 16.5 72.501c0 7.33301 -0.166992 13.333 -0.5 18
s-0.5 7.66699 -0.5 9h126c0.666992 -2.66699 1.33398 -7.33398 2.00098 -14.001s1 -13.667 1 -21c0 -38 -8 -72.5 -24 -103.5s-40 -55.5 -72 -73.5s-71 -27 -117 -27c-58.667 0 -105.5 16.333 -140.5 49z" />
    <glyph glyph-name="Agrave" unicode="&#xc0;" horiz-adv-x="592" 
d="M158 880l1 3h120l86 -132h-99zM221 686h149l221 -686h-131l-42 135h-253l-41 -135h-124zM383 249l-69 228.999c-4.66699 14.667 -9 32.334 -13 53.001s-6.33301 34 -7 40h-4l-8 -41.5c-4 -21 -8 -38.167 -12 -51.5l-70 -229h183z" />
    <glyph glyph-name="Aacute" unicode="&#xc1;" horiz-adv-x="592" 
d="M313 883h120l1 -3l-108 -129h-99zM221 686h149l221 -686h-131l-42 135h-253l-41 -135h-124zM383 249l-69 228.999c-4.66699 14.667 -9 32.334 -13 53.001s-6.33301 34 -7 40h-4l-8 -41.5c-4 -21 -8 -38.167 -12 -51.5l-70 -229h183z" />
    <glyph glyph-name="Acircumflex" unicode="&#xc2;" horiz-adv-x="592" 
d="M248 883h98l85 -135h-90l-45 69l-45 -69h-89zM221 686h149l221 -686h-131l-42 135h-253l-41 -135h-124zM383 249l-69 228.999c-4.66699 14.667 -9 32.334 -13 53.001s-6.33301 34 -7 40h-4l-8 -41.5c-4 -21 -8 -38.167 -12 -51.5l-70 -229h183z" />
    <glyph glyph-name="Atilde" unicode="&#xc3;" horiz-adv-x="592" 
d="M153 846c16.667 24.667 41.002 37 73.002 37c10.667 0 20.667 -1.5 30 -4.5s22.333 -7.83301 39 -14.5c14 -6 25.667 -10.5 35 -13.5s19 -4.5 29 -4.5c11.333 0 20.166 2.83301 26.499 8.5s10.5 15.167 12.5 28.5h66c0 -32 -8.33301 -60.333 -25 -85
s-41.334 -37 -74.001 -37c-10.667 0 -20.5 1.5 -29.5 4.5s-21.833 7.83301 -38.5 14.5c-14 6 -25.667 10.5 -35 13.5s-19 4.5 -29 4.5c-22.667 0 -35.667 -12.333 -39 -37h-66c0 32 8.33301 60.333 25 85zM221.002 686h149l221 -686h-131l-42 135h-253l-41 -135h-124z
M383.002 249l-69 228.999c-4.66699 14.667 -9 32.334 -13 53.001s-6.33301 34 -7 40h-4l-8 -41.5c-4 -21 -8 -38.167 -12 -51.5l-70 -229h183z" />
    <glyph glyph-name="Adieresis" unicode="&#xc4;" horiz-adv-x="592" 
d="M159 883h100v-109h-100v109zM333 883h101v-109h-101v109zM221 686h149l221 -686h-131l-42 135h-253l-41 -135h-124zM383 249l-69 228.999c-4.66699 14.667 -9 32.334 -13 53.001s-6.33301 34 -7 40h-4l-8 -41.5c-4 -21 -8 -38.167 -12 -51.5l-70 -229h183z" />
    <glyph glyph-name="Aring" unicode="&#xc5;" horiz-adv-x="592" 
d="M228.5 749c-19 18.667 -28.501 41.333 -28.501 68s9.33301 49.334 28 68.001s41.334 28 68.001 28s49.334 -9.5 68.001 -28.5s28 -41.5 28 -67.5c0 -26.667 -9.33301 -49.334 -28 -68.001s-41.334 -28 -68.001 -28c-26 0 -48.5 9.33301 -67.5 28zM328.499 784.499
c9 9 13.5 19.833 13.5 32.5s-4.5 23.5 -13.5 32.5s-19.833 13.5 -32.5 13.5s-23.5 -4.33301 -32.5 -13s-13.5 -19.667 -13.5 -33c0 -12.667 4.5 -23.5 13.5 -32.5s19.833 -13.5 32.5 -13.5s23.5 4.5 32.5 13.5zM220.999 685.999h149l221 -686h-131l-42 135h-253l-41 -135
h-124zM382.999 248.999l-69 228.999c-4.66699 14.667 -9 32.334 -13 53.001s-6.33301 34 -7 40h-4l-8 -41.5c-4 -21 -8 -38.167 -12 -51.5l-70 -229h183z" />
    <glyph glyph-name="AE" unicode="&#xc6;" horiz-adv-x="820" 
d="M255 686h516v-114h-333l40 -164h249v-114h-221l44 -180h227v-114h-330l-33 135h-253l-50 -135h-119zM387 249l-59 251l-11 46h-4l-18 -48l-92 -249h184z" />
    <glyph glyph-name="Ccedilla" unicode="&#xc7;" horiz-adv-x="592" 
d="M214 -174l0.00195312 49h71c12 0 21 1.83301 27 5.5s9 9.83398 9 18.501c0 8 -2.5 14 -7.5 18s-13.833 6 -26.5 6h-33l8 68c-74 9.33301 -130.5 43.166 -169.5 101.499s-58.5 141.833 -58.5 250.5c0 118.667 23.5 207.5 70.5 266.5s114.5 88.5 202.5 88.5
c75.333 0 136.166 -22.333 182.499 -67s69.5 -111.334 69.5 -200.001h-131c0 51.333 -10.833 90.333 -32.5 117s-51.167 40 -88.5 40c-46.667 0 -81.834 -19.167 -105.501 -57.5s-35.5 -92.5 -35.5 -162.5v-50c0 -70 12.167 -124.167 36.5 -162.5s60.5 -57.5 108.5 -57.5
c38 0 68 13.167 90 39.5s33 65.166 33 116.499h125c0 -82 -20.833 -145.5 -62.5 -190.5s-97.167 -69.833 -166.5 -74.5l-2 -22c23.333 -1.33301 42.333 -7.66602 57 -18.999s22 -27.666 22 -48.999c0 -30 -11.167 -51 -33.5 -63s-47.5 -18 -75.5 -18
c-30.667 0 -58.667 2.66699 -84 8z" />
    <glyph glyph-name="Egrave" unicode="&#xc8;" horiz-adv-x="547" 
d="M135 880l1 3h120l86 -132h-99zM60 686h437v-114h-309v-164h265v-114h-265v-180h315v-114h-443v686z" />
    <glyph glyph-name="Eacute" unicode="&#xc9;" horiz-adv-x="547" 
d="M291 883h120l1 -3l-108 -129h-99zM60 686h437v-114h-309v-164h265v-114h-265v-180h315v-114h-443v686z" />
    <glyph glyph-name="Ecircumflex" unicode="&#xca;" horiz-adv-x="547" 
d="M225 883h98l85 -135h-90l-44 69l-45 -69h-90zM60 686h437v-114h-309v-164h265v-114h-265v-180h315v-114h-443v686z" />
    <glyph glyph-name="Edieresis" unicode="&#xcb;" horiz-adv-x="547" 
d="M136 883h100v-109h-100v109zM311 883h100v-109h-100v109zM60 686h437v-114h-309v-164h265v-114h-265v-180h315v-114h-443v686z" />
    <glyph glyph-name="Igrave" unicode="&#xcc;" horiz-adv-x="228" 
d="M-24 880l1 3h120l86 -132h-99zM50 686h128v-686h-128v686z" />
    <glyph glyph-name="Iacute" unicode="&#xcd;" horiz-adv-x="228" 
d="M131 883h120l1 -3l-107 -129h-100zM50 686h128v-686h-128v686z" />
    <glyph glyph-name="Icircumflex" unicode="&#xce;" horiz-adv-x="228" 
d="M66 883h98l85 -135h-90l-44 69l-45 -69h-91zM50 686h128v-686h-128v686z" />
    <glyph glyph-name="Idieresis" unicode="&#xcf;" horiz-adv-x="228" 
d="M-23 883h100v-109h-100v109zM152 883h100v-109h-100v109zM50 686h128v-686h-128v686z" />
    <glyph glyph-name="Eth" unicode="&#xd0;" horiz-adv-x="592" 
d="M60 312l-50 0.000976562v85h50v289h223c86.667 0 154.167 -28.333 202.5 -85s72.5 -139.334 72.5 -248.001c0 -115.333 -24 -203 -72 -263s-115.667 -90 -203 -90h-223v312zM271 114.001c48.667 0 86.667 18.167 114 54.5s41 89.5 41 159.5v50
c0 63.333 -13.667 111.5 -41 144.5s-65.333 49.5 -114 49.5h-83v-175h125v-85h-125v-198h83z" />
    <glyph glyph-name="Ntilde" unicode="&#xd1;" horiz-adv-x="592" 
d="M153 846c16.667 24.667 41.002 37 73.002 37c10.667 0 20.667 -1.5 30 -4.5s22.333 -7.83301 39 -14.5c14 -6 25.667 -10.5 35 -13.5s19 -4.5 29 -4.5c11.333 0 20.166 2.83301 26.499 8.5s10.5 15.167 12.5 28.5h66c0 -32 -8.33301 -60.333 -25 -85
s-41.334 -37 -74.001 -37c-10.667 0 -20.5 1.5 -29.5 4.5s-21.833 7.83301 -38.5 14.5c-14 6 -25.667 10.5 -35 13.5s-19 4.5 -29 4.5c-22.667 0 -35.667 -12.333 -39 -37h-66c0 32 8.33301 60.333 25 85zM60.002 686l113 -0.000976562l212 -378
c4.66699 -7.33301 10.5 -18.5 17.5 -33.5s11.5 -25.167 13.5 -30.5l3 3l-1 57v382h114v-686h-114l-212 378l-17.5 36l-13.5 28l-4 -3c0 -4 0.333008 -11.667 1 -23s1 -22.666 1 -33.999v-382h-113v686z" />
    <glyph glyph-name="Ograve" unicode="&#xd2;" horiz-adv-x="638" 
d="M181 880l1 3h120l86 -132h-99zM108.5 76.5c-49.667 59 -74.5 147.833 -74.5 266.5s24.833 207.5 74.5 266.5s119.834 88.5 210.501 88.5s160.834 -29.5 210.501 -88.5s74.5 -147.833 74.5 -266.5s-24.833 -207.5 -74.5 -266.5s-119.834 -88.5 -210.501 -88.5
s-160.834 29.5 -210.501 88.5zM433 155.5c26 38.333 39 92.5 39 162.5v50c0 70 -13 124.167 -39 162.5s-64 57.5 -114 57.5s-88 -19.167 -114 -57.5s-39 -92.5 -39 -162.5v-50c0 -70 13 -124.167 39 -162.5s64 -57.5 114 -57.5s88 19.167 114 57.5z" />
    <glyph glyph-name="Oacute" unicode="&#xd3;" horiz-adv-x="638" 
d="M336 883h121l1 -3l-108 -129h-100zM108.5 76.5c-49.667 59 -74.5 147.833 -74.5 266.5s24.833 207.5 74.5 266.5s119.834 88.5 210.501 88.5s160.834 -29.5 210.501 -88.5s74.5 -147.833 74.5 -266.5s-24.833 -207.5 -74.5 -266.5s-119.834 -88.5 -210.501 -88.5
s-160.834 29.5 -210.501 88.5zM433 155.5c26 38.333 39 92.5 39 162.5v50c0 70 -13 124.167 -39 162.5s-64 57.5 -114 57.5s-88 -19.167 -114 -57.5s-39 -92.5 -39 -162.5v-50c0 -70 13 -124.167 39 -162.5s64 -57.5 114 -57.5s88 19.167 114 57.5z" />
    <glyph glyph-name="Ocircumflex" unicode="&#xd4;" horiz-adv-x="638" 
d="M271 883h98l85 -135h-90l-44 69l-45 -69h-90zM108.5 76.5c-49.667 59 -74.5 147.833 -74.5 266.5s24.833 207.5 74.5 266.5s119.834 88.5 210.501 88.5s160.834 -29.5 210.501 -88.5s74.5 -147.833 74.5 -266.5s-24.833 -207.5 -74.5 -266.5
s-119.834 -88.5 -210.501 -88.5s-160.834 29.5 -210.501 88.5zM433 155.5c26 38.333 39 92.5 39 162.5v50c0 70 -13 124.167 -39 162.5s-64 57.5 -114 57.5s-88 -19.167 -114 -57.5s-39 -92.5 -39 -162.5v-50c0 -70 13 -124.167 39 -162.5s64 -57.5 114 -57.5
s88 19.167 114 57.5z" />
    <glyph glyph-name="Otilde" unicode="&#xd5;" horiz-adv-x="638" 
d="M176.5 845.5c17 25 41.499 37.5 73.499 37.5c10.667 0 20.667 -1.5 30 -4.5s22.333 -7.83301 39 -14.5c14.667 -6 26.5 -10.5 35.5 -13.5s18.5 -4.5 28.5 -4.5c11.333 0 20 2.83301 26 8.5s10 15.167 12 28.5h67c0 -31.333 -8.5 -59.5 -25.5 -84.5
s-41.5 -37.5 -73.5 -37.5c-10.667 0 -20.5 1.5 -29.5 4.5s-21.833 7.83301 -38.5 14.5c-14 6 -25.667 10.5 -35 13.5s-19 4.5 -29 4.5c-11.333 0 -20.166 -2.83301 -26.499 -8.5s-10.5 -15.167 -12.5 -28.5h-67c0 31.333 8.5 59.5 25.5 84.5zM108.499 76.5
c-49.667 59 -74.5 147.833 -74.5 266.5s24.833 207.5 74.5 266.5s119.834 88.5 210.501 88.5s160.834 -29.5 210.501 -88.5s74.5 -147.833 74.5 -266.5s-24.833 -207.5 -74.5 -266.5s-119.834 -88.5 -210.501 -88.5s-160.834 29.5 -210.501 88.5zM432.999 155.5
c26 38.333 39 92.5 39 162.5v50c0 70 -13 124.167 -39 162.5s-64 57.5 -114 57.5s-88 -19.167 -114 -57.5s-39 -92.5 -39 -162.5v-50c0 -70 13 -124.167 39 -162.5s64 -57.5 114 -57.5s88 19.167 114 57.5z" />
    <glyph glyph-name="Odieresis" unicode="&#xd6;" horiz-adv-x="638" 
d="M182 883h100v-109h-100v109zM357 883h100v-109h-100v109zM108.5 76.5c-49.667 59 -74.5 147.833 -74.5 266.5s24.833 207.5 74.5 266.5s119.834 88.5 210.501 88.5s160.834 -29.5 210.501 -88.5s74.5 -147.833 74.5 -266.5s-24.833 -207.5 -74.5 -266.5
s-119.834 -88.5 -210.501 -88.5s-160.834 29.5 -210.501 88.5zM433 155.5c26 38.333 39 92.5 39 162.5v50c0 70 -13 124.167 -39 162.5s-64 57.5 -114 57.5s-88 -19.167 -114 -57.5s-39 -92.5 -39 -162.5v-50c0 -70 13 -124.167 39 -162.5s64 -57.5 114 -57.5
s88 19.167 114 57.5z" />
    <glyph glyph-name="multiply" unicode="&#xd7;" horiz-adv-x="479" 
d="M29 111l146 145l-146 146l72 72l145 -146l146 146l72 -72l-146 -146l146 -145l-72 -72l-146 146l-145 -146z" />
    <glyph glyph-name="Oslash" unicode="&#xd8;" horiz-adv-x="638" 
d="M110 75c-50.667 60 -76.001 149.333 -76.001 268s24.833 207.5 74.5 266.5s119.834 88.5 210.501 88.5c60.667 0 112.334 -13.333 155.001 -40l41 65h84l-71 -113c50.667 -60 76 -149 76 -267c0 -118.667 -24.833 -207.5 -74.5 -266.5s-119.834 -88.5 -210.501 -88.5
c-60 0 -111.667 13 -155 39l-40 -64h-84zM409.999 556c-23.333 21.333 -53.667 32 -91 32c-50 0 -88 -19.167 -114 -57.5s-39 -92.5 -39 -162.5v-50c0 -48.667 6 -90 18 -124zM432.998 155.5c26 38.333 39 92.5 39 162.5v50c0 49.333 -6.33301 90 -19 122l-225 -361
c24 -20.667 54.333 -31 91 -31c50 0 88 19.167 114 57.5z" />
    <glyph glyph-name="Ugrave" unicode="&#xd9;" horiz-adv-x="592" 
d="M158 880l1 3h120l86 -132h-99zM122.5 46.5c-41 39 -61.5 95.167 -61.5 168.5v471h128v-467c0 -39.333 9.33301 -69.333 28 -90s45 -31 79 -31s60.5 10.333 79.5 31s28.5 50.667 28.5 90v467h128v-471c0 -73.333 -20.667 -129.5 -62 -168.5s-99.333 -58.5 -174 -58.5
s-132.5 19.5 -173.5 58.5z" />
    <glyph glyph-name="Uacute" unicode="&#xda;" horiz-adv-x="592" 
d="M313 883h120l1 -3l-108 -129h-99zM122.5 46.5c-41 39 -61.5 95.167 -61.5 168.5v471h128v-467c0 -39.333 9.33301 -69.333 28 -90s45 -31 79 -31s60.5 10.333 79.5 31s28.5 50.667 28.5 90v467h128v-471c0 -73.333 -20.667 -129.5 -62 -168.5s-99.333 -58.5 -174 -58.5
s-132.5 19.5 -173.5 58.5z" />
    <glyph glyph-name="Ucircumflex" unicode="&#xdb;" horiz-adv-x="592" 
d="M248 883h98l85 -135h-90l-45 69l-45 -69h-89zM122.5 46.5c-41 39 -61.5 95.167 -61.5 168.5v471h128v-467c0 -39.333 9.33301 -69.333 28 -90s45 -31 79 -31s60.5 10.333 79.5 31s28.5 50.667 28.5 90v467h128v-471c0 -73.333 -20.667 -129.5 -62 -168.5
s-99.333 -58.5 -174 -58.5s-132.5 19.5 -173.5 58.5z" />
    <glyph glyph-name="Udieresis" unicode="&#xdc;" horiz-adv-x="592" 
d="M159 883h100v-109h-100v109zM333 883h101v-109h-101v109zM122.5 46.5c-41 39 -61.5 95.167 -61.5 168.5v471h128v-467c0 -39.333 9.33301 -69.333 28 -90s45 -31 79 -31s60.5 10.333 79.5 31s28.5 50.667 28.5 90v467h128v-471c0 -73.333 -20.667 -129.5 -62 -168.5
s-99.333 -58.5 -174 -58.5s-132.5 19.5 -173.5 58.5z" />
    <glyph glyph-name="Yacute" unicode="&#xdd;" horiz-adv-x="547" 
d="M291 883h120l1 -3l-108 -129h-99zM210 259l-210 427h135l140 -301h4l139 301h129l-209 -427v-259h-128v259z" />
    <glyph glyph-name="Thorn" unicode="&#xde;" horiz-adv-x="547" 
d="M60 686h128v-122h117c68.667 0 121.667 -19 159 -57s56 -87.667 56 -149c0 -42.667 -9 -80.167 -27 -112.5s-43.167 -57.333 -75.5 -75s-69.833 -26.5 -112.5 -26.5h-117v-144h-128v686zM292 257c30.667 0 54.333 8.83301 71 26.5s25 42.5 25 74.5
c0 28 -8.5 50.333 -25.5 67s-40.5 25 -70.5 25h-104v-193h104z" />
    <glyph glyph-name="germandbls" unicode="&#xdf;" horiz-adv-x="501" 
d="M40 520c0 72.667 19.666 126.668 58.999 162.001s91 53 155 53c58 0 105.5 -16.833 142.5 -50.5s55.5 -79.167 55.5 -136.5c0 -33.333 -8.83301 -64.5 -26.5 -93.5s-40.5 -48.833 -68.5 -59.5v-4c34 -12.667 61.833 -35.667 83.5 -69s32.5 -69.333 32.5 -108
c0 -42 -8.83301 -79.167 -26.5 -111.5s-41.667 -57.5 -72 -75.5s-64.166 -27 -101.499 -27h-65v102h52c25.333 0 47 11.167 65 33.5s27 48.833 27 79.5c0 30 -9 55.667 -27 77s-39.667 32 -65 32h-52v113h49c20.667 0 38.167 10.667 52.5 32s21.5 46.666 21.5 75.999
c0 26.667 -7.16699 48.167 -21.5 64.5s-34.5 24.5 -60.5 24.5c-27.333 0 -49 -9.33301 -65 -28s-24 -44.667 -24 -78v-528h-120v520z" />
    <glyph glyph-name="agrave" unicode="&#xe0;" 
d="M79 720l1 3h120l86 -132h-99zM55.5 21.5c-27.667 22.333 -41.4971 60.5 -41.4971 114.5c0 66.667 22.667 114 68 142s109.666 42 192.999 42v55c0 20.667 -3.83301 36.667 -11.5 48s-22.167 17 -43.5 17c-22 0 -38 -5.5 -48 -16.5s-15 -23.833 -15 -38.5v-15h-117
c-0.666992 4 -1 11.333 -1 22c0 44 16.167 79.333 48.5 106s75.5 40 129.5 40c60 0 104.833 -13.333 134.5 -40s44.5 -65 44.5 -115v-259c0 -12 2.66699 -20.833 8 -26.5s12 -8.5 20 -8.5h24v-85c-20 -10.667 -43.667 -16 -71 -16c-23.333 0 -43.166 6.16699 -59.499 18.5
s-27.5 29.166 -33.5 50.499h-5c-16.667 -23.333 -34.834 -40.666 -54.501 -51.999s-45.834 -17 -78.501 -17s-62.834 11.167 -90.501 33.5zM255.503 120c13 21.333 19.501 49 19.501 83v30c-40.667 0 -73.834 -6.5 -99.501 -19.5s-38.5 -35.167 -38.5 -66.5
c0 -18.667 4.83301 -33.167 14.5 -43.5s24.5 -15.5 44.5 -15.5c26.667 0 46.5 10.667 59.5 32z" />
    <glyph glyph-name="aacute" unicode="&#xe1;" 
d="M234 723h120l1 -3l-108 -129h-99zM55.5 21.5c-27.667 22.333 -41.4971 60.5 -41.4971 114.5c0 66.667 22.667 114 68 142s109.666 42 192.999 42v55c0 20.667 -3.83301 36.667 -11.5 48s-22.167 17 -43.5 17c-22 0 -38 -5.5 -48 -16.5s-15 -23.833 -15 -38.5v-15h-117
c-0.666992 4 -1 11.333 -1 22c0 44 16.167 79.333 48.5 106s75.5 40 129.5 40c60 0 104.833 -13.333 134.5 -40s44.5 -65 44.5 -115v-259c0 -12 2.66699 -20.833 8 -26.5s12 -8.5 20 -8.5h24v-85c-20 -10.667 -43.667 -16 -71 -16c-23.333 0 -43.166 6.16699 -59.499 18.5
s-27.5 29.166 -33.5 50.499h-5c-16.667 -23.333 -34.834 -40.666 -54.501 -51.999s-45.834 -17 -78.501 -17s-62.834 11.167 -90.501 33.5zM255.503 120c13 21.333 19.501 49 19.501 83v30c-40.667 0 -73.834 -6.5 -99.501 -19.5s-38.5 -35.167 -38.5 -66.5
c0 -18.667 4.83301 -33.167 14.5 -43.5s24.5 -15.5 44.5 -15.5c26.667 0 46.5 10.667 59.5 32z" />
    <glyph glyph-name="acircumflex" unicode="&#xe2;" 
d="M168 723h99l85 -135h-90l-45 69l-45 -69h-89zM55.5 21.5c-27.667 22.333 -41.4971 60.5 -41.4971 114.5c0 66.667 22.667 114 68 142s109.666 42 192.999 42v55c0 20.667 -3.83301 36.667 -11.5 48s-22.167 17 -43.5 17c-22 0 -38 -5.5 -48 -16.5s-15 -23.833 -15 -38.5
v-15h-117c-0.666992 4 -1 11.333 -1 22c0 44 16.167 79.333 48.5 106s75.5 40 129.5 40c60 0 104.833 -13.333 134.5 -40s44.5 -65 44.5 -115v-259c0 -12 2.66699 -20.833 8 -26.5s12 -8.5 20 -8.5h24v-85c-20 -10.667 -43.667 -16 -71 -16
c-23.333 0 -43.166 6.16699 -59.499 18.5s-27.5 29.166 -33.5 50.499h-5c-16.667 -23.333 -34.834 -40.666 -54.501 -51.999s-45.834 -17 -78.501 -17s-62.834 11.167 -90.501 33.5zM255.503 120c13 21.333 19.501 49 19.501 83v30c-40.667 0 -73.834 -6.5 -99.501 -19.5
s-38.5 -35.167 -38.5 -66.5c0 -18.667 4.83301 -33.167 14.5 -43.5s24.5 -15.5 44.5 -15.5c26.667 0 46.5 10.667 59.5 32z" />
    <glyph glyph-name="atilde" unicode="&#xe3;" 
d="M74 686c16.667 24.667 41.002 37 73.002 37c10.667 0 20.667 -1.5 30 -4.5s22.333 -7.83301 39 -14.5c14 -6 25.667 -10.5 35 -13.5s19 -4.5 29 -4.5c11.333 0 20.166 2.83301 26.499 8.5s10.5 15.167 12.5 28.5h66c0 -32 -8.33301 -60.333 -25 -85
s-41.334 -37 -74.001 -37c-10.667 0 -20.5 1.5 -29.5 4.5s-21.833 7.83301 -38.5 14.5c-14 6 -25.667 10.5 -35 13.5s-19 4.5 -29 4.5c-22.667 0 -35.667 -12.333 -39 -37h-66c0 32 8.33301 60.333 25 85zM55.502 21.5c-27.667 22.333 -41.4971 60.5 -41.4971 114.5
c0 66.667 22.667 114 68 142s109.666 42 192.999 42v55c0 20.667 -3.83301 36.667 -11.5 48s-22.167 17 -43.5 17c-22 0 -38 -5.5 -48 -16.5s-15 -23.833 -15 -38.5v-15h-117c-0.666992 4 -1 11.333 -1 22c0 44 16.167 79.333 48.5 106s75.5 40 129.5 40
c60 0 104.833 -13.333 134.5 -40s44.5 -65 44.5 -115v-259c0 -12 2.66699 -20.833 8 -26.5s12 -8.5 20 -8.5h24v-85c-20 -10.667 -43.667 -16 -71 -16c-23.333 0 -43.166 6.16699 -59.499 18.5s-27.5 29.166 -33.5 50.499h-5
c-16.667 -23.333 -34.834 -40.666 -54.501 -51.999s-45.834 -17 -78.501 -17s-62.834 11.167 -90.501 33.5zM255.505 120c13 21.333 19.501 49 19.501 83v30c-40.667 0 -73.834 -6.5 -99.501 -19.5s-38.5 -35.167 -38.5 -66.5c0 -18.667 4.83301 -33.167 14.5 -43.5
s24.5 -15.5 44.5 -15.5c26.667 0 46.5 10.667 59.5 32z" />
    <glyph glyph-name="adieresis" unicode="&#xe4;" 
d="M80 723h100v-109h-100v109zM254 723h100v-109h-100v109zM55.5 21.5c-27.667 22.333 -41.4971 60.5 -41.4971 114.5c0 66.667 22.667 114 68 142s109.666 42 192.999 42v55c0 20.667 -3.83301 36.667 -11.5 48s-22.167 17 -43.5 17c-22 0 -38 -5.5 -48 -16.5
s-15 -23.833 -15 -38.5v-15h-117c-0.666992 4 -1 11.333 -1 22c0 44 16.167 79.333 48.5 106s75.5 40 129.5 40c60 0 104.833 -13.333 134.5 -40s44.5 -65 44.5 -115v-259c0 -12 2.66699 -20.833 8 -26.5s12 -8.5 20 -8.5h24v-85c-20 -10.667 -43.667 -16 -71 -16
c-23.333 0 -43.166 6.16699 -59.499 18.5s-27.5 29.166 -33.5 50.499h-5c-16.667 -23.333 -34.834 -40.666 -54.501 -51.999s-45.834 -17 -78.501 -17s-62.834 11.167 -90.501 33.5zM255.503 120c13 21.333 19.501 49 19.501 83v30c-40.667 0 -73.834 -6.5 -99.501 -19.5
s-38.5 -35.167 -38.5 -66.5c0 -18.667 4.83301 -33.167 14.5 -43.5s24.5 -15.5 44.5 -15.5c26.667 0 46.5 10.667 59.5 32z" />
    <glyph glyph-name="aring" unicode="&#xe5;" 
d="M149.5 589c-19 18.667 -28.501 41.333 -28.501 68s9.33301 49.334 28 68.001s41.334 28 68.001 28s49.334 -9.5 68.001 -28.5s28 -41.5 28 -67.5c0 -26.667 -9.33301 -49.334 -28 -68.001s-41.334 -28 -68.001 -28c-26 0 -48.5 9.33301 -67.5 28zM249.499 624.499
c9 9 13.5 19.833 13.5 32.5s-4.5 23.5 -13.5 32.5s-19.833 13.5 -32.5 13.5s-23.5 -4.33301 -32.5 -13s-13.5 -19.667 -13.5 -33c0 -12.667 4.5 -23.5 13.5 -32.5s19.833 -13.5 32.5 -13.5s23.5 4.5 32.5 13.5zM55.499 21.499c-27.667 22.333 -41.4971 60.5 -41.4971 114.5
c0 66.667 22.667 114 68 142s109.666 42 192.999 42v55c0 20.667 -3.83301 36.667 -11.5 48s-22.167 17 -43.5 17c-22 0 -38 -5.5 -48 -16.5s-15 -23.833 -15 -38.5v-15h-117c-0.666992 4 -1 11.333 -1 22c0 44 16.167 79.333 48.5 106s75.5 40 129.5 40
c60 0 104.833 -13.333 134.5 -40s44.5 -65 44.5 -115v-259c0 -12 2.66699 -20.833 8 -26.5s12 -8.5 20 -8.5h24v-85c-20 -10.667 -43.667 -16 -71 -16c-23.333 0 -43.166 6.16699 -59.499 18.5s-27.5 29.166 -33.5 50.499h-5
c-16.667 -23.333 -34.834 -40.666 -54.501 -51.999s-45.834 -17 -78.501 -17s-62.834 11.167 -90.501 33.5zM255.502 119.999c13 21.333 19.501 49 19.501 83v30c-40.667 0 -73.834 -6.5 -99.501 -19.5s-38.5 -35.167 -38.5 -66.5c0 -18.667 4.83301 -33.167 14.5 -43.5
s24.5 -15.5 44.5 -15.5c26.667 0 46.5 10.667 59.5 32z" />
    <glyph glyph-name="ae" unicode="&#xe6;" horiz-adv-x="729" 
d="M84.5 21.5c-31.667 22.333 -47.5 60.498 -47.5 114.498c0 66.667 22.667 114 68 142s109.666 42 192.999 42v55c0 20.667 -3.83301 36.667 -11.5 48s-22.167 17 -43.5 17c-22 0 -38 -5.5 -48 -16.5s-15 -23.833 -15 -38.5v-15h-117c-0.666992 4 -1 11.333 -1 22
c0 44 16.167 79.333 48.5 106s75.5 40 129.5 40c58.667 0 103.667 -16.667 135 -50c31.333 33.333 73 50 125 50c64 0 111.667 -22.333 143 -67s47 -114 47 -208v-30h-267c0.666992 -49.333 7.16699 -86.166 19.5 -110.499s32.833 -36.5 61.5 -36.5
c20.667 0 37 8.83301 49 26.5s18 42.167 18 73.5h119c0 -65.333 -17 -114.666 -51 -147.999s-79 -50 -135 -50c-71.333 0 -123.666 23.667 -156.999 71c-20.667 -22.667 -43.5 -40.167 -68.5 -52.5s-54.833 -18.5 -89.5 -18.5c-38 0 -72.833 11.167 -104.5 33.5z
M564 319.998c0 80 -21.333 119.999 -64 119.999c-24.667 0 -43 -10.167 -55 -30.5s-19 -50.166 -21 -89.499h140zM278.5 119.997c13 21.333 19.501 49 19.501 83v30c-40.667 0 -73.834 -6.5 -99.501 -19.5s-38.5 -35.167 -38.5 -66.5c0 -18.667 4.83301 -33.167 14.5 -43.5
s24.5 -15.5 44.5 -15.5c26.667 0 46.5 10.667 59.5 32z" />
    <glyph glyph-name="ccedilla" unicode="&#xe7;" 
d="M146 -174l0.000976562 48.9961h71c12 0 21 1.83301 27 5.5s9 9.83398 9 18.501c0 8 -2.5 14 -7.5 18s-13.833 6 -26.5 6h-32l8 69c-52.667 8.66699 -91.5 35 -116.5 79s-37.5 108 -37.5 192c0 94 16.167 163.333 48.5 208s81.166 67 146.499 67
c58 0 103.167 -17.167 135.5 -51.5s48.5 -87.166 48.5 -158.499h-123c0 72.667 -20.333 109 -61 109c-24.667 0 -42.5 -12.833 -53.5 -38.5s-16.5 -64.5 -16.5 -116.5v-38c0 -52 5.83301 -90.833 17.5 -116.5s30.5 -38.5 56.5 -38.5c21.333 0 36.833 9 46.5 27
s14.5 45.333 14.5 82h119c0 -66.667 -13.667 -117 -41 -151s-66.333 -53.333 -117 -58l-2 -22c23.333 -1.33301 42.333 -7.66602 57 -18.999s22 -27.666 22 -48.999c0 -30 -11.167 -51 -33.5 -63s-47.5 -18 -75.5 -18c-30.667 0 -58.667 2.66699 -84 8z" />
    <glyph glyph-name="egrave" unicode="&#xe8;" 
d="M90 720l1 3h120l86 -132h-99zM82.5 55.5c-34.333 45 -51.5 114.165 -51.5 207.498c0 183.333 67.333 275 202 275c64 0 111.667 -22.333 143 -67s47 -114 47 -208v-30h-267c0.666992 -49.333 7.16699 -86.166 19.5 -110.499s32.833 -36.5 61.5 -36.5
c20.667 0 37 8.83301 49 26.5s18 42.167 18 73.5h119c0 -65.333 -17 -114.666 -51 -147.999s-79 -50 -135 -50c-68.667 0 -120.167 22.5 -154.5 67.5zM297 319.998c0 80 -21.333 119.999 -64 119.999c-24.667 0 -43 -10.167 -55 -30.5s-19 -50.166 -21 -89.499h140z" />
    <glyph glyph-name="eacute" unicode="&#xe9;" 
d="M245 723h120l1 -3l-108 -129h-99zM82.5 55.5c-34.333 45 -51.5 114.165 -51.5 207.498c0 183.333 67.333 275 202 275c64 0 111.667 -22.333 143 -67s47 -114 47 -208v-30h-267c0.666992 -49.333 7.16699 -86.166 19.5 -110.499s32.833 -36.5 61.5 -36.5
c20.667 0 37 8.83301 49 26.5s18 42.167 18 73.5h119c0 -65.333 -17 -114.666 -51 -147.999s-79 -50 -135 -50c-68.667 0 -120.167 22.5 -154.5 67.5zM297 319.998c0 80 -21.333 119.999 -64 119.999c-24.667 0 -43 -10.167 -55 -30.5s-19 -50.166 -21 -89.499h140z" />
    <glyph glyph-name="ecircumflex" unicode="&#xea;" 
d="M180 723h98l85 -135h-90l-44 69l-45 -69h-90zM82.5 55.5c-34.333 45 -51.5 114.165 -51.5 207.498c0 183.333 67.333 275 202 275c64 0 111.667 -22.333 143 -67s47 -114 47 -208v-30h-267c0.666992 -49.333 7.16699 -86.166 19.5 -110.499s32.833 -36.5 61.5 -36.5
c20.667 0 37 8.83301 49 26.5s18 42.167 18 73.5h119c0 -65.333 -17 -114.666 -51 -147.999s-79 -50 -135 -50c-68.667 0 -120.167 22.5 -154.5 67.5zM297 319.998c0 80 -21.333 119.999 -64 119.999c-24.667 0 -43 -10.167 -55 -30.5s-19 -50.166 -21 -89.499h140z" />
    <glyph glyph-name="edieresis" unicode="&#xeb;" 
d="M91 723h100v-109h-100v109zM266 723h100v-109h-100v109zM82.5 55.5c-34.333 45 -51.5 114.165 -51.5 207.498c0 183.333 67.333 275 202 275c64 0 111.667 -22.333 143 -67s47 -114 47 -208v-30h-267c0.666992 -49.333 7.16699 -86.166 19.5 -110.499
s32.833 -36.5 61.5 -36.5c20.667 0 37 8.83301 49 26.5s18 42.167 18 73.5h119c0 -65.333 -17 -114.666 -51 -147.999s-79 -50 -135 -50c-68.667 0 -120.167 22.5 -154.5 67.5zM297 319.998c0 80 -21.333 119.999 -64 119.999c-24.667 0 -43 -10.167 -55 -30.5
s-19 -50.166 -21 -89.499h140z" />
    <glyph glyph-name="igrave" unicode="&#xec;" horiz-adv-x="228" 
d="M-24 720l1 3h120l86 -132h-99zM54 526h120v-526h-120v526z" />
    <glyph glyph-name="iacute" unicode="&#xed;" horiz-adv-x="228" 
d="M131 723h120l1 -3l-107 -129h-100zM54 526h120v-526h-120v526z" />
    <glyph glyph-name="icircumflex" unicode="&#xee;" horiz-adv-x="228" 
d="M66 723h98l85 -135h-90l-44 69l-45 -69h-91zM54 526h120v-526h-120v526z" />
    <glyph glyph-name="idieresis" unicode="&#xef;" horiz-adv-x="228" 
d="M-23 723h100v-109h-100v109zM152 723h100v-109h-100v109zM54 526h120v-526h-120v526z" />
    <glyph glyph-name="eth" unicode="&#xf0;" horiz-adv-x="501" 
d="M93 55c-34.667 44.667 -51.9971 114 -51.9971 208c0 89.333 16.167 157.5 48.5 204.5s76.833 70.5 133.5 70.5c16.667 0 33 -2.66699 49 -8l3 4c-9.33301 18 -22 38.333 -38 61l-129 -11v73l75 7c-8.66699 10 -26.334 28.333 -53.001 55l2 4h126
c16 -13.333 32.667 -29.333 50 -48l130 12v-73l-75 -7c65.333 -95.333 98 -210 98 -344c0 -94 -17.333 -163.333 -52 -208s-87.334 -67 -158.001 -67s-123.334 22.333 -158.001 67zM316.003 127.5c13.333 25.667 20 64.5 20 116.5v38c0 52 -6.66699 90.833 -20 116.5
s-35 38.5 -65 38.5s-51.667 -12.833 -65 -38.5s-20 -64.5 -20 -116.5v-38c0 -52 6.66699 -90.833 20 -116.5s35 -38.5 65 -38.5s51.667 12.833 65 38.5z" />
    <glyph glyph-name="ntilde" unicode="&#xf1;" horiz-adv-x="501" 
d="M108 686c16.667 24.667 41.002 37 73.002 37c10.667 0 20.667 -1.5 30 -4.5s22.333 -7.83301 39 -14.5c14 -6 25.667 -10.5 35 -13.5s19 -4.5 29 -4.5c11.333 0 20.166 2.83301 26.499 8.5s10.5 15.167 12.5 28.5h66c0 -32 -8.33301 -60.333 -25 -85
s-41.334 -37 -74.001 -37c-10.667 0 -20.5 1.5 -29.5 4.5s-21.833 7.83301 -38.5 14.5c-14 6 -25.667 10.5 -35 13.5s-19 4.5 -29 4.5c-22.667 0 -35.667 -12.333 -39 -37h-66c0 32 8.33301 60.333 25 85zM55.002 526l100.001 -0.00195312l12 -65h6
c15.333 22.667 34 41.167 56 55.5s47.667 21.5 77 21.5c43.333 0 77.5 -13.5 102.5 -40.5s37.5 -69.833 37.5 -128.5v-369h-120v336c0 32.667 -5.83301 56.334 -17.5 71.001s-28.834 22 -51.501 22c-23.333 0 -42.833 -10.167 -58.5 -30.5s-23.5 -45.166 -23.5 -74.499v-324
h-120v526z" />
    <glyph glyph-name="ograve" unicode="&#xf2;" horiz-adv-x="501" 
d="M112 720l1 3h120l86 -132h-99zM93 55c-34.667 44.667 -52 114 -52 208s17.333 163.333 52 208s87.334 67 158.001 67s123.334 -22.333 158.001 -67s52 -114 52 -208s-17.333 -163.333 -52 -208s-87.334 -67 -158.001 -67s-123.334 22.333 -158.001 67zM316 127.5
c13.333 25.667 20 64.5 20 116.5v38c0 52 -6.66699 90.833 -20 116.5s-35 38.5 -65 38.5s-51.667 -12.833 -65 -38.5s-20 -64.5 -20 -116.5v-38c0 -52 6.66699 -90.833 20 -116.5s35 -38.5 65 -38.5s51.667 12.833 65 38.5z" />
    <glyph glyph-name="oacute" unicode="&#xf3;" horiz-adv-x="501" 
d="M268 723h120l1 -3l-108 -129h-99zM93 55c-34.667 44.667 -52 114 -52 208s17.333 163.333 52 208s87.334 67 158.001 67s123.334 -22.333 158.001 -67s52 -114 52 -208s-17.333 -163.333 -52 -208s-87.334 -67 -158.001 -67s-123.334 22.333 -158.001 67zM316 127.5
c13.333 25.667 20 64.5 20 116.5v38c0 52 -6.66699 90.833 -20 116.5s-35 38.5 -65 38.5s-51.667 -12.833 -65 -38.5s-20 -64.5 -20 -116.5v-38c0 -52 6.66699 -90.833 20 -116.5s35 -38.5 65 -38.5s51.667 12.833 65 38.5z" />
    <glyph glyph-name="ocircumflex" unicode="&#xf4;" horiz-adv-x="501" 
d="M202 723h98l85 -135h-90l-44 69l-45 -69h-90zM93 55c-34.667 44.667 -52 114 -52 208s17.333 163.333 52 208s87.334 67 158.001 67s123.334 -22.333 158.001 -67s52 -114 52 -208s-17.333 -163.333 -52 -208s-87.334 -67 -158.001 -67s-123.334 22.333 -158.001 67z
M316 127.5c13.333 25.667 20 64.5 20 116.5v38c0 52 -6.66699 90.833 -20 116.5s-35 38.5 -65 38.5s-51.667 -12.833 -65 -38.5s-20 -64.5 -20 -116.5v-38c0 -52 6.66699 -90.833 20 -116.5s35 -38.5 65 -38.5s51.667 12.833 65 38.5z" />
    <glyph glyph-name="otilde" unicode="&#xf5;" horiz-adv-x="501" 
d="M108 686c16.667 24.667 41.002 37 73.002 37c10.667 0 20.667 -1.5 30 -4.5s22.333 -7.83301 39 -14.5c14 -6 25.667 -10.5 35 -13.5s19 -4.5 29 -4.5c11.333 0 20.166 2.83301 26.499 8.5s10.5 15.167 12.5 28.5h66c0 -32 -8.33301 -60.333 -25 -85
s-41.334 -37 -74.001 -37c-10.667 0 -20.5 1.5 -29.5 4.5s-21.833 7.83301 -38.5 14.5c-14 6 -25.667 10.5 -35 13.5s-19 4.5 -29 4.5c-22.667 0 -35.667 -12.333 -39 -37h-66c0 32 8.33301 60.333 25 85zM93.002 55c-34.667 44.667 -52 114 -52 208s17.333 163.333 52 208
s87.334 67 158.001 67s123.334 -22.333 158.001 -67s52 -114 52 -208s-17.333 -163.333 -52 -208s-87.334 -67 -158.001 -67s-123.334 22.333 -158.001 67zM316.002 127.5c13.333 25.667 20 64.5 20 116.5v38c0 52 -6.66699 90.833 -20 116.5s-35 38.5 -65 38.5
s-51.667 -12.833 -65 -38.5s-20 -64.5 -20 -116.5v-38c0 -52 6.66699 -90.833 20 -116.5s35 -38.5 65 -38.5s51.667 12.833 65 38.5z" />
    <glyph glyph-name="odieresis" unicode="&#xf6;" horiz-adv-x="501" 
d="M113 723h100v-109h-100v109zM288 723h100v-109h-100v109zM93 55c-34.667 44.667 -52 114 -52 208s17.333 163.333 52 208s87.334 67 158.001 67s123.334 -22.333 158.001 -67s52 -114 52 -208s-17.333 -163.333 -52 -208s-87.334 -67 -158.001 -67
s-123.334 22.333 -158.001 67zM316 127.5c13.333 25.667 20 64.5 20 116.5v38c0 52 -6.66699 90.833 -20 116.5s-35 38.5 -65 38.5s-51.667 -12.833 -65 -38.5s-20 -64.5 -20 -116.5v-38c0 -52 6.66699 -90.833 20 -116.5s35 -38.5 65 -38.5s51.667 12.833 65 38.5z" />
    <glyph glyph-name="divide" unicode="&#xf7;" horiz-adv-x="549" 
d="M222 470h104v-111h-104v111zM33 307h482v-104h-482v104zM222 151h104v-110h-104v110z" />
    <glyph glyph-name="oslash" unicode="&#xf8;" horiz-adv-x="501" 
d="M97 50c-37.333 45.333 -56 116.333 -56 213c0 94 17.333 163.333 52 208s87.334 67 158.001 67c38.667 0 72 -7 100 -21l22 41h75l-44 -81c38 -44.667 57 -116 57 -214c0 -94 -17.333 -163.333 -52 -208s-87.334 -67 -158.001 -67c-38.667 0 -72.667 7 -102 21l-22 -41
h-75zM298 421c-12.667 10.667 -28.333 16 -47 16c-30 0 -51.667 -12.833 -65 -38.5s-20 -64.5 -20 -116.5v-38c0 -22.667 1 -43 3 -61zM316.001 127.5c13.333 25.667 20.001 64.5 20.001 116.5v38c0 16.667 -1.33301 37.667 -4 63l-130 -239
c13.333 -11.333 29.666 -17 48.999 -17c30 0 51.667 12.833 65 38.5z" />
    <glyph glyph-name="ugrave" unicode="&#xf9;" horiz-adv-x="501" 
d="M112 720l1 3h120l86 -132h-99zM92.5 28.5c-25 27 -37.499 69.832 -37.499 128.499v369h120v-336c0 -33.333 5.66699 -57.166 17 -71.499s28.666 -21.5 51.999 -21.5s42.833 9.83301 58.5 29.5s23.5 44.167 23.5 73.5v326h120v-526h-100l-12 65h-6
c-15.333 -22.667 -34 -41.167 -56 -55.5s-47.667 -21.5 -77 -21.5c-43.333 0 -77.5 13.5 -102.5 40.5z" />
    <glyph glyph-name="uacute" unicode="&#xfa;" horiz-adv-x="501" 
d="M268 723h120l1 -3l-108 -129h-99zM92.5 28.5c-25 27 -37.499 69.832 -37.499 128.499v369h120v-336c0 -33.333 5.66699 -57.166 17 -71.499s28.666 -21.5 51.999 -21.5s42.833 9.83301 58.5 29.5s23.5 44.167 23.5 73.5v326h120v-526h-100l-12 65h-6
c-15.333 -22.667 -34 -41.167 -56 -55.5s-47.667 -21.5 -77 -21.5c-43.333 0 -77.5 13.5 -102.5 40.5z" />
    <glyph glyph-name="ucircumflex" unicode="&#xfb;" horiz-adv-x="501" 
d="M202 723h98l85 -135h-90l-44 69l-45 -69h-90zM92.5 28.5c-25 27 -37.499 69.832 -37.499 128.499v369h120v-336c0 -33.333 5.66699 -57.166 17 -71.499s28.666 -21.5 51.999 -21.5s42.833 9.83301 58.5 29.5s23.5 44.167 23.5 73.5v326h120v-526h-100l-12 65h-6
c-15.333 -22.667 -34 -41.167 -56 -55.5s-47.667 -21.5 -77 -21.5c-43.333 0 -77.5 13.5 -102.5 40.5z" />
    <glyph glyph-name="udieresis" unicode="&#xfc;" horiz-adv-x="501" 
d="M113 723h100v-109h-100v109zM288 723h100v-109h-100v109zM92.5 28.5c-25 27 -37.499 69.832 -37.499 128.499v369h120v-336c0 -33.333 5.66699 -57.166 17 -71.499s28.666 -21.5 51.999 -21.5s42.833 9.83301 58.5 29.5s23.5 44.167 23.5 73.5v326h120v-526h-100l-12 65
h-6c-15.333 -22.667 -34 -41.167 -56 -55.5s-47.667 -21.5 -77 -21.5c-43.333 0 -77.5 13.5 -102.5 40.5z" />
    <glyph glyph-name="yacute" unicode="&#xfd;" 
d="M245 723h120l1 -3l-108 -129h-99zM67.5 -178.5c-15.667 2.33301 -23.499 4.16797 -23.499 5.50098v92h54c18 0 34.333 6.66699 49 20s25.334 33.666 32.001 60.999l-175 526h127l79 -247c5.33301 -16.667 11 -41 17 -73s9.66699 -53.333 11 -64h4
c1.33301 10 4.66602 30.5 9.99902 61.5s10.333 55.833 15 74.5l65 248h120l-144 -499c-18.667 -64.667 -42.667 -115.667 -72 -153s-67.333 -56 -114 -56c-20.667 0 -38.834 1.16699 -54.501 3.5z" />
    <glyph glyph-name="thorn" unicode="&#xfe;" horiz-adv-x="501" 
d="M55 723l120 0.000976562v-257h1c12.667 23.333 29 41.166 49 53.499s42 18.5 66 18.5c53.333 0 94.833 -22.833 124.5 -68.5s44.5 -114.834 44.5 -207.501c0 -91.333 -14.833 -159.833 -44.5 -205.5s-69.167 -68.5 -118.5 -68.5c-26.667 0 -50.5 5.83301 -71.5 17.5
s-36.167 27.834 -45.5 48.501h-5v-227h-120v896zM316 133.501c12.667 24.333 19 61.167 19 110.5v38c0 49.333 -6.33301 86.166 -19 110.499s-33 36.5 -61 36.5s-48.333 -12.167 -61 -36.5s-19 -61.166 -19 -110.499v-36c0 -49.333 6.33301 -86.5 19 -111.5
s33 -37.5 61 -37.5s48.333 12.167 61 36.5z" />
    <glyph glyph-name="ydieresis" unicode="&#xff;" 
d="M91 723h100v-109h-100v109zM266 723h100v-109h-100v109zM67.5 -178.5c-15.667 2.33301 -23.499 4.16797 -23.499 5.50098v92h54c18 0 34.333 6.66699 49 20s25.334 33.666 32.001 60.999l-175 526h127l79 -247c5.33301 -16.667 11 -41 17 -73s9.66699 -53.333 11 -64h4
c1.33301 10 4.66602 30.5 9.99902 61.5s10.333 55.833 15 74.5l65 248h120l-144 -499c-18.667 -64.667 -42.667 -115.667 -72 -153s-67.333 -56 -114 -56c-20.667 0 -38.834 1.16699 -54.501 3.5z" />
    <glyph glyph-name="Amacron" unicode="&#x100;" horiz-adv-x="592" 
d="M168 846h256v-87h-256v87zM221 686h149l221 -686h-131l-42 135h-253l-41 -135h-124zM383 249l-69 228.999c-4.66699 14.667 -9 32.334 -13 53.001s-6.33301 34 -7 40h-4l-8 -41.5c-4 -21 -8 -38.167 -12 -51.5l-70 -229h183z" />
    <glyph glyph-name="amacron" unicode="&#x101;" 
d="M89 686h256v-87h-256v87zM55.5 21.5c-27.667 22.333 -41.4971 60.5 -41.4971 114.5c0 66.667 22.667 114 68 142s109.666 42 192.999 42v55c0 20.667 -3.83301 36.667 -11.5 48s-22.167 17 -43.5 17c-22 0 -38 -5.5 -48 -16.5s-15 -23.833 -15 -38.5v-15h-117
c-0.666992 4 -1 11.333 -1 22c0 44 16.167 79.333 48.5 106s75.5 40 129.5 40c60 0 104.833 -13.333 134.5 -40s44.5 -65 44.5 -115v-259c0 -12 2.66699 -20.833 8 -26.5s12 -8.5 20 -8.5h24v-85c-20 -10.667 -43.667 -16 -71 -16c-23.333 0 -43.166 6.16699 -59.499 18.5
s-27.5 29.166 -33.5 50.499h-5c-16.667 -23.333 -34.834 -40.666 -54.501 -51.999s-45.834 -17 -78.501 -17s-62.834 11.167 -90.501 33.5zM255.503 120c13 21.333 19.501 49 19.501 83v30c-40.667 0 -73.834 -6.5 -99.501 -19.5s-38.5 -35.167 -38.5 -66.5
c0 -18.667 4.83301 -33.167 14.5 -43.5s24.5 -15.5 44.5 -15.5c26.667 0 46.5 10.667 59.5 32z" />
    <glyph glyph-name="Abreve" unicode="&#x102;" horiz-adv-x="592" 
d="M226 792c-20 10.667 -35.501 24.167 -46.501 40.5s-16.5 33.166 -16.5 50.499h74c2 -8 8.5 -15.5 19.5 -22.5s23.833 -10.5 38.5 -10.5c16.667 0 30.667 3.5 42 10.5s17.333 14.5 18 22.5h75c0 -17.333 -5.66699 -34.166 -17 -50.499s-27.166 -29.833 -47.499 -40.5
s-43.833 -16 -70.5 -16c-26 0 -49 5.33301 -69 16zM220.999 686h149l221 -686h-131l-42 135h-253l-41 -135h-124zM382.999 249l-69 228.999c-4.66699 14.667 -9 32.334 -13 53.001s-6.33301 34 -7 40h-4l-8 -41.5c-4 -21 -8 -38.167 -12 -51.5l-70 -229h183z" />
    <glyph glyph-name="abreve" unicode="&#x103;" 
d="M146.5 632c-20.333 10.667 -36 24.167 -47 40.5s-16.5 33.166 -16.5 50.499h75c2 -8 8.5 -15.5 19.5 -22.5s23.833 -10.5 38.5 -10.5c16 0 29.667 3.5 41 10.5s17.666 14.5 18.999 22.5h75c0 -17.333 -5.66699 -34.166 -17 -50.499s-27.166 -29.833 -47.499 -40.5
s-43.833 -16 -70.5 -16c-26 0 -49.167 5.33301 -69.5 16zM55.5 21.5c-27.667 22.333 -41.4971 60.5 -41.4971 114.5c0 66.667 22.667 114 68 142s109.666 42 192.999 42v55c0 20.667 -3.83301 36.667 -11.5 48s-22.167 17 -43.5 17c-22 0 -38 -5.5 -48 -16.5
s-15 -23.833 -15 -38.5v-15h-117c-0.666992 4 -1 11.333 -1 22c0 44 16.167 79.333 48.5 106s75.5 40 129.5 40c60 0 104.833 -13.333 134.5 -40s44.5 -65 44.5 -115v-259c0 -12 2.66699 -20.833 8 -26.5s12 -8.5 20 -8.5h24v-85c-20 -10.667 -43.667 -16 -71 -16
c-23.333 0 -43.166 6.16699 -59.499 18.5s-27.5 29.166 -33.5 50.499h-5c-16.667 -23.333 -34.834 -40.666 -54.501 -51.999s-45.834 -17 -78.501 -17s-62.834 11.167 -90.501 33.5zM255.503 120c13 21.333 19.501 49 19.501 83v30c-40.667 0 -73.834 -6.5 -99.501 -19.5
s-38.5 -35.167 -38.5 -66.5c0 -18.667 4.83301 -33.167 14.5 -43.5s24.5 -15.5 44.5 -15.5c26.667 0 46.5 10.667 59.5 32z" />
    <glyph glyph-name="Aogonek" unicode="&#x104;" horiz-adv-x="592" 
d="M608 -121v-54.9971c-24 -9.33301 -46 -14 -66 -14c-27.333 0 -50.666 7.16699 -69.999 21.5s-29 37.166 -29 68.499c0 21.333 3.66699 39.666 11 54.999s18 30.333 32 45h-26l-42 135h-253l-41 -135h-124l221 686h149l221 -686h-21c-19.333 -24.667 -29 -48 -29 -70
c0 -14.667 3.66699 -26.834 11 -36.501s18.666 -14.5 33.999 -14.5h22zM383 249.003l-69 228.999c-4.66699 14.667 -9 32.334 -13 53.001s-6.33301 34 -7 40h-4l-8 -41.5c-4 -21 -8 -38.167 -12 -51.5l-70 -229h183z" />
    <glyph glyph-name="aogonek" unicode="&#x105;" 
d="M349.5 -164.5c-19.667 14.333 -29.4932 37.166 -29.4932 68.499c0 32 10.667 61 32 87c-34.667 8 -57.334 30 -68.001 66h-5c-16.667 -23.333 -34.834 -40.666 -54.501 -51.999s-45.834 -17 -78.501 -17s-62.834 11.167 -90.501 33.5s-41.5 60.5 -41.5 114.5
c0 66.667 22.667 114 68 142s109.666 42 192.999 42v55c0 20.667 -3.83301 36.667 -11.5 48s-22.167 17 -43.5 17c-22 0 -38 -5.5 -48 -16.5s-15 -23.833 -15 -38.5v-15h-117c-0.666992 4 -1 11.333 -1 22c0 44 16.167 79.333 48.5 106s75.5 40 129.5 40
c60 0 104.833 -13.333 134.5 -40s44.5 -65 44.5 -115v-259c0 -12 2.66699 -20.833 8 -26.5s12 -8.5 20 -8.5h24v-85c-20 -25.333 -30 -48.666 -30 -69.999c0 -14.667 3.66699 -26.834 11 -36.501s18.666 -14.5 33.999 -14.5h22v-55c-24 -9.33301 -46 -14 -66 -14
c-26.667 0 -49.834 7.16699 -69.501 21.5zM255.507 120c13 21.333 19.501 49 19.501 83v30c-40.667 0 -73.834 -6.5 -99.501 -19.5s-38.5 -35.167 -38.5 -66.5c0 -18.667 4.83301 -33.167 14.5 -43.5s24.5 -15.5 44.5 -15.5c26.667 0 46.5 10.667 59.5 32z" />
    <glyph glyph-name="Cacute" unicode="&#x106;" horiz-adv-x="592" 
d="M324 883h120l1 -3l-108 -129h-99zM104.5 76.5c-47 59 -70.498 147.835 -70.498 266.502s23.5 207.5 70.5 266.5s114.5 88.5 202.5 88.5c75.333 0 136.166 -22.333 182.499 -67s69.5 -111.334 69.5 -200.001h-131c0 51.333 -10.833 90.333 -32.5 117s-51.167 40 -88.5 40
c-46.667 0 -81.834 -19.167 -105.501 -57.5s-35.5 -92.5 -35.5 -162.5v-50c0 -70 12.167 -124.167 36.5 -162.5s60.5 -57.5 108.5 -57.5c38 0 68 13.167 90 39.5s33 65.166 33 116.499h125c0 -86.667 -23 -152.667 -69 -198s-107 -68 -183 -68
c-88 0 -155.5 29.5 -202.5 88.5z" />
    <glyph glyph-name="cacute" unicode="&#x107;" 
d="M254 723h121v-3l-107 -129h-100zM89 54.5c-32 44.333 -48 113.831 -48 208.498c0 94 16.167 163.333 48.5 208s81.166 67 146.499 67c58 0 103.167 -17.167 135.5 -51.5s48.5 -87.166 48.5 -158.499h-123c0 72.667 -20.333 109 -61 109
c-24.667 0 -42.5 -12.833 -53.5 -38.5s-16.5 -64.5 -16.5 -116.5v-38c0 -52 5.83301 -90.833 17.5 -116.5s30.5 -38.5 56.5 -38.5c21.333 0 36.833 9 46.5 27s14.5 45.333 14.5 82h119c0 -71.333 -15.667 -124.166 -47 -158.499s-75.666 -51.5 -132.999 -51.5
c-68.667 0 -119 22.167 -151 66.5z" />
    <glyph glyph-name="Ccircumflex" unicode="&#x108;" horiz-adv-x="592" 
d="M258 883h98l85 -135h-89l-45 69l-45 -69h-90zM104.5 76.5c-47 59 -70.498 147.835 -70.498 266.502s23.5 207.5 70.5 266.5s114.5 88.5 202.5 88.5c75.333 0 136.166 -22.333 182.499 -67s69.5 -111.334 69.5 -200.001h-131c0 51.333 -10.833 90.333 -32.5 117
s-51.167 40 -88.5 40c-46.667 0 -81.834 -19.167 -105.501 -57.5s-35.5 -92.5 -35.5 -162.5v-50c0 -70 12.167 -124.167 36.5 -162.5s60.5 -57.5 108.5 -57.5c38 0 68 13.167 90 39.5s33 65.166 33 116.499h125c0 -86.667 -23 -152.667 -69 -198s-107 -68 -183 -68
c-88 0 -155.5 29.5 -202.5 88.5z" />
    <glyph glyph-name="ccircumflex" unicode="&#x109;" 
d="M189 723h98l85 -135h-90l-44 69l-45 -69h-90zM89 54.5c-32 44.333 -48 113.831 -48 208.498c0 94 16.167 163.333 48.5 208s81.166 67 146.499 67c58 0 103.167 -17.167 135.5 -51.5s48.5 -87.166 48.5 -158.499h-123c0 72.667 -20.333 109 -61 109
c-24.667 0 -42.5 -12.833 -53.5 -38.5s-16.5 -64.5 -16.5 -116.5v-38c0 -52 5.83301 -90.833 17.5 -116.5s30.5 -38.5 56.5 -38.5c21.333 0 36.833 9 46.5 27s14.5 45.333 14.5 82h119c0 -71.333 -15.667 -124.166 -47 -158.499s-75.666 -51.5 -132.999 -51.5
c-68.667 0 -119 22.167 -151 66.5z" />
    <glyph glyph-name="Cdotaccent" unicode="&#x10a;" horiz-adv-x="592" 
d="M253 883h107v-115h-107v115zM104.5 76.5c-47 59 -70.498 147.835 -70.498 266.502s23.5 207.5 70.5 266.5s114.5 88.5 202.5 88.5c75.333 0 136.166 -22.333 182.499 -67s69.5 -111.334 69.5 -200.001h-131c0 51.333 -10.833 90.333 -32.5 117s-51.167 40 -88.5 40
c-46.667 0 -81.834 -19.167 -105.501 -57.5s-35.5 -92.5 -35.5 -162.5v-50c0 -70 12.167 -124.167 36.5 -162.5s60.5 -57.5 108.5 -57.5c38 0 68 13.167 90 39.5s33 65.166 33 116.499h125c0 -86.667 -23 -152.667 -69 -198s-107 -68 -183 -68
c-88 0 -155.5 29.5 -202.5 88.5z" />
    <glyph glyph-name="cdotaccent" unicode="&#x10b;" 
d="M184 723h107v-115h-107v115zM89 54.5c-32 44.333 -48 113.831 -48 208.498c0 94 16.167 163.333 48.5 208s81.166 67 146.499 67c58 0 103.167 -17.167 135.5 -51.5s48.5 -87.166 48.5 -158.499h-123c0 72.667 -20.333 109 -61 109c-24.667 0 -42.5 -12.833 -53.5 -38.5
s-16.5 -64.5 -16.5 -116.5v-38c0 -52 5.83301 -90.833 17.5 -116.5s30.5 -38.5 56.5 -38.5c21.333 0 36.833 9 46.5 27s14.5 45.333 14.5 82h119c0 -71.333 -15.667 -124.166 -47 -158.499s-75.666 -51.5 -132.999 -51.5c-68.667 0 -119 22.167 -151 66.5z" />
    <glyph glyph-name="Ccaron" unicode="&#x10c;" horiz-adv-x="592" 
d="M172 883h90l45 -69l45 69h89l-85 -135h-98zM104.5 76.5c-47 59 -70.498 147.835 -70.498 266.502s23.5 207.5 70.5 266.5s114.5 88.5 202.5 88.5c75.333 0 136.166 -22.333 182.499 -67s69.5 -111.334 69.5 -200.001h-131c0 51.333 -10.833 90.333 -32.5 117
s-51.167 40 -88.5 40c-46.667 0 -81.834 -19.167 -105.501 -57.5s-35.5 -92.5 -35.5 -162.5v-50c0 -70 12.167 -124.167 36.5 -162.5s60.5 -57.5 108.5 -57.5c38 0 68 13.167 90 39.5s33 65.166 33 116.499h125c0 -86.667 -23 -152.667 -69 -198s-107 -68 -183 -68
c-88 0 -155.5 29.5 -202.5 88.5z" />
    <glyph glyph-name="ccaron" unicode="&#x10d;" 
d="M103 723h90l45 -69l44 69h90l-85 -135h-98zM89 54.5c-32 44.333 -48 113.831 -48 208.498c0 94 16.167 163.333 48.5 208s81.166 67 146.499 67c58 0 103.167 -17.167 135.5 -51.5s48.5 -87.166 48.5 -158.499h-123c0 72.667 -20.333 109 -61 109
c-24.667 0 -42.5 -12.833 -53.5 -38.5s-16.5 -64.5 -16.5 -116.5v-38c0 -52 5.83301 -90.833 17.5 -116.5s30.5 -38.5 56.5 -38.5c21.333 0 36.833 9 46.5 27s14.5 45.333 14.5 82h119c0 -71.333 -15.667 -124.166 -47 -158.499s-75.666 -51.5 -132.999 -51.5
c-68.667 0 -119 22.167 -151 66.5z" />
    <glyph glyph-name="Dcaron" unicode="&#x10e;" horiz-adv-x="592" 
d="M119 883h90l45 -69l44 69h90l-85 -135h-98zM60 686l223 0.000976562c86.667 0 154.167 -28.333 202.5 -85s72.5 -139.334 72.5 -248.001c0 -115.333 -24 -203 -72 -263s-115.667 -90 -203 -90h-223v686zM271 114.001c48.667 0 86.667 18.167 114 54.5s41 89.5 41 159.5
v50c0 63.333 -13.667 111.5 -41 144.5s-65.333 49.5 -114 49.5h-83v-458h83z" />
    <glyph glyph-name="dcaron" unicode="&#x10f;" horiz-adv-x="589" 
d="M85.5 56.5c-29.667 45.667 -44.499 114.834 -44.499 207.501c0 91.333 14.833 159.833 44.5 205.5s69.167 68.5 118.5 68.5c26.667 0 50.5 -5.83301 71.5 -17.5s36.167 -27.834 45.5 -48.501h5v251h120v-723h-100l-12 65h-5c-12.667 -25.333 -29.334 -44.5 -50.001 -57.5
s-43.667 -19.5 -69 -19.5c-53.333 0 -94.833 22.833 -124.5 68.5zM532.001 549h-55v137h138v-125l-66 -168h-72zM307.001 133.5c12.667 24.333 19 61.165 19 110.498v36c0 49.333 -6.33301 86.5 -19 111.5s-33 37.5 -61 37.5s-48.333 -12.167 -61 -36.5
s-19 -61.166 -19 -110.499v-38c0 -49.333 6.33301 -86.166 19 -110.499s33 -36.5 61 -36.5s48.333 12.167 61 36.5z" />
    <glyph glyph-name="Dcroat" unicode="&#x110;" horiz-adv-x="592" 
d="M60 312l-50 0.000976562v85h50v289h223c86.667 0 154.167 -28.333 202.5 -85s72.5 -139.334 72.5 -248.001c0 -115.333 -24 -203 -72 -263s-115.667 -90 -203 -90h-223v312zM271 114.001c48.667 0 86.667 18.167 114 54.5s41 89.5 41 159.5v50
c0 63.333 -13.667 111.5 -41 144.5s-65.333 49.5 -114 49.5h-83v-175h125v-85h-125v-198h83z" />
    <glyph glyph-name="dcroat" unicode="&#x111;" horiz-adv-x="504" 
d="M85.5 56.5c-29.667 45.667 -44.499 114.834 -44.499 207.501c0 91.333 14.833 159.833 44.5 205.5s69.167 68.5 118.5 68.5c26.667 0 50.5 -5.83301 71.5 -17.5s36.167 -27.834 45.5 -48.501h5v111h-132v87h132v53h120v-53h54v-87h-54v-583h-100l-12 65h-5
c-12.667 -25.333 -29.334 -44.5 -50.001 -57.5s-43.667 -19.5 -69 -19.5c-53.333 0 -94.833 22.833 -124.5 68.5zM307.001 133.5c12.667 24.333 19 61.165 19 110.498v36c0 49.333 -6.33301 86.5 -19 111.5s-33 37.5 -61 37.5s-48.333 -12.167 -61 -36.5
s-19 -61.166 -19 -110.499v-38c0 -49.333 6.33301 -86.166 19 -110.499s33 -36.5 61 -36.5s48.333 12.167 61 36.5z" />
    <glyph glyph-name="Emacron" unicode="&#x112;" horiz-adv-x="547" 
d="M146 846h255v-87h-255v87zM60 686h437v-114h-309v-164h265v-114h-265v-180h315v-114h-443v686z" />
    <glyph glyph-name="emacron" unicode="&#x113;" 
d="M101 686h255v-87h-255v87zM82.5 55.5c-34.333 45 -51.5 114.165 -51.5 207.498c0 183.333 67.333 275 202 275c64 0 111.667 -22.333 143 -67s47 -114 47 -208v-30h-267c0.666992 -49.333 7.16699 -86.166 19.5 -110.499s32.833 -36.5 61.5 -36.5
c20.667 0 37 8.83301 49 26.5s18 42.167 18 73.5h119c0 -65.333 -17 -114.666 -51 -147.999s-79 -50 -135 -50c-68.667 0 -120.167 22.5 -154.5 67.5zM297 319.998c0 80 -21.333 119.999 -64 119.999c-24.667 0 -43 -10.167 -55 -30.5s-19 -50.166 -21 -89.499h140z" />
    <glyph glyph-name="Ebreve" unicode="&#x114;" horiz-adv-x="547" 
d="M203.5 792c-20.333 10.667 -35.999 24.167 -46.999 40.5s-16.5 33.166 -16.5 50.499h74c2 -8 8.5 -15.5 19.5 -22.5s24.167 -10.5 39.5 -10.5c16 0 29.667 3.5 41 10.5s17.666 14.5 18.999 22.5h74c0 -17.333 -5.5 -34.166 -16.5 -50.499s-26.667 -29.833 -47 -40.5
s-43.833 -16 -70.5 -16c-26 0 -49.167 5.33301 -69.5 16zM60.001 686h437v-114h-309v-164h265v-114h-265v-180h315v-114h-443v686z" />
    <glyph glyph-name="ebreve" unicode="&#x115;" 
d="M158.5 632c-20.333 10.667 -35.999 24.167 -46.999 40.5s-16.5 33.166 -16.5 50.499h74c2 -8 8.5 -15.5 19.5 -22.5s24.167 -10.5 39.5 -10.5c16 0 29.667 3.5 41 10.5s17.666 14.5 18.999 22.5h74c0 -17.333 -5.5 -34.166 -16.5 -50.499s-26.667 -29.833 -47 -40.5
s-43.833 -16 -70.5 -16c-26 0 -49.167 5.33301 -69.5 16zM82.501 55.5c-34.333 45 -51.5 114.165 -51.5 207.498c0 183.333 67.333 275 202 275c64 0 111.667 -22.333 143 -67s47 -114 47 -208v-30h-267c0.666992 -49.333 7.16699 -86.166 19.5 -110.499
s32.833 -36.5 61.5 -36.5c20.667 0 37 8.83301 49 26.5s18 42.167 18 73.5h119c0 -65.333 -17 -114.666 -51 -147.999s-79 -50 -135 -50c-68.667 0 -120.167 22.5 -154.5 67.5zM297.001 319.998c0 80 -21.333 119.999 -64 119.999c-24.667 0 -43 -10.167 -55 -30.5
s-19 -50.166 -21 -89.499h140z" />
    <glyph glyph-name="Edotaccent" unicode="&#x116;" horiz-adv-x="547" 
d="M220 883h107v-115h-107v115zM60 686h437v-114h-309v-164h265v-114h-265v-180h315v-114h-443v686z" />
    <glyph glyph-name="edotaccent" unicode="&#x117;" 
d="M175 723h107v-115h-107v115zM82.5 55.5c-34.333 45 -51.5 114.165 -51.5 207.498c0 183.333 67.333 275 202 275c64 0 111.667 -22.333 143 -67s47 -114 47 -208v-30h-267c0.666992 -49.333 7.16699 -86.166 19.5 -110.499s32.833 -36.5 61.5 -36.5
c20.667 0 37 8.83301 49 26.5s18 42.167 18 73.5h119c0 -65.333 -17 -114.666 -51 -147.999s-79 -50 -135 -50c-68.667 0 -120.167 22.5 -154.5 67.5zM297 319.998c0 80 -21.333 119.999 -64 119.999c-24.667 0 -43 -10.167 -55 -30.5s-19 -50.166 -21 -89.499h140z" />
    <glyph glyph-name="Eogonek" unicode="&#x118;" horiz-adv-x="547" 
d="M404 -168.5c-19.333 14.333 -29.001 37.1709 -29.001 68.5039c0 21.333 3.83301 39.666 11.5 54.999s18.5 30.333 32.5 45h-359v686h437v-114h-309v-164h265v-114h-265v-180h315v-114c-7.33301 -8.66699 -14.166 -19.334 -20.499 -32.001s-9.5 -25.334 -9.5 -38.001
c0 -14.667 3.66699 -26.834 11 -36.501s18.666 -14.5 33.999 -14.5h22v-55c-24 -9.33301 -46 -14 -66 -14c-27.333 0 -50.666 7.16699 -69.999 21.5z" />
    <glyph glyph-name="eogonek" unicode="&#x119;" 
d="M225.5 -163.5c-19.667 14.333 -29.5 37.1689 -29.5 68.502s9.66699 59 29 83c-64 2.66699 -112.333 26.5 -145 71.5s-49 112.833 -49 203.5c0 183.333 67.333 275 202 275c64 0 111.667 -22.333 143 -67s47 -114 47 -208v-30h-267
c0.666992 -49.333 7.16699 -86.166 19.5 -110.499s32.833 -36.5 61.5 -36.5c20.667 0 37 8.83301 49 26.5s18 42.167 18 73.5h119c0 -46 -8.66699 -84.167 -26 -114.5s-41.666 -52.5 -72.999 -66.5c-7.33301 -8.66699 -14.166 -19.334 -20.499 -32.001
s-9.5 -25.334 -9.5 -38.001c0 -14.667 3.66699 -26.834 11 -36.501s18.666 -14.5 33.999 -14.5h22v-55c-24 -9.33301 -46 -14 -66 -14c-26.667 0 -49.834 7.16699 -69.501 21.5zM297 320.003c0 80 -21.333 119.999 -64 119.999c-24.667 0 -43 -10.167 -55 -30.5
s-19 -50.166 -21 -89.499h140z" />
    <glyph glyph-name="Ecaron" unicode="&#x11a;" horiz-adv-x="547" 
d="M139 883h90l45 -69l44 69h90l-85 -135h-98zM60 686h437v-114h-309v-164h265v-114h-265v-180h315v-114h-443v686z" />
    <glyph glyph-name="ecaron" unicode="&#x11b;" 
d="M94 723h90l45 -69l44 69h90l-85 -135h-98zM82.5 55.5c-34.333 45 -51.5 114.165 -51.5 207.498c0 183.333 67.333 275 202 275c64 0 111.667 -22.333 143 -67s47 -114 47 -208v-30h-267c0.666992 -49.333 7.16699 -86.166 19.5 -110.499s32.833 -36.5 61.5 -36.5
c20.667 0 37 8.83301 49 26.5s18 42.167 18 73.5h119c0 -65.333 -17 -114.666 -51 -147.999s-79 -50 -135 -50c-68.667 0 -120.167 22.5 -154.5 67.5zM297 319.998c0 80 -21.333 119.999 -64 119.999c-24.667 0 -43 -10.167 -55 -30.5s-19 -50.166 -21 -89.499h140z" />
    <glyph glyph-name="Gcircumflex" unicode="&#x11c;" horiz-adv-x="638" 
d="M275 748h-90l86 135h98l85 -135h-90l-44 69zM302 373l285.001 0.000976562v-373h-83l-22 76c-22 -28.667 -48.833 -50.5 -80.5 -65.5s-65.834 -22.5 -102.501 -22.5c-86 0 -151.667 29.167 -197 87.5s-68 147.5 -68 267.5c0 119.333 25 208.333 75 267s122 88 216 88
c47.333 0 90.833 -9.83301 130.5 -29.5s71.5 -48.5 95.5 -86.5s36 -83.333 36 -136h-131c0 44.667 -12.833 79.5 -38.5 104.5s-57.834 37.5 -96.501 37.5c-52 0 -90.833 -19 -116.5 -57s-38.5 -92.333 -38.5 -163v-50c0 -71.333 12.833 -125.833 38.5 -163.5
s64.834 -56.5 117.501 -56.5c39.333 0 71.5 15.167 96.5 45.5s37.5 70.166 37.5 119.499h-154v110z" />
    <glyph glyph-name="gcircumflex" unicode="&#x11d;" horiz-adv-x="501" 
d="M202 723h98l85 -135h-90l-44 69l-45 -69h-90zM49.5 -148c-22.333 22.667 -33.4961 51.667 -33.4961 87c0 46.667 22.333 82.334 67 107.001c-28 17.333 -42 43.666 -42 78.999c0 22 7.16699 40.833 21.5 56.5s32.833 27.5 55.5 35.5
c-42.667 31.333 -64 78.666 -64 141.999c0 55.333 16.833 99 50.5 131s81.5 48 143.5 48c33.333 0 62.666 -5 87.999 -15c31.333 1.33301 51.166 11.333 59.499 30s12.5 39 12.5 61h78c0 -72 -28.333 -116.667 -85 -134c28 -31.333 42 -71.666 42 -120.999
c0 -55.333 -16.833 -99 -50.5 -131s-81.834 -48 -144.501 -48h-50c-10.667 0 -19.334 -3 -26.001 -9s-10 -13.667 -10 -23c0 -8.66699 3 -16 9 -22s13.333 -9 22 -9h182c34 0 62.5 -12.5 85.5 -37.5s34.5 -58.167 34.5 -99.5c0 -32 -7.5 -60.333 -22.5 -85
s-35.5 -43.667 -61.5 -57s-54.667 -20 -86 -20h-193c-32.667 0 -60.167 11.333 -82.5 34zM304.004 292.5c12.667 15.667 19 37.834 19 66.501s-6.33301 50.834 -19 66.501s-31.334 23.5 -56.001 23.5c-24 0 -42.333 -7.83301 -55 -23.5s-19 -37.834 -19 -66.501
s6.33301 -50.834 19 -66.501s31 -23.5 55 -23.5c24.667 0 43.334 7.83301 56.001 23.5zM320.004 -91c15.333 0 28.166 4.49805 38.499 13.498s15.5 20.833 15.5 35.5s-4.66699 26.334 -14 35.001s-21 13 -35 13h-140c-13.333 0 -24.666 -4.66699 -33.999 -14
s-14 -20.666 -14 -33.999c0 -14.667 4.5 -26.5 13.5 -35.5s20.5 -13.5 34.5 -13.5h135z" />
    <glyph glyph-name="Gbreve" unicode="&#x11e;" horiz-adv-x="638" 
d="M249.5 792c-20.333 10.667 -35.999 24.167 -46.999 40.5s-16.5 33.166 -16.5 50.499h74c2 -8 8.5 -15.5 19.5 -22.5s24.167 -10.5 39.5 -10.5c16 0 29.667 3.5 41 10.5s17.666 14.5 18.999 22.5h74c0 -17.333 -5.5 -34.166 -16.5 -50.499s-26.667 -29.833 -47 -40.5
s-43.833 -16 -70.5 -16c-26 0 -49.167 5.33301 -69.5 16zM302.001 373l285.001 0.000976562v-373h-83l-22 76c-22 -28.667 -48.833 -50.5 -80.5 -65.5s-65.834 -22.5 -102.501 -22.5c-86 0 -151.667 29.167 -197 87.5s-68 147.5 -68 267.5c0 119.333 25 208.333 75 267
s122 88 216 88c47.333 0 90.833 -9.83301 130.5 -29.5s71.5 -48.5 95.5 -86.5s36 -83.333 36 -136h-131c0 44.667 -12.833 79.5 -38.5 104.5s-57.834 37.5 -96.501 37.5c-52 0 -90.833 -19 -116.5 -57s-38.5 -92.333 -38.5 -163v-50c0 -71.333 12.833 -125.833 38.5 -163.5
s64.834 -56.5 117.501 -56.5c39.333 0 71.5 15.167 96.5 45.5s37.5 70.166 37.5 119.499h-154v110z" />
    <glyph glyph-name="gbreve" unicode="&#x11f;" horiz-adv-x="501" 
d="M180.5 632c-20.333 10.667 -35.999 24.167 -46.999 40.5s-16.5 33.166 -16.5 50.499h74c2 -8 8.5 -15.5 19.5 -22.5s24.167 -10.5 39.5 -10.5c16 0 29.667 3.5 41 10.5s17.666 14.5 18.999 22.5h74c0 -17.333 -5.5 -34.166 -16.5 -50.499s-26.667 -29.833 -47 -40.5
s-43.833 -16 -70.5 -16c-26 0 -49.167 5.33301 -69.5 16zM49.501 -148c-22.333 22.667 -33.4971 51.665 -33.4971 86.998c0 46.667 22.333 82.334 67 107.001c-28 17.333 -42 43.666 -42 78.999c0 22 7.16699 40.833 21.5 56.5s32.833 27.5 55.5 35.5
c-42.667 31.333 -64 78.666 -64 141.999c0 55.333 16.833 99 50.5 131s81.5 48 143.5 48c33.333 0 62.666 -5 87.999 -15c18 12.667 31 27.834 39 45.501s12 32.834 12 45.501h99c0 -72 -28.333 -116.667 -85 -134c28 -31.333 42 -71.666 42 -120.999
c0 -55.333 -16.833 -99 -50.5 -131s-81.834 -48 -144.501 -48h-50c-10.667 0 -19.334 -3 -26.001 -9s-10 -13.667 -10 -23c0 -8.66699 3 -16 9 -22s13.333 -9 22 -9h182c34 0 62.5 -12.5 85.5 -37.5s34.5 -58.167 34.5 -99.5c0 -32 -7.5 -60.333 -22.5 -85
s-35.5 -43.667 -61.5 -57s-54.667 -20 -86 -20h-193c-32.667 0 -60.167 11.333 -82.5 34zM304.004 292.498c12.667 15.667 19 37.834 19 66.501s-6.33301 50.834 -19 66.501s-31.334 23.5 -56.001 23.5c-24 0 -42.333 -7.83301 -55 -23.5s-19 -37.834 -19 -66.501
s6.33301 -50.834 19 -66.501s31 -23.5 55 -23.5c24.667 0 43.334 7.83301 56.001 23.5zM320.004 -91.002c15.333 0 28.166 4.49805 38.499 13.498s15.5 20.833 15.5 35.5s-4.66699 26.334 -14 35.001s-21 13 -35 13h-140c-13.333 0 -24.666 -4.66699 -33.999 -14
s-14 -20.666 -14 -33.999c0 -14.667 4.5 -26.5 13.5 -35.5s20.5 -13.5 34.5 -13.5h135z" />
    <glyph glyph-name="Gdotaccent" unicode="&#x120;" horiz-adv-x="638" 
d="M373 768h-107v115h107v-115zM302 373l285.001 0.000976562v-373h-83l-22 76c-22 -28.667 -48.833 -50.5 -80.5 -65.5s-65.834 -22.5 -102.501 -22.5c-86 0 -151.667 29.167 -197 87.5s-68 147.5 -68 267.5c0 119.333 25 208.333 75 267s122 88 216 88
c47.333 0 90.833 -9.83301 130.5 -29.5s71.5 -48.5 95.5 -86.5s36 -83.333 36 -136h-131c0 44.667 -12.833 79.5 -38.5 104.5s-57.834 37.5 -96.501 37.5c-52 0 -90.833 -19 -116.5 -57s-38.5 -92.333 -38.5 -163v-50c0 -71.333 12.833 -125.833 38.5 -163.5
s64.834 -56.5 117.501 -56.5c39.333 0 71.5 15.167 96.5 45.5s37.5 70.166 37.5 119.499h-154v110z" />
    <glyph glyph-name="gdotaccent" unicode="&#x121;" horiz-adv-x="501" 
d="M197 723h107v-115h-107v115zM49.5 -148c-22.333 22.667 -33.4971 51.665 -33.4971 86.998c0 46.667 22.333 82.334 67 107.001c-28 17.333 -42 43.666 -42 78.999c0 22 7.16699 40.833 21.5 56.5s32.833 27.5 55.5 35.5c-42.667 31.333 -64 78.666 -64 141.999
c0 55.333 16.833 99 50.5 131s81.5 48 143.5 48c33.333 0 62.666 -5 87.999 -15c18 12.667 31 27.834 39 45.501s12 32.834 12 45.501h99c0 -72 -28.333 -116.667 -85 -134c28 -31.333 42 -71.666 42 -120.999c0 -55.333 -16.833 -99 -50.5 -131s-81.834 -48 -144.501 -48
h-50c-10.667 0 -19.334 -3 -26.001 -9s-10 -13.667 -10 -23c0 -8.66699 3 -16 9 -22s13.333 -9 22 -9h182c34 0 62.5 -12.5 85.5 -37.5s34.5 -58.167 34.5 -99.5c0 -32 -7.5 -60.333 -22.5 -85s-35.5 -43.667 -61.5 -57s-54.667 -20 -86 -20h-193
c-32.667 0 -60.167 11.333 -82.5 34zM304.003 292.498c12.667 15.667 19 37.834 19 66.501s-6.33301 50.834 -19 66.501s-31.334 23.5 -56.001 23.5c-24 0 -42.333 -7.83301 -55 -23.5s-19 -37.834 -19 -66.501s6.33301 -50.834 19 -66.501s31 -23.5 55 -23.5
c24.667 0 43.334 7.83301 56.001 23.5zM320.003 -91.002c15.333 0 28.166 4.49805 38.499 13.498s15.5 20.833 15.5 35.5s-4.66699 26.334 -14 35.001s-21 13 -35 13h-140c-13.333 0 -24.666 -4.66699 -33.999 -14s-14 -20.666 -14 -33.999c0 -14.667 4.5 -26.5 13.5 -35.5
s20.5 -13.5 34.5 -13.5h135z" />
    <glyph glyph-name="Gcommaaccent" unicode="&#x122;" horiz-adv-x="638" 
d="M302 373l285.001 0.000976562v-373h-83l-22 76c-22 -28.667 -48.833 -50.5 -80.5 -65.5s-65.834 -22.5 -102.501 -22.5c-86 0 -151.667 29.167 -197 87.5s-68 147.5 -68 267.5c0 119.333 25 208.333 75 267s122 88 216 88c47.333 0 90.833 -9.83301 130.5 -29.5
s71.5 -48.5 95.5 -86.5s36 -83.333 36 -136h-131c0 44.667 -12.833 79.5 -38.5 104.5s-57.834 37.5 -96.501 37.5c-52 0 -90.833 -19 -116.5 -57s-38.5 -92.333 -38.5 -163v-50c0 -71.333 12.833 -125.833 38.5 -163.5s64.834 -56.5 117.501 -56.5
c39.333 0 71.5 15.167 96.5 45.5s37.5 70.166 37.5 119.499h-154v110zM242.001 -54.999h123v-112l-45 -96h-65l36 85h-49v123z" />
    <glyph glyph-name="gcommaaccent" unicode="&#x123;" horiz-adv-x="501" 
d="M177 702l46 96h65l-36 -85h49v-123h-124v112zM49.5 -148c-22.333 22.667 -33.4971 51.665 -33.4971 86.998c0 46.667 22.333 82.334 67 107.001c-28 17.333 -42 43.666 -42 78.999c0 22 7.16699 40.833 21.5 56.5s32.833 27.5 55.5 35.5
c-42.667 31.333 -64 78.666 -64 141.999c0 55.333 16.833 99 50.5 131s81.5 48 143.5 48c33.333 0 62.666 -5 87.999 -15c18 12.667 31 27.834 39 45.501s12 32.834 12 45.501h99c0 -72 -28.333 -116.667 -85 -134c28 -31.333 42 -71.666 42 -120.999
c0 -55.333 -16.833 -99 -50.5 -131s-81.834 -48 -144.501 -48h-50c-10.667 0 -19.334 -3 -26.001 -9s-10 -13.667 -10 -23c0 -8.66699 3 -16 9 -22s13.333 -9 22 -9h182c34 0 62.5 -12.5 85.5 -37.5s34.5 -58.167 34.5 -99.5c0 -32 -7.5 -60.333 -22.5 -85
s-35.5 -43.667 -61.5 -57s-54.667 -20 -86 -20h-193c-32.667 0 -60.167 11.333 -82.5 34zM304.003 292.498c12.667 15.667 19 37.834 19 66.501s-6.33301 50.834 -19 66.501s-31.334 23.5 -56.001 23.5c-24 0 -42.333 -7.83301 -55 -23.5s-19 -37.834 -19 -66.501
s6.33301 -50.834 19 -66.501s31 -23.5 55 -23.5c24.667 0 43.334 7.83301 56.001 23.5zM320.003 -91.002c15.333 0 28.166 4.49805 38.499 13.498s15.5 20.833 15.5 35.5s-4.66699 26.334 -14 35.001s-21 13 -35 13h-140c-13.333 0 -24.666 -4.66699 -33.999 -14
s-14 -20.666 -14 -33.999c0 -14.667 4.5 -26.5 13.5 -35.5s20.5 -13.5 34.5 -13.5h135z" />
    <glyph glyph-name="Hcircumflex" unicode="&#x124;" horiz-adv-x="592" 
d="M248 883h98l85 -135h-90l-45 69l-45 -69h-89zM60 686h128v-278h216v278h128v-686h-128v294h-216v-294h-128v686z" />
    <glyph glyph-name="hcircumflex" unicode="&#x125;" horiz-adv-x="501" 
d="M64 883h98l85 -135h-90l-44 69l-45 -69h-90zM55 723l120.002 -0.00195312v-253h4c13.333 19.333 30.666 35.5 51.999 48.5s46.333 19.5 75 19.5c43.333 0 77.5 -13.5 102.5 -40.5s37.5 -69.833 37.5 -128.5v-369h-120v336c0 32.667 -5.83301 56.334 -17.5 71.001
s-28.834 22 -51.501 22c-23.333 0 -42.833 -10.167 -58.5 -30.5s-23.5 -45.166 -23.5 -74.499v-324h-120v723z" />
    <glyph glyph-name="Hbar" unicode="&#x126;" horiz-adv-x="592" 
d="M60 490h-50v87h50v109h128v-109h216v109h128v-109h50v-87h-50v-490h-128v287h-216v-287h-128v490zM404 401v89h-216v-89h216z" />
    <glyph glyph-name="hbar" unicode="&#x127;" horiz-adv-x="501" 
d="M55 583l-54.998 -0.00195312v87h55v53h120v-53h131v-87h-131v-113h4c13.333 19.333 30.666 35.5 51.999 48.5s46.333 19.5 75 19.5c43.333 0 77.5 -13.5 102.5 -40.5s37.5 -69.833 37.5 -128.5v-369h-120v336c0 32.667 -5.83301 56.334 -17.5 71.001
s-28.834 22 -51.501 22c-23.333 0 -42.833 -10.167 -58.5 -30.5s-23.5 -45.166 -23.5 -74.499v-324h-120v583z" />
    <glyph glyph-name="Itilde" unicode="&#x128;" horiz-adv-x="228" 
d="M-29 846c16.667 24.667 41 37 73 37c11.333 0 21.666 -1.5 30.999 -4.5s22.333 -7.83301 39 -14.5c14.667 -6 26.5 -10.5 35.5 -13.5s18.5 -4.5 28.5 -4.5c11.333 0 20 2.83301 26 8.5s10 15.167 12 28.5h67c0 -31.333 -8.5 -59.5 -25.5 -84.5s-41.5 -37.5 -73.5 -37.5
c-10.667 0 -20.5 1.5 -29.5 4.5s-21.833 7.83301 -38.5 14.5c-14 6 -25.667 10.5 -35 13.5s-19 4.5 -29 4.5c-11.333 0 -20.166 -2.83301 -26.499 -8.5s-10.5 -15.167 -12.5 -28.5h-67c0 32 8.33301 60.333 25 85zM50 686h128v-686h-128v686z" />
    <glyph glyph-name="itilde" unicode="&#x129;" horiz-adv-x="228" 
d="M-29 686c16.667 24.667 41 37 73 37c11.333 0 21.666 -1.5 30.999 -4.5s22.333 -7.83301 39 -14.5c14.667 -6 26.5 -10.5 35.5 -13.5s18.5 -4.5 28.5 -4.5c11.333 0 20 2.83301 26 8.5s10 15.167 12 28.5h67c0 -31.333 -8.5 -59.5 -25.5 -84.5s-41.5 -37.5 -73.5 -37.5
c-10.667 0 -20.5 1.5 -29.5 4.5s-21.833 7.83301 -38.5 14.5c-14 6 -25.667 10.5 -35 13.5s-19 4.5 -29 4.5c-11.333 0 -20.166 -2.83301 -26.499 -8.5s-10.5 -15.167 -12.5 -28.5h-67c0 32 8.33301 60.333 25 85zM54 526h120v-526h-120v526z" />
    <glyph glyph-name="Imacron" unicode="&#x12a;" horiz-adv-x="228" 
d="M-14 846h256v-87h-256v87zM50 686h128v-686h-128v686z" />
    <glyph glyph-name="imacron" unicode="&#x12b;" horiz-adv-x="228" 
d="M-14 686h256v-87h-256v87zM54 526h120v-526h-120v526z" />
    <glyph glyph-name="Ibreve" unicode="&#x12c;" horiz-adv-x="228" 
d="M44.5 792c-20.333 10.667 -36.166 24.167 -47.499 40.5s-17 33.166 -17 50.499h75c2 -8 8.5 -15.5 19.5 -22.5s24.167 -10.5 39.5 -10.5c16 0 29.667 3.5 41 10.5s17.666 14.5 18.999 22.5h74c0 -17.333 -5.5 -34.166 -16.5 -50.499s-26.667 -29.833 -47 -40.5
s-43.833 -16 -70.5 -16c-26 0 -49.167 5.33301 -69.5 16zM50 686h128v-686h-128v686z" />
    <glyph glyph-name="ibreve" unicode="&#x12d;" horiz-adv-x="228" 
d="M44.5 632c-20.333 10.667 -36.166 24.167 -47.499 40.5s-17 33.166 -17 50.499h75c2 -8 8.5 -15.5 19.5 -22.5s24.167 -10.5 39.5 -10.5c16 0 29.667 3.5 41 10.5s17.666 14.5 18.999 22.5h74c0 -17.333 -5.5 -34.166 -16.5 -50.499s-26.667 -29.833 -47 -40.5
s-43.833 -16 -70.5 -16c-26 0 -49.167 5.33301 -69.5 16zM54 526h120v-526h-120v526z" />
    <glyph glyph-name="Iogonek" unicode="&#x12e;" horiz-adv-x="228" 
d="M215 -121l0.00195312 -54.9971c-24 -9.33301 -46 -14 -66 -14c-26.667 0 -49.834 7.16699 -69.501 21.5s-29.5 37.166 -29.5 68.499c0 21.333 3.66699 39.666 11 54.999s18 30.333 32 45h-43v686h128v-686c-20 -26 -30 -49.333 -30 -70
c0 -14.667 3.66699 -26.834 11 -36.501s18.666 -14.5 33.999 -14.5h22z" />
    <glyph glyph-name="iogonek" unicode="&#x12f;" horiz-adv-x="228" 
d="M168 608h-107v115h107v-115zM211 -121l0.000976562 -54.9971c-24 -9.33301 -46 -14 -66 -14c-27.333 0 -50.666 7.16699 -69.999 21.5s-29 37.166 -29 68.499c0 21.333 3.66699 39.666 11 54.999s18 30.333 32 45h-35v526h120v-526
c-6.66699 -7.33301 -13.334 -17.5 -20.001 -30.5s-10 -26.167 -10 -39.5c0 -14.667 3.66699 -26.834 11 -36.501s18.666 -14.5 33.999 -14.5h22z" />
    <glyph glyph-name="Idotaccent" unicode="&#x130;" horiz-adv-x="228" 
d="M61 883h107v-115h-107v115zM50 686h128v-686h-128v686z" />
    <glyph glyph-name="dotlessi" unicode="&#x131;" horiz-adv-x="228" 
d="M54 526h120v-526h-120v526z" />
    <glyph glyph-name="IJ" unicode="&#x132;" horiz-adv-x="684" 
d="M50 686h128v-686h-128v686zM287.5 33c-33.667 30 -50.5 73.333 -50.5 130v53h127v-43c0 -24 5.66699 -42.5 17 -55.5s28 -19.5 50 -19.5c21.333 0 37.5 6.5 48.5 19.5s16.5 31.5 16.5 55.5v513h128v-523c0 -56.667 -16.667 -100 -50 -130s-81 -45 -143 -45
s-109.833 15 -143.5 45z" />
    <glyph glyph-name="ij" unicode="&#x133;" 
d="M54 723h120v-109h-120v109zM282 723h120v-109h-120v109zM54 526h120v-526h-120v526zM233.5 -178.5c-17 2.33301 -31.167 5.16797 -42.5 8.50098v89h44c31.333 0 47 16 47 48v559h120v-567c0 -40.667 -9.33301 -74.334 -28 -101.001s-50 -40 -94 -40
c-14 0 -29.5 1.16699 -46.5 3.5z" />
    <glyph glyph-name="Jcircumflex" unicode="&#x134;" 
d="M296 883h99l84 -135h-89l-45 69l-45 -69h-90zM59.5 33c-33.667 30 -50.5 73.333 -50.5 130v53h127v-43c0 -24 5.66699 -42.5 17 -55.5s28 -19.5 50 -19.5c21.333 0 37.5 6.5 48.5 19.5s16.5 31.5 16.5 55.5v513h128v-523c0 -56.667 -16.667 -100 -50 -130
s-81 -45 -143 -45s-109.833 15 -143.5 45z" />
    <glyph glyph-name="jcircumflex" unicode="&#x135;" horiz-adv-x="228" 
d="M67 723h99l84 -135h-89l-45 69l-45 -69h-90zM5.5 -178.5c-17 2.33301 -31.167 5.16797 -42.5 8.50098v89h44c31.333 0 47 16 47 48v559h120v-567c0 -40.667 -9.33301 -74.334 -28 -101.001s-50 -40 -94 -40c-14 0 -29.5 1.16699 -46.5 3.5z" />
    <glyph glyph-name="Kcommaaccent" unicode="&#x136;" horiz-adv-x="592" 
d="M60 686h129v-351l251 351h143l-203 -279l209 -407h-144l-149 306l-107 -131v-175h-129v686zM283 -178h-49v123h124v-112l-46 -96h-64z" />
    <glyph glyph-name="kcommaaccent" unicode="&#x137;" 
d="M54 723h120v-406l147 209h128l-156 -214l164 -312h-133l-106 218l-44 -54v-164h-120v723zM215 -178h-48v123h123v-112l-45 -96h-65z" />
    <glyph glyph-name="kgreenlandic" unicode="&#x138;" horiz-adv-x="457" 
d="M54 526h120v-209l147 209h128l-156 -214l164 -312h-133l-106 218l-44 -54v-164h-120v526z" />
    <glyph glyph-name="Lacute" unicode="&#x139;" horiz-adv-x="501" 
d="M144 883h120l1 -3l-108 -129h-99zM60 686h128v-566h290v-120h-418v686z" />
    <glyph glyph-name="lacute" unicode="&#x13a;" horiz-adv-x="228" 
d="M131 883h120l1 -3l-107 -129h-100zM54 723h120v-723h-120v723z" />
    <glyph glyph-name="Lcommaaccent" unicode="&#x13b;" horiz-adv-x="501" 
d="M60 686h128v-566h290v-120h-418v686zM238 -178h-49v123h123v-112l-45 -96h-65z" />
    <glyph glyph-name="lcommaaccent" unicode="&#x13c;" horiz-adv-x="228" 
d="M54 723h120v-723h-120v723zM102 -178h-49v123h123v-112l-45 -96h-65z" />
    <glyph glyph-name="Lcaron" unicode="&#x13d;" horiz-adv-x="501" 
d="M60 686h128v-566h290v-120h-418v686zM395 549h-55v137h138v-125l-66 -168h-72z" />
    <glyph glyph-name="lcaron" unicode="&#x13e;" horiz-adv-x="316" 
d="M54 723h120v-723h-120v723zM281 549h-55v137h138v-125l-66 -168h-72z" />
    <glyph glyph-name="Ldot" unicode="&#x13f;" horiz-adv-x="501" 
d="M60 686h128v-566h290v-120h-418v686zM313 524h107v-115h-107v115z" />
    <glyph glyph-name="ldot" unicode="&#x140;" horiz-adv-x="334" 
d="M54 723h120v-723h-120v723zM213 409h121v-131h-121v131z" />
    <glyph glyph-name="Lslash" unicode="&#x141;" horiz-adv-x="501" 
d="M60 237l-60 -53v95l60 53v354h128v-240l116 104v-97l-116 -103v-230h290v-120h-418v237z" />
    <glyph glyph-name="lslash" unicode="&#x142;" horiz-adv-x="228" 
d="M54 231l-68 -60v96l68 60v396h120v-289l79 71v-97l-79 -70v-338h-120v231z" />
    <glyph glyph-name="Nacute" unicode="&#x143;" horiz-adv-x="592" 
d="M313 883h120l1 -3l-108 -129h-99zM60 686l113 -0.000976562l212 -378c4.66699 -7.33301 10.5 -18.5 17.5 -33.5s11.5 -25.167 13.5 -30.5l3 3l-1 57v382h114v-686h-114l-212 378l-17.5 36l-13.5 28l-4 -3c0 -4 0.333008 -11.667 1 -23s1 -22.666 1 -33.999v-382h-113v686
z" />
    <glyph glyph-name="nacute" unicode="&#x144;" horiz-adv-x="501" 
d="M268 723h120l1 -3l-108 -129h-99zM55 526l100.001 -0.00195312l12 -65h6c15.333 22.667 34 41.167 56 55.5s47.667 21.5 77 21.5c43.333 0 77.5 -13.5 102.5 -40.5s37.5 -69.833 37.5 -128.5v-369h-120v336c0 32.667 -5.83301 56.334 -17.5 71.001s-28.834 22 -51.501 22
c-23.333 0 -42.833 -10.167 -58.5 -30.5s-23.5 -45.166 -23.5 -74.499v-324h-120v526z" />
    <glyph glyph-name="Ncommaaccent" unicode="&#x145;" horiz-adv-x="592" 
d="M60 686l113 -0.000976562l212 -378c4.66699 -7.33301 10.5 -18.5 17.5 -33.5s11.5 -25.167 13.5 -30.5l3 3l-1 57v382h114v-686h-114l-212 378l-17.5 36l-13.5 28l-4 -3c0 -4 0.333008 -11.667 1 -23s1 -22.666 1 -33.999v-382h-113v686zM283 -178.001h-49v123h124v-112
l-46 -96h-64z" />
    <glyph glyph-name="ncommaaccent" unicode="&#x146;" horiz-adv-x="501" 
d="M55 526l100.001 -0.00195312l12 -65h6c15.333 22.667 34 41.167 56 55.5s47.667 21.5 77 21.5c43.333 0 77.5 -13.5 102.5 -40.5s37.5 -69.833 37.5 -128.5v-369h-120v336c0 32.667 -5.83301 56.334 -17.5 71.001s-28.834 22 -51.501 22
c-23.333 0 -42.833 -10.167 -58.5 -30.5s-23.5 -45.166 -23.5 -74.499v-324h-120v526zM238.001 -178.002h-49v123h123v-112l-45 -96h-65z" />
    <glyph glyph-name="Ncaron" unicode="&#x147;" horiz-adv-x="592" 
d="M162 883h89l45 -69l45 69h90l-85 -135h-98zM60 686l113 -0.000976562l212 -378c4.66699 -7.33301 10.5 -18.5 17.5 -33.5s11.5 -25.167 13.5 -30.5l3 3l-1 57v382h114v-686h-114l-212 378l-17.5 36l-13.5 28l-4 -3c0 -4 0.333008 -11.667 1 -23s1 -22.666 1 -33.999v-382
h-113v686z" />
    <glyph glyph-name="ncaron" unicode="&#x148;" horiz-adv-x="501" 
d="M116 723h90l45 -69l44 69h90l-85 -135h-98zM55 526l100.001 -0.00195312l12 -65h6c15.333 22.667 34 41.167 56 55.5s47.667 21.5 77 21.5c43.333 0 77.5 -13.5 102.5 -40.5s37.5 -69.833 37.5 -128.5v-369h-120v336c0 32.667 -5.83301 56.334 -17.5 71.001
s-28.834 22 -51.501 22c-23.333 0 -42.833 -10.167 -58.5 -30.5s-23.5 -45.166 -23.5 -74.499v-324h-120v526z" />
    <glyph glyph-name="napostrophe" unicode="&#x149;" horiz-adv-x="676" 
d="M116 563h-49v123h124v-112l-45 -95h-65zM230 526l100.001 -0.00195312l12 -65h6c15.333 22.667 34 41.167 56 55.5s47.667 21.5 77 21.5c43.333 0 77.5 -13.5 102.5 -40.5s37.5 -69.833 37.5 -128.5v-369h-120v336c0 32.667 -5.83301 56.334 -17.5 71.001
s-28.834 22 -51.501 22c-23.333 0 -42.833 -10.167 -58.5 -30.5s-23.5 -45.166 -23.5 -74.499v-324h-120v526z" />
    <glyph glyph-name="Eng" unicode="&#x14a;" horiz-adv-x="593" 
d="M364.5 -178.5c-16.333 2.33301 -30.167 5.16699 -41.5 8.5v89h45c31.333 0 47 16 47 48v33l-209 378l-17.5 36l-13.5 28l-4 -3c0 -4 0.333008 -11.667 1 -23s1 -22.666 1 -33.999v-382h-113v686h113l212 -378c4.66699 -7.33301 10.5 -18.5 17.5 -33.5
s11.5 -25.167 13.5 -30.5l3 3l-1 57v382h114v-727c0 -40.667 -9.33301 -74.334 -28 -101.001s-50 -40 -94 -40c-14 0 -29.167 1.16699 -45.5 3.5z" />
    <glyph glyph-name="eng" unicode="&#x14b;" horiz-adv-x="501" 
d="M277.5 -178.5c-17 2.33301 -31.166 5.16602 -42.499 8.49902v89h44c31.333 0 47 16 47 48v369c0 32.667 -5.83301 56.334 -17.5 71.001s-28.834 22 -51.501 22c-23.333 0 -42.833 -10.167 -58.5 -30.5s-23.5 -45.166 -23.5 -74.499v-324h-120v526h100l12 -65h6
c15.333 22.667 34 41.167 56 55.5s47.667 21.5 77 21.5c43.333 0 77.5 -13.5 102.5 -40.5s37.5 -69.833 37.5 -128.5v-410c0 -40.667 -9.33301 -74.334 -28 -101.001s-50 -40 -94 -40c-14 0 -29.5 1.16699 -46.5 3.5z" />
    <glyph glyph-name="Omacron" unicode="&#x14c;" horiz-adv-x="638" 
d="M192 846h255v-87h-255v87zM108.5 76.5c-49.667 59 -74.5 147.833 -74.5 266.5s24.833 207.5 74.5 266.5s119.834 88.5 210.501 88.5s160.834 -29.5 210.501 -88.5s74.5 -147.833 74.5 -266.5s-24.833 -207.5 -74.5 -266.5s-119.834 -88.5 -210.501 -88.5
s-160.834 29.5 -210.501 88.5zM433 155.5c26 38.333 39 92.5 39 162.5v50c0 70 -13 124.167 -39 162.5s-64 57.5 -114 57.5s-88 -19.167 -114 -57.5s-39 -92.5 -39 -162.5v-50c0 -70 13 -124.167 39 -162.5s64 -57.5 114 -57.5s88 19.167 114 57.5z" />
    <glyph glyph-name="omacron" unicode="&#x14d;" horiz-adv-x="501" 
d="M123 686h255v-87h-255v87zM93 55c-34.667 44.667 -52 114 -52 208s17.333 163.333 52 208s87.334 67 158.001 67s123.334 -22.333 158.001 -67s52 -114 52 -208s-17.333 -163.333 -52 -208s-87.334 -67 -158.001 -67s-123.334 22.333 -158.001 67zM316 127.5
c13.333 25.667 20 64.5 20 116.5v38c0 52 -6.66699 90.833 -20 116.5s-35 38.5 -65 38.5s-51.667 -12.833 -65 -38.5s-20 -64.5 -20 -116.5v-38c0 -52 6.66699 -90.833 20 -116.5s35 -38.5 65 -38.5s51.667 12.833 65 38.5z" />
    <glyph glyph-name="Obreve" unicode="&#x14e;" horiz-adv-x="638" 
d="M249.5 792c-20.333 10.667 -35.999 24.167 -46.999 40.5s-16.5 33.166 -16.5 50.499h74c2 -8 8.5 -15.5 19.5 -22.5s24.167 -10.5 39.5 -10.5c16 0 29.667 3.5 41 10.5s17.666 14.5 18.999 22.5h74c0 -17.333 -5.5 -34.166 -16.5 -50.499s-26.667 -29.833 -47 -40.5
s-43.833 -16 -70.5 -16c-26 0 -49.167 5.33301 -69.5 16zM108.501 76.5c-49.667 59 -74.5 147.833 -74.5 266.5s24.833 207.5 74.5 266.5s119.834 88.5 210.501 88.5s160.834 -29.5 210.501 -88.5s74.5 -147.833 74.5 -266.5s-24.833 -207.5 -74.5 -266.5
s-119.834 -88.5 -210.501 -88.5s-160.834 29.5 -210.501 88.5zM433.001 155.5c26 38.333 39 92.5 39 162.5v50c0 70 -13 124.167 -39 162.5s-64 57.5 -114 57.5s-88 -19.167 -114 -57.5s-39 -92.5 -39 -162.5v-50c0 -70 13 -124.167 39 -162.5s64 -57.5 114 -57.5
s88 19.167 114 57.5z" />
    <glyph glyph-name="obreve" unicode="&#x14f;" horiz-adv-x="501" 
d="M180.5 632c-20.333 10.667 -35.999 24.167 -46.999 40.5s-16.5 33.166 -16.5 50.499h74c2 -8 8.5 -15.5 19.5 -22.5s24.167 -10.5 39.5 -10.5c16 0 29.667 3.5 41 10.5s17.666 14.5 18.999 22.5h74c0 -17.333 -5.5 -34.166 -16.5 -50.499s-26.667 -29.833 -47 -40.5
s-43.833 -16 -70.5 -16c-26 0 -49.167 5.33301 -69.5 16zM93.001 55c-34.667 44.667 -52 114 -52 208s17.333 163.333 52 208s87.334 67 158.001 67s123.334 -22.333 158.001 -67s52 -114 52 -208s-17.333 -163.333 -52 -208s-87.334 -67 -158.001 -67
s-123.334 22.333 -158.001 67zM316.001 127.5c13.333 25.667 20 64.5 20 116.5v38c0 52 -6.66699 90.833 -20 116.5s-35 38.5 -65 38.5s-51.667 -12.833 -65 -38.5s-20 -64.5 -20 -116.5v-38c0 -52 6.66699 -90.833 20 -116.5s35 -38.5 65 -38.5s51.667 12.833 65 38.5z" />
    <glyph glyph-name="Ohungarumlaut" unicode="&#x150;" horiz-adv-x="638" 
d="M269 883h100l1 -3l-84 -129h-79zM409 883h100l1 -3l-84 -129h-79zM108.5 76.5c-49.667 59 -74.5 147.833 -74.5 266.5s24.833 207.5 74.5 266.5s119.834 88.5 210.501 88.5s160.834 -29.5 210.501 -88.5s74.5 -147.833 74.5 -266.5s-24.833 -207.5 -74.5 -266.5
s-119.834 -88.5 -210.501 -88.5s-160.834 29.5 -210.501 88.5zM433 155.5c26 38.333 39 92.5 39 162.5v50c0 70 -13 124.167 -39 162.5s-64 57.5 -114 57.5s-88 -19.167 -114 -57.5s-39 -92.5 -39 -162.5v-50c0 -70 13 -124.167 39 -162.5s64 -57.5 114 -57.5
s88 19.167 114 57.5z" />
    <glyph glyph-name="ohungarumlaut" unicode="&#x151;" horiz-adv-x="501" 
d="M200 723h100l1 -3l-84 -129h-79zM340 723h100l1 -3l-84 -129h-79zM93 55c-34.667 44.667 -52 114 -52 208s17.333 163.333 52 208s87.334 67 158.001 67s123.334 -22.333 158.001 -67s52 -114 52 -208s-17.333 -163.333 -52 -208s-87.334 -67 -158.001 -67
s-123.334 22.333 -158.001 67zM316 127.5c13.333 25.667 20 64.5 20 116.5v38c0 52 -6.66699 90.833 -20 116.5s-35 38.5 -65 38.5s-51.667 -12.833 -65 -38.5s-20 -64.5 -20 -116.5v-38c0 -52 6.66699 -90.833 20 -116.5s35 -38.5 65 -38.5s51.667 12.833 65 38.5z" />
    <glyph glyph-name="OE" unicode="&#x152;" horiz-adv-x="820" 
d="M90 77c-40 59.333 -60 148 -60 266s20 206.667 60 266s96 89 168 89c62.667 0 112.667 -24.667 150 -74v62h377v-114h-249v-164h206v-114h-206v-180h256v-114h-384v61c-36.667 -48.667 -86.667 -73 -150 -73c-72 0 -128 29.667 -168 89zM377 150
c20 34.667 30 90.667 30 168v50c0 77.333 -10 133.333 -30 168s-51 52 -93 52c-41.333 0 -72 -17.333 -92 -52s-30 -90.667 -30 -168v-50c0 -77.333 10 -133.333 30 -168s50.667 -52 92 -52c42 0 73 17.333 93 52z" />
    <glyph glyph-name="oe" unicode="&#x153;" horiz-adv-x="774" 
d="M93 55c-34.667 44.667 -52 113.998 -52 207.998s17.333 163.333 52 208s87.334 67 158.001 67c64.667 0 113.667 -22 147 -66c33.333 44 80.333 66 141 66c64 0 111.667 -22.333 143 -67s47 -114 47 -208v-30h-267c0.666992 -49.333 7.16699 -86.166 19.5 -110.499
s32.833 -36.5 61.5 -36.5c20.667 0 37 8.83301 49 26.5s18 42.167 18 73.5h119c0 -65.333 -17 -114.666 -51 -147.999s-79 -50 -135 -50c-62.667 0 -110.667 21.667 -144 65c-34.667 -43.333 -84 -65 -148 -65c-70.667 0 -123.334 22.333 -158.001 67zM603 319.998
c0 80 -21.333 119.999 -64 119.999c-24.667 0 -43 -10.167 -55 -30.5s-19 -50.166 -21 -89.499h140zM316 127.497c13.333 25.667 20 64.5 20 116.5v38c0 52 -6.66699 90.833 -20 116.5s-35 38.5 -65 38.5s-51.667 -12.833 -65 -38.5s-20 -64.5 -20 -116.5v-38
c0 -52 6.66699 -90.833 20 -116.5s35 -38.5 65 -38.5s51.667 12.833 65 38.5z" />
    <glyph glyph-name="Racute" unicode="&#x154;" horiz-adv-x="592" 
d="M313 883h120l1 -3l-108 -129h-99zM60 686l287.001 0.000976562c67.333 0 119.166 -18 155.499 -54s54.5 -83.333 54.5 -142c0 -41.333 -10.167 -77.333 -30.5 -108s-48.5 -53.334 -84.5 -68.001l132 -314h-139l-114 286h-133v-286h-128v686zM329.001 399.001
c30 0 52.5 7.83301 67.5 23.5s22.5 38.167 22.5 67.5c0 26 -7 46.167 -21 60.5s-35.333 21.5 -64 21.5h-146v-173h141z" />
    <glyph glyph-name="racute" unicode="&#x155;" horiz-adv-x="319" 
d="M128 723h121l1 -3l-108 -129h-100zM55 526h100l14 -77h6c8.66699 26.667 20 48.167 34 64.5s33 24.5 57 24.5c12.667 0 23.667 -1.16699 33 -3.5s15 -3.83301 17 -4.5v-116h-43c-29.333 0 -53 -9.33301 -71 -28s-27 -49.667 -27 -93v-293h-120v526z" />
    <glyph glyph-name="Rcommaaccent" unicode="&#x156;" horiz-adv-x="592" 
d="M60 686l287.001 0.000976562c67.333 0 119.166 -18 155.499 -54s54.5 -83.333 54.5 -142c0 -41.333 -10.167 -77.333 -30.5 -108s-48.5 -53.334 -84.5 -68.001l132 -314h-139l-114 286h-133v-286h-128v686zM329.001 399.001c30 0 52.5 7.83301 67.5 23.5
s22.5 38.167 22.5 67.5c0 26 -7 46.167 -21 60.5s-35.333 21.5 -64 21.5h-146v-173h141zM283.001 -177.999h-49v123h124v-112l-46 -96h-64z" />
    <glyph glyph-name="rcommaaccent" unicode="&#x157;" horiz-adv-x="319" 
d="M55 526h100l14 -77h6c8.66699 26.667 20 48.167 34 64.5s33 24.5 57 24.5c12.667 0 23.667 -1.16699 33 -3.5s15 -3.83301 17 -4.5v-116h-43c-29.333 0 -53 -9.33301 -71 -28s-27 -49.667 -27 -93v-293h-120v526zM108 -178h-49v123h124v-112l-46 -96h-65z" />
    <glyph glyph-name="Rcaron" unicode="&#x158;" horiz-adv-x="592" 
d="M162 883h89l45 -69l45 69h90l-85 -135h-98zM60 686l287.001 0.000976562c67.333 0 119.166 -18 155.499 -54s54.5 -83.333 54.5 -142c0 -41.333 -10.167 -77.333 -30.5 -108s-48.5 -53.334 -84.5 -68.001l132 -314h-139l-114 286h-133v-286h-128v686zM329.001 399.001
c30 0 52.5 7.83301 67.5 23.5s22.5 38.167 22.5 67.5c0 26 -7 46.167 -21 60.5s-35.333 21.5 -64 21.5h-146v-173h141z" />
    <glyph glyph-name="rcaron" unicode="&#x159;" horiz-adv-x="319" 
d="M-23 723h90l45 -69l44 69h90l-85 -135h-98zM55 526h100l14 -77h6c8.66699 26.667 20 48.167 34 64.5s33 24.5 57 24.5c12.667 0 23.667 -1.16699 33 -3.5s15 -3.83301 17 -4.5v-116h-43c-29.333 0 -53 -9.33301 -71 -28s-27 -49.667 -27 -93v-293h-120v526z" />
    <glyph glyph-name="Sacute" unicode="&#x15a;" horiz-adv-x="547" 
d="M291 883h120l1 -3l-108 -129h-99zM148 12.5c-36 16.333 -64.667 40.501 -86 72.501s-32 70.667 -32 116l1 22h133l-1 -16c0 -33.333 9.66699 -59.833 29 -79.5s46.333 -29.5 81 -29.5c35.333 0 61.5 7.83301 78.5 23.5s25.5 34.834 25.5 57.501s-6 41.167 -18 55.5
s-26.833 25.5 -44.5 33.5s-42.5 17.333 -74.5 28c-42 13.333 -76 26.666 -102 39.999s-48.167 33.666 -66.5 60.999s-27.5 63.666 -27.5 108.999c0 41.333 10.333 76.5 31 105.5s48.334 50.667 83.001 65s73 21.5 115 21.5c65.333 0 118.833 -16.833 160.5 -50.5
s62.5 -84.167 62.5 -151.5v-12h-131v9c0 29.333 -8.33301 52.5 -25 69.5s-39.334 25.5 -68.001 25.5c-30 0 -53.5 -6.83301 -70.5 -20.5s-25.5 -31.167 -25.5 -52.5c0 -18.667 5.66699 -34 17 -46s25.5 -21.667 42.5 -29s40.5 -15.666 70.5 -24.999
c43.333 -14 78.333 -27.5 105 -40.5s49.667 -33.167 69 -60.5s29 -63.333 29 -108c0 -75.333 -21.5 -130.5 -64.5 -165.5s-102.167 -52.5 -177.5 -52.5c-43.333 0 -83 8.16699 -119 24.5z" />
    <glyph glyph-name="sacute" unicode="&#x15b;" 
d="M245 723h120l1 -3l-108 -129h-99zM83.5 33.5c-33.667 30.333 -50.5 70.8369 -50.5 121.504l1 12h122v-7c0.666992 -26 8 -44.833 22 -56.5s30.667 -17.5 50 -17.5c18.667 0 35 4.5 49 13.5s21 23.5 21 43.5c0 21.333 -8 36.833 -24 46.5s-41.333 19.167 -76 28.5
c-33.333 9.33301 -60.333 18.666 -81 27.999s-38.5 24.666 -53.5 45.999s-22.5 50 -22.5 86c0 51.333 17.5 90.833 52.5 118.5s80.167 41.5 135.5 41.5c51.333 0 93.833 -12.833 127.5 -38.5s50.5 -60.5 50.5 -104.5l-1 -23h-122v1c0 22.667 -5.16699 39.5 -15.5 50.5
s-24.833 16.5 -43.5 16.5s-33.667 -4.66699 -45 -14s-17 -22 -17 -38c0 -18.667 7.66699 -32.167 23 -40.5s39.333 -16.833 72 -25.5c34 -8.66699 61.667 -17.834 83 -27.501s39.833 -25.334 55.5 -47.001s23.5 -51.5 23.5 -89.5c0 -113.333 -65.333 -170 -196 -170
c-60 0 -106.833 15.167 -140.5 45.5z" />
    <glyph glyph-name="Scircumflex" unicode="&#x15c;" horiz-adv-x="547" 
d="M225 883h98l85 -135h-90l-44 69l-45 -69h-90zM148 12.5c-36 16.333 -64.667 40.501 -86 72.501s-32 70.667 -32 116l1 22h133l-1 -16c0 -33.333 9.66699 -59.833 29 -79.5s46.333 -29.5 81 -29.5c35.333 0 61.5 7.83301 78.5 23.5s25.5 34.834 25.5 57.501
s-6 41.167 -18 55.5s-26.833 25.5 -44.5 33.5s-42.5 17.333 -74.5 28c-42 13.333 -76 26.666 -102 39.999s-48.167 33.666 -66.5 60.999s-27.5 63.666 -27.5 108.999c0 41.333 10.333 76.5 31 105.5s48.334 50.667 83.001 65s73 21.5 115 21.5
c65.333 0 118.833 -16.833 160.5 -50.5s62.5 -84.167 62.5 -151.5v-12h-131v9c0 29.333 -8.33301 52.5 -25 69.5s-39.334 25.5 -68.001 25.5c-30 0 -53.5 -6.83301 -70.5 -20.5s-25.5 -31.167 -25.5 -52.5c0 -18.667 5.66699 -34 17 -46s25.5 -21.667 42.5 -29
s40.5 -15.666 70.5 -24.999c43.333 -14 78.333 -27.5 105 -40.5s49.667 -33.167 69 -60.5s29 -63.333 29 -108c0 -75.333 -21.5 -130.5 -64.5 -165.5s-102.167 -52.5 -177.5 -52.5c-43.333 0 -83 8.16699 -119 24.5z" />
    <glyph glyph-name="scircumflex" unicode="&#x15d;" 
d="M180 723h98l85 -135h-90l-44 69l-45 -69h-90zM83.5 33.5c-33.667 30.333 -50.5 70.8369 -50.5 121.504l1 12h122v-7c0.666992 -26 8 -44.833 22 -56.5s30.667 -17.5 50 -17.5c18.667 0 35 4.5 49 13.5s21 23.5 21 43.5c0 21.333 -8 36.833 -24 46.5
s-41.333 19.167 -76 28.5c-33.333 9.33301 -60.333 18.666 -81 27.999s-38.5 24.666 -53.5 45.999s-22.5 50 -22.5 86c0 51.333 17.5 90.833 52.5 118.5s80.167 41.5 135.5 41.5c51.333 0 93.833 -12.833 127.5 -38.5s50.5 -60.5 50.5 -104.5l-1 -23h-122v1
c0 22.667 -5.16699 39.5 -15.5 50.5s-24.833 16.5 -43.5 16.5s-33.667 -4.66699 -45 -14s-17 -22 -17 -38c0 -18.667 7.66699 -32.167 23 -40.5s39.333 -16.833 72 -25.5c34 -8.66699 61.667 -17.834 83 -27.501s39.833 -25.334 55.5 -47.001s23.5 -51.5 23.5 -89.5
c0 -113.333 -65.333 -170 -196 -170c-60 0 -106.833 15.167 -140.5 45.5z" />
    <glyph glyph-name="Scedilla" unicode="&#x15e;" horiz-adv-x="547" 
d="M177 -174v48.998h71c12 0 21 1.83301 27 5.5s9 9.83398 9 18.501c0 8 -2.5 14 -7.5 18s-13.833 6 -26.5 6h-33l8 68c-56.667 6.66699 -103.334 28.167 -140.001 64.5s-55 84.833 -55 145.5l1 22h133l-1 -16c0 -33.333 9.66699 -59.833 29 -79.5s46.333 -29.5 81 -29.5
c35.333 0 61.5 7.83301 78.5 23.5s25.5 34.834 25.5 57.501s-6 41.167 -18 55.5s-26.833 25.5 -44.5 33.5s-42.5 17.333 -74.5 28c-42 13.333 -76 26.666 -102 39.999s-48.167 33.666 -66.5 60.999s-27.5 63.666 -27.5 108.999c0 41.333 10.333 76.5 31 105.5
s48.334 50.667 83.001 65s73 21.5 115 21.5c65.333 0 118.833 -16.833 160.5 -50.5s62.5 -84.167 62.5 -151.5v-12h-131v9c0 29.333 -8.33301 52.5 -25 69.5s-39.334 25.5 -68.001 25.5c-30 0 -53.5 -6.83301 -70.5 -20.5s-25.5 -31.167 -25.5 -52.5
c0 -18.667 5.66699 -34 17 -46s25.5 -21.667 42.5 -29s40.5 -15.666 70.5 -24.999c43.333 -14 78.333 -27.5 105 -40.5s49.667 -33.167 69 -60.5s29 -63.333 29 -108c0 -70.667 -19.167 -123.5 -57.5 -158.5s-91.166 -54.5 -158.499 -58.5l-2 -22
c23.333 -1.33301 42.333 -7.66602 57 -18.999s22 -27.666 22 -48.999c0 -30 -11.167 -51 -33.5 -63s-47.5 -18 -75.5 -18c-30.667 0 -58.667 2.66699 -84 8z" />
    <glyph glyph-name="scedilla" unicode="&#x15f;" 
d="M132 -174l0.000976562 49.001h71c12 0 21 1.83301 27 5.5s9 9.83398 9 18.501c0 8 -2.66699 14 -8 18s-14 6 -26 6h-33l8 68c-46.667 6.66699 -82.834 24.5 -108.501 53.5s-38.5 65.833 -38.5 110.5l1 12h122v-7c0.666992 -26 8 -44.833 22 -56.5s30.667 -17.5 50 -17.5
c18.667 0 35 4.5 49 13.5s21 23.5 21 43.5c0 21.333 -8 36.833 -24 46.5s-41.333 19.167 -76 28.5c-33.333 9.33301 -60.333 18.666 -81 27.999s-38.5 24.666 -53.5 45.999s-22.5 50 -22.5 86c0 51.333 17.5 90.833 52.5 118.5s80.167 41.5 135.5 41.5
c51.333 0 93.833 -12.833 127.5 -38.5s50.5 -60.5 50.5 -104.5l-1 -23h-122v1c0 22.667 -5.16699 39.5 -15.5 50.5s-24.833 16.5 -43.5 16.5s-33.667 -4.66699 -45 -14s-17 -22 -17 -38c0 -18.667 7.66699 -32.167 23 -40.5s39.333 -16.833 72 -25.5
c34 -8.66699 61.667 -17.834 83 -27.501s39.833 -25.334 55.5 -47.001s23.5 -51.5 23.5 -89.5c0 -106 -57.333 -162.333 -172 -169l-2 -22c23.333 -1.33301 42.333 -7.66602 57 -18.999s22 -27.666 22 -48.999c0 -30 -11.167 -51 -33.5 -63s-47.5 -18 -75.5 -18
c-30.667 0 -58.667 2.66699 -84 8z" />
    <glyph glyph-name="Scaron" unicode="&#x160;" horiz-adv-x="547" 
d="M139 883h90l45 -69l44 69h90l-85 -135h-98zM148 12.5c-36 16.333 -64.667 40.501 -86 72.501s-32 70.667 -32 116l1 22h133l-1 -16c0 -33.333 9.66699 -59.833 29 -79.5s46.333 -29.5 81 -29.5c35.333 0 61.5 7.83301 78.5 23.5s25.5 34.834 25.5 57.501
s-6 41.167 -18 55.5s-26.833 25.5 -44.5 33.5s-42.5 17.333 -74.5 28c-42 13.333 -76 26.666 -102 39.999s-48.167 33.666 -66.5 60.999s-27.5 63.666 -27.5 108.999c0 41.333 10.333 76.5 31 105.5s48.334 50.667 83.001 65s73 21.5 115 21.5
c65.333 0 118.833 -16.833 160.5 -50.5s62.5 -84.167 62.5 -151.5v-12h-131v9c0 29.333 -8.33301 52.5 -25 69.5s-39.334 25.5 -68.001 25.5c-30 0 -53.5 -6.83301 -70.5 -20.5s-25.5 -31.167 -25.5 -52.5c0 -18.667 5.66699 -34 17 -46s25.5 -21.667 42.5 -29
s40.5 -15.666 70.5 -24.999c43.333 -14 78.333 -27.5 105 -40.5s49.667 -33.167 69 -60.5s29 -63.333 29 -108c0 -75.333 -21.5 -130.5 -64.5 -165.5s-102.167 -52.5 -177.5 -52.5c-43.333 0 -83 8.16699 -119 24.5z" />
    <glyph glyph-name="scaron" unicode="&#x161;" 
d="M94 723h90l45 -69l44 69h90l-85 -135h-98zM83.5 33.5c-33.667 30.333 -50.5 70.8369 -50.5 121.504l1 12h122v-7c0.666992 -26 8 -44.833 22 -56.5s30.667 -17.5 50 -17.5c18.667 0 35 4.5 49 13.5s21 23.5 21 43.5c0 21.333 -8 36.833 -24 46.5s-41.333 19.167 -76 28.5
c-33.333 9.33301 -60.333 18.666 -81 27.999s-38.5 24.666 -53.5 45.999s-22.5 50 -22.5 86c0 51.333 17.5 90.833 52.5 118.5s80.167 41.5 135.5 41.5c51.333 0 93.833 -12.833 127.5 -38.5s50.5 -60.5 50.5 -104.5l-1 -23h-122v1c0 22.667 -5.16699 39.5 -15.5 50.5
s-24.833 16.5 -43.5 16.5s-33.667 -4.66699 -45 -14s-17 -22 -17 -38c0 -18.667 7.66699 -32.167 23 -40.5s39.333 -16.833 72 -25.5c34 -8.66699 61.667 -17.834 83 -27.501s39.833 -25.334 55.5 -47.001s23.5 -51.5 23.5 -89.5c0 -113.333 -65.333 -170 -196 -170
c-60 0 -106.833 15.167 -140.5 45.5z" />
    <glyph glyph-name="uni0162" unicode="&#x162;" horiz-adv-x="501" 
d="M187 572h-170v114h468v-114h-170v-572h-128v572zM238 -178h-49v123h123v-112l-45 -96h-65z" />
    <glyph glyph-name="uni0163" unicode="&#x163;" horiz-adv-x="273" 
d="M91 28.5c-19.333 27 -28.999 60.499 -28.999 100.499v296h-53v101h53l18 148h102v-148h76v-101h-76v-293c0 -14 3.66699 -24.667 11 -32s17.666 -11 30.999 -11h34v-89c-8.66699 -3.33301 -20 -6.16602 -34 -8.49902s-26.667 -3.5 -38 -3.5c-44 0 -75.667 13.5 -95 40.5z
M124.001 -178.001h-49v123h124v-112l-46 -96h-65z" />
    <glyph glyph-name="Tcaron" unicode="&#x164;" horiz-adv-x="501" 
d="M116 883h90l45 -69l44 69h90l-85 -135h-98zM187 572h-170v114h468v-114h-170v-572h-128v572z" />
    <glyph glyph-name="tcaron" unicode="&#x165;" horiz-adv-x="393" 
d="M355 549h-55v137h138v-125l-54 -136h-72zM91 28.5c-19.333 27 -28.999 60.499 -28.999 100.499v296h-53v101h53l18 148h102v-148h76v-101h-76v-293c0 -14 3.66699 -24.667 11 -32s17.666 -11 30.999 -11h34v-89c-8.66699 -3.33301 -20 -6.16602 -34 -8.49902
s-26.667 -3.5 -38 -3.5c-44 0 -75.667 13.5 -95 40.5z" />
    <glyph glyph-name="Tbar" unicode="&#x166;" horiz-adv-x="501" 
d="M187 306h-113v87h113v179h-170v114h468v-114h-170v-179h112v-87h-112v-306h-128v306z" />
    <glyph glyph-name="tbar" unicode="&#x167;" horiz-adv-x="273" 
d="M91 28.5c-19.333 27 -28.999 60.499 -28.999 100.499v133h-51v87h51v76h-53v101h53l18 148h102v-148h76v-101h-76v-76h72v-87h-72v-130c0 -14 3.66699 -24.667 11 -32s17.666 -11 30.999 -11h34v-89c-8.66699 -3.33301 -20 -6.16602 -34 -8.49902s-26.667 -3.5 -38 -3.5
c-44 0 -75.667 13.5 -95 40.5z" />
    <glyph glyph-name="Utilde" unicode="&#x168;" horiz-adv-x="592" 
d="M153 846c16.667 24.667 41.002 37 73.002 37c10.667 0 20.667 -1.5 30 -4.5s22.333 -7.83301 39 -14.5c14 -6 25.667 -10.5 35 -13.5s19 -4.5 29 -4.5c11.333 0 20.166 2.83301 26.499 8.5s10.5 15.167 12.5 28.5h66c0 -32 -8.33301 -60.333 -25 -85
s-41.334 -37 -74.001 -37c-10.667 0 -20.5 1.5 -29.5 4.5s-21.833 7.83301 -38.5 14.5c-14 6 -25.667 10.5 -35 13.5s-19 4.5 -29 4.5c-22.667 0 -35.667 -12.333 -39 -37h-66c0 32 8.33301 60.333 25 85zM122.502 46.5c-41 39 -61.5 95.167 -61.5 168.5v471h128v-467
c0 -39.333 9.33301 -69.333 28 -90s45 -31 79 -31s60.5 10.333 79.5 31s28.5 50.667 28.5 90v467h128v-471c0 -73.333 -20.667 -129.5 -62 -168.5s-99.333 -58.5 -174 -58.5s-132.5 19.5 -173.5 58.5z" />
    <glyph glyph-name="utilde" unicode="&#x169;" horiz-adv-x="501" 
d="M108 686c16.667 24.667 41.002 37 73.002 37c10.667 0 20.667 -1.5 30 -4.5s22.333 -7.83301 39 -14.5c14 -6 25.667 -10.5 35 -13.5s19 -4.5 29 -4.5c11.333 0 20.166 2.83301 26.499 8.5s10.5 15.167 12.5 28.5h66c0 -32 -8.33301 -60.333 -25 -85
s-41.334 -37 -74.001 -37c-10.667 0 -20.5 1.5 -29.5 4.5s-21.833 7.83301 -38.5 14.5c-14 6 -25.667 10.5 -35 13.5s-19 4.5 -29 4.5c-22.667 0 -35.667 -12.333 -39 -37h-66c0 32 8.33301 60.333 25 85zM92.502 28.5c-25 27 -37.499 69.832 -37.499 128.499v369h120v-336
c0 -33.333 5.66699 -57.166 17 -71.499s28.666 -21.5 51.999 -21.5s42.833 9.83301 58.5 29.5s23.5 44.167 23.5 73.5v326h120v-526h-100l-12 65h-6c-15.333 -22.667 -34 -41.167 -56 -55.5s-47.667 -21.5 -77 -21.5c-43.333 0 -77.5 13.5 -102.5 40.5z" />
    <glyph glyph-name="Umacron" unicode="&#x16a;" horiz-adv-x="592" 
d="M168 846h256v-87h-256v87zM122.5 46.5c-41 39 -61.5 95.167 -61.5 168.5v471h128v-467c0 -39.333 9.33301 -69.333 28 -90s45 -31 79 -31s60.5 10.333 79.5 31s28.5 50.667 28.5 90v467h128v-471c0 -73.333 -20.667 -129.5 -62 -168.5s-99.333 -58.5 -174 -58.5
s-132.5 19.5 -173.5 58.5z" />
    <glyph glyph-name="umacron" unicode="&#x16b;" horiz-adv-x="501" 
d="M123 686h255v-87h-255v87zM92.5 28.5c-25 27 -37.499 69.832 -37.499 128.499v369h120v-336c0 -33.333 5.66699 -57.166 17 -71.499s28.666 -21.5 51.999 -21.5s42.833 9.83301 58.5 29.5s23.5 44.167 23.5 73.5v326h120v-526h-100l-12 65h-6
c-15.333 -22.667 -34 -41.167 -56 -55.5s-47.667 -21.5 -77 -21.5c-43.333 0 -77.5 13.5 -102.5 40.5z" />
    <glyph glyph-name="Ubreve" unicode="&#x16c;" horiz-adv-x="592" 
d="M226 792c-20 10.667 -35.501 24.167 -46.501 40.5s-16.5 33.166 -16.5 50.499h74c2 -8 8.5 -15.5 19.5 -22.5s23.833 -10.5 38.5 -10.5c16.667 0 30.667 3.5 42 10.5s17.333 14.5 18 22.5h75c0 -17.333 -5.66699 -34.166 -17 -50.499s-27.166 -29.833 -47.499 -40.5
s-43.833 -16 -70.5 -16c-26 0 -49 5.33301 -69 16zM122.499 46.5c-41 39 -61.5 95.167 -61.5 168.5v471h128v-467c0 -39.333 9.33301 -69.333 28 -90s45 -31 79 -31s60.5 10.333 79.5 31s28.5 50.667 28.5 90v467h128v-471c0 -73.333 -20.667 -129.5 -62 -168.5
s-99.333 -58.5 -174 -58.5s-132.5 19.5 -173.5 58.5z" />
    <glyph glyph-name="ubreve" unicode="&#x16d;" horiz-adv-x="501" 
d="M180.5 632c-20.333 10.667 -35.999 24.167 -46.999 40.5s-16.5 33.166 -16.5 50.499h74c2 -8 8.5 -15.5 19.5 -22.5s24.167 -10.5 39.5 -10.5c16 0 29.667 3.5 41 10.5s17.666 14.5 18.999 22.5h74c0 -17.333 -5.5 -34.166 -16.5 -50.499s-26.667 -29.833 -47 -40.5
s-43.833 -16 -70.5 -16c-26 0 -49.167 5.33301 -69.5 16zM92.501 28.5c-25 27 -37.499 69.832 -37.499 128.499v369h120v-336c0 -33.333 5.66699 -57.166 17 -71.499s28.666 -21.5 51.999 -21.5s42.833 9.83301 58.5 29.5s23.5 44.167 23.5 73.5v326h120v-526h-100l-12 65
h-6c-15.333 -22.667 -34 -41.167 -56 -55.5s-47.667 -21.5 -77 -21.5c-43.333 0 -77.5 13.5 -102.5 40.5z" />
    <glyph glyph-name="Uring" unicode="&#x16e;" horiz-adv-x="592" 
d="M228.5 749c-19 18.667 -28.501 41.333 -28.501 68s9.33301 49.334 28 68.001s41.334 28 68.001 28s49.334 -9.5 68.001 -28.5s28 -41.5 28 -67.5c0 -26.667 -9.33301 -49.334 -28 -68.001s-41.334 -28 -68.001 -28c-26 0 -48.5 9.33301 -67.5 28zM328.499 784.499
c9 9 13.5 19.833 13.5 32.5s-4.5 23.5 -13.5 32.5s-19.833 13.5 -32.5 13.5s-23.5 -4.33301 -32.5 -13s-13.5 -19.667 -13.5 -33c0 -12.667 4.5 -23.5 13.5 -32.5s19.833 -13.5 32.5 -13.5s23.5 4.5 32.5 13.5zM122.499 46.499c-41 39 -61.5 95.167 -61.5 168.5v471h128
v-467c0 -39.333 9.33301 -69.333 28 -90s45 -31 79 -31s60.5 10.333 79.5 31s28.5 50.667 28.5 90v467h128v-471c0 -73.333 -20.667 -129.5 -62 -168.5s-99.333 -58.5 -174 -58.5s-132.5 19.5 -173.5 58.5z" />
    <glyph glyph-name="uring" unicode="&#x16f;" horiz-adv-x="501" 
d="M183.5 589c-19 18.667 -28.501 41.333 -28.501 68s9.33301 49.334 28 68.001s41.334 28 68.001 28s49.334 -9.5 68.001 -28.5s28 -41.5 28 -67.5c0 -26.667 -9.33301 -49.334 -28 -68.001s-41.334 -28 -68.001 -28c-26 0 -48.5 9.33301 -67.5 28zM283.499 624.499
c9 9 13.5 19.833 13.5 32.5s-4.5 23.5 -13.5 32.5s-19.833 13.5 -32.5 13.5s-23.5 -4.33301 -32.5 -13s-13.5 -19.667 -13.5 -33c0 -12.667 4.5 -23.5 13.5 -32.5s19.833 -13.5 32.5 -13.5s23.5 4.5 32.5 13.5zM92.499 28.499c-25 27 -37.499 69.832 -37.499 128.499v369
h120v-336c0 -33.333 5.66699 -57.166 17 -71.499s28.666 -21.5 51.999 -21.5s42.833 9.83301 58.5 29.5s23.5 44.167 23.5 73.5v326h120v-526h-100l-12 65h-6c-15.333 -22.667 -34 -41.167 -56 -55.5s-47.667 -21.5 -77 -21.5c-43.333 0 -77.5 13.5 -102.5 40.5z" />
    <glyph glyph-name="Uhungarumlaut" unicode="&#x170;" horiz-adv-x="592" 
d="M245 883h100l1 -3l-84 -129h-79zM385 883h100l1 -3l-84 -129h-79zM122.5 46.5c-41 39 -61.5 95.167 -61.5 168.5v471h128v-467c0 -39.333 9.33301 -69.333 28 -90s45 -31 79 -31s60.5 10.333 79.5 31s28.5 50.667 28.5 90v467h128v-471
c0 -73.333 -20.667 -129.5 -62 -168.5s-99.333 -58.5 -174 -58.5s-132.5 19.5 -173.5 58.5z" />
    <glyph glyph-name="uhungarumlaut" unicode="&#x171;" horiz-adv-x="501" 
d="M200 723h100l1 -3l-84 -129h-79zM340 723h100l1 -3l-84 -129h-79zM92.5 28.5c-25 27 -37.499 69.832 -37.499 128.499v369h120v-336c0 -33.333 5.66699 -57.166 17 -71.499s28.666 -21.5 51.999 -21.5s42.833 9.83301 58.5 29.5s23.5 44.167 23.5 73.5v326h120v-526h-100
l-12 65h-6c-15.333 -22.667 -34 -41.167 -56 -55.5s-47.667 -21.5 -77 -21.5c-43.333 0 -77.5 13.5 -102.5 40.5z" />
    <glyph glyph-name="Uogonek" unicode="&#x172;" horiz-adv-x="592" 
d="M532 686v-462.995c0 -56 -11 -102.333 -33 -139s-53.333 -63 -94 -79c-8 -8.66699 -15 -19.334 -21 -32.001s-9 -25.334 -9 -38.001c0 -14.667 3.66699 -26.834 11 -36.501s18.666 -14.5 33.999 -14.5h22v-55c-24 -9.33301 -46 -14 -66 -14
c-27.333 0 -50.666 7.16699 -69.999 21.5s-29 37.166 -29 68.499s9.66699 59 29 83h-10c-74.667 0 -132.5 20.167 -173.5 60.5s-61.5 98.5 -61.5 174.5v463h128v-459c0 -42 9.33301 -74 28 -96s45 -33 79 -33s60.5 11.167 79.5 33.5s28.5 54.166 28.5 95.499v459h128z" />
    <glyph glyph-name="uogonek" unicode="&#x173;" horiz-adv-x="501" 
d="M483 -121l0.00195312 -54.998c-24 -9.33301 -46 -14 -66 -14c-27.333 0 -50.666 7.16699 -69.999 21.5s-29 37.166 -29 68.499c0 21.333 3.66699 39.666 11 54.999s18 30.333 32 45h-15l-12 65h-6c-15.333 -22.667 -34 -41.167 -56 -55.5s-47.667 -21.5 -77 -21.5
c-43.333 0 -77.5 13.5 -102.5 40.5s-37.5 69.833 -37.5 128.5v369h120v-336c0 -33.333 5.66699 -57.166 17 -71.499s28.666 -21.5 51.999 -21.5s42.833 9.83301 58.5 29.5s23.5 44.167 23.5 73.5v326h120v-526c-6.66699 -7.33301 -13.334 -17.5 -20.001 -30.5
s-10 -26.167 -10 -39.5c0 -14.667 3.66699 -26.834 11 -36.501s18.666 -14.5 33.999 -14.5h22z" />
    <glyph glyph-name="Wcircumflex" unicode="&#x174;" horiz-adv-x="774" 
d="M339 883h98l85 -135h-90l-44 69l-45 -69h-90zM0 686l126.993 -0.00195312l82 -422c2.66699 -12.667 5.33398 -30 8.00098 -52s4.33398 -36.667 5.00098 -44h4c0.666992 7.33301 2.33398 22.166 5.00098 44.499s5.33398 39.5 8.00098 51.5l83 422h145l82 -422
c2.66699 -17.333 5.33398 -35.833 8.00098 -55.5s4.33398 -33.167 5.00098 -40.5h4c0.666992 6.66699 2.33398 20.834 5.00098 42.501s5.33398 39.5 8.00098 53.5l84 422h110l-149 -686h-129l-93 437c-3.33301 14.667 -6.33301 32.834 -9 54.501
s-4.33398 35.834 -5.00098 42.501h-4c-0.666992 -7.33301 -2.5 -22.333 -5.5 -45s-5.83301 -40 -8.5 -52l-92 -437h-129z" />
    <glyph glyph-name="wcircumflex" unicode="&#x175;" horiz-adv-x="638" 
d="M271 723h98l85 -135h-90l-44 69l-45 -69h-90zM1 526l119.998 0.000976562l50 -216c6.66699 -29.333 11.834 -62.333 15.501 -99s5.5 -58.667 5.5 -66h4c0.666992 10 3 32 7 66s9 66.667 15 98l45 217h120l45 -218c4.66699 -21.333 9.16699 -50.833 13.5 -88.5l8.5 -74.5
h4c1.33301 11.333 4.83301 35.166 10.5 71.499s10.834 66.833 15.501 91.5l46 218h111l-127 -526h-121l-52 251c-4.66699 22 -8.16699 47 -10.5 75s-3.83301 46.333 -4.5 55h-6c-0.666992 -8.66699 -2.16699 -26.667 -4.5 -54s-5.83301 -52.333 -10.5 -75l-51 -252h-121z
" />
    <glyph glyph-name="Ycircumflex" unicode="&#x176;" horiz-adv-x="547" 
d="M225 883h98l85 -135h-90l-44 69l-45 -69h-90zM210 259l-210 427h135l140 -301h4l139 301h129l-209 -427v-259h-128v259z" />
    <glyph glyph-name="ycircumflex" unicode="&#x177;" 
d="M180 723h98l85 -135h-90l-44 69l-45 -69h-90zM67.5 -178.5c-15.667 2.33301 -23.499 4.16797 -23.499 5.50098v92h54c18 0 34.333 6.66699 49 20s25.334 33.666 32.001 60.999l-175 526h127l79 -247c5.33301 -16.667 11 -41 17 -73s9.66699 -53.333 11 -64h4
c1.33301 10 4.66602 30.5 9.99902 61.5s10.333 55.833 15 74.5l65 248h120l-144 -499c-18.667 -64.667 -42.667 -115.667 -72 -153s-67.333 -56 -114 -56c-20.667 0 -38.834 1.16699 -54.501 3.5z" />
    <glyph glyph-name="Ydieresis" unicode="&#x178;" horiz-adv-x="547" 
d="M136 883h100v-109h-100v109zM311 883h100v-109h-100v109zM210 259l-210 427h135l140 -301h4l139 301h129l-209 -427v-259h-128v259z" />
    <glyph glyph-name="Zacute" unicode="&#x179;" horiz-adv-x="501" 
d="M268 883h120l1 -3l-108 -129h-99zM16 49l282 523h-261v114h436v-50l-282 -522h289v-114h-464v49z" />
    <glyph glyph-name="zacute" unicode="&#x17a;" horiz-adv-x="410" 
d="M222 723h120l1 -3l-108 -129h-99zM18 51l204 374h-192v101h355v-50l-205 -375h212v-101h-374v51z" />
    <glyph glyph-name="Zdotaccent" unicode="&#x17b;" horiz-adv-x="501" 
d="M197 883h107v-115h-107v115zM16 49l282 523h-261v114h436v-50l-282 -522h289v-114h-464v49z" />
    <glyph glyph-name="zdotaccent" unicode="&#x17c;" horiz-adv-x="410" 
d="M152 723h107v-115h-107v115zM18 51l204 374h-192v101h355v-50l-205 -375h212v-101h-374v51z" />
    <glyph glyph-name="Zcaron" unicode="&#x17d;" horiz-adv-x="501" 
d="M116 883h90l45 -69l44 69h90l-85 -135h-98zM16 49l282 523h-261v114h436v-50l-282 -522h289v-114h-464v49z" />
    <glyph glyph-name="zcaron" unicode="&#x17e;" horiz-adv-x="410" 
d="M71 723h90l45 -69l44 69h90l-85 -135h-98zM18 51l204 374h-192v101h355v-50l-205 -375h212v-101h-374v51z" />
    <glyph glyph-name="longs" unicode="&#x17f;" horiz-adv-x="228" 
d="M62 425l-53.001 -0.000976562v101h53v64c0 40 9.66699 73.5 29 100.5s51 40.5 95 40.5c13.333 0 28.5 -1.16699 45.5 -3.5s30.833 -5.16602 41.5 -8.49902v-89h-49c-13.333 0 -23.666 -3.66699 -30.999 -11s-11 -18 -11 -32v-587h-120v425z" />
    <glyph glyph-name="florin" unicode="&#x192;" 
d="M59 -178.5c-16.667 2.33301 -30 5.16602 -40 8.49902l13 89h49c13.333 0 24.166 3.66699 32.499 11s13.5 18 15.5 32l60 424h-73l14 101h73l14 103c6 40 20.667 73.5 44 100.5s57 40.5 101 40.5c13.333 0 28.333 -1.16699 45 -3.5s30 -5.16602 40 -8.49902l-13 -89h-49
c-13.333 0 -24.166 -3.66699 -32.499 -11s-13.5 -18 -15.5 -32l-14 -100h91l-14 -101h-91l-60 -427c-6 -40 -20.667 -73.5 -44 -100.5s-57 -40.5 -101 -40.5c-13.333 0 -28.333 1.16699 -45 3.5z" />
    <glyph glyph-name="Aringacute" unicode="&#x1fa;" horiz-adv-x="611" 
d="M323 957h120l1 -3l-92 -106h-99zM217 674c-11.333 15.333 -17.002 33.332 -17.002 53.999c0 25.333 9.33301 47.166 28 65.499s41.334 27.5 68.001 27.5s49.334 -9.16699 68.001 -27.5s28 -40.166 28 -65.499c0 -19.333 -6 -37.666 -18 -54.999l217 -673h-131l-42 135
h-253l-41 -135h-124zM328.498 695.999c9 8.66699 13.5 19.334 13.5 32.001s-4.5 23.167 -13.5 31.5s-19.833 12.5 -32.5 12.5c-13.333 0 -24.333 -4.16699 -33 -12.5s-13 -18.833 -13 -31.5s4.33301 -23.334 13 -32.001s19.667 -13 33 -13c12.667 0 23.5 4.33301 32.5 13z
M382.998 248.999l-69 228.999c-4.66699 14.667 -9 32.334 -13 53.001s-6.33301 34 -7 40h-4l-8 -41.5c-4 -21 -8 -38.167 -12 -51.5l-70 -229h183z" />
    <glyph glyph-name="aringacute" unicode="&#x1fb;" horiz-adv-x="500" 
d="M249 883h120l1 -3l-97 -112h-99zM149.5 588c-19 18 -28.501 39.999 -28.501 65.999c0 25.333 9.33301 47.166 28 65.499s41.334 27.5 68.001 27.5s49.334 -9.16699 68.001 -27.5s28 -40.166 28 -65.499s-9.33301 -47.166 -28 -65.499s-41.334 -27.5 -68.001 -27.5
c-26 0 -48.5 9 -67.5 27zM249.499 621.999c9 8.66699 13.5 19.334 13.5 32.001s-4.5 23.167 -13.5 31.5s-19.833 12.5 -32.5 12.5c-13.333 0 -24.333 -4.16699 -33 -12.5s-13 -18.833 -13 -31.5s4.33301 -23.334 13 -32.001s19.667 -13 33 -13
c12.667 0 23.5 4.33301 32.5 13zM55.499 21.499c-27.667 22.333 -41.4971 60.5 -41.4971 114.5c0 66.667 22.667 114 68 142s109.666 42 192.999 42v55c0 20.667 -3.83301 36.667 -11.5 48s-22.167 17 -43.5 17c-22 0 -38 -5.5 -48 -16.5s-15 -23.833 -15 -38.5v-15h-117
c-0.666992 4 -1 11.333 -1 22c0 44 16.167 79.333 48.5 106s75.5 40 129.5 40c60 0 104.833 -13.333 134.5 -40s44.5 -65 44.5 -115v-259c0 -12 2.66699 -20.833 8 -26.5s12 -8.5 20 -8.5h24v-85c-20 -10.667 -43.667 -16 -71 -16c-23.333 0 -43.166 6.16699 -59.499 18.5
s-27.5 29.166 -33.5 50.499h-5c-16.667 -23.333 -34.834 -40.666 -54.501 -51.999s-45.834 -17 -78.501 -17s-62.834 11.167 -90.501 33.5zM255.502 119.999c13 21.333 19.501 49 19.501 83v30c-40.667 0 -73.834 -6.5 -99.501 -19.5s-38.5 -35.167 -38.5 -66.5
c0 -18.667 4.83301 -33.167 14.5 -43.5s24.5 -15.5 44.5 -15.5c26.667 0 46.5 10.667 59.5 32z" />
    <glyph glyph-name="AEacute" unicode="&#x1fc;" horiz-adv-x="820" 
d="M427 883h120l1 -3l-108 -129h-99zM255 686h516v-114h-333l40 -164h249v-114h-221l44 -180h227v-114h-330l-33 135h-253l-50 -135h-119zM387 249l-53 225l-17 72h-4l-27 -72l-83 -225h184z" />
    <glyph glyph-name="aeacute" unicode="&#x1fd;" horiz-adv-x="729" 
d="M382 723h120l1 -3l-108 -129h-99zM84.5 21.5c-31.667 22.333 -47.5 60.498 -47.5 114.498c0 66.667 22.667 114 68 142s109.666 42 192.999 42v55c0 20.667 -3.83301 36.667 -11.5 48s-22.167 17 -43.5 17c-22 0 -38 -5.5 -48 -16.5s-15 -23.833 -15 -38.5v-15h-117
c-0.666992 4 -1 11.333 -1 22c0 44 16.167 79.333 48.5 106s75.5 40 129.5 40c58.667 0 103.667 -16.667 135 -50c31.333 33.333 73 50 125 50c64 0 111.667 -22.333 143 -67s47 -114 47 -208v-30h-267c0.666992 -49.333 7.16699 -86.166 19.5 -110.499
s32.833 -36.5 61.5 -36.5c20.667 0 37 8.83301 49 26.5s18 42.167 18 73.5h119c0 -65.333 -17 -114.666 -51 -147.999s-79 -50 -135 -50c-71.333 0 -123.666 23.667 -156.999 71c-20.667 -22.667 -43.5 -40.167 -68.5 -52.5s-54.833 -18.5 -89.5 -18.5
c-38 0 -72.833 11.167 -104.5 33.5zM564 319.998c0 80 -21.333 119.999 -64 119.999c-24.667 0 -43 -10.167 -55 -30.5s-19 -50.166 -21 -89.499h140zM278.5 119.997c13 21.333 19.501 49 19.501 83v30c-40.667 0 -73.834 -6.5 -99.501 -19.5s-38.5 -35.167 -38.5 -66.5
c0 -18.667 4.83301 -33.167 14.5 -43.5s24.5 -15.5 44.5 -15.5c26.667 0 46.5 10.667 59.5 32z" />
    <glyph glyph-name="Oslashacute" unicode="&#x1fe;" horiz-adv-x="638" 
d="M336 883h121l1 -3l-108 -129h-100zM110 75c-50.667 60 -76.001 149.333 -76.001 268s24.833 207.5 74.5 266.5s119.834 88.5 210.501 88.5c60.667 0 112.334 -13.333 155.001 -40l41 65h84l-71 -113c50.667 -60 76 -149 76 -267c0 -118.667 -24.833 -207.5 -74.5 -266.5
s-119.834 -88.5 -210.501 -88.5c-60 0 -111.667 13 -155 39l-40 -64h-84zM409.999 556c-23.333 21.333 -53.667 32 -91 32c-50 0 -88 -19.167 -114 -57.5s-39 -92.5 -39 -162.5v-50c0 -48.667 6 -90 18 -124zM432.998 155.5c26 38.333 39 92.5 39 162.5v50
c0 49.333 -6.33301 90 -19 122l-225 -361c24 -20.667 54.333 -31 91 -31c50 0 88 19.167 114 57.5z" />
    <glyph glyph-name="oslashacute" unicode="&#x1ff;" horiz-adv-x="501" 
d="M268 723h120l1 -3l-108 -129h-99zM97 50c-37.333 45.333 -56 116.333 -56 213c0 94 17.333 163.333 52 208s87.334 67 158.001 67c38.667 0 72 -7 100 -21l22 41h75l-44 -81c38 -44.667 57 -116 57 -214c0 -94 -17.333 -163.333 -52 -208s-87.334 -67 -158.001 -67
c-38.667 0 -72.667 7 -102 21l-22 -41h-75zM298 421c-12.667 10.667 -28.333 16 -47 16c-30 0 -51.667 -12.833 -65 -38.5s-20 -64.5 -20 -116.5v-38c0 -22.667 1 -43 3 -61zM316.001 127.5c13.333 25.667 20.001 64.5 20.001 116.5v38c0 16.667 -1.33301 37.667 -4 63
l-130 -239c13.333 -11.333 29.666 -17 48.999 -17c30 0 51.667 12.833 65 38.5z" />
    <glyph glyph-name="circumflex" unicode="&#x2c6;" horiz-adv-x="273" 
d="M86 723h98l85 -135h-90l-44 69l-45 -69h-90z" />
    <glyph glyph-name="caron" unicode="&#x2c7;" horiz-adv-x="273" 
d="M0 723h90l45 -69l44 69h90l-85 -135h-98z" />
    <glyph glyph-name="uni02C9" unicode="&#x2c9;" horiz-adv-x="500" 
d="M0 860h500v-69h-500v69z" />
    <glyph glyph-name="breve" unicode="&#x2d8;" horiz-adv-x="273" 
d="M64.5 632c-20.333 10.667 -35.999 24.167 -46.999 40.5s-16.5 33.166 -16.5 50.499h74c2 -8 8.5 -15.5 19.5 -22.5s24.167 -10.5 39.5 -10.5c16 0 29.667 3.5 41 10.5s17.666 14.5 18.999 22.5h74c0 -17.333 -5.5 -34.166 -16.5 -50.499s-26.667 -29.833 -47 -40.5
s-43.833 -16 -70.5 -16c-26 0 -49.167 5.33301 -69.5 16z" />
    <glyph glyph-name="dotaccent" unicode="&#x2d9;" horiz-adv-x="273" 
d="M83 723h107v-115h-107v115z" />
    <glyph glyph-name="ring" unicode="&#x2da;" horiz-adv-x="273" 
d="M71.5 589c-19 18.667 -28.501 41.333 -28.501 68s9.33301 49.334 28 68.001s41.334 28 68.001 28s49.334 -9.5 68.001 -28.5s28 -41.5 28 -67.5c0 -26.667 -9.33301 -49.334 -28 -68.001s-41.334 -28 -68.001 -28c-26 0 -48.5 9.33301 -67.5 28zM171.499 624.499
c9 9 13.5 19.833 13.5 32.5s-4.5 23.5 -13.5 32.5s-19.833 13.5 -32.5 13.5s-23.5 -4.33301 -32.5 -13s-13.5 -19.667 -13.5 -33c0 -12.667 4.5 -23.5 13.5 -32.5s19.833 -13.5 32.5 -13.5s23.5 4.5 32.5 13.5z" />
    <glyph glyph-name="ogonek" unicode="&#x2db;" horiz-adv-x="273" 
d="M91 -160.5c-19.333 14.333 -28.999 37.1699 -28.999 68.5029c0 22 4.16699 40.833 12.5 56.5s20.166 31.5 35.499 47.5h78l2 -4c-8 -8.66699 -15 -19.334 -21 -32.001s-9 -25.334 -9 -38.001c0 -14.667 3.66699 -26.834 11 -36.501s18.666 -14.5 33.999 -14.5h22v-55
c-24 -9.33301 -46 -14 -66 -14c-27.333 0 -50.666 7.16699 -69.999 21.5z" />
    <glyph glyph-name="tilde" unicode="&#x2dc;" horiz-adv-x="273" 
d="M-7 686c16.667 24.667 41.002 37 73.002 37c10.667 0 20.667 -1.5 30 -4.5s22.333 -7.83301 39 -14.5c14 -6 25.667 -10.5 35 -13.5s19 -4.5 29 -4.5c11.333 0 20.166 2.83301 26.499 8.5s10.5 15.167 12.5 28.5h66c0 -32 -8.33301 -60.333 -25 -85
s-41.334 -37 -74.001 -37c-10.667 0 -20.5 1.5 -29.5 4.5s-21.833 7.83301 -38.5 14.5c-14 6 -25.667 10.5 -35 13.5s-19 4.5 -29 4.5c-22.667 0 -35.667 -12.333 -39 -37h-66c0 32 8.33301 60.333 25 85z" />
    <glyph glyph-name="hungarumlaut" unicode="&#x2dd;" horiz-adv-x="273" 
d="M66 723h100l1 -3l-84 -129h-79zM206 723h100l1 -3l-84 -129h-79z" />
    <glyph glyph-name="pi" unicode="&#x3c0;" horiz-adv-x="628" 
d="M119 201.5c12.667 86.333 19.668 160.833 21.001 223.5c-30 0 -52.5 -1 -67.5 -3s-28.5 -5.33301 -40.5 -10l-12 84c27.333 20 80.666 30 159.999 30h401l-8 -101h-83v-269c0 -71.333 4.33301 -123.333 13 -156h-118c-10 18 -15 67 -15 147v278h-110
c-4 -70.667 -12.167 -149.667 -24.5 -237s-25.833 -150 -40.5 -188h-119c16 48 30.333 115.167 43 201.5z" />
    <glyph glyph-name="Wgrave" unicode="&#x1e80;" horiz-adv-x="774" 
d="M249 880l1 3h120l86 -132h-99zM0 686l126.993 -0.00195312l82 -422c2.66699 -12.667 5.33398 -30 8.00098 -52s4.33398 -36.667 5.00098 -44h4c0.666992 7.33301 2.33398 22.166 5.00098 44.499s5.33398 39.5 8.00098 51.5l83 422h145l82 -422
c2.66699 -17.333 5.33398 -35.833 8.00098 -55.5s4.33398 -33.167 5.00098 -40.5h4c0.666992 6.66699 2.33398 20.834 5.00098 42.501s5.33398 39.5 8.00098 53.5l84 422h110l-149 -686h-129l-93 437c-3.33301 14.667 -6.33301 32.834 -9 54.501
s-4.33398 35.834 -5.00098 42.501h-4c-0.666992 -7.33301 -2.5 -22.333 -5.5 -45s-5.83301 -40 -8.5 -52l-92 -437h-129z" />
    <glyph glyph-name="wgrave" unicode="&#x1e81;" horiz-adv-x="638" 
d="M181 720l1 3h120l86 -132h-99zM1 526l119.998 0.000976562l50 -216c6.66699 -29.333 11.834 -62.333 15.501 -99s5.5 -58.667 5.5 -66h4c0.666992 10 3 32 7 66s9 66.667 15 98l45 217h120l45 -218c4.66699 -21.333 9.16699 -50.833 13.5 -88.5l8.5 -74.5h4
c1.33301 11.333 4.83301 35.166 10.5 71.499s10.834 66.833 15.501 91.5l46 218h111l-127 -526h-121l-52 251c-4.66699 22 -8.16699 47 -10.5 75s-3.83301 46.333 -4.5 55h-6c-0.666992 -8.66699 -2.16699 -26.667 -4.5 -54s-5.83301 -52.333 -10.5 -75l-51 -252h-121z" />
    <glyph glyph-name="Wacute" unicode="&#x1e82;" horiz-adv-x="774" 
d="M404 883h120l1 -3l-108 -129h-99zM0 686l126.993 -0.00195312l82 -422c2.66699 -12.667 5.33398 -30 8.00098 -52s4.33398 -36.667 5.00098 -44h4c0.666992 7.33301 2.33398 22.166 5.00098 44.499s5.33398 39.5 8.00098 51.5l83 422h145l82 -422
c2.66699 -17.333 5.33398 -35.833 8.00098 -55.5s4.33398 -33.167 5.00098 -40.5h4c0.666992 6.66699 2.33398 20.834 5.00098 42.501s5.33398 39.5 8.00098 53.5l84 422h110l-149 -686h-129l-93 437c-3.33301 14.667 -6.33301 32.834 -9 54.501
s-4.33398 35.834 -5.00098 42.501h-4c-0.666992 -7.33301 -2.5 -22.333 -5.5 -45s-5.83301 -40 -8.5 -52l-92 -437h-129z" />
    <glyph glyph-name="wacute" unicode="&#x1e83;" horiz-adv-x="638" 
d="M336 723h121l1 -3l-108 -129h-100zM1 526l119.998 0.000976562l50 -216c6.66699 -29.333 11.834 -62.333 15.501 -99s5.5 -58.667 5.5 -66h4c0.666992 10 3 32 7 66s9 66.667 15 98l45 217h120l45 -218c4.66699 -21.333 9.16699 -50.833 13.5 -88.5l8.5 -74.5h4
c1.33301 11.333 4.83301 35.166 10.5 71.499s10.834 66.833 15.501 91.5l46 218h111l-127 -526h-121l-52 251c-4.66699 22 -8.16699 47 -10.5 75s-3.83301 46.333 -4.5 55h-6c-0.666992 -8.66699 -2.16699 -26.667 -4.5 -54s-5.83301 -52.333 -10.5 -75l-51 -252h-121z" />
    <glyph glyph-name="Wdieresis" unicode="&#x1e84;" horiz-adv-x="774" 
d="M250 883h100v-109h-100v109zM425 883h100v-109h-100v109zM0 686l126.993 -0.00195312l82 -422c2.66699 -12.667 5.33398 -30 8.00098 -52s4.33398 -36.667 5.00098 -44h4c0.666992 7.33301 2.33398 22.166 5.00098 44.499s5.33398 39.5 8.00098 51.5l83 422h145l82 -422
c2.66699 -17.333 5.33398 -35.833 8.00098 -55.5s4.33398 -33.167 5.00098 -40.5h4c0.666992 6.66699 2.33398 20.834 5.00098 42.501s5.33398 39.5 8.00098 53.5l84 422h110l-149 -686h-129l-93 437c-3.33301 14.667 -6.33301 32.834 -9 54.501
s-4.33398 35.834 -5.00098 42.501h-4c-0.666992 -7.33301 -2.5 -22.333 -5.5 -45s-5.83301 -40 -8.5 -52l-92 -437h-129z" />
    <glyph glyph-name="wdieresis" unicode="&#x1e85;" horiz-adv-x="638" 
d="M182 723h100v-109h-100v109zM357 723h100v-109h-100v109zM1 526l119.998 0.000976562l50 -216c6.66699 -29.333 11.834 -62.333 15.501 -99s5.5 -58.667 5.5 -66h4c0.666992 10 3 32 7 66s9 66.667 15 98l45 217h120l45 -218c4.66699 -21.333 9.16699 -50.833 13.5 -88.5
l8.5 -74.5h4c1.33301 11.333 4.83301 35.166 10.5 71.499s10.834 66.833 15.501 91.5l46 218h111l-127 -526h-121l-52 251c-4.66699 22 -8.16699 47 -10.5 75s-3.83301 46.333 -4.5 55h-6c-0.666992 -8.66699 -2.16699 -26.667 -4.5 -54s-5.83301 -52.333 -10.5 -75
l-51 -252h-121z" />
    <glyph glyph-name="Ygrave" unicode="&#x1ef2;" horiz-adv-x="547" 
d="M135 880l1 3h120l86 -132h-99zM210 259l-210 427h135l140 -301h4l139 301h129l-209 -427v-259h-128v259z" />
    <glyph glyph-name="ygrave" unicode="&#x1ef3;" 
d="M90 720l1 3h120l86 -132h-99zM67.5 -178.5c-15.667 2.33301 -23.499 4.16797 -23.499 5.50098v92h54c18 0 34.333 6.66699 49 20s25.334 33.666 32.001 60.999l-175 526h127l79 -247c5.33301 -16.667 11 -41 17 -73s9.66699 -53.333 11 -64h4
c1.33301 10 4.66602 30.5 9.99902 61.5s10.333 55.833 15 74.5l65 248h120l-144 -499c-18.667 -64.667 -42.667 -115.667 -72 -153s-67.333 -56 -114 -56c-20.667 0 -38.834 1.16699 -54.501 3.5z" />
    <glyph glyph-name="endash" unicode="&#x2013;" 
d="M0 319h456v-98h-456v98z" />
    <glyph glyph-name="emdash" unicode="&#x2014;" horiz-adv-x="820" 
d="M0 319h820v-98h-820v98z" />
    <glyph glyph-name="uni2015" unicode="&#x2015;" horiz-adv-x="820" 
d="M102 318h613v-95h-613v95z" />
    <glyph glyph-name="underscoredbl" unicode="&#x2017;" horiz-adv-x="500" 
d="M0 -88h500v-51h-500v51zM0 -175h500v-51h-500v51z" />
    <glyph glyph-name="quoteleft" unicode="&#x2018;" horiz-adv-x="228" 
d="M45 518l66 168h72l-55 -156h55v-137h-138v125z" />
    <glyph glyph-name="quoteright" unicode="&#x2019;" horiz-adv-x="228" 
d="M100 549h-55v137h138v-125l-66 -168h-72z" />
    <glyph glyph-name="quotesinglbase" unicode="&#x201a;" horiz-adv-x="228" 
d="M100 0h-55v137h138v-125l-66 -168h-72z" />
    <glyph glyph-name="quotereversed" unicode="&#x201b;" horiz-adv-x="228" 
d="M45 561v125h138v-137h-55l55 -156h-72z" />
    <glyph glyph-name="quotedblleft" unicode="&#x201c;" horiz-adv-x="410" 
d="M44 518l66 168h72l-55 -156h55v-137h-138v125zM227 518l66 168h72l-55 -156h55v-137h-138v125z" />
    <glyph glyph-name="quotedblright" unicode="&#x201d;" horiz-adv-x="410" 
d="M100 549h-55v137h138v-125l-66 -168h-72zM283 549h-55v137h138v-125l-66 -168h-72z" />
    <glyph glyph-name="quotedblbase" unicode="&#x201e;" horiz-adv-x="410" 
d="M100 0h-55v137h138v-125l-66 -168h-72zM283 0h-55v137h138v-125l-66 -168h-72z" />
    <glyph glyph-name="dagger" unicode="&#x2020;" 
d="M190 425l-165 -18v113l165 -17l-17 183h108l-17 -183l166 17v-113l-166 18l20 -598h-114z" />
    <glyph glyph-name="daggerdbl" unicode="&#x2021;" 
d="M190 13l-165 -17v113l165 -18l-20 169l20 165l-165 -18v113l165 -17l-17 183h108l-17 -183l166 17v-113l-166 18l20 -165l-20 -169l166 18v-113l-166 17l17 -186h-108z" />
    <glyph glyph-name="bullet" unicode="&#x2022;" horiz-adv-x="287" 
d="M82.5 237c-18.333 11.333 -32.832 26.499 -43.499 45.499s-16 39.5 -16 61.5c0 34 11.667 63 35 87s51.666 36 84.999 36s61.833 -12.167 85.5 -36.5s35.5 -53.166 35.5 -86.499c0 -22 -5.5 -42.5 -16.5 -61.5s-25.667 -34.167 -44 -45.5s-38.5 -17 -60.5 -17
s-42.167 5.66699 -60.5 17z" />
    <glyph glyph-name="ellipsis" unicode="&#x2026;" horiz-adv-x="820" 
d="M68 137h138v-137h-138v137zM341 137h138v-137h-138v137zM614 137h138v-137h-138v137z" />
    <glyph glyph-name="perthousand" unicode="&#x2030;" horiz-adv-x="820" 
d="M33 377.5c-20.667 27 -31 73.5 -31 139.5c0 66.667 10.333 113.5 31 140.5s51.334 40.5 92.001 40.5s71.334 -13.5 92.001 -40.5s31 -73.833 31 -140.5c0 -66 -10.333 -112.5 -31 -139.5s-51.334 -40.5 -92.001 -40.5s-71.334 13.5 -92.001 40.5zM351 686h70l-223 -686
h-69zM152 432c4.66699 14.667 7 40.667 7 78v15c0 37.333 -2.33301 63.333 -7 78s-13.667 22 -27 22s-22.333 -7.33301 -27 -22s-7 -40.667 -7 -78v-15c0 -37.333 2.33301 -63.333 7 -78s13.667 -22 27 -22s22.333 7.33301 27 22zM335 28.5c-20.667 27 -31 73.5 -31 139.5
c0 66.667 10.333 113.5 31 140.5s51.334 40.5 92.001 40.5s71.334 -13.5 92.001 -40.5s31 -73.833 31 -140.5c0 -66 -10.333 -112.5 -31 -139.5s-51.334 -40.5 -92.001 -40.5s-71.334 13.5 -92.001 40.5zM605 28.5c-20.667 27 -31 73.5 -31 139.5
c0 66.667 10.333 113.5 31 140.5s51.334 40.5 92.001 40.5s71.334 -13.5 92.001 -40.5s31 -73.833 31 -140.5c0 -66 -10.333 -112.5 -31 -139.5s-51.334 -40.5 -92.001 -40.5s-71.334 13.5 -92.001 40.5zM454 83c4.66699 14.667 7 40.667 7 78v15
c0 37.333 -2.33301 63.333 -7 78s-13.667 22 -27 22s-22.333 -7.33301 -27 -22s-7 -40.667 -7 -78v-15c0 -37.333 2.33301 -63.333 7 -78s13.667 -22 27 -22s22.333 7.33301 27 22zM724 83c4.66699 14.667 7 40.667 7 78v15c0 37.333 -2.33301 63.333 -7 78
s-13.667 22 -27 22s-22.333 -7.33301 -27 -22s-7 -40.667 -7 -78v-15c0 -37.333 2.33301 -63.333 7 -78s13.667 -22 27 -22s22.333 7.33301 27 22z" />
    <glyph glyph-name="minute" unicode="&#x2032;" horiz-adv-x="195" 
d="M48 686h110l1 -3l-47 -177h-89z" />
    <glyph glyph-name="second" unicode="&#x2033;" horiz-adv-x="389" 
d="M48 686h110l1 -3l-47 -177h-89zM199 686h110l1 -3l-47 -177h-89z" />
    <glyph glyph-name="guilsinglleft" unicode="&#x2039;" horiz-adv-x="273" 
d="M19 326l136 200h91l-108 -200l108 -200h-91z" />
    <glyph glyph-name="guilsinglright" unicode="&#x203a;" horiz-adv-x="273" 
d="M135 326l-108 200h91l136 -200l-136 -200h-91z" />
    <glyph glyph-name="exclamdbl" unicode="&#x203c;" horiz-adv-x="546" 
d="M60 686h153l-36 -489h-82zM333 686h153l-36 -489h-82zM68 137h138v-137h-138v137zM341 137h138v-137h-138v137z" />
    <glyph glyph-name="uni203E" unicode="&#x203e;" horiz-adv-x="500" 
d="M0 860h500v-69h-500v69z" />
    <glyph glyph-name="fraction" unicode="&#x2044;" horiz-adv-x="137" 
d="M230 698h66l-395 -710h-67z" />
    <glyph glyph-name="uni207F" unicode="&#x207f;" horiz-adv-x="325" 
d="M31 726h72.001l8 -43h4c21.333 34 49.666 51 84.999 51c62.667 0 94 -38 94 -114v-248h-86v226c0 20.667 -3.5 35.667 -10.5 45s-17.167 14 -30.5 14c-14.667 0 -26.667 -6.33301 -36 -19s-14 -28.667 -14 -48v-218h-86v354z" />
    <glyph glyph-name="franc" unicode="&#x20a3;" horiz-adv-x="504" 
d="M40 686h353.001v-114h-225v-173h100v78h100l14 -77h6c16 59.333 43 89 81 89c8 0 14.667 -1.16699 20 -3.5s8.66602 -3.83301 9.99902 -4.5v-116h-13c-29.333 0 -53 -9.33301 -71 -28s-27 -49.667 -27 -93v-244h-120v285h-100v-285h-128v686z" />
    <glyph glyph-name="lira" unicode="&#x20a4;" 
d="M20 108l51.001 -0.000976562v115h-62v85h62v41h-62v85h62v65c0 65.333 15.833 114.833 47.5 148.5s76.167 50.5 133.5 50.5c56 0 100.167 -16.5 132.5 -49.5s48.5 -81.167 48.5 -144.5v-5h-119v18c0 26 -5.5 45.833 -16.5 59.5s-26.167 20.5 -45.5 20.5
c-18.667 0 -33.334 -6.16699 -44.001 -18.5s-16 -30.166 -16 -53.499v-91h114v-85h-114v-41h114v-85h-115l-11 -115h246v-108h-406v108z" />
    <glyph glyph-name="peseta" unicode="&#x20a7;" horiz-adv-x="960" 
d="M628 43l0.000976562 -43.001c-8.66699 -3.33301 -19.5 -6.16602 -32.5 -8.49902s-24.833 -3.5 -35.5 -3.5c-44 0 -75.667 13.5 -95 40.5s-29 60.5 -29 100.5v296h-21c-10.667 -49.333 -34.5 -88.166 -71.5 -116.499s-82.833 -42.5 -137.5 -42.5h-28v-266h-128v686h156
c59.333 0 107.166 -14.5 143.499 -43.5s58.833 -67.833 67.5 -116.5h19l29 148h87v-148h144c22.667 8 46.334 12 71.001 12c33.333 0 61.666 -6.83301 84.999 -20.5s40.833 -31 52.5 -52s17.5 -42.5 17.5 -64.5l-1 -29h-116v13c-0.666992 16.667 -4.5 30 -11.5 40
s-17.167 15 -30.5 15c-15.333 0 -26.666 -4.5 -33.999 -13.5s-11 -19.167 -11 -30.5c0 -20 6.83301 -35.333 20.5 -46s35.5 -23 65.5 -37c26.667 -12 48.667 -23.5 66 -34.5s32.166 -26.5 44.499 -46.5s18.5 -45.333 18.5 -76c0 -54.667 -14.167 -96.334 -42.5 -125.001
s-68.833 -43 -121.5 -43c-63.333 0 -110.333 18.333 -141 55zM193.001 378.999c30.667 0 54.333 8.83301 71 26.5s25 42.5 25 74.5c0 28 -8.5 50.333 -25.5 67s-40.5 25 -70.5 25h-15v-193h15zM801.5 99.499c9 9 13.5 20.833 13.5 35.5c0 21.333 -7 37.833 -21 49.5
s-35.333 23.5 -64 35.5c-26.667 12 -48.667 23.5 -66 34.5s-32.166 27.167 -44.499 48.5s-18.5 48.666 -18.5 81.999c0 12 1.66699 25.333 5 40h-54v-293c0 -14 3.66699 -24.667 11 -32s17.666 -11 30.999 -11h8c-5.33301 18 -8 37 -8 57c0 5.33301 0.333008 9.83301 1 13.5
s1 5.83398 1 6.50098h116v-16c0 -18.667 4.66699 -34 14 -46s22.333 -18 39 -18c15.333 0 27.5 4.5 36.5 13.5z" />
    <glyph glyph-name="Euro" unicode="&#x20ac;" 
d="M172 51.5c-50.667 42.333 -84.667 100.832 -102 175.499h-60v81h49c-0.666992 7.33301 -1 19 -1 35c0 15.333 0.333008 27 1 35h-49v81h60c17.333 74.667 51.333 133.167 102 175.5s113.334 63.5 188.001 63.5c27.333 0 52 -3.33301 74 -10v-100c-20 6 -41.333 9 -64 9
c-42.667 0 -79.167 -12.167 -109.5 -36.5s-52.5 -58.166 -66.5 -101.499h180v-81h-195c-0.666992 -8 -1 -19.667 -1 -35c0 -16 0.333008 -27.667 1 -35h195v-81h-180c14 -44 36.167 -78 66.5 -102s66.833 -36 109.5 -36c22.667 0 44 3 64 9v-99
c-25.333 -7.33301 -50 -11 -74 -11c-74.667 0 -137.334 21.167 -188.001 63.5z" />
    <glyph glyph-name="uni2105" unicode="&#x2105;" horiz-adv-x="790" 
d="M73 357c-22.667 31.333 -34.001 80.333 -34.001 147c0 66 11.5 114.833 34.5 146.5s57.5 47.5 103.5 47.5c40.667 0 72.334 -12 95.001 -36s34 -61.333 34 -112h-86c0 51.333 -14.333 77 -43 77c-17.333 0 -30 -9.16699 -38 -27.5s-12 -45.833 -12 -82.5v-26
c0 -37.333 4 -65 12 -83s21.333 -27 40 -27c15.333 0 26.333 6.33301 33 19s10 32 10 58h84c0 -50.667 -11 -88 -33 -112s-53.333 -36 -94 -36c-48 0 -83.333 15.667 -106 47zM541.999 698h76l-415 -710h-77zM464.499 34.5c-24.333 31.667 -36.5 80.5 -36.5 146.5
s12.167 114.833 36.5 146.5s61.5 47.5 111.5 47.5s87.167 -15.833 111.5 -47.5s36.5 -80.5 36.5 -146.5s-12.167 -114.833 -36.5 -146.5s-61.5 -47.5 -111.5 -47.5s-87.167 15.833 -111.5 47.5zM621.999 85c9.33301 18 14 45.667 14 83v26c0 37.333 -4.66699 65 -14 83
s-24.666 27 -45.999 27s-36.666 -9 -45.999 -27s-14 -45.667 -14 -83v-26c0 -37.333 4.66699 -65 14 -83s24.666 -27 45.999 -27s36.666 9 45.999 27z" />
    <glyph glyph-name="uni2113" unicode="&#x2113;" horiz-adv-x="490" 
d="M154.5 37.5c-30.333 33 -45.833 76.166 -46.5 129.499v3c-32 -23.333 -49.667 -36 -53 -38v89c19.333 14 37 28 53 42v245c0 79.333 15.833 137 47.5 173s71.5 54 119.5 54c45.333 0 80.666 -13.167 105.999 -39.5s38 -64.166 38 -113.499
c0 -43.333 -17.333 -92 -52 -146s-81 -108.667 -139 -164v-74c0 -38 7.16699 -66 21.5 -84s32.833 -27 55.5 -27c34.667 0 67.667 10 99 30v-103c-34.667 -17.333 -72 -26 -112 -26c-61.333 0 -107.166 16.5 -137.499 49.5zM330 582.999c0 45.333 -13.999 68 -41.999 68
c-16.667 0 -30.834 -11.5 -42.501 -34.5s-17.5 -59.167 -17.5 -108.5v-127c68 78.667 102 146 102 202z" />
    <glyph glyph-name="uni2116" unicode="&#x2116;" horiz-adv-x="914" 
d="M589 501c0 131.333 46.667 197 140 197s140 -65.667 140 -197s-46.667 -197 -140 -197s-140 65.667 -140 197zM60 686l113 -0.000976562l212 -378c4.66699 -7.33301 10.5 -18.5 17.5 -33.5s11.5 -25.167 13.5 -30.5l3 3l-1 57v382h114v-686h-114l-212 378l-17.5 36
l-13.5 28l-4 -3c0 -4 0.333008 -11.667 1 -23s1 -22.666 1 -33.999v-382h-113v686zM777 487.999v26c0 69.333 -16 104 -48 104c-16 0 -28 -8.83301 -36 -26.5s-12 -43.5 -12 -77.5v-26c0 -34 4 -59.833 12 -77.5s20 -26.5 36 -26.5c32 0 48 34.667 48 104zM606 263.999h247
v-84h-247v84z" />
    <glyph glyph-name="trademark" unicode="&#x2122;" horiz-adv-x="820" 
d="M177 619h-100v67h276v-67h-101v-337h-75v337zM385 686h111l63 -283h4l63 283h104v-404h-72v293h-4l-66 -293h-67l-65 293h-5v-293h-66v404z" />
    <glyph glyph-name="uni2126" unicode="&#x2126;" horiz-adv-x="768" 
d="M98 114l24.9971 0.00195312c3.33301 0 14.333 -2 33 -6c13.333 -3.33301 27 -6 41 -8c-31.333 26.667 -55.666 60.334 -72.999 101.001s-26 88 -26 142c0 118.667 24.833 207.5 74.5 266.5s119.834 88.5 210.501 88.5s160.667 -29.5 210 -88.5s74 -147.833 74 -266.5
c0 -54 -8.66699 -101.333 -26 -142s-41.666 -74.334 -72.999 -101.001c12 2 25 4.66699 39 8c20 4 32 6 36 6h24v-114h-246v81c38 10 66.667 33.5 86 70.5s29 85.167 29 144.5v72c0 70 -13 124.167 -39 162.5s-64 57.5 -114 57.5s-88.167 -19.333 -114.5 -58
s-39.5 -92.667 -39.5 -162v-72c0 -58.667 9.83301 -106.334 29.5 -143.001s48.5 -60.334 86.5 -71.001v-82h-247v114z" />
    <glyph glyph-name="estimated" unicode="&#x212e;" horiz-adv-x="600" 
d="M165.5 23.5c-39 23.667 -68.8359 56.168 -89.5029 97.501s-31 88.666 -31 141.999s10.333 100.666 31 141.999s50.5 73.833 89.5 97.5s84.5 35.5 136.5 35.5s97.333 -12.167 136 -36.5s68.5 -58.166 89.5 -101.499s31.5 -92.333 31.5 -147v-5h-406v-165
c38.667 -35.333 88.334 -53 149.001 -53c43.333 0 81.5 9.66699 114.5 29s58.167 46 75.5 80l34 -21c-21.333 -40.667 -51.166 -72.5 -89.499 -95.5s-83.166 -34.5 -134.499 -34.5c-52 0 -97.5 11.833 -136.5 35.5zM450.997 290.001v151c-40 36.667 -89.667 55 -149 55
c-60 0 -109.667 -18 -149 -54v-152h298z" />
    <glyph glyph-name="oneeighth" unicode="&#x215b;" horiz-adv-x="684" 
d="M518 698h66l-395 -710h-67zM33 352l74 -0.000976562v233h-75v56c15.333 2 34.333 7.33301 57 16s42 18.334 58 29.001h40v-334h66v-69h-220v69zM446.5 20.499c-19.667 22.333 -29.4971 51.499 -29.4971 87.499c0 44 15.667 75.667 47 95c-12 10.667 -21.5 24 -28.5 40
s-10.5 32.667 -10.5 50c0 33.333 9.83301 61 29.5 83s47.167 33 82.5 33s62.833 -11 82.5 -33s29.5 -49.667 29.5 -83c0 -18 -3.33301 -34.833 -10 -50.5s-16.334 -28.5 -29.001 -38.5c15.333 -10 27 -23.167 35 -39.5s12 -35.166 12 -56.499
c0 -36 -9.83301 -65.167 -29.5 -87.5s-49.834 -33.5 -90.501 -33.5s-70.834 11.167 -90.501 33.5zM568.003 287.998c0 35.333 -10.333 53 -31 53s-31 -17.667 -31 -53c0 -34.667 10.333 -52 31 -52s31 17.333 31 52zM575.003 111.998c0 38 -12.667 57.002 -38 57.002
c-12 0 -21.333 -4.83301 -28 -14.5s-10 -23.834 -10 -42.501s3.33301 -32.834 10 -42.501s16 -14.5 28 -14.5c25.333 0 38 19 38 57z" />
    <glyph glyph-name="threeeighths" unicode="&#x215c;" horiz-adv-x="684" 
d="M514 698h66l-395 -710h-67zM55.5 297.5c-21.667 22.333 -32.4971 52.834 -32.4971 91.501v15h82v-17c0 -36 13.333 -54 40 -54c11.333 0 20.5 4.5 27.5 13.5s10.5 22.5 10.5 40.5c0 38.667 -14 58 -42 58h-25v67h26c9.33301 0 17.333 5 24 15s10 24 10 42
c0 32 -10.333 48 -31 48c-22 0 -33 -16.667 -33 -50v-16h-82v21c0 34 10.5 61.5 31.5 82.5s48.5 31.5 82.5 31.5c34.667 0 62.5 -10 83.5 -30s31.5 -48 31.5 -84c0 -21.333 -4.33301 -38.833 -13 -52.5s-21.334 -26.167 -38.001 -37.5
c17.333 -8.66699 31.166 -21.334 41.499 -38.001s15.5 -37 15.5 -61c0 -36.667 -11 -65.667 -33 -87s-50.667 -32 -86 -32c-38.667 0 -68.834 11.167 -90.501 33.5zM446.503 21.501c-19.667 22.333 -29.4971 51.499 -29.4971 87.499c0 44 15.667 75.667 47 95
c-12 10.667 -21.5 24 -28.5 40s-10.5 32.667 -10.5 50c0 33.333 9.83301 61 29.5 83s47.167 33 82.5 33s62.833 -11 82.5 -33s29.5 -49.667 29.5 -83c0 -18 -3.33301 -34.833 -10 -50.5s-16.334 -28.5 -29.001 -38.5c15.333 -10 27 -23.167 35 -39.5s12 -35.166 12 -56.499
c0 -36 -9.83301 -65.167 -29.5 -87.5s-49.834 -33.5 -90.501 -33.5s-70.834 11.167 -90.501 33.5zM568.006 289c0 35.333 -10.333 53 -31 53s-31 -17.667 -31 -53c0 -34.667 10.333 -52 31 -52s31 17.333 31 52zM575.006 113c0 38 -12.667 57.002 -38 57.002
c-12 0 -21.333 -4.83301 -28 -14.5s-10 -23.834 -10 -42.501s3.33301 -32.834 10 -42.501s16 -14.5 28 -14.5c25.333 0 38 19 38 57z" />
    <glyph glyph-name="fiveeighths" unicode="&#x215d;" horiz-adv-x="684" 
d="M512 698h66l-395 -710h-67zM58.5 307c-22.333 23.333 -33.502 55 -33.502 95h83c0 -19.333 3.5 -34.666 10.5 -45.999s16.833 -17 29.5 -17c12 0 21.5 6.33301 28.5 19s10.5 31 10.5 55c0 21.333 -3.33301 38 -10 50s-15 18 -25 18c-17.333 0 -30.666 -12 -39.999 -36
l-75 12l13 229h202v-75h-132l-4 -82c16 11.333 33 17 51 17c30 0 54.667 -11.333 74 -34s29 -55.667 29 -99c0 -44.667 -11 -79.334 -33 -104.001s-51.667 -37 -89 -37s-67.166 11.667 -89.499 35zM446.498 20.5c-19.667 22.333 -29.4971 51.499 -29.4971 87.499
c0 44 15.667 75.667 47 95c-12 10.667 -21.5 24 -28.5 40s-10.5 32.667 -10.5 50c0 33.333 9.83301 61 29.5 83s47.167 33 82.5 33s62.833 -11 82.5 -33s29.5 -49.667 29.5 -83c0 -18 -3.33301 -34.833 -10 -50.5s-16.334 -28.5 -29.001 -38.5
c15.333 -10 27 -23.167 35 -39.5s12 -35.166 12 -56.499c0 -36 -9.83301 -65.167 -29.5 -87.5s-49.834 -33.5 -90.501 -33.5s-70.834 11.167 -90.501 33.5zM568.001 287.999c0 35.333 -10.333 53 -31 53s-31 -17.667 -31 -53c0 -34.667 10.333 -52 31 -52s31 17.333 31 52z
M575.001 111.999c0 38 -12.667 57.002 -38 57.002c-12 0 -21.333 -4.83301 -28 -14.5s-10 -23.834 -10 -42.501s3.33301 -32.834 10 -42.501s16 -14.5 28 -14.5c25.333 0 38 19 38 57z" />
    <glyph glyph-name="seveneighths" unicode="&#x215e;" horiz-adv-x="684" 
d="M487 698h66l-395 -710h-67zM87 288c0 57.333 10.667 114.168 32 170.501s48.333 107.166 81 152.499h-157v75h247v-53c-34 -52 -62 -104 -84 -156s-33 -105.333 -33 -160v-34h-86v5zM446.5 20.502c-19.667 22.333 -29.4971 51.499 -29.4971 87.499
c0 44 15.667 75.667 47 95c-12 10.667 -21.5 24 -28.5 40s-10.5 32.667 -10.5 50c0 33.333 9.83301 61 29.5 83s47.167 33 82.5 33s62.833 -11 82.5 -33s29.5 -49.667 29.5 -83c0 -18 -3.33301 -34.833 -10 -50.5s-16.334 -28.5 -29.001 -38.5
c15.333 -10 27 -23.167 35 -39.5s12 -35.166 12 -56.499c0 -36 -9.83301 -65.167 -29.5 -87.5s-49.834 -33.5 -90.501 -33.5s-70.834 11.167 -90.501 33.5zM568.003 288.001c0 35.333 -10.333 53 -31 53s-31 -17.667 -31 -53c0 -34.667 10.333 -52 31 -52s31 17.333 31 52z
M575.003 112.001c0 38 -12.667 57.002 -38 57.002c-12 0 -21.333 -4.83301 -28 -14.5s-10 -23.834 -10 -42.501s3.33301 -32.834 10 -42.501s16 -14.5 28 -14.5c25.333 0 38 19 38 57z" />
    <glyph glyph-name="arrowleft" unicode="&#x2190;" horiz-adv-x="1000" 
d="M42 242v21l197 173h52l-53 -130h722v-108h-722l53 -130h-52z" />
    <glyph glyph-name="arrowup" unicode="&#x2191;" horiz-adv-x="500" 
d="M197 515l-129 -53v52l173 197h21l173 -197v-52l-129 53v-722h-109v722z" />
    <glyph glyph-name="arrowright" unicode="&#x2192;" horiz-adv-x="1000" 
d="M764 198h-722v108h722l-53 130h52l197 -174v-21l-197 -173h-52z" />
    <glyph glyph-name="arrowdown" unicode="&#x2193;" horiz-adv-x="500" 
d="M68 -10v52l130 -53v722h108v-722l130 53v-52l-174 -197h-21z" />
    <glyph glyph-name="arrowboth" unicode="&#x2194;" horiz-adv-x="1000" 
d="M42 242v21l197 173h52l-53 -129h526l-53 129h52l197 -173v-21l-197 -173h-52l53 129h-526l53 -129h-52z" />
    <glyph glyph-name="arrowupdn" unicode="&#x2195;" horiz-adv-x="500" 
d="M65 -10v52l130 -53v526l-130 -53v52l174 197h21l173 -197v-52l-130 53v-526l130 53v-52l-173 -197h-21z" />
    <glyph glyph-name="arrowupdnbse" unicode="&#x21a8;" horiz-adv-x="500" 
d="M65 97v52l130 -53v419l-130 -53v52l174 197h21l173 -197v-52l-130 53v-419l130 53v-52l-173 -197h-21zM66 -147h367v-86h-367v86z" />
    <glyph glyph-name="partialdiff" unicode="&#x2202;" horiz-adv-x="494" 
d="M118 17c-27.333 19.333 -47.834 45.501 -61.501 78.501s-20.5 69.167 -20.5 108.5c0 48.667 8.83301 91.667 26.5 129s40.834 66 69.501 86s59.667 30 93 30c26 0 48.333 -7 67 -21s32 -28.667 40 -44h4c0.666992 4 1 15.333 1 34c0 40 -5.83301 76.667 -17.5 110
s-27.834 59.666 -48.501 78.999s-43.667 29 -69 29c-40.667 0 -76.667 -11.333 -108 -34v104c37.333 19.333 80 29 128 29c41.333 0 79.833 -12.5 115.5 -37.5s64.334 -63.833 86.001 -116.5s32.5 -118.667 32.5 -198c0 -124 -20.833 -220.833 -62.5 -290.5
s-100.5 -104.5 -176.5 -104.5c-38.667 0 -71.667 9.66699 -99 29zM294.499 146.001c19 37.333 30.499 81.666 34.499 132.999c-5.33301 19.333 -15.166 36.333 -29.499 51s-31.5 22 -51.5 22c-16 0 -30.667 -6.83301 -44 -20.5s-23.833 -32 -31.5 -55
s-11.5 -48.167 -11.5 -75.5c0 -33.333 5.5 -60.166 16.5 -80.499s26.5 -30.5 46.5 -30.5c28 0 51.5 18.667 70.5 56z" />
    <glyph glyph-name="uni2206" unicode="&#x2206;" horiz-adv-x="589" 
d="M13 55l203 631h149l203 -631v-55h-555v55zM420 114l-131 427h-4l-131 -427h266z" />
    <glyph glyph-name="product" unicode="&#x220f;" horiz-adv-x="823" 
d="M178 621h-82v102h631v-102h-83v-749h-121v749h-224v-749h-121v749z" />
    <glyph glyph-name="summation" unicode="&#x2211;" horiz-adv-x="713" 
d="M77 -65l290 364l-281 357v67h569v-98h-389v-4l242 -306l-253 -321v-4h417v-118h-595v63z" />
    <glyph glyph-name="minus" unicode="&#x2212;" horiz-adv-x="479" 
d="M33 307h412v-104h-412v104z" />
    <glyph glyph-name="uni2215" unicode="&#x2215;" horiz-adv-x="137" 
d="M230 698h66l-395 -710h-67z" />
    <glyph glyph-name="uni2219" unicode="&#x2219;" horiz-adv-x="273" 
d="M73 411h125v-135h-125v135z" />
    <glyph glyph-name="radical" unicode="&#x221a;" horiz-adv-x="549" 
d="M117 293l-77 -29.999l-20 60l172 68l74 -204l53 -143c6.66699 -18.667 13.667 -43.334 21 -74.001l137 887h81l-162 -1005h-110z" />
    <glyph glyph-name="infinity" unicode="&#x221e;" horiz-adv-x="713" 
d="M122.5 157.5c-23 13 -41.333 31.5 -55 55.5s-20.5 51.667 -20.5 83s6.83301 59.166 20.5 83.499s32.5 43.333 56.5 57s50.667 20.5 80 20.5c32.667 0 61.667 -7.5 87 -22.5s49 -37.5 71 -67.5c3.33301 4 12.833 14.667 28.5 32s33.834 31.333 54.501 42s43 16 67 16
c27.333 0 52.666 -6.33301 75.999 -19s41.833 -30.667 55.5 -54s20.5 -50.666 20.5 -81.999c0 -33.333 -7 -62.5 -21 -87.5s-32.667 -44 -56 -57s-48.333 -19.5 -75 -19.5s-53.167 6.33301 -79.5 19s-52.5 37.667 -78.5 75c-24.667 -31.333 -49.167 -54.833 -73.5 -70.5
s-52.5 -23.5 -84.5 -23.5c-26 0 -50.5 6.5 -73.5 19.5zM309 293c-21.333 32.667 -38.667 54.501 -52 65.501s-30.333 16.5 -51 16.5c-18.667 0 -34.167 -6.83301 -46.5 -20.5s-18.5 -32.834 -18.5 -57.501c0 -20.667 6.5 -38.5 19.5 -53.5s29.167 -22.5 48.5 -22.5
c34 0 67.333 24 100 72zM552.999 245.001c11.333 16 16.999 33 16.999 51c0 22.667 -6.16699 41.5 -18.5 56.5s-28.5 22.5 -48.5 22.5c-16.667 0 -31.667 -5.33301 -45 -16s-31.666 -31 -54.999 -61c22 -30.667 40.5 -51.167 55.5 -61.5s31.5 -15.5 49.5 -15.5
c18.667 0 33.667 8 45 24z" />
    <glyph glyph-name="orthogonal" unicode="&#x221f;" horiz-adv-x="979" 
d="M157 625h118v-515h527v-110h-645v625z" />
    <glyph glyph-name="intersection" unicode="&#x2229;" horiz-adv-x="722" 
d="M79 410c0 51.333 12.5 98.167 37.5 140.5s58.833 75.5 101.5 99.5s89.667 36 141 36s98.333 -12 141 -36s76.5 -57 101.5 -99s37.5 -89 37.5 -141l2 -410h-120v410c0 32.667 -7.16699 61.834 -21.5 87.501s-33.833 45.667 -58.5 60s-51.667 21.5 -81 21.5
s-56.333 -7.16699 -81 -21.5s-44.167 -34.333 -58.5 -60s-21.5 -54.834 -21.5 -87.501v-410h-120v410z" />
    <glyph glyph-name="integral" unicode="&#x222b;" horiz-adv-x="274" 
d="M23 -71c50 0 75 19.332 75 57.999l-15.5 382c-7.66699 189.333 -11.5 315.333 -11.5 378c0 43.333 16.667 72.833 50 88.5s79.333 23.5 138 23.5v-69c-51.333 0 -77 -19 -77 -57c3.33301 -65.333 8.83301 -193.166 16.5 -383.499s11.5 -316.5 11.5 -378.5
c0 -43.333 -16.5 -72.833 -49.5 -88.5s-78.833 -23.5 -137.5 -23.5v70z" />
    <glyph glyph-name="approxequal" unicode="&#x2248;" horiz-adv-x="549" 
d="M27 345c0 2 6.16699 9.33301 18.5 22s29.166 24.334 50.499 35.001s46 16 74 16c16.667 0 32.167 -2.5 46.5 -7.5s32.833 -12.5 55.5 -22.5c20.667 -10 39 -17.667 55 -23s32.667 -8 50 -8c24.667 0 47.667 5.33301 69 16s39 22.5 53 35.5s21 20.167 21 21.5v-120
c0 -2 -6.16699 -9.33301 -18.5 -22s-29.166 -24.334 -50.499 -35.001s-46 -16 -74 -16c-16.667 0 -32.167 2.5 -46.5 7.5s-32.833 12.5 -55.5 22.5c-20.667 10 -39 17.667 -55 23s-32.667 8 -50 8c-24.667 0 -47.667 -5.33301 -69 -16s-39 -22.5 -53 -35.5
s-21 -20.167 -21 -21.5v120zM27 134c0 2 6.16699 9.33301 18.5 22s29.166 24.334 50.499 35.001s46 16 74 16c16.667 0 32.167 -2.5 46.5 -7.5s32.833 -12.5 55.5 -22.5c20.667 -10 39 -17.667 55 -23s32.667 -8 50 -8c24.667 0 47.667 5.33301 69 16s39 22.5 53 35.5
s21 20.167 21 21.5v-120c0 -2 -6.16699 -9.33301 -18.5 -22s-29.166 -24.334 -50.499 -35.001s-46 -16 -74 -16c-16.667 0 -32.167 2.5 -46.5 7.5s-32.833 12.5 -55.5 22.5c-20.667 10 -39 17.667 -55 23s-32.667 8 -50 8c-24.667 0 -47.667 -5.33301 -69 -16
s-39 -22.5 -53 -35.5s-21 -20.167 -21 -21.5v120z" />
    <glyph glyph-name="notequal" unicode="&#x2260;" horiz-adv-x="549" 
d="M157 96h-85v103h137l56 109h-193v104h245l37 72h81l-37 -72h86v-104h-138l-56 -109h194v-103h-246l-36 -71h-81z" />
    <glyph glyph-name="equivalence" unicode="&#x2261;" horiz-adv-x="478" 
d="M33 546h412v-104h-412v104zM33 333h412v-104h-412v104zM33 120h412v-103h-412v103z" />
    <glyph glyph-name="lessequal" unicode="&#x2264;" horiz-adv-x="549" 
d="M69 350v127l412 207v-118l-311 -152l311 -152v-118zM69 103h412v-103h-412v103z" />
    <glyph glyph-name="greaterequal" unicode="&#x2265;" horiz-adv-x="549" 
d="M69 262l311 152l-311 152v118l412 -207v-127l-412 -206v118zM69 103h412v-103h-412v103z" />
    <glyph glyph-name="house" unicode="&#x2302;" horiz-adv-x="600" 
d="M75 310l225 253l225 -253v-310h-450v310zM433 89v188l-133 151l-133 -151v-188h266z" />
    <glyph glyph-name="revlogicalnot" unicode="&#x2310;" horiz-adv-x="479" 
d="M34 463h416v-113h-312v-163h-104v276z" />
    <glyph glyph-name="integraltp" unicode="&#x2320;" horiz-adv-x="604" 
d="M239 747c0 43.333 16.667 72.833 50 88.5s79.333 23.5 138 23.5v-69c-51.333 0 -77 -19 -77 -57l17 -983h-114c-9.33301 586.667 -14 919 -14 997z" />
    <glyph glyph-name="integralbt" unicode="&#x2321;" horiz-adv-x="604" 
d="M177 -181c51.333 0 77 19 77 57l-17 983h114c9.33301 -586.667 14 -919 14 -997c0 -43.333 -16.667 -72.833 -50 -88.5s-79.333 -23.5 -138 -23.5v69z" />
    <glyph glyph-name="uniF6C3" unicode="&#xf6c3;" horiz-adv-x="0" 
d="M-151 -178h-49v123h124v-112l-46 -96h-65z" />
    <glyph glyph-name="uniFB01" unicode="&#xfb01;" horiz-adv-x="501" 
d="M62 425l-53.001 -0.000976562v101h53v64c0 40 9.66699 73.5 29 100.5s51 40.5 95 40.5c13.333 0 28.5 -1.16699 45.5 -3.5s30.833 -5.16602 41.5 -8.49902v-89h-49c-13.333 0 -23.666 -3.66699 -30.999 -11s-11 -18 -11 -32v-61h91v-101h-91v-425h-120v425z
M326.999 722.999h120v-109h-120v109zM326.999 525.999h120v-526h-120v526z" />
    <glyph glyph-name="uniFB02" unicode="&#xfb02;" horiz-adv-x="501" 
d="M62 425l-53.001 -0.000976562v101h53v64c0 40 9.66699 73.5 29 100.5s51 40.5 95 40.5c13.333 0 28.5 -1.16699 45.5 -3.5s30.833 -5.16602 41.5 -8.49902v-89h-49c-13.333 0 -23.666 -3.66699 -30.999 -11s-11 -18 -11 -32v-61h91v-101h-91v-425h-120v425z
M326.999 722.999h120v-723h-120v723z" />
    <glyph glyph-name="ampersand.alt" horiz-adv-x="592" 
d="M440 0l-31.999 42.9971c-48 -37.333 -102 -56 -162 -56c-44.667 0 -82.5 8.83301 -113.5 26.5s-54.167 41.334 -69.5 71.001s-23 61.834 -23 96.501c0 40 10 78.833 30 116.5s48.333 68.834 85 93.501c-28.667 44 -43 89.333 -43 136c0 31.333 7 60 21 86
s34.333 46.667 61 62s58.334 23 95.001 23c49.333 0 87.166 -13.5 113.499 -40.5s39.5 -61.167 39.5 -102.5c0 -37.333 -10.833 -74.5 -32.5 -111.5s-51.834 -66.833 -90.501 -89.5l92 -128c11.333 37.333 17 81.333 17 132h110c0 -90 -18.667 -167 -56 -231l91 -127h-133z
M242.001 578.497c-9.33301 -12.333 -13.999 -28.5 -13.999 -48.5c0 -16 2.66699 -32.833 8 -50.5s12.666 -33.5 21.999 -47.5c20.667 10 37.667 26.167 51 48.5s20 44.5 20 66.5c0 14.667 -3.83301 26.667 -11.5 36s-19.167 14 -34.5 14c-18 0 -31.667 -6.16699 -41 -18.5z
M349.002 123.997l-134 184c-17.333 -12 -30.833 -28.333 -40.5 -49s-14.5 -42.667 -14.5 -66c0 -29.333 8 -54 24 -74s39 -30 69 -30c36.667 0 68.667 11.667 96 35z" />
    </font>
</defs>
</svg>
