<?xml version="1.0" standalone="no"?>
<!DOCTYPE svg PUBLIC "-//W3C//DTD SVG 1.1//EN" "http://www.w3.org/Graphics/SVG/1.1/DTD/svg11.dtd" >
<svg>
<metadata>
Created by FontForge 20090914 at Thu May 20 08:35:36 2021
 By www-data
Copyright 2017 The Archivo Narrow Project Authors (https://github.com/Omnibus-Type/ArchivoNarrow)
</metadata>
<defs>
<font id="ArchivoNarrow-Italic" horiz-adv-x="456" >
  <font-face 
    font-family="Archivo Narrow"
    font-weight="400"
    font-style="italic"
    font-stretch="normal"
    units-per-em="1000"
    panose-1="2 11 5 6 2 2 2 9 11 4"
    ascent="800"
    descent="-200"
    x-height="526"
    cap-height="686"
    bbox="-228 -303 965 957"
    underline-thickness="50"
    underline-position="-50"
    slope="-8"
    unicode-range="U+000D-U+FB02"
  />
<missing-glyph horiz-adv-x="500" 
d="M61 700h500l-99 -700h-499zM474 650h-340l134 -255zM232 350l-135 255l-71 -510zM497 605l-205 -255l134 -255zM389 50l-134 255l-206 -255h340z" />
    <glyph glyph-name=".notdef" horiz-adv-x="500" 
d="M61 700h500l-99 -700h-499zM474 650h-340l134 -255zM232 350l-135 255l-71 -510zM497 605l-205 -255l134 -255zM389 50l-134 255l-206 -255h340z" />
    <glyph glyph-name="NULL" horiz-adv-x="0" 
 />
    <glyph glyph-name="NULL" horiz-adv-x="0" 
 />
    <glyph glyph-name="nonmarkingreturn" unicode="&#xd;" horiz-adv-x="228" 
 />
    <glyph glyph-name="space" unicode=" " horiz-adv-x="228" 
 />
    <glyph glyph-name="exclam" unicode="!" horiz-adv-x="228" 
d="M128 686h113l-99 -515h-62zM53 108h100l-15 -108h-100z" />
    <glyph glyph-name="quotedbl" unicode="&#x22;" horiz-adv-x="291" 
d="M75 539l21 147h82l-21 -147l-39 -132h-39zM208 539l21 147h82l-21 -147l-40 -132h-39z" />
    <glyph glyph-name="numbersign" unicode="#" 
d="M81 179h-64v76h81l34 155h-76v76h93l47 210h76l-47 -210h90l47 210h76l-47 -210h60v-76h-77l-34 -155h71v-76h-88l-40 -179h-76l40 179h-90l-40 -179h-76zM264 255l34 155h-90l-34 -155h90z" />
    <glyph glyph-name="dollar" unicode="$" 
d="M183 72c-38 8 -68.833 26 -92.5 54s-35.5 62.667 -35.5 104c0 14 0.666992 24.667 2 32h81c-2 -10.667 -3 -21.334 -3 -32.001c0 -21.333 5.16699 -39.166 15.5 -53.499s24.5 -24.5 42.5 -30.5l25 176c-24.667 14 -44.5 26.667 -59.5 38s-27.833 26 -38.5 44
s-16 40 -16 66c0 41.333 13.5 75.666 40.5 102.999s65.5 42.333 115.5 45l15 105h48l-16 -108c40 -7.33301 69.833 -26 89.5 -56s29.5 -65.333 29.5 -106h-81c0 44 -16 72.667 -48 86l-22 -156c27.333 -13.333 49 -25.5 65 -36.5s29.833 -26.167 41.5 -45.5
s17.5 -43.666 17.5 -72.999c0 -49.333 -15.167 -88 -45.5 -116s-71.5 -42.667 -123.5 -44l-16 -118h-48zM250 545c-17.333 -2.66699 -32.5 -9.66797 -45.5 -21.001s-19.5 -25.333 -19.5 -42c0 -29.333 15 -53.666 45 -72.999zM296.5 163.999c14.333 14 21.501 31 21.501 51
c0 17.333 -4.83301 32.333 -14.5 45s-23.5 24.667 -41.5 36l-22 -156c23.333 2 42.166 10 56.499 24z" />
    <glyph glyph-name="percent" unicode="%" horiz-adv-x="729" 
d="M102.5 365c-19.667 18.667 -29.501 49.668 -29.501 93.001c0 86 13.833 147.5 41.5 184.5s63.834 55.5 108.501 55.5c38 0 66.667 -9.16699 86 -27.5s29 -49.5 29 -93.5c0 -62.667 -11 -118.334 -33 -167.001s-60.667 -73 -116 -73c-38 0 -66.833 9.33301 -86.5 28z
M599.999 686.001h71l-516 -686h-70zM239.499 425.001c11 19.333 19.167 47.665 24.5 84.998c4 26.667 6 47.667 6 63c0 44 -15.667 66 -47 66c-22.667 0 -39.5 -9.66699 -50.5 -29s-19.167 -47.666 -24.5 -84.999c-4 -26.667 -6 -47.667 -6 -63
c0 -21.333 3.66699 -37.666 11 -48.999s19.333 -17 36 -17c22.667 0 39.5 9.66699 50.5 29zM445.499 16c-19.667 18.667 -29.501 49.668 -29.501 93.001c0 86 13.833 147.5 41.5 184.5s63.834 55.5 108.501 55.5c38 0 66.667 -9.16699 86 -27.5s29 -49.5 29 -93.5
c0 -62.667 -11 -118.334 -33 -167.001s-60.667 -73 -116 -73c-38 0 -66.833 9.33301 -86.5 28zM582.498 76.001c11 19.333 19.167 47.665 24.5 84.998c4 26.667 6 47.667 6 63c0 44 -15.667 66 -47 66c-22.667 0 -39.5 -9.66699 -50.5 -29s-19.167 -47.666 -24.5 -84.999
c-4 -26.667 -6 -47.667 -6 -63c0 -21.333 3.66699 -37.666 11 -48.999s19.333 -17 36 -17c22.667 0 39.5 9.66699 50.5 29z" />
    <glyph glyph-name="ampersand" unicode="&#x26;" horiz-adv-x="547" 
d="M71.5 32c-35.667 29.333 -53.5 69.6699 -53.5 121.003c0 50.667 12.167 93.167 36.5 127.5s54.5 58.166 90.5 71.499v4c-22 13.333 -39 29.833 -51 49.5s-18 44.167 -18 73.5c0 45.333 10 84.666 30 117.999s47.167 58.5 81.5 75.5s72.833 25.5 115.5 25.5
c58.667 0 105.667 -14.333 141 -43s53 -67.334 53 -116.001c0 -8 -1.66699 -23.667 -5 -47h-82c2.66699 16 4 27 4 33c0 32.667 -10.167 57.167 -30.5 73.5s-47.5 24.5 -81.5 24.5c-38.667 0 -71.5 -11.667 -98.5 -35s-40.5 -59 -40.5 -107
c0 -31.333 8.33301 -55.166 25 -71.499s38.334 -24.5 65.001 -24.5h51l-10 -73h-49c-38 0 -70.5 -11.333 -97.5 -34s-40.5 -61.334 -40.5 -116.001c0 -34 10 -59 30 -75s48.333 -24 85 -24c85.333 0 134 42.667 146 128l27 194h152l-10 -74h-70l-16 -117
c-8 -63.333 -32.5 -113.5 -73.5 -150.5s-94.833 -55.5 -161.5 -55.5c-60.667 0 -108.834 14.667 -144.501 44z" />
    <glyph glyph-name="quotesingle" unicode="'" horiz-adv-x="157" 
d="M75 539l21 147h82l-21 -147l-39 -132h-39z" />
    <glyph glyph-name="parenleft" unicode="(" horiz-adv-x="273" 
d="M60 6.5c-18.667 59.667 -27.998 121.833 -27.998 186.5c0 33.333 2.33301 65 7 95c11.333 82 36.666 161.5 75.999 238.5s89.666 146.5 150.999 208.5h54c-60 -79.333 -108.667 -167.333 -146 -264s-56 -190 -56 -280c0 -61.333 6.83301 -122.333 20.5 -183
s32.5 -115.667 56.5 -165h-54c-35.333 49.333 -62.333 103.833 -81 163.5z" />
    <glyph glyph-name="parenright" unicode=")" horiz-adv-x="273" 
d="M98.5 107.5c37.667 97 56.501 190.167 56.501 279.5c0 60.667 -7 121.167 -21 181.5s-33 115.833 -57 166.5h54c35.333 -49.333 62.166 -104 80.499 -164s27.5 -122.333 27.5 -187c0 -26.667 -2.33301 -58.667 -7 -96c-11.333 -82 -36.5 -161.167 -75.5 -237.5
s-89.167 -145.5 -150.5 -207.5h-53c59.333 79.333 107.833 167.5 145.5 264.5z" />
    <glyph glyph-name="asterisk" unicode="*" horiz-adv-x="319" 
d="M172 508l-81 -52l-26 59l88 38l-77 38l42 58l67 -52l3 89h68l-21 -88l81 51l26 -58l-87 -38l76 -38l-42 -59l-67 52l-3 -89h-68z" />
    <glyph glyph-name="plus" unicode="+" horiz-adv-x="479" 
d="M191 213h-154l11 84h154l30 214h83l-30 -214h155l-11 -84h-155l-30 -213h-83z" />
    <glyph glyph-name="comma" unicode="," horiz-adv-x="228" 
d="M69 0h-33l15 108h100l-14 -99l-64 -133h-55z" />
    <glyph glyph-name="hyphen" unicode="-" horiz-adv-x="273" 
d="M16 319h252l-13 -98h-252z" />
    <glyph glyph-name="period" unicode="." horiz-adv-x="228" 
d="M53 108h100l-15 -108h-100z" />
    <glyph glyph-name="slash" unicode="/" horiz-adv-x="228" 
d="M220 735h70l-267 -784h-70z" />
    <glyph glyph-name="zero" unicode="0" 
d="M78.5 34.5c-27 31 -40.5 83.833 -40.5 158.5c0 42 4 92 12 150c12 90.667 28.333 162 49 214s45.5 88.5 74.5 109.5s63.5 31.5 103.5 31.5c52.667 0 92.667 -15.667 120 -47s41 -85.333 41 -162c0 -40 -4 -88.667 -12 -146c-12 -90.667 -28.5 -162 -49.5 -214
s-46 -88.5 -75 -109.5s-63.5 -31.5 -103.5 -31.5c-52.667 0 -92.5 15.5 -119.5 46.5zM288 125c21.333 42.667 37.667 103.667 49 183c6 47.333 10.667 86 14 116s5 52.667 5 68c0 88.667 -26.333 133 -79 133c-38 0 -68 -21.667 -90 -65s-38.333 -104 -49 -182
c-12.667 -86.667 -19 -145.667 -19 -177c0 -45.333 6 -80 18 -104s32.333 -36 61 -36c38.667 0 68.667 21.333 90 64z" />
    <glyph glyph-name="one" unicode="1" 
d="M19 73h163.001l68 488h-164l7 52c30 3.33301 66.667 11.833 110 25.5s81.666 29.5 114.999 47.5h32l-86 -613h150l-11 -73h-395z" />
    <glyph glyph-name="two" unicode="2" 
d="M12 13c8 54 30.666 103.67 67.999 149.003c22.667 27.333 58.667 63.666 108 108.999c39.333 36.667 70.833 67.834 94.5 93.501s43.667 53.5 60 83.5s24.5 61 24.5 93c0 23.333 -6.16699 42.666 -18.5 57.999s-32.833 23 -61.5 23
c-33.333 0 -59.666 -12.167 -78.999 -36.5s-31.333 -55.833 -36 -94.5l-5 -41h-85c0 46 8 87.667 24 125s40 67.166 72 89.499s70.667 33.5 116 33.5c48.667 0 87.667 -11.833 117 -35.5s44 -59.5 44 -107.5c0 -42 -9.5 -81.833 -28.5 -119.5s-41.667 -71.334 -68 -101.001
s-61.5 -65.5 -105.5 -107.5c-49.333 -46 -84.333 -82 -105 -108c-7.33301 -9.33301 -15 -21 -23 -35h269l-12 -84h-372z" />
    <glyph glyph-name="three" unicode="3" 
d="M69.5 31.5c-30.333 29 -45.502 69.166 -45.502 120.499c0 12.667 1.33301 29.334 4 50.001h83c-2.66699 -15.333 -4 -30.333 -4 -45c0 -31.333 8 -55.166 24 -71.499s39 -24.5 69 -24.5c35.333 0 65 13.5 89 40.5s36 66.5 36 118.5c0 33.333 -9 57 -27 71
s-41.667 21 -71 21h-57l10 73h59c20 0 39 5.66699 57 17s32.667 28.166 44 50.499s17 49.5 17 81.5c0 30.667 -7.33301 53.5 -22 68.5s-33.667 22.5 -57 22.5c-28.667 0 -53.167 -10.833 -73.5 -32.5s-33.833 -55.167 -40.5 -100.5h-84
c2.66699 41.333 13.667 77.666 33 108.999s43.833 55.333 73.5 72s61.5 25 95.5 25c50 0 89.333 -13 118 -39s43 -63 43 -111c0 -48.667 -10.167 -88.167 -30.5 -118.5s-48.166 -54.833 -83.499 -73.5v-4c24.667 -10 44.167 -26.167 58.5 -48.5s21.5 -50.166 21.5 -83.499
c0 -46 -9.33301 -86.667 -28 -122s-44 -62.5 -76 -81.5s-66.667 -28.5 -104 -28.5c-57.333 0 -101.166 14.5 -131.499 43.5z" />
    <glyph glyph-name="four" unicode="4" 
d="M275 169h-264.001l10 74c45.333 66 89.333 139 132 219s79.334 158.667 110.001 236h83c-19.333 -56.667 -45.333 -116.334 -78 -179.001s-65 -119.167 -97 -169.5s-56.667 -86.166 -74 -107.499h188l31 216c12.667 22.667 23 43.5 31 62.5s18 44.167 30 75.5h40
l-50 -354h70l-10 -73h-70l-24 -169h-82z" />
    <glyph glyph-name="five" unicode="5" 
d="M73.5 34.5c-31 31 -46.501 74.1699 -46.501 129.503c0 17.333 1.33301 33.666 4 48.999h85c-2 -12 -3 -23.667 -3 -35c0 -36 8.16699 -64.667 24.5 -86s37.833 -32 64.5 -32c22 0 43 7.66699 63 23s36.5 38.166 49.5 68.499s19.5 67.166 19.5 110.499
c0 35.333 -7.33301 62.5 -22 81.5s-34.667 28.5 -60 28.5c-21.333 0 -42 -7.16699 -62 -21.5s-37 -33.5 -51 -57.5l-76 13l77 380h312l-12 -84h-241l-43 -209c38.667 35.333 80 53 124 53c42 0 75.833 -14.167 101.5 -42.5s38.5 -69.5 38.5 -123.5
c0 -60 -9.66699 -112.167 -29 -156.5s-45.666 -78 -78.999 -101s-70.333 -34.5 -111 -34.5c-54 0 -96.5 15.5 -127.5 46.5z" />
    <glyph glyph-name="six" unicode="6" 
d="M86 36.5c-28 32.333 -42 85.833 -42 160.5c0 38 3.33301 80 10 126c12.667 93.333 30 167.5 52 222.5s48.333 94.167 79 117.5s66.667 35 108 35c48.667 0 84.834 -14.667 108.501 -44s35.5 -69.666 35.5 -120.999c0 -20.667 -1.33301 -40 -4 -58h-83
c2.66699 24 4 40.333 4 49c0 67.333 -21.667 101 -65 101c-40.667 0 -71.667 -21.5 -93 -64.5s-38.666 -107.833 -51.999 -194.5c17.333 20.667 37.166 36.667 59.499 48s45.833 17 70.5 17c47.333 0 83.166 -15.5 107.499 -46.5s36.5 -72.167 36.5 -123.5
c0 -53.333 -9.5 -100.833 -28.5 -142.5s-44.5 -73.834 -76.5 -96.501s-66.667 -34 -104 -34c-54 0 -95 16.167 -123 48.5zM277 91c19.333 20 33.5 44.5 42.5 73.5s13.5 57.167 13.5 84.5c0 33.333 -6.83301 60 -20.5 80s-34.167 30 -61.5 30c-38 0 -68.333 -18.5 -91 -55.5
s-34 -81.5 -34 -133.5c0 -33.333 6.33301 -59.833 19 -79.5s32.334 -29.5 59.001 -29.5c29.333 0 53.666 10 72.999 30z" />
    <glyph glyph-name="seven" unicode="7" 
d="M189.5 314.5c53 103 113.167 198.833 180.5 287.5h-283l12 84h390l-8 -53c-70.667 -88 -133.167 -182 -187.5 -282s-88.5 -200 -102.5 -300l-3 -27l-3 -24h-97c14.667 106.667 48.5 211.5 101.5 314.5z" />
    <glyph glyph-name="eight" unicode="8" 
d="M67 31c-27.333 28.667 -41.002 66.998 -41.002 114.998c0 44.667 9.5 85.834 28.5 123.501s47.5 65.167 85.5 82.5c-18 13.333 -31.667 30.333 -41 51s-14 43.667 -14 69c0 40.667 8 78.167 24 112.5s39 61.833 69 82.5s65 31 105 31c50.667 0 89.167 -14.5 115.5 -43.5
s39.5 -66.5 39.5 -112.5c0 -39.333 -8.66699 -76.166 -26 -110.499s-41.666 -60.833 -72.999 -79.5c45.333 -24.667 68 -67 68 -127c0 -43.333 -7.83301 -83 -23.5 -119s-39.5 -64.667 -71.5 -86s-71.333 -32 -118 -32c-57.333 0 -99.666 14.333 -126.999 43z
M323.998 427.498c21.333 27 32 62.5 32 106.5c0 28.667 -7 51 -21 67s-33 24 -57 24c-34 0 -61 -14.5 -81 -43.5s-30 -63.167 -30 -102.5c0 -28.667 6.83301 -51.167 20.5 -67.5s32.834 -24.5 57.501 -24.5c31.333 0 57.666 13.5 78.999 40.5zM288.998 103.998
c22.667 28.667 34.001 66.667 34.001 114c0 30.667 -7.5 54.334 -22.5 71.001s-37.167 25 -66.5 25c-38.667 0 -68.834 -15 -90.501 -45s-32.5 -67.333 -32.5 -112c0 -30.667 7.33301 -54.334 22 -71.001s36.667 -25 66 -25c37.333 0 67.333 14.333 90 43z" />
    <glyph glyph-name="nine" unicode="9" 
d="M82.5 32c-23.667 29.333 -35.5 69.666 -35.5 120.999c0 20.667 1.33301 40 4 58h83c-2.66699 -24 -4 -40.333 -4 -49c0 -67.333 21.667 -101 65 -101c40.667 0 71.667 21.5 93 64.5s38.666 107.833 51.999 194.5c-17.333 -20.667 -37.166 -36.667 -59.499 -48
s-45.833 -17 -70.5 -17c-47.333 0 -83.166 15.5 -107.499 46.5s-36.5 72.167 -36.5 123.5c0 53.333 9.5 100.833 28.5 142.5s44.5 73.834 76.5 96.501s66.667 34 104 34c54 0 95 -16.167 123 -48.5s42 -85.833 42 -160.5c0 -38 -3.33301 -80 -10 -126
c-12.667 -93.333 -30 -167.5 -52 -222.5s-48.333 -94.167 -79 -117.5s-66.667 -35 -108 -35c-48.667 0 -84.834 14.667 -108.501 44zM324 382.5c22.667 37 34 81.5 34 133.5c0 33.333 -6.33301 59.833 -19 79.5s-32.334 29.5 -59.001 29.5
c-29.333 0 -53.666 -10 -72.999 -30s-33.5 -44.5 -42.5 -73.5s-13.5 -57.167 -13.5 -84.5c0 -33.333 6.83301 -60 20.5 -80s34.167 -30 61.5 -30c38 0 68.333 18.5 91 55.5z" />
    <glyph glyph-name="colon" unicode=":" horiz-adv-x="228" 
d="M110 526h100l-15 -108h-100zM51 108h100l-15 -108h-100z" />
    <glyph glyph-name="semicolon" unicode=";" horiz-adv-x="228" 
d="M110 526h100l-15 -108h-100zM69 0h-33l15 108h100l-14 -99l-64 -133h-55z" />
    <glyph glyph-name="less" unicode="&#x3c;" horiz-adv-x="479" 
d="M36 200l15 107l420 197l-13 -90l-333 -160l288 -160l-13 -90z" />
    <glyph glyph-name="equal" unicode="=" horiz-adv-x="479" 
d="M63 402h392l-12 -84h-392zM33 189h392l-11 -83h-392z" />
    <glyph glyph-name="greater" unicode="&#x3e;" horiz-adv-x="479" 
d="M21 94l334 160l-289 160l13 90l364 -197l-15 -107l-420 -196z" />
    <glyph glyph-name="question" unicode="?" 
d="M183 236c4 29.333 12.8301 53.668 26.4971 73.001s32.834 40.666 57.501 63.999c18 18 32.333 33.5 43 46.5s19.834 28.833 27.501 47.5s11.5 40.334 11.5 65.001c0 23.333 -5.5 44 -16.5 62s-30.5 27 -58.5 27c-33.333 0 -58.666 -11.5 -75.999 -34.5
s-28.5 -46.833 -33.5 -71.5s-7.5 -43.334 -7.5 -56.001h-89c0.666992 43.333 9.5 83.166 26.5 119.499s41.5 65.333 73.5 87s70 32.5 114 32.5c48 0 86.667 -13.667 116 -41s44 -63.666 44 -108.999c0 -36 -4.83301 -67.333 -14.5 -94s-21.334 -48.5 -35.001 -65.5
s-31.167 -35.833 -52.5 -56.5c-22 -21.333 -38.667 -39.833 -50 -55.5s-18.666 -34.167 -21.999 -55.5l-6 -41h-87zM157.997 108.002h100l-16 -108h-100z" />
    <glyph glyph-name="at" unicode="@" horiz-adv-x="832" 
d="M55 194c0 108.667 16.998 200.669 50.998 276.002s82.5 132.166 145.5 170.499s137.833 57.5 224.5 57.5s153.5 -13.333 200.5 -40s79 -63.667 96 -111s25.5 -106.666 25.5 -177.999c0 -58 -7.5 -113.5 -22.5 -166.5s-38.667 -96.333 -71 -130
s-72.833 -50.5 -121.5 -50.5c-30.667 0 -53.834 7.33301 -69.501 22s-26.167 30.667 -31.5 48c-12.667 -22.667 -28.667 -40 -48 -52s-39.333 -18 -60 -18c-36.667 0 -66 14.667 -88 44s-33 73.666 -33 132.999c0 69.333 8.83301 128.333 26.5 177s40.5 85 68.5 109
s57.667 36 89 36c24 0 44.333 -5.83301 61 -17.5s29.334 -31.5 38.001 -59.5l17 66h58l-30 -198.5c-14.667 -97.667 -22 -155.834 -22 -174.501c0 -33.333 15.333 -50 46 -50c12.667 0 25.834 4.83301 39.501 14.5s26.5 23.167 38.5 40.5c17.333 26 31 58.5 41 97.5
s15 81.833 15 128.5c0 67.333 -8 119.666 -24 156.999c-16.667 39.333 -43.167 68.833 -79.5 88.5s-83.833 29.5 -142.5 29.5c-116.667 0 -209.167 -35.5 -277.5 -106.5s-102.5 -184.5 -102.5 -340.5c0 -196.667 94.667 -295 284 -295c26.667 0 49.834 1.5 69.501 4.5
s34.5 6 44.5 9s16 5.16699 18 6.5l-8 -57c-9.33301 -3.33301 -25.333 -7.16602 -48 -11.499s-45 -6.5 -67 -6.5c-234 0 -351 116 -351 348zM462.998 135.002c17.333 31.333 29.833 67.832 37.5 109.499s11.5 77.5 11.5 107.5c0 68.667 -21.333 103 -64 103
c-29.333 0 -53 -15.333 -71 -46s-30.5 -66.167 -37.5 -106.5s-10.5 -77.166 -10.5 -110.499c0 -34 5.83301 -59.833 17.5 -77.5s28.5 -26.5 50.5 -26.5c26.667 0 48.667 15.667 66 47z" />
    <glyph glyph-name="A" unicode="A" horiz-adv-x="547" 
d="M278 686h113l121 -686h-91l-26 153h-275l-69 -153h-87zM382 233l-51 305c-1.33301 9.33301 -2.5 22.833 -3.5 40.5s-1.5 29.5 -1.5 35.5h-4c-2 -6 -6.16699 -17.833 -12.5 -35.5s-11.5 -31.167 -15.5 -40.5l-138 -305h226z" />
    <glyph glyph-name="B" unicode="B" horiz-adv-x="547" 
d="M131 686l241.002 -0.00195312c49.333 0 89.166 -13.167 119.499 -39.5s45.5 -61.5 45.5 -105.5c0 -43.333 -12.5 -81.333 -37.5 -114s-55.5 -55 -91.5 -67l-1 -4c30 -10 54 -28.167 72 -54.5s27 -58.166 27 -95.499c0 -41.333 -10 -77.666 -30 -108.999
s-46.333 -55.333 -79 -72s-67.334 -25 -104.001 -25h-259zM314.002 390.998c25.333 0 47.667 6 67 18s34.333 27.667 45 47s16 40 16 62c0 29.333 -9 51.333 -27 66s-43 22 -75 22h-133l-30 -215h137zM293.003 79.998c33.333 0 62 11.332 86 33.999s36 53.334 36 92.001
c0 30 -9.33301 55 -28 75s-44 30 -76 30h-145l-32 -231h159z" />
    <glyph glyph-name="C" unicode="C" horiz-adv-x="592" 
d="M112.5 51c-41 42 -61.499 105.335 -61.499 190.002c0 69.333 9.5 138.833 28.5 208.5s51 128.5 96 176.5s104.167 72 177.5 72c144.667 0 217 -81.667 217 -245v-16h-91v22c0 105.333 -42.333 158 -127 158c-56.667 0 -100.667 -23.5 -132 -70.5
s-52.333 -98.667 -63 -155s-16 -104.833 -16 -145.5c0 -56.667 12.167 -100.167 36.5 -130.5s59.166 -45.5 104.499 -45.5c48 0 86.833 16.333 116.5 49s48.167 73.667 55.5 123h87c-6 -46.667 -19.833 -89.334 -41.5 -128.001s-50.667 -69.334 -87 -92.001
s-78.833 -34 -127.5 -34c-74 0 -131.5 21 -172.5 63z" />
    <glyph glyph-name="D" unicode="D" horiz-adv-x="592" 
d="M131 686h203.001c73.333 0 129.833 -21.667 169.5 -65s59.5 -107.333 59.5 -192c0 -66 -10.333 -131.833 -31 -197.5s-53.334 -120.667 -98.001 -165s-101 -66.5 -169 -66.5h-231zM255.001 80c53.333 0 96.168 18.167 128.501 54.5s55.166 80.833 68.499 133.5
s20 106 20 160c0 59.333 -12.833 103.833 -38.5 133.5s-62.167 44.5 -109.5 44.5h-117l-73 -526h121z" />
    <glyph glyph-name="E" unicode="E" horiz-adv-x="547" 
d="M131 686h423l-12 -80h-335l-30 -215h291l-11 -80h-291l-32 -231h341l-12 -80h-429z" />
    <glyph glyph-name="F" unicode="F" horiz-adv-x="501" 
d="M131 686h396l-12 -80h-308l-31 -222h272l-11 -80h-272l-43 -304h-88z" />
    <glyph glyph-name="G" unicode="G" horiz-adv-x="638" 
d="M315 357h268.999l-51 -357h-58l-8 76c-45.333 -58.667 -106 -88 -182 -88c-74 0 -131.667 21 -173 63s-62 105.333 -62 190c0 69.333 10 138.833 30 208.5s53.333 128.5 100 176.5s108 72 184 72c154.667 0 232 -82 232 -246h-91v7c0 105.333 -47.333 158 -142 158
c-59.333 0 -105.666 -22.667 -138.999 -68s-55.666 -96 -66.999 -152s-17 -106.333 -17 -151c0 -57.333 12.667 -101 38 -131s63.666 -45 114.999 -45c52.667 0 94.667 16.167 126 48.5s51 73.5 59 123.5l6 38h-180z" />
    <glyph glyph-name="H" unicode="H" horiz-adv-x="592" 
d="M131 686h88l-42 -295h276l42 295h88l-97 -686h-88l44 311h-276l-44 -311h-88z" />
    <glyph glyph-name="I" unicode="I" horiz-adv-x="228" 
d="M131 686h88l-97 -686h-88z" />
    <glyph glyph-name="J" unicode="J" horiz-adv-x="410" 
d="M38.5 23c-26.333 23.333 -39.5 57.001 -39.5 101.001c0 12 3 40 9 84h87c-6 -42.667 -9 -66.334 -9 -71.001c0 -22.667 5.83301 -39.667 17.5 -51s28.5 -17 50.5 -17c25.333 0 45.666 7.66699 60.999 23s25 37.333 29 66l75 528h88l-74 -523
c-8 -56.667 -27.667 -100 -59 -130s-72 -45 -122 -45c-49.333 0 -87.166 11.667 -113.499 35z" />
    <glyph glyph-name="K" unicode="K" horiz-adv-x="547" 
d="M131 686h88l-51 -357l316 357h105l-245 -277l155 -409h-98l-122 335l-127 -122l-30 -213h-88z" />
    <glyph glyph-name="L" unicode="L" 
d="M131 686h88l-85 -606h280l-12 -80h-368z" />
    <glyph glyph-name="M" unicode="M" horiz-adv-x="683" 
d="M121 686l131.999 0.00292969l57 -450c2.66699 -18 4.5 -42.333 5.5 -73s1.5 -51 1.5 -61h4c2 10 7 30.5 15 61.5s15.667 55.167 23 72.5l186 450h135l-97 -686h-88l70 498l15 86h-4c-2.66699 -7.33301 -7.5 -21.333 -14.5 -42s-12.5 -35.334 -16.5 -44.001l-207 -498h-79
l-65 498c-1.33301 13.333 -2.66602 29.166 -3.99902 47.499s-2.33301 31.166 -3 38.499h-4l-10 -86l-70 -498h-79z" />
    <glyph glyph-name="N" unicode="N" horiz-adv-x="592" 
d="M130 686h72l195 -431c4.66699 -10.667 10.667 -26.834 18 -48.501s12 -36.167 14 -43.5l3 1c0.666992 7.33301 2 20.5 4 39.5s4 36.167 6 51.5l61 431h79l-97 -686h-69l-197 437c-5.33301 12 -11.666 28.667 -18.999 50s-12 35.333 -14 42l-3 -1
c-0.666992 -6.66699 -1.83398 -19.167 -3.50098 -37.5s-3.5 -36.166 -5.5 -53.499l-62 -437h-79z" />
    <glyph glyph-name="O" unicode="O" horiz-adv-x="638" 
d="M112.5 53c-41 43.333 -61.501 107.999 -61.501 193.999c0 71.333 10.333 141.333 31 210s54.5 126 101.5 172s108.167 69 183.5 69c76 0 134.667 -22 176 -66s62 -109 62 -195c0 -71.333 -10.333 -141.166 -31 -209.499s-54.667 -125.333 -102 -171
s-108.666 -68.5 -183.999 -68.5c-76 0 -134.5 21.667 -175.5 65zM423.499 126.499c33.667 38.333 57.167 85.333 70.5 141s20 112.167 20 169.5c0 59.333 -12.833 104.166 -38.5 134.499s-62.167 45.5 -109.5 45.5c-56 0 -100.667 -19.167 -134 -57.5
s-56.833 -85.166 -70.5 -140.499s-20.5 -112 -20.5 -170c0 -60 12.667 -105 38 -135s62 -45 110 -45c56 0 100.833 19.167 134.5 57.5z" />
    <glyph glyph-name="P" unicode="P" horiz-adv-x="547" 
d="M131 686l235 -0.000976562c62 0 109 -15.667 141 -47s48 -73.666 48 -126.999c0 -47.333 -9.66699 -88.333 -29 -123s-46.5 -61 -81.5 -79s-75.5 -27 -121.5 -27h-161l-40 -283h-88zM332 362.999c38 0 69.167 12.167 93.5 36.5s36.5 56.5 36.5 96.5
c0 34 -8.66699 60.833 -26 80.5s-42.333 29.5 -75 29.5h-154l-33 -243h158z" />
    <glyph glyph-name="Q" unicode="Q" horiz-adv-x="638" 
d="M296 -12c-163.333 0 -244.999 86.3301 -244.999 258.997c0 71.333 10.333 141.333 31 210s54.5 126 101.5 172s108.167 69 183.5 69c76 0 134.667 -22 176 -66s62 -109 62 -195c0 -59.333 -7.16699 -118.166 -21.5 -176.499s-37.833 -110.666 -70.5 -156.999
s-74.334 -79.166 -125.001 -98.499l122 -129h-110zM423.501 126.497c33.667 38.333 57.167 85.333 70.5 141s20 112.167 20 169.5c0 59.333 -12.833 104.166 -38.5 134.499s-62.167 45.5 -109.5 45.5c-56 0 -100.667 -19.167 -134 -57.5s-56.833 -85.166 -70.5 -140.499
s-20.5 -112 -20.5 -170c0 -60 12.667 -105 38 -135s62 -45 110 -45c56 0 100.833 19.167 134.5 57.5z" />
    <glyph glyph-name="R" unicode="R" horiz-adv-x="592" 
d="M131 686l266 -0.000976562c62.667 0 109.334 -14.167 140.001 -42.5s46 -67.166 46 -116.499c0 -50 -12.833 -93.5 -38.5 -130.5s-60.834 -63.167 -105.501 -78.5l92 -318h-93l-88 303h-185l-43 -303h-88zM353 382.999c39.333 0 72.167 12.167 98.5 36.5
s39.5 55.5 39.5 93.5c0 30 -9.16699 53 -27.5 69s-44.833 24 -79.5 24h-177l-31 -223h177z" />
    <glyph glyph-name="S" unicode="S" horiz-adv-x="547" 
d="M91 40.5c-38.667 35 -57.998 84.1641 -57.998 147.497c0 20 1 35.333 3 46h91c-3.33301 -18.667 -5 -34.334 -5 -47.001c0 -40 11.667 -69.667 35 -89s56.333 -29 99 -29c35.333 0 67.833 9.33301 97.5 28s44.5 49.667 44.5 93c0 22 -5.83301 40.667 -17.5 56
s-26.167 28 -43.5 38s-41 22 -71 36c-35.333 15.333 -64 29.833 -86 43.5s-40.667 31.834 -56 54.501s-23 50.667 -23 84c0 62.667 18.667 111 56 145s89.666 51 156.999 51c74.667 0 128.667 -19.167 162 -57.5s50 -90.166 50 -155.499h-91c0 88 -42 132 -126 132
c-28 0 -54.5 -7.16699 -79.5 -21.5s-37.5 -42.166 -37.5 -83.499c0 -20 5.5 -37 16.5 -51s24.833 -25.667 41.5 -35s39.667 -20.333 69 -33c36 -15.333 65.5 -29.833 88.5 -43.5s42.5 -32.5 58.5 -56.5s24 -54 24 -90c0 -35.333 -7.16699 -69.166 -21.5 -101.499
s-39.5 -59.333 -75.5 -81s-84 -32.5 -144 -32.5c-66.667 0 -119.334 17.5 -158.001 52.5z" />
    <glyph glyph-name="T" unicode="T" horiz-adv-x="501" 
d="M251 606h-187l12 80h462l-12 -80h-187l-85 -606h-88z" />
    <glyph glyph-name="U" unicode="U" horiz-adv-x="592" 
d="M111 35.5c-36 31.667 -54 77.499 -54 137.499c0 19.333 9.83301 97.333 29.5 234l40.5 279h88l-40 -281c-19.333 -137.333 -29 -210.666 -29 -219.999c0 -38 10.5 -66.833 31.5 -86.5s50.5 -29.5 88.5 -29.5c43.333 0 79 12.833 107 38.5s45.333 62.5 52 110.5l66 468h88
l-66 -463c-10.667 -76.667 -37.5 -135 -80.5 -175s-99.167 -60 -168.5 -60c-66 0 -117 15.833 -153 47.5z" />
    <glyph glyph-name="V" unicode="V" horiz-adv-x="547" 
d="M74 686h91l92 -590h4l256 590h88l-306 -686h-113z" />
    <glyph glyph-name="W" unicode="W" horiz-adv-x="774" 
d="M77 686h89l39 -474c1.33301 -16.667 2.33301 -39 3 -67s1 -46.333 1 -55h4l12 44.5c6 22.333 13.333 48.166 22 77.499l144 474h127l17 -474c0.666992 -21.333 1 -44.5 1 -69.5v-52.5h4l16 53.5c8 27 15.333 49.833 22 68.5l171 474h82l-256 -686h-114l-15 463l-5 140h-5
c-2 -10 -6.83301 -30.667 -14.5 -62s-14.5 -56.666 -20.5 -75.999l-148 -465h-114z" />
    <glyph glyph-name="X" unicode="X" horiz-adv-x="547" 
d="M239 360l-154 326h100l116 -245h1l181 245h99l-244 -325l169 -361h-99l-131 280h-1l-210 -280h-97z" />
    <glyph glyph-name="Y" unicode="Y" horiz-adv-x="547" 
d="M235 284l-165 402h96l125 -318h4l214 318h92l-278 -402l-40 -284h-88z" />
    <glyph glyph-name="Z" unicode="Z" horiz-adv-x="501" 
d="M-13 38l401 568h-302l12 80h428l-3 -38l-402 -568h330l-12 -80h-455z" />
    <glyph glyph-name="bracketleft" unicode="[" horiz-adv-x="228" 
d="M111 735h159l-9 -65h-83l-107 -766h83l-9 -65h-158z" />
    <glyph glyph-name="backslash" unicode="\" horiz-adv-x="228" 
d="M49 735h70l109 -784h-71z" />
    <glyph glyph-name="bracketright" unicode="]" horiz-adv-x="228" 
d="M-33 -96h82l107 766h-83l9 65h159l-125 -896h-158z" />
    <glyph glyph-name="asciicircum" unicode="^" horiz-adv-x="385" 
d="M199 686h107l82 -392h-90l-57 315l-143 -315h-89z" />
    <glyph glyph-name="underscore" unicode="_" 
d="M-39 -71h455l-7 -53h-454z" />
    <glyph glyph-name="grave" unicode="`" horiz-adv-x="273" 
d="M64 720l2 3h90l67 -132h-69z" />
    <glyph glyph-name="a" unicode="a" 
d="M69 37c-24 32.667 -35.9971 81.333 -35.9971 146c0 76.667 9.83301 141.667 29.5 195s45 93.333 76 120s63.5 40 97.5 40c55.333 0 91.666 -28.333 108.999 -85l18 73h65l-35.5 -248c-17 -120.667 -25.5 -183.667 -25.5 -189c0 -9.33301 2.16699 -16.333 6.5 -21
s10.166 -7 17.499 -7h32l-8 -57c-15.333 -10.667 -34 -16 -56 -16s-39.333 6.66699 -52 20s-19.334 34.333 -20.001 63c-19.333 -28.667 -38.5 -49.667 -57.5 -63s-40.167 -20 -63.5 -20c-40.667 0 -73 16.333 -97 49zM262.503 112.999
c19 34.667 32.835 74.835 41.502 120.502s13 85.167 13 118.5c0 75.333 -23 113 -69 113c-32.667 0 -58.834 -16.833 -78.501 -50.5s-33.334 -72.834 -41.001 -117.501s-11.5 -85.334 -11.5 -122.001c0 -76 24.667 -114 74 -114c28.667 0 52.5 17.333 71.5 52z" />
    <glyph glyph-name="b" unicode="b" 
d="M149.5 7.5c-19 13 -33.502 34.835 -43.502 65.502l-18 -73h-65l101 723h82l-35 -257c18.667 25.333 37.334 43.666 56.001 54.999s39.334 17 62.001 17c40.667 0 73 -16.333 97 -49s36 -81.334 36 -146.001c0 -76.667 -9.83301 -141.667 -29.5 -195s-45 -93.333 -76 -120
s-63.5 -40 -97.5 -40c-27.333 0 -50.5 6.5 -69.5 19.5zM285.498 111.502c19.667 33.667 33.332 72.832 40.999 117.499s11.5 85.334 11.5 122.001c0 76 -24.667 114 -74 114c-31.333 0 -56.833 -17.333 -76.5 -52s-33.5 -74.5 -41.5 -119.5s-12 -84.833 -12 -119.5
c0 -75.333 24.333 -113 73 -113c32.667 0 58.834 16.833 78.501 50.5z" />
    <glyph glyph-name="c" unicode="c" horiz-adv-x="410" 
d="M73.5 35.5c-28.333 31.667 -42.5029 79.499 -42.5029 143.499c0 97.333 15.667 181.5 47 252.5s85.333 106.5 162 106.5c100 0 150 -63 150 -189v-18h-85v17c0 78 -21.667 117 -65 117c-33.333 0 -59.166 -17.667 -77.499 -53s-30.666 -74.333 -36.999 -117
s-9.5 -79 -9.5 -109c0 -40 6.33301 -70.833 19 -92.5s31 -32.5 55 -32.5c26.667 0 49.334 12.667 68.001 38s30 56.333 34 93h82c-6.66699 -57.333 -26 -105.666 -58 -144.999s-73.333 -59 -124 -59s-90.167 15.833 -118.5 47.5z" />
    <glyph glyph-name="d" unicode="d" 
d="M70 37c-24 32.667 -36 81.333 -36 146c0 76.667 9.83301 141.667 29.5 195s45 93.333 76 120s63.5 40 97.5 40c48.667 0 83.667 -23.333 105 -70l36 255h82l-101 -723h-65v71c-34 -55.333 -76.333 -83 -127 -83c-40.667 0 -73 16.333 -97 49zM268.5 112.999
c19.667 34.667 33.502 74.502 41.502 119.502s12 84.833 12 119.5c0 75.333 -24.333 113 -73 113c-32.667 0 -58.834 -16.833 -78.501 -50.5s-33.334 -72.834 -41.001 -117.501s-11.5 -85.334 -11.5 -122.001c0 -76 24.667 -114 74 -114c31.333 0 56.833 17.333 76.5 52z
" />
    <glyph glyph-name="e" unicode="e" 
d="M78.5 35.5c-29 31.667 -43.499 79.5 -43.499 143.5c0 95.333 16.833 179 50.5 251s91.167 108 172.5 108c108 0 162 -63 162 -189c0 -39.333 -2.66699 -76 -8 -110h-289c-2 -20.667 -3 -38.334 -3 -53.001c0 -83.333 28.333 -125 85 -125c28.667 0 53.167 11.333 73.5 34
s32.833 50.334 37.5 83.001h83c-8.66699 -54.667 -29.834 -100 -63.501 -136s-77.167 -54 -130.5 -54c-55.333 0 -97.5 15.833 -126.5 47.5zM334.001 312c0.666992 8.66699 0.998047 20.667 0.998047 36c0 78 -25.667 117 -77 117c-33.333 0 -60.166 -14.5 -80.499 -43.5
s-35.166 -65.5 -44.499 -109.5h201z" />
    <glyph glyph-name="f" unicode="f" horiz-adv-x="228" 
d="M-89 -170l7.99707 56.999h44c31.333 0 49 16 53 48l68 518h-46l10 73h46l12 84c4.66699 34.667 16.834 63.5 36.501 86.5s47.834 34.5 84.501 34.5c23.333 0 45.666 -4 66.999 -12l-8 -57h-44c-15.333 0 -27.666 -4.16699 -36.999 -12.5s-15 -20.166 -17 -35.499l-12 -88
h91l-10 -73h-91l-68 -514c-4.66699 -34 -16.667 -62.667 -36 -86s-47.333 -35 -84 -35c-23.333 0 -45.666 4 -66.999 12z" />
    <glyph glyph-name="g" unicode="g" 
d="M47.5 -137c-27 30 -40.5 67.667 -40.5 113h82c0 -57.333 26.333 -86 79 -86c32 0 57.167 10.833 75.5 32.5s31.166 55.834 38.499 102.501l11 66c-18 -28.667 -36.667 -49.667 -56 -63s-41.333 -20 -66 -20c-46 0 -79.833 17.667 -101.5 53s-32.5 78.333 -32.5 129
c0 76 9.66699 140.167 29 192.5s44.333 91.333 75 117s63.334 38.5 98.001 38.5c27.333 0 50.5 -6.5 69.5 -19.5s33.5 -34.833 43.5 -65.5l17 73h65l-67 -477c-11.333 -80.667 -33.5 -139.334 -66.5 -176.001s-78.167 -55 -135.5 -55c-51.333 0 -90.5 15 -117.5 45z
M270.5 129.5c19 32.333 32.667 69.668 41 112.001s12.5 79.166 12.5 110.499c-1.33301 75.333 -26 113 -74 113c-33.333 0 -59.5 -16.5 -78.5 -49.5s-32.167 -71 -39.5 -114s-11 -82.833 -11 -119.5c0 -67.333 25.333 -101 76 -101c30 0 54.5 16.167 73.5 48.5z" />
    <glyph glyph-name="h" unicode="h" 
d="M123 723l82.002 -0.000976562l-36 -258c12.667 20 29.667 37.167 51 51.5s47.666 21.5 78.999 21.5c40 0 69 -11.167 87 -33.5s27 -50.5 27 -84.5c0 -13.333 -7.83301 -76.5 -23.5 -189.5l-32.5 -230.5h-82c6 38.667 16.5 111.834 31.5 219.501s22.5 168.167 22.5 181.5
c0 42.667 -20 64 -60 64c-32.667 0 -59.834 -15.5 -81.501 -46.5s-36.167 -72.5 -43.5 -124.5l-41 -294h-81z" />
    <glyph glyph-name="i" unicode="i" horiz-adv-x="182" 
d="M116 723h82l-13 -98h-82zM89 526h82l-74 -526h-81z" />
    <glyph glyph-name="j" unicode="j" horiz-adv-x="182" 
d="M116 723h82l-14 -98h-82zM-99 -170l7.99902 57.001h44c15.333 0 27.5 4.16699 36.5 12.5s14.167 20.166 15.5 35.499l83 591h82l-82 -587c-5.33301 -34.667 -17.5 -63.5 -36.5 -86.5s-46.833 -34.5 -83.5 -34.5c-23.333 0 -45.666 4 -66.999 12z" />
    <glyph glyph-name="k" unicode="k" horiz-adv-x="410" 
d="M120 723h82l-61 -431l197 234h98l-186 -216l120 -310h-90l-88 242l-65 -55l-26 -187h-82z" />
    <glyph glyph-name="l" unicode="l" horiz-adv-x="182" 
d="M116 723h82l-101 -723h-81z" />
    <glyph glyph-name="m" unicode="m" horiz-adv-x="683" 
d="M96 526l64.001 -0.00195312v-78c10.667 22 27 42.5 49 61.5s50.667 28.5 86 28.5c32 0 56.333 -8.5 73 -25.5s27 -39.167 31 -66.5c11.333 22.667 27.833 43.667 49.5 63s50.5 29 86.5 29c37.333 0 64.333 -11.167 81 -33.5s25 -50.5 25 -84.5
c0 -13.333 -7.83301 -76.5 -23.5 -189.5l-32.5 -230.5h-82c6 38.667 16.5 111.834 31.5 219.501s22.5 168.167 22.5 181.5c0 42.667 -17.333 64 -52 64c-30 0 -55.333 -14.333 -76 -43s-34.334 -67 -41.001 -115l-43 -307h-82c6 38.667 16.5 111.834 31.5 219.501
s22.5 168.167 22.5 181.5c0 42.667 -17.333 64 -52 64c-31.333 0 -57.333 -15.5 -78 -46.5s-34.667 -72.5 -42 -124.5l-41 -294h-82z" />
    <glyph glyph-name="n" unicode="n" 
d="M96 526l64 -0.00195312v-78c11.333 22.667 28.333 43.334 51 62.001s52.334 28 89.001 28c40 0 69 -11.167 87 -33.5s27 -50.5 27 -84.5c0 -13.333 -7.83301 -76.5 -23.5 -189.5l-32.5 -230.5h-82c6 38.667 16.5 111.834 31.5 219.501s22.5 168.167 22.5 181.5
c0 42.667 -20 64 -60 64c-32.667 0 -59.834 -15.5 -81.501 -46.5s-36.167 -72.5 -43.5 -124.5l-41 -294h-82z" />
    <glyph glyph-name="o" unicode="o" 
d="M33 175c0 56.667 6.5 112.333 19.5 167s36.167 101 69.5 139s78 57 134 57c110.667 0 166 -63 166 -189c0 -56.667 -6.5 -112.167 -19.5 -166.5s-36.167 -100.333 -69.5 -138s-78 -56.5 -134 -56.5c-110.667 0 -166 62.333 -166 187zM285 112.999
c20.667 34.667 34.498 73.832 41.498 117.499s10.5 82.834 10.5 117.501c0 78 -27 117 -81 117c-36.667 0 -65.167 -16.833 -85.5 -50.5s-34.166 -71.667 -41.499 -114s-11 -80.5 -11 -114.5c0 -42.667 6.5 -74.167 19.5 -94.5s33.5 -30.5 61.5 -30.5
c36.667 0 65.334 17.333 86.001 52z" />
    <glyph glyph-name="p" unicode="p" 
d="M98 526l65 0.000976562v-71c34 55.333 76.333 83 127 83c40.667 0 73 -16.333 97 -49s36 -81.334 36 -146.001c0 -76.667 -9.83301 -141.667 -29.5 -195s-45 -93.333 -76 -120s-63.5 -40 -97.5 -40c-48.667 0 -83.667 23.333 -105 70l-34 -240h-82zM286.5 111.501
c19.667 33.667 33.332 72.832 40.999 117.499s11.5 85.334 11.5 122.001c0 76 -24.667 114 -74 114c-31.333 0 -56.833 -17.333 -76.5 -52s-33.5 -74.5 -41.5 -119.5s-12 -84.833 -12 -119.5c0 -75.333 24.333 -113 73 -113c32.667 0 58.834 16.833 78.501 50.5z" />
    <glyph glyph-name="q" unicode="q" 
d="M284 60c-18.667 -25.333 -37.332 -43.668 -55.999 -55.001s-39.334 -17 -62.001 -17c-40.667 0 -73 16.333 -97 49s-36 81.334 -36 146.001c0 76.667 9.83301 141.667 29.5 195s45 93.333 76 120s63.5 40 97.5 40c27.333 0 50.5 -6.5 69.5 -19.5s33.5 -34.833 43.5 -65.5
l18 73h65l-98 -699h-82zM267.502 112.998c19.667 34.667 33.502 74.502 41.502 119.502s12 84.833 12 119.5c0 75.333 -24.333 113 -73 113c-32.667 0 -58.834 -16.833 -78.501 -50.5s-33.334 -72.834 -41.001 -117.501s-11.5 -85.334 -11.5 -122.001
c0 -76 24.667 -114 74 -114c31.333 0 56.833 17.333 76.5 52z" />
    <glyph glyph-name="r" unicode="r" horiz-adv-x="273" 
d="M90 526l63.999 0.00195312v-84c14 29.333 28.5 52.666 43.5 69.999s35.5 26 61.5 26c9.33301 0 17.5 -1.16699 24.5 -3.5l13.5 -4.5l-12 -85h-27c-27.333 0 -52.166 -12.333 -74.499 -37s-36.5 -59.334 -42.5 -104.001l-43 -304h-82z" />
    <glyph glyph-name="s" unicode="s" horiz-adv-x="410" 
d="M102.5 8c-25 13.333 -44.8311 32.3359 -59.498 57.0029s-22 53 -22 85c0 14 0.666992 24.667 2 32h85c-2 -10.667 -3 -21.334 -3 -32.001c0 -29.333 8.33301 -51.666 25 -66.999s38 -23 64 -23c22.667 0 41 7.16699 55 21.5s21 32.166 21 53.499
c0 24.667 -7.33301 44.167 -22 58.5s-37 30.5 -67 48.5c-24 14 -43.333 26.667 -58 38s-27.167 26 -37.5 44s-15.5 40 -15.5 66c0 43.333 14.167 78.833 42.5 106.5s68.166 41.5 119.499 41.5c50 0 87.5 -15.833 112.5 -47.5s37.5 -70.834 37.5 -117.501h-85
c0 33.333 -7 57.166 -21 71.499s-31.667 21.5 -53 21.5c-16.667 0 -32.167 -5.83301 -46.5 -17.5s-21.5 -27.167 -21.5 -46.5c0 -24.667 7.16699 -43.667 21.5 -57s36.166 -28 65.499 -44c24 -13.333 43.5 -25.5 58.5 -36.5s27.833 -26 38.5 -45s16 -42.833 16 -71.5
c0 -50 -15.167 -89.167 -45.5 -117.5s-71.5 -42.5 -123.5 -42.5c-30.667 0 -58.5 6.66699 -83.5 20z" />
    <glyph glyph-name="t" unicode="t" horiz-adv-x="228" 
d="M53 13.5c-12.667 15.667 -18.999 36.167 -18.999 61.5c0 10.667 7.33301 67.167 22 169.5l30 208.5h-45l10 73h45l21 146h86l-25 -146h71l-10 -73h-71l-29 -200.5c-14 -97.667 -21 -149.167 -21 -154.5c0 -24.667 12.333 -37 37 -37h29l-8 -57
c-8 -4 -17.667 -7.33301 -29 -10s-22 -4 -32 -4c-28.667 0 -49.334 7.83301 -62.001 23.5z" />
    <glyph glyph-name="u" unicode="u" 
d="M69 21.5c-18 22.333 -27 50.501 -27 84.501c0 13.333 7.83301 76.5 23.5 189.5l32.5 230.5h82c-6 -38.667 -16.5 -111.834 -31.5 -219.501s-22.5 -168.167 -22.5 -181.5c0 -42.667 20 -64 60 -64c32.667 0 59.834 15.5 81.501 46.5s36.167 72.5 43.5 124.5l41 294h82
l-74 -526h-64v77c-11.333 -22 -28.333 -42.333 -51 -61s-52.334 -28 -89.001 -28c-40 0 -69 11.167 -87 33.5z" />
    <glyph glyph-name="v" unicode="v" horiz-adv-x="410" 
d="M46 526h87l38 -283l16 -124h4l51 123l117 284h88l-234 -526h-89z" />
    <glyph glyph-name="w" unicode="w" horiz-adv-x="592" 
d="M43 526h79l30 -296c5.33301 -50 8.33301 -95.667 9 -137h4c1.33301 9.33301 5 28.833 11 58.5s12.667 55.834 20 78.501l94 296h98l14 -296c0.666992 -8 1 -53.667 1 -137h4c1.33301 8.66699 5.5 27.5 12.5 56.5s15.167 55.833 24.5 80.5l111 296h77l-204 -526h-91
l-14 342c0 17.333 0.5 36.166 1.5 56.499s1.83301 33.5 2.5 39.5h-4c-1.33301 -9.33301 -5.33301 -29 -12 -59s-13.667 -56.333 -21 -79l-97 -300h-92z" />
    <glyph glyph-name="x" unicode="x" horiz-adv-x="410" 
d="M164 270l-112 256h95l72 -177h1l118 177h98l-183 -257l117 -269h-95l-77 190h-1l-128 -190h-96z" />
    <glyph glyph-name="y" unicode="y" horiz-adv-x="410" 
d="M-22 -174l8 57h28c53.333 0 93.333 39 120 117l-87 526h87l45 -317l15 -103h4l40 103l122 317h88l-214 -499c-28.667 -66 -58.5 -117.333 -89.5 -154s-67.5 -55 -109.5 -55c-24.667 0 -43.667 2.66699 -57 8z" />
    <glyph glyph-name="z" unicode="z" horiz-adv-x="410" 
d="M5 39l284 414h-211l10 73h326l-3 -38l-285 -415h240l-10 -73h-354z" />
    <glyph glyph-name="braceleft" unicode="{" horiz-adv-x="274" 
d="M88.5 -135c-25 16 -37.5 45.667 -37.5 89c0 10 1 21.667 3 35c3.33301 20.667 9 59.167 17 115.5s12 86.5 12 90.5c0 17.333 -6.83301 30.166 -20.5 38.499s-29.834 12.5 -48.501 12.5l11 84c20.667 0 39.334 4.83301 56.001 14.5s26.667 24.834 30 45.501l28 197
c8 58 27.167 97.167 57.5 117.5s70.166 30.5 119.499 30.5l-8 -57c-22 0 -41.5 -5.16699 -58.5 -15.5s-27.167 -28.833 -30.5 -55.5c-4 -29.333 -11.333 -73.333 -22 -132c-6 -30 -10.667 -54.667 -14 -74c-6.66699 -36 -17.667 -63 -33 -81s-38.666 -27 -69.999 -27l-1 -10
c26.667 0 45.667 -6.83301 57 -20.5s17 -33.834 17 -60.501c0 -32.667 -5.33301 -90 -16 -172c-5.33301 -45.333 -8 -70.666 -8 -75.999c0 -37.333 23.333 -56 70 -56l-8 -57c-43.333 0 -77.5 8 -102.5 24z" />
    <glyph glyph-name="bar" unicode="|" horiz-adv-x="213" 
d="M67 723h79v-896h-79v896z" />
    <glyph glyph-name="braceright" unicode="}" horiz-adv-x="274" 
d="M-34 -102c22 0 41.5 5.16699 58.5 15.5s27.167 28.833 30.5 55.5c4 29.333 11.333 73.333 22 132c6 30 10.667 54.667 14 74c6.66699 36 17.667 63 33 81s38.666 27 69.999 27l1 10c-26.667 0 -45.667 6.83301 -57 20.5s-17 33.834 -17 60.501
c0 32.667 5.33301 90 16 172c5.33301 45.333 8 70.666 8 75.999c0 37.333 -23.333 56 -70 56l8 57c43.333 0 77.5 -8 102.5 -24s37.5 -45.667 37.5 -89c0 -10 -1 -21.667 -3 -35c-3.33301 -20.667 -9 -59.167 -17 -115.5s-12 -86.5 -12 -90.5
c0 -17.333 6.83301 -30.166 20.5 -38.499s29.834 -12.5 48.501 -12.5l-11 -84c-20.667 0 -39.334 -4.83301 -56.001 -14.5s-26.667 -24.834 -30 -45.501l-28 -197c-8 -58 -27.167 -97.167 -57.5 -117.5s-70.166 -30.5 -119.499 -30.5z" />
    <glyph glyph-name="asciitilde" unicode="~" horiz-adv-x="479" 
d="M35 303c0 1.33301 6 8.5 18 21.5s27.5 24.833 46.5 35.5s40.167 16 63.5 16c14 0 26.833 -2.5 38.5 -7.5s25.834 -12.5 42.501 -22.5s31.167 -17.667 43.5 -23s25.833 -8 40.5 -8c28 0 54.167 9.33301 78.5 28s40.833 33.667 49.5 45l-13 -92
c0 -1.33301 -6 -8.5 -18 -21.5s-27.5 -24.833 -46.5 -35.5s-40.167 -16 -63.5 -16c-14 0 -26.833 2.5 -38.5 7.5s-25.834 12.5 -42.501 22.5s-31.167 17.667 -43.5 23s-25.833 8 -40.5 8c-20 0 -39.333 -5.16699 -58 -15.5s-30 -17.5 -34 -21.5l-36 -36z" />
    <glyph glyph-name="uni00A0" unicode="&#xa0;" horiz-adv-x="228" 
 />
    <glyph glyph-name="exclamdown" unicode="&#xa1;" horiz-adv-x="273" 
d="M151 526h100l-15 -108h-100zM145 355h62l-47 -515h-113z" />
    <glyph glyph-name="cent" unicode="&#xa2;" 
d="M179 71c-40.667 8 -71.832 27.5029 -93.499 58.5029s-32.5 74.167 -32.5 129.5c0 94.667 15.167 177.167 45.5 247.5s82.833 107.166 157.5 110.499l15 106h49l-16 -109c78.667 -14 118 -75.667 118 -185v-18h-81v17c0 61.333 -15.667 98.666 -47 111.999l-56 -396
c24 6 44.167 21 60.5 45s26.166 51.667 29.499 83h78c-6.66699 -56 -25.667 -103.333 -57 -142s-72 -59.334 -122 -62.001l-16 -116h-49zM245.002 542.003c-29.333 -7.33301 -52.332 -28.667 -68.999 -64s-27.834 -72.666 -33.501 -111.999s-8.5 -72.666 -8.5 -99.999
c0 -32.667 4.66699 -59.334 14 -80.001s23 -34.334 41 -41.001z" />
    <glyph glyph-name="sterling" unicode="&#xa3;" 
d="M11 79l60 0.000976562l31 225h-72l10 72h72l18 123c19.333 132.667 79 199 179 199c47.333 0 83.666 -11 108.999 -33s38 -57.667 38 -107c0 -18 -2 -40.333 -6 -67h-82c4 23.333 6 40.666 6 51.999c0 54.667 -22 82 -66 82c-26 0 -46.667 -9 -62 -27
s-25.666 -45.667 -30.999 -83l-20 -139h133l-10 -72h-134l-40 -225h249l-12 -79h-382z" />
    <glyph glyph-name="currency" unicode="&#xa4;" 
d="M88 154l-42.999 -43l-48 48l49 49c-23.333 40 -35 84.667 -35 134c0 48 11.667 92.667 35 134l-49 49l48 48l42 -43c19.333 18.667 41 33.167 65 43.5s49.333 15.5 76 15.5c26 0 51 -5.16699 75 -15.5s45.667 -24.833 65 -43.5l43 43l48 -48l-49 -49
c23.333 -41.333 35 -86 35 -134c0 -49.333 -11.667 -94 -35 -134l49 -49l-48 -48l-43 43c-19.333 -18.667 -41 -33 -65 -43s-49 -15 -75 -15c-52.667 0 -99.334 19.333 -140.001 58zM302.001 189c22.667 16 40.667 37.5 54 64.5s20 56.5 20 88.5
c0 32.667 -6.66699 62.5 -20 89.5s-31.333 48.5 -54 64.5s-47.334 24 -74.001 24c-27.333 0 -52.333 -8 -75 -24s-40.667 -37.5 -54 -64.5s-20 -56.833 -20 -89.5c0 -32 6.66699 -61.667 20 -89s31.333 -48.833 54 -64.5s47.667 -23.5 75 -23.5c26.667 0 51.334 8 74.001 24
z" />
    <glyph glyph-name="yen" unicode="&#xa5;" 
d="M171 169h-159l9 65h159l10 70h-159l9 65h128l-106 317h95l95 -293h4l174 293h83l-195 -317h128l-9 -65h-159l-10 -70h159l-9 -65h-159l-24 -169h-88z" />
    <glyph glyph-name="brokenbar" unicode="&#xa6;" horiz-adv-x="213" 
d="M67 723h79v-380h-79v380zM67 207h79v-380h-79v380z" />
    <glyph glyph-name="section" unicode="&#xa7;" 
d="M66 -148c-24.667 22.667 -37 51.668 -37 87.001c0 7.33301 0.666992 15.333 2 24s2.66602 14.667 3.99902 18h85c-2 -10 -3 -18.667 -3 -26c0 -19.333 4.83301 -35 14.5 -47s25.834 -18 48.501 -18c30.667 0 52 9.83301 64 29.5s18 39.5 18 59.5
c0 25.333 -7.33301 45.666 -22 60.999s-37 32.666 -67 51.999c-23.333 14.667 -42.333 28 -57 40s-27.167 27.333 -37.5 46s-15.5 41.334 -15.5 68.001c0 38 8.83301 71.167 26.5 99.5s39.167 50.5 64.5 66.5c-28.667 28.667 -43 64 -43 106c0 54.667 16 98.334 48 131.001
s75 49 129 49c46 0 81.333 -11.333 106 -34s37 -51.667 37 -87c0 -7.33301 -0.666992 -15.333 -2 -24s-2.66602 -14.667 -3.99902 -18h-85c2 10 3 18.667 3 26c0 19.333 -4.83301 35 -14.5 47s-25.834 18 -48.501 18c-30.667 0 -52 -9.83301 -64 -29.5s-18 -39.5 -18 -59.5
c0 -25.333 7.33301 -45.666 22 -60.999s37 -32.666 67 -51.999c23.333 -14.667 42.333 -28 57 -40s27.167 -27.333 37.5 -46s15.5 -41.334 15.5 -68.001c0 -38 -8.66699 -71 -26 -99s-39 -50 -65 -66c28.667 -28.667 43 -64.334 43 -107.001
c0 -54.667 -16 -98.334 -48 -131.001s-75 -49 -129 -49c-46 0 -81.333 11.333 -106 34zM300.5 178.001c9 18 13.5 38.333 13.5 61c0 20 -4.16699 37.333 -12.5 52s-18.666 26.834 -30.999 36.501s-29.166 21.5 -50.499 35.5l-25 17c-14.667 -10 -26.5 -24 -35.5 -42
s-13.5 -38.333 -13.5 -61c0 -20 4.16699 -37.333 12.5 -52s18.666 -26.834 30.999 -36.501s29.166 -21.5 50.499 -35.5l25 -17c14.667 10 26.5 24 35.5 42z" />
    <glyph glyph-name="dieresis" unicode="&#xa8;" horiz-adv-x="273" 
d="M96 723h87l-13 -95h-87zM246 723h87l-13 -95h-87z" />
    <glyph glyph-name="copyright" unicode="&#xa9;" horiz-adv-x="604" 
d="M152 31.5c-42 29 -74.333 70.167 -97 123.5s-34 116 -34 188s11.333 134.667 34 188s55 94.5 97 123.5s92 43.5 150 43.5s108 -14.5 150 -43.5s74.333 -70.167 97 -123.5s34 -116 34 -188s-11.333 -134.667 -34 -188s-55 -94.5 -97 -123.5s-92 -43.5 -150 -43.5
s-108 14.5 -150 43.5zM427 73c35.333 25.333 62.5 61.166 81.5 107.499s28.5 100.5 28.5 162.5s-9.5 116.167 -28.5 162.5s-46.167 82.166 -81.5 107.499s-77 38 -125 38s-89.667 -12.667 -125 -38s-62.5 -61.166 -81.5 -107.499s-28.5 -100.5 -28.5 -162.5
s9.5 -116.167 28.5 -162.5s46.167 -82.166 81.5 -107.499s77 -38 125 -38s89.667 12.667 125 38zM145 348c0 140 53 210 159 210c42.667 0 76.834 -13 102.501 -39s38.5 -64 38.5 -114h-58c0 33.333 -7.33301 58.5 -22 75.5s-35 25.5 -61 25.5
c-34 0 -59.167 -11.667 -75.5 -35s-24.5 -59 -24.5 -107v-30c0 -95.333 33.333 -143 100 -143c26 0 46.667 8.5 62 25.5s23 41.833 23 74.5h56c0 -50 -12.833 -87.833 -38.5 -113.5s-59.834 -38.5 -102.501 -38.5c-106 0 -159 69.667 -159 209z" />
    <glyph glyph-name="ordfeminine" unicode="&#xaa;" horiz-adv-x="303" 
d="M85.5 395.5c-16.333 22.333 -24.499 55.501 -24.499 99.501c0 51.333 6.66699 95.166 20 131.499s30.5 63.666 51.5 81.999s43.167 27.5 66.5 27.5c35.333 0 58.333 -19.333 69 -58l33 50h29c-4.66699 -30 -11.834 -78.667 -21.501 -146s-16.5 -117.666 -20.5 -150.999
c0 -12.667 5.66699 -19 17 -19h21l-5 -39c-10 -7.33301 -22.667 -11 -38 -11c-35.333 0 -53.333 18.667 -54 56c-12 -19.333 -24.167 -33.5 -36.5 -42.5s-25.833 -13.5 -40.5 -13.5c-28 0 -50.167 11.167 -66.5 33.5zM214.001 450.501c12 23 20.833 49.833 26.5 80.5
s8.5 57 8.5 79c0 48 -14 72 -42 72c-30 0 -51.5 -21.5 -64.5 -64.5s-19.5 -85.833 -19.5 -128.5c0 -48.667 15.333 -73 46 -73c18 0 33 11.5 45 34.5z" />
    <glyph glyph-name="guillemotleft" unicode="&#xab;" 
d="M54 326l167 200h73l-141 -200l84 -200h-71zM205 326l168 200h72l-140 -200l83 -200h-70z" />
    <glyph glyph-name="logicalnot" unicode="&#xac;" horiz-adv-x="479" 
d="M355 360h-312l13 93h396l-35 -256h-84z" />
    <glyph glyph-name="uni00AD" unicode="&#xad;" horiz-adv-x="273" 
d="M16 319h252l-13 -98h-252z" />
    <glyph glyph-name="registered" unicode="&#xae;" horiz-adv-x="604" 
d="M152 31.5c-42 29 -74.333 70.167 -97 123.5s-34 116 -34 188s11.333 134.667 34 188s55 94.5 97 123.5s92 43.5 150 43.5s108 -14.5 150 -43.5s74.333 -70.167 97 -123.5s34 -116 34 -188s-11.333 -134.667 -34 -188s-55 -94.5 -97 -123.5s-92 -43.5 -150 -43.5
s-108 14.5 -150 43.5zM427 73c35.333 25.333 62.5 61.166 81.5 107.499s28.5 100.5 28.5 162.5s-9.5 116.167 -28.5 162.5s-46.167 82.166 -81.5 107.499s-77 38 -125 38s-89.667 -12.667 -125 -38s-62.5 -61.166 -81.5 -107.499s-28.5 -100.5 -28.5 -162.5
s9.5 -116.167 28.5 -162.5s46.167 -82.166 81.5 -107.499s77 -38 125 -38s89.667 12.667 125 38zM377 221c0 36.667 -6.5 62.834 -19.5 78.501s-28.167 23.5 -45.5 23.5h-81v-175h-57v402h161c30 0 54.667 -9.33301 74 -28s29 -43 29 -73
c0 -23.333 -5.83301 -43.333 -17.5 -60s-26.834 -28 -45.501 -34v-4c12.667 -5.33301 25.834 -16.333 39.501 -33s20.5 -41.334 20.5 -74.001c0 -26.667 2.16699 -45.167 6.5 -55.5s11.5 -17.5 21.5 -21.5v-17c-8 -3.33301 -17.667 -5 -29 -5c-38 0 -57 25.333 -57 76z
M314 376c20 0 35.833 5.83301 47.5 17.5s17.5 26.5 17.5 44.5c0 18.667 -5.66699 33.167 -17 43.5s-26.333 15.5 -45 15.5h-86v-121h83z" />
    <glyph glyph-name="macron" unicode="&#xaf;" horiz-adv-x="273" 
d="M91 671h250l-11 -72h-250z" />
    <glyph glyph-name="degree" unicode="&#xb0;" horiz-adv-x="400" 
d="M142 446c-20.667 12 -37 28.333 -49 49s-18 43.334 -18 68.001s6 47.334 18 68.001s28.333 37 49 49s43.334 18 68.001 18s47.334 -6 68.001 -18s37 -28.333 49 -49s18 -43.334 18 -68.001s-6 -47.334 -18 -68.001s-28.333 -37 -49 -49s-43.334 -18 -68.001 -18
s-47.334 6 -68.001 18zM267.5 505c15.667 16 23.5 35.333 23.5 58s-7.83301 41.834 -23.5 57.501s-34.834 23.5 -57.501 23.5s-42 -7.83301 -58 -23.5s-24 -34.834 -24 -57.501s8 -42 24 -58s35.333 -24 58 -24s41.834 8 57.501 24z" />
    <glyph glyph-name="plusminus" unicode="&#xb1;" horiz-adv-x="549" 
d="M234 310h-154l12 84h154l26 184h83l-26 -184h155l-12 -84h-155l-25 -183h-83zM49 83h392l-12 -83h-392z" />
    <glyph glyph-name="uni00B2" unicode="&#xb2;" horiz-adv-x="273" 
d="M41 338c3.33301 28.667 13.834 54.167 31.501 76.5s42.834 48.5 75.501 78.5c31.333 28.667 54.833 53.5 70.5 74.5s23.5 43.833 23.5 68.5c0 11.333 -3 20.833 -9 28.5s-16 11.5 -30 11.5c-16 0 -28.667 -6.16699 -38 -18.5s-15.333 -28.166 -18 -47.499l-4 -31h-63
c0.666992 51.333 13.334 90.166 38.001 116.499s54.667 39.5 90 39.5c30.667 0 55.167 -7.5 73.5 -22.5s27.5 -37.833 27.5 -68.5c0 -33.333 -10.667 -64.833 -32 -94.5s-50 -61.167 -86 -94.5c-2.66699 -2.66699 -8.83398 -8.5 -18.501 -17.5s-18.334 -18 -26.001 -27
s-13.834 -17.5 -18.501 -25.5h146l-9 -63h-227z" />
    <glyph glyph-name="uni00B3" unicode="&#xb3;" horiz-adv-x="273" 
d="M80.5 342c-18.333 17.333 -27.5 41.332 -27.5 71.999c0 14.667 1 27.334 3 38.001h64c-2 -13.333 -3 -24 -3 -32c0 -31.333 14 -47 42 -47c18.667 0 34.167 6.83301 46.5 20.5s18.5 33.5 18.5 59.5c0 31.333 -16 47 -48 47h-29l8 57h30c16 0 29.667 6.5 41 19.5
s17 31.5 17 55.5c0 15.333 -3.5 26.833 -10.5 34.5s-16.167 11.5 -27.5 11.5c-14 0 -26.167 -5.33301 -36.5 -16s-16.833 -26.334 -19.5 -47.001l-2 -13h-63l3 18c5.33301 34.667 18.833 62.5 40.5 83.5s48.167 31.5 79.5 31.5s55.833 -8 73.5 -24s26.5 -39 26.5 -69
c0 -27.333 -5.33301 -49.833 -16 -67.5s-26 -32.167 -46 -43.5c12.667 -7.33301 22.834 -17.666 30.501 -30.999s11.5 -29.333 11.5 -48c0 -27.333 -5.83301 -51.333 -17.5 -72s-27.334 -36.5 -47.001 -47.5s-40.5 -16.5 -62.5 -16.5c-34.667 0 -61.167 8.66699 -79.5 26z
" />
    <glyph glyph-name="acute" unicode="&#xb4;" horiz-adv-x="273" 
d="M218 723h90l1 -3l-108 -129h-69z" />
    <glyph glyph-name="uni00B5" unicode="&#xb5;" horiz-adv-x="576" 
d="M169 526l82 0.000976562c-6 -38.667 -16.5 -111.834 -31.5 -219.501s-22.5 -168.167 -22.5 -181.5c0 -42.667 20 -64 60 -64c32.667 0 59.834 15.5 81.501 46.5s36.167 72.5 43.5 124.5l41 294h82l-74 -526h-64v77c-11.333 -22 -28.333 -42.333 -51 -61
s-52.334 -28 -89.001 -28c-20.667 0 -38 3 -52 9l-23 -170h-82z" />
    <glyph glyph-name="paragraph" unicode="&#xb6;" horiz-adv-x="440" 
d="M186 250c-42.667 5.33301 -77 24.832 -103 58.499s-39 74.5 -39 122.5c0 50.667 10.5 95.334 31.5 134.001s48.833 68.5 83.5 89.5s71.667 31.5 111 31.5h209l-9 -61h-48l-112 -798h-66l112 798h-53l-112 -798h-65z" />
    <glyph glyph-name="periodcentered" unicode="&#xb7;" horiz-adv-x="228" 
d="M87 399h101l-15 -111h-101z" />
    <glyph glyph-name="cedilla" unicode="&#xb8;" horiz-adv-x="273" 
d="M23 -174l7.00098 49.001h76c13.333 0 23.333 2.16699 30 6.5s10 12.166 10 23.499c0 12 -10.333 18 -31 18h-33l26 88h55l-14 -47c48.667 -4 73 -22 73 -54c0 -34 -12.167 -57.833 -36.5 -71.5s-50.833 -20.5 -79.5 -20.5c-30.667 0 -58.334 2.66699 -83.001 8z" />
    <glyph glyph-name="uni00B9" unicode="&#xb9;" horiz-adv-x="273" 
d="M61 380h79l37 258h-80l6 43c16 2 35.667 7.16699 59 15.5s43.333 17.5 60 27.5h29l-49 -344h73l-8 -58h-214z" />
    <glyph glyph-name="ordmasculine" unicode="&#xba;" horiz-adv-x="299" 
d="M58 488c0 63.333 11.5 120.333 34.5 171s62.167 76 117.5 76c75.333 0 113 -43 113 -129c0 -62.667 -11.5 -119.167 -34.5 -169.5s-62.167 -75.5 -117.5 -75.5c-75.333 0 -113 42.333 -113 127zM241 479c12.667 42.667 19 84.999 19 126.999c0 50 -16.667 75 -50 75
c-34 0 -57.333 -20.667 -70 -62s-19 -82.333 -19 -123c0 -27.333 4 -47.666 12 -60.999s20.667 -20 38 -20c34 0 57.333 21.333 70 64z" />
    <glyph glyph-name="guillemotright" unicode="&#xbb;" 
d="M163 326l-84 200h70l114 -200l-169 -200h-72zM315 326l-85 200h71l113 -200l-168 -200h-73z" />
    <glyph glyph-name="onequarter" unicode="&#xbc;" horiz-adv-x="684" 
d="M594 698h62l-513 -710h-63zM37 342h79l37 258h-80l6 43c16 2 35.667 7.16699 59 15.5s43.333 17.5 60 27.5h29l-49 -344h73l-8 -58h-214zM528 96h-149.999l6 52c53.333 76 100.666 164.333 141.999 265h62c-16.667 -46 -38.667 -94 -66 -144s-51 -88.667 -71 -116h85
l13 91l20 40c12 24 22 47.667 30 71h27l-28 -202h40l-8 -57h-40l-14 -96h-62z" />
    <glyph glyph-name="onehalf" unicode="&#xbd;" horiz-adv-x="684" 
d="M579 698h62l-513 -710h-63zM36 342h79l37 258h-80l6 43c16 2 35.667 7.16699 59 15.5s43.333 17.5 60 27.5h29l-49 -344h73l-8 -58h-214zM389 16c2.66699 20.667 9.50098 40.167 20.501 58.5s22.833 34 35.5 47s32 31.833 58 56.5c28.667 26 50.334 49.167 65.001 69.5
s22 42.5 22 66.5c0 11.333 -3 20.833 -9 28.5s-16 11.5 -30 11.5c-16 0 -28.667 -6.16699 -38 -18.5s-15.333 -28.166 -18 -47.499l-4 -31h-63c0.666992 51.333 13.334 90.166 38.001 116.499s54.667 39.5 90 39.5c30.667 0 55.167 -7.5 73.5 -22.5s27.5 -37.833 27.5 -68.5
c0 -33.333 -10.667 -64.833 -32 -94.5s-50 -61.167 -86 -94.5c-2.66699 -2.66699 -8.83398 -8.5 -18.501 -17.5s-18.334 -18 -26.001 -27s-13.834 -17.5 -18.501 -25.5h146l-9 -63h-227z" />
    <glyph glyph-name="threequarters" unicode="&#xbe;" horiz-adv-x="684" 
d="M70.5 305c-18.333 17.333 -27.5 41.332 -27.5 71.999c0 14.667 1 27.334 3 38.001h64c-2 -13.333 -3 -24 -3 -32c0 -31.333 14 -47 42 -47c18.667 0 34.167 6.83301 46.5 20.5s18.5 33.5 18.5 59.5c0 31.333 -16 47 -48 47h-29l8 57h30c16 0 29.667 6.5 41 19.5
s17 31.5 17 55.5c0 15.333 -3.5 26.833 -10.5 34.5s-16.167 11.5 -27.5 11.5c-14 0 -26.167 -5.33301 -36.5 -16s-16.833 -26.334 -19.5 -47.001l-2 -13h-63l3 18c5.33301 34.667 18.833 62.5 40.5 83.5s48.167 31.5 79.5 31.5s55.833 -8 73.5 -24s26.5 -39 26.5 -69
c0 -27.333 -5.33301 -49.833 -16 -67.5s-26 -32.167 -46 -43.5c12.667 -7.33301 22.834 -17.666 30.501 -30.999s11.5 -29.333 11.5 -48c0 -27.333 -5.83301 -51.333 -17.5 -72s-27.334 -36.5 -47.001 -47.5s-40.5 -16.5 -62.5 -16.5c-34.667 0 -61.167 8.66699 -79.5 26z
M589 697.999h62l-513 -710h-63zM525 95.999h-149.999l6 52c53.333 76 100.666 164.333 141.999 265h62c-16.667 -46 -38.667 -94 -66 -144s-51 -88.667 -71 -116h85l13 91l20 40c12 24 22 47.667 30 71h27l-28 -202h40l-8 -57h-40l-14 -96h-62z" />
    <glyph glyph-name="questiondown" unicode="&#xbf;" horiz-adv-x="501" 
d="M275 526h100l-16 -108h-100zM119 -131c-29.333 27.333 -43.9971 63.6641 -43.9971 108.997c0 36 4.83301 67.333 14.5 94s21.334 48.5 35.001 65.5s31.167 35.833 52.5 56.5c22 21.333 38.667 39.833 50 55.5s18.666 34.167 21.999 55.5l6 41h87l-8 -56
c-4 -29.333 -12.833 -53.666 -26.5 -72.999s-32.834 -40.666 -57.501 -63.999c-18 -18 -32.333 -33.5 -43 -46.5s-19.834 -28.833 -27.501 -47.5s-11.5 -40.334 -11.5 -65.001c0 -23.333 5.5 -44 16.5 -62s30.5 -27 58.5 -27c33.333 0 58.666 11.5 75.999 34.5
s28.5 46.833 33.5 71.5s7.5 43.334 7.5 56.001h89c-0.666992 -43.333 -9.5 -83.166 -26.5 -119.499s-41.5 -65.333 -73.5 -87s-70 -32.5 -114 -32.5c-48 0 -86.667 13.667 -116 41z" />
    <glyph glyph-name="Agrave" unicode="&#xc0;" horiz-adv-x="547" 
d="M246 880l2 3h89l68 -132h-70zM278 686h113l121 -686h-91l-26 153h-275l-69 -153h-87zM382 233l-51 305c-1.33301 9.33301 -2.5 22.833 -3.5 40.5s-1.5 29.5 -1.5 35.5h-4c-2 -6 -6.16699 -17.833 -12.5 -35.5s-11.5 -31.167 -15.5 -40.5l-138 -305h226z" />
    <glyph glyph-name="Aacute" unicode="&#xc1;" horiz-adv-x="547" 
d="M378 883h91l1 -3l-108 -129h-70zM278 686h113l121 -686h-91l-26 153h-275l-69 -153h-87zM382 233l-51 305c-1.33301 9.33301 -2.5 22.833 -3.5 40.5s-1.5 29.5 -1.5 35.5h-4c-2 -6 -6.16699 -17.833 -12.5 -35.5s-11.5 -31.167 -15.5 -40.5l-138 -305h226z" />
    <glyph glyph-name="Acircumflex" unicode="&#xc2;" horiz-adv-x="547" 
d="M321 883h78l66 -135h-77l-33 79l-56 -79h-83zM278 686h113l121 -686h-91l-26 153h-275l-69 -153h-87zM382 233l-51 305c-1.33301 9.33301 -2.5 22.833 -3.5 40.5s-1.5 29.5 -1.5 35.5h-4c-2 -6 -6.16699 -17.833 -12.5 -35.5s-11.5 -31.167 -15.5 -40.5l-138 -305h226z
" />
    <glyph glyph-name="Atilde" unicode="&#xc3;" horiz-adv-x="547" 
d="M231.5 851c16.333 21.333 37.834 32 64.501 32c10 0 19.667 -1.33301 29 -4s19.666 -6.66699 30.999 -12c22.667 -10 40.667 -15 54 -15c20.667 0 33.667 10.333 39 31h58c-4 -26.667 -14.333 -50.667 -31 -72s-38.334 -32 -65.001 -32c-10 0 -19.667 1.33301 -29 4
s-19.666 6.66699 -30.999 12c-22.667 10 -40.667 15 -54 15c-20.667 0 -33.667 -10.333 -39 -31h-57c4 26.667 14.167 50.667 30.5 72zM278.001 686h113l121 -686h-91l-26 153h-275l-69 -153h-87zM382.001 233l-51 305c-1.33301 9.33301 -2.5 22.833 -3.5 40.5
s-1.5 29.5 -1.5 35.5h-4c-2 -6 -6.16699 -17.833 -12.5 -35.5s-11.5 -31.167 -15.5 -40.5l-138 -305h226z" />
    <glyph glyph-name="Adieresis" unicode="&#xc4;" horiz-adv-x="547" 
d="M247 883h86l-13 -95h-87zM396 883h87l-13 -95h-87zM278 686h113l121 -686h-91l-26 153h-275l-69 -153h-87zM382 233l-51 305c-1.33301 9.33301 -2.5 22.833 -3.5 40.5s-1.5 29.5 -1.5 35.5h-4c-2 -6 -6.16699 -17.833 -12.5 -35.5s-11.5 -31.167 -15.5 -40.5l-138 -305
h226z" />
    <glyph glyph-name="Aring" unicode="&#xc5;" horiz-adv-x="547" 
d="M283.5 738.5c-16.333 15.667 -24.501 35.833 -24.501 60.5c0 28 10 51.333 30 70s43 28 69 28c24.667 0 45.167 -8 61.5 -24s24.5 -36 24.5 -60c0 -27.333 -9.83301 -50.5 -29.5 -69.5s-42.5 -28.5 -68.5 -28.5c-25.333 0 -46.166 7.83301 -62.499 23.5zM384.999 770.499
c10 10.333 15.002 23.5 15.002 39.5c0 12.667 -4.33301 23.667 -13 33s-19.334 14 -32.001 14c-14 0 -26 -5.16699 -36 -15.5s-15 -23.5 -15 -39.5c0 -12.667 4.16699 -23.667 12.5 -33s19.166 -14 32.499 -14c14 0 26 5.16699 36 15.5zM278.001 685.999h113l121 -686h-91
l-26 153h-275l-69 -153h-87zM382.001 232.999l-51 305c-1.33301 9.33301 -2.5 22.833 -3.5 40.5s-1.5 29.5 -1.5 35.5h-4c-2 -6 -6.16699 -17.833 -12.5 -35.5s-11.5 -31.167 -15.5 -40.5l-138 -305h226z" />
    <glyph glyph-name="AE" unicode="&#xc6;" horiz-adv-x="820" 
d="M331 686h499l-12 -80h-367l18 -215h275l-11 -80h-258l20 -231h256l-12 -80h-329l-13 153h-269l-79 -153h-92zM391 233l-24 293c-1.33301 14.667 -2.33301 29.5 -3 44.5s-1 25.5 -1 31.5h-4l-14.5 -32c-7 -15.333 -14.167 -30 -21.5 -44l-153 -293h221z" />
    <glyph glyph-name="Ccedilla" unicode="&#xc7;" horiz-adv-x="592" 
d="M146 -174l7.00098 49.001h76c13.333 0 23.5 2.16699 30.5 6.5s10.5 12.166 10.5 23.499c0 12 -10.333 18 -31 18h-33l20 70c-55.333 10 -98.333 35.667 -129 77s-46 98.333 -46 171c0 69.333 9.5 138.833 28.5 208.5s51 128.5 96 176.5s104.167 72 177.5 72
c144.667 0 217 -81.667 217 -245v-16h-91v22c0 105.333 -42.333 158 -127 158c-56.667 0 -100.667 -23.5 -132 -70.5s-52.333 -98.667 -63 -155s-16 -104.833 -16 -145.5c0 -56.667 12.167 -100.167 36.5 -130.5s59.166 -45.5 104.499 -45.5c48 0 86.833 16.333 116.5 49
s48.167 73.667 55.5 123h87c-10.667 -78.667 -39 -140.667 -85 -186s-104.667 -68 -176 -68l-8 -24c49.333 -4 74 -22 74 -54c0 -34 -12.167 -57.833 -36.5 -71.5s-51.166 -20.5 -80.499 -20.5c-30.667 0 -58.334 2.66699 -83.001 8z" />
    <glyph glyph-name="Egrave" unicode="&#xc8;" horiz-adv-x="547" 
d="M236 880l2 3h90l68 -132h-70zM131 686h423l-12 -80h-335l-30 -215h291l-11 -80h-291l-32 -231h341l-12 -80h-429z" />
    <glyph glyph-name="Eacute" unicode="&#xc9;" horiz-adv-x="547" 
d="M369 883h90l1 -3l-107 -129h-70zM131 686h423l-12 -80h-335l-30 -215h291l-11 -80h-291l-32 -231h341l-12 -80h-429z" />
    <glyph glyph-name="Ecircumflex" unicode="&#xca;" horiz-adv-x="547" 
d="M312 883h78l66 -135h-77l-33 79l-56 -79h-83zM131 686h423l-12 -80h-335l-30 -215h291l-11 -80h-291l-32 -231h341l-12 -80h-429z" />
    <glyph glyph-name="Edieresis" unicode="&#xcb;" horiz-adv-x="547" 
d="M237 883h87l-13 -95h-87zM387 883h87l-13 -95h-87zM131 686h423l-12 -80h-335l-30 -215h291l-11 -80h-291l-32 -231h341l-12 -80h-429z" />
    <glyph glyph-name="Igrave" unicode="&#xcc;" horiz-adv-x="228" 
d="M85 880l2 3h90l68 -132h-70zM131 686h88l-97 -686h-88z" />
    <glyph glyph-name="Iacute" unicode="&#xcd;" horiz-adv-x="228" 
d="M218 883h91l1 -3l-108 -129h-70zM131 686h88l-97 -686h-88z" />
    <glyph glyph-name="Icircumflex" unicode="&#xce;" horiz-adv-x="228" 
d="M161 883h78l66 -135h-77l-33 79l-56 -79h-83zM131 686h88l-97 -686h-88z" />
    <glyph glyph-name="Idieresis" unicode="&#xcf;" horiz-adv-x="228" 
d="M86 883h87l-13 -95h-87zM236 883h87l-13 -95h-87zM131 686h88l-97 -686h-88z" />
    <glyph glyph-name="Eth" unicode="&#xd0;" horiz-adv-x="592" 
d="M79 323h-64.999l9 64h65l43 299h203c73.333 0 129.833 -21.667 169.5 -65s59.5 -107.333 59.5 -192c0 -66 -10.333 -131.833 -31 -197.5s-53.334 -120.667 -98.001 -165s-101 -66.5 -169 -66.5h-231zM255.001 80c53.333 0 96.168 18.167 128.501 54.5
s55.166 80.833 68.499 133.5s20 106 20 160c0 59.333 -12.833 103.833 -38.5 133.5s-62.167 44.5 -109.5 44.5h-117l-31 -219h157l-9 -64h-157l-33 -243h121z" />
    <glyph glyph-name="Ntilde" unicode="&#xd1;" horiz-adv-x="592" 
d="M251.5 851c16.333 21.333 37.834 32 64.501 32c10 0 19.667 -1.33301 29 -4s19.666 -6.66699 30.999 -12c22.667 -10 40.667 -15 54 -15c20.667 0 33.667 10.333 39 31h58c-4 -26.667 -14.333 -50.667 -31 -72s-38.334 -32 -65.001 -32c-10 0 -19.667 1.33301 -29 4
s-19.666 6.66699 -30.999 12c-22.667 10 -40.667 15 -54 15c-20.667 0 -33.667 -10.333 -39 -31h-57c4 26.667 14.167 50.667 30.5 72zM130.001 686h72l195 -431c4.66699 -10.667 10.667 -26.834 18 -48.501s12 -36.167 14 -43.5l3 1c0.666992 7.33301 2 20.5 4 39.5
s4 36.167 6 51.5l61 431h79l-97 -686h-69l-197 437c-5.33301 12 -11.666 28.667 -18.999 50s-12 35.333 -14 42l-3 -1c-0.666992 -6.66699 -1.83398 -19.167 -3.50098 -37.5s-3.5 -36.166 -5.5 -53.499l-62 -437h-79z" />
    <glyph glyph-name="Ograve" unicode="&#xd2;" horiz-adv-x="638" 
d="M289 880l2 3h90l67 -132h-69zM112.5 53c-41 43.333 -61.501 107.999 -61.501 193.999c0 71.333 10.333 141.333 31 210s54.5 126 101.5 172s108.167 69 183.5 69c76 0 134.667 -22 176 -66s62 -109 62 -195c0 -71.333 -10.333 -141.166 -31 -209.499
s-54.667 -125.333 -102 -171s-108.666 -68.5 -183.999 -68.5c-76 0 -134.5 21.667 -175.5 65zM423.499 126.499c33.667 38.333 57.167 85.333 70.5 141s20 112.167 20 169.5c0 59.333 -12.833 104.166 -38.5 134.499s-62.167 45.5 -109.5 45.5
c-56 0 -100.667 -19.167 -134 -57.5s-56.833 -85.166 -70.5 -140.499s-20.5 -112 -20.5 -170c0 -60 12.667 -105 38 -135s62 -45 110 -45c56 0 100.833 19.167 134.5 57.5z" />
    <glyph glyph-name="Oacute" unicode="&#xd3;" horiz-adv-x="638" 
d="M422 883h90l1 -3l-108 -129h-69zM112.5 53c-41 43.333 -61.501 107.999 -61.501 193.999c0 71.333 10.333 141.333 31 210s54.5 126 101.5 172s108.167 69 183.5 69c76 0 134.667 -22 176 -66s62 -109 62 -195c0 -71.333 -10.333 -141.166 -31 -209.499
s-54.667 -125.333 -102 -171s-108.666 -68.5 -183.999 -68.5c-76 0 -134.5 21.667 -175.5 65zM423.499 126.499c33.667 38.333 57.167 85.333 70.5 141s20 112.167 20 169.5c0 59.333 -12.833 104.166 -38.5 134.499s-62.167 45.5 -109.5 45.5
c-56 0 -100.667 -19.167 -134 -57.5s-56.833 -85.166 -70.5 -140.499s-20.5 -112 -20.5 -170c0 -60 12.667 -105 38 -135s62 -45 110 -45c56 0 100.833 19.167 134.5 57.5z" />
    <glyph glyph-name="Ocircumflex" unicode="&#xd4;" horiz-adv-x="638" 
d="M365 883h78l66 -135h-77l-33 79l-56 -79h-83zM112.5 53c-41 43.333 -61.501 107.999 -61.501 193.999c0 71.333 10.333 141.333 31 210s54.5 126 101.5 172s108.167 69 183.5 69c76 0 134.667 -22 176 -66s62 -109 62 -195c0 -71.333 -10.333 -141.166 -31 -209.499
s-54.667 -125.333 -102 -171s-108.666 -68.5 -183.999 -68.5c-76 0 -134.5 21.667 -175.5 65zM423.499 126.499c33.667 38.333 57.167 85.333 70.5 141s20 112.167 20 169.5c0 59.333 -12.833 104.166 -38.5 134.499s-62.167 45.5 -109.5 45.5
c-56 0 -100.667 -19.167 -134 -57.5s-56.833 -85.166 -70.5 -140.499s-20.5 -112 -20.5 -170c0 -60 12.667 -105 38 -135s62 -45 110 -45c56 0 100.833 19.167 134.5 57.5z" />
    <glyph glyph-name="Otilde" unicode="&#xd5;" horiz-adv-x="638" 
d="M274.5 851c16.333 21.333 37.833 32 64.5 32c10 0 19.5 -1.33301 28.5 -4s19.833 -6.66699 32.5 -12c22.667 -10 40.667 -15 54 -15c20 0 32.667 10.333 38 31h58c-4 -26.667 -14.333 -50.667 -31 -72s-38 -32 -64 -32c-10.667 0 -20.5 1.33301 -29.5 4
s-19.833 6.66699 -32.5 12c-21.333 10 -39 15 -53 15c-20 0 -33 -10.333 -39 -31h-57c4 26.667 14.167 50.667 30.5 72zM112.5 53c-41 43.333 -61.501 107.999 -61.501 193.999c0 71.333 10.333 141.333 31 210s54.5 126 101.5 172s108.167 69 183.5 69
c76 0 134.667 -22 176 -66s62 -109 62 -195c0 -71.333 -10.333 -141.166 -31 -209.499s-54.667 -125.333 -102 -171s-108.666 -68.5 -183.999 -68.5c-76 0 -134.5 21.667 -175.5 65zM423.499 126.499c33.667 38.333 57.167 85.333 70.5 141s20 112.167 20 169.5
c0 59.333 -12.833 104.166 -38.5 134.499s-62.167 45.5 -109.5 45.5c-56 0 -100.667 -19.167 -134 -57.5s-56.833 -85.166 -70.5 -140.499s-20.5 -112 -20.5 -170c0 -60 12.667 -105 38 -135s62 -45 110 -45c56 0 100.833 19.167 134.5 57.5z" />
    <glyph glyph-name="Odieresis" unicode="&#xd6;" horiz-adv-x="638" 
d="M290 883h87l-13 -95h-87zM440 883h87l-13 -95h-87zM112.5 53c-41 43.333 -61.501 107.999 -61.501 193.999c0 71.333 10.333 141.333 31 210s54.5 126 101.5 172s108.167 69 183.5 69c76 0 134.667 -22 176 -66s62 -109 62 -195c0 -71.333 -10.333 -141.166 -31 -209.499
s-54.667 -125.333 -102 -171s-108.666 -68.5 -183.999 -68.5c-76 0 -134.5 21.667 -175.5 65zM423.499 126.499c33.667 38.333 57.167 85.333 70.5 141s20 112.167 20 169.5c0 59.333 -12.833 104.166 -38.5 134.499s-62.167 45.5 -109.5 45.5
c-56 0 -100.667 -19.167 -134 -57.5s-56.833 -85.166 -70.5 -140.499s-20.5 -112 -20.5 -170c0 -60 12.667 -105 38 -135s62 -45 110 -45c56 0 100.833 19.167 134.5 57.5z" />
    <glyph glyph-name="multiply" unicode="&#xd7;" horiz-adv-x="479" 
d="M16 104l174 151l-131 152l63 59l133 -152l174 152l47 -59l-175 -152l132 -151l-63 -59l-132 150l-175 -150z" />
    <glyph glyph-name="Oslash" unicode="&#xd8;" horiz-adv-x="638" 
d="M110 56c-39.333 43.333 -59 106.998 -59 190.998c0 71.333 10.333 141.333 31 210s54.5 126 101.5 172s108.167 69 183.5 69c55.333 0 100.666 -11.333 135.999 -34l38 59h64l-60 -93c40 -45.333 60 -109.666 60 -192.999c0 -71.333 -10.333 -141.166 -31 -209.499
s-54.667 -125.333 -102 -171s-108.666 -68.5 -183.999 -68.5c-54 0 -99.667 11 -137 33l-37 -58h-64zM455 589.998c-22.667 18 -52.333 26.999 -89 26.999c-56 0 -100.667 -19.167 -134 -57.5s-56.833 -85.166 -70.5 -140.499s-20.5 -112 -20.5 -170
c0 -44.667 7.33301 -81.667 22 -111zM423.501 126.497c33.667 38.333 57.167 85.332 70.5 140.999s20 112.167 20 169.5c0 44.667 -7.66699 81.334 -23 110.001l-292 -452c23.333 -17.333 53.333 -26 90 -26c56 0 100.833 19.167 134.5 57.5z" />
    <glyph glyph-name="Ugrave" unicode="&#xd9;" horiz-adv-x="592" 
d="M263 880l2 3h89l68 -132h-69zM111 35.5c-36 31.667 -54 77.499 -54 137.499c0 19.333 9.83301 97.333 29.5 234l40.5 279h88l-40 -281c-19.333 -137.333 -29 -210.666 -29 -219.999c0 -38 10.5 -66.833 31.5 -86.5s50.5 -29.5 88.5 -29.5c43.333 0 79 12.833 107 38.5
s45.333 62.5 52 110.5l66 468h88l-66 -463c-10.667 -76.667 -37.5 -135 -80.5 -175s-99.167 -60 -168.5 -60c-66 0 -117 15.833 -153 47.5z" />
    <glyph glyph-name="Uacute" unicode="&#xda;" horiz-adv-x="592" 
d="M396 883h90l1 -3l-108 -129h-69zM111 35.5c-36 31.667 -54 77.499 -54 137.499c0 19.333 9.83301 97.333 29.5 234l40.5 279h88l-40 -281c-19.333 -137.333 -29 -210.666 -29 -219.999c0 -38 10.5 -66.833 31.5 -86.5s50.5 -29.5 88.5 -29.5c43.333 0 79 12.833 107 38.5
s45.333 62.5 52 110.5l66 468h88l-66 -463c-10.667 -76.667 -37.5 -135 -80.5 -175s-99.167 -60 -168.5 -60c-66 0 -117 15.833 -153 47.5z" />
    <glyph glyph-name="Ucircumflex" unicode="&#xdb;" horiz-adv-x="592" 
d="M338 883h79l65 -135h-77l-32 79l-57 -79h-83zM111 35.5c-36 31.667 -54 77.499 -54 137.499c0 19.333 9.83301 97.333 29.5 234l40.5 279h88l-40 -281c-19.333 -137.333 -29 -210.666 -29 -219.999c0 -38 10.5 -66.833 31.5 -86.5s50.5 -29.5 88.5 -29.5
c43.333 0 79 12.833 107 38.5s45.333 62.5 52 110.5l66 468h88l-66 -463c-10.667 -76.667 -37.5 -135 -80.5 -175s-99.167 -60 -168.5 -60c-66 0 -117 15.833 -153 47.5z" />
    <glyph glyph-name="Udieresis" unicode="&#xdc;" horiz-adv-x="592" 
d="M264 883h87l-14 -95h-87zM414 883h86l-13 -95h-87zM111 35.5c-36 31.667 -54 77.499 -54 137.499c0 19.333 9.83301 97.333 29.5 234l40.5 279h88l-40 -281c-19.333 -137.333 -29 -210.666 -29 -219.999c0 -38 10.5 -66.833 31.5 -86.5s50.5 -29.5 88.5 -29.5
c43.333 0 79 12.833 107 38.5s45.333 62.5 52 110.5l66 468h88l-66 -463c-10.667 -76.667 -37.5 -135 -80.5 -175s-99.167 -60 -168.5 -60c-66 0 -117 15.833 -153 47.5z" />
    <glyph glyph-name="Yacute" unicode="&#xdd;" horiz-adv-x="547" 
d="M381 883h91l1 -3l-108 -129h-70zM235 284l-165 402h96l125 -318h4l214 318h92l-278 -402l-40 -284h-88z" />
    <glyph glyph-name="Thorn" unicode="&#xde;" horiz-adv-x="547" 
d="M131 686h88l-19 -135h147c62 0 109 -15.333 141 -46s48 -72.334 48 -125.001c0 -47.333 -10 -88.666 -30 -123.999s-47.833 -62.5 -83.5 -81.5s-76.5 -28.5 -122.5 -28.5h-157l-21 -146h-88zM309 226c38.667 0 70.667 12.668 96 38.001s38 58.666 38 99.999
c0 33.333 -8.66699 59.5 -26 78.5s-42.333 28.5 -75 28.5h-153l-35 -245h155z" />
    <glyph glyph-name="germandbls" unicode="&#xdf;" horiz-adv-x="501" 
d="M89 516c10 74 35.3311 129.003 75.998 165.003s90.334 54 149.001 54c52.667 0 94.834 -13.667 126.501 -41s47.5 -65.333 47.5 -114c0 -39.333 -11.167 -76.833 -33.5 -112.5s-50.833 -59.834 -85.5 -72.501v-4c28 -10.667 50.5 -30 67.5 -58s25.5 -59 25.5 -93
c0 -39.333 -9.83301 -77.666 -29.5 -114.999s-46.5 -67.5 -80.5 -90.5s-71.333 -34.5 -112 -34.5h-85l10 74h67c24.667 0 48.167 7.33301 70.5 22s40.333 34.5 54 59.5s20.5 51.5 20.5 79.5c0 32.667 -9.83301 60 -29.5 82s-45.167 33 -76.5 33h-67l10 73h59
c23.333 0 45 6.83301 65 20.5s35.833 31.667 47.5 54s17.5 46.166 17.5 71.499c0 29.333 -8 52.166 -24 68.499s-39.333 24.5 -70 24.5c-36 0 -66.167 -12.333 -90.5 -37s-39.833 -60.334 -46.5 -107.001l-73 -518h-81z" />
    <glyph glyph-name="agrave" unicode="&#xe0;" 
d="M174 720l2 3h90l67 -132h-69zM69 37c-24 32.667 -35.9971 81.333 -35.9971 146c0 76.667 9.83301 141.667 29.5 195s45 93.333 76 120s63.5 40 97.5 40c55.333 0 91.666 -28.333 108.999 -85l18 73h65l-35.5 -248c-17 -120.667 -25.5 -183.667 -25.5 -189
c0 -9.33301 2.16699 -16.333 6.5 -21s10.166 -7 17.499 -7h32l-8 -57c-15.333 -10.667 -34 -16 -56 -16s-39.333 6.66699 -52 20s-19.334 34.333 -20.001 63c-19.333 -28.667 -38.5 -49.667 -57.5 -63s-40.167 -20 -63.5 -20c-40.667 0 -73 16.333 -97 49zM262.503 112.999
c19 34.667 32.835 74.835 41.502 120.502s13 85.167 13 118.5c0 75.333 -23 113 -69 113c-32.667 0 -58.834 -16.833 -78.501 -50.5s-33.334 -72.834 -41.001 -117.501s-11.5 -85.334 -11.5 -122.001c0 -76 24.667 -114 74 -114c28.667 0 52.5 17.333 71.5 52z" />
    <glyph glyph-name="aacute" unicode="&#xe1;" 
d="M307 723h90l1 -3l-107 -129h-70zM69 37c-24 32.667 -35.9971 81.333 -35.9971 146c0 76.667 9.83301 141.667 29.5 195s45 93.333 76 120s63.5 40 97.5 40c55.333 0 91.666 -28.333 108.999 -85l18 73h65l-35.5 -248c-17 -120.667 -25.5 -183.667 -25.5 -189
c0 -9.33301 2.16699 -16.333 6.5 -21s10.166 -7 17.499 -7h32l-8 -57c-15.333 -10.667 -34 -16 -56 -16s-39.333 6.66699 -52 20s-19.334 34.333 -20.001 63c-19.333 -28.667 -38.5 -49.667 -57.5 -63s-40.167 -20 -63.5 -20c-40.667 0 -73 16.333 -97 49zM262.503 112.999
c19 34.667 32.835 74.835 41.502 120.502s13 85.167 13 118.5c0 75.333 -23 113 -69 113c-32.667 0 -58.834 -16.833 -78.501 -50.5s-33.334 -72.834 -41.001 -117.501s-11.5 -85.334 -11.5 -122.001c0 -76 24.667 -114 74 -114c28.667 0 52.5 17.333 71.5 52z" />
    <glyph glyph-name="acircumflex" unicode="&#xe2;" 
d="M250 723h78l66 -135h-77l-33 79l-56 -79h-83zM69 37c-24 32.667 -35.9971 81.333 -35.9971 146c0 76.667 9.83301 141.667 29.5 195s45 93.333 76 120s63.5 40 97.5 40c55.333 0 91.666 -28.333 108.999 -85l18 73h65l-35.5 -248c-17 -120.667 -25.5 -183.667 -25.5 -189
c0 -9.33301 2.16699 -16.333 6.5 -21s10.166 -7 17.499 -7h32l-8 -57c-15.333 -10.667 -34 -16 -56 -16s-39.333 6.66699 -52 20s-19.334 34.333 -20.001 63c-19.333 -28.667 -38.5 -49.667 -57.5 -63s-40.167 -20 -63.5 -20c-40.667 0 -73 16.333 -97 49zM262.503 112.999
c19 34.667 32.835 74.835 41.502 120.502s13 85.167 13 118.5c0 75.333 -23 113 -69 113c-32.667 0 -58.834 -16.833 -78.501 -50.5s-33.334 -72.834 -41.001 -117.501s-11.5 -85.334 -11.5 -122.001c0 -76 24.667 -114 74 -114c28.667 0 52.5 17.333 71.5 52z" />
    <glyph glyph-name="atilde" unicode="&#xe3;" 
d="M160.5 691.5c16.333 21 37.832 31.5 64.499 31.5c10 0 19.667 -1.33301 29 -4s19.666 -6.66699 30.999 -12c22.667 -10 40.667 -15 54 -15c20.667 0 33.334 10.333 38.001 31h59c-4 -26.667 -14.5 -50.667 -31.5 -72s-38.5 -32 -64.5 -32
c-10.667 0 -20.667 1.33301 -30 4s-19.666 6.66699 -30.999 12c-21.333 10 -39 15 -53 15c-20.667 0 -33.667 -10.333 -39 -31h-58c4.66699 27.333 15.167 51.5 31.5 72.5zM68.999 37c-24 32.667 -35.9971 81.333 -35.9971 146c0 76.667 9.83301 141.667 29.5 195
s45 93.333 76 120s63.5 40 97.5 40c55.333 0 91.666 -28.333 108.999 -85l18 73h65l-35.5 -248c-17 -120.667 -25.5 -183.667 -25.5 -189c0 -9.33301 2.16699 -16.333 6.5 -21s10.166 -7 17.499 -7h32l-8 -57c-15.333 -10.667 -34 -16 -56 -16s-39.333 6.66699 -52 20
s-19.334 34.333 -20.001 63c-19.333 -28.667 -38.5 -49.667 -57.5 -63s-40.167 -20 -63.5 -20c-40.667 0 -73 16.333 -97 49zM262.502 112.999c19 34.667 32.835 74.835 41.502 120.502s13 85.167 13 118.5c0 75.333 -23 113 -69 113
c-32.667 0 -58.834 -16.833 -78.501 -50.5s-33.334 -72.834 -41.001 -117.501s-11.5 -85.334 -11.5 -122.001c0 -76 24.667 -114 74 -114c28.667 0 52.5 17.333 71.5 52z" />
    <glyph glyph-name="adieresis" unicode="&#xe4;" 
d="M175 723h87l-13 -95h-87zM325 723h87l-13 -95h-87zM69 37c-24 32.667 -35.9971 81.333 -35.9971 146c0 76.667 9.83301 141.667 29.5 195s45 93.333 76 120s63.5 40 97.5 40c55.333 0 91.666 -28.333 108.999 -85l18 73h65l-35.5 -248
c-17 -120.667 -25.5 -183.667 -25.5 -189c0 -9.33301 2.16699 -16.333 6.5 -21s10.166 -7 17.499 -7h32l-8 -57c-15.333 -10.667 -34 -16 -56 -16s-39.333 6.66699 -52 20s-19.334 34.333 -20.001 63c-19.333 -28.667 -38.5 -49.667 -57.5 -63s-40.167 -20 -63.5 -20
c-40.667 0 -73 16.333 -97 49zM262.503 112.999c19 34.667 32.835 74.835 41.502 120.502s13 85.167 13 118.5c0 75.333 -23 113 -69 113c-32.667 0 -58.834 -16.833 -78.501 -50.5s-33.334 -72.834 -41.001 -117.501s-11.5 -85.334 -11.5 -122.001
c0 -76 24.667 -114 74 -114c28.667 0 52.5 17.333 71.5 52z" />
    <glyph glyph-name="aring" unicode="&#xe5;" 
d="M212.5 578.5c-16.333 15.667 -24.5 35.833 -24.5 60.5c0 28 9.83301 51.333 29.5 70s42.834 28 69.501 28c24.667 0 45.167 -8 61.5 -24s24.5 -36 24.5 -60c0 -27.333 -9.83301 -50.5 -29.5 -69.5s-42.834 -28.5 -69.501 -28.5c-24.667 0 -45.167 7.83301 -61.5 23.5z
M313.5 610.499c10.333 10.333 15.5 23.5 15.5 39.5c0 12.667 -4.33301 23.667 -13 33s-19.334 14 -32.001 14c-14.667 0 -27 -5.16699 -37 -15.5s-15 -23.5 -15 -39.5c0 -12.667 4.33301 -23.667 13 -33s19.334 -14 32.001 -14c14 0 26.167 5.16699 36.5 15.5zM69 36.999
c-24 32.667 -35.9971 81.333 -35.9971 146c0 76.667 9.83301 141.667 29.5 195s45 93.333 76 120s63.5 40 97.5 40c55.333 0 91.666 -28.333 108.999 -85l18 73h65l-35.5 -248c-17 -120.667 -25.5 -183.667 -25.5 -189c0 -9.33301 2.16699 -16.333 6.5 -21
s10.166 -7 17.499 -7h32l-8 -57c-15.333 -10.667 -34 -16 -56 -16s-39.333 6.66699 -52 20s-19.334 34.333 -20.001 63c-19.333 -28.667 -38.5 -49.667 -57.5 -63s-40.167 -20 -63.5 -20c-40.667 0 -73 16.333 -97 49zM262.503 112.998
c19 34.667 32.835 74.835 41.502 120.502s13 85.167 13 118.5c0 75.333 -23 113 -69 113c-32.667 0 -58.834 -16.833 -78.501 -50.5s-33.334 -72.834 -41.001 -117.501s-11.5 -85.334 -11.5 -122.001c0 -76 24.667 -114 74 -114c28.667 0 52.5 17.333 71.5 52z" />
    <glyph glyph-name="ae" unicode="&#xe6;" horiz-adv-x="729" 
d="M26 113c0 76 25.999 128.167 77.999 156.5s123.667 42.5 215 42.5l10 68c1.33301 10.667 2 18.334 2 23.001c0 20 -5.5 35.333 -16.5 46s-29.833 16 -56.5 16c-29.333 0 -51.666 -8.83301 -66.999 -26.5s-24.333 -40.5 -27 -68.5h-81c0 51.333 17.5 92.166 52.5 122.499
s79.5 45.5 133.5 45.5c62 0 104.333 -18.667 127 -56c36 37.333 81 56 135 56c108 0 162 -63 162 -189c0 -39.333 -2.66699 -76 -8 -110h-289c-2 -20.667 -3 -38.334 -3 -53.001c0 -83.333 28.333 -125 85 -125c28.667 0 53.167 11.333 73.5 34s32.833 50.334 37.5 83.001
h83c-8.66699 -54.667 -29.834 -100 -63.501 -136s-77.167 -54 -130.5 -54c-73.333 0 -123.333 27.333 -150 82c-19.333 -25.333 -43.666 -45.333 -72.999 -60s-59 -22 -89 -22c-93.333 0 -140 41.667 -140 125zM606.999 312c0.666992 8.66699 0.998047 20.667 0.998047 36
c0 78 -25.667 117 -77 117c-33.333 0 -60.166 -14.5 -80.499 -43.5s-35.166 -65.5 -44.499 -109.5h201zM255.497 93c25 21.333 40.167 51.333 45.5 90l8 56c-64.667 0 -113.5 -7.5 -146.5 -22.5s-49.5 -44.167 -49.5 -87.5c0 -24 5.16699 -41.333 15.5 -52
s25.833 -16 46.5 -16c28.667 0 55.5 10.667 80.5 32z" />
    <glyph glyph-name="ccedilla" unicode="&#xe7;" horiz-adv-x="410" 
d="M66 -174l7 49.002h76c13.333 0 23.333 2.16699 30 6.5s10 12.166 10 23.499c0 12 -10.333 18 -31 18h-33l21 70c-36.667 8.66699 -65 28.5 -85 59.5s-30 73.167 -30 126.5c0 97.333 15.667 181.5 47 252.5s85.333 106.5 162 106.5c100 0 150 -63 150 -189v-18h-85v17
c0 78 -21.667 117 -65 117c-33.333 0 -59.166 -17.667 -77.499 -53s-30.666 -74.333 -36.999 -117s-9.5 -79 -9.5 -109c0 -40 6.33301 -70.833 19 -92.5s31 -32.5 55 -32.5c26.667 0 49.334 12.667 68.001 38s30 56.333 34 93h82
c-6.66699 -56.667 -25.334 -104.334 -56.001 -143.001s-70.334 -59 -119.001 -61l-7 -24c48.667 -4 73 -22 73 -54c0 -34 -12.167 -57.833 -36.5 -71.5s-50.833 -20.5 -79.5 -20.5c-30.667 0 -58.334 2.66699 -83.001 8z" />
    <glyph glyph-name="egrave" unicode="&#xe8;" 
d="M175 720l2 3h90l67 -132h-69zM78.5 35.5c-29 31.667 -43.499 79.5 -43.499 143.5c0 95.333 16.833 179 50.5 251s91.167 108 172.5 108c108 0 162 -63 162 -189c0 -39.333 -2.66699 -76 -8 -110h-289c-2 -20.667 -3 -38.334 -3 -53.001c0 -83.333 28.333 -125 85 -125
c28.667 0 53.167 11.333 73.5 34s32.833 50.334 37.5 83.001h83c-8.66699 -54.667 -29.834 -100 -63.501 -136s-77.167 -54 -130.5 -54c-55.333 0 -97.5 15.833 -126.5 47.5zM334.001 312c0.666992 8.66699 0.998047 20.667 0.998047 36c0 78 -25.667 117 -77 117
c-33.333 0 -60.166 -14.5 -80.499 -43.5s-35.166 -65.5 -44.499 -109.5h201z" />
    <glyph glyph-name="eacute" unicode="&#xe9;" 
d="M308 723h90l1 -3l-107 -129h-70zM78.5 35.5c-29 31.667 -43.499 79.5 -43.499 143.5c0 95.333 16.833 179 50.5 251s91.167 108 172.5 108c108 0 162 -63 162 -189c0 -39.333 -2.66699 -76 -8 -110h-289c-2 -20.667 -3 -38.334 -3 -53.001c0 -83.333 28.333 -125 85 -125
c28.667 0 53.167 11.333 73.5 34s32.833 50.334 37.5 83.001h83c-8.66699 -54.667 -29.834 -100 -63.501 -136s-77.167 -54 -130.5 -54c-55.333 0 -97.5 15.833 -126.5 47.5zM334.001 312c0.666992 8.66699 0.998047 20.667 0.998047 36c0 78 -25.667 117 -77 117
c-33.333 0 -60.166 -14.5 -80.499 -43.5s-35.166 -65.5 -44.499 -109.5h201z" />
    <glyph glyph-name="ecircumflex" unicode="&#xea;" 
d="M251 723h78l66 -135h-77l-33 79l-56 -79h-83zM78.5 35.5c-29 31.667 -43.499 79.5 -43.499 143.5c0 95.333 16.833 179 50.5 251s91.167 108 172.5 108c108 0 162 -63 162 -189c0 -39.333 -2.66699 -76 -8 -110h-289c-2 -20.667 -3 -38.334 -3 -53.001
c0 -83.333 28.333 -125 85 -125c28.667 0 53.167 11.333 73.5 34s32.833 50.334 37.5 83.001h83c-8.66699 -54.667 -29.834 -100 -63.501 -136s-77.167 -54 -130.5 -54c-55.333 0 -97.5 15.833 -126.5 47.5zM334.001 312c0.666992 8.66699 0.998047 20.667 0.998047 36
c0 78 -25.667 117 -77 117c-33.333 0 -60.166 -14.5 -80.499 -43.5s-35.166 -65.5 -44.499 -109.5h201z" />
    <glyph glyph-name="edieresis" unicode="&#xeb;" 
d="M176 723h87l-13 -95h-87zM326 723h87l-13 -95h-87zM78.5 35.5c-29 31.667 -43.499 79.5 -43.499 143.5c0 95.333 16.833 179 50.5 251s91.167 108 172.5 108c108 0 162 -63 162 -189c0 -39.333 -2.66699 -76 -8 -110h-289c-2 -20.667 -3 -38.334 -3 -53.001
c0 -83.333 28.333 -125 85 -125c28.667 0 53.167 11.333 73.5 34s32.833 50.334 37.5 83.001h83c-8.66699 -54.667 -29.834 -100 -63.501 -136s-77.167 -54 -130.5 -54c-55.333 0 -97.5 15.833 -126.5 47.5zM334.001 312c0.666992 8.66699 0.998047 20.667 0.998047 36
c0 78 -25.667 117 -77 117c-33.333 0 -60.166 -14.5 -80.499 -43.5s-35.166 -65.5 -44.499 -109.5h201z" />
    <glyph glyph-name="igrave" unicode="&#xec;" horiz-adv-x="228" 
d="M62 720l1 3h90l68 -132h-70zM111 526h82l-74 -526h-81z" />
    <glyph glyph-name="iacute" unicode="&#xed;" horiz-adv-x="228" 
d="M194 723h91l1 -3l-108 -129h-70zM111 526h82l-74 -526h-81z" />
    <glyph glyph-name="icircumflex" unicode="&#xee;" horiz-adv-x="228" 
d="M137 723h78l66 -135h-77l-33 79l-56 -79h-83zM111 526h82l-74 -526h-81z" />
    <glyph glyph-name="idieresis" unicode="&#xef;" horiz-adv-x="228" 
d="M62 723h87l-13 -95h-87zM212 723h87l-13 -95h-87zM111 526h82l-74 -526h-81z" />
    <glyph glyph-name="eth" unicode="&#xf0;" 
d="M35 177c0 81.333 10.167 148.997 30.5 202.997s46.666 93.833 78.999 119.5s66.833 38.5 103.5 38.5c19.333 0 38.666 -4 57.999 -12v1c-7.33301 18.667 -22 46.334 -44 83.001l-119 -10l8 60l72 6l-39 53l2 4h88c20.667 -25.333 33.334 -41.666 38.001 -48.999l119 11
l-9 -60l-72 -7c49.333 -81.333 74 -170.333 74 -267c0 -80.667 -9.5 -148.167 -28.5 -202.5s-45.167 -94.666 -78.5 -120.999s-71.666 -39.5 -114.999 -39.5c-111.333 0 -167 63 -167 189zM287 112.997c20.667 34.667 34.498 73.832 41.498 117.499
s10.5 82.834 10.5 117.501c0 78 -27 117 -81 117c-36.667 0 -65.167 -16.833 -85.5 -50.5s-34.166 -71.667 -41.499 -114s-11 -80.5 -11 -114.5c0 -42.667 6.5 -74.167 19.5 -94.5s33.5 -30.5 61.5 -30.5c36.667 0 65.334 17.333 86.001 52z" />
    <glyph glyph-name="ntilde" unicode="&#xf1;" 
d="M156.5 691.5c16.333 21 37.834 31.5 64.501 31.5c10 0 19.667 -1.33301 29 -4s19.666 -6.66699 30.999 -12c22.667 -10 40.667 -15 54 -15c20.667 0 33.667 10.333 39 31h58c-4 -26.667 -14.333 -50.667 -31 -72s-38.334 -32 -65.001 -32c-10 0 -19.667 1.33301 -29 4
s-19.666 6.66699 -30.999 12c-22.667 10 -40.667 15 -54 15c-20.667 0 -33.667 -10.333 -39 -31h-58c4.66699 27.333 15.167 51.5 31.5 72.5zM96.001 526l64 -0.00195312v-78c11.333 22.667 28.333 43.334 51 62.001s52.334 28 89.001 28c40 0 69 -11.167 87 -33.5
s27 -50.5 27 -84.5c0 -13.333 -7.83301 -76.5 -23.5 -189.5l-32.5 -230.5h-82c6 38.667 16.5 111.834 31.5 219.501s22.5 168.167 22.5 181.5c0 42.667 -20 64 -60 64c-32.667 0 -59.834 -15.5 -81.501 -46.5s-36.167 -72.5 -43.5 -124.5l-41 -294h-82z" />
    <glyph glyph-name="ograve" unicode="&#xf2;" 
d="M174 720l2 3h90l67 -132h-69zM33 175c0 56.667 6.5 112.333 19.5 167s36.167 101 69.5 139s78 57 134 57c110.667 0 166 -63 166 -189c0 -56.667 -6.5 -112.167 -19.5 -166.5s-36.167 -100.333 -69.5 -138s-78 -56.5 -134 -56.5c-110.667 0 -166 62.333 -166 187z
M285 112.999c20.667 34.667 34.498 73.832 41.498 117.499s10.5 82.834 10.5 117.501c0 78 -27 117 -81 117c-36.667 0 -65.167 -16.833 -85.5 -50.5s-34.166 -71.667 -41.499 -114s-11 -80.5 -11 -114.5c0 -42.667 6.5 -74.167 19.5 -94.5s33.5 -30.5 61.5 -30.5
c36.667 0 65.334 17.333 86.001 52z" />
    <glyph glyph-name="oacute" unicode="&#xf3;" 
d="M307 723h90l1 -3l-107 -129h-70zM33 175c0 56.667 6.5 112.333 19.5 167s36.167 101 69.5 139s78 57 134 57c110.667 0 166 -63 166 -189c0 -56.667 -6.5 -112.167 -19.5 -166.5s-36.167 -100.333 -69.5 -138s-78 -56.5 -134 -56.5c-110.667 0 -166 62.333 -166 187z
M285 112.999c20.667 34.667 34.498 73.832 41.498 117.499s10.5 82.834 10.5 117.501c0 78 -27 117 -81 117c-36.667 0 -65.167 -16.833 -85.5 -50.5s-34.166 -71.667 -41.499 -114s-11 -80.5 -11 -114.5c0 -42.667 6.5 -74.167 19.5 -94.5s33.5 -30.5 61.5 -30.5
c36.667 0 65.334 17.333 86.001 52z" />
    <glyph glyph-name="ocircumflex" unicode="&#xf4;" 
d="M250 723h78l66 -135h-77l-33 79l-56 -79h-83zM33 175c0 56.667 6.5 112.333 19.5 167s36.167 101 69.5 139s78 57 134 57c110.667 0 166 -63 166 -189c0 -56.667 -6.5 -112.167 -19.5 -166.5s-36.167 -100.333 -69.5 -138s-78 -56.5 -134 -56.5
c-110.667 0 -166 62.333 -166 187zM285 112.999c20.667 34.667 34.498 73.832 41.498 117.499s10.5 82.834 10.5 117.501c0 78 -27 117 -81 117c-36.667 0 -65.167 -16.833 -85.5 -50.5s-34.166 -71.667 -41.499 -114s-11 -80.5 -11 -114.5
c0 -42.667 6.5 -74.167 19.5 -94.5s33.5 -30.5 61.5 -30.5c36.667 0 65.334 17.333 86.001 52z" />
    <glyph glyph-name="otilde" unicode="&#xf5;" 
d="M160.5 691.5c16.333 21 37.832 31.5 64.499 31.5c10 0 19.667 -1.33301 29 -4s19.666 -6.66699 30.999 -12c22.667 -10 40.667 -15 54 -15c20.667 0 33.334 10.333 38.001 31h59c-4 -26.667 -14.5 -50.667 -31.5 -72s-38.5 -32 -64.5 -32
c-10.667 0 -20.667 1.33301 -30 4s-19.666 6.66699 -30.999 12c-21.333 10 -39 15 -53 15c-20.667 0 -33.667 -10.333 -39 -31h-58c4.66699 27.333 15.167 51.5 31.5 72.5zM32.999 175c0 56.667 6.5 112.333 19.5 167s36.167 101 69.5 139s78 57 134 57
c110.667 0 166 -63 166 -189c0 -56.667 -6.5 -112.167 -19.5 -166.5s-36.167 -100.333 -69.5 -138s-78 -56.5 -134 -56.5c-110.667 0 -166 62.333 -166 187zM284.999 112.999c20.667 34.667 34.498 73.832 41.498 117.499s10.5 82.834 10.5 117.501c0 78 -27 117 -81 117
c-36.667 0 -65.167 -16.833 -85.5 -50.5s-34.166 -71.667 -41.499 -114s-11 -80.5 -11 -114.5c0 -42.667 6.5 -74.167 19.5 -94.5s33.5 -30.5 61.5 -30.5c36.667 0 65.334 17.333 86.001 52z" />
    <glyph glyph-name="odieresis" unicode="&#xf6;" 
d="M175 723h87l-13 -95h-87zM325 723h87l-13 -95h-87zM33 175c0 56.667 6.5 112.333 19.5 167s36.167 101 69.5 139s78 57 134 57c110.667 0 166 -63 166 -189c0 -56.667 -6.5 -112.167 -19.5 -166.5s-36.167 -100.333 -69.5 -138s-78 -56.5 -134 -56.5
c-110.667 0 -166 62.333 -166 187zM285 112.999c20.667 34.667 34.498 73.832 41.498 117.499s10.5 82.834 10.5 117.501c0 78 -27 117 -81 117c-36.667 0 -65.167 -16.833 -85.5 -50.5s-34.166 -71.667 -41.499 -114s-11 -80.5 -11 -114.5
c0 -42.667 6.5 -74.167 19.5 -94.5s33.5 -30.5 61.5 -30.5c36.667 0 65.334 17.333 86.001 52z" />
    <glyph glyph-name="divide" unicode="&#xf7;" horiz-adv-x="549" 
d="M260 460h84l-13 -91h-84zM48 297h462l-11 -84h-462zM215 141h84l-12 -90h-84z" />
    <glyph glyph-name="oslash" unicode="&#xf8;" horiz-adv-x="501" 
d="M95 37c-26 30 -39 75.999 -39 137.999c0 56.667 6.5 112.334 19.5 167.001s36.167 101 69.5 139s78 57 134 57c34 0 63.333 -6.66699 88 -20l23 40h55l-40 -70c26.667 -32 40 -78.333 40 -139c0 -56.667 -6.5 -112.167 -19.5 -166.5s-36.167 -100.333 -69.5 -138
s-78 -56.5 -134 -56.5c-36 0 -65.667 6.33301 -89 19l-22 -39h-55zM328 447.999c-13.333 11.333 -29.668 17.001 -49.001 17.001c-36.667 0 -65.167 -16.833 -85.5 -50.5s-34.166 -71.667 -41.499 -114s-11 -80.5 -11 -114.5c0 -20.667 1.66699 -40.334 5 -59.001z
M307.998 113c20.667 34.667 34.5 73.832 41.5 117.499s10.5 82.834 10.5 117.501c0 17.333 -1.66699 34.333 -5 51l-182 -322c11.333 -10.667 27.666 -16 48.999 -16c36.667 0 65.334 17.333 86.001 52z" />
    <glyph glyph-name="ugrave" unicode="&#xf9;" 
d="M174 720l2 3h90l67 -132h-69zM69 21.5c-18 22.333 -27 50.501 -27 84.501c0 13.333 7.83301 76.5 23.5 189.5l32.5 230.5h82c-6 -38.667 -16.5 -111.834 -31.5 -219.501s-22.5 -168.167 -22.5 -181.5c0 -42.667 20 -64 60 -64c32.667 0 59.834 15.5 81.501 46.5
s36.167 72.5 43.5 124.5l41 294h82l-74 -526h-64v77c-11.333 -22 -28.333 -42.333 -51 -61s-52.334 -28 -89.001 -28c-40 0 -69 11.167 -87 33.5z" />
    <glyph glyph-name="uacute" unicode="&#xfa;" 
d="M307 723h90l1 -3l-107 -129h-70zM69 21.5c-18 22.333 -27 50.501 -27 84.501c0 13.333 7.83301 76.5 23.5 189.5l32.5 230.5h82c-6 -38.667 -16.5 -111.834 -31.5 -219.501s-22.5 -168.167 -22.5 -181.5c0 -42.667 20 -64 60 -64c32.667 0 59.834 15.5 81.501 46.5
s36.167 72.5 43.5 124.5l41 294h82l-74 -526h-64v77c-11.333 -22 -28.333 -42.333 -51 -61s-52.334 -28 -89.001 -28c-40 0 -69 11.167 -87 33.5z" />
    <glyph glyph-name="ucircumflex" unicode="&#xfb;" 
d="M250 723h78l66 -135h-77l-33 79l-56 -79h-83zM69 21.5c-18 22.333 -27 50.501 -27 84.501c0 13.333 7.83301 76.5 23.5 189.5l32.5 230.5h82c-6 -38.667 -16.5 -111.834 -31.5 -219.501s-22.5 -168.167 -22.5 -181.5c0 -42.667 20 -64 60 -64
c32.667 0 59.834 15.5 81.501 46.5s36.167 72.5 43.5 124.5l41 294h82l-74 -526h-64v77c-11.333 -22 -28.333 -42.333 -51 -61s-52.334 -28 -89.001 -28c-40 0 -69 11.167 -87 33.5z" />
    <glyph glyph-name="udieresis" unicode="&#xfc;" 
d="M175 723h87l-13 -95h-87zM325 723h87l-13 -95h-87zM69 21.5c-18 22.333 -27 50.501 -27 84.501c0 13.333 7.83301 76.5 23.5 189.5l32.5 230.5h82c-6 -38.667 -16.5 -111.834 -31.5 -219.501s-22.5 -168.167 -22.5 -181.5c0 -42.667 20 -64 60 -64
c32.667 0 59.834 15.5 81.501 46.5s36.167 72.5 43.5 124.5l41 294h82l-74 -526h-64v77c-11.333 -22 -28.333 -42.333 -51 -61s-52.334 -28 -89.001 -28c-40 0 -69 11.167 -87 33.5z" />
    <glyph glyph-name="yacute" unicode="&#xfd;" horiz-adv-x="410" 
d="M297 723h91l1 -3l-108 -129h-70zM-22 -174l8 57h28c53.333 0 93.333 39 120 117l-87 526h87l45 -317l15 -103h4l40 103l122 317h88l-214 -499c-28.667 -66 -58.5 -117.333 -89.5 -154s-67.5 -55 -109.5 -55c-24.667 0 -43.667 2.66699 -57 8z" />
    <glyph glyph-name="thorn" unicode="&#xfe;" 
d="M125 723l82 0.000976562l-37 -257c32 48 72 72 120 72c40.667 0 73 -16.333 97 -49s36 -81.334 36 -146.001c0 -76.667 -9.83301 -141.667 -29.5 -195s-45 -93.333 -76 -120s-63.5 -40 -97.5 -40c-48.667 0 -83.667 23.333 -105 70l-34 -240h-82zM286.5 111.501
c19.667 33.667 33.332 72.832 40.999 117.499s11.5 85.334 11.5 122.001c0 76 -24.667 114 -74 114c-31.333 0 -56.833 -17.333 -76.5 -52s-33.5 -74.5 -41.5 -119.5s-12 -84.833 -12 -119.5c0 -75.333 24.333 -113 73 -113c32.667 0 58.834 16.833 78.501 50.5z" />
    <glyph glyph-name="ydieresis" unicode="&#xff;" horiz-adv-x="410" 
d="M166 723h86l-13 -95h-87zM315 723h87l-13 -95h-87zM-22 -174l8 57h28c53.333 0 93.333 39 120 117l-87 526h87l45 -317l15 -103h4l40 103l122 317h88l-214 -499c-28.667 -66 -58.5 -117.333 -89.5 -154s-67.5 -55 -109.5 -55c-24.667 0 -43.667 2.66699 -57 8z" />
    <glyph glyph-name="Amacron" unicode="&#x100;" horiz-adv-x="547" 
d="M228 831h250l-11 -72h-250zM278 686h113l121 -686h-91l-26 153h-275l-69 -153h-87zM382 233l-51 305c-1.33301 9.33301 -2.5 22.833 -3.5 40.5s-1.5 29.5 -1.5 35.5h-4c-2 -6 -6.16699 -17.833 -12.5 -35.5s-11.5 -31.167 -15.5 -40.5l-138 -305h226z" />
    <glyph glyph-name="amacron" unicode="&#x101;" 
d="M157 671h250l-11 -72h-250zM69 37c-24 32.667 -35.9971 81.333 -35.9971 146c0 76.667 9.83301 141.667 29.5 195s45 93.333 76 120s63.5 40 97.5 40c55.333 0 91.666 -28.333 108.999 -85l18 73h65l-35.5 -248c-17 -120.667 -25.5 -183.667 -25.5 -189
c0 -9.33301 2.16699 -16.333 6.5 -21s10.166 -7 17.499 -7h32l-8 -57c-15.333 -10.667 -34 -16 -56 -16s-39.333 6.66699 -52 20s-19.334 34.333 -20.001 63c-19.333 -28.667 -38.5 -49.667 -57.5 -63s-40.167 -20 -63.5 -20c-40.667 0 -73 16.333 -97 49zM262.503 112.999
c19 34.667 32.835 74.835 41.502 120.502s13 85.167 13 118.5c0 75.333 -23 113 -69 113c-32.667 0 -58.834 -16.833 -78.501 -50.5s-33.334 -72.834 -41.001 -117.501s-11.5 -85.334 -11.5 -122.001c0 -76 24.667 -114 74 -114c28.667 0 52.5 17.333 71.5 52z" />
    <glyph glyph-name="Abreve" unicode="&#x102;" horiz-adv-x="547" 
d="M270.5 812.5c-21 17.667 -31.5 38.167 -31.5 61.5c0 4 0.333008 7 1 9h64c0.666992 -8 6.16699 -15.5 16.5 -22.5s23.166 -10.5 38.499 -10.5c16 0 30.167 3.5 42.5 10.5s19.5 14.5 21.5 22.5h64c-2 -15.333 -9 -30.5 -21 -45.5s-27.667 -27.333 -47 -37
s-40.666 -14.5 -63.999 -14.5c-35.333 0 -63.5 8.83301 -84.5 26.5zM278 686h113l121 -686h-91l-26 153h-275l-69 -153h-87zM382 233l-51 305c-1.33301 9.33301 -2.5 22.833 -3.5 40.5s-1.5 29.5 -1.5 35.5h-4c-2 -6 -6.16699 -17.833 -12.5 -35.5
s-11.5 -31.167 -15.5 -40.5l-138 -305h226z" />
    <glyph glyph-name="abreve" unicode="&#x103;" 
d="M199.5 652.5c-21 17.667 -31.5 38.167 -31.5 61.5c0 4 0.333008 7 1 9h64c0.666992 -8 6.16699 -15.5 16.5 -22.5s23.166 -10.5 38.499 -10.5c16 0 30.167 3.5 42.5 10.5s19.5 14.5 21.5 22.5h64c-2 -15.333 -9 -30.5 -21 -45.5s-27.667 -27.333 -47 -37
s-40.666 -14.5 -63.999 -14.5c-35.333 0 -63.5 8.83301 -84.5 26.5zM69 37c-24 32.667 -35.9971 81.333 -35.9971 146c0 76.667 9.83301 141.667 29.5 195s45 93.333 76 120s63.5 40 97.5 40c55.333 0 91.666 -28.333 108.999 -85l18 73h65l-35.5 -248
c-17 -120.667 -25.5 -183.667 -25.5 -189c0 -9.33301 2.16699 -16.333 6.5 -21s10.166 -7 17.499 -7h32l-8 -57c-15.333 -10.667 -34 -16 -56 -16s-39.333 6.66699 -52 20s-19.334 34.333 -20.001 63c-19.333 -28.667 -38.5 -49.667 -57.5 -63s-40.167 -20 -63.5 -20
c-40.667 0 -73 16.333 -97 49zM262.503 112.999c19 34.667 32.835 74.835 41.502 120.502s13 85.167 13 118.5c0 75.333 -23 113 -69 113c-32.667 0 -58.834 -16.833 -78.501 -50.5s-33.334 -72.834 -41.001 -117.501s-11.5 -85.334 -11.5 -122.001
c0 -76 24.667 -114 74 -114c28.667 0 52.5 17.333 71.5 52z" />
    <glyph glyph-name="Aogonek" unicode="&#x104;" horiz-adv-x="547" 
d="M412.5 -171.5c-15.667 12.333 -23.5 32.502 -23.5 60.502c0 23.333 5.16699 43.666 15.5 60.999s24.5 34 42.5 50h-26l-26 153h-275l-69 -153h-87l314 686h113l121 -686c-10.667 -10.667 -20.167 -23.5 -28.5 -38.5s-12.5 -29.833 -12.5 -44.5
c0 -12.667 3 -22.834 9 -30.501s15.667 -11.5 29 -11.5h33l-8 -51c-22.667 -9.33301 -43.667 -14 -63 -14c-23.333 0 -42.833 6.16699 -58.5 18.5zM382 233.002l-51 305c-1.33301 9.33301 -2.5 22.833 -3.5 40.5s-1.5 29.5 -1.5 35.5h-4c-2 -6 -6.16699 -17.833 -12.5 -35.5
s-11.5 -31.167 -15.5 -40.5l-138 -305h226z" />
    <glyph glyph-name="aogonek" unicode="&#x105;" 
d="M315.5 -167.5c-15.667 12.333 -23.498 32.499 -23.498 60.499c0 36 14.667 68.667 44 98c-32 8.66699 -48.333 35.334 -49 80.001c-19.333 -28.667 -38.5 -49.667 -57.5 -63s-40.167 -20 -63.5 -20c-40.667 0 -73 16.333 -97 49s-36 81.334 -36 146.001
c0 76.667 9.83301 141.667 29.5 195s45 93.333 76 120s63.5 40 97.5 40c55.333 0 91.666 -28.333 108.999 -85l18 73h65l-35.5 -248c-17 -120.667 -25.5 -183.667 -25.5 -189c0 -9.33301 2.16699 -16.333 6.5 -21s10.166 -7 17.499 -7h32l-8 -57
c-10.667 -10.667 -20.167 -23.5 -28.5 -38.5s-12.5 -29.833 -12.5 -44.5c0 -12.667 3 -22.834 9 -30.501s15.667 -11.5 29 -11.5h32l-7 -51c-22.667 -9.33301 -43.667 -14 -63 -14c-23.333 0 -42.833 6.16699 -58.5 18.5zM262.502 112.999
c19 34.667 32.835 74.835 41.502 120.502s13 85.167 13 118.5c0 75.333 -23 113 -69 113c-32.667 0 -58.834 -16.833 -78.501 -50.5s-33.334 -72.834 -41.001 -117.501s-11.5 -85.334 -11.5 -122.001c0 -76 24.667 -114 74 -114c28.667 0 52.5 17.333 71.5 52z" />
    <glyph glyph-name="Cacute" unicode="&#x106;" horiz-adv-x="592" 
d="M394 883h90l1 -3l-108 -129h-69zM112.5 51c-41 42 -61.499 105.335 -61.499 190.002c0 69.333 9.5 138.833 28.5 208.5s51 128.5 96 176.5s104.167 72 177.5 72c144.667 0 217 -81.667 217 -245v-16h-91v22c0 105.333 -42.333 158 -127 158
c-56.667 0 -100.667 -23.5 -132 -70.5s-52.333 -98.667 -63 -155s-16 -104.833 -16 -145.5c0 -56.667 12.167 -100.167 36.5 -130.5s59.166 -45.5 104.499 -45.5c48 0 86.833 16.333 116.5 49s48.167 73.667 55.5 123h87c-6 -46.667 -19.833 -89.334 -41.5 -128.001
s-50.667 -69.334 -87 -92.001s-78.833 -34 -127.5 -34c-74 0 -131.5 21 -172.5 63z" />
    <glyph glyph-name="cacute" unicode="&#x107;" horiz-adv-x="410" 
d="M292 723h90l1 -3l-108 -129h-69zM73.5 35.5c-28.333 31.667 -42.5029 79.499 -42.5029 143.499c0 97.333 15.667 181.5 47 252.5s85.333 106.5 162 106.5c100 0 150 -63 150 -189v-18h-85v17c0 78 -21.667 117 -65 117c-33.333 0 -59.166 -17.667 -77.499 -53
s-30.666 -74.333 -36.999 -117s-9.5 -79 -9.5 -109c0 -40 6.33301 -70.833 19 -92.5s31 -32.5 55 -32.5c26.667 0 49.334 12.667 68.001 38s30 56.333 34 93h82c-6.66699 -57.333 -26 -105.666 -58 -144.999s-73.333 -59 -124 -59s-90.167 15.833 -118.5 47.5z" />
    <glyph glyph-name="Ccircumflex" unicode="&#x108;" horiz-adv-x="592" 
d="M336 883h79l65 -135h-77l-32 79l-57 -79h-83zM112.5 51c-41 42 -61.499 105.335 -61.499 190.002c0 69.333 9.5 138.833 28.5 208.5s51 128.5 96 176.5s104.167 72 177.5 72c144.667 0 217 -81.667 217 -245v-16h-91v22c0 105.333 -42.333 158 -127 158
c-56.667 0 -100.667 -23.5 -132 -70.5s-52.333 -98.667 -63 -155s-16 -104.833 -16 -145.5c0 -56.667 12.167 -100.167 36.5 -130.5s59.166 -45.5 104.499 -45.5c48 0 86.833 16.333 116.5 49s48.167 73.667 55.5 123h87c-6 -46.667 -19.833 -89.334 -41.5 -128.001
s-50.667 -69.334 -87 -92.001s-78.833 -34 -127.5 -34c-74 0 -131.5 21 -172.5 63z" />
    <glyph glyph-name="ccircumflex" unicode="&#x109;" horiz-adv-x="410" 
d="M235 723h78l66 -135h-77l-33 79l-56 -79h-83zM73.5 35.5c-28.333 31.667 -42.5029 79.499 -42.5029 143.499c0 97.333 15.667 181.5 47 252.5s85.333 106.5 162 106.5c100 0 150 -63 150 -189v-18h-85v17c0 78 -21.667 117 -65 117
c-33.333 0 -59.166 -17.667 -77.499 -53s-30.666 -74.333 -36.999 -117s-9.5 -79 -9.5 -109c0 -40 6.33301 -70.833 19 -92.5s31 -32.5 55 -32.5c26.667 0 49.334 12.667 68.001 38s30 56.333 34 93h82c-6.66699 -57.333 -26 -105.666 -58 -144.999s-73.333 -59 -124 -59
s-90.167 15.833 -118.5 47.5z" />
    <glyph glyph-name="Cdotaccent" unicode="&#x10a;" horiz-adv-x="592" 
d="M335 883h87l-13 -95h-87zM112.5 51c-41 42 -61.499 105.335 -61.499 190.002c0 69.333 9.5 138.833 28.5 208.5s51 128.5 96 176.5s104.167 72 177.5 72c144.667 0 217 -81.667 217 -245v-16h-91v22c0 105.333 -42.333 158 -127 158c-56.667 0 -100.667 -23.5 -132 -70.5
s-52.333 -98.667 -63 -155s-16 -104.833 -16 -145.5c0 -56.667 12.167 -100.167 36.5 -130.5s59.166 -45.5 104.499 -45.5c48 0 86.833 16.333 116.5 49s48.167 73.667 55.5 123h87c-6 -46.667 -19.833 -89.334 -41.5 -128.001s-50.667 -69.334 -87 -92.001
s-78.833 -34 -127.5 -34c-74 0 -131.5 21 -172.5 63z" />
    <glyph glyph-name="cdotaccent" unicode="&#x10b;" horiz-adv-x="410" 
d="M234 723h87l-13 -95h-87zM73.5 35.5c-28.333 31.667 -42.5029 79.499 -42.5029 143.499c0 97.333 15.667 181.5 47 252.5s85.333 106.5 162 106.5c100 0 150 -63 150 -189v-18h-85v17c0 78 -21.667 117 -65 117c-33.333 0 -59.166 -17.667 -77.499 -53
s-30.666 -74.333 -36.999 -117s-9.5 -79 -9.5 -109c0 -40 6.33301 -70.833 19 -92.5s31 -32.5 55 -32.5c26.667 0 49.334 12.667 68.001 38s30 56.333 34 93h82c-6.66699 -57.333 -26 -105.666 -58 -144.999s-73.333 -59 -124 -59s-90.167 15.833 -118.5 47.5z" />
    <glyph glyph-name="Ccaron" unicode="&#x10c;" horiz-adv-x="592" 
d="M253 883h80l33 -79l52 79h83l-105 -135h-77zM112.5 51c-41 42 -61.499 105.335 -61.499 190.002c0 69.333 9.5 138.833 28.5 208.5s51 128.5 96 176.5s104.167 72 177.5 72c144.667 0 217 -81.667 217 -245v-16h-91v22c0 105.333 -42.333 158 -127 158
c-56.667 0 -100.667 -23.5 -132 -70.5s-52.333 -98.667 -63 -155s-16 -104.833 -16 -145.5c0 -56.667 12.167 -100.167 36.5 -130.5s59.166 -45.5 104.499 -45.5c48 0 86.833 16.333 116.5 49s48.167 73.667 55.5 123h87c-6 -46.667 -19.833 -89.334 -41.5 -128.001
s-50.667 -69.334 -87 -92.001s-78.833 -34 -127.5 -34c-74 0 -131.5 21 -172.5 63z" />
    <glyph glyph-name="ccaron" unicode="&#x10d;" horiz-adv-x="410" 
d="M151 723h80l33 -79l53 79h83l-105 -135h-78zM73.5 35.5c-28.333 31.667 -42.5029 79.499 -42.5029 143.499c0 97.333 15.667 181.5 47 252.5s85.333 106.5 162 106.5c100 0 150 -63 150 -189v-18h-85v17c0 78 -21.667 117 -65 117c-33.333 0 -59.166 -17.667 -77.499 -53
s-30.666 -74.333 -36.999 -117s-9.5 -79 -9.5 -109c0 -40 6.33301 -70.833 19 -92.5s31 -32.5 55 -32.5c26.667 0 49.334 12.667 68.001 38s30 56.333 34 93h82c-6.66699 -57.333 -26 -105.666 -58 -144.999s-73.333 -59 -124 -59s-90.167 15.833 -118.5 47.5z" />
    <glyph glyph-name="Dcaron" unicode="&#x10e;" horiz-adv-x="592" 
d="M226 883h80l33 -79l53 79h83l-105 -135h-78zM131 686h203.001c73.333 0 129.833 -21.667 169.5 -65s59.5 -107.333 59.5 -192c0 -66 -10.333 -131.833 -31 -197.5s-53.334 -120.667 -98.001 -165s-101 -66.5 -169 -66.5h-231zM255.001 80
c53.333 0 96.168 18.167 128.501 54.5s55.166 80.833 68.499 133.5s20 106 20 160c0 59.333 -12.833 103.833 -38.5 133.5s-62.167 44.5 -109.5 44.5h-117l-73 -526h121z" />
    <glyph glyph-name="dcaron" unicode="&#x10f;" horiz-adv-x="512" 
d="M70 37c-24 32.667 -36 81.333 -36 146c0 76.667 9.83301 141.667 29.5 195s45 93.333 76 120s63.5 40 97.5 40c48.667 0 83.667 -23.333 105 -70l36 255h82l-101 -723h-65v71c-34 -55.333 -76.333 -83 -127 -83c-40.667 0 -73 16.333 -97 49zM534 577.999h-33l15 108h100
l-14 -99l-64 -133h-55zM268.5 112.999c19.667 34.667 33.502 74.502 41.502 119.502s12 84.833 12 119.5c0 75.333 -24.333 113 -73 113c-32.667 0 -58.834 -16.833 -78.501 -50.5s-33.334 -72.834 -41.001 -117.501s-11.5 -85.334 -11.5 -122.001
c0 -76 24.667 -114 74 -114c31.333 0 56.833 17.333 76.5 52z" />
    <glyph glyph-name="Dcroat" unicode="&#x110;" horiz-adv-x="592" 
d="M79 323h-64.999l9 64h65l43 299h203c73.333 0 129.833 -21.667 169.5 -65s59.5 -107.333 59.5 -192c0 -66 -10.333 -131.833 -31 -197.5s-53.334 -120.667 -98.001 -165s-101 -66.5 -169 -66.5h-231zM255.001 80c53.333 0 96.168 18.167 128.501 54.5
s55.166 80.833 68.499 133.5s20 106 20 160c0 59.333 -12.833 103.833 -38.5 133.5s-62.167 44.5 -109.5 44.5h-117l-31 -219h157l-9 -64h-157l-33 -243h121z" />
    <glyph glyph-name="dcroat" unicode="&#x111;" horiz-adv-x="453" 
d="M70 37c-24 32.667 -36 81.333 -36 146c0 76.667 9.83301 141.667 29.5 195s45 93.333 76 120s63.5 40 97.5 40c48.667 0 83.667 -23.333 105 -70l16 115h-115l10 68h115l10 72h82l-10 -72h56l-10 -68h-56l-81 -583h-65v71c-34 -55.333 -76.333 -83 -127 -83
c-40.667 0 -73 16.333 -97 49zM268.5 112.999c19.667 34.667 33.502 74.502 41.502 119.502s12 84.833 12 119.5c0 75.333 -24.333 113 -73 113c-32.667 0 -58.834 -16.833 -78.501 -50.5s-33.334 -72.834 -41.001 -117.501s-11.5 -85.334 -11.5 -122.001
c0 -76 24.667 -114 74 -114c31.333 0 56.833 17.333 76.5 52z" />
    <glyph glyph-name="Emacron" unicode="&#x112;" horiz-adv-x="547" 
d="M219 831h250l-11 -72h-250zM131 686h423l-12 -80h-335l-30 -215h291l-11 -80h-291l-32 -231h341l-12 -80h-429z" />
    <glyph glyph-name="emacron" unicode="&#x113;" 
d="M158 671h250l-11 -72h-250zM78.5 35.5c-29 31.667 -43.499 79.5 -43.499 143.5c0 95.333 16.833 179 50.5 251s91.167 108 172.5 108c108 0 162 -63 162 -189c0 -39.333 -2.66699 -76 -8 -110h-289c-2 -20.667 -3 -38.334 -3 -53.001c0 -83.333 28.333 -125 85 -125
c28.667 0 53.167 11.333 73.5 34s32.833 50.334 37.5 83.001h83c-8.66699 -54.667 -29.834 -100 -63.501 -136s-77.167 -54 -130.5 -54c-55.333 0 -97.5 15.833 -126.5 47.5zM334.001 312c0.666992 8.66699 0.998047 20.667 0.998047 36c0 78 -25.667 117 -77 117
c-33.333 0 -60.166 -14.5 -80.499 -43.5s-35.166 -65.5 -44.499 -109.5h201z" />
    <glyph glyph-name="Ebreve" unicode="&#x114;" horiz-adv-x="547" 
d="M261.5 812.5c-21 17.667 -31.5 38.167 -31.5 61.5c0 4 0.333008 7 1 9h64c0.666992 -8 6.16699 -15.5 16.5 -22.5s23.166 -10.5 38.499 -10.5c16 0 30.167 3.5 42.5 10.5s19.5 14.5 21.5 22.5h64c-2 -15.333 -9 -30.5 -21 -45.5s-27.667 -27.333 -47 -37
s-40.666 -14.5 -63.999 -14.5c-35.333 0 -63.5 8.83301 -84.5 26.5zM131 686h423l-12 -80h-335l-30 -215h291l-11 -80h-291l-32 -231h341l-12 -80h-429z" />
    <glyph glyph-name="ebreve" unicode="&#x115;" 
d="M200.5 652.5c-21 17.667 -31.5 38.167 -31.5 61.5c0 4 0.333008 7 1 9h64c0.666992 -8 6.16699 -15.5 16.5 -22.5s23.166 -10.5 38.499 -10.5c16 0 30.167 3.5 42.5 10.5s19.5 14.5 21.5 22.5h64c-2 -15.333 -9 -30.5 -21 -45.5s-27.667 -27.333 -47 -37
s-40.666 -14.5 -63.999 -14.5c-35.333 0 -63.5 8.83301 -84.5 26.5zM78.5 35.5c-29 31.667 -43.499 79.5 -43.499 143.5c0 95.333 16.833 179 50.5 251s91.167 108 172.5 108c108 0 162 -63 162 -189c0 -39.333 -2.66699 -76 -8 -110h-289c-2 -20.667 -3 -38.334 -3 -53.001
c0 -83.333 28.333 -125 85 -125c28.667 0 53.167 11.333 73.5 34s32.833 50.334 37.5 83.001h83c-8.66699 -54.667 -29.834 -100 -63.501 -136s-77.167 -54 -130.5 -54c-55.333 0 -97.5 15.833 -126.5 47.5zM334.001 312c0.666992 8.66699 0.998047 20.667 0.998047 36
c0 78 -25.667 117 -77 117c-33.333 0 -60.166 -14.5 -80.499 -43.5s-35.166 -65.5 -44.499 -109.5h201z" />
    <glyph glyph-name="Edotaccent" unicode="&#x116;" horiz-adv-x="547" 
d="M311 883h87l-13 -95h-87zM131 686h423l-12 -80h-335l-30 -215h291l-11 -80h-291l-32 -231h341l-12 -80h-429z" />
    <glyph glyph-name="edotaccent" unicode="&#x117;" 
d="M250 723h87l-13 -95h-87zM78.5 35.5c-29 31.667 -43.499 79.5 -43.499 143.5c0 95.333 16.833 179 50.5 251s91.167 108 172.5 108c108 0 162 -63 162 -189c0 -39.333 -2.66699 -76 -8 -110h-289c-2 -20.667 -3 -38.334 -3 -53.001c0 -83.333 28.333 -125 85 -125
c28.667 0 53.167 11.333 73.5 34s32.833 50.334 37.5 83.001h83c-8.66699 -54.667 -29.834 -100 -63.501 -136s-77.167 -54 -130.5 -54c-55.333 0 -97.5 15.833 -126.5 47.5zM334.001 312c0.666992 8.66699 0.998047 20.667 0.998047 36c0 78 -25.667 117 -77 117
c-33.333 0 -60.166 -14.5 -80.499 -43.5s-35.166 -65.5 -44.499 -109.5h201z" />
    <glyph glyph-name="Eogonek" unicode="&#x118;" horiz-adv-x="547" 
d="M363.5 -171.5c-15.667 12.333 -23.5 32.502 -23.5 60.502c0 23.333 5.16699 43.666 15.5 60.999s24.5 34 42.5 50h-364l97 686h423l-12 -80h-335l-30 -215h291l-11 -80h-291l-32 -231h341l-12 -80c-10.667 -10.667 -20.167 -23.5 -28.5 -38.5s-12.5 -29.833 -12.5 -44.5
c0 -12.667 3 -22.834 9 -30.501s15.667 -11.5 29 -11.5h32l-7 -51c-22.667 -9.33301 -43.667 -14 -63 -14c-23.333 0 -42.833 6.16699 -58.5 18.5z" />
    <glyph glyph-name="eogonek" unicode="&#x119;" 
d="M184.5 -166.5c-15.667 12.333 -23.5 32.502 -23.5 60.502c0 19.333 3.5 36.333 10.5 51s16.833 29 29.5 43c-53.333 0.666992 -94.333 16.667 -123 48s-43 79 -43 143c0 95.333 16.833 179 50.5 251s91.167 108 172.5 108c108 0 162 -63 162 -189
c0 -39.333 -2.66699 -76 -8 -110h-289c-2 -20.667 -3 -38.334 -3 -53.001c0 -83.333 28.333 -125 85 -125c28.667 0 53.167 11.333 73.5 34s32.833 50.334 37.5 83.001h83c-6 -39.333 -19 -74.333 -39 -105s-45.333 -53.334 -76 -68.001
c-10.667 -10.667 -20.167 -23.5 -28.5 -38.5s-12.5 -29.833 -12.5 -44.5c0 -12.667 3 -22.834 9 -30.501s15.667 -11.5 29 -11.5h32l-7 -51c-22.667 -9.33301 -43.667 -14 -63 -14c-23.333 0 -42.833 6.16699 -58.5 18.5zM334 312.002
c0.666992 8.66699 0.998047 20.667 0.998047 36c0 78 -25.667 117 -77 117c-33.333 0 -60.166 -14.5 -80.499 -43.5s-35.166 -65.5 -44.499 -109.5h201z" />
    <glyph glyph-name="Ecaron" unicode="&#x11a;" horiz-adv-x="547" 
d="M229 883h79l33 -79l53 79h83l-105 -135h-78zM131 686h423l-12 -80h-335l-30 -215h291l-11 -80h-291l-32 -231h341l-12 -80h-429z" />
    <glyph glyph-name="ecaron" unicode="&#x11b;" 
d="M167 723h80l33 -79l53 79h83l-105 -135h-78zM78.5 35.5c-29 31.667 -43.499 79.5 -43.499 143.5c0 95.333 16.833 179 50.5 251s91.167 108 172.5 108c108 0 162 -63 162 -189c0 -39.333 -2.66699 -76 -8 -110h-289c-2 -20.667 -3 -38.334 -3 -53.001
c0 -83.333 28.333 -125 85 -125c28.667 0 53.167 11.333 73.5 34s32.833 50.334 37.5 83.001h83c-8.66699 -54.667 -29.834 -100 -63.501 -136s-77.167 -54 -130.5 -54c-55.333 0 -97.5 15.833 -126.5 47.5zM334.001 312c0.666992 8.66699 0.998047 20.667 0.998047 36
c0 78 -25.667 117 -77 117c-33.333 0 -60.166 -14.5 -80.499 -43.5s-35.166 -65.5 -44.499 -109.5h201z" />
    <glyph glyph-name="Gcircumflex" unicode="&#x11c;" horiz-adv-x="638" 
d="M333 748h-83l105 135h78l66 -135h-77l-33 79zM315 357h268.999l-51 -357h-58l-8 76c-45.333 -58.667 -106 -88 -182 -88c-74 0 -131.667 21 -173 63s-62 105.333 -62 190c0 69.333 10 138.833 30 208.5s53.333 128.5 100 176.5s108 72 184 72c154.667 0 232 -82 232 -246
h-91v7c0 105.333 -47.333 158 -142 158c-59.333 0 -105.666 -22.667 -138.999 -68s-55.666 -96 -66.999 -152s-17 -106.333 -17 -151c0 -57.333 12.667 -101 38 -131s63.666 -45 114.999 -45c52.667 0 94.667 16.167 126 48.5s51 73.5 59 123.5l6 38h-180z" />
    <glyph glyph-name="gcircumflex" unicode="&#x11d;" 
d="M249 723h78l66 -135h-77l-33 79l-56 -79h-83zM47.5 -137c-27 30 -40.5 67.667 -40.5 113h82c0 -57.333 26.333 -86 79 -86c32 0 57.167 10.833 75.5 32.5s31.166 55.834 38.499 102.501l11 66c-18 -28.667 -36.667 -49.667 -56 -63s-41.333 -20 -66 -20
c-46 0 -79.833 17.667 -101.5 53s-32.5 78.333 -32.5 129c0 76 9.66699 140.167 29 192.5s44.333 91.333 75 117s63.334 38.5 98.001 38.5c27.333 0 50.5 -6.5 69.5 -19.5s33.5 -34.833 43.5 -65.5l17 73h65l-67 -477c-11.333 -80.667 -33.5 -139.334 -66.5 -176.001
s-78.167 -55 -135.5 -55c-51.333 0 -90.5 15 -117.5 45zM270.5 129.5c19 32.333 32.667 69.668 41 112.001s12.5 79.166 12.5 110.499c-1.33301 75.333 -26 113 -74 113c-33.333 0 -59.5 -16.5 -78.5 -49.5s-32.167 -71 -39.5 -114s-11 -82.833 -11 -119.5
c0 -67.333 25.333 -101 76 -101c30 0 54.5 16.167 73.5 48.5z" />
    <glyph glyph-name="Gbreve" unicode="&#x11e;" horiz-adv-x="638" 
d="M304.5 812.5c-21 17.667 -31.5 38.167 -31.5 61.5c0 4 0.333008 7 1 9h64c0.666992 -8 6.16699 -15.5 16.5 -22.5s23.166 -10.5 38.499 -10.5c16 0 30.167 3.5 42.5 10.5s19.5 14.5 21.5 22.5h64c-2 -15.333 -9 -30.5 -21 -45.5s-27.667 -27.333 -47 -37
s-40.666 -14.5 -63.999 -14.5c-35.333 0 -63.5 8.83301 -84.5 26.5zM315 357h268.999l-51 -357h-58l-8 76c-45.333 -58.667 -106 -88 -182 -88c-74 0 -131.667 21 -173 63s-62 105.333 -62 190c0 69.333 10 138.833 30 208.5s53.333 128.5 100 176.5s108 72 184 72
c154.667 0 232 -82 232 -246h-91v7c0 105.333 -47.333 158 -142 158c-59.333 0 -105.666 -22.667 -138.999 -68s-55.666 -96 -66.999 -152s-17 -106.333 -17 -151c0 -57.333 12.667 -101 38 -131s63.666 -45 114.999 -45c52.667 0 94.667 16.167 126 48.5s51 73.5 59 123.5
l6 38h-180z" />
    <glyph glyph-name="gbreve" unicode="&#x11f;" 
d="M198.5 652.5c-21 17.667 -31.5 38.167 -31.5 61.5c0 4 0.333008 7 1 9h64c0.666992 -8 6.16699 -15.5 16.5 -22.5s23.166 -10.5 38.499 -10.5c16 0 30.167 3.5 42.5 10.5s19.5 14.5 21.5 22.5h64c-2 -15.333 -9 -30.5 -21 -45.5s-27.667 -27.333 -47 -37
s-40.666 -14.5 -63.999 -14.5c-35.333 0 -63.5 8.83301 -84.5 26.5zM47.5 -137c-27 30 -40.5 67.667 -40.5 113h82c0 -57.333 26.333 -86 79 -86c32 0 57.167 10.833 75.5 32.5s31.166 55.834 38.499 102.501l11 66c-18 -28.667 -36.667 -49.667 -56 -63
s-41.333 -20 -66 -20c-46 0 -79.833 17.667 -101.5 53s-32.5 78.333 -32.5 129c0 76 9.66699 140.167 29 192.5s44.333 91.333 75 117s63.334 38.5 98.001 38.5c27.333 0 50.5 -6.5 69.5 -19.5s33.5 -34.833 43.5 -65.5l17 73h65l-67 -477
c-11.333 -80.667 -33.5 -139.334 -66.5 -176.001s-78.167 -55 -135.5 -55c-51.333 0 -90.5 15 -117.5 45zM270.5 129.5c19 32.333 32.667 69.668 41 112.001s12.5 79.166 12.5 110.499c-1.33301 75.333 -26 113 -74 113c-33.333 0 -59.5 -16.5 -78.5 -49.5
s-32.167 -71 -39.5 -114s-11 -82.833 -11 -119.5c0 -67.333 25.333 -101 76 -101c30 0 54.5 16.167 73.5 48.5z" />
    <glyph glyph-name="Gdotaccent" unicode="&#x120;" horiz-adv-x="638" 
d="M428 788h-87l13 95h87zM315 357h268.999l-51 -357h-58l-8 76c-45.333 -58.667 -106 -88 -182 -88c-74 0 -131.667 21 -173 63s-62 105.333 -62 190c0 69.333 10 138.833 30 208.5s53.333 128.5 100 176.5s108 72 184 72c154.667 0 232 -82 232 -246h-91v7
c0 105.333 -47.333 158 -142 158c-59.333 0 -105.666 -22.667 -138.999 -68s-55.666 -96 -66.999 -152s-17 -106.333 -17 -151c0 -57.333 12.667 -101 38 -131s63.666 -45 114.999 -45c52.667 0 94.667 16.167 126 48.5s51 73.5 59 123.5l6 38h-180z" />
    <glyph glyph-name="gdotaccent" unicode="&#x121;" 
d="M248 723h87l-13 -95h-87zM47.5 -137c-27 30 -40.5 67.667 -40.5 113h82c0 -57.333 26.333 -86 79 -86c32 0 57.167 10.833 75.5 32.5s31.166 55.834 38.499 102.501l11 66c-18 -28.667 -36.667 -49.667 -56 -63s-41.333 -20 -66 -20c-46 0 -79.833 17.667 -101.5 53
s-32.5 78.333 -32.5 129c0 76 9.66699 140.167 29 192.5s44.333 91.333 75 117s63.334 38.5 98.001 38.5c27.333 0 50.5 -6.5 69.5 -19.5s33.5 -34.833 43.5 -65.5l17 73h65l-67 -477c-11.333 -80.667 -33.5 -139.334 -66.5 -176.001s-78.167 -55 -135.5 -55
c-51.333 0 -90.5 15 -117.5 45zM270.5 129.5c19 32.333 32.667 69.668 41 112.001s12.5 79.166 12.5 110.499c-1.33301 75.333 -26 113 -74 113c-33.333 0 -59.5 -16.5 -78.5 -49.5s-32.167 -71 -39.5 -114s-11 -82.833 -11 -119.5c0 -67.333 25.333 -101 76 -101
c30 0 54.5 16.167 73.5 48.5z" />
    <glyph glyph-name="Gcommaaccent" unicode="&#x122;" horiz-adv-x="638" 
d="M315 357h268.999l-51 -357h-58l-8 76c-45.333 -58.667 -106 -88 -182 -88c-74 0 -131.667 21 -173 63s-62 105.333 -62 190c0 69.333 10 138.833 30 208.5s53.333 128.5 100 176.5s108 72 184 72c154.667 0 232 -82 232 -246h-91v7c0 105.333 -47.333 158 -142 158
c-59.333 0 -105.666 -22.667 -138.999 -68s-55.666 -96 -66.999 -152s-17 -106.333 -17 -151c0 -57.333 12.667 -101 38 -131s63.666 -45 114.999 -45c52.667 0 94.667 16.167 126 48.5s51 73.5 59 123.5l6 38h-180zM246.999 -60h85l-13 -84l-35 -76h-48l32 69h-35z" />
    <glyph glyph-name="gcommaaccent" unicode="&#x123;" 
d="M241 679l35 76h49l-32 -69h34l-13 -91h-85zM47.5 -137c-27 30 -40.5 67.667 -40.5 113h82c0 -57.333 26.333 -86 79 -86c32 0 57.167 10.833 75.5 32.5s31.166 55.834 38.499 102.501l11 66c-18 -28.667 -36.667 -49.667 -56 -63s-41.333 -20 -66 -20
c-46 0 -79.833 17.667 -101.5 53s-32.5 78.333 -32.5 129c0 76 9.66699 140.167 29 192.5s44.333 91.333 75 117s63.334 38.5 98.001 38.5c27.333 0 50.5 -6.5 69.5 -19.5s33.5 -34.833 43.5 -65.5l17 73h65l-67 -477c-11.333 -80.667 -33.5 -139.334 -66.5 -176.001
s-78.167 -55 -135.5 -55c-51.333 0 -90.5 15 -117.5 45zM270.5 129.5c19 32.333 32.667 69.668 41 112.001s12.5 79.166 12.5 110.499c-1.33301 75.333 -26 113 -74 113c-33.333 0 -59.5 -16.5 -78.5 -49.5s-32.167 -71 -39.5 -114s-11 -82.833 -11 -119.5
c0 -67.333 25.333 -101 76 -101c30 0 54.5 16.167 73.5 48.5z" />
    <glyph glyph-name="Hcircumflex" unicode="&#x124;" horiz-adv-x="592" 
d="M341 883h78l66 -135h-77l-33 79l-56 -79h-83zM131 686h88l-42 -295h276l42 295h88l-97 -686h-88l44 311h-276l-44 -311h-88z" />
    <glyph glyph-name="hcircumflex" unicode="&#x125;" 
d="M144 883h78l66 -135h-78l-32 79l-56 -79h-83zM123 723l82.002 -0.000976562l-36 -258c12.667 20 29.667 37.167 51 51.5s47.666 21.5 78.999 21.5c40 0 69 -11.167 87 -33.5s27 -50.5 27 -84.5c0 -13.333 -7.83301 -76.5 -23.5 -189.5l-32.5 -230.5h-82
c6 38.667 16.5 111.834 31.5 219.501s22.5 168.167 22.5 181.5c0 42.667 -20 64 -60 64c-32.667 0 -59.834 -15.5 -81.501 -46.5s-36.167 -72.5 -43.5 -124.5l-41 -294h-81z" />
    <glyph glyph-name="Hbar" unicode="&#x126;" horiz-adv-x="592" 
d="M103 490h-57l11 72h56l18 124h88l-17 -124h276l17 124h88l-18 -124h54l-11 -72h-53l-69 -490h-88l43 306h-275l-44 -306h-88zM454 386l14 104h-276l-14 -104h276z" />
    <glyph glyph-name="hbar" unicode="&#x127;" 
d="M104 583l-56.998 -0.000976562l11 68h55l10 72h82l-10 -72h115l-10 -68h-114l-17 -118c12.667 20 29.667 37.167 51 51.5s47.666 21.5 78.999 21.5c40 0 69 -11.167 87 -33.5s27 -50.5 27 -84.5c0 -13.333 -7.83301 -76.5 -23.5 -189.5l-32.5 -230.5h-82
c6 38.667 16.5 111.834 31.5 219.501s22.5 168.167 22.5 181.5c0 42.667 -20 64 -60 64c-32.667 0 -59.834 -15.5 -81.501 -46.5s-36.167 -72.5 -43.5 -124.5l-41 -294h-81z" />
    <glyph glyph-name="Itilde" unicode="&#x128;" horiz-adv-x="228" 
d="M71.5 851c16.333 21.333 37.834 32 64.501 32c10 0 19.667 -1.33301 29 -4s19.666 -6.66699 30.999 -12c22.667 -10 40.667 -15 54 -15c20.667 0 33.667 10.333 39 31h58c-4 -26.667 -14.333 -50.667 -31 -72s-38.334 -32 -65.001 -32c-10 0 -19.667 1.33301 -29 4
s-19.666 6.66699 -30.999 12c-22.667 10 -40.667 15 -54 15c-20.667 0 -33.667 -10.333 -39 -31h-57c4 26.667 14.167 50.667 30.5 72zM131.001 686h88l-97 -686h-88z" />
    <glyph glyph-name="itilde" unicode="&#x129;" horiz-adv-x="228" 
d="M47.5 691c16.333 21.333 37.834 32 64.501 32c10 0 19.667 -1.33301 29 -4s19.666 -6.66699 30.999 -12c22.667 -10 40.667 -15 54 -15c20.667 0 33.667 10.333 39 31h58c-4 -26.667 -14.333 -50.667 -31 -72s-38.334 -32 -65.001 -32c-10 0 -19.667 1.33301 -29 4
s-19.666 6.66699 -30.999 12c-22.667 10 -40.667 15 -54 15c-20.667 0 -33.667 -10.333 -39 -31h-57c4 26.667 14.167 50.667 30.5 72zM111.001 526h82l-74 -526h-81z" />
    <glyph glyph-name="Imacron" unicode="&#x12a;" horiz-adv-x="228" 
d="M68 831h250l-11 -72h-250zM131 686h88l-97 -686h-88z" />
    <glyph glyph-name="imacron" unicode="&#x12b;" horiz-adv-x="228" 
d="M44 671h250l-11 -72h-250zM111 526h82l-74 -526h-81z" />
    <glyph glyph-name="Ibreve" unicode="&#x12c;" horiz-adv-x="228" 
d="M110.5 812.5c-21 17.667 -31.5 38.167 -31.5 61.5c0 4 0.333008 7 1 9h64c0.666992 -8 6.16699 -15.5 16.5 -22.5s23.166 -10.5 38.499 -10.5c16 0 30.167 3.5 42.5 10.5s19.5 14.5 21.5 22.5h64c-2 -15.333 -9 -30.5 -21 -45.5s-27.667 -27.333 -47 -37
s-40.666 -14.5 -63.999 -14.5c-35.333 0 -63.5 8.83301 -84.5 26.5zM131 686h88l-97 -686h-88z" />
    <glyph glyph-name="ibreve" unicode="&#x12d;" horiz-adv-x="228" 
d="M86.5 652.5c-21 17.667 -31.5 38.167 -31.5 61.5c0 4 0.333008 7 1 9h64c0.666992 -8 6.16699 -15.5 16.5 -22.5s23.166 -10.5 38.499 -10.5c16 0 30.167 3.5 42.5 10.5s19.5 14.5 21.5 22.5h64c-2 -15.333 -9 -30.5 -21 -45.5s-27.667 -27.333 -47 -37
s-40.666 -14.5 -63.999 -14.5c-35.333 0 -63.5 8.83301 -84.5 26.5zM111 526h82l-74 -526h-81z" />
    <glyph glyph-name="Iogonek" unicode="&#x12e;" horiz-adv-x="228" 
d="M22.5 -171.5c-15.667 12.333 -23.5 32.502 -23.5 60.502c0 23.333 5.16699 43.666 15.5 60.999s24.5 34 42.5 50h-23l97 686h88l-97 -686c-10.667 -10.667 -20.167 -23.5 -28.5 -38.5s-12.5 -29.833 -12.5 -44.5c0 -12.667 3 -22.834 9 -30.501s15.667 -11.5 29 -11.5h32
l-7 -51c-22.667 -9.33301 -43.667 -14 -63 -14c-23.333 0 -42.833 6.16699 -58.5 18.5z" />
    <glyph glyph-name="iogonek" unicode="&#x12f;" horiz-adv-x="182" 
d="M136 723h87l-13 -95h-87zM19.5 -171.5c-15.667 12.333 -23.5 32.502 -23.5 60.502c0 23.333 5.16699 43.666 15.5 60.999s24.5 34 42.5 50h-16l73 526h82l-74 -526c-10.667 -10.667 -20.167 -23.5 -28.5 -38.5s-12.5 -29.833 -12.5 -44.5c0 -12.667 3 -22.834 9 -30.501
s15.667 -11.5 29 -11.5h32l-7 -51c-22.667 -9.33301 -43.667 -14 -63 -14c-23.333 0 -42.833 6.16699 -58.5 18.5z" />
    <glyph glyph-name="Idotaccent" unicode="&#x130;" horiz-adv-x="228" 
d="M160 883h87l-13 -95h-87zM131 686h88l-97 -686h-88z" />
    <glyph glyph-name="dotlessi" unicode="&#x131;" horiz-adv-x="228" 
d="M111 526h82l-74 -526h-81z" />
    <glyph glyph-name="IJ" unicode="&#x132;" horiz-adv-x="638" 
d="M131 686h88l-97 -686h-88zM266.5 23c-26.333 23.333 -39.5 57.001 -39.5 101.001c0 12 3 40 9 84h87c-6 -42.667 -9 -66.334 -9 -71.001c0 -22.667 5.83301 -39.667 17.5 -51s28.5 -17 50.5 -17c25.333 0 45.666 7.66699 60.999 23s25 37.333 29 66l75 528h88l-74 -523
c-8 -56.667 -27.667 -100 -59 -130s-72 -45 -122 -45c-49.333 0 -87.166 11.667 -113.499 35z" />
    <glyph glyph-name="ij" unicode="&#x133;" horiz-adv-x="364" 
d="M116 723h82l-13 -98h-82zM298 723h82l-14 -98h-82zM89 526h82l-74 -526h-81zM83 -170l7.99902 57.001h44c15.333 0 27.5 4.16699 36.5 12.5s14.167 20.166 15.5 35.499l83 591h82l-82 -587c-5.33301 -34.667 -17.5 -63.5 -36.5 -86.5s-46.833 -34.5 -83.5 -34.5
c-23.333 0 -45.666 4 -66.999 12z" />
    <glyph glyph-name="Jcircumflex" unicode="&#x134;" horiz-adv-x="410" 
d="M350 883h78l66 -135h-77l-33 79l-56 -79h-83zM38.5 23c-26.333 23.333 -39.5 57.001 -39.5 101.001c0 12 3 40 9 84h87c-6 -42.667 -9 -66.334 -9 -71.001c0 -22.667 5.83301 -39.667 17.5 -51s28.5 -17 50.5 -17c25.333 0 45.666 7.66699 60.999 23s25 37.333 29 66
l75 528h88l-74 -523c-8 -56.667 -27.667 -100 -59 -130s-72 -45 -122 -45c-49.333 0 -87.166 11.667 -113.499 35z" />
    <glyph glyph-name="jcircumflex" unicode="&#x135;" horiz-adv-x="182" 
d="M123 723h78l66 -135h-77l-33 79l-56 -79h-83zM-99 -170l7.99902 57.001h44c15.333 0 27.5 4.16699 36.5 12.5s14.167 20.166 15.5 35.499l83 591h82l-82 -587c-5.33301 -34.667 -17.5 -63.5 -36.5 -86.5s-46.833 -34.5 -83.5 -34.5c-23.333 0 -45.666 4 -66.999 12z" />
    <glyph glyph-name="Kcommaaccent" unicode="&#x136;" horiz-adv-x="547" 
d="M131 686h88l-51 -357l316 357h105l-245 -277l155 -409h-98l-122 335l-127 -122l-30 -213h-88zM192 -151h-34l13 91h85l-12 -84l-35 -76h-48z" />
    <glyph glyph-name="kcommaaccent" unicode="&#x137;" horiz-adv-x="410" 
d="M120 723h82l-61 -431l197 234h98l-186 -216l120 -310h-90l-88 242l-65 -55l-26 -187h-82zM153 -151h-34l13 91h85l-12 -84l-36 -76h-48z" />
    <glyph glyph-name="kgreenlandic" unicode="&#x138;" horiz-adv-x="410" 
d="M92 526h82l-33 -234l197 234h98l-186 -216l120 -310h-90l-88 242l-65 -55l-26 -187h-82z" />
    <glyph glyph-name="Lacute" unicode="&#x139;" 
d="M219 883h91l1 -3l-108 -129h-70zM131 686h88l-85 -606h280l-12 -80h-368z" />
    <glyph glyph-name="lacute" unicode="&#x13a;" horiz-adv-x="182" 
d="M196 883h90l1 -3l-108 -129h-69zM116 723h82l-101 -723h-81z" />
    <glyph glyph-name="Lcommaaccent" unicode="&#x13b;" 
d="M131 686h88l-85 -606h280l-12 -80h-368zM168 -151h-34l13 91h85l-12 -84l-35 -76h-48z" />
    <glyph glyph-name="lcommaaccent" unicode="&#x13c;" horiz-adv-x="182" 
d="M116 723h82l-101 -723h-81zM26 -151h-34l13 91h85l-12 -84l-35 -76h-48z" />
    <glyph glyph-name="Lcaron" unicode="&#x13d;" 
d="M131 686h88l-85 -606h280l-12 -80h-368zM373 578h-33l15 108h100l-14 -99l-64 -133h-55z" />
    <glyph glyph-name="lcaron" unicode="&#x13e;" horiz-adv-x="231" 
d="M116 723h82l-101 -723h-81zM240 578h-33l15 108h99l-13 -99l-64 -133h-56z" />
    <glyph glyph-name="Ldot" unicode="&#x13f;" 
d="M131 686h88l-85 -606h280l-12 -80h-368zM314 399h102l-16 -111h-101z" />
    <glyph glyph-name="ldot" unicode="&#x140;" horiz-adv-x="269" 
d="M116 723h82l-101 -723h-81zM201 399h101l-15 -111h-101z" />
    <glyph glyph-name="Lslash" unicode="&#x141;" 
d="M67 237l-76 -60l12 81l76 60l52 368h88l-41 -290l119 95l-12 -83l-118 -94l-33 -234h280l-12 -80h-368z" />
    <glyph glyph-name="lslash" unicode="&#x142;" horiz-adv-x="182" 
d="M50 247l-81 -64l12 81l81 64l54 395h82l-45 -323l98 79l-12 -83l-97 -77l-45 -319h-81z" />
    <glyph glyph-name="Nacute" unicode="&#x143;" horiz-adv-x="592" 
d="M398 883h91l1 -3l-108 -129h-70zM130 686h72l195 -431c4.66699 -10.667 10.667 -26.834 18 -48.501s12 -36.167 14 -43.5l3 1c0.666992 7.33301 2 20.5 4 39.5s4 36.167 6 51.5l61 431h79l-97 -686h-69l-197 437c-5.33301 12 -11.666 28.667 -18.999 50
s-12 35.333 -14 42l-3 -1c-0.666992 -6.66699 -1.83398 -19.167 -3.50098 -37.5s-3.5 -36.166 -5.5 -53.499l-62 -437h-79z" />
    <glyph glyph-name="nacute" unicode="&#x144;" 
d="M303 723h91l1 -3l-108 -129h-70zM96 526l64 -0.00195312v-78c11.333 22.667 28.333 43.334 51 62.001s52.334 28 89.001 28c40 0 69 -11.167 87 -33.5s27 -50.5 27 -84.5c0 -13.333 -7.83301 -76.5 -23.5 -189.5l-32.5 -230.5h-82c6 38.667 16.5 111.834 31.5 219.501
s22.5 168.167 22.5 181.5c0 42.667 -20 64 -60 64c-32.667 0 -59.834 -15.5 -81.501 -46.5s-36.167 -72.5 -43.5 -124.5l-41 -294h-82z" />
    <glyph glyph-name="Ncommaaccent" unicode="&#x145;" horiz-adv-x="592" 
d="M130 686h72l195 -431c4.66699 -10.667 10.667 -26.834 18 -48.501s12 -36.167 14 -43.5l3 1c0.666992 7.33301 2 20.5 4 39.5s4 36.167 6 51.5l61 431h79l-97 -686h-69l-197 437c-5.33301 12 -11.666 28.667 -18.999 50s-12 35.333 -14 42l-3 -1
c-0.666992 -6.66699 -1.83398 -19.167 -3.50098 -37.5s-3.5 -36.166 -5.5 -53.499l-62 -437h-79zM229 -151h-34l13 91h85l-12 -84l-35 -76h-48z" />
    <glyph glyph-name="ncommaaccent" unicode="&#x146;" 
d="M96 526l64 -0.00195312v-78c11.333 22.667 28.333 43.334 51 62.001s52.334 28 89.001 28c40 0 69 -11.167 87 -33.5s27 -50.5 27 -84.5c0 -13.333 -7.83301 -76.5 -23.5 -189.5l-32.5 -230.5h-82c6 38.667 16.5 111.834 31.5 219.501s22.5 168.167 22.5 181.5
c0 42.667 -20 64 -60 64c-32.667 0 -59.834 -15.5 -81.501 -46.5s-36.167 -72.5 -43.5 -124.5l-41 -294h-82zM156 -151.002h-34l13 91h85l-12 -84l-35 -76h-48z" />
    <glyph glyph-name="Ncaron" unicode="&#x147;" horiz-adv-x="592" 
d="M258 883h79l34 -79l52 79h83l-105 -135h-77zM130 686h72l195 -431c4.66699 -10.667 10.667 -26.834 18 -48.501s12 -36.167 14 -43.5l3 1c0.666992 7.33301 2 20.5 4 39.5s4 36.167 6 51.5l61 431h79l-97 -686h-69l-197 437c-5.33301 12 -11.666 28.667 -18.999 50
s-12 35.333 -14 42l-3 -1c-0.666992 -6.66699 -1.83398 -19.167 -3.50098 -37.5s-3.5 -36.166 -5.5 -53.499l-62 -437h-79z" />
    <glyph glyph-name="ncaron" unicode="&#x148;" 
d="M163 723h79l33 -79l53 79h83l-105 -135h-77zM96 526l64 -0.00195312v-78c11.333 22.667 28.333 43.334 51 62.001s52.334 28 89.001 28c40 0 69 -11.167 87 -33.5s27 -50.5 27 -84.5c0 -13.333 -7.83301 -76.5 -23.5 -189.5l-32.5 -230.5h-82
c6 38.667 16.5 111.834 31.5 219.501s22.5 168.167 22.5 181.5c0 42.667 -20 64 -60 64c-32.667 0 -59.834 -15.5 -81.501 -46.5s-36.167 -72.5 -43.5 -124.5l-41 -294h-82z" />
    <glyph glyph-name="napostrophe" unicode="&#x149;" horiz-adv-x="573" 
d="M126 594h-34l13 91h85l-12 -84l-35 -77h-48zM213 526l64 -0.00195312v-78c11.333 22.667 28.333 43.334 51 62.001s52.334 28 89.001 28c40 0 69 -11.167 87 -33.5s27 -50.5 27 -84.5c0 -13.333 -7.83301 -76.5 -23.5 -189.5l-32.5 -230.5h-82
c6 38.667 16.5 111.834 31.5 219.501s22.5 168.167 22.5 181.5c0 42.667 -20 64 -60 64c-32.667 0 -59.834 -15.5 -81.501 -46.5s-36.167 -72.5 -43.5 -124.5l-41 -294h-82z" />
    <glyph glyph-name="Eng" unicode="&#x14a;" horiz-adv-x="593" 
d="M290 -170l7.99902 57h44c30.667 0 48 16 52 48l12 86l-187 416c-5.33301 12 -11.666 28.667 -18.999 50s-12 35.333 -14 42l-3 -1c-0.666992 -6.66699 -1.83398 -19.167 -3.50098 -37.5s-3.5 -36.166 -5.5 -53.499l-62 -437h-79l97 686h72l195 -431
c4.66699 -10.667 10.667 -26.834 18 -48.501s12 -36.167 14 -43.5l3 1c0.666992 7.33301 2 20.5 4 39.5s4 36.167 6 51.5l61 431h79l-105 -747c-5.33301 -34.667 -17.5 -63.5 -36.5 -86.5s-46.833 -34.5 -83.5 -34.5c-23.333 0 -45.666 4 -66.999 12z" />
    <glyph glyph-name="eng" unicode="&#x14b;" 
d="M163 -170l7.99902 57h44c15.333 0 27.5 4.16699 36.5 12.5s14.167 20.166 15.5 35.499l31.5 229c14.333 105.333 24.5 183 30.5 233c0 45.333 -19.667 68 -59 68c-32.667 0 -59.834 -15.5 -81.501 -46.5s-36.167 -72.5 -43.5 -124.5l-41 -294h-82l74 526h64v-78
c11.333 22.667 28.333 43.334 51 62.001s52.334 28 89.001 28c40 0 69 -11.167 87 -33.5s27 -50.5 27 -84.5c0 -11.333 -9 -82.5 -27 -213.5l-37 -267.5c-14 -80.667 -54 -121 -120 -121c-23.333 0 -45.666 4 -66.999 12z" />
    <glyph glyph-name="Omacron" unicode="&#x14c;" horiz-adv-x="638" 
d="M271 831h250l-10 -72h-250zM112.5 53c-41 43.333 -61.501 107.999 -61.501 193.999c0 71.333 10.333 141.333 31 210s54.5 126 101.5 172s108.167 69 183.5 69c76 0 134.667 -22 176 -66s62 -109 62 -195c0 -71.333 -10.333 -141.166 -31 -209.499
s-54.667 -125.333 -102 -171s-108.666 -68.5 -183.999 -68.5c-76 0 -134.5 21.667 -175.5 65zM423.499 126.499c33.667 38.333 57.167 85.333 70.5 141s20 112.167 20 169.5c0 59.333 -12.833 104.166 -38.5 134.499s-62.167 45.5 -109.5 45.5
c-56 0 -100.667 -19.167 -134 -57.5s-56.833 -85.166 -70.5 -140.499s-20.5 -112 -20.5 -170c0 -60 12.667 -105 38 -135s62 -45 110 -45c56 0 100.833 19.167 134.5 57.5z" />
    <glyph glyph-name="omacron" unicode="&#x14d;" 
d="M157 671h250l-11 -72h-250zM33 175c0 56.667 6.5 112.333 19.5 167s36.167 101 69.5 139s78 57 134 57c110.667 0 166 -63 166 -189c0 -56.667 -6.5 -112.167 -19.5 -166.5s-36.167 -100.333 -69.5 -138s-78 -56.5 -134 -56.5c-110.667 0 -166 62.333 -166 187z
M285 112.999c20.667 34.667 34.498 73.832 41.498 117.499s10.5 82.834 10.5 117.501c0 78 -27 117 -81 117c-36.667 0 -65.167 -16.833 -85.5 -50.5s-34.166 -71.667 -41.499 -114s-11 -80.5 -11 -114.5c0 -42.667 6.5 -74.167 19.5 -94.5s33.5 -30.5 61.5 -30.5
c36.667 0 65.334 17.333 86.001 52z" />
    <glyph glyph-name="Obreve" unicode="&#x14e;" horiz-adv-x="638" 
d="M314.5 812.5c-21 17.667 -31.498 38.167 -31.498 61.5c0 4 0.333008 7 1 9h64c0.666992 -8 6.16699 -15.5 16.5 -22.5s23.166 -10.5 38.499 -10.5c16 0 30 3.5 42 10.5s19.333 14.5 22 22.5h64c-2.66699 -15.333 -9.83398 -30.5 -21.501 -45.5s-27.167 -27.333 -46.5 -37
s-41 -14.5 -65 -14.5c-34.667 0 -62.5 8.83301 -83.5 26.5zM112.502 53c-41 43.333 -61.501 107.999 -61.501 193.999c0 71.333 10.333 141.333 31 210s54.5 126 101.5 172s108.167 69 183.5 69c76 0 134.667 -22 176 -66s62 -109 62 -195
c0 -71.333 -10.333 -141.166 -31 -209.499s-54.667 -125.333 -102 -171s-108.666 -68.5 -183.999 -68.5c-76 0 -134.5 21.667 -175.5 65zM423.501 126.499c33.667 38.333 57.167 85.333 70.5 141s20 112.167 20 169.5c0 59.333 -12.833 104.166 -38.5 134.499
s-62.167 45.5 -109.5 45.5c-56 0 -100.667 -19.167 -134 -57.5s-56.833 -85.166 -70.5 -140.499s-20.5 -112 -20.5 -170c0 -60 12.667 -105 38 -135s62 -45 110 -45c56 0 100.833 19.167 134.5 57.5z" />
    <glyph glyph-name="obreve" unicode="&#x14f;" 
d="M199.5 652.5c-21 17.667 -31.5 38.167 -31.5 61.5c0 4 0.333008 7 1 9h64c0.666992 -8 6.16699 -15.5 16.5 -22.5s23.166 -10.5 38.499 -10.5c16 0 30.167 3.5 42.5 10.5s19.5 14.5 21.5 22.5h64c-2 -15.333 -9 -30.5 -21 -45.5s-27.667 -27.333 -47 -37
s-40.666 -14.5 -63.999 -14.5c-35.333 0 -63.5 8.83301 -84.5 26.5zM33 175c0 56.667 6.5 112.333 19.5 167s36.167 101 69.5 139s78 57 134 57c110.667 0 166 -63 166 -189c0 -56.667 -6.5 -112.167 -19.5 -166.5s-36.167 -100.333 -69.5 -138s-78 -56.5 -134 -56.5
c-110.667 0 -166 62.333 -166 187zM285 112.999c20.667 34.667 34.498 73.832 41.498 117.499s10.5 82.834 10.5 117.501c0 78 -27 117 -81 117c-36.667 0 -65.167 -16.833 -85.5 -50.5s-34.166 -71.667 -41.499 -114s-11 -80.5 -11 -114.5
c0 -42.667 6.5 -74.167 19.5 -94.5s33.5 -30.5 61.5 -30.5c36.667 0 65.334 17.333 86.001 52z" />
    <glyph glyph-name="Ohungarumlaut" unicode="&#x150;" horiz-adv-x="638" 
d="M320 883h90l1 -3l-84 -129h-69zM450 883h90l1 -3l-84 -129h-69zM112.5 53c-41 43.333 -61.501 107.999 -61.501 193.999c0 71.333 10.333 141.333 31 210s54.5 126 101.5 172s108.167 69 183.5 69c76 0 134.667 -22 176 -66s62 -109 62 -195
c0 -71.333 -10.333 -141.166 -31 -209.499s-54.667 -125.333 -102 -171s-108.666 -68.5 -183.999 -68.5c-76 0 -134.5 21.667 -175.5 65zM423.499 126.499c33.667 38.333 57.167 85.333 70.5 141s20 112.167 20 169.5c0 59.333 -12.833 104.166 -38.5 134.499
s-62.167 45.5 -109.5 45.5c-56 0 -100.667 -19.167 -134 -57.5s-56.833 -85.166 -70.5 -140.499s-20.5 -112 -20.5 -170c0 -60 12.667 -105 38 -135s62 -45 110 -45c56 0 100.833 19.167 134.5 57.5z" />
    <glyph glyph-name="ohungarumlaut" unicode="&#x151;" 
d="M205 723h90l1 -3l-84 -129h-69zM335 723h90l1 -3l-84 -129h-69zM33 175c0 56.667 6.5 112.333 19.5 167s36.167 101 69.5 139s78 57 134 57c110.667 0 166 -63 166 -189c0 -56.667 -6.5 -112.167 -19.5 -166.5s-36.167 -100.333 -69.5 -138s-78 -56.5 -134 -56.5
c-110.667 0 -166 62.333 -166 187zM285 112.999c20.667 34.667 34.498 73.832 41.498 117.499s10.5 82.834 10.5 117.501c0 78 -27 117 -81 117c-36.667 0 -65.167 -16.833 -85.5 -50.5s-34.166 -71.667 -41.499 -114s-11 -80.5 -11 -114.5
c0 -42.667 6.5 -74.167 19.5 -94.5s33.5 -30.5 61.5 -30.5c36.667 0 65.334 17.333 86.001 52z" />
    <glyph glyph-name="OE" unicode="&#x152;" horiz-adv-x="820" 
d="M87 49c-31.333 40.667 -47.001 101.331 -47.001 181.998c0 64.667 8.83301 132.834 26.5 204.501s47.667 133.334 90 185.001s97.5 77.5 165.5 77.5c64.667 0 111.667 -26.667 141 -80l10 68h360l-12 -80h-272l-30 -215h228l-11 -80h-228l-32 -231h278l-12 -80h-366
l10 68c-44.667 -53.333 -99 -80 -163 -80c-59.333 0 -104.666 20.333 -135.999 61zM359.499 133.997c28.333 43.333 47.833 94.168 58.5 152.501s16 113.166 16 164.499c0 54.667 -9.66699 96 -29 124s-47.333 42 -84 42c-46.667 0 -84.167 -21.833 -112.5 -65.5
s-48.333 -95 -60 -154s-17.5 -113.167 -17.5 -162.5c0 -54.667 9.66699 -96 29 -124s47.333 -42 84 -42c48.667 0 87.167 21.667 115.5 65z" />
    <glyph glyph-name="oe" unicode="&#x153;" horiz-adv-x="774" 
d="M46 175c0 56.667 6.5 112.333 19.5 167s36.167 101 69.5 139s78 57 134 57c69.333 0 117 -25.333 143 -76c37.333 50.667 88 76 152 76c108 0 162 -63 162 -189c0 -39.333 -2.66699 -76 -8 -110h-289c-2 -20.667 -3 -38.334 -3 -53.001c0 -83.333 28.333 -125 85 -125
c28.667 0 53.167 11.333 73.5 34s32.833 50.334 37.5 83.001h83c-8.66699 -54.667 -29.834 -100 -63.501 -136s-77.167 -54 -130.5 -54c-72 0 -121.333 26 -148 78c-37.333 -52 -87.666 -78 -150.999 -78c-110.667 0 -166 62.333 -166 187zM298 112.999
c20.667 34.667 34.498 73.832 41.498 117.499s10.5 82.834 10.5 117.501c0 78 -27 117 -81 117c-36.667 0 -65.167 -16.833 -85.5 -50.5s-34.166 -71.667 -41.499 -114s-11 -80.5 -11 -114.5c0 -42.667 6.5 -74.167 19.5 -94.5s33.5 -30.5 61.5 -30.5
c36.667 0 65.334 17.333 86.001 52zM639.998 311.997c0.666992 8.66699 0.998047 20.667 0.998047 36c0 78 -25.667 117 -77 117c-33.333 0 -60.166 -14.5 -80.499 -43.5s-35.166 -65.5 -44.499 -109.5h201z" />
    <glyph glyph-name="Racute" unicode="&#x154;" horiz-adv-x="592" 
d="M393 883h90l1 -3l-108 -129h-69zM131 686l266 -0.000976562c62.667 0 109.334 -14.167 140.001 -42.5s46 -67.166 46 -116.499c0 -50 -12.833 -93.5 -38.5 -130.5s-60.834 -63.167 -105.501 -78.5l92 -318h-93l-88 303h-185l-43 -303h-88zM353 382.999
c39.333 0 72.167 12.167 98.5 36.5s39.5 55.5 39.5 93.5c0 30 -9.16699 53 -27.5 69s-44.833 24 -79.5 24h-177l-31 -223h177z" />
    <glyph glyph-name="racute" unicode="&#x155;" horiz-adv-x="273" 
d="M166 723h90l1 -3l-108 -129h-69zM90 526l63.999 0.00195312v-84c14 29.333 28.5 52.666 43.5 69.999s35.5 26 61.5 26c9.33301 0 17.5 -1.16699 24.5 -3.5l13.5 -4.5l-12 -85h-27c-27.333 0 -52.166 -12.333 -74.499 -37s-36.5 -59.334 -42.5 -104.001l-43 -304h-82z" />
    <glyph glyph-name="Rcommaaccent" unicode="&#x156;" horiz-adv-x="592" 
d="M131 686l266 -0.000976562c62.667 0 109.334 -14.167 140.001 -42.5s46 -67.166 46 -116.499c0 -50 -12.833 -93.5 -38.5 -130.5s-60.834 -63.167 -105.501 -78.5l92 -318h-93l-88 303h-185l-43 -303h-88zM353 382.999c39.333 0 72.167 12.167 98.5 36.5
s39.5 55.5 39.5 93.5c0 30 -9.16699 53 -27.5 69s-44.833 24 -79.5 24h-177l-31 -223h177zM271.001 -151.001h-35l14 91h84l-12 -84l-35 -76h-48z" />
    <glyph glyph-name="rcommaaccent" unicode="&#x157;" horiz-adv-x="273" 
d="M90 526l63.999 0.00195312v-84c14 29.333 28.5 52.666 43.5 69.999s35.5 26 61.5 26c9.33301 0 17.5 -1.16699 24.5 -3.5l13.5 -4.5l-12 -85h-27c-27.333 0 -52.166 -12.333 -74.499 -37s-36.5 -59.334 -42.5 -104.001l-43 -304h-82zM27.999 -150.998h-34l13 91h85
l-12 -84l-36 -76h-48z" />
    <glyph glyph-name="Rcaron" unicode="&#x158;" horiz-adv-x="592" 
d="M252 883h80l33 -79l52 79h83l-104 -135h-78zM131 686l266 -0.000976562c62.667 0 109.334 -14.167 140.001 -42.5s46 -67.166 46 -116.499c0 -50 -12.833 -93.5 -38.5 -130.5s-60.834 -63.167 -105.501 -78.5l92 -318h-93l-88 303h-185l-43 -303h-88zM353 382.999
c39.333 0 72.167 12.167 98.5 36.5s39.5 55.5 39.5 93.5c0 30 -9.16699 53 -27.5 69s-44.833 24 -79.5 24h-177l-31 -223h177z" />
    <glyph glyph-name="rcaron" unicode="&#x159;" horiz-adv-x="273" 
d="M25 723h80l33 -79l53 79h83l-105 -135h-78zM90 526l63.999 0.00195312v-84c14 29.333 28.5 52.666 43.5 69.999s35.5 26 61.5 26c9.33301 0 17.5 -1.16699 24.5 -3.5l13.5 -4.5l-12 -85h-27c-27.333 0 -52.166 -12.333 -74.499 -37s-36.5 -59.334 -42.5 -104.001
l-43 -304h-82z" />
    <glyph glyph-name="Sacute" unicode="&#x15a;" horiz-adv-x="547" 
d="M382 883h90l1 -3l-108 -129h-69zM91 40.5c-38.667 35 -57.998 84.1641 -57.998 147.497c0 20 1 35.333 3 46h91c-3.33301 -18.667 -5 -34.334 -5 -47.001c0 -40 11.667 -69.667 35 -89s56.333 -29 99 -29c35.333 0 67.833 9.33301 97.5 28s44.5 49.667 44.5 93
c0 22 -5.83301 40.667 -17.5 56s-26.167 28 -43.5 38s-41 22 -71 36c-35.333 15.333 -64 29.833 -86 43.5s-40.667 31.834 -56 54.501s-23 50.667 -23 84c0 62.667 18.667 111 56 145s89.666 51 156.999 51c74.667 0 128.667 -19.167 162 -57.5s50 -90.166 50 -155.499h-91
c0 88 -42 132 -126 132c-28 0 -54.5 -7.16699 -79.5 -21.5s-37.5 -42.166 -37.5 -83.499c0 -20 5.5 -37 16.5 -51s24.833 -25.667 41.5 -35s39.667 -20.333 69 -33c36 -15.333 65.5 -29.833 88.5 -43.5s42.5 -32.5 58.5 -56.5s24 -54 24 -90
c0 -35.333 -7.16699 -69.166 -21.5 -101.499s-39.5 -59.333 -75.5 -81s-84 -32.5 -144 -32.5c-66.667 0 -119.334 17.5 -158.001 52.5z" />
    <glyph glyph-name="sacute" unicode="&#x15b;" horiz-adv-x="410" 
d="M283 723h90l1 -3l-108 -129h-69zM102.5 8c-25 13.333 -44.8311 32.3359 -59.498 57.0029s-22 53 -22 85c0 14 0.666992 24.667 2 32h85c-2 -10.667 -3 -21.334 -3 -32.001c0 -29.333 8.33301 -51.666 25 -66.999s38 -23 64 -23c22.667 0 41 7.16699 55 21.5
s21 32.166 21 53.499c0 24.667 -7.33301 44.167 -22 58.5s-37 30.5 -67 48.5c-24 14 -43.333 26.667 -58 38s-27.167 26 -37.5 44s-15.5 40 -15.5 66c0 43.333 14.167 78.833 42.5 106.5s68.166 41.5 119.499 41.5c50 0 87.5 -15.833 112.5 -47.5
s37.5 -70.834 37.5 -117.501h-85c0 33.333 -7 57.166 -21 71.499s-31.667 21.5 -53 21.5c-16.667 0 -32.167 -5.83301 -46.5 -17.5s-21.5 -27.167 -21.5 -46.5c0 -24.667 7.16699 -43.667 21.5 -57s36.166 -28 65.499 -44c24 -13.333 43.5 -25.5 58.5 -36.5
s27.833 -26 38.5 -45s16 -42.833 16 -71.5c0 -50 -15.167 -89.167 -45.5 -117.5s-71.5 -42.5 -123.5 -42.5c-30.667 0 -58.5 6.66699 -83.5 20z" />
    <glyph glyph-name="Scircumflex" unicode="&#x15c;" horiz-adv-x="547" 
d="M325 883h78l66 -135h-77l-33 79l-56 -79h-83zM91 40.5c-38.667 35 -57.998 84.1641 -57.998 147.497c0 20 1 35.333 3 46h91c-3.33301 -18.667 -5 -34.334 -5 -47.001c0 -40 11.667 -69.667 35 -89s56.333 -29 99 -29c35.333 0 67.833 9.33301 97.5 28
s44.5 49.667 44.5 93c0 22 -5.83301 40.667 -17.5 56s-26.167 28 -43.5 38s-41 22 -71 36c-35.333 15.333 -64 29.833 -86 43.5s-40.667 31.834 -56 54.501s-23 50.667 -23 84c0 62.667 18.667 111 56 145s89.666 51 156.999 51c74.667 0 128.667 -19.167 162 -57.5
s50 -90.166 50 -155.499h-91c0 88 -42 132 -126 132c-28 0 -54.5 -7.16699 -79.5 -21.5s-37.5 -42.166 -37.5 -83.499c0 -20 5.5 -37 16.5 -51s24.833 -25.667 41.5 -35s39.667 -20.333 69 -33c36 -15.333 65.5 -29.833 88.5 -43.5s42.5 -32.5 58.5 -56.5s24 -54 24 -90
c0 -35.333 -7.16699 -69.166 -21.5 -101.499s-39.5 -59.333 -75.5 -81s-84 -32.5 -144 -32.5c-66.667 0 -119.334 17.5 -158.001 52.5z" />
    <glyph glyph-name="scircumflex" unicode="&#x15d;" horiz-adv-x="410" 
d="M226 723h78l66 -135h-78l-32 79l-56 -79h-83zM102.5 8c-25 13.333 -44.8311 32.3359 -59.498 57.0029s-22 53 -22 85c0 14 0.666992 24.667 2 32h85c-2 -10.667 -3 -21.334 -3 -32.001c0 -29.333 8.33301 -51.666 25 -66.999s38 -23 64 -23c22.667 0 41 7.16699 55 21.5
s21 32.166 21 53.499c0 24.667 -7.33301 44.167 -22 58.5s-37 30.5 -67 48.5c-24 14 -43.333 26.667 -58 38s-27.167 26 -37.5 44s-15.5 40 -15.5 66c0 43.333 14.167 78.833 42.5 106.5s68.166 41.5 119.499 41.5c50 0 87.5 -15.833 112.5 -47.5
s37.5 -70.834 37.5 -117.501h-85c0 33.333 -7 57.166 -21 71.499s-31.667 21.5 -53 21.5c-16.667 0 -32.167 -5.83301 -46.5 -17.5s-21.5 -27.167 -21.5 -46.5c0 -24.667 7.16699 -43.667 21.5 -57s36.166 -28 65.499 -44c24 -13.333 43.5 -25.5 58.5 -36.5
s27.833 -26 38.5 -45s16 -42.833 16 -71.5c0 -50 -15.167 -89.167 -45.5 -117.5s-71.5 -42.5 -123.5 -42.5c-30.667 0 -58.5 6.66699 -83.5 20z" />
    <glyph glyph-name="Scedilla" unicode="&#x15e;" horiz-adv-x="547" 
d="M134 -174l7.00195 49.001h76c13.333 0 23.333 2.16699 30 6.5s10 12.166 10 23.499c0 12 -10.333 18 -31 18h-33l19 67c-55.333 6 -99 26.167 -131 60.5s-48 80.166 -48 137.499c0 20 1 35.333 3 46h91c-3.33301 -18.667 -5 -34.334 -5 -47.001
c0 -40 11.667 -69.667 35 -89s56.333 -29 99 -29c35.333 0 67.833 9.33301 97.5 28s44.5 49.667 44.5 93c0 22 -5.83301 40.667 -17.5 56s-26.167 28 -43.5 38s-41 22 -71 36c-35.333 15.333 -64 29.833 -86 43.5s-40.667 31.834 -56 54.501s-23 50.667 -23 84
c0 62.667 18.667 111 56 145s89.666 51 156.999 51c74.667 0 128.667 -19.167 162 -57.5s50 -90.166 50 -155.499h-91c0 88 -42 132 -126 132c-28 0 -54.5 -7.16699 -79.5 -21.5s-37.5 -42.166 -37.5 -83.499c0 -20 5.5 -37 16.5 -51s24.833 -25.667 41.5 -35
s39.667 -20.333 69 -33c36 -15.333 65.5 -29.833 88.5 -43.5s42.5 -32.5 58.5 -56.5s24 -54 24 -90c0 -54.667 -17 -103.334 -51 -146.001s-91.333 -65.667 -172 -69l-7 -24c48.667 -4 73 -22 73 -54c0 -34 -12.167 -57.833 -36.5 -71.5s-50.833 -20.5 -79.5 -20.5
c-30.667 0 -58.334 2.66699 -83.001 8z" />
    <glyph glyph-name="scedilla" unicode="&#x15f;" horiz-adv-x="410" 
d="M58 -174l6.00391 49.0039h77c13.333 0 23.333 2.16699 30 6.5s10 12.166 10 23.499c0 12 -10.333 18 -31 18h-33l21 71c-34.667 9.33301 -62.834 27.833 -84.501 55.5s-32.5 61.167 -32.5 100.5c0 14 0.666992 24.667 2 32h85c-2 -10.667 -3 -21.334 -3 -32.001
c0 -29.333 8.33301 -51.666 25 -66.999s38 -23 64 -23c22.667 0 41 7.16699 55 21.5s21 32.166 21 53.499c0 24.667 -7.33301 44.167 -22 58.5s-37 30.5 -67 48.5c-24 14 -43.333 26.667 -58 38s-27.167 26 -37.5 44s-15.5 40 -15.5 66c0 43.333 14.167 78.833 42.5 106.5
s68.166 41.5 119.499 41.5c50 0 87.5 -15.833 112.5 -47.5s37.5 -70.834 37.5 -117.501h-85c0 33.333 -7 57.166 -21 71.499s-31.667 21.5 -53 21.5c-16.667 0 -32.167 -5.83301 -46.5 -17.5s-21.5 -27.167 -21.5 -46.5c0 -24.667 7.16699 -43.667 21.5 -57
s36.166 -28 65.499 -44c24 -13.333 43.5 -25.5 58.5 -36.5s27.833 -26 38.5 -45s16 -42.833 16 -71.5c0 -49.333 -14.667 -88 -44 -116s-69.333 -42.667 -120 -44l-7 -24c48.667 -4 73 -22 73 -54c0 -34 -12.167 -57.833 -36.5 -71.5s-50.833 -20.5 -79.5 -20.5
c-30.667 0 -58.334 2.66699 -83.001 8z" />
    <glyph glyph-name="Scaron" unicode="&#x160;" horiz-adv-x="547" 
d="M241 883h80l33 -79l53 79h83l-105 -135h-78zM91 40.5c-38.667 35 -57.998 84.1641 -57.998 147.497c0 20 1 35.333 3 46h91c-3.33301 -18.667 -5 -34.334 -5 -47.001c0 -40 11.667 -69.667 35 -89s56.333 -29 99 -29c35.333 0 67.833 9.33301 97.5 28
s44.5 49.667 44.5 93c0 22 -5.83301 40.667 -17.5 56s-26.167 28 -43.5 38s-41 22 -71 36c-35.333 15.333 -64 29.833 -86 43.5s-40.667 31.834 -56 54.501s-23 50.667 -23 84c0 62.667 18.667 111 56 145s89.666 51 156.999 51c74.667 0 128.667 -19.167 162 -57.5
s50 -90.166 50 -155.499h-91c0 88 -42 132 -126 132c-28 0 -54.5 -7.16699 -79.5 -21.5s-37.5 -42.166 -37.5 -83.499c0 -20 5.5 -37 16.5 -51s24.833 -25.667 41.5 -35s39.667 -20.333 69 -33c36 -15.333 65.5 -29.833 88.5 -43.5s42.5 -32.5 58.5 -56.5s24 -54 24 -90
c0 -35.333 -7.16699 -69.166 -21.5 -101.499s-39.5 -59.333 -75.5 -81s-84 -32.5 -144 -32.5c-66.667 0 -119.334 17.5 -158.001 52.5z" />
    <glyph glyph-name="scaron" unicode="&#x161;" horiz-adv-x="410" 
d="M142 723h80l33 -79l53 79h83l-105 -135h-78zM102.5 8c-25 13.333 -44.8311 32.3359 -59.498 57.0029s-22 53 -22 85c0 14 0.666992 24.667 2 32h85c-2 -10.667 -3 -21.334 -3 -32.001c0 -29.333 8.33301 -51.666 25 -66.999s38 -23 64 -23c22.667 0 41 7.16699 55 21.5
s21 32.166 21 53.499c0 24.667 -7.33301 44.167 -22 58.5s-37 30.5 -67 48.5c-24 14 -43.333 26.667 -58 38s-27.167 26 -37.5 44s-15.5 40 -15.5 66c0 43.333 14.167 78.833 42.5 106.5s68.166 41.5 119.499 41.5c50 0 87.5 -15.833 112.5 -47.5
s37.5 -70.834 37.5 -117.501h-85c0 33.333 -7 57.166 -21 71.499s-31.667 21.5 -53 21.5c-16.667 0 -32.167 -5.83301 -46.5 -17.5s-21.5 -27.167 -21.5 -46.5c0 -24.667 7.16699 -43.667 21.5 -57s36.166 -28 65.499 -44c24 -13.333 43.5 -25.5 58.5 -36.5
s27.833 -26 38.5 -45s16 -42.833 16 -71.5c0 -50 -15.167 -89.167 -45.5 -117.5s-71.5 -42.5 -123.5 -42.5c-30.667 0 -58.5 6.66699 -83.5 20z" />
    <glyph glyph-name="uni0162" unicode="&#x162;" horiz-adv-x="501" 
d="M251 606h-187l12 80h462l-12 -80h-187l-85 -606h-88zM182 -151h-35l14 91h85l-13 -84l-35 -76h-48z" />
    <glyph glyph-name="uni0163" unicode="&#x163;" horiz-adv-x="228" 
d="M53 13.5c-12.667 15.667 -18.999 36.167 -18.999 61.5c0 10.667 7.33301 67.167 22 169.5l30 208.5h-45l10 73h45l21 146h86l-25 -146h71l-10 -73h-71l-29 -200.5c-14 -97.667 -21 -149.167 -21 -154.5c0 -24.667 12.333 -37 37 -37h29l-8 -57
c-8 -4 -17.667 -7.33301 -29 -10s-22 -4 -32 -4c-28.667 0 -49.334 7.83301 -62.001 23.5zM80.001 -151h-35l14 91h85l-13 -84l-35 -76h-48z" />
    <glyph glyph-name="Tcaron" unicode="&#x164;" horiz-adv-x="501" 
d="M209 883h80l33 -79l53 79h83l-105 -135h-78zM251 606h-187l12 80h462l-12 -80h-187l-85 -606h-88z" />
    <glyph glyph-name="tcaron" unicode="&#x165;" horiz-adv-x="290" 
d="M327 578h-34l16 108h99l-13 -99l-64 -133h-56zM53 13.5c-12.667 15.667 -18.999 36.167 -18.999 61.5c0 10.667 7.33301 67.167 22 169.5l30 208.5h-45l10 73h45l21 146h86l-25 -146h71l-10 -73h-71l-29 -200.5c-14 -97.667 -21 -149.167 -21 -154.5
c0 -24.667 12.333 -37 37 -37h29l-8 -57c-8 -4 -17.667 -7.33301 -29 -10s-22 -4 -32 -4c-28.667 0 -49.334 7.83301 -62.001 23.5z" />
    <glyph glyph-name="Tbar" unicode="&#x166;" horiz-adv-x="501" 
d="M211 321h-119l11 72h118l30 213h-187l12 80h462l-12 -80h-187l-30 -213h130l-10 -72h-130l-45 -321h-88z" />
    <glyph glyph-name="tbar" unicode="&#x167;" horiz-adv-x="228" 
d="M53 13.5c-12.667 15.667 -18.999 36.165 -18.999 61.498c0 8.66699 9 77.334 27 206.001h-42l10 72h42l15 100h-45l10 73h45l21 146h86l-25 -146h71l-10 -73h-71l-15 -100h67l-11 -72h-66c-2 -12.667 -4 -27.167 -6 -43.5s-4.66699 -34.166 -8 -53.499l-11 -86
c0 -24.667 12.333 -37 37 -37h29l-8 -57c-8 -4 -17.667 -7.33301 -29 -10s-22 -4 -32 -4c-28.667 0 -49.334 7.83301 -62.001 23.5z" />
    <glyph glyph-name="Utilde" unicode="&#x168;" horiz-adv-x="592" 
d="M248.5 851c16.333 21.333 37.834 32 64.501 32c10 0 19.667 -1.33301 29 -4s19.666 -6.66699 30.999 -12c22.667 -10 40.667 -15 54 -15c20.667 0 33.667 10.333 39 31h58c-4 -26.667 -14.333 -50.667 -31 -72s-38.334 -32 -65.001 -32c-10 0 -19.667 1.33301 -29 4
s-19.666 6.66699 -30.999 12c-22.667 10 -40.667 15 -54 15c-20.667 0 -33.667 -10.333 -39 -31h-57c4 26.667 14.167 50.667 30.5 72zM111.001 35.5c-36 31.667 -54 77.499 -54 137.499c0 19.333 9.83301 97.333 29.5 234l40.5 279h88l-40 -281
c-19.333 -137.333 -29 -210.666 -29 -219.999c0 -38 10.5 -66.833 31.5 -86.5s50.5 -29.5 88.5 -29.5c43.333 0 79 12.833 107 38.5s45.333 62.5 52 110.5l66 468h88l-66 -463c-10.667 -76.667 -37.5 -135 -80.5 -175s-99.167 -60 -168.5 -60c-66 0 -117 15.833 -153 47.5z
" />
    <glyph glyph-name="utilde" unicode="&#x169;" 
d="M160.5 691.5c16.333 21 37.832 31.5 64.499 31.5c10 0 19.667 -1.33301 29 -4s19.666 -6.66699 30.999 -12c22.667 -10 40.667 -15 54 -15c20.667 0 33.334 10.333 38.001 31h59c-4 -26.667 -14.5 -50.667 -31.5 -72s-38.5 -32 -64.5 -32
c-10.667 0 -20.667 1.33301 -30 4s-19.666 6.66699 -30.999 12c-21.333 10 -39 15 -53 15c-20.667 0 -33.667 -10.333 -39 -31h-58c4.66699 27.333 15.167 51.5 31.5 72.5zM68.999 21.5c-18 22.333 -27 50.501 -27 84.501c0 13.333 7.83301 76.5 23.5 189.5l32.5 230.5h82
c-6 -38.667 -16.5 -111.834 -31.5 -219.501s-22.5 -168.167 -22.5 -181.5c0 -42.667 20 -64 60 -64c32.667 0 59.834 15.5 81.501 46.5s36.167 72.5 43.5 124.5l41 294h82l-74 -526h-64v77c-11.333 -22 -28.333 -42.333 -51 -61s-52.334 -28 -89.001 -28
c-40 0 -69 11.167 -87 33.5z" />
    <glyph glyph-name="Umacron" unicode="&#x16a;" horiz-adv-x="592" 
d="M245 831h250l-11 -72h-250zM111 35.5c-36 31.667 -54 77.499 -54 137.499c0 19.333 9.83301 97.333 29.5 234l40.5 279h88l-40 -281c-19.333 -137.333 -29 -210.666 -29 -219.999c0 -38 10.5 -66.833 31.5 -86.5s50.5 -29.5 88.5 -29.5c43.333 0 79 12.833 107 38.5
s45.333 62.5 52 110.5l66 468h88l-66 -463c-10.667 -76.667 -37.5 -135 -80.5 -175s-99.167 -60 -168.5 -60c-66 0 -117 15.833 -153 47.5z" />
    <glyph glyph-name="umacron" unicode="&#x16b;" 
d="M157 671h250l-11 -72h-250zM69 21.5c-18 22.333 -27 50.501 -27 84.501c0 13.333 7.83301 76.5 23.5 189.5l32.5 230.5h82c-6 -38.667 -16.5 -111.834 -31.5 -219.501s-22.5 -168.167 -22.5 -181.5c0 -42.667 20 -64 60 -64c32.667 0 59.834 15.5 81.501 46.5
s36.167 72.5 43.5 124.5l41 294h82l-74 -526h-64v77c-11.333 -22 -28.333 -42.333 -51 -61s-52.334 -28 -89.001 -28c-40 0 -69 11.167 -87 33.5z" />
    <glyph glyph-name="Ubreve" unicode="&#x16c;" horiz-adv-x="592" 
d="M287.5 812.5c-21 17.667 -31.5 38.167 -31.5 61.5c0 4 0.333008 7 1 9h64c0.666992 -8 6.16699 -15.5 16.5 -22.5s23.166 -10.5 38.499 -10.5c16 0 30.167 3.5 42.5 10.5s19.5 14.5 21.5 22.5h64c-2 -15.333 -9 -30.5 -21 -45.5s-27.667 -27.333 -47 -37
s-40.666 -14.5 -63.999 -14.5c-35.333 0 -63.5 8.83301 -84.5 26.5zM111 35.5c-36 31.667 -54 77.499 -54 137.499c0 19.333 9.83301 97.333 29.5 234l40.5 279h88l-40 -281c-19.333 -137.333 -29 -210.666 -29 -219.999c0 -38 10.5 -66.833 31.5 -86.5
s50.5 -29.5 88.5 -29.5c43.333 0 79 12.833 107 38.5s45.333 62.5 52 110.5l66 468h88l-66 -463c-10.667 -76.667 -37.5 -135 -80.5 -175s-99.167 -60 -168.5 -60c-66 0 -117 15.833 -153 47.5z" />
    <glyph glyph-name="ubreve" unicode="&#x16d;" 
d="M199.5 652.5c-21 17.667 -31.5 38.167 -31.5 61.5c0 4 0.333008 7 1 9h64c0.666992 -8 6.16699 -15.5 16.5 -22.5s23.166 -10.5 38.499 -10.5c16 0 30.167 3.5 42.5 10.5s19.5 14.5 21.5 22.5h64c-2 -15.333 -9 -30.5 -21 -45.5s-27.667 -27.333 -47 -37
s-40.666 -14.5 -63.999 -14.5c-35.333 0 -63.5 8.83301 -84.5 26.5zM69 21.5c-18 22.333 -27 50.501 -27 84.501c0 13.333 7.83301 76.5 23.5 189.5l32.5 230.5h82c-6 -38.667 -16.5 -111.834 -31.5 -219.501s-22.5 -168.167 -22.5 -181.5c0 -42.667 20 -64 60 -64
c32.667 0 59.834 15.5 81.501 46.5s36.167 72.5 43.5 124.5l41 294h82l-74 -526h-64v77c-11.333 -22 -28.333 -42.333 -51 -61s-52.334 -28 -89.001 -28c-40 0 -69 11.167 -87 33.5z" />
    <glyph glyph-name="Uring" unicode="&#x16e;" horiz-adv-x="592" 
d="M300.5 738.5c-16.333 15.667 -24.501 35.833 -24.501 60.5c0 28 10 51.333 30 70s43 28 69 28c24.667 0 45.167 -8 61.5 -24s24.5 -36 24.5 -60c0 -27.333 -9.66699 -50.5 -29 -69.5s-42.333 -28.5 -69 -28.5c-25.333 0 -46.166 7.83301 -62.499 23.5zM401.999 770.499
c10 10.333 15.001 23.5 15.001 39.5c0 12.667 -4.33301 23.667 -13 33s-19 14 -31 14c-14.667 0 -27 -5.16699 -37 -15.5s-15 -23.5 -15 -39.5c0 -12.667 4.16699 -23.667 12.5 -33s19.166 -14 32.499 -14c14 0 26 5.16699 36 15.5zM111 35.499
c-36 31.667 -54 77.499 -54 137.499c0 19.333 9.83301 97.333 29.5 234l40.5 279h88l-40 -281c-19.333 -137.333 -29 -210.666 -29 -219.999c0 -38 10.5 -66.833 31.5 -86.5s50.5 -29.5 88.5 -29.5c43.333 0 79 12.833 107 38.5s45.333 62.5 52 110.5l66 468h88l-66 -463
c-10.667 -76.667 -37.5 -135 -80.5 -175s-99.167 -60 -168.5 -60c-66 0 -117 15.833 -153 47.5z" />
    <glyph glyph-name="uring" unicode="&#x16f;" 
d="M212.5 578.5c-16.333 15.667 -24.5 35.833 -24.5 60.5c0 28 9.83301 51.333 29.5 70s42.834 28 69.501 28c24.667 0 45.167 -8 61.5 -24s24.5 -36 24.5 -60c0 -27.333 -9.83301 -50.5 -29.5 -69.5s-42.834 -28.5 -69.501 -28.5c-24.667 0 -45.167 7.83301 -61.5 23.5z
M313.5 610.499c10.333 10.333 15.5 23.5 15.5 39.5c0 12.667 -4.33301 23.667 -13 33s-19.334 14 -32.001 14c-14.667 0 -27 -5.16699 -37 -15.5s-15 -23.5 -15 -39.5c0 -12.667 4.33301 -23.667 13 -33s19.334 -14 32.001 -14c14 0 26.167 5.16699 36.5 15.5zM69 21.499
c-18 22.333 -27 50.501 -27 84.501c0 13.333 7.83301 76.5 23.5 189.5l32.5 230.5h82c-6 -38.667 -16.5 -111.834 -31.5 -219.501s-22.5 -168.167 -22.5 -181.5c0 -42.667 20 -64 60 -64c32.667 0 59.834 15.5 81.501 46.5s36.167 72.5 43.5 124.5l41 294h82l-74 -526h-64
v77c-11.333 -22 -28.333 -42.333 -51 -61s-52.334 -28 -89.001 -28c-40 0 -69 11.167 -87 33.5z" />
    <glyph glyph-name="Uhungarumlaut" unicode="&#x170;" horiz-adv-x="592" 
d="M293 883h90l2 -3l-84 -129h-70zM423 883h91l1 -3l-84 -129h-70zM111 35.5c-36 31.667 -54 77.499 -54 137.499c0 19.333 9.83301 97.333 29.5 234l40.5 279h88l-40 -281c-19.333 -137.333 -29 -210.666 -29 -219.999c0 -38 10.5 -66.833 31.5 -86.5
s50.5 -29.5 88.5 -29.5c43.333 0 79 12.833 107 38.5s45.333 62.5 52 110.5l66 468h88l-66 -463c-10.667 -76.667 -37.5 -135 -80.5 -175s-99.167 -60 -168.5 -60c-66 0 -117 15.833 -153 47.5z" />
    <glyph glyph-name="uhungarumlaut" unicode="&#x171;" 
d="M205 723h90l1 -3l-84 -129h-69zM335 723h90l1 -3l-84 -129h-69zM69 21.5c-18 22.333 -27 50.501 -27 84.501c0 13.333 7.83301 76.5 23.5 189.5l32.5 230.5h82c-6 -38.667 -16.5 -111.834 -31.5 -219.501s-22.5 -168.167 -22.5 -181.5c0 -42.667 20 -64 60 -64
c32.667 0 59.834 15.5 81.501 46.5s36.167 72.5 43.5 124.5l41 294h82l-74 -526h-64v77c-11.333 -22 -28.333 -42.333 -51 -61s-52.334 -28 -89.001 -28c-40 0 -69 11.167 -87 33.5z" />
    <glyph glyph-name="Uogonek" unicode="&#x172;" horiz-adv-x="592" 
d="M579 686l-65.999 -462.999c-8 -56 -24.833 -102.5 -50.5 -139.5s-58.834 -63.167 -99.501 -78.5c-10.667 -10.667 -20.167 -23.5 -28.5 -38.5s-12.5 -29.833 -12.5 -44.5c0 -12.667 3 -22.834 9 -30.501s15.667 -11.5 29 -11.5h32l-7 -51
c-22.667 -9.33301 -43.667 -14 -63 -14c-23.333 0 -42.833 6.16699 -58.5 18.5s-23.5 32.5 -23.5 60.5c0 35.333 13.667 66.666 41 93.999h-17c-66 0 -117 15.833 -153 47.5s-54 77.5 -54 137.5c0 19.333 9.83301 97.333 29.5 234l40.5 279h88l-40 -281
c-19.333 -137.333 -29 -210.666 -29 -219.999c0 -38 10.5 -66.833 31.5 -86.5s50.5 -29.5 88.5 -29.5c43.333 0 79 12.833 107 38.5s45.333 62.5 52 110.5l66 468h88z" />
    <glyph glyph-name="uogonek" unicode="&#x173;" 
d="M328 -113.5c6 -7.66699 15.667 -11.498 29 -11.498h32l-7 -51c-22.667 -9.33301 -43.667 -14 -63 -14c-23.333 0 -42.833 6.16699 -58.5 18.5s-23.5 32.5 -23.5 60.5c0 24 5.16699 44.333 15.5 61s24.833 33.667 43.5 51v76c-11.333 -22 -28.333 -42.333 -51 -61
s-52.334 -28 -89.001 -28c-40 0 -69 11.167 -87 33.5s-27 50.5 -27 84.5c0 13.333 7.83301 76.5 23.5 189.5l32.5 230.5h82c-6 -38.667 -16.5 -111.834 -31.5 -219.501s-22.5 -168.167 -22.5 -181.5c0 -42.667 20 -64 60 -64c32.667 0 59.834 15.5 81.501 46.5
s36.167 72.5 43.5 124.5l41 294h82l-74 -526c-10.667 -10.667 -20.167 -23.5 -28.5 -38.5s-12.5 -29.833 -12.5 -44.5c0 -12.667 3 -22.834 9 -30.501z" />
    <glyph glyph-name="Wcircumflex" unicode="&#x174;" horiz-adv-x="774" 
d="M437 883h78l66 -135h-78l-32 79l-56 -79h-83zM77 686h89l39 -474c1.33301 -16.667 2.33301 -39 3 -67s1 -46.333 1 -55h4l12 44.5c6 22.333 13.333 48.166 22 77.499l144 474h127l17 -474c0.666992 -21.333 1 -44.5 1 -69.5v-52.5h4l16 53.5c8 27 15.333 49.833 22 68.5
l171 474h82l-256 -686h-114l-15 461l-5 142h-5c-2 -10 -6.83301 -30.667 -14.5 -62s-14.5 -56.666 -20.5 -75.999l-148 -465h-114z" />
    <glyph glyph-name="wcircumflex" unicode="&#x175;" horiz-adv-x="592" 
d="M324 723h78l66 -135h-77l-33 79l-56 -79h-83zM43 526h79l30 -296c5.33301 -50 8.33301 -95.667 9 -137h4c1.33301 9.33301 5 28.833 11 58.5s12.667 55.834 20 78.501l94 296h98l14 -296c0.666992 -8 1 -53.667 1 -137h4c1.33301 8.66699 5.5 27.5 12.5 56.5
s15.167 55.833 24.5 80.5l111 296h77l-204 -526h-91l-14 342c0 17.333 0.5 36.166 1.5 56.499s1.83301 33.5 2.5 39.5h-4c-1.33301 -9.33301 -5.33301 -29 -12 -59s-13.667 -56.333 -21 -79l-97 -300h-92z" />
    <glyph glyph-name="Ycircumflex" unicode="&#x176;" horiz-adv-x="547" 
d="M324 883h78l66 -135h-77l-33 79l-56 -79h-83zM235 284l-165 402h96l125 -318h4l214 318h92l-278 -402l-40 -284h-88z" />
    <glyph glyph-name="ycircumflex" unicode="&#x177;" horiz-adv-x="410" 
d="M240 723h78l66 -135h-77l-33 79l-56 -79h-83zM-22 -174l8 57h28c53.333 0 93.333 39 120 117l-87 526h87l45 -317l15 -103h4l40 103l122 317h88l-214 -499c-28.667 -66 -58.5 -117.333 -89.5 -154s-67.5 -55 -109.5 -55c-24.667 0 -43.667 2.66699 -57 8z" />
    <glyph glyph-name="Ydieresis" unicode="&#x178;" horiz-adv-x="547" 
d="M250 883h86l-13 -95h-87zM399 883h87l-13 -95h-87zM235 284l-165 402h96l125 -318h4l214 318h92l-278 -402l-40 -284h-88z" />
    <glyph glyph-name="Zacute" unicode="&#x179;" horiz-adv-x="501" 
d="M354 883h91l1 -3l-108 -129h-69zM-13 38l401 568h-302l12 80h428l-3 -38l-402 -568h330l-12 -80h-455z" />
    <glyph glyph-name="zacute" unicode="&#x17a;" horiz-adv-x="410" 
d="M292 723h91l1 -3l-108 -129h-69zM5 39l284 414h-211l10 73h326l-3 -38l-285 -415h240l-10 -73h-354z" />
    <glyph glyph-name="Zdotaccent" unicode="&#x17b;" horiz-adv-x="501" 
d="M296 883h87l-13 -95h-87zM-13 38l401 568h-302l12 80h428l-3 -38l-402 -568h330l-12 -80h-455z" />
    <glyph glyph-name="zdotaccent" unicode="&#x17c;" horiz-adv-x="410" 
d="M234 723h87l-13 -95h-87zM5 39l284 414h-211l10 73h326l-3 -38l-285 -415h240l-10 -73h-354z" />
    <glyph glyph-name="Zcaron" unicode="&#x17d;" horiz-adv-x="501" 
d="M214 883h79l34 -79l52 79h83l-105 -135h-77zM-13 38l401 568h-302l12 80h428l-3 -38l-402 -568h330l-12 -80h-455z" />
    <glyph glyph-name="zcaron" unicode="&#x17e;" horiz-adv-x="410" 
d="M152 723h79l34 -79l52 79h83l-105 -135h-77zM5 39l284 414h-211l10 73h326l-3 -38l-285 -415h240l-10 -73h-354z" />
    <glyph glyph-name="longs" unicode="&#x17f;" horiz-adv-x="182" 
d="M-89 -170l7.99707 56.999h44c31.333 0 49 16 53 48l68 518h-46l10 73h46l12 84c4.66699 34.667 16.834 63.5 36.501 86.5s47.834 34.5 84.501 34.5c23.333 0 45.666 -4 66.999 -12l-8 -57h-44c-15.333 0 -27.666 -4.16699 -36.999 -12.5s-15 -20.166 -17 -35.499
l-90 -675c-4.66699 -34 -16.667 -62.667 -36 -86s-47.333 -35 -84 -35c-23.333 0 -45.666 4 -66.999 12z" />
    <glyph glyph-name="florin" unicode="&#x192;" 
d="M25 -178.5c-12 2.33301 -21.667 5.16699 -29 8.5l10 57h44c16 0 29 4.16699 39 12.5s16 20.166 18 35.499l100 467h-71l17 73h71l30 135c8.66699 38.667 23 68.5 43 89.5s49 31.5 87 31.5c22.667 0 44.667 -4 66 -12l-12 -57h-44c-16 0 -29 -4.16699 -39 -12.5
s-16 -20.166 -18 -35.499l-31 -139h91l-17 -73h-91l-99 -463c-8 -38.667 -22.167 -68.5 -42.5 -89.5s-49.5 -31.5 -87.5 -31.5c-11.333 0 -23 1.16699 -35 3.5z" />
    <glyph glyph-name="Aringacute" unicode="&#x1fa;" horiz-adv-x="547" 
d="M409 957h90l1 -3l-92 -106h-70zM268 663c-16.667 15.333 -25 35.334 -25 60.001c0 28 10 51.333 30 70s43 28 69 28c24.667 0 45.167 -8 61.5 -24s24.5 -36 24.5 -60c0 -14 -3 -27.333 -9 -40s-14 -23.334 -24 -32.001l117 -665h-91l-26 153h-275l-69 -153h-87z
M369 694.501c10 10.333 15.002 23.5 15.002 39.5c0 12.667 -4.33301 23.667 -13 33s-19.334 14 -32.001 14c-14 0 -26 -5.16699 -36 -15.5s-15 -23.5 -15 -39.5c0 -12.667 4.16699 -23.667 12.5 -33s19.166 -14 32.499 -14c14 0 26 5.16699 36 15.5zM382.002 233.001
l-51 305c-1.33301 9.33301 -2.5 22.833 -3.5 40.5s-1.5 29.5 -1.5 35.5h-4c-2 -6 -6.16699 -17.833 -12.5 -35.5s-11.5 -31.167 -15.5 -40.5l-138 -305h226z" />
    <glyph glyph-name="aringacute" unicode="&#x1fb;" 
d="M355 883h91l1 -3l-98 -113h-69zM212.5 578.5c-16.333 15.667 -24.5 35.833 -24.5 60.5c0 28 9.83301 51.333 29.5 70s42.834 28 69.501 28c24.667 0 45.167 -8 61.5 -24s24.5 -36 24.5 -60c0 -27.333 -9.83301 -50.5 -29.5 -69.5s-42.834 -28.5 -69.501 -28.5
c-24.667 0 -45.167 7.83301 -61.5 23.5zM313.5 610.499c10.333 10.333 15.5 23.5 15.5 39.5c0 12.667 -4.33301 23.667 -13 33s-19.334 14 -32.001 14c-14.667 0 -27 -5.16699 -37 -15.5s-15 -23.5 -15 -39.5c0 -12.667 4.33301 -23.667 13 -33s19.334 -14 32.001 -14
c14 0 26.167 5.16699 36.5 15.5zM69 36.999c-24 32.667 -35.9971 81.333 -35.9971 146c0 76.667 9.83301 141.667 29.5 195s45 93.333 76 120s63.5 40 97.5 40c55.333 0 91.666 -28.333 108.999 -85l18 73h65l-35.5 -248c-17 -120.667 -25.5 -183.667 -25.5 -189
c0 -9.33301 2.16699 -16.333 6.5 -21s10.166 -7 17.499 -7h32l-8 -57c-15.333 -10.667 -34 -16 -56 -16s-39.333 6.66699 -52 20s-19.334 34.333 -20.001 63c-19.333 -28.667 -38.5 -49.667 -57.5 -63s-40.167 -20 -63.5 -20c-40.667 0 -73 16.333 -97 49zM262.503 112.998
c19 34.667 32.835 74.835 41.502 120.502s13 85.167 13 118.5c0 75.333 -23 113 -69 113c-32.667 0 -58.834 -16.833 -78.501 -50.5s-33.334 -72.834 -41.001 -117.501s-11.5 -85.334 -11.5 -122.001c0 -76 24.667 -114 74 -114c28.667 0 52.5 17.333 71.5 52z" />
    <glyph glyph-name="AEacute" unicode="&#x1fc;" horiz-adv-x="820" 
d="M442 883h91l1 -3l-108 -129h-70zM331 686h499l-12 -80h-367l18 -215h275l-11 -80h-258l20 -231h256l-12 -80h-329l-13 153h-269l-79 -153h-92zM391 233l-24 293c-1.33301 14.667 -2.33301 29.5 -3 44.5s-1 25.5 -1 31.5h-4l-14.5 -32c-7 -15.333 -14.167 -30 -21.5 -44
l-153 -293h221z" />
    <glyph glyph-name="aeacute" unicode="&#x1fd;" horiz-adv-x="729" 
d="M445 723h91l1 -3l-108 -129h-70zM26 113c0 76 25.999 128.167 77.999 156.5s123.667 42.5 215 42.5l10 68c1.33301 10.667 2 18.334 2 23.001c0 20 -5.5 35.333 -16.5 46s-29.833 16 -56.5 16c-29.333 0 -51.666 -8.83301 -66.999 -26.5s-24.333 -40.5 -27 -68.5h-81
c0 51.333 17.5 92.166 52.5 122.499s79.5 45.5 133.5 45.5c62 0 104.333 -18.667 127 -56c36 37.333 81 56 135 56c108 0 162 -63 162 -189c0 -39.333 -2.66699 -76 -8 -110h-289c-2 -20.667 -3 -38.334 -3 -53.001c0 -83.333 28.333 -125 85 -125
c28.667 0 53.167 11.333 73.5 34s32.833 50.334 37.5 83.001h83c-8.66699 -54.667 -29.834 -100 -63.501 -136s-77.167 -54 -130.5 -54c-73.333 0 -123.333 27.333 -150 82c-19.333 -25.333 -43.666 -45.333 -72.999 -60s-59 -22 -89 -22c-93.333 0 -140 41.667 -140 125z
M606.999 312c0.666992 8.66699 0.998047 20.667 0.998047 36c0 78 -25.667 117 -77 117c-33.333 0 -60.166 -14.5 -80.499 -43.5s-35.166 -65.5 -44.499 -109.5h201zM255.497 93c25 21.333 40.167 51.333 45.5 90l8 56c-64.667 0 -113.5 -7.5 -146.5 -22.5
s-49.5 -44.167 -49.5 -87.5c0 -24 5.16699 -41.333 15.5 -52s25.833 -16 46.5 -16c28.667 0 55.5 10.667 80.5 32z" />
    <glyph glyph-name="Oslashacute" unicode="&#x1fe;" horiz-adv-x="638" 
d="M422 883h90l1 -3l-108 -129h-69zM110 56c-39.333 43.333 -59 106.998 -59 190.998c0 71.333 10.333 141.333 31 210s54.5 126 101.5 172s108.167 69 183.5 69c55.333 0 100.666 -11.333 135.999 -34l38 59h64l-60 -93c40 -45.333 60 -109.666 60 -192.999
c0 -71.333 -10.333 -141.166 -31 -209.499s-54.667 -125.333 -102 -171s-108.666 -68.5 -183.999 -68.5c-54 0 -99.667 11 -137 33l-37 -58h-64zM455 589.998c-22.667 18 -52.333 26.999 -89 26.999c-56 0 -100.667 -19.167 -134 -57.5s-56.833 -85.166 -70.5 -140.499
s-20.5 -112 -20.5 -170c0 -44.667 7.33301 -81.667 22 -111zM423.501 126.497c33.667 38.333 57.167 85.332 70.5 140.999s20 112.167 20 169.5c0 44.667 -7.66699 81.334 -23 110.001l-292 -452c23.333 -17.333 53.333 -26 90 -26c56 0 100.833 19.167 134.5 57.5z" />
    <glyph glyph-name="oslashacute" unicode="&#x1ff;" horiz-adv-x="501" 
d="M307 723h90l1 -3l-107 -129h-70zM95 37c-26 30 -39 75.999 -39 137.999c0 56.667 6.5 112.334 19.5 167.001s36.167 101 69.5 139s78 57 134 57c34 0 63.333 -6.66699 88 -20l23 40h55l-40 -70c26.667 -32 40 -78.333 40 -139c0 -56.667 -6.5 -112.167 -19.5 -166.5
s-36.167 -100.333 -69.5 -138s-78 -56.5 -134 -56.5c-36 0 -65.667 6.33301 -89 19l-22 -39h-55zM328 447.999c-13.333 11.333 -29.668 17.001 -49.001 17.001c-36.667 0 -65.167 -16.833 -85.5 -50.5s-34.166 -71.667 -41.499 -114s-11 -80.5 -11 -114.5
c0 -20.667 1.66699 -40.334 5 -59.001zM307.998 113c20.667 34.667 34.5 73.832 41.5 117.499s10.5 82.834 10.5 117.501c0 17.333 -1.66699 34.333 -5 51l-182 -322c11.333 -10.667 27.666 -16 48.999 -16c36.667 0 65.334 17.333 86.001 52z" />
    <glyph glyph-name="circumflex" unicode="&#x2c6;" horiz-adv-x="273" 
d="M123 723h78l66 -135h-77l-33 79l-56 -79h-83z" />
    <glyph glyph-name="caron" unicode="&#x2c7;" horiz-adv-x="273" 
d="M94 723h80l33 -79l53 79h83l-105 -135h-78z" />
    <glyph glyph-name="uni02C9" unicode="&#x2c9;" horiz-adv-x="500" 
d="M74 844h501l-7 -53h-500z" />
    <glyph glyph-name="breve" unicode="&#x2d8;" horiz-adv-x="273" 
d="M47.5 652.5c-21 17.667 -31.5 38.167 -31.5 61.5c0 4 0.333008 7 1 9h64c0.666992 -8 6.16699 -15.5 16.5 -22.5s23.166 -10.5 38.499 -10.5c16 0 30.167 3.5 42.5 10.5s19.5 14.5 21.5 22.5h64c-2 -15.333 -9 -30.5 -21 -45.5s-27.667 -27.333 -47 -37
s-40.666 -14.5 -63.999 -14.5c-35.333 0 -63.5 8.83301 -84.5 26.5z" />
    <glyph glyph-name="dotaccent" unicode="&#x2d9;" horiz-adv-x="273" 
d="M99 723h87l-13 -95h-87z" />
    <glyph glyph-name="ring" unicode="&#x2da;" horiz-adv-x="273" 
d="M74.5 578.5c-16.333 15.667 -24.5 35.833 -24.5 60.5c0 28 9.83301 51.333 29.5 70s42.834 28 69.501 28c24.667 0 45.167 -8 61.5 -24s24.5 -36 24.5 -60c0 -27.333 -9.83301 -50.5 -29.5 -69.5s-42.834 -28.5 -69.501 -28.5c-24.667 0 -45.167 7.83301 -61.5 23.5z
M175.5 610.499c10.333 10.333 15.5 23.5 15.5 39.5c0 12.667 -4.33301 23.667 -13 33s-19.334 14 -32.001 14c-14.667 0 -27 -5.16699 -37 -15.5s-15 -23.5 -15 -39.5c0 -12.667 4.33301 -23.667 13 -33s19.334 -14 32.001 -14c14 0 26.167 5.16699 36.5 15.5z" />
    <glyph glyph-name="ogonek" unicode="&#x2db;" horiz-adv-x="273" 
d="M93.5 -163.5c-15.667 12.333 -23.499 32.502 -23.499 60.502c0 24.667 5.66699 45.667 17 63s26.666 34.666 45.999 51.999h55l5 -4c-10.667 -10.667 -20.167 -23.5 -28.5 -38.5s-12.5 -29.833 -12.5 -44.5c0 -12.667 3 -22.834 9 -30.501s15.667 -11.5 29 -11.5h32
l-7 -51c-22.667 -9.33301 -43.667 -14 -63 -14c-23.333 0 -42.833 6.16699 -58.5 18.5z" />
    <glyph glyph-name="tilde" unicode="&#x2dc;" horiz-adv-x="273" 
d="M61.5 691c16.333 21.333 37.834 32 64.501 32c10 0 19.667 -1.33301 29 -4s19.666 -6.66699 30.999 -12c22.667 -10 40.667 -15 54 -15c20.667 0 33.667 10.333 39 31h58c-4 -26.667 -14.333 -50.667 -31 -72s-38.334 -32 -65.001 -32c-10 0 -19.667 1.33301 -29 4
s-19.666 6.66699 -30.999 12c-22.667 10 -40.667 15 -54 15c-20.667 0 -33.667 -10.333 -39 -31h-57c4 26.667 14.167 50.667 30.5 72z" />
    <glyph glyph-name="hungarumlaut" unicode="&#x2dd;" horiz-adv-x="273" 
d="M66 723h90l1 -3l-84 -129h-69zM196 723h90l1 -3l-84 -129h-69z" />
    <glyph glyph-name="pi" unicode="&#x3c0;" horiz-adv-x="549" 
d="M109.5 215c25.667 92 43.833 171.333 54.5 238c-50.667 0 -87 -4.33301 -109 -13l-4 56c27.333 20 77 30 149 30h381l-18 -73h-78l-42 -297c-6.66699 -44.667 -10 -84.667 -10 -120c0 -10.667 0.666992 -22.667 2 -36h-80c-3.33301 8 -5 20.667 -5 38
c0 28 3.33301 64.333 10 109l43 306h-157c-13.333 -72.667 -32.833 -156 -58.5 -250s-48.834 -161.667 -69.501 -203h-81c22.667 51.333 46.834 123 72.501 215z" />
    <glyph glyph-name="Wgrave" unicode="&#x1e80;" horiz-adv-x="774" 
d="M361 880l2 3h90l67 -132h-69zM77 686h89l39 -474c1.33301 -16.667 2.33301 -39 3 -67s1 -46.333 1 -55h4l12 44.5c6 22.333 13.333 48.166 22 77.499l144 474h127l17 -474c0.666992 -21.333 1 -44.5 1 -69.5v-52.5h4l16 53.5c8 27 15.333 49.833 22 68.5l171 474h82
l-256 -686h-114l-15 465l-5 138h-5c-2 -10 -6.83301 -30.667 -14.5 -62s-14.5 -56.666 -20.5 -75.999l-148 -465h-114z" />
    <glyph glyph-name="wgrave" unicode="&#x1e81;" horiz-adv-x="592" 
d="M248 720l2 3h90l67 -132h-69zM43 526h79l30 -296c5.33301 -50 8.33301 -95.667 9 -137h4c1.33301 9.33301 5 28.833 11 58.5s12.667 55.834 20 78.501l94 296h98l14 -296c0.666992 -8 1 -53.667 1 -137h4c1.33301 8.66699 5.5 27.5 12.5 56.5s15.167 55.833 24.5 80.5
l111 296h77l-204 -526h-91l-14 342c0 17.333 0.5 36.166 1.5 56.499s1.83301 33.5 2.5 39.5h-4c-1.33301 -9.33301 -5.33301 -29 -12 -59s-13.667 -56.333 -21 -79l-97 -300h-92z" />
    <glyph glyph-name="Wacute" unicode="&#x1e82;" horiz-adv-x="774" 
d="M494 883h90l1 -3l-108 -129h-69zM77 686h89l39 -474c1.33301 -16.667 2.33301 -39 3 -67s1 -46.333 1 -55h4l12 44.5c6 22.333 13.333 48.166 22 77.499l144 474h127l17 -474c0.666992 -21.333 1 -44.5 1 -69.5v-52.5h4l16 53.5c8 27 15.333 49.833 22 68.5l171 474h82
l-256 -686h-114l-15 457l-5 146h-5c-2 -10 -6.83301 -30.667 -14.5 -62s-14.5 -56.666 -20.5 -75.999l-148 -465h-114z" />
    <glyph glyph-name="wacute" unicode="&#x1e83;" horiz-adv-x="592" 
d="M381 723h90l1 -3l-108 -129h-69zM43 526h79l30 -296c5.33301 -50 8.33301 -95.667 9 -137h4c1.33301 9.33301 5 28.833 11 58.5s12.667 55.834 20 78.501l94 296h98l14 -296c0.666992 -8 1 -53.667 1 -137h4c1.33301 8.66699 5.5 27.5 12.5 56.5s15.167 55.833 24.5 80.5
l111 296h77l-204 -526h-91l-14 342c0 17.333 0.5 36.166 1.5 56.499s1.83301 33.5 2.5 39.5h-4c-1.33301 -9.33301 -5.33301 -29 -12 -59s-13.667 -56.333 -21 -79l-97 -300h-92z" />
    <glyph glyph-name="Wdieresis" unicode="&#x1e84;" horiz-adv-x="774" 
d="M362 883h87l-13 -95h-87zM512 883h87l-14 -95h-86zM77 686h89l39 -474c1.33301 -16.667 2.33301 -39 3 -67s1 -46.333 1 -55h4l12 44.5c6 22.333 13.333 48.166 22 77.499l144 474h127l17 -474c0.666992 -21.333 1 -44.5 1 -69.5v-52.5h4l16 53.5
c8 27 15.333 49.833 22 68.5l171 474h82l-256 -686h-114l-15 462l-5 141h-5c-2 -10 -6.83301 -30.667 -14.5 -62s-14.5 -56.666 -20.5 -75.999l-148 -465h-114z" />
    <glyph glyph-name="wdieresis" unicode="&#x1e85;" horiz-adv-x="592" 
d="M249 723h87l-13 -95h-87zM399 723h87l-13 -95h-87zM43 526h79l30 -296c5.33301 -50 8.33301 -95.667 9 -137h4c1.33301 9.33301 5 28.833 11 58.5s12.667 55.834 20 78.501l94 296h98l14 -296c0.666992 -8 1 -53.667 1 -137h4c1.33301 8.66699 5.5 27.5 12.5 56.5
s15.167 55.833 24.5 80.5l111 296h77l-204 -526h-91l-14 342c0 17.333 0.5 36.166 1.5 56.499s1.83301 33.5 2.5 39.5h-4c-1.33301 -9.33301 -5.33301 -29 -12 -59s-13.667 -56.333 -21 -79l-97 -300h-92z" />
    <glyph glyph-name="Ygrave" unicode="&#x1ef2;" horiz-adv-x="547" 
d="M249 880l1 3h90l68 -132h-70zM235 284l-165 402h96l125 -318h4l214 318h92l-278 -402l-40 -284h-88z" />
    <glyph glyph-name="ygrave" unicode="&#x1ef3;" horiz-adv-x="410" 
d="M165 720l2 3h89l68 -132h-70zM-22 -174l8 57h28c53.333 0 93.333 39 120 117l-87 526h87l45 -317l15 -103h4l40 103l122 317h88l-214 -499c-28.667 -66 -58.5 -117.333 -89.5 -154s-67.5 -55 -109.5 -55c-24.667 0 -43.667 2.66699 -57 8z" />
    <glyph glyph-name="endash" unicode="&#x2013;" 
d="M5 308h455l-11 -75h-454z" />
    <glyph glyph-name="emdash" unicode="&#x2014;" horiz-adv-x="820" 
d="M5 308h820l-11 -75h-819z" />
    <glyph glyph-name="uni2015" unicode="&#x2015;" horiz-adv-x="820" 
d="M107 308h613l-11 -75h-613z" />
    <glyph glyph-name="underscoredbl" unicode="&#x2017;" horiz-adv-x="500" 
d="M1 -71h455l-8 -53h-455zM-12 -164h455l-8 -53h-455z" />
    <glyph glyph-name="quoteleft" unicode="&#x2018;" horiz-adv-x="182" 
d="M99 553l64 133h55l-51 -124h33l-15 -108h-100z" />
    <glyph glyph-name="quoteright" unicode="&#x2019;" horiz-adv-x="182" 
d="M95 578h-33l15 108h100l-14 -99l-64 -133h-55z" />
    <glyph glyph-name="quotesinglbase" unicode="&#x201a;" horiz-adv-x="182" 
d="M69 0h-33l15 108h100l-14 -99l-64 -133h-55z" />
    <glyph glyph-name="quotereversed" unicode="&#x201b;" horiz-adv-x="182" 
d="M98 587l14 99h100l-15 -108h-33l15 -124h-55z" />
    <glyph glyph-name="quotedblleft" unicode="&#x201c;" horiz-adv-x="273" 
d="M68 553l64 133h55l-51 -124h33l-15 -108h-100zM203 553l64 133h55l-51 -124h33l-15 -108h-100z" />
    <glyph glyph-name="quotedblright" unicode="&#x201d;" horiz-adv-x="273" 
d="M95 578h-33l15 108h100l-14 -99l-64 -133h-55zM230 578h-33l15 108h100l-14 -99l-64 -133h-55z" />
    <glyph glyph-name="quotedblbase" unicode="&#x201e;" horiz-adv-x="273" 
d="M69 0h-33l15 108h100l-14 -99l-64 -133h-55zM204 0h-33l15 108h100l-14 -99l-64 -133h-55z" />
    <glyph glyph-name="dagger" unicode="&#x2020;" 
d="M224 435l-167 -18l13 93l163 -17l10 193h88l-44 -193l168 17l-13 -93l-164 18l-65 -605h-94z" />
    <glyph glyph-name="daggerdbl" unicode="&#x2021;" 
d="M166 23l-166 -17l12 93l163 -18l5 179l44 175l-167 -18l13 93l163 -17l10 193h88l-44 -193l168 17l-13 -93l-164 18l-4 -175l-45 -179l168 18l-13 -93l-164 17l-10 -193h-88z" />
    <glyph glyph-name="bullet" unicode="&#x2022;" horiz-adv-x="287" 
d="M66 265c-21.333 22 -32 48.333 -32 79s10.667 56.834 32 78.501s47 32.5 77 32.5c30.667 0 56.667 -10.833 78 -32.5s32 -47.834 32 -78.501s-10.667 -57 -32 -79s-47.333 -33 -78 -33c-30 0 -55.667 11 -77 33z" />
    <glyph glyph-name="ellipsis" unicode="&#x2026;" horiz-adv-x="820" 
d="M80 108h100l-15 -108h-100zM353 108h100l-15 -108h-100zM625 108h100l-15 -108h-100z" />
    <glyph glyph-name="perthousand" unicode="&#x2030;" horiz-adv-x="820" 
d="M80.5 364.5c-17.667 18.333 -26.5 48.499 -26.5 90.499c0 28 1.33301 51 4 69c7.33301 60.667 23.5 104.834 48.5 132.501s55.167 41.5 90.5 41.5c33.333 0 58.833 -9.33301 76.5 -28s26.5 -49 26.5 -91c0 -28.667 -2.33301 -57.334 -7 -86.001
c-8 -45.333 -22.833 -82.666 -44.5 -111.999s-52.167 -44 -91.5 -44c-33.333 0 -58.833 9.16699 -76.5 27.5zM500 685.999h63l-476 -686h-62zM203 425.499c10 19.667 17.332 47.834 21.999 84.501c4 28 6 51 6 69c0 19.333 -2.83301 34.166 -8.5 44.499
s-15.167 15.5 -28.5 15.5c-33.333 0 -55.666 -38 -66.999 -114c-3.33301 -22.667 -5 -45.667 -5 -69c0 -40 12.667 -60 38 -60c18.667 0 33 9.83301 43 29.5zM315.499 15.499c-17.667 18.333 -26.499 48.499 -26.499 90.499c0 22 1 42.333 3 61
c6.66699 63.333 22.667 109.5 48 138.5s56 43.5 92 43.5c33.333 0 58.833 -9.33301 76.5 -28s26.5 -49 26.5 -91c0 -24 -2 -49.667 -6 -77c-7.33301 -47.333 -21.833 -86.666 -43.5 -117.999s-52.834 -47 -93.501 -47c-33.333 0 -58.833 9.16699 -76.5 27.5zM580.5 15.498
c-17.667 18.333 -26.5 48.501 -26.5 90.501c0 25.333 1.66699 50.666 5 75.999c7.33301 58.667 23.5 101.167 48.5 127.5s54.833 39.5 89.5 39.5c33.333 0 58.833 -9.33301 76.5 -28s26.5 -49 26.5 -91c0 -26 -1.66699 -49.333 -5 -70
c-6.66699 -48.667 -21 -89.5 -43 -122.5s-53.667 -49.5 -95 -49.5c-33.333 0 -58.833 9.16699 -76.5 27.5zM438 76.499c10 19.667 17.333 47.834 22 84.501c4 28 6 51 6 69c0 19.333 -2.83301 34.166 -8.5 44.499s-15.167 15.5 -28.5 15.5c-34 0 -56.667 -39.333 -68 -118
c-2.66699 -23.333 -4 -45 -4 -65c0 -40 12.667 -60 38 -60c18.667 0 33 9.83301 43 29.5zM703 76.499c10 19.667 17.333 47.834 22 84.501c4 28 6 51 6 69c0 19.333 -2.83301 34.166 -8.5 44.499s-15.167 15.5 -28.5 15.5c-18 0 -32.5 -10.667 -43.5 -32
s-18.833 -48 -23.5 -80c-3.33301 -23.333 -5 -47 -5 -71c0 -40 12.667 -60 38 -60c18.667 0 33 9.83301 43 29.5z" />
    <glyph glyph-name="minute" unicode="&#x2032;" horiz-adv-x="157" 
d="M79 686h90l1 -3l-47 -157h-69z" />
    <glyph glyph-name="second" unicode="&#x2033;" horiz-adv-x="291" 
d="M79 686h90l1 -3l-47 -157h-69zM206 686h90l1 -3l-47 -157h-69z" />
    <glyph glyph-name="guilsinglleft" unicode="&#x2039;" horiz-adv-x="273" 
d="M29 326l167 200h73l-141 -200l84 -200h-71z" />
    <glyph glyph-name="guilsinglright" unicode="&#x203a;" horiz-adv-x="273" 
d="M163 326l-85 200h71l113 -200l-168 -200h-73z" />
    <glyph glyph-name="exclamdbl" unicode="&#x203c;" 
d="M128 686h113l-99 -515h-62zM343 686h113l-99 -515h-62zM53 108h100l-15 -108h-100zM268 108h100l-15 -108h-100z" />
    <glyph glyph-name="uni203E" unicode="&#x203e;" horiz-adv-x="500" 
d="M74 844h501l-7 -53h-500z" />
    <glyph glyph-name="fraction" unicode="&#x2044;" horiz-adv-x="137" 
d="M303 698h62l-513 -710h-63z" />
    <glyph glyph-name="uni207F" unicode="&#x207f;" horiz-adv-x="299" 
d="M107 727h49v-53c6.66699 14.667 17.5 28.5 32.5 41.5s34.167 19.5 57.5 19.5c27.333 0 47 -7.66699 59 -23s18 -34.333 18 -57c0 -9.33301 -5.33301 -52.333 -16 -129l-22 -157h-61l21.5 149.5c10.333 73 15.5 114.167 15.5 123.5c0 26 -12 39 -36 39
c-20.667 0 -38 -10.167 -52 -30.5s-23.333 -47.5 -28 -81.5l-28 -200h-60z" />
    <glyph glyph-name="franc" unicode="&#x20a3;" horiz-adv-x="504" 
d="M131 686l336.999 0.00195312l-12 -80h-249l-30 -222h134l10 68h64v-84c14 29.333 28.5 52.666 43.5 69.999s35.5 26 61.5 26c9.33301 0 17.5 -1.16699 24.5 -3.5l13.5 -4.5l-12 -85h-27c-27.333 0 -52.166 -12.333 -74.499 -37s-36.5 -59.334 -42.5 -104.001l-34 -230
h-82l43 303h-134l-43 -303h-88z" />
    <glyph glyph-name="lira" unicode="&#x20a4;" 
d="M11 79l60 0.000976562l21 151h-73l10 71h73l7 50h-73l10 72h73l11 76c19.333 132.667 79 199 179 199c47.333 0 83.666 -11 108.999 -33s38 -57.667 38 -107c0 -18 -2 -40.333 -6 -67h-82c4 23.333 6 40.666 6 51.999c0 54.667 -22 82 -66 82
c-25.333 0 -45.666 -8.83301 -60.999 -26.5s-26 -45.5 -32 -83.5l-15 -92h134l-10 -72h-135l-7 -50h135l-10 -71h-136l-27 -151h249l-12 -79h-382z" />
    <glyph glyph-name="peseta" unicode="&#x20a7;" horiz-adv-x="909" 
d="M645.5 1c-21 8.66699 -39.166 20.6689 -54.499 36.002l-4 -33c-10.667 -4 -23 -7.33301 -37 -10s-27 -4 -39 -4c-34 0 -58.5 7.83301 -73.5 23.5s-22.5 36.167 -22.5 61.5c0 10.667 7.33301 67.167 22 169.5l30 208.5h-28c-12 -54 -38.333 -96.167 -79 -126.5
s-90.667 -45.5 -150 -45.5h-72l-40 -281h-88l97 686h150c59.333 0 105 -14.333 137 -43s49.333 -67.667 52 -117h31l21 146h86l-25 -146h129c24 8 48 12 72 12c50 0 87.5 -15.833 112.5 -47.5s37.5 -70.834 37.5 -117.501h-85c0 33.333 -7 57.166 -21 71.499
s-31.667 21.5 -53 21.5c-16.667 0 -32.167 -5.83301 -46.5 -17.5s-21.5 -27.167 -21.5 -46.5c0 -24.667 7.16699 -43.667 21.5 -57s36.166 -28 65.499 -44c24 -13.333 43.5 -25.5 58.5 -36.5s27.833 -26 38.5 -45s16 -42.833 16 -71.5c0 -50 -15.167 -89.167 -45.5 -117.5
s-71.5 -42.5 -123.5 -42.5c-24.667 0 -47.5 4.33301 -68.5 13zM219.001 361.002c38.667 0 70.667 12.668 96 38.001s38 58.666 38 99.999c0 33.333 -8.66699 59.5 -26 78.5s-42.333 28.5 -75 28.5h-69l-33 -245h69zM777.001 81.5029c14 14.333 21 32.167 21 53.5
c0 24.667 -7.33301 44.167 -22 58.5s-37 30.5 -67 48.5c-24 14 -43.333 26.667 -58 38s-27.167 26 -37.5 44s-15.5 40 -15.5 66c0 23.333 4 44.333 12 63h-61l-29 -200.5c-14 -97.667 -21 -149.167 -21 -154.5c0 -24.667 12.333 -37 37 -37h37c-16 25.333 -24 55 -24 89
c0 14 0.666992 24.667 2 32h85c-2 -10.667 -3 -21.334 -3 -32.001c0 -29.333 8.33301 -51.666 25 -66.999s38 -23 64 -23c22.667 0 41 7.16699 55 21.5z" />
    <glyph glyph-name="Euro" unicode="&#x20ac;" 
d="M134.5 54c-41.667 44 -64.167 107 -67.5 189h-63l10 65h56c0 7.33301 1.33301 19 4 35c0.666992 6.66699 2.33398 18.334 5.00098 35.001h-56l10 65h63c26 84 64.333 147.5 115 190.5s116.667 64.5 198 64.5c24 0 46 -3.33301 66 -10l-10 -71c-18 5.33301 -36 8 -54 8
c-109.333 0 -186 -60.667 -230 -182h202l-10 -65h-211c-2.66699 -16.667 -4.33398 -28.334 -5.00098 -35.001c-2.66699 -16 -4 -27.667 -4 -35h211l-10 -65h-202c10.667 -121.333 70.667 -182 180 -182c17.333 0 36 2.66699 56 8l-10 -71c-25.333 -6.66699 -48 -10 -68 -10
c-75.333 0 -133.833 22 -175.5 66z" />
    <glyph glyph-name="uni2105" unicode="&#x2105;" horiz-adv-x="771" 
d="M99 343.5c-20 22.333 -29.999 56.168 -29.999 101.501c0 68 11 127.167 33 177.5s60 75.5 114 75.5c70.667 0 106 -44.333 106 -133v-13h-65v12c0 52.667 -13.667 79 -41 79c-31.333 0 -52.833 -22.333 -64.5 -67s-17.5 -86.667 -17.5 -126c0 -26.667 4 -47.5 12 -62.5
s19.667 -22.5 35 -22.5c17.333 0 32 8.5 44 25.5s19.667 38.167 23 63.5h63c-4.66699 -40.667 -18.334 -74.834 -41.001 -102.501s-52 -41.5 -88 -41.5c-35.333 0 -63 11.167 -83 33.5zM623.001 698.002h62l-513 -710h-63zM460.001 120.002c0 66 11.833 125.167 35.5 177.5
s64.167 78.5 121.5 78.5c78 0 117 -44.333 117 -133c0 -24 -1.33301 -46.667 -4 -68c-7.33301 -53.333 -23 -97.833 -47 -133.5s-59.333 -53.5 -106 -53.5c-78 0 -117 44 -117 132zM649.501 109.502c13 44.333 19.5 88.5 19.5 132.5c0 52.667 -17.333 79 -52 79
s-58.667 -21.667 -72 -65s-20 -86 -20 -128c0 -28.667 4.16699 -50 12.5 -64s21.5 -21 39.5 -21c35.333 0 59.5 22.167 72.5 66.5z" />
    <glyph glyph-name="uni2113" unicode="&#x2113;" horiz-adv-x="397" 
d="M106.5 25c-19 24.667 -28.498 58.333 -28.498 101c0 10.667 1.66699 29.334 5 56.001c1.33301 1.33301 -11.334 -9.33398 -38.001 -32.001l10 70c24 22 36.667 33.667 38 35l35 253c11.333 79.333 32.333 137 63 173s64.667 54 102 54c28 0 49.167 -10 63.5 -30
s21.5 -47 21.5 -81c0 -119.333 -73 -248.666 -219 -387.999l-5 -38c-2.66699 -22.667 -4 -37.667 -4 -45c0 -32.667 6.5 -56.834 19.5 -72.501s30.167 -23.5 51.5 -23.5c24 0 48.333 10 73 30l-10 -73c-28.667 -17.333 -57.334 -26 -86.001 -26c-42 0 -72.5 12.333 -91.5 37
zM322.002 613.999c0 38 -12.333 57 -37 57c-18.667 0 -36 -13 -52 -39s-28 -67.333 -36 -124l-27 -190c101.333 113.333 152 212 152 296z" />
    <glyph glyph-name="uni2116" unicode="&#x2116;" horiz-adv-x="888" 
d="M599 438c0 86 15.167 150.831 45.5 194.498s69.5 65.5 117.5 65.5c78 0 117 -45 117 -135c0 -39.333 -5 -78.666 -15 -117.999s-27.167 -72.666 -51.5 -99.999s-56.5 -41 -96.5 -41c-78 0 -117 44.667 -117 134zM122 685.998h72l195 -431
c4.66699 -10.667 10.667 -26.834 18 -48.501s12 -36.167 14 -43.5l3 1c0.666992 7.33301 2 20.5 4 39.5s4 36.167 6 51.5l61 431h79l-97 -686h-69l-197 437c-5.33301 12 -11.666 28.667 -18.999 50s-12 35.333 -14 42l-3 -1
c-0.666992 -6.66699 -1.83398 -19.167 -3.50098 -37.5s-3.5 -36.166 -5.5 -53.499l-62 -437h-79zM787.5 429.998c13 42.667 19.5 86 19.5 130c0 50.667 -16.333 76 -49 76c-33.333 0 -56.333 -21.333 -69 -64s-19 -86 -19 -130c0 -50.667 16.667 -76 50 -76
c32 0 54.5 21.333 67.5 64zM583 263.998h247l-9 -62h-247z" />
    <glyph glyph-name="trademark" unicode="&#x2122;" horiz-adv-x="820" 
d="M228 637h-110l7 49h271l-7 -49h-109l-50 -354h-52zM439 686h79l38 -323h4l130 323h78l-57 -404h-52l47 336h-4l-135 -336h-47l-40 336h-4l-47 -336h-47z" />
    <glyph glyph-name="uni2126" unicode="&#x2126;" horiz-adv-x="768" 
d="M89 84l24.998 0.00195312c4.66699 0 14.334 -0.666992 29.001 -2c16 -1.33301 28.667 -2 38 -2c-40.667 46.667 -61 109 -61 187c0 68 11.167 135 33.5 201s57.333 120.833 105 164.5s106.834 65.5 177.501 65.5c76 0 134.5 -22 175.5 -66s61.5 -109 61.5 -195
c0 -70 -10.833 -135.833 -32.5 -197.5s-56.5 -114.834 -104.5 -159.501c6 0 14.333 0.666992 25 2c18.667 1.33301 33 2 43 2h25l-12 -84h-238l9 61c50 0 90.5 28.667 121.5 86s52.5 123.666 64.5 198.999c5.33301 37.333 8 68 8 92c0 59.333 -12.833 104 -38.5 134
s-62.167 45 -109.5 45c-62 0 -110.833 -24.5 -146.5 -73.5s-59.5 -111.5 -71.5 -187.5c-6 -38 -9 -76.333 -9 -115c0 -50.667 10 -91.167 30 -121.5s48.667 -49.833 86 -58.5l-9 -61h-237z" />
    <glyph glyph-name="estimated" unicode="&#x212e;" horiz-adv-x="600" 
d="M165.5 23.5c-39 23.667 -68.8359 56.168 -89.5029 97.501s-31 88.666 -31 141.999s10.333 100.666 31 141.999s50.5 73.833 89.5 97.5s84.5 35.5 136.5 35.5s97.333 -12.167 136 -36.5s68.5 -58.166 89.5 -101.499s31.5 -92.333 31.5 -147v-5h-406v-165
c38.667 -35.333 88.334 -53 149.001 -53c43.333 0 81.5 9.66699 114.5 29s58.167 46 75.5 80l34 -21c-21.333 -40.667 -51.166 -72.5 -89.499 -95.5s-83.166 -34.5 -134.499 -34.5c-52 0 -97.5 11.833 -136.5 35.5zM450.997 290.001v151c-40 36.667 -89.667 55 -149 55
c-60 0 -109.667 -18 -149 -54v-152h298z" />
    <glyph glyph-name="oneeighth" unicode="&#x215b;" horiz-adv-x="684" 
d="M582 698h62l-513 -710h-63zM38 342h79l37 258h-80l6 43c16 2 35.667 7.16699 59 15.5s43.333 17.5 60 27.5h29l-49 -344h73l-8 -58h-214zM422.5 14.5c-17 17.667 -25.501 41.166 -25.501 70.499c0 24.667 5.33301 47.334 16 68.001s26.334 37.667 47.001 51
c-18.667 17.333 -28 40.333 -28 69c0 37.333 11 69.166 33 95.499s50.667 39.5 86 39.5c31.333 0 55.333 -9 72 -27s25 -41 25 -69c0 -21.333 -4.83301 -41.666 -14.5 -60.999s-23.167 -35.333 -40.5 -48c24.667 -16 37 -39.333 37 -70c0 -40 -11.167 -74.167 -33.5 -102.5
s-53.833 -42.5 -94.5 -42.5c-36 0 -62.5 8.83301 -79.5 26.5zM569.499 250.999c11 13.333 16.501 31 16.501 53c0 14.667 -3.5 26 -10.5 34s-16.167 12 -27.5 12c-16.667 0 -29.834 -7.5 -39.501 -22.5s-14.5 -32.5 -14.5 -52.5c0 -14 3.33301 -24.833 10 -32.5
s15.667 -11.5 27 -11.5c14.667 0 27.5 6.66699 38.5 20zM549.5 67.499c11 14.333 16.5 33.834 16.5 58.501c0 15.333 -3.66699 27.166 -11 35.499s-18 12.5 -32 12.5c-18.667 0 -33.667 -7.83301 -45 -23.5s-17 -34.167 -17 -55.5c0 -32.667 14.667 -49 44 -49
c18.667 0 33.5 7.16699 44.5 21.5z" />
    <glyph glyph-name="threeeighths" unicode="&#x215c;" horiz-adv-x="684" 
d="M62.5 305c-18.333 17.333 -27.5 41.332 -27.5 71.999c0 14.667 1 27.334 3 38.001h64c-2 -13.333 -3 -24 -3 -32c0 -31.333 14 -47 42 -47c18.667 0 34.167 6.83301 46.5 20.5s18.5 33.5 18.5 59.5c0 31.333 -16 47 -48 47h-29l8 57h30c16 0 29.667 6.5 41 19.5
s17 31.5 17 55.5c0 15.333 -3.5 26.833 -10.5 34.5s-16.167 11.5 -27.5 11.5c-14 0 -26.167 -5.33301 -36.5 -16s-16.833 -26.334 -19.5 -47.001l-2 -13h-63l3 18c5.33301 34.667 18.833 62.5 40.5 83.5s48.167 31.5 79.5 31.5s55.833 -8 73.5 -24s26.5 -39 26.5 -69
c0 -27.333 -5.33301 -49.833 -16 -67.5s-26 -32.167 -46 -43.5c12.667 -7.33301 22.834 -17.666 30.501 -30.999s11.5 -29.333 11.5 -48c0 -27.333 -5.83301 -51.333 -17.5 -72s-27.334 -36.5 -47.001 -47.5s-40.5 -16.5 -62.5 -16.5c-34.667 0 -61.167 8.66699 -79.5 26z
M576 697.999h62l-513 -710h-63zM419.5 14.499c-17 17.667 -25.501 41.166 -25.501 70.499c0 24.667 5.33301 47.334 16 68.001s26.334 37.667 47.001 51c-18.667 17.333 -28 40.333 -28 69c0 37.333 11 69.166 33 95.499s50.667 39.5 86 39.5c31.333 0 55.333 -9 72 -27
s25 -41 25 -69c0 -21.333 -4.83301 -41.666 -14.5 -60.999s-23.167 -35.333 -40.5 -48c24.667 -16 37 -39.333 37 -70c0 -40 -11.167 -74.167 -33.5 -102.5s-53.833 -42.5 -94.5 -42.5c-36 0 -62.5 8.83301 -79.5 26.5zM566.499 250.998c11 13.333 16.501 31 16.501 53
c0 14.667 -3.5 26 -10.5 34s-16.167 12 -27.5 12c-16.667 0 -29.834 -7.5 -39.501 -22.5s-14.5 -32.5 -14.5 -52.5c0 -14 3.33301 -24.833 10 -32.5s15.667 -11.5 27 -11.5c14.667 0 27.5 6.66699 38.5 20zM546.5 67.498c11 14.333 16.5 33.834 16.5 58.501
c0 15.333 -3.66699 27.166 -11 35.499s-18 12.5 -32 12.5c-18.667 0 -33.667 -7.83301 -45 -23.5s-17 -34.167 -17 -55.5c0 -32.667 14.667 -49 44 -49c18.667 0 33.5 7.16699 44.5 21.5z" />
    <glyph glyph-name="fiveeighths" unicode="&#x215d;" horiz-adv-x="684" 
d="M576 698h62l-513 -710h-63zM65 299.5c-18.667 18.333 -27.999 44.165 -27.999 77.498c0 6 0.666992 15 2 27h64c-0.666992 -4 -1 -9.66699 -1 -17c0 -17.333 4.16699 -31.166 12.5 -41.499s19.166 -15.5 32.499 -15.5c16.667 0 31.667 9.16699 45 27.5s20 43.833 20 76.5
c0 18.667 -3.5 33 -10.5 43s-16.5 15 -28.5 15c-21.333 0 -41.333 -14.333 -60 -43l-55 10l46 227h193l-9 -64h-140l-20 -100c20.667 18 42.334 27 65.001 27c25.333 0 45.666 -8.83301 60.999 -26.5s23 -43.167 23 -76.5c0 -35.333 -6 -66.166 -18 -92.499
s-28.167 -46.5 -48.5 -60.5s-42.833 -21 -67.5 -21c-33.333 0 -59.333 9.16699 -78 27.5zM420.501 14.499c-17 17.667 -25.501 41.166 -25.501 70.499c0 24.667 5.33301 47.334 16 68.001s26.334 37.667 47.001 51c-18.667 17.333 -28 40.333 -28 69
c0 37.333 11 69.166 33 95.499s50.667 39.5 86 39.5c31.333 0 55.333 -9 72 -27s25 -41 25 -69c0 -21.333 -4.83301 -41.666 -14.5 -60.999s-23.167 -35.333 -40.5 -48c24.667 -16 37 -39.333 37 -70c0 -40 -11.167 -74.167 -33.5 -102.5s-53.833 -42.5 -94.5 -42.5
c-36 0 -62.5 8.83301 -79.5 26.5zM567.5 250.998c11 13.333 16.501 31 16.501 53c0 14.667 -3.5 26 -10.5 34s-16.167 12 -27.5 12c-16.667 0 -29.834 -7.5 -39.501 -22.5s-14.5 -32.5 -14.5 -52.5c0 -14 3.33301 -24.833 10 -32.5s15.667 -11.5 27 -11.5
c14.667 0 27.5 6.66699 38.5 20zM547.501 67.498c11 14.333 16.5 33.834 16.5 58.501c0 15.333 -3.66699 27.166 -11 35.499s-18 12.5 -32 12.5c-18.667 0 -33.667 -7.83301 -45 -23.5s-17 -34.167 -17 -55.5c0 -32.667 14.667 -49 44 -49c18.667 0 33.5 7.16699 44.5 21.5z
" />
    <glyph glyph-name="seveneighths" unicode="&#x215e;" horiz-adv-x="684" 
d="M549 698h62l-513 -710h-63zM237 623l-157 -0.000976562l9 63h236l-7 -42c-103.333 -127.333 -159.333 -246.666 -168 -357.999h-70c16 108.667 68.333 221 157 337zM416.5 14.499c-17 17.667 -25.501 41.166 -25.501 70.499c0 24.667 5.33301 47.334 16 68.001
s26.334 37.667 47.001 51c-18.667 17.333 -28 40.333 -28 69c0 37.333 11 69.166 33 95.499s50.667 39.5 86 39.5c31.333 0 55.333 -9 72 -27s25 -41 25 -69c0 -21.333 -4.83301 -41.666 -14.5 -60.999s-23.167 -35.333 -40.5 -48c24.667 -16 37 -39.333 37 -70
c0 -40 -11.167 -74.167 -33.5 -102.5s-53.833 -42.5 -94.5 -42.5c-36 0 -62.5 8.83301 -79.5 26.5zM563.499 250.998c11 13.333 16.501 31 16.501 53c0 14.667 -3.5 26 -10.5 34s-16.167 12 -27.5 12c-16.667 0 -29.834 -7.5 -39.501 -22.5s-14.5 -32.5 -14.5 -52.5
c0 -14 3.33301 -24.833 10 -32.5s15.667 -11.5 27 -11.5c14.667 0 27.5 6.66699 38.5 20zM543.5 67.498c11 14.333 16.5 33.834 16.5 58.501c0 15.333 -3.66699 27.166 -11 35.499s-18 12.5 -32 12.5c-18.667 0 -33.667 -7.83301 -45 -23.5s-17 -34.167 -17 -55.5
c0 -32.667 14.667 -49 44 -49c18.667 0 33.5 7.16699 44.5 21.5z" />
    <glyph glyph-name="arrowleft" unicode="&#x2190;" horiz-adv-x="1000" 
d="M41 242l2 21l220 163h43l-78 -137h737l-10 -73h-738l40 -137h-43z" />
    <glyph glyph-name="arrowup" unicode="&#x2191;" horiz-adv-x="500" 
d="M253 529l-145 -58l6 42l190 197h22l134 -197l-5 -42l-129 58l-103 -737h-74z" />
    <glyph glyph-name="arrowright" unicode="&#x2192;" horiz-adv-x="1000" 
d="M773 216h-737l10 73h738l-40 137h43l173 -163l-2 -21l-220 -163h-43z" />
    <glyph glyph-name="arrowdown" unicode="&#x2193;" horiz-adv-x="500" 
d="M41 -11l5 42l129 -58l103 737h74l-104 -737l145 58l-6 -42l-190 -197h-22z" />
    <glyph glyph-name="arrowboth" unicode="&#x2194;" horiz-adv-x="1000" 
d="M41 242l2 21l220 163h43l-73 -137h551l-40 137h43l173 -163l-2 -21l-220 -163h-43l78 137h-551l35 -137h-43z" />
    <glyph glyph-name="arrowupdn" unicode="&#x2195;" horiz-adv-x="500" 
d="M40 -9l5 42l129 -58l77 550l-144 -53l6 42l190 197h22l134 -197l-5 -42l-129 53l-78 -550l145 58l-6 -42l-190 -197h-22z" />
    <glyph glyph-name="arrowupdnbse" unicode="&#x21a8;" horiz-adv-x="500" 
d="M46 -9l6 42l129 -58l77 550l-144 -53l6 42l190 197h22l134 -197l-6 -42l-129 53l-77 -550l145 58l-6 -42l-190 -197h-22zM11 -255h349l-6 -48h-350z" />
    <glyph glyph-name="partialdiff" unicode="&#x2202;" horiz-adv-x="494" 
d="M80.5 35c-23.667 31.333 -35.498 72.002 -35.498 122.002c0 56.667 10.667 107.334 32 152.001s48.5 79.167 81.5 103.5s65.833 36.5 98.5 36.5c30.667 0 55.5 -7.33301 74.5 -22s31.5 -30.334 37.5 -47.001h4c6.66699 19.333 10 51.666 10 96.999
c0 56 -10.333 101.5 -31 136.5s-48.334 52.5 -83.001 52.5c-36.667 0 -70.667 -11.333 -102 -34l10 74c34 19.333 69.667 29 107 29c51.333 0 93.666 -20.833 126.999 -62.5s50 -104.5 50 -188.5c0 -32.667 -2.33301 -66.334 -7 -101.001
c-17.333 -124 -49.5 -220.833 -96.5 -290.5s-104.833 -104.5 -173.5 -104.5c-45.333 0 -79.833 15.667 -103.5 47zM290.502 131.002c29 46.667 50.502 102.667 64.502 168c-3.33301 21.333 -13 40.5 -29 57.5s-36.333 25.5 -61 25.5c-22.667 0 -44.334 -10.667 -65.001 -32
s-37.5 -49.166 -50.5 -83.499s-19.5 -69.833 -19.5 -106.5c0 -30.667 5.66699 -54.834 17 -72.501s27.666 -26.5 48.999 -26.5c34 0 65.5 23.333 94.5 70z" />
    <glyph glyph-name="uni2206" unicode="&#x2206;" horiz-adv-x="550" 
d="M9 38l300 648h113l119 -648l-5 -38h-531zM440 84l-89 506h-4l-229 -506h322z" />
    <glyph glyph-name="product" unicode="&#x220f;" horiz-adv-x="823" 
d="M236 643h-82l11 80h611l-11 -80h-83l-108 -771h-81l108 771h-284l-108 -771h-81z" />
    <glyph glyph-name="summation" unicode="&#x2211;" horiz-adv-x="713" 
d="M36 -65l341 364l-231 357l9 67h549l-11 -78h-429v-4l216 -326l-332 -351l-1 -4h467l-12 -88h-575z" />
    <glyph glyph-name="minus" unicode="&#x2212;" horiz-adv-x="479" 
d="M48 297h392l-11 -84h-392z" />
    <glyph glyph-name="uni2215" unicode="&#x2215;" horiz-adv-x="137" 
d="M303 698h62l-513 -710h-63z" />
    <glyph glyph-name="uni2219" unicode="&#x2219;" horiz-adv-x="273" 
d="M110 399h101l-15 -111h-101z" />
    <glyph glyph-name="radical" unicode="&#x221a;" horiz-adv-x="549" 
d="M118 293l-80.999 -30l-12 60l172 68l78 -347c3.33301 -11.333 6.66602 -36 9.99902 -74l262 887h71l-303 -1005h-90z" />
    <glyph glyph-name="infinity" unicode="&#x221e;" horiz-adv-x="713" 
d="M77.5 178c-22.333 24 -33.5 55 -33.5 93c0 32 7 62 21 90s33.333 50.333 58 67s52.334 25 83.001 25c34 0 63.167 -8.66699 87.5 -26s47.833 -41 70.5 -71c29.333 30.667 57.666 54.5 84.999 71.5s57 25.5 89 25.5c40 0 71.333 -12 94 -36s34 -54.667 34 -92
c0 -32.667 -6.83301 -63 -20.5 -91s-32.667 -50.333 -57 -67s-51.833 -25 -82.5 -25c-34.667 0 -64.5 8.5 -89.5 25.5s-48.167 40.5 -69.5 70.5c-29.333 -30 -57.833 -53.5 -85.5 -70.5s-57.5 -25.5 -89.5 -25.5c-40.667 0 -72.167 12 -94.5 36zM242 235
c19.333 14 41.333 34.666 66 61.999c-16 25.333 -32 45 -48 59s-34 21 -54 21c-22 0 -42 -9.5 -60 -28.5s-27 -40.833 -27 -65.5c0 -19.333 6 -35.666 18 -48.999s27 -20 45 -20c20.667 0 40.667 7 60 21zM565 241.499c17.333 18.333 25.999 40.167 25.999 65.5
c0 19.333 -6 35.833 -18 49.5s-27 20.5 -45 20.5c-20.667 0 -40.5 -6.66699 -59.5 -20s-41.5 -33.333 -67.5 -60c18 -27.333 34.833 -48 50.5 -62s33.834 -21 54.501 -21c22 0 41.667 9.16699 59 27.5z" />
    <glyph glyph-name="orthogonal" unicode="&#x221f;" horiz-adv-x="979" 
d="M239 625h84l-76 -546h541l-11 -79h-625z" />
    <glyph glyph-name="intersection" unicode="&#x2229;" horiz-adv-x="722" 
d="M115 410c7.33301 50 25.332 95.333 53.999 136s64.5 72.5 107.5 95.5s88.5 34.5 136.5 34.5c45.333 0 85.833 -9.66699 121.5 -29s63.667 -46.333 84 -81s30.5 -74 30.5 -118c0 -10.667 -1.33301 -27.667 -4 -51l-54 -397h-82l56 400c2.66699 20.667 4 33.667 4 39
c0 47.333 -15 85.833 -45 115.5s-68.667 44.5 -116 44.5c-34.667 0 -67 -8 -97 -24s-55.167 -38.5 -75.5 -67.5s-33.166 -61.5 -38.499 -97.5l-58 -410h-82z" />
    <glyph glyph-name="integral" unicode="&#x222b;" horiz-adv-x="274" 
d="M-30 -91c56 0 86.668 19.333 92.001 58l39.5 392c19.667 194.667 34.167 324 43.5 388c6 43.333 24 72.833 54 88.5s70 23.5 120 23.5l-7 -49c-58 0 -89.667 -19 -95 -57l-39.5 -393.5c-19.667 -195 -33.834 -324.5 -42.501 -388.5
c-6 -43.333 -23.833 -72.833 -53.5 -88.5s-69.167 -23.5 -118.5 -23.5z" />
    <glyph glyph-name="approxequal" unicode="&#x2248;" horiz-adv-x="549" 
d="M50 334c0 1.33301 6.83301 8.5 20.5 21.5s31.5 25 53.5 36s46.667 16.5 74 16.5c16 0 31 -2.66699 45 -8s30.667 -13 50 -23c20.667 -10.667 38 -18.5 52 -23.5s29.333 -7.5 46 -7.5c24 0 47 5.5 69 16.5s40.667 23 56 36s23 20.167 23 21.5l-13 -94
c0 -1.33301 -6.83301 -8.5 -20.5 -21.5s-31.5 -25 -53.5 -36s-46.667 -16.5 -74 -16.5c-16 0 -31 2.66699 -45 8s-30.667 13 -50 23c-20.667 10.667 -38 18.5 -52 23.5s-29.333 7.5 -46 7.5c-24 0 -47 -5.5 -69 -16.5s-40.667 -23 -56 -36s-23 -20.167 -23 -21.5zM20 121
c0 1.33301 6.83301 8.5 20.5 21.5s31.5 25 53.5 36s46.667 16.5 74 16.5c16 0 31 -2.66699 45 -8s30.667 -13 50 -23c20.667 -10.667 38 -18.5 52 -23.5s29.333 -7.5 46 -7.5c24 0 47 5.5 69 16.5s40.667 23 56 36s23 20.167 23 21.5l-13 -94
c0 -1.33301 -6.83301 -8.5 -20.5 -21.5s-31.5 -25 -53.5 -36s-46.667 -16.5 -74 -16.5c-16 0 -31 2.66699 -45 8s-30.667 13 -50 23c-20.667 10.667 -38 18.5 -52 23.5s-29.333 7.5 -46 7.5c-24 0 -47 -5.5 -69 -16.5s-40.667 -23 -56 -36s-23 -20.167 -23 -21.5z" />
    <glyph glyph-name="notequal" unicode="&#x2260;" horiz-adv-x="549" 
d="M151 106h-90l11 83h132l83 129h-197l12 84h240l54 82h61l-54 -82h91l-12 -84h-134l-83 -129h199l-11 -83h-241l-53 -81h-61z" />
    <glyph glyph-name="equivalence" unicode="&#x2261;" horiz-adv-x="478" 
d="M78 516h392l-12 -84h-392zM48 303h392l-11 -84h-392zM18 90h392l-11 -83h-392z" />
    <glyph glyph-name="lessequal" unicode="&#x2264;" horiz-adv-x="549" 
d="M77 300l15 107l420 197l-13 -90l-333 -160l288 -160l-12 -90zM48 83h392l-12 -83h-392z" />
    <glyph glyph-name="greaterequal" unicode="&#x2265;" horiz-adv-x="549" 
d="M63 194l334 160l-289 160l13 90l364 -197l-15 -107l-419 -196zM47 83h392l-12 -83h-392z" />
    <glyph glyph-name="house" unicode="&#x2302;" horiz-adv-x="600" 
d="M79 310l260 253l190 -253l-44 -310h-450zM430 60l33 238l-131 174l-193 -187l-32 -225h323z" />
    <glyph glyph-name="revlogicalnot" unicode="&#x2310;" horiz-adv-x="479" 
d="M56 453h396l-13 -93h-312l-22 -163h-84z" />
    <glyph glyph-name="integraltp" unicode="&#x2320;" horiz-adv-x="604" 
d="M271.5 371.5c26.333 207 42.833 332.167 49.5 375.5c6 43.333 23.833 72.833 53.5 88.5s69.5 23.5 119.5 23.5l-6 -49c-58 0 -89.667 -19 -95 -57l-124 -1003h-74z" />
    <glyph glyph-name="integralbt" unicode="&#x2321;" horiz-adv-x="604" 
d="M115 -201c58 0 89.668 19 95.001 57l124 1003h74l-75 -599.5l-51 -397.5c-6.66699 -43.333 -24.834 -72.833 -54.501 -88.5s-69.167 -23.5 -118.5 -23.5z" />
    <glyph glyph-name="uniF6C3" unicode="&#xf6c3;" horiz-adv-x="0" 
d="M-194 -151h-34l13 91h85l-12 -84l-35 -76h-49z" />
    <glyph glyph-name="uniFB01" unicode="&#xfb01;" horiz-adv-x="410" 
d="M-89 -170l7.99707 56.999h44c31.333 0 49 16 53 48l68 518h-46l10 73h46l12 84c4.66699 34.667 16.834 63.5 36.501 86.5s47.834 34.5 84.501 34.5c23.333 0 45.666 -4 66.999 -12l-8 -57h-44c-15.333 0 -27.666 -4.16699 -36.999 -12.5s-15 -20.166 -17 -35.499l-12 -88
h91l-10 -73h-91l-68 -514c-4.66699 -34 -16.667 -62.667 -36 -86s-47.333 -35 -84 -35c-23.333 0 -45.666 4 -66.999 12zM343.997 722.999h82l-13 -98h-82zM316.997 525.999h82l-74 -526h-81z" />
    <glyph glyph-name="uniFB02" unicode="&#xfb02;" horiz-adv-x="410" 
d="M-89 -170l7.99707 56.999h44c31.333 0 49 16 53 48l68 518h-46l10 73h46l12 84c4.66699 34.667 16.834 63.5 36.501 86.5s47.834 34.5 84.501 34.5c23.333 0 45.666 -4 66.999 -12l-8 -57h-44c-15.333 0 -27.666 -4.16699 -36.999 -12.5s-15 -20.166 -17 -35.499l-12 -88
h91l-10 -73h-91l-68 -514c-4.66699 -34 -16.667 -62.667 -36 -86s-47.333 -35 -84 -35c-23.333 0 -45.666 4 -66.999 12zM343.997 722.999h82l-101 -723h-81z" />
    <glyph glyph-name="ampersand.alt" horiz-adv-x="547" 
d="M422 114l60 -114h-93l-28 53c-28 -22 -57.333 -38.5 -88 -49.5s-60.667 -16.5 -90 -16.5c-47.333 0 -86 14.667 -116 44s-45 69.666 -45 120.999c0 52.667 14.167 99.667 42.5 141s68.5 73 120.5 95c-16.667 42.667 -25 83 -25 121c0 54.667 14.833 99.834 44.5 135.501
s71.167 53.5 124.5 53.5c36.667 0 68 -11.5 94 -34.5s39 -54.833 39 -95.5c0 -48.667 -15.667 -92.167 -47 -130.5s-71.333 -66.833 -120 -85.5l89 -167c28 43.333 49.333 96.333 64 159h78c-19.333 -90 -54 -166.667 -104 -230zM261 594.5
c-14 -21.667 -21 -48.502 -21 -80.502c0 -38.667 7.66699 -72.667 23 -102c36 11.333 64.5 29.833 85.5 55.5s31.5 56.834 31.5 93.501c0 20.667 -5.66699 36.834 -17 48.501s-25 17.5 -41 17.5c-26.667 0 -47 -10.833 -61 -32.5zM261 74.498
c22.667 9.66699 44.668 24.166 66.001 43.499l-110 208c-34.667 -14 -61.834 -35.833 -81.501 -65.5s-29.5 -62.5 -29.5 -98.5c0 -33.333 7.66699 -58.666 23 -75.999s37.666 -26 66.999 -26c20.667 0 42.334 4.83301 65.001 14.5z" />
    </font>
</defs>
</svg>
