<?xml version="1.0" standalone="no"?>
<!DOCTYPE svg PUBLIC "-//W3C//DTD SVG 1.1//EN" "http://www.w3.org/Graphics/SVG/1.1/DTD/svg11.dtd" >
<svg>
<metadata>
Created by FontForge 20090914 at Thu May 20 08:35:07 2021
 By www-data
Copyright 2017 The Archivo Narrow Project Authors (https://github.com/Omnibus-Type/ArchivoNarrow)
</metadata>
<defs>
<font id="ArchivoNarrow-Regular" horiz-adv-x="456" >
  <font-face 
    font-family="Archivo Narrow"
    font-weight="400"
    font-stretch="normal"
    units-per-em="1000"
    panose-1="2 11 5 6 2 2 2 2 11 4"
    ascent="800"
    descent="-200"
    x-height="526"
    cap-height="686"
    bbox="-177 -303 960 957"
    underline-thickness="50"
    underline-position="-50"
    unicode-range="U+000D-U+FB02"
  />
<missing-glyph horiz-adv-x="500" 
d="M0 700h500v-700h-500v700zM420 650h-340l170 -255zM220 350l-170 255v-510zM450 605l-170 -255l170 -255v510zM420 50l-170 255l-170 -255h340z" />
    <glyph glyph-name=".notdef" horiz-adv-x="500" 
d="M0 700h500v-700h-500v700zM420 650h-340l170 -255zM220 350l-170 255v-510zM450 605l-170 -255l170 -255v510zM420 50l-170 255l-170 -255h340z" />
    <glyph glyph-name="NULL" horiz-adv-x="0" 
 />
    <glyph glyph-name="NULL" horiz-adv-x="0" 
 />
    <glyph glyph-name="nonmarkingreturn" unicode="&#xd;" horiz-adv-x="228" 
 />
    <glyph glyph-name="space" unicode=" " horiz-adv-x="228" 
 />
    <glyph glyph-name="exclam" unicode="!" horiz-adv-x="228" 
d="M60 686h113l-26 -515h-62zM67 108h100v-108h-100v108z" />
    <glyph glyph-name="quotedbl" unicode="&#x22;" horiz-adv-x="291" 
d="M37 539v147h82v-147l-21 -132h-39zM170 539v147h82v-147l-22 -132h-39z" />
    <glyph glyph-name="numbersign" unicode="#" 
d="M73 179h-64v76h81l34 155h-76v76h93l47 210h76l-47 -210h90l47 210h76l-47 -210h60v-76h-77l-34 -155h71v-76h-88l-40 -179h-76l40 179h-90l-40 -179h-76zM256 255l34 155h-90l-34 -155h90z" />
    <glyph glyph-name="dollar" unicode="$" 
d="M202 69c-50 4 -87.332 20.501 -111.999 49.501s-37 63.5 -37 103.5c0 8 0.166992 13.5 0.5 16.5s0.5 4.83301 0.5 5.5h82v-10c0 -26.667 5.83301 -47.834 17.5 -63.501s27.834 -25.834 48.501 -30.501v179c-28.667 10 -52.334 20.167 -71.001 30.5s-34.334 25 -47.001 44
s-19 43.833 -19 74.5c0 41.333 12.167 75 36.5 101s57.833 41.667 100.5 47v107h49v-106c43.333 -3.33301 77.333 -18.5 102 -45.5s37 -59.5 37 -97.5l-1 -19h-81v9c0 20 -4.5 37.5 -13.5 52.5s-23.5 24.833 -43.5 29.5v-158c30.667 -10 56.167 -20.333 76.5 -31
s37.5 -26.167 51.5 -46.5s21 -47.166 21 -80.499c0 -50 -13.333 -88.333 -40 -115s-63 -42 -109 -46v-118h-49v118zM202.001 546.001c-20 -4 -34.167 -12.832 -42.5 -26.499s-12.5 -28.834 -12.5 -45.501c0 -16 4.66699 -29.167 14 -39.5s23 -19.5 41 -27.5v139z
M299.501 164.002c12.333 13.333 18.5 31.333 18.5 54c0 20.667 -5.83301 37.334 -17.5 50.001s-28.167 23.667 -49.5 33v-162c20 3.33301 36.167 11.666 48.5 24.999z" />
    <glyph glyph-name="percent" unicode="%" horiz-adv-x="729" 
d="M77 377.5c-21.333 27 -32 73.5 -32 139.5c0 66.667 10.667 113.5 32 140.5s53.333 40.5 96 40.5s74.667 -13.5 96 -40.5s32 -73.833 32 -140.5c0 -66 -10.667 -112.5 -32 -139.5s-53.333 -40.5 -96 -40.5s-74.667 13.5 -96 40.5zM543 686h71l-419 -686h-70zM219.5 425
c8.33301 19.333 12.5 47.666 12.5 84.999v15c0 37.333 -4.16699 65.666 -12.5 84.999s-23.833 29 -46.5 29s-38.167 -9.66699 -46.5 -29s-12.5 -47.666 -12.5 -84.999v-15c0 -37.333 4.16699 -65.666 12.5 -84.999s23.833 -29 46.5 -29s38.167 9.66699 46.5 29zM469 28.5
c-21.333 27 -32 73.5 -32 139.5c0 66.667 10.667 113.5 32 140.5s53.333 40.5 96 40.5s74.667 -13.5 96 -40.5s32 -73.833 32 -140.5c0 -66 -10.667 -112.5 -32 -139.5s-53.333 -40.5 -96 -40.5s-74.667 13.5 -96 40.5zM611.5 76c8.33301 19.333 12.5 47.666 12.5 84.999v15
c0 37.333 -4.16699 65.666 -12.5 84.999s-23.833 29 -46.5 29s-38.167 -9.66699 -46.5 -29s-12.5 -47.666 -12.5 -84.999v-15c0 -37.333 4.16699 -65.666 12.5 -84.999s23.833 -29 46.5 -29s38.167 9.66699 46.5 29z" />
    <glyph glyph-name="ampersand" unicode="&#x26;" horiz-adv-x="547" 
d="M94 41c-39.333 35.333 -59.002 83 -59.002 143c0 43.333 9.16699 79.333 27.5 108s42.833 48.667 73.5 60v4c-28 16 -49.833 36.167 -65.5 60.5s-23.5 55.5 -23.5 93.5c0 60 18.833 106.333 56.5 139s88.5 49 152.5 49c40.667 0 76.667 -7.83301 108 -23.5
s55.833 -37.667 73.5 -66s26.5 -61.166 26.5 -98.499v-18h-82v9c0 40.667 -11.5 71.167 -34.5 91.5s-53.833 30.5 -92.5 30.5c-35.333 0 -64.166 -9.66699 -86.499 -29s-33.5 -49 -33.5 -89c0 -38.667 10 -68.334 30 -89.001s45 -31 75 -31h51v-73h-49
c-79.333 0 -119 -40.667 -119 -122c0 -43.333 11.667 -75.333 35 -96s55.333 -31 96 -31c85.333 0 128 42.667 128 128v194h152v-74h-70v-117c0 -64 -18.5 -114.333 -55.5 -151s-90.5 -55 -160.5 -55c-63.333 0 -114.666 17.667 -153.999 53z" />
    <glyph glyph-name="quotesingle" unicode="'" horiz-adv-x="157" 
d="M35 539v147h82v-147l-21 -132h-39z" />
    <glyph glyph-name="parenleft" unicode="(" horiz-adv-x="273" 
d="M82.5 50.5c-28.333 76.333 -42.5 155.502 -42.5 237.502s14.167 161.667 42.5 239s68.833 146.666 121.5 207.999h54c-39.333 -64 -71.333 -135.5 -96 -214.5s-37 -155.833 -37 -230.5s12.333 -151.834 37 -231.501s56.667 -151.5 96 -215.5h-54
c-52.667 62 -93.167 131.167 -121.5 207.5z" />
    <glyph glyph-name="parenright" unicode=")" horiz-adv-x="273" 
d="M111 58.5c24.667 79.667 37 156.832 37 231.499s-12.333 151.5 -37 230.5s-56.667 150.5 -96 214.5h54c52.667 -61.333 93.167 -130.666 121.5 -207.999s42.5 -157 42.5 -239s-14.167 -161.167 -42.5 -237.5s-68.833 -145.5 -121.5 -207.5h-54
c39.333 64 71.333 135.833 96 215.5z" />
    <glyph glyph-name="asterisk" unicode="*" horiz-adv-x="319" 
d="M134 508l-74 -52l-34 59l82 38l-82 38l34 58l74 -52l-9 89h68l-9 -88l74 51l34 -58l-82 -38l82 -38l-34 -59l-74 52l9 -89h-68z" />
    <glyph glyph-name="plus" unicode="+" horiz-adv-x="479" 
d="M197 213h-154v84h154v214h83v-214h155v-84h-155v-213h-83v213z" />
    <glyph glyph-name="comma" unicode="," horiz-adv-x="228" 
d="M104 0h-40v108h100v-99l-48 -133h-52z" />
    <glyph glyph-name="hyphen" unicode="-" horiz-adv-x="273" 
d="M10 319h252v-98h-252v98z" />
    <glyph glyph-name="period" unicode="." horiz-adv-x="228" 
d="M64 108h100v-108h-100v108z" />
    <glyph glyph-name="slash" unicode="/" horiz-adv-x="228" 
d="M158 735h70l-156 -784h-71z" />
    <glyph glyph-name="zero" unicode="0" 
d="M125 19.5c-27.333 21 -48.333 57.502 -63 109.502s-22 123.333 -22 214s7.33301 162 22 214s35.667 88.5 63 109.5s61.666 31.5 102.999 31.5s75.666 -10.667 102.999 -32s48.333 -57.833 63 -109.5s22 -122.834 22 -213.501s-7.33301 -161.834 -22 -213.501
s-35.667 -88.167 -63 -109.5s-61.666 -32 -102.999 -32s-75.666 10.5 -102.999 31.5zM309 125.502c15.333 43 23 103.833 23 182.5v70c0 78.667 -7.66699 139.5 -23 182.5s-42.333 64.5 -81 64.5s-65.667 -21.5 -81 -64.5s-23 -103.833 -23 -182.5v-70
c0 -78.667 7.66699 -139.5 23 -182.5s42.333 -64.5 81 -64.5s65.667 21.5 81 64.5z" />
    <glyph glyph-name="one" unicode="1" 
d="M50 73h163.001v488h-164v52c29.333 3.33301 64.666 11.833 105.999 25.5s77.333 29.5 108 47.5h32v-613h150v-73h-395v73z" />
    <glyph glyph-name="two" unicode="2" 
d="M39 13c0 52.667 15.999 102.333 47.999 149c11.333 17.333 24.166 34.166 38.499 50.499l55.5 60.5c31.333 34 56.333 62.667 75 86s34.334 48.833 47.001 76.5s19 56.167 19 85.5c0 27.333 -7.16699 51 -21.5 71s-38.166 30 -71.499 30s-57.666 -12.167 -72.999 -36.5
s-23 -55.833 -23 -94.5v-41h-85c-0.666992 2 -1.33398 6.66699 -2.00098 14s-1 16 -1 26c0 69.333 17.5 121.333 52.5 156s79.167 52 132.5 52s96.5 -14.667 129.5 -44s49.5 -74 49.5 -134c0 -36.667 -7.5 -71.667 -22.5 -105s-33 -63.333 -54 -90
s-48.833 -58.667 -83.5 -96l-38.5 -43c-21 -23.333 -38.5 -45.666 -52.5 -66.999c-8 -11.333 -14 -23 -18 -35h272v-84h-373v13z" />
    <glyph glyph-name="three" unicode="3" 
d="M85.5 43.5c-33.667 37 -50.5 87.168 -50.5 150.501v8h84v-11c0 -42.667 8.83301 -75 26.5 -97s43.167 -33 76.5 -33c34 0 60.833 10.667 80.5 32s29.5 53.666 29.5 96.999c0 81.333 -37.667 122 -113 122h-57v73h59c28 0 51.5 10.333 70.5 31s28.5 50.334 28.5 89.001
c0 40 -8.83301 70 -26.5 90s-40.167 30 -67.5 30c-28.667 0 -51.667 -10.5 -69 -31.5s-26 -51.833 -26 -92.5v-9h-84v18c0 37.333 7.5 70.166 22.5 98.499s36 50.333 63 66s57.833 23.5 92.5 23.5c54.667 0 98.167 -16.333 130.5 -49s48.5 -79 48.5 -139
c0 -38 -7.83301 -69.167 -23.5 -93.5s-37.5 -44.5 -65.5 -60.5v-4c30.667 -11.333 55.167 -31.333 73.5 -60s27.5 -64.667 27.5 -108c0 -60 -17.333 -107.667 -52 -143s-80 -53 -136 -53c-61.333 0 -108.833 18.5 -142.5 55.5z" />
    <glyph glyph-name="four" unicode="4" 
d="M285 169h-264.997v74c36 66 69.667 138.833 101 218.5s57 158.5 77 236.5h83c-11.333 -56.667 -28.833 -116.334 -52.5 -179.001s-47.834 -119.167 -72.501 -169.5s-44.334 -86.166 -59.001 -107.499h188v216c9.33301 22 16.666 42.5 21.999 61.5s12 44.5 20 76.5h40
v-354h70v-73h-70v-169h-82v169z" />
    <glyph glyph-name="five" unicode="5" 
d="M92 48.5c-34.667 40.333 -51.998 95.167 -51.998 164.5h85c0 -46 10.167 -83 30.5 -111s45.833 -42 76.5 -42c32 0 57.667 14 77 42s29 68.667 29 122c0 46.667 -9 83 -27 109s-42 39 -72 39c-21.333 0 -41.166 -7.16699 -59.499 -21.5s-32.5 -33.5 -42.5 -57.5l-78 13
l23 380h312v-84h-241l-13 -209c35.333 35.333 75.666 53 120.999 53c47.333 0 86.166 -19 116.499 -57s45.5 -93 45.5 -165c0 -74.667 -17 -132.667 -51 -174s-80.667 -62 -140 -62c-58.667 0 -105.334 20.167 -140.001 60.5z" />
    <glyph glyph-name="six" unicode="6" 
d="M89.5 64.5c-33 51 -49.5 137.168 -49.5 258.501c0 93.333 7.5 167.5 22.5 222.5s36.5 94.167 64.5 117.5s63 35 105 35c56 0 97.667 -20.333 125 -61s41 -94.667 41 -162h-83c0 48 -7.33301 85 -22 111s-36.334 39 -65.001 39c-39.333 0 -66.333 -21.5 -81 -64.5
s-22.334 -107.833 -23.001 -194.5c14.667 20.667 32.334 36.667 53.001 48s43.334 17 68.001 17c55.333 0 97.666 -20.667 126.999 -62s44 -94.333 44 -159c0 -44.667 -7.66699 -83.834 -23 -117.501s-36.666 -59.5 -63.999 -77.5s-58 -27 -92 -27
c-65.333 0 -114.5 25.5 -147.5 76.5zM306.5 103.001c17 28 25.5 63.667 25.5 107s-8.5 79 -25.5 107s-41.833 42 -74.5 42s-57.667 -14 -75 -42s-26 -63.667 -26 -107s8.66699 -79 26 -107s42.333 -42 75 -42s57.5 14 74.5 42z" />
    <glyph glyph-name="seven" unicode="7" 
d="M177.5 313c39 102.667 86.5 198.999 142.5 288.999h-287v84h390v-53c-59.333 -90 -109.5 -184.667 -150.5 -284s-61.5 -198.666 -61.5 -297.999c0 -18 0.333008 -35 1 -51h-93c0 106 19.5 210.333 58.5 313z" />
    <glyph glyph-name="eight" unicode="8" 
d="M86.5 43.5c-31 37 -46.4971 85.167 -46.4971 144.5c0 80 29.333 134.667 88 164c-24 16 -42.333 37.5 -55 64.5s-19 57.167 -19 90.5c0 55.333 15.167 101 45.5 137s73.166 54 128.499 54s98.166 -18 128.499 -54s45.5 -81.667 45.5 -137
c0 -33.333 -6.33301 -63.5 -19 -90.5s-31.334 -48.5 -56.001 -64.5c59.333 -29.333 89 -84 89 -164c0 -59.333 -15.5 -107.5 -46.5 -144.5s-78.167 -55.5 -141.5 -55.5s-110.5 18.5 -141.5 55.5zM295.503 419c17 21.333 25.5 50.333 25.5 87s-8.5 65.667 -25.5 87
s-39.5 32 -67.5 32s-50.333 -10.667 -67 -32s-25 -50.333 -25 -87s8.33301 -65.667 25 -87s39 -32 67 -32s50.5 10.667 67.5 32zM305.003 95c18 22.667 27 53.667 27 93s-9 70.166 -27 92.499s-43.667 33.5 -77 33.5s-59 -11.167 -77 -33.5s-27 -53.166 -27 -92.499
s9 -70.333 27 -93s43.667 -34 77 -34s59 11.333 77 34z" />
    <glyph glyph-name="nine" unicode="9" 
d="M100 49c-28 40.667 -42.001 94.6641 -42.001 161.997h83c0 -48 7.66699 -85 23 -111s38 -39 68 -39c37.333 0 63 21.333 77 64s21.667 107.334 23 194.001c-32 -42.667 -72.333 -64 -121 -64c-55.333 0 -97.666 20.667 -126.999 62s-44 94.333 -44 159
c0 44.667 7.66699 83.834 23 117.501s36.666 59.5 63.999 77.5s58 27 92 27c65.333 0 114.5 -25.5 147.5 -76.5s49.5 -137.167 49.5 -258.5c0 -92.667 -7.33301 -166.667 -22 -222s-35.667 -94.666 -63 -117.999s-61.666 -35 -102.999 -35c-57.333 0 -100 20.333 -128 61z
M298.999 368.997c17.333 28 26 63.667 26 107s-8.66699 79 -26 107s-42.333 42 -75 42s-57.5 -14 -74.5 -42s-25.5 -63.667 -25.5 -107s8.5 -79 25.5 -107s41.833 -42 74.5 -42s57.667 14 75 42z" />
    <glyph glyph-name="colon" unicode=":" horiz-adv-x="228" 
d="M64 526h100v-108h-100v108zM64 108h100v-108h-100v108z" />
    <glyph glyph-name="semicolon" unicode=";" horiz-adv-x="228" 
d="M64 526h100v-108h-100v108zM104 0h-40v108h100v-99l-48 -133h-52z" />
    <glyph glyph-name="less" unicode="&#x3c;" horiz-adv-x="479" 
d="M44 200v107l392 197v-90l-311 -160l311 -160v-90z" />
    <glyph glyph-name="equal" unicode="=" horiz-adv-x="479" 
d="M43 402h392v-84h-392v84zM43 189h392v-83h-392v83z" />
    <glyph glyph-name="greater" unicode="&#x3e;" horiz-adv-x="479" 
d="M44 94l311 160l-311 160v90l392 -197v-107l-392 -196v90z" />
    <glyph glyph-name="question" unicode="?" 
d="M192 236c0 30 5.33301 54.667 16 74s26.667 40.666 48 63.999c20.667 23.333 36.167 44.5 46.5 63.5s15.5 42.833 15.5 71.5c0 25.333 -6.16699 50.333 -18.5 75s-35.833 37 -70.5 37c-37.333 0 -62.5 -14 -75.5 -42s-19.5 -59 -19.5 -93
c0 -7.33301 0.166992 -13.333 0.5 -18s0.5 -7.66699 0.5 -9h-89c-0.666992 2.66699 -1.33398 7.33398 -2.00098 14.001s-1 13.667 -1 21c0 59.333 16.667 108.166 50 146.499s81 57.5 143 57.5c32.667 0 62.167 -7.5 88.5 -22.5s47 -36 62 -63s22.5 -57.833 22.5 -92.5
c0 -33.333 -3.66699 -61.833 -11 -85.5s-16.166 -42.667 -26.499 -57s-23.5 -30.166 -39.5 -47.499c-18 -19.333 -31.333 -36.5 -40 -51.5s-13 -34.167 -13 -57.5v-41h-87v56zM185 108h100v-108h-100v108z" />
    <glyph glyph-name="at" unicode="@" horiz-adv-x="832" 
d="M136.5 -51c-61 68 -91.498 172.336 -91.498 313.003c0 102 17 185.5 51 250.5s79.5 112.167 136.5 141.5s121.833 44 194.5 44c109.333 0 196.5 -30.833 261.5 -92.5s97.5 -156.5 97.5 -284.5c0 -70.667 -9.66699 -128.334 -29 -173.001s-43.5 -76.834 -72.5 -96.501
s-58.167 -29.5 -87.5 -29.5c-26.667 0 -47 5.33301 -61 16s-23.333 26 -28 46h-4c-12.667 -20 -29.167 -35.5 -49.5 -46.5s-42.833 -16.5 -67.5 -16.5c-32 0 -60.833 9.66699 -86.5 29s-38.5 54.333 -38.5 105c0 61.333 20.833 103.333 62.5 126s101.5 34 179.5 34v62
c0 25.333 -5.5 44.666 -16.5 57.999s-30.833 20 -59.5 20c-26 0 -44.667 -7.33301 -56 -22s-17 -32.667 -17 -54v-11h-74c-0.666992 4 -1 10.667 -1 20c0 42.667 14 75.5 42 98.5s65.333 34.5 112 34.5c47.333 0 83.166 -11.5 107.499 -34.5s36.5 -56.167 36.5 -99.5v-262
c0 -25.333 11.333 -38 34 -38c31.333 0 58.5 18.167 81.5 54.5s34.5 96.5 34.5 180.5c0 109.333 -27 190.166 -81 242.499s-127.667 78.5 -221 78.5c-102 0 -181.333 -32.167 -238 -96.5s-85 -159.5 -85 -285.5c0 -120 24 -209.833 72 -269.5s121.333 -89.5 220 -89.5
c22 0 48.5 3.16699 79.5 9.5s54.5 13.833 70.5 22.5v-60c-18 -7.33301 -42.333 -13.666 -73 -18.999s-56.334 -8 -77.001 -8c-111.333 0 -197.5 34 -258.5 102zM474.002 118.503c20 21 30 49.833 30 86.5v44c-54.667 0 -95.667 -6.16699 -123 -18.5s-41 -35.833 -41 -70.5
c0 -26.667 5.33301 -45.5 16 -56.5s27 -16.5 49 -16.5c26 0 49 10.5 69 31.5z" />
    <glyph glyph-name="A" unicode="A" horiz-adv-x="547" 
d="M217 686h113l218 -686h-95l-47 153h-272l-47 -153h-88zM381 233l-92.9961 305c-2.66699 9.33301 -5.83398 22.833 -9.50098 40.5s-5.83398 29.5 -6.50098 35.5h-4c-0.666992 -6 -2.83398 -17.833 -6.50098 -35.5s-6.83398 -31.167 -9.50098 -40.5l-94 -305h223z" />
    <glyph glyph-name="B" unicode="B" horiz-adv-x="547" 
d="M65 686l260 -0.000976562c51.333 0 93.666 -15.5 126.999 -46.5s50 -71.5 50 -121.5c0 -38 -9.83301 -71.167 -29.5 -99.5s-44.834 -47.833 -75.501 -58.5v-4c35.333 -10.667 64.333 -31.667 87 -63s34 -68.333 34 -111c0 -37.333 -8.66699 -69.666 -26 -96.999
s-40.666 -48.333 -69.999 -63s-61.666 -22 -96.999 -22h-260v686zM299 390.999c32.667 0 59.334 10.5 80.001 31.5s31 46.5 31 76.5c0 35.333 -9.33301 62 -28 80s-44.334 27 -77.001 27h-152v-215h146zM313 79.999c33.333 0 60.5 10 81.5 30s31.5 48 31.5 84
c0 32 -11 59.5 -33 82.5s-50.667 34.5 -86 34.5h-154v-231h160z" />
    <glyph glyph-name="C" unicode="C" horiz-adv-x="592" 
d="M42 343c0 236.667 90 354.997 270 354.997c72.667 0 130.667 -22.167 174 -66.5s65 -108.833 65 -193.5h-90c0 58.667 -13.333 103.167 -40 133.5s-63 45.5 -109 45.5c-60 0 -104.667 -20.667 -134 -62s-44 -103.666 -44 -186.999v-50
c0 -83.333 14.667 -145.666 44 -186.999s74 -62 134 -62c47.333 0 84.5 15 111.5 45s40.5 74 40.5 132h87c0 -85.333 -21.5 -149.666 -64.5 -192.999s-101.167 -65 -174.5 -65c-180 0 -270 118.333 -270 355z" />
    <glyph glyph-name="D" unicode="D" horiz-adv-x="592" 
d="M70 686l213 0.000976562c82 0 145.833 -28.333 191.5 -85s68.5 -139.334 68.5 -248.001c0 -116 -22.667 -203.833 -68 -263.5s-109.333 -89.5 -192 -89.5h-213v686zM275 80.001c55.333 0 98.5 20.832 129.5 62.499s46.5 103.5 46.5 185.5v50
c0 74.667 -15.5 131.334 -46.5 170.001s-74.167 58 -129.5 58h-117v-526h117z" />
    <glyph glyph-name="E" unicode="E" horiz-adv-x="547" 
d="M70 686h423v-80h-335v-215h291v-80h-291v-231h341v-80h-429v686z" />
    <glyph glyph-name="F" unicode="F" horiz-adv-x="501" 
d="M70 686h396v-80h-308v-222h272v-80h-272v-304h-88v686z" />
    <glyph glyph-name="G" unicode="G" horiz-adv-x="638" 
d="M305 357l267.997 0.00195312v-357h-58l-19 76c-40 -58.667 -99 -88 -177 -88c-87.333 0 -154.166 29.667 -200.499 89s-69.5 148 -69.5 266c0 116.667 24 205 72 265s115.667 90 203 90c74.667 0 134.834 -21 180.501 -63s68.5 -103 68.5 -183h-90
c0 55.333 -14.167 96.666 -42.5 123.999s-67.166 41 -116.499 41c-58 0 -103 -21 -135 -63s-48 -104 -48 -186v-50c0 -82.667 15.167 -144.834 45.5 -186.501s74.5 -62.5 132.5 -62.5c56.667 0 98.167 16 124.5 48s39.5 81 39.5 147v16h-178v77z" />
    <glyph glyph-name="H" unicode="H" horiz-adv-x="592" 
d="M70 686h88v-295h276v295h88v-686h-88v311h-276v-311h-88v686z" />
    <glyph glyph-name="I" unicode="I" horiz-adv-x="228" 
d="M70 686h88v-686h-88v686z" />
    <glyph glyph-name="J" unicode="J" horiz-adv-x="410" 
d="M56.5 33c-29 30 -43.498 73.333 -43.498 130v45h88v-50c0 -28.667 6.66699 -50.667 20 -66s32.666 -23 57.999 -23s44.666 7.66699 57.999 23s20 37.333 20 66v528h88v-523c0 -56.667 -14.5 -100 -43.5 -130s-69.833 -45 -122.5 -45s-93.5 15 -122.5 45z" />
    <glyph glyph-name="K" unicode="K" horiz-adv-x="547" 
d="M70 686h88v-363l272 363h98l-206 -277l213 -409h-100l-167 335l-110 -122v-213h-88v686z" />
    <glyph glyph-name="L" unicode="L" 
d="M70 686h88v-606h280v-80h-368v686z" />
    <glyph glyph-name="M" unicode="M" horiz-adv-x="683" 
d="M62 686h134.002l121 -450c5.33301 -20.667 10.166 -48.667 14.499 -84l8.5 -70h4c0.666992 11.333 3.16699 34.833 7.5 70.5s9.16602 63.5 14.499 83.5l122 450h133v-686h-88v498c0 10 1 28 3 54l4 52h-4c-2 -8.66699 -5.66699 -26 -11 -52s-9.33301 -44 -12 -54
l-137 -498h-79l-137 498c-4 16.667 -8 36.167 -12 58.5s-7 38.166 -9 47.499h-4c0.666992 -9.33301 1.66699 -25.166 3 -47.499s2.33301 -41.833 3 -58.5v-498h-79v686z" />
    <glyph glyph-name="N" unicode="N" horiz-adv-x="592" 
d="M70 686h76l255 -431c6 -10.667 13.833 -26.834 23.5 -48.501s15.834 -36.167 18.501 -43.5l3 1c0 7.33301 -0.5 20.333 -1.5 39s-1.5 36 -1.5 52v431h79v-686h-73l-257 437c-7.33301 12 -15.833 28.667 -25.5 50s-15.834 35.333 -18.501 42l-3 -1
c0.666992 -6.66699 1.5 -19.167 2.5 -37.5s1.5 -36.166 1.5 -53.499v-437h-79v686z" />
    <glyph glyph-name="O" unicode="O" horiz-adv-x="638" 
d="M120 78c-47.333 60 -71 148.333 -71 265s23.667 205 71 265s113.666 90 198.999 90s151.666 -30 198.999 -90s71 -148.333 71 -265s-23.667 -205 -71 -265s-113.666 -90 -198.999 -90s-151.666 30 -198.999 90zM450 132c31.333 42 47 104 47 186v50
c0 82 -15.667 144 -47 186s-75 63 -131 63s-99.667 -21 -131 -63s-47 -104 -47 -186v-50c0 -82 15.667 -144 47 -186s75 -63 131 -63s99.667 21 131 63z" />
    <glyph glyph-name="P" unicode="P" horiz-adv-x="547" 
d="M70 686h245c66 0 116.667 -18 152 -54s53 -84.667 53 -146s-18.5 -110.5 -55.5 -147.5s-86.833 -55.5 -149.5 -55.5h-157v-283h-88v686zM312 363c34.667 0 62.667 11.1689 84 33.502s32 52.166 32 89.499s-10 66.666 -30 87.999s-48.667 32 -86 32h-154v-243h154z" />
    <glyph glyph-name="Q" unicode="Q" horiz-adv-x="638" 
d="M331 -12h-11.999c-85.333 0 -151.666 30 -198.999 90s-71 148.333 -71 265s23.667 205 71 265s113.666 90 198.999 90s151.666 -30 198.999 -90s71 -148.333 71 -265c0 -89.333 -14 -162.333 -42 -219s-68.333 -95.667 -121 -117l142 -131h-118zM450.001 132
c31.333 42 47 104 47 186v50c0 82 -15.667 144 -47 186s-75 63 -131 63s-99.667 -21 -131 -63s-47 -104 -47 -186v-50c0 -82 15.667 -144 47 -186s75 -63 131 -63s99.667 21 131 63z" />
    <glyph glyph-name="R" unicode="R" horiz-adv-x="592" 
d="M70 686h276c66 0 116.667 -17.167 152 -51.5s53 -80.5 53 -138.5c0 -42.667 -10.667 -79.667 -32 -111s-51.333 -53.333 -90 -66l138 -319h-98l-127 303h-184v-303h-88v686zM343 383c34.667 0 62.667 10.333 84 31s32 48 32 82c0 34.667 -10 61.667 -30 81
s-48.667 29 -86 29h-185v-223h185z" />
    <glyph glyph-name="S" unicode="S" horiz-adv-x="547" 
d="M105.5 38c-43 33.333 -64.501 85.3311 -64.501 155.998l1 20h91l-1 -21c0 -40.667 12.5 -71.5 37.5 -92.5s57.833 -31.5 98.5 -31.5c46 0 81.5 9.83301 106.5 29.5s37.5 47.834 37.5 84.501c0 24.667 -6.83301 44.834 -20.5 60.501s-30.667 28.167 -51 37.5
s-48.166 19.666 -83.499 30.999c-43.333 14.667 -78.333 28.667 -105 42s-49.5 32.833 -68.5 58.5s-28.5 59.5 -28.5 101.5c0 60 20.333 105.667 61 137s93 47 157 47s115.833 -15.833 155.5 -47.5s59.5 -80.167 59.5 -145.5v-12h-91v15c0 34 -11.5 60.667 -34.5 80
s-52.167 29 -87.5 29c-38 0 -68.667 -8.16699 -92 -24.5s-35 -40.166 -35 -71.499c0 -23.333 6.66699 -42.5 20 -57.5s30 -27 50 -36s47.333 -19.167 82 -30.5c44 -14.667 79.5 -28.5 106.5 -41.5s50 -32.333 69 -58s28.5 -58.834 28.5 -99.501
c0 -73.333 -20.833 -126.666 -62.5 -159.999s-98.167 -50 -169.5 -50c-68 0 -123.5 16.667 -166.5 50z" />
    <glyph glyph-name="T" unicode="T" horiz-adv-x="501" 
d="M206 606h-187v80h462v-80h-187v-606h-88v606z" />
    <glyph glyph-name="U" unicode="U" horiz-adv-x="592" 
d="M129.5 48.5c-39.667 40.333 -59.498 98.5 -59.498 174.5v463h88v-468c0 -48 12.167 -84.833 36.5 -110.5s58.166 -38.5 101.499 -38.5s77.166 12.833 101.499 38.5s36.5 62.5 36.5 110.5v468h88v-463c0 -76 -19.833 -134.167 -59.5 -174.5s-95.167 -60.5 -166.5 -60.5
s-126.833 20.167 -166.5 60.5z" />
    <glyph glyph-name="V" unicode="V" horiz-adv-x="547" 
d="M8 686h97l170 -589h4l175 589h85l-209 -686h-113z" />
    <glyph glyph-name="W" unicode="W" horiz-adv-x="774" 
d="M10 686l92.999 0.00195312l105 -474c4 -16.667 8.16699 -39 12.5 -67l8.5 -55h4c0.666992 7.33301 2.5 22.166 5.5 44.499s6.83301 48.166 11.5 77.499l79 474h122l85 -474c4 -20.667 7.83301 -44.167 11.5 -70.5s5.83398 -43.5 6.50098 -51.5h4l8.5 53.5
c4.33301 27 8.5 49.833 12.5 68.5l105 474h80l-159 -686h-114l-84 465c-3.33301 19.333 -7 44.666 -11 75.999l-8 62h-4l-8 -62c-4 -31.333 -7.66699 -56.666 -11 -75.999l-82 -465h-114z" />
    <glyph glyph-name="X" unicode="X" horiz-adv-x="547" 
d="M223 356l-199 330h104l147 -245h1l151 245h94l-199 -322l221 -364h-104l-168 280h-1l-172 -280h-94z" />
    <glyph glyph-name="Y" unicode="Y" horiz-adv-x="547" 
d="M230 284l-222 402h97l174 -318h4l171 318h85l-221 -402v-284h-88v284z" />
    <glyph glyph-name="Z" unicode="Z" horiz-adv-x="501" 
d="M20 38l326 568h-305v80h431v-38l-327 -568h334v-80h-459v38z" />
    <glyph glyph-name="bracketleft" unicode="[" horiz-adv-x="228" 
d="M49 735h159v-65h-83v-766h83v-65h-159v896z" />
    <glyph glyph-name="backslash" unicode="\" horiz-adv-x="228" 
d="M1 735h70l157 -784h-71z" />
    <glyph glyph-name="bracketright" unicode="]" horiz-adv-x="228" 
d="M20 -96h83v766h-83v65h159v-896h-159v65z" />
    <glyph glyph-name="asciicircum" unicode="^" horiz-adv-x="385" 
d="M140 686h107l137 -392h-90l-101 315l-99 -315h-90z" />
    <glyph glyph-name="underscore" unicode="_" 
d="M0 -71h455v-53h-455v53z" />
    <glyph glyph-name="grave" unicode="`" horiz-adv-x="273" 
d="M27 720l1 3h90l86 -132h-69z" />
    <glyph glyph-name="a" unicode="a" 
d="M76 20c-28 21.333 -42.0039 59.999 -42.0039 115.999c0 67.333 22.833 113.5 68.5 138.5s111.5 37.5 197.5 37.5v68c0 27.333 -6 48.333 -18 63s-33.667 22 -65 22c-28.667 0 -49.334 -8 -62.001 -24s-19 -35.667 -19 -59v-12h-81c-0.666992 4 -1 11.333 -1 22
c0 46.667 15.333 82.667 46 108s71.667 38 123 38c52.667 0 92.334 -12.667 119.001 -38s40 -61.666 40 -108.999v-295c0 -11.333 2.66699 -20 8 -26s12 -9 20 -9h32v-57c-14.667 -8 -32.667 -12 -54 -12s-39.166 5.83301 -53.499 17.5s-24.166 27.5 -29.499 47.5h-5
c-13.333 -22 -31.166 -39 -53.499 -51s-47.166 -18 -74.499 -18c-36 0 -68 10.667 -96 32zM242.996 75.999c16.667 10 30.333 24.833 41 44.5s16 43.167 16 70.5v48c-60 0 -105 -6.83301 -135 -20.5s-45 -39.5 -45 -77.5c0 -28.667 5.83301 -49.167 17.5 -61.5
s29.5 -18.5 53.5 -18.5c18 0 35.333 5 52 15z" />
    <glyph glyph-name="b" unicode="b" 
d="M187 6.5c-20 12.333 -36.333 30.499 -49 54.499h-5l-11 -61h-62v723h82v-247h5c8.66699 19.333 23 34.5 43 45.5s43 16.5 69 16.5c46.667 0 84.5 -23 113.5 -69s43.5 -114.333 43.5 -205c0 -93.333 -14.167 -162.666 -42.5 -207.999s-68.5 -68 -120.5 -68
c-24 0 -46 6.16699 -66 18.5zM307 103.999c15.333 28.667 23 75.332 23 139.999v38c0 64.667 -7.66699 111.334 -23 140.001s-39 43 -71 43c-62.667 0 -94 -62.333 -94 -187v-34c0 -122 31.333 -183 94 -183c32 0 55.667 14.333 71 43z" />
    <glyph glyph-name="c" unicode="c" horiz-adv-x="410" 
d="M79.5 54.5c-29 44.333 -43.499 113.832 -43.499 208.499s14.667 164.167 44 208.5s74.666 66.5 135.999 66.5c56 0 96.833 -17.333 122.5 -52s38.5 -86.334 38.5 -155.001h-85c0 47.333 -5.5 81.5 -16.5 102.5s-30.833 31.5 -59.5 31.5c-32 0 -55.667 -15.167 -71 -45.5
s-23 -76.166 -23 -137.499v-38c0 -61.333 7.5 -107.166 22.5 -137.499s38.833 -45.5 71.5 -45.5c28.667 0 49.167 11 61.5 33s18.5 55.667 18.5 101h81c0 -60 -13.167 -109.5 -39.5 -148.5s-66.833 -58.5 -121.5 -58.5c-62 0 -107.5 22.167 -136.5 66.5z" />
    <glyph glyph-name="d" unicode="d" 
d="M82.5 56c-28.333 45.333 -42.5 114.667 -42.5 208c0 90.667 14.5 159 43.5 205s66.833 69 113.5 69c26 0 49 -5.5 69 -16.5s34.333 -26.167 43 -45.5h5v247h82v-723h-62l-11 61h-5c-12.667 -24 -29 -42.167 -49 -54.5s-42 -18.5 -66 -18.5
c-52 0 -92.167 22.667 -120.5 68zM314 244.001v34.002c0 124.667 -31.333 187 -94 187c-32 0 -55.667 -14.333 -71 -43s-23 -75.334 -23 -140.001v-38c0 -64.667 7.66699 -111.334 23 -140.001s39 -43 71 -43c62.667 0 94 61 94 183z" />
    <glyph glyph-name="e" unicode="e" 
d="M91.5 53.5c-33 43.667 -49.5 113.5 -49.5 209.5c0 94 16.333 163.333 49 208s82.334 67 149.001 67c58.667 0 102.167 -19.5 130.5 -58.5s42.5 -101.833 42.5 -188.5v-52h-285c0.666992 -61.333 10.167 -106.333 28.5 -135s47.166 -43 86.499 -43
c26.667 0 48.167 10.667 64.5 32s24.5 50 24.5 86h81c0 -58.667 -15.833 -105.167 -47.5 -139.5s-73.167 -51.5 -124.5 -51.5c-66.667 0 -116.5 21.833 -149.5 65.5zM327 312c0 50 -7.33203 88 -21.999 114s-36.334 39 -65.001 39c-35.333 0 -61.833 -12.5 -79.5 -37.5
s-28.167 -63.5 -31.5 -115.5h198z" />
    <glyph glyph-name="f" unicode="f" horiz-adv-x="228" 
d="M55 453h-46v73h46v84c0 34.667 8.16699 63.5 24.5 86.5s42.833 34.5 79.5 34.5c23.333 0 46.333 -4 69 -12v-57h-44c-31.333 0 -47 -16 -47 -48v-88h91v-73h-91v-453h-82v453z" />
    <glyph glyph-name="g" unicode="g" 
d="M47 -146.5c-22.667 23.667 -34.001 53.5068 -34.001 89.5068c0 26 6.16699 49.167 18.5 69.5s28.833 34.5 49.5 42.5c-13.333 8.66699 -23.833 20 -31.5 34s-11.5 29 -11.5 45c0 20.667 6.66699 39 20 55s31.333 28 54 36c-40.667 33.333 -61 78.666 -61 135.999
c0 55.333 15.333 98.666 46 129.999s72.667 47 126 47c27.333 0 52.666 -6.33301 75.999 -19c21.333 11.333 36.833 24.666 46.5 39.999s15.834 32.666 18.501 51.999h72c0 -32 -7.83301 -59.333 -23.5 -82s-37.167 -37.334 -64.5 -44.001c31.333 -32.667 47 -74 47 -124
c0 -54 -15.167 -96.833 -45.5 -128.5s-71.166 -47.834 -122.499 -48.501h-55c-13.333 0 -24.666 -4.5 -33.999 -13.5s-14 -20.167 -14 -33.5c0 -12.667 4.66699 -23.667 14 -33s20.666 -14 33.999 -14h150c37.333 0 67.333 -11.833 90 -35.5s34 -52.834 34 -87.501
c0 -43.333 -13.5 -79 -40.5 -107s-64.833 -42 -113.5 -42h-149c-41.333 0 -73.333 11.833 -96 35.5zM288.499 281.007c15.667 19.333 23.5 46 23.5 80c0 35.333 -7.83301 62.333 -23.5 81s-37.834 28 -66.501 28s-50.667 -9.66699 -66 -29s-23 -46 -23 -80
c0 -35.333 7.66699 -62.333 23 -81s37.333 -28 66 -28s50.834 9.66699 66.501 29zM300.999 -110.993c17.333 0 32 6 44 18s18 26.667 18 44c0 18 -5.33301 32.667 -16 44s-26 17 -46 17h-145c-20 0 -35.167 -5.66699 -45.5 -17s-15.5 -26 -15.5 -44
s5.33301 -32.833 16 -44.5s25.667 -17.5 45 -17.5h145z" />
    <glyph glyph-name="h" unicode="h" 
d="M60 723h82.001v-252h6c25.333 44.667 64.666 67 117.999 67c42 0 74.167 -12.5 96.5 -37.5s33.5 -65.5 33.5 -121.5v-379h-82v373c0 34 -6.33301 57.833 -19 71.5s-31 20.5 -55 20.5c-27.333 0 -50.5 -13 -69.5 -39s-28.5 -61 -28.5 -105v-321h-82v723z" />
    <glyph glyph-name="i" unicode="i" horiz-adv-x="182" 
d="M50 723h82v-98h-82v98zM50 526h82v-526h-82v526z" />
    <glyph glyph-name="j" unicode="j" horiz-adv-x="182" 
d="M50 723h82v-98h-82v98zM-41 -170v57h44c31.333 0 47 16 47 48v591h82v-587c0 -34.667 -8.16699 -63.5 -24.5 -86.5s-42.833 -34.5 -79.5 -34.5c-23.333 0 -46.333 4 -69 12z" />
    <glyph glyph-name="k" unicode="k" horiz-adv-x="410" 
d="M60 723h82v-441l170 244h91l-155 -216l163 -310h-93l-120 240l-56 -61v-179h-82v723z" />
    <glyph glyph-name="l" unicode="l" horiz-adv-x="182" 
d="M50 723h82v-723h-82v723z" />
    <glyph glyph-name="m" unicode="m" horiz-adv-x="683" 
d="M60 526h61.999l11 -61h6c26 48.667 66 73 120 73c56.667 0 94 -25.333 112 -76c13.333 24.667 31.5 43.5 54.5 56.5s47.5 19.5 73.5 19.5c82.667 0 124 -53 124 -159v-379h-82v373c0 34 -6 57.833 -18 71.5s-28.667 20.5 -50 20.5c-25.333 0 -46.666 -13 -63.999 -39
s-26 -61 -26 -105v-321h-82v373c0 34 -6 57.833 -18 71.5s-28.667 20.5 -50 20.5c-25.333 0 -46.833 -13 -64.5 -39s-26.5 -61 -26.5 -105v-321h-82v526z" />
    <glyph glyph-name="n" unicode="n" 
d="M60 526h62.001l11 -61h6c27.333 48.667 69.666 73 126.999 73c42 0 74.167 -12.5 96.5 -37.5s33.5 -65.5 33.5 -121.5v-379h-82v373c0 34 -6.33301 57.833 -19 71.5s-31 20.5 -55 20.5c-27.333 0 -50.5 -13 -69.5 -39s-28.5 -61 -28.5 -105v-321h-82v526z" />
    <glyph glyph-name="o" unicode="o" 
d="M87.5 55.5c-31.667 45 -47.5 114.167 -47.5 207.5s15.833 162.5 47.5 207.5s78.5 67.5 140.5 67.5s108.833 -22.5 140.5 -67.5s47.5 -114.167 47.5 -207.5s-15.833 -162.5 -47.5 -207.5s-78.5 -67.5 -140.5 -67.5s-108.833 22.5 -140.5 67.5zM330 244v38
c0 122 -34 183 -102 183s-102 -61 -102 -183v-38c0 -122 34 -183 102 -183s102 61 102 183z" />
    <glyph glyph-name="p" unicode="p" 
d="M60 526l61.999 -0.000976562l11 -61h5c12.667 24 29 42.167 49 54.5s42 18.5 66 18.5c52 0 92.167 -22.667 120.5 -68s42.5 -114.666 42.5 -207.999c0 -90.667 -14.5 -159 -43.5 -205s-66.833 -69 -113.5 -69c-25.333 0 -48.166 5.16699 -68.499 15.5
s-34.833 24.5 -43.5 42.5h-5v-219h-82v699zM306.999 103.999c15.333 28.667 23 75.332 23 139.999v38c0 64.667 -7.66699 111.334 -23 140.001s-39 43 -71 43c-62.667 0 -94 -61 -94 -183v-38c0 -122 31.333 -183 94 -183c32 0 55.667 14.333 71 43z" />
    <glyph glyph-name="q" unicode="q" 
d="M314 46l-5.00098 0.000976562c-8.66699 -18 -23.167 -32.167 -43.5 -42.5s-43.166 -15.5 -68.499 -15.5c-46.667 0 -84.5 23 -113.5 69s-43.5 114.333 -43.5 205c0 93.333 14.167 162.666 42.5 207.999s68.5 68 120.5 68c24 0 46 -6.16699 66 -18.5
s36.333 -30.5 49 -54.5h5l11 61h62v-699h-82v219zM313.999 244.001v38.002c0 122 -31.333 183 -94 183c-32 0 -55.667 -14.333 -71 -43s-23 -75.334 -23 -140.001v-38c0 -64.667 7.66699 -111.334 23 -140.001s39 -43 71 -43c62.667 0 94 61 94 183z" />
    <glyph glyph-name="r" unicode="r" horiz-adv-x="273" 
d="M60 526l62 0.000976562l11 -69h6c7.33301 23.333 18.333 42.666 33 57.999s33.334 23 56.001 23c9.33301 0 17.666 -1.16699 24.999 -3.5l14 -4.5v-85h-27c-28.667 0 -52.167 -9.83301 -70.5 -29.5s-27.5 -51.167 -27.5 -94.5v-321h-82v526z" />
    <glyph glyph-name="s" unicode="s" horiz-adv-x="410" 
d="M75 32.5c-28 29.667 -42.0029 66.1689 -42.0029 109.502c0 8 0.166992 13.5 0.5 16.5s0.5 4.83301 0.5 5.5h86v-10c0 -31.333 8 -54.833 24 -70.5s36.667 -23.5 62 -23.5c22.667 0 41.5 6.83301 56.5 20.5s22.5 32.834 22.5 57.501c0 18.667 -4.66699 34 -14 46
s-20.666 21.5 -33.999 28.5s-32 14.833 -56 23.5c-29.333 10 -53 20 -71 30s-33.333 24.833 -46 44.5s-19 45.5 -19 77.5c0 46 14.833 82.5 44.5 109.5s69.5 40.5 119.5 40.5c47.333 0 84.333 -13.833 111 -41.5s40 -61.834 40 -102.501l-1 -19h-85v9
c0 23.333 -5.66699 42.833 -17 58.5s-30 23.5 -56 23.5s-44.333 -7.33301 -55 -22s-16 -31.334 -16 -50.001c0 -22.667 7.83301 -39.5 23.5 -50.5s39.834 -21.833 72.501 -32.5c30 -10.667 54.667 -21.167 74 -31.5s35.833 -25.833 49.5 -46.5s20.5 -48.334 20.5 -83.001
c0 -54 -15.167 -94.5 -45.5 -121.5s-71.166 -40.5 -122.499 -40.5c-56.667 0 -99 14.833 -127 44.5z" />
    <glyph glyph-name="t" unicode="t" horiz-adv-x="228" 
d="M81 24.5c-14.667 23 -22 51.833 -22 86.5v342h-45v73h45l18 146h64v-146h71v-73h-71v-344c0 -32 15.667 -48 47 -48h24v-57c-7.33301 -4 -16.5 -7.33301 -27.5 -10s-21.5 -4 -31.5 -4c-33.333 0 -57.333 11.5 -72 34.5z" />
    <glyph glyph-name="u" unicode="u" 
d="M93.5 25.5c-22.333 25 -33.501 65.5 -33.501 121.5v379h82v-373c0 -34 6.33301 -57.833 19 -71.5s31 -20.5 55 -20.5c27.333 0 50.5 13 69.5 39s28.5 61 28.5 105v321h82v-526h-62l-11 61h-6c-27.333 -48.667 -69.666 -73 -126.999 -73c-42 0 -74.167 12.5 -96.5 37.5z
" />
    <glyph glyph-name="v" unicode="v" horiz-adv-x="410" 
d="M10 526h90l71 -267l36 -133h4l36 136l71 264h83l-151 -526h-89z" />
    <glyph glyph-name="w" unicode="w" horiz-adv-x="592" 
d="M1 526l90 0.00195312l66 -296c4 -18 8.16699 -41.167 12.5 -69.5l8.5 -55.5h4c0.666992 8 2.5 25.167 5.5 51.5s6.5 50.833 10.5 73.5l53 296h95l54 -296c4 -22 7.5 -46.333 10.5 -73s4.83301 -44 5.5 -52h4c0.666992 7.33301 3 23.666 7 48.999
s8.66699 50.666 14 75.999l66 296h83l-131 -526h-91l-55 300c-4 22.667 -7.5 46.667 -10.5 72s-4.83301 41.666 -5.5 48.999h-4c-0.666992 -7.33301 -2.5 -23.666 -5.5 -48.999s-6.5 -49.333 -10.5 -72l-54 -300h-91z" />
    <glyph glyph-name="x" unicode="x" horiz-adv-x="410" 
d="M159 266l-146 260h99l94 -180h1l98 180h92l-147 -253l154 -273h-99l-102 192h-1l-106 -192h-90z" />
    <glyph glyph-name="y" unicode="y" horiz-adv-x="410" 
d="M38 -174v57h29c52.667 0 87.334 39 104.001 117l-161 526h90l89 -314l27 -94h4l23 96l75 312h83l-134 -499c-17.333 -65.333 -39.333 -116.5 -66 -153.5s-61.334 -55.5 -104.001 -55.5c-24 0 -43.667 2.66699 -59 8z" />
    <glyph glyph-name="z" unicode="z" horiz-adv-x="410" 
d="M26 39l231 414h-215v73h328v-38l-232 -415h245v-73h-357v39z" />
    <glyph glyph-name="braceleft" unicode="{" horiz-adv-x="274" 
d="M139 -128c-28 20.667 -42 59.665 -42 116.998v197c0 20.667 -7.66699 35.834 -23 45.501s-33.333 14.5 -54 14.5v84c20.667 0 38.667 4.83301 54 14.5s23 24.834 23 45.501v197c0 57.333 14 96.333 42 117s66.333 31 115 31v-57c-22 0 -40.667 -5.16699 -56 -15.5
s-23 -28.833 -23 -55.5c0 -47.333 -1.66699 -101 -5 -161l-2 -45c-1.33301 -36 -8.66602 -63 -21.999 -81s-35.333 -27 -66 -27v-10c30.667 0 52.667 -9 66 -27s20.666 -45 21.999 -81l2 -45c3.33301 -60 5 -113.667 5 -161c0 -26.667 7.66699 -45.167 23 -55.5
s34 -15.5 56 -15.5v-57c-48.667 0 -87 10.333 -115 31z" />
    <glyph glyph-name="bar" unicode="|" horiz-adv-x="213" 
d="M67 723h79v-896h-79v896z" />
    <glyph glyph-name="braceright" unicode="}" horiz-adv-x="274" 
d="M20 -102c22 0 40.667 5.16895 56 15.502s23 28.833 23 55.5c0 47.333 1.66699 101 5 161l2 45c1.33301 36 8.66602 63 21.999 81s35.333 27 66 27v10c-30.667 0 -52.667 9 -66 27s-20.666 45 -21.999 81l-2 45c-3.33301 60 -5 113.667 -5 161
c0 26.667 -7.66699 45.167 -23 55.5s-34 15.5 -56 15.5v57c48.667 0 87 -10.333 115 -31s42 -59.667 42 -117v-197c0 -20.667 7.66699 -35.834 23 -45.501s33.333 -14.5 54 -14.5v-84c-20.667 0 -38.667 -4.83301 -54 -14.5s-23 -24.834 -23 -45.501v-197
c0 -57.333 -14 -96.333 -42 -117s-66.333 -31 -115 -31v57z" />
    <glyph glyph-name="asciitilde" unicode="~" horiz-adv-x="479" 
d="M35 303c0 2 5 9.33301 15 22s23.833 24.334 41.5 35.001s38.167 16 61.5 16c14 0 27.167 -2.5 39.5 -7.5s27.5 -12.5 45.5 -22.5s33.5 -17.667 46.5 -23s26.833 -8 41.5 -8c20.667 0 39.667 5.33301 57 16s31.833 22.5 43.5 35.5s17.5 20.167 17.5 21.5v-92
c0 -2 -5 -9.33301 -15 -22s-23.833 -24.334 -41.5 -35.001s-38.167 -16 -61.5 -16c-14 0 -27.167 2.5 -39.5 7.5s-27.5 12.5 -45.5 22.5s-33.5 17.667 -46.5 23s-26.833 8 -41.5 8c-20.667 0 -39.667 -5.33301 -57 -16s-31.833 -22.5 -43.5 -35.5s-17.5 -20.167 -17.5 -21.5
v92z" />
    <glyph glyph-name="uni00A0" unicode="&#xa0;" horiz-adv-x="228" 
 />
    <glyph glyph-name="exclamdown" unicode="&#xa1;" horiz-adv-x="273" 
d="M107 526h100v-108h-100v108zM125 355h62l26 -515h-113z" />
    <glyph glyph-name="cent" unicode="&#xa2;" 
d="M210 69c-55.333 6 -96.167 31.166 -122.5 75.499s-39.5 110.5 -39.5 198.5c0 87.333 13.167 153.333 39.5 198s67.166 69.667 122.499 75v107h49v-106c51.333 -4.66699 88.833 -24.167 112.5 -58.5s35.5 -83.5 35.5 -147.5h-85c0 41.333 -4.66699 72.5 -14 93.5
s-25.666 33.833 -48.999 38.5v-400c24 4.66699 41.167 17.834 51.5 39.501s15.5 52.5 15.5 92.5h81c0 -56 -12.167 -103 -36.5 -141s-61.5 -59.667 -111.5 -65v-118h-49v118zM209.999 540.999c-26 -6.66699 -45.167 -25 -57.5 -55s-18.5 -71.333 -18.5 -124v-38
c0 -53.333 6 -94.833 18 -124.5s31.333 -48.167 58 -55.5v397z" />
    <glyph glyph-name="sterling" unicode="&#xa3;" 
d="M30 79h61v225h-72v72h72v123c0 65.333 14 114.833 42 148.5s67.667 50.5 119 50.5c52 0 91.833 -15.167 119.5 -45.5s41.5 -79.833 41.5 -148.5v-13h-82v16c0 78.667 -26.333 118 -79 118c-52 0 -78 -36.667 -78 -110v-139h133v-72h-134l-9 -225h249v-79h-383v79z" />
    <glyph glyph-name="currency" unicode="&#xa4;" 
d="M88 154l-42.999 -43l-48 48l49 49c-23.333 40 -35 84.667 -35 134c0 48 11.667 92.667 35 134l-49 49l48 48l42 -43c19.333 18.667 41 33.167 65 43.5s49.333 15.5 76 15.5c26 0 51 -5.16699 75 -15.5s45.667 -24.833 65 -43.5l43 43l48 -48l-49 -49
c23.333 -41.333 35 -86 35 -134c0 -49.333 -11.667 -94 -35 -134l49 -49l-48 -48l-43 43c-19.333 -18.667 -41 -33 -65 -43s-49 -15 -75 -15c-52.667 0 -99.334 19.333 -140.001 58zM302.001 189c22.667 16 40.667 37.5 54 64.5s20 56.5 20 88.5
c0 32.667 -6.66699 62.5 -20 89.5s-31.333 48.5 -54 64.5s-47.334 24 -74.001 24c-27.333 0 -52.333 -8 -75 -24s-40.667 -37.5 -54 -64.5s-20 -56.833 -20 -89.5c0 -32 6.66699 -61.667 20 -89s31.333 -48.833 54 -64.5s47.667 -23.5 75 -23.5c26.667 0 51.334 8 74.001 24
z" />
    <glyph glyph-name="yen" unicode="&#xa5;" 
d="M184 169h-159v65h159v70h-159v65h128l-151 317h95l136 -293h4l133 293h83l-150 -317h128v-65h-159v-70h159v-65h-159v-169h-88v169z" />
    <glyph glyph-name="brokenbar" unicode="&#xa6;" horiz-adv-x="213" 
d="M67 723h79v-380h-79v380zM67 207h79v-380h-79v380z" />
    <glyph glyph-name="section" unicode="&#xa7;" 
d="M118 -140.5c-26.667 27.667 -40.001 61.8359 -40.001 102.503l1 19h85c0 -30.667 6 -53.5 18 -68.5s30.333 -22.5 55 -22.5c25.333 0 43.5 7.33301 54.5 22s16.5 31.334 16.5 50.001c0 21.333 -4.66699 39.666 -14 54.999s-20.833 28.166 -34.5 38.499
s-32.834 22.5 -57.501 36.5c-29.333 16.667 -52.833 31.834 -70.5 45.501s-32.667 31.834 -45 54.501s-18.5 51 -18.5 85c0 30 6.66699 56.5 20 79.5s30 41.167 50 54.5c-40 34 -60 79.667 -60 137c0 46.667 14.333 83.334 43 110.001s69 40 121 40
c47.333 0 84.333 -13.833 111 -41.5s40 -61.834 40 -102.501l-1 -19h-85c0 30.667 -6 53.5 -18 68.5s-30.333 22.5 -55 22.5c-25.333 0 -43.5 -7.33301 -54.5 -22s-16.5 -31.334 -16.5 -50.001c0 -21.333 4.66699 -39.666 14 -54.999s20.833 -28.166 34.5 -38.499
s32.834 -22.5 57.501 -36.5c29.333 -16.667 52.833 -31.834 70.5 -45.501s32.667 -31.834 45 -54.501s18.5 -51 18.5 -85c0 -30 -6.66699 -56.5 -20 -79.5s-30 -41.5 -50 -55.5c18.667 -16.667 33.334 -35.834 44.001 -57.501s16 -47.834 16 -78.501
c0 -46.667 -14.333 -83.334 -43 -110.001s-69 -40 -121 -40c-47.333 0 -84.333 13.833 -111 41.5zM322.999 218.002c0 24.667 -5.16602 45.668 -15.499 63.001s-22.833 31.5 -37.5 42.5s-35 24.167 -61 39.5l-27 16c-22.667 -17.333 -34 -44.333 -34 -81
c0 -24 5 -44.667 15 -62s22.167 -31.5 36.5 -42.5s34.166 -24.5 59.499 -40.5c9.33301 -4.66699 19 -10.334 29 -17.001c23.333 18.667 35 46 35 82z" />
    <glyph glyph-name="dieresis" unicode="&#xa8;" horiz-adv-x="273" 
d="M18 723h87v-95h-87v95zM168 723h87v-95h-87v95z" />
    <glyph glyph-name="copyright" unicode="&#xa9;" horiz-adv-x="604" 
d="M152 31.5c-42 29 -74.333 70.167 -97 123.5s-34 116 -34 188s11.333 134.667 34 188s55 94.5 97 123.5s92 43.5 150 43.5s108 -14.5 150 -43.5s74.333 -70.167 97 -123.5s34 -116 34 -188s-11.333 -134.667 -34 -188s-55 -94.5 -97 -123.5s-92 -43.5 -150 -43.5
s-108 14.5 -150 43.5zM427 73c35.333 25.333 62.5 61.166 81.5 107.499s28.5 100.5 28.5 162.5s-9.5 116.167 -28.5 162.5s-46.167 82.166 -81.5 107.499s-77 38 -125 38s-89.667 -12.667 -125 -38s-62.5 -61.166 -81.5 -107.499s-28.5 -100.5 -28.5 -162.5
s9.5 -116.167 28.5 -162.5s46.167 -82.166 81.5 -107.499s77 -38 125 -38s89.667 12.667 125 38zM145 348c0 140 53 210 159 210c42.667 0 76.834 -13 102.501 -39s38.5 -64 38.5 -114h-58c0 33.333 -7.33301 58.5 -22 75.5s-35 25.5 -61 25.5
c-34 0 -59.167 -11.667 -75.5 -35s-24.5 -59 -24.5 -107v-30c0 -95.333 33.333 -143 100 -143c26 0 46.667 8.5 62 25.5s23 41.833 23 74.5h56c0 -50 -12.833 -87.833 -38.5 -113.5s-59.834 -38.5 -102.501 -38.5c-106 0 -159 69.667 -159 209z" />
    <glyph glyph-name="ordfeminine" unicode="&#xaa;" horiz-adv-x="303" 
d="M49 383.5c-19.333 14.333 -28.999 40.833 -28.999 79.5c0 46.667 15.333 78.5 46 95.5s75 25.5 133 25.5v43c0 18 -3.83301 31.833 -11.5 41.5s-21.5 14.5 -41.5 14.5c-18.667 0 -32.167 -5.33301 -40.5 -16s-12.5 -23.667 -12.5 -39v-10h-59v17
c0 32 10.5 56.667 31.5 74s48.833 26 83.5 26c36 0 63.167 -8.66699 81.5 -26s27.5 -42 27.5 -74v-198c0 -7.33301 1.66699 -12.833 5 -16.5s7.33301 -5.5 12 -5.5h23v-41c-8.66699 -6 -21.334 -9 -38.001 -9c-14 0 -25.833 3.83301 -35.5 11.5s-16.5 18.167 -20.5 31.5h-2
c-9.33301 -14.667 -21.5 -26 -36.5 -34s-31.833 -12 -50.5 -12c-24.667 0 -46.667 7.16699 -66 21.5zM177.001 437.5c14.667 15 22.001 35.834 22.001 62.501v31c-38.667 0 -67.834 -4.5 -87.501 -13.5s-29.5 -26.167 -29.5 -51.5c0 -18.667 3.83301 -31.834 11.5 -39.501
s19.167 -11.5 34.5 -11.5c18 0 34.333 7.5 49 22.5z" />
    <glyph glyph-name="guillemotleft" unicode="&#xab;" 
d="M54 326l141 200h71l-113 -200l113 -200h-71zM205 326l142 200h70l-112 -200l112 -200h-70z" />
    <glyph glyph-name="logicalnot" unicode="&#xac;" horiz-adv-x="479" 
d="M351 360h-312v93h396v-256h-84v163z" />
    <glyph glyph-name="uni00AD" unicode="&#xad;" horiz-adv-x="273" 
d="M10 319h252v-98h-252v98z" />
    <glyph glyph-name="registered" unicode="&#xae;" horiz-adv-x="604" 
d="M152 31.5c-42 29 -74.333 70.167 -97 123.5s-34 116 -34 188s11.333 134.667 34 188s55 94.5 97 123.5s92 43.5 150 43.5s108 -14.5 150 -43.5s74.333 -70.167 97 -123.5s34 -116 34 -188s-11.333 -134.667 -34 -188s-55 -94.5 -97 -123.5s-92 -43.5 -150 -43.5
s-108 14.5 -150 43.5zM427 73c35.333 25.333 62.5 61.166 81.5 107.499s28.5 100.5 28.5 162.5s-9.5 116.167 -28.5 162.5s-46.167 82.166 -81.5 107.499s-77 38 -125 38s-89.667 -12.667 -125 -38s-62.5 -61.166 -81.5 -107.499s-28.5 -100.5 -28.5 -162.5
s9.5 -116.167 28.5 -162.5s46.167 -82.166 81.5 -107.499s77 -38 125 -38s89.667 12.667 125 38zM377 221c0 36.667 -6.5 62.834 -19.5 78.501s-28.167 23.5 -45.5 23.5h-81v-175h-57v402h161c30 0 54.667 -9.33301 74 -28s29 -43 29 -73
c0 -23.333 -5.83301 -43.333 -17.5 -60s-26.834 -28 -45.501 -34v-4c12.667 -5.33301 25.834 -16.333 39.501 -33s20.5 -41.334 20.5 -74.001c0 -26.667 2.16699 -45.167 6.5 -55.5s11.5 -17.5 21.5 -21.5v-17c-8 -3.33301 -17.667 -5 -29 -5c-38 0 -57 25.333 -57 76z
M314 376c20 0 35.833 5.83301 47.5 17.5s17.5 26.5 17.5 44.5c0 18.667 -5.66699 33.167 -17 43.5s-26.333 15.5 -45 15.5h-86v-121h83z" />
    <glyph glyph-name="macron" unicode="&#xaf;" horiz-adv-x="273" 
d="M12 671h250v-72h-250v72z" />
    <glyph glyph-name="degree" unicode="&#xb0;" horiz-adv-x="400" 
d="M130 446c-20.667 12 -37 28.333 -49 49s-18 43.334 -18 68.001s6 47.334 18 68.001s28.333 37 49 49s43.334 18 68.001 18s47.334 -6 68.001 -18s37 -28.333 49 -49s18 -43.334 18 -68.001s-6 -47.334 -18 -68.001s-28.333 -37 -49 -49s-43.334 -18 -68.001 -18
s-47.334 6 -68.001 18zM255.5 505c15.667 16 23.5 35.333 23.5 58s-7.83301 41.834 -23.5 57.501s-34.834 23.5 -57.501 23.5s-42 -7.83301 -58 -23.5s-24 -34.834 -24 -57.501s8 -42 24 -58s35.333 -24 58 -24s41.834 8 57.501 24z" />
    <glyph glyph-name="plusminus" unicode="&#xb1;" horiz-adv-x="549" 
d="M232 310h-154v84h154v184h83v-184h155v-84h-155v-183h-83v183zM78 83h392v-83h-392v83z" />
    <glyph glyph-name="uni00B2" unicode="&#xb2;" horiz-adv-x="273" 
d="M24 338c0 28 6.99902 53.165 20.999 75.498s34.667 48.166 62 77.499c26 27.333 45.5 50.833 58.5 70.5s19.5 41.167 19.5 64.5c0 13.333 -3.5 25 -10.5 35s-18.5 15 -34.5 15s-27.833 -6.16699 -35.5 -18.5s-11.5 -28.166 -11.5 -47.499v-31h-63
c0 2 -0.333008 5.83301 -1 11.5s-1 11.834 -1 18.501c0 42 10.667 73.5 32 94.5s48.333 31.5 81 31.5s59.167 -9 79.5 -27s30.5 -45.333 30.5 -82c0 -29.333 -8.33301 -57.166 -25 -83.499s-39.667 -55.5 -69 -87.5c-4 -4.66699 -10.333 -11.5 -19 -20.5
s-16.167 -17.5 -22.5 -25.5s-11.166 -16 -14.499 -24h151v-63h-228v16z" />
    <glyph glyph-name="uni00B3" unicode="&#xb3;" horiz-adv-x="273" 
d="M54 349.5c-20.667 22.333 -31 52.835 -31 91.502v11h64v-13c0 -44 16.667 -66 50 -66c17.333 0 30.833 5.33301 40.5 16s14.5 27 14.5 49c0 41.333 -18.667 62 -56 62h-35v57h36c14 0 25.667 5.16699 35 15.5s14 25.166 14 44.499c0 20 -4.33301 35.167 -13 45.5
s-19.667 15.5 -33 15.5c-14 0 -25.333 -5.33301 -34 -16s-13 -26.334 -13 -47.001v-13h-63v18c0 34.667 10.167 62.5 30.5 83.5s46.5 31.5 78.5 31.5c33.333 0 60 -10 80 -30s30 -48.333 30 -85c0 -21.333 -4 -39 -12 -53s-20 -26 -36 -36c16 -8.66699 29 -21.167 39 -37.5
s15 -35.833 15 -58.5c0 -36.667 -10.5 -65.667 -31.5 -87s-48.5 -32 -82.5 -32c-37.333 0 -66.333 11.167 -87 33.5z" />
    <glyph glyph-name="acute" unicode="&#xb4;" horiz-adv-x="273" 
d="M154 723h90l1 -3l-108 -129h-69z" />
    <glyph glyph-name="uni00B5" unicode="&#xb5;" 
d="M60 526h81.999v-384c0 -30 6.5 -51 19.5 -63s31.167 -18 54.5 -18c27.333 0 50.5 13 69.5 39s28.5 61 28.5 105v321h82v-526h-62l-11 61h-6c-27.333 -48.667 -69.666 -73 -126.999 -73c-18.667 0 -34.667 2.33301 -48 7v-168h-82v699z" />
    <glyph glyph-name="paragraph" unicode="&#xb6;" horiz-adv-x="440" 
d="M187 250c-32 4 -60.8311 16.1689 -86.498 36.502s-45.834 46.166 -60.501 77.499s-22 65.666 -22 102.999c0 40 8.5 76.667 25.5 110s40.167 59.833 69.5 79.5s61.666 29.5 96.999 29.5h209v-61h-48v-798h-66v798h-53v-798h-65v423z" />
    <glyph glyph-name="periodcentered" unicode="&#xb7;" horiz-adv-x="228" 
d="M63 399h101v-111h-101v111z" />
    <glyph glyph-name="cedilla" unicode="&#xb8;" horiz-adv-x="273" 
d="M36 -174v48.999h76c12 0 21 1.83301 27 5.5s9 9.83398 9 18.501c0 8 -2.5 14 -7.5 18s-13.833 6 -26.5 6h-33l14 88h55l-7 -47c54 -4 81 -25.667 81 -65c0 -30 -10.667 -51 -32 -63s-45.333 -18 -72 -18c-30.667 0 -58.667 2.66699 -84 8z" />
    <glyph glyph-name="uni00B9" unicode="&#xb9;" horiz-adv-x="273" 
d="M40 380h79v258h-80v43c16 2 35.167 7.16699 57.5 15.5s40.833 17.5 55.5 27.5h29v-344h73v-58h-214v58z" />
    <glyph glyph-name="ordmasculine" unicode="&#xba;" horiz-adv-x="299" 
d="M21 548c0 124.667 42.667 187 128 187s128 -62.333 128 -187s-42.667 -187 -128 -187s-128 62.333 -128 187zM216 535v26c0 80.667 -22.333 121 -67 121c-44 0 -66 -40.333 -66 -121v-26c0 -80.667 22 -121 66 -121c44.667 0 67 40.333 67 121z" />
    <glyph glyph-name="guillemotright" unicode="&#xbb;" 
d="M151 326l-112 200h70l142 -200l-142 -200h-70zM303 326l-113 200h71l141 -200l-141 -200h-71z" />
    <glyph glyph-name="onequarter" unicode="&#xbc;" horiz-adv-x="684" 
d="M531 698h62l-415 -710h-63zM32 342h79v258h-80v43c16 2 35.167 7.16699 57.5 15.5s40.833 17.5 55.5 27.5h29v-344h73v-58h-214v58zM540 96h-151v52c42 76 76.667 164.333 104 265h62c-10 -46 -25.167 -94 -45.5 -144s-38.5 -88.667 -54.5 -116h85v91
c18 48 29.667 85 35 111h27v-202h40v-57h-40v-96h-62v96z" />
    <glyph glyph-name="onehalf" unicode="&#xbd;" horiz-adv-x="684" 
d="M520 698h62l-415 -710h-63zM32 342h79v258h-80v43c16 2 35.167 7.16699 57.5 15.5s40.833 17.5 55.5 27.5h29v-344h73v-58h-214v58zM413 16c0 28 6.83203 53.1641 20.499 75.4971s34.167 47.833 61.5 76.5c27.333 29.333 47.333 53.5 60 72.5s19 40.167 19 63.5
c0 13.333 -3.5 25 -10.5 35s-18.5 15 -34.5 15s-27.833 -6.16699 -35.5 -18.5s-11.5 -28.166 -11.5 -47.499v-31h-63c0 2 -0.333008 5.83301 -1 11.5s-1 11.834 -1 18.501c0 42 10.667 73.5 32 94.5s48.333 31.5 81 31.5s59.167 -9 79.5 -27s30.5 -45.333 30.5 -82
c0 -29.333 -8.33301 -57.166 -25 -83.499s-39.667 -55.5 -69 -87.5c-4 -4.66699 -10.333 -11.5 -19 -20.5s-16.167 -17.5 -22.5 -25.5s-11.166 -16 -14.499 -24h151v-63h-228v16z" />
    <glyph glyph-name="threequarters" unicode="&#xbe;" horiz-adv-x="684" 
d="M58 312.5c-20.667 22.333 -31 52.835 -31 91.502v11h64v-13c0 -44 16.667 -66 50 -66c17.333 0 30.833 5.33301 40.5 16s14.5 27 14.5 49c0 41.333 -18.667 62 -56 62h-35v57h36c14 0 25.667 5.16699 35 15.5s14 25.166 14 44.499c0 20 -4.33301 35.167 -13 45.5
s-19.667 15.5 -33 15.5c-14 0 -25.333 -5.33301 -34 -16s-13 -26.334 -13 -47.001v-13h-63v18c0 34.667 10.167 62.5 30.5 83.5s46.5 31.5 78.5 31.5c33.333 0 60 -10 80 -30s30 -48.333 30 -85c0 -21.333 -4 -39 -12 -53s-20 -26 -36 -36c16 -8.66699 29 -21.167 39 -37.5
s15 -35.833 15 -58.5c0 -36.667 -10.5 -65.667 -31.5 -87s-48.5 -32 -82.5 -32c-37.333 0 -66.333 11.167 -87 33.5zM523 698.002h62l-415 -710h-63zM540 96.002h-151v52c42 76 76.667 164.333 104 265h62c-10 -46 -25.167 -94 -45.5 -144s-38.5 -88.667 -54.5 -116h85v91
c18 48 29.667 85 35 111h27v-202h40v-57h-40v-96h-62v96z" />
    <glyph glyph-name="questiondown" unicode="&#xbf;" horiz-adv-x="501" 
d="M194 526h100v-108h-100v108zM156.5 -150c-27 14.667 -48.167 35.166 -63.5 61.499s-23 56.5 -23 90.5c0 31.333 3.5 58.5 10.5 81.5s15.5 41.667 25.5 56s23 30.833 39 49.5c18.667 21.333 32.5 40 41.5 56s13.5 36 13.5 60v41h87v-56c0 -30 -5.33301 -54.833 -16 -74.5
s-26.667 -41.5 -48 -65.5c-20.667 -24 -36.167 -45.5 -46.5 -64.5s-15.5 -43.167 -15.5 -72.5c0 -24 6.66699 -48 20 -72s38 -36 74 -36c35.333 0 59.166 13.833 71.499 41.5s18.5 58.834 18.5 93.501c0 7.33301 -0.166992 13.333 -0.5 18s-0.5 7.66699 -0.5 9h89
c0.666992 -2.66699 1.33398 -7.33398 2.00098 -14.001s1 -13.667 1 -21c0 -61.333 -16.167 -110.666 -48.5 -147.999s-78.833 -56 -139.5 -56c-34 0 -64.5 7.33301 -91.5 22z" />
    <glyph glyph-name="Agrave" unicode="&#xc0;" horiz-adv-x="547" 
d="M156 880l1 3h90l86 -132h-69zM217 686h113l218 -686h-95l-47 153h-272l-47 -153h-88zM381 233l-92.9961 305c-2.66699 9.33301 -5.83398 22.833 -9.50098 40.5s-5.83398 29.5 -6.50098 35.5h-4c-0.666992 -6 -2.83398 -17.833 -6.50098 -35.5
s-6.83398 -31.167 -9.50098 -40.5l-94 -305h223z" />
    <glyph glyph-name="Aacute" unicode="&#xc1;" horiz-adv-x="547" 
d="M300 883h90l1 -3l-108 -129h-69zM217 686h113l218 -686h-95l-47 153h-272l-47 -153h-88zM381 233l-92.9961 305c-2.66699 9.33301 -5.83398 22.833 -9.50098 40.5s-5.83398 29.5 -6.50098 35.5h-4c-0.666992 -6 -2.83398 -17.833 -6.50098 -35.5
s-6.83398 -31.167 -9.50098 -40.5l-94 -305h223z" />
    <glyph glyph-name="Acircumflex" unicode="&#xc2;" horiz-adv-x="547" 
d="M235 882h78l85 -135h-80l-44 79l-45 -79h-80zM217 686h113l218 -686h-95l-47 153h-272l-47 -153h-88zM381 233l-92.9961 305c-2.66699 9.33301 -5.83398 22.833 -9.50098 40.5s-5.83398 29.5 -6.50098 35.5h-4c-0.666992 -6 -2.83398 -17.833 -6.50098 -35.5
s-6.83398 -31.167 -9.50098 -40.5l-94 -305h223z" />
    <glyph glyph-name="Atilde" unicode="&#xc3;" horiz-adv-x="547" 
d="M149 851c14.667 21.333 35.667 32 63 32c10 0 19.333 -1.33301 28 -4s19.334 -6.66699 32.001 -12c24 -9.33301 42.333 -14 55 -14c20 0 31.333 10 34 30h58c0 -26.667 -7.16699 -50.667 -21.5 -72s-35.5 -32 -63.5 -32c-10 0 -19.333 1.33301 -28 4
s-19.334 6.66699 -32.001 12c-22.667 10 -41 15 -55 15c-20 0 -31 -10.333 -33 -31h-59c0 26.667 7.33301 50.667 22 72zM217 686h113l218 -686h-95l-47 153h-272l-47 -153h-88zM381 233l-92.9961 305c-2.66699 9.33301 -5.83398 22.833 -9.50098 40.5
s-5.83398 29.5 -6.50098 35.5h-4c-0.666992 -6 -2.83398 -17.833 -6.50098 -35.5s-6.83398 -31.167 -9.50098 -40.5l-94 -305h223z" />
    <glyph glyph-name="Adieresis" unicode="&#xc4;" horiz-adv-x="547" 
d="M155 883h87v-95h-87v95zM305 883h87v-95h-87v95zM217 686h113l218 -686h-95l-47 153h-272l-47 -153h-88zM381 233l-92.9961 305c-2.66699 9.33301 -5.83398 22.833 -9.50098 40.5s-5.83398 29.5 -6.50098 35.5h-4c-0.666992 -6 -2.83398 -17.833 -6.50098 -35.5
s-6.83398 -31.167 -9.50098 -40.5l-94 -305h223z" />
    <glyph glyph-name="Aring" unicode="&#xc5;" horiz-adv-x="547" 
d="M205.5 751c-19 18.667 -28.499 41.334 -28.499 68.001s9.33301 49.334 28 68.001s41.334 28 68.001 28c27.333 0 50.166 -9.33301 68.499 -28s27.5 -41.334 27.5 -68.001s-9.33301 -49.334 -28 -68.001s-41.334 -28 -68.001 -28c-26 0 -48.5 9.33301 -67.5 28z
M308.501 783c10.333 10 15.5 22 15.5 36s-5.16699 26 -15.5 36s-22.166 15 -35.499 15s-25.166 -5 -35.499 -15s-15.5 -22 -15.5 -36s5.16699 -26 15.5 -36s22.166 -15 35.499 -15s25.166 5 35.499 15zM217.001 686h113l218 -686h-95l-47 153h-272l-47 -153h-88z
M381.001 233l-92.9961 305c-2.66699 9.33301 -5.83398 22.833 -9.50098 40.5s-5.83398 29.5 -6.50098 35.5h-4c-0.666992 -6 -2.83398 -17.833 -6.50098 -35.5s-6.83398 -31.167 -9.50098 -40.5l-94 -305h223z" />
    <glyph glyph-name="AE" unicode="&#xc6;" horiz-adv-x="820" 
d="M279 686h498v-80h-367l49 -215h274v-80h-256l52 -231h254v-80h-330l-34 153h-273l-59 -153h-88zM402 233l-68 310c-2.66699 9.33301 -5 21 -7 35s-3.33301 23 -4 27h-4c-1.33301 -4.66699 -4 -13 -8 -25s-8.33301 -24.333 -13 -37l-121 -310h225z" />
    <glyph glyph-name="Ccedilla" unicode="&#xc7;" horiz-adv-x="592" 
d="M202 -174v48.9961h76c12 0 21 1.83301 27 5.5s9 9.83398 9 18.501c0 8 -2.5 14 -7.5 18s-13.833 6 -26.5 6h-33l11 69c-144 22 -216 139 -216 351c0 236.667 90 355 270 355c72.667 0 130.667 -22.167 174 -66.5s65 -108.833 65 -193.5h-90
c0 58.667 -13.333 103.167 -40 133.5s-63 45.5 -109 45.5c-60 0 -104.667 -20.667 -134 -62s-44 -103.666 -44 -186.999v-50c0 -83.333 14.667 -145.666 44 -186.999s74 -62 134 -62c47.333 0 84.5 15 111.5 45s40.5 74 40.5 132h87
c0 -85.333 -21.5 -149.666 -64.5 -192.999s-101.167 -65 -174.5 -65l-3 -24c54 -4 81 -25.667 81 -65c0 -30 -10.667 -51 -32 -63s-45.333 -18 -72 -18c-30.667 0 -58.667 2.66699 -84 8z" />
    <glyph glyph-name="Egrave" unicode="&#xc8;" horiz-adv-x="547" 
d="M156 880l1 3h90l86 -132h-69zM70 686h423v-80h-335v-215h291v-80h-291v-231h341v-80h-429v686z" />
    <glyph glyph-name="Eacute" unicode="&#xc9;" horiz-adv-x="547" 
d="M300 883h90l1 -3l-108 -129h-69zM70 686h423v-80h-335v-215h291v-80h-291v-231h341v-80h-429v686z" />
    <glyph glyph-name="Ecircumflex" unicode="&#xca;" horiz-adv-x="547" 
d="M235 882h78l85 -135h-80l-44 79l-45 -79h-80zM70 686h423v-80h-335v-215h291v-80h-291v-231h341v-80h-429v686z" />
    <glyph glyph-name="Edieresis" unicode="&#xcb;" horiz-adv-x="547" 
d="M155 883h87v-95h-87v95zM305 883h87v-95h-87v95zM70 686h423v-80h-335v-215h291v-80h-291v-231h341v-80h-429v686z" />
    <glyph glyph-name="Igrave" unicode="&#xcc;" horiz-adv-x="228" 
d="M-3 880l1 3h90l86 -132h-69zM70 686h88v-686h-88v686z" />
    <glyph glyph-name="Iacute" unicode="&#xcd;" horiz-adv-x="228" 
d="M141 883h89l1 -3l-107 -129h-69zM70 686h88v-686h-88v686z" />
    <glyph glyph-name="Icircumflex" unicode="&#xce;" horiz-adv-x="228" 
d="M76 882h78l85 -135h-80l-44 79l-45 -79h-81zM70 686h88v-686h-88v686z" />
    <glyph glyph-name="Idieresis" unicode="&#xcf;" horiz-adv-x="228" 
d="M-4 883h87v-95h-87v95zM146 883h87v-95h-87v95zM70 686h88v-686h-88v686z" />
    <glyph glyph-name="Eth" unicode="&#xd0;" horiz-adv-x="592" 
d="M70 323l-65 0.000976562v64h65v299h213c82 0 145.833 -28.333 191.5 -85s68.5 -139.334 68.5 -248.001c0 -116 -22.667 -203.833 -68 -263.5s-109.333 -89.5 -192 -89.5h-213v323zM275 80.001c55.333 0 98.5 20.832 129.5 62.499s46.5 103.5 46.5 185.5v50
c0 74.667 -15.5 131.334 -46.5 170.001s-74.167 58 -129.5 58h-117v-219h157v-64h-157v-243h117z" />
    <glyph glyph-name="Ntilde" unicode="&#xd1;" horiz-adv-x="592" 
d="M172 851c14.667 21.333 35.666 32 62.999 32c10 0 19.333 -1.33301 28 -4s19.334 -6.66699 32.001 -12c24 -9.33301 42.333 -14 55 -14c20 0 31.333 10 34 30h58c0 -26.667 -7.33301 -50.667 -22 -72s-35.667 -32 -63 -32c-10 0 -19.5 1.33301 -28.5 4
s-19.833 6.66699 -32.5 12c-22.667 10 -40.667 15 -54 15c-20 0 -31.333 -10.333 -34 -31h-58c0 26.667 7.33301 50.667 22 72zM69.999 686h76l255 -431c6 -10.667 13.833 -26.834 23.5 -48.501s15.834 -36.167 18.501 -43.5l3 1c0 7.33301 -0.5 20.333 -1.5 39
s-1.5 36 -1.5 52v431h79v-686h-73l-257 437c-7.33301 12 -15.833 28.667 -25.5 50s-15.834 35.333 -18.501 42l-3 -1c0.666992 -6.66699 1.5 -19.167 2.5 -37.5s1.5 -36.166 1.5 -53.499v-437h-79v686z" />
    <glyph glyph-name="Ograve" unicode="&#xd2;" horiz-adv-x="638" 
d="M202 880l1 3h90l86 -132h-69zM120 78c-47.333 60 -71 148.333 -71 265s23.667 205 71 265s113.666 90 198.999 90s151.666 -30 198.999 -90s71 -148.333 71 -265s-23.667 -205 -71 -265s-113.666 -90 -198.999 -90s-151.666 30 -198.999 90zM450 132
c31.333 42 47 104 47 186v50c0 82 -15.667 144 -47 186s-75 63 -131 63s-99.667 -21 -131 -63s-47 -104 -47 -186v-50c0 -82 15.667 -144 47 -186s75 -63 131 -63s99.667 21 131 63z" />
    <glyph glyph-name="Oacute" unicode="&#xd3;" horiz-adv-x="638" 
d="M346 883h90l1 -3l-108 -129h-69zM120 78c-47.333 60 -71 148.333 -71 265s23.667 205 71 265s113.666 90 198.999 90s151.666 -30 198.999 -90s71 -148.333 71 -265s-23.667 -205 -71 -265s-113.666 -90 -198.999 -90s-151.666 30 -198.999 90zM450 132
c31.333 42 47 104 47 186v50c0 82 -15.667 144 -47 186s-75 63 -131 63s-99.667 -21 -131 -63s-47 -104 -47 -186v-50c0 -82 15.667 -144 47 -186s75 -63 131 -63s99.667 21 131 63z" />
    <glyph glyph-name="Ocircumflex" unicode="&#xd4;" horiz-adv-x="638" 
d="M281 882h78l85 -135h-80l-44 79l-45 -79h-80zM120 78c-47.333 60 -71 148.333 -71 265s23.667 205 71 265s113.666 90 198.999 90s151.666 -30 198.999 -90s71 -148.333 71 -265s-23.667 -205 -71 -265s-113.666 -90 -198.999 -90s-151.666 30 -198.999 90zM450 132
c31.333 42 47 104 47 186v50c0 82 -15.667 144 -47 186s-75 63 -131 63s-99.667 -21 -131 -63s-47 -104 -47 -186v-50c0 -82 15.667 -144 47 -186s75 -63 131 -63s99.667 21 131 63z" />
    <glyph glyph-name="Otilde" unicode="&#xd5;" horiz-adv-x="638" 
d="M195 851c14.667 21.333 35.667 32 63 32c10 0 19.333 -1.33301 28 -4s19.334 -6.66699 32.001 -12c24 -9.33301 42.333 -14 55 -14c20 0 31.333 10 34 30h58c0 -26.667 -7.33301 -50.667 -22 -72s-35.667 -32 -63 -32c-10 0 -19.333 1.33301 -28 4
s-19.334 6.66699 -32.001 12c-22.667 10 -41 15 -55 15c-20 0 -31.333 -10.333 -34 -31h-58c0 26.667 7.33301 50.667 22 72zM120 78c-47.333 60 -71 148.333 -71 265s23.667 205 71 265s113.666 90 198.999 90s151.666 -30 198.999 -90s71 -148.333 71 -265
s-23.667 -205 -71 -265s-113.666 -90 -198.999 -90s-151.666 30 -198.999 90zM450 132c31.333 42 47 104 47 186v50c0 82 -15.667 144 -47 186s-75 63 -131 63s-99.667 -21 -131 -63s-47 -104 -47 -186v-50c0 -82 15.667 -144 47 -186s75 -63 131 -63s99.667 21 131 63z" />
    <glyph glyph-name="Odieresis" unicode="&#xd6;" horiz-adv-x="638" 
d="M201 883h87v-95h-87v95zM351 883h87v-95h-87v95zM120 78c-47.333 60 -71 148.333 -71 265s23.667 205 71 265s113.666 90 198.999 90s151.666 -30 198.999 -90s71 -148.333 71 -265s-23.667 -205 -71 -265s-113.666 -90 -198.999 -90s-151.666 30 -198.999 90zM450 132
c31.333 42 47 104 47 186v50c0 82 -15.667 144 -47 186s-75 63 -131 63s-99.667 -21 -131 -63s-47 -104 -47 -186v-50c0 -82 15.667 -144 47 -186s75 -63 131 -63s99.667 21 131 63z" />
    <glyph glyph-name="multiply" unicode="&#xd7;" horiz-adv-x="479" 
d="M38 104l153 151l-153 152l55 59l154 -152l153 152l55 -59l-153 -152l153 -151l-55 -59l-153 150l-154 -150z" />
    <glyph glyph-name="Oslash" unicode="&#xd8;" horiz-adv-x="638" 
d="M121 76c-48 60 -72 149 -72 267c0 116.667 23.667 205 71 265s113.666 90 198.999 90c63.333 0 116.333 -16.667 159 -50l47 75h64l-72 -114c48 -61.333 72 -150 72 -266c0 -116.667 -23.667 -205 -71 -265s-113.666 -90 -198.999 -90c-64.667 0 -117.667 16.333 -159 49
l-46 -74h-64zM432 574c-29.333 28.667 -67 42.999 -113 42.999c-56 0 -99.667 -21 -131 -63s-47 -104 -47 -186v-50c0 -65.333 10.333 -118.666 31 -159.999zM450 131.999c31.333 42 46.999 104 46.999 186v50c0 64.667 -10.333 117.667 -31 159l-260 -416
c28.667 -28 66.334 -42 113.001 -42c56 0 99.667 21 131 63z" />
    <glyph glyph-name="Ugrave" unicode="&#xd9;" horiz-adv-x="592" 
d="M178 880l1 3h91l85 -132h-68zM129.5 48.5c-39.667 40.333 -59.498 98.5 -59.498 174.5v463h88v-468c0 -48 12.167 -84.833 36.5 -110.5s58.166 -38.5 101.499 -38.5s77.166 12.833 101.499 38.5s36.5 62.5 36.5 110.5v468h88v-463c0 -76 -19.833 -134.167 -59.5 -174.5
s-95.167 -60.5 -166.5 -60.5s-126.833 20.167 -166.5 60.5z" />
    <glyph glyph-name="Uacute" unicode="&#xda;" horiz-adv-x="592" 
d="M322 883h90l1 -3l-107 -129h-70zM129.5 48.5c-39.667 40.333 -59.498 98.5 -59.498 174.5v463h88v-468c0 -48 12.167 -84.833 36.5 -110.5s58.166 -38.5 101.499 -38.5s77.166 12.833 101.499 38.5s36.5 62.5 36.5 110.5v468h88v-463
c0 -76 -19.833 -134.167 -59.5 -174.5s-95.167 -60.5 -166.5 -60.5s-126.833 20.167 -166.5 60.5z" />
    <glyph glyph-name="Ucircumflex" unicode="&#xdb;" horiz-adv-x="592" 
d="M257 882h78l86 -135h-80l-44 79l-46 -79h-80zM129.5 48.5c-39.667 40.333 -59.498 98.5 -59.498 174.5v463h88v-468c0 -48 12.167 -84.833 36.5 -110.5s58.166 -38.5 101.499 -38.5s77.166 12.833 101.499 38.5s36.5 62.5 36.5 110.5v468h88v-463
c0 -76 -19.833 -134.167 -59.5 -174.5s-95.167 -60.5 -166.5 -60.5s-126.833 20.167 -166.5 60.5z" />
    <glyph glyph-name="Udieresis" unicode="&#xdc;" horiz-adv-x="592" 
d="M177 883h87v-95h-87v95zM327 883h88v-95h-88v95zM129.5 48.5c-39.667 40.333 -59.498 98.5 -59.498 174.5v463h88v-468c0 -48 12.167 -84.833 36.5 -110.5s58.166 -38.5 101.499 -38.5s77.166 12.833 101.499 38.5s36.5 62.5 36.5 110.5v468h88v-463
c0 -76 -19.833 -134.167 -59.5 -174.5s-95.167 -60.5 -166.5 -60.5s-126.833 20.167 -166.5 60.5z" />
    <glyph glyph-name="Yacute" unicode="&#xdd;" horiz-adv-x="547" 
d="M300 883h90l1 -3l-108 -129h-69zM230 284l-222 402h97l174 -318h4l171 318h85l-221 -402v-284h-88v284z" />
    <glyph glyph-name="Thorn" unicode="&#xde;" horiz-adv-x="547" 
d="M70 686h88v-136h157c66 0 116.667 -18 152 -54s53 -84.667 53 -146s-18.5 -110.5 -55.5 -147.5s-86.833 -55.5 -149.5 -55.5h-157v-147h-88v686zM312 227c34.667 0 62.667 11.1689 84 33.502s32 52.166 32 89.499s-10 66.666 -30 87.999s-48.667 32 -86 32h-154v-243h154
z" />
    <glyph glyph-name="germandbls" unicode="&#xdf;" horiz-adv-x="501" 
d="M50 516c0 74 18.666 129 55.999 165s86.666 54 147.999 54c55.333 0 100.5 -16.833 135.5 -50.5s52.5 -79.167 52.5 -136.5c0 -33.333 -8.83301 -64.5 -26.5 -93.5s-40.5 -48.833 -68.5 -59.5v-4c34 -12.667 61.833 -35.667 83.5 -69s32.5 -69.333 32.5 -108
c0 -42 -8.83301 -79.167 -26.5 -111.5s-41.667 -57.5 -72 -75.5s-64.166 -27 -101.499 -27h-75v74h67c22.667 0 43.5 6.33301 62.5 19s34 29.834 45 51.501s16.5 45.167 16.5 70.5c0 24 -5.5 46.5 -16.5 67.5s-26 37.5 -45 49.5s-39.833 18 -62.5 18h-67v73h59
c30.667 0 56.834 12 78.501 36s32.5 52.667 32.5 86c0 36 -9.5 64.5 -28.5 85.5s-45.833 31.5 -80.5 31.5c-36 0 -64.5 -12.333 -85.5 -37s-31.5 -60.334 -31.5 -107.001v-518h-82v516z" />
    <glyph glyph-name="agrave" unicode="&#xe0;" 
d="M106 720l1 3h90l86 -132h-69zM76 20c-28 21.333 -42.0039 59.999 -42.0039 115.999c0 67.333 22.833 113.5 68.5 138.5s111.5 37.5 197.5 37.5v68c0 27.333 -6 48.333 -18 63s-33.667 22 -65 22c-28.667 0 -49.334 -8 -62.001 -24s-19 -35.667 -19 -59v-12h-81
c-0.666992 4 -1 11.333 -1 22c0 46.667 15.333 82.667 46 108s71.667 38 123 38c52.667 0 92.334 -12.667 119.001 -38s40 -61.666 40 -108.999v-295c0 -11.333 2.66699 -20 8 -26s12 -9 20 -9h32v-57c-14.667 -8 -32.667 -12 -54 -12s-39.166 5.83301 -53.499 17.5
s-24.166 27.5 -29.499 47.5h-5c-13.333 -22 -31.166 -39 -53.499 -51s-47.166 -18 -74.499 -18c-36 0 -68 10.667 -96 32zM242.996 75.999c16.667 10 30.333 24.833 41 44.5s16 43.167 16 70.5v48c-60 0 -105 -6.83301 -135 -20.5s-45 -39.5 -45 -77.5
c0 -28.667 5.83301 -49.167 17.5 -61.5s29.5 -18.5 53.5 -18.5c18 0 35.333 5 52 15z" />
    <glyph glyph-name="aacute" unicode="&#xe1;" 
d="M250 723h90l1 -3l-108 -129h-69zM76 20c-28 21.333 -42.0039 59.999 -42.0039 115.999c0 67.333 22.833 113.5 68.5 138.5s111.5 37.5 197.5 37.5v68c0 27.333 -6 48.333 -18 63s-33.667 22 -65 22c-28.667 0 -49.334 -8 -62.001 -24s-19 -35.667 -19 -59v-12h-81
c-0.666992 4 -1 11.333 -1 22c0 46.667 15.333 82.667 46 108s71.667 38 123 38c52.667 0 92.334 -12.667 119.001 -38s40 -61.666 40 -108.999v-295c0 -11.333 2.66699 -20 8 -26s12 -9 20 -9h32v-57c-14.667 -8 -32.667 -12 -54 -12s-39.166 5.83301 -53.499 17.5
s-24.166 27.5 -29.499 47.5h-5c-13.333 -22 -31.166 -39 -53.499 -51s-47.166 -18 -74.499 -18c-36 0 -68 10.667 -96 32zM242.996 75.999c16.667 10 30.333 24.833 41 44.5s16 43.167 16 70.5v48c-60 0 -105 -6.83301 -135 -20.5s-45 -39.5 -45 -77.5
c0 -28.667 5.83301 -49.167 17.5 -61.5s29.5 -18.5 53.5 -18.5c18 0 35.333 5 52 15z" />
    <glyph glyph-name="acircumflex" unicode="&#xe2;" 
d="M189 722h79l85 -135h-80l-44 79l-45 -79h-80zM76 20c-28 21.333 -42.0039 59.999 -42.0039 115.999c0 67.333 22.833 113.5 68.5 138.5s111.5 37.5 197.5 37.5v68c0 27.333 -6 48.333 -18 63s-33.667 22 -65 22c-28.667 0 -49.334 -8 -62.001 -24s-19 -35.667 -19 -59
v-12h-81c-0.666992 4 -1 11.333 -1 22c0 46.667 15.333 82.667 46 108s71.667 38 123 38c52.667 0 92.334 -12.667 119.001 -38s40 -61.666 40 -108.999v-295c0 -11.333 2.66699 -20 8 -26s12 -9 20 -9h32v-57c-14.667 -8 -32.667 -12 -54 -12s-39.166 5.83301 -53.499 17.5
s-24.166 27.5 -29.499 47.5h-5c-13.333 -22 -31.166 -39 -53.499 -51s-47.166 -18 -74.499 -18c-36 0 -68 10.667 -96 32zM242.996 75.999c16.667 10 30.333 24.833 41 44.5s16 43.167 16 70.5v48c-60 0 -105 -6.83301 -135 -20.5s-45 -39.5 -45 -77.5
c0 -28.667 5.83301 -49.167 17.5 -61.5s29.5 -18.5 53.5 -18.5c18 0 35.333 5 52 15z" />
    <glyph glyph-name="atilde" unicode="&#xe3;" 
d="M104 691c14.667 21.333 35.667 32 63 32c10 0 19.333 -1.33301 28 -4s19.334 -6.66699 32.001 -12c22.667 -10 41 -15 55 -15c20 0 31.333 10.333 34 31h58c0 -26.667 -7.33301 -50.667 -22 -72s-35.667 -32 -63 -32c-10 0 -19.333 1.33301 -28 4
s-19.334 6.66699 -32.001 12c-22.667 10 -41 15 -55 15c-20 0 -31.333 -10.333 -34 -31h-58c0 26.667 7.33301 50.667 22 72zM76 20c-28 21.333 -42.0039 59.999 -42.0039 115.999c0 67.333 22.833 113.5 68.5 138.5s111.5 37.5 197.5 37.5v68c0 27.333 -6 48.333 -18 63
s-33.667 22 -65 22c-28.667 0 -49.334 -8 -62.001 -24s-19 -35.667 -19 -59v-12h-81c-0.666992 4 -1 11.333 -1 22c0 46.667 15.333 82.667 46 108s71.667 38 123 38c52.667 0 92.334 -12.667 119.001 -38s40 -61.666 40 -108.999v-295c0 -11.333 2.66699 -20 8 -26
s12 -9 20 -9h32v-57c-14.667 -8 -32.667 -12 -54 -12s-39.166 5.83301 -53.499 17.5s-24.166 27.5 -29.499 47.5h-5c-13.333 -22 -31.166 -39 -53.499 -51s-47.166 -18 -74.499 -18c-36 0 -68 10.667 -96 32zM242.996 75.999c16.667 10 30.333 24.833 41 44.5
s16 43.167 16 70.5v48c-60 0 -105 -6.83301 -135 -20.5s-45 -39.5 -45 -77.5c0 -28.667 5.83301 -49.167 17.5 -61.5s29.5 -18.5 53.5 -18.5c18 0 35.333 5 52 15z" />
    <glyph glyph-name="adieresis" unicode="&#xe4;" 
d="M109 723h87v-95h-87v95zM259 723h88v-95h-88v95zM76 20c-28 21.333 -42.0039 59.999 -42.0039 115.999c0 67.333 22.833 113.5 68.5 138.5s111.5 37.5 197.5 37.5v68c0 27.333 -6 48.333 -18 63s-33.667 22 -65 22c-28.667 0 -49.334 -8 -62.001 -24s-19 -35.667 -19 -59
v-12h-81c-0.666992 4 -1 11.333 -1 22c0 46.667 15.333 82.667 46 108s71.667 38 123 38c52.667 0 92.334 -12.667 119.001 -38s40 -61.666 40 -108.999v-295c0 -11.333 2.66699 -20 8 -26s12 -9 20 -9h32v-57c-14.667 -8 -32.667 -12 -54 -12s-39.166 5.83301 -53.499 17.5
s-24.166 27.5 -29.499 47.5h-5c-13.333 -22 -31.166 -39 -53.499 -51s-47.166 -18 -74.499 -18c-36 0 -68 10.667 -96 32zM242.996 75.999c16.667 10 30.333 24.833 41 44.5s16 43.167 16 70.5v48c-60 0 -105 -6.83301 -135 -20.5s-45 -39.5 -45 -77.5
c0 -28.667 5.83301 -49.167 17.5 -61.5s29.5 -18.5 53.5 -18.5c18 0 35.333 5 52 15z" />
    <glyph glyph-name="aring" unicode="&#xe5;" 
d="M160.5 590c-19 18.667 -28.501 41.667 -28.501 69c0 26.667 9.33301 49.167 28 67.5s41.334 27.5 68.001 27.5s49.334 -9.33301 68.001 -28s28 -41 28 -67c0 -26.667 -9.33301 -49.5 -28 -68.5s-41.334 -28.5 -68.001 -28.5c-26 0 -48.5 9.33301 -67.5 28zM263.499 622.5
c10.333 10.333 15.501 22.5 15.501 36.5s-5 25.833 -15 35.5s-22 14.5 -36 14.5s-26 -4.83301 -36 -14.5s-15 -21.5 -15 -35.5s5 -26.167 15 -36.5s22 -15.5 36 -15.5c13.333 0 25.166 5.16699 35.499 15.5zM76 20c-28 21.333 -42.0039 59.999 -42.0039 115.999
c0 67.333 22.833 113.5 68.5 138.5s111.5 37.5 197.5 37.5v68c0 27.333 -6 48.333 -18 63s-33.667 22 -65 22c-28.667 0 -49.334 -8 -62.001 -24s-19 -35.667 -19 -59v-12h-81c-0.666992 4 -1 11.333 -1 22c0 46.667 15.333 82.667 46 108s71.667 38 123 38
c52.667 0 92.334 -12.667 119.001 -38s40 -61.666 40 -108.999v-295c0 -11.333 2.66699 -20 8 -26s12 -9 20 -9h32v-57c-14.667 -8 -32.667 -12 -54 -12s-39.166 5.83301 -53.499 17.5s-24.166 27.5 -29.499 47.5h-5c-13.333 -22 -31.166 -39 -53.499 -51
s-47.166 -18 -74.499 -18c-36 0 -68 10.667 -96 32zM242.996 75.999c16.667 10 30.333 24.833 41 44.5s16 43.167 16 70.5v48c-60 0 -105 -6.83301 -135 -20.5s-45 -39.5 -45 -77.5c0 -28.667 5.83301 -49.167 17.5 -61.5s29.5 -18.5 53.5 -18.5c18 0 35.333 5 52 15z" />
    <glyph glyph-name="ae" unicode="&#xe6;" horiz-adv-x="729" 
d="M85 19.5c-30 21 -44.999 59.833 -44.999 116.5c0 67.333 22.833 113.5 68.5 138.5s111.5 37.5 197.5 37.5v68c0 27.333 -6 48.333 -18 63s-33.667 22 -65 22c-28.667 0 -49.334 -8 -62.001 -24s-19 -35.667 -19 -59v-12h-81c-0.666992 4 -1 11.333 -1 22
c0 46.667 15.333 82.667 46 108s71.667 38 123 38c64.667 0 109.667 -20 135 -60c32 40 78.667 60 140 60c58.667 0 102.167 -19.5 130.5 -58.5s42.5 -101.833 42.5 -188.5v-52h-285c0.666992 -61.333 10.167 -106.333 28.5 -135s47.166 -43 86.499 -43
c26.667 0 48.167 10.667 64.5 32s24.5 50 24.5 86h81c0 -58.667 -15.833 -105.167 -47.5 -139.5s-73.167 -51.5 -124.5 -51.5c-75.333 0 -128.666 26.667 -159.999 80c-18.667 -25.333 -41.167 -45 -67.5 -59s-54.5 -21 -84.5 -21c-42 0 -78 10.5 -108 31.5zM591.001 312
c0 50 -7.33203 88 -21.999 114s-36.334 39 -65.001 39c-35.333 0 -61.833 -12.5 -79.5 -37.5s-28.167 -63.5 -31.5 -115.5h198zM273.002 93c22 21.333 33 51.333 33 90v56c-60 0 -105 -6.83301 -135 -20.5s-45 -39.5 -45 -77.5c0 -28.667 5.83301 -49.167 17.5 -61.5
s29.5 -18.5 53.5 -18.5c28.667 0 54 10.667 76 32z" />
    <glyph glyph-name="ccedilla" unicode="&#xe7;" horiz-adv-x="410" 
d="M111 -174l0.00195312 48.9971h76c12 0 21 1.83301 27 5.5s9 9.83398 9 18.501c0 8 -2.5 14 -7.5 18s-13.833 6 -26.5 6h-33l11 71c-44.667 10.667 -77.667 37.834 -99 81.501s-32 106.167 -32 187.5c0 94.667 14.667 164.167 44 208.5s74.666 66.5 135.999 66.5
c56 0 96.833 -17.333 122.5 -52s38.5 -86.334 38.5 -155.001h-85c0 47.333 -5.5 81.5 -16.5 102.5s-30.833 31.5 -59.5 31.5c-32 0 -55.667 -15.167 -71 -45.5s-23 -76.166 -23 -137.499v-38c0 -61.333 7.5 -107.166 22.5 -137.499s38.833 -45.5 71.5 -45.5
c28.667 0 49.167 11 61.5 33s18.5 55.667 18.5 101h81c0 -58.667 -12.833 -107.5 -38.5 -146.5s-64.834 -59.167 -117.501 -60.5l-3 -24c54 -4 81 -25.667 81 -65c0 -30 -10.667 -51 -32 -63s-45.333 -18 -72 -18c-30.667 0 -58.667 2.66699 -84 8z" />
    <glyph glyph-name="egrave" unicode="&#xe8;" 
d="M122 720l1 3h90l86 -132h-69zM91.5 53.5c-33 43.667 -49.5 113.5 -49.5 209.5c0 94 16.333 163.333 49 208s82.334 67 149.001 67c58.667 0 102.167 -19.5 130.5 -58.5s42.5 -101.833 42.5 -188.5v-52h-285c0.666992 -61.333 10.167 -106.333 28.5 -135
s47.166 -43 86.499 -43c26.667 0 48.167 10.667 64.5 32s24.5 50 24.5 86h81c0 -58.667 -15.833 -105.167 -47.5 -139.5s-73.167 -51.5 -124.5 -51.5c-66.667 0 -116.5 21.833 -149.5 65.5zM327 312c0 50 -7.33203 88 -21.999 114s-36.334 39 -65.001 39
c-35.333 0 -61.833 -12.5 -79.5 -37.5s-28.167 -63.5 -31.5 -115.5h198z" />
    <glyph glyph-name="eacute" unicode="&#xe9;" 
d="M266 723h90l1 -3l-107 -129h-70zM91.5 53.5c-33 43.667 -49.5 113.5 -49.5 209.5c0 94 16.333 163.333 49 208s82.334 67 149.001 67c58.667 0 102.167 -19.5 130.5 -58.5s42.5 -101.833 42.5 -188.5v-52h-285c0.666992 -61.333 10.167 -106.333 28.5 -135
s47.166 -43 86.499 -43c26.667 0 48.167 10.667 64.5 32s24.5 50 24.5 86h81c0 -58.667 -15.833 -105.167 -47.5 -139.5s-73.167 -51.5 -124.5 -51.5c-66.667 0 -116.5 21.833 -149.5 65.5zM327 312c0 50 -7.33203 88 -21.999 114s-36.334 39 -65.001 39
c-35.333 0 -61.833 -12.5 -79.5 -37.5s-28.167 -63.5 -31.5 -115.5h198z" />
    <glyph glyph-name="ecircumflex" unicode="&#xea;" 
d="M189 722h79l85 -135h-80l-44 79l-45 -79h-80zM91.5 53.5c-33 43.667 -49.5 113.5 -49.5 209.5c0 94 16.333 163.333 49 208s82.334 67 149.001 67c58.667 0 102.167 -19.5 130.5 -58.5s42.5 -101.833 42.5 -188.5v-52h-285c0.666992 -61.333 10.167 -106.333 28.5 -135
s47.166 -43 86.499 -43c26.667 0 48.167 10.667 64.5 32s24.5 50 24.5 86h81c0 -58.667 -15.833 -105.167 -47.5 -139.5s-73.167 -51.5 -124.5 -51.5c-66.667 0 -116.5 21.833 -149.5 65.5zM327 312c0 50 -7.33203 88 -21.999 114s-36.334 39 -65.001 39
c-35.333 0 -61.833 -12.5 -79.5 -37.5s-28.167 -63.5 -31.5 -115.5h198z" />
    <glyph glyph-name="edieresis" unicode="&#xeb;" 
d="M109 723h87v-95h-87v95zM259 723h88v-95h-88v95zM91.5 53.5c-33 43.667 -49.5 113.5 -49.5 209.5c0 94 16.333 163.333 49 208s82.334 67 149.001 67c58.667 0 102.167 -19.5 130.5 -58.5s42.5 -101.833 42.5 -188.5v-52h-285
c0.666992 -61.333 10.167 -106.333 28.5 -135s47.166 -43 86.499 -43c26.667 0 48.167 10.667 64.5 32s24.5 50 24.5 86h81c0 -58.667 -15.833 -105.167 -47.5 -139.5s-73.167 -51.5 -124.5 -51.5c-66.667 0 -116.5 21.833 -149.5 65.5zM327 312
c0 50 -7.33203 88 -21.999 114s-36.334 39 -65.001 39c-35.333 0 -61.833 -12.5 -79.5 -37.5s-28.167 -63.5 -31.5 -115.5h198z" />
    <glyph glyph-name="igrave" unicode="&#xec;" horiz-adv-x="228" 
d="M-3 720l1 3h90l86 -132h-69zM73 526h82v-526h-82v526z" />
    <glyph glyph-name="iacute" unicode="&#xed;" horiz-adv-x="228" 
d="M141 723h89l1 -3l-107 -129h-69zM73 526h82v-526h-82v526z" />
    <glyph glyph-name="icircumflex" unicode="&#xee;" horiz-adv-x="228" 
d="M76 722h78l85 -135h-80l-44 79l-45 -79h-81zM73 526h82v-526h-82v526z" />
    <glyph glyph-name="idieresis" unicode="&#xef;" horiz-adv-x="228" 
d="M-4 723h87v-95h-87v95zM146 723h87v-95h-87v95zM73 526h82v-526h-82v526z" />
    <glyph glyph-name="eth" unicode="&#xf0;" 
d="M87.5 55.5c-31.667 45 -47.5 114.167 -47.5 207.5s16 162.5 48 207.5s75 67.5 129 67.5c16 0 32.667 -4 50 -12v1c-6.66699 12.667 -15 26.167 -25 40.5l-31 42.5l-118 -10v60l71 6l-14 16c-7.33301 8.66699 -18.333 21 -33 37l2 4h88l45 -49l117 11v-60l-71 -7
c38 -51.333 67.167 -106 87.5 -164s30.5 -121.667 30.5 -191c0 -93.333 -15.833 -162.5 -47.5 -207.5s-78.5 -67.5 -140.5 -67.5s-108.833 22.5 -140.5 67.5zM330 244l-0.000976562 37.999c0 60.667 -8.66699 106.334 -26 137.001s-42.666 46 -75.999 46
c-68 0 -102 -61 -102 -183v-38c0 -122 34 -183 102 -183s102 61 102 183z" />
    <glyph glyph-name="ntilde" unicode="&#xf1;" 
d="M104 691c14.667 21.333 35.667 32 63 32c10 0 19.333 -1.33301 28 -4s19.334 -6.66699 32.001 -12c22.667 -10 41 -15 55 -15c20 0 31.333 10.333 34 31h58c0 -26.667 -7.33301 -50.667 -22 -72s-35.667 -32 -63 -32c-10 0 -19.333 1.33301 -28 4
s-19.334 6.66699 -32.001 12c-22.667 10 -41 15 -55 15c-20 0 -31.333 -10.333 -34 -31h-58c0 26.667 7.33301 50.667 22 72zM60 526h62.001l11 -61h6c27.333 48.667 69.666 73 126.999 73c42 0 74.167 -12.5 96.5 -37.5s33.5 -65.5 33.5 -121.5v-379h-82v373
c0 34 -6.33301 57.833 -19 71.5s-31 20.5 -55 20.5c-27.333 0 -50.5 -13 -69.5 -39s-28.5 -61 -28.5 -105v-321h-82v526z" />
    <glyph glyph-name="ograve" unicode="&#xf2;" 
d="M110 720l1 3h91l86 -132h-69zM87.5 55.5c-31.667 45 -47.5 114.167 -47.5 207.5s15.833 162.5 47.5 207.5s78.5 67.5 140.5 67.5s108.833 -22.5 140.5 -67.5s47.5 -114.167 47.5 -207.5s-15.833 -162.5 -47.5 -207.5s-78.5 -67.5 -140.5 -67.5s-108.833 22.5 -140.5 67.5
zM330 244v38c0 122 -34 183 -102 183s-102 -61 -102 -183v-38c0 -122 34 -183 102 -183s102 61 102 183z" />
    <glyph glyph-name="oacute" unicode="&#xf3;" 
d="M254 723h90l1 -3l-107 -129h-70zM87.5 55.5c-31.667 45 -47.5 114.167 -47.5 207.5s15.833 162.5 47.5 207.5s78.5 67.5 140.5 67.5s108.833 -22.5 140.5 -67.5s47.5 -114.167 47.5 -207.5s-15.833 -162.5 -47.5 -207.5s-78.5 -67.5 -140.5 -67.5
s-108.833 22.5 -140.5 67.5zM330 244v38c0 122 -34 183 -102 183s-102 -61 -102 -183v-38c0 -122 34 -183 102 -183s102 61 102 183z" />
    <glyph glyph-name="ocircumflex" unicode="&#xf4;" 
d="M189 722h79l85 -135h-80l-44 79l-45 -79h-80zM87.5 55.5c-31.667 45 -47.5 114.167 -47.5 207.5s15.833 162.5 47.5 207.5s78.5 67.5 140.5 67.5s108.833 -22.5 140.5 -67.5s47.5 -114.167 47.5 -207.5s-15.833 -162.5 -47.5 -207.5s-78.5 -67.5 -140.5 -67.5
s-108.833 22.5 -140.5 67.5zM330 244v38c0 122 -34 183 -102 183s-102 -61 -102 -183v-38c0 -122 34 -183 102 -183s102 61 102 183z" />
    <glyph glyph-name="otilde" unicode="&#xf5;" 
d="M104 691c14.667 21.333 35.667 32 63 32c10 0 19.333 -1.33301 28 -4s19.334 -6.66699 32.001 -12c22.667 -10 41 -15 55 -15c20 0 31.333 10.333 34 31h58c0 -26.667 -7.33301 -50.667 -22 -72s-35.667 -32 -63 -32c-10 0 -19.333 1.33301 -28 4
s-19.334 6.66699 -32.001 12c-22.667 10 -41 15 -55 15c-20 0 -31.333 -10.333 -34 -31h-58c0 26.667 7.33301 50.667 22 72zM87.5 55.5c-31.667 45 -47.5 114.167 -47.5 207.5s15.833 162.5 47.5 207.5s78.5 67.5 140.5 67.5s108.833 -22.5 140.5 -67.5
s47.5 -114.167 47.5 -207.5s-15.833 -162.5 -47.5 -207.5s-78.5 -67.5 -140.5 -67.5s-108.833 22.5 -140.5 67.5zM330 244v38c0 122 -34 183 -102 183s-102 -61 -102 -183v-38c0 -122 34 -183 102 -183s102 61 102 183z" />
    <glyph glyph-name="odieresis" unicode="&#xf6;" 
d="M109 723h87v-95h-87v95zM259 723h88v-95h-88v95zM87.5 55.5c-31.667 45 -47.5 114.167 -47.5 207.5s15.833 162.5 47.5 207.5s78.5 67.5 140.5 67.5s108.833 -22.5 140.5 -67.5s47.5 -114.167 47.5 -207.5s-15.833 -162.5 -47.5 -207.5s-78.5 -67.5 -140.5 -67.5
s-108.833 22.5 -140.5 67.5zM330 244v38c0 122 -34 183 -102 183s-102 -61 -102 -183v-38c0 -122 34 -183 102 -183s102 61 102 183z" />
    <glyph glyph-name="divide" unicode="&#xf7;" horiz-adv-x="549" 
d="M232 460h84v-91h-84v91zM43 297h462v-84h-462v84zM232 141h84v-90h-84v90z" />
    <glyph glyph-name="oslash" unicode="&#xf8;" horiz-adv-x="501" 
d="M109 55c-31.333 45.333 -47.001 114.667 -47.001 208s15.833 162.5 47.5 207.5s78.5 67.5 140.5 67.5c42.667 0 77.667 -10.333 105 -31l28 51h55l-48 -87c32 -44.667 48 -114 48 -208c0 -93.333 -15.833 -162.5 -47.5 -207.5s-78.5 -67.5 -140.5 -67.5
c-43.333 0 -78.666 10.333 -105.999 31l-27 -51h-55zM315.999 435.001c-16.667 20 -38.667 30 -66 30c-68 0 -102 -61 -102 -183v-38c0 -40 3.33301 -73 10 -99zM351.999 244.001v38c0 38 -3.66699 70.667 -11 98l-157 -289c16 -20 38 -30 66 -30c68 0 102 61 102 183z" />
    <glyph glyph-name="ugrave" unicode="&#xf9;" 
d="M110 720l1 3h91l86 -132h-69zM93.5 25.5c-22.333 25 -33.501 65.5 -33.501 121.5v379h82v-373c0 -34 6.33301 -57.833 19 -71.5s31 -20.5 55 -20.5c27.333 0 50.5 13 69.5 39s28.5 61 28.5 105v321h82v-526h-62l-11 61h-6c-27.333 -48.667 -69.666 -73 -126.999 -73
c-42 0 -74.167 12.5 -96.5 37.5z" />
    <glyph glyph-name="uacute" unicode="&#xfa;" 
d="M254 723h90l1 -3l-107 -129h-70zM93.5 25.5c-22.333 25 -33.501 65.5 -33.501 121.5v379h82v-373c0 -34 6.33301 -57.833 19 -71.5s31 -20.5 55 -20.5c27.333 0 50.5 13 69.5 39s28.5 61 28.5 105v321h82v-526h-62l-11 61h-6c-27.333 -48.667 -69.666 -73 -126.999 -73
c-42 0 -74.167 12.5 -96.5 37.5z" />
    <glyph glyph-name="ucircumflex" unicode="&#xfb;" 
d="M189 722h79l85 -135h-80l-44 79l-45 -79h-80zM93.5 25.5c-22.333 25 -33.501 65.5 -33.501 121.5v379h82v-373c0 -34 6.33301 -57.833 19 -71.5s31 -20.5 55 -20.5c27.333 0 50.5 13 69.5 39s28.5 61 28.5 105v321h82v-526h-62l-11 61h-6
c-27.333 -48.667 -69.666 -73 -126.999 -73c-42 0 -74.167 12.5 -96.5 37.5z" />
    <glyph glyph-name="udieresis" unicode="&#xfc;" 
d="M109 723h87v-95h-87v95zM259 723h88v-95h-88v95zM93.5 25.5c-22.333 25 -33.501 65.5 -33.501 121.5v379h82v-373c0 -34 6.33301 -57.833 19 -71.5s31 -20.5 55 -20.5c27.333 0 50.5 13 69.5 39s28.5 61 28.5 105v321h82v-526h-62l-11 61h-6
c-27.333 -48.667 -69.666 -73 -126.999 -73c-42 0 -74.167 12.5 -96.5 37.5z" />
    <glyph glyph-name="yacute" unicode="&#xfd;" horiz-adv-x="410" 
d="M231 723h90l1 -3l-107 -129h-69zM38 -174v57h29c52.667 0 87.334 39 104.001 117l-161 526h90l89 -314l27 -94h4l23 96l75 312h83l-134 -499c-17.333 -65.333 -39.333 -116.5 -66 -153.5s-61.334 -55.5 -104.001 -55.5c-24 0 -43.667 2.66699 -59 8z" />
    <glyph glyph-name="thorn" unicode="&#xfe;" 
d="M60 723l81.999 -0.000976562v-243l4 -1c10.667 18 25.5 32.333 44.5 43s39.833 16 62.5 16c52 0 92.167 -22.667 120.5 -68s42.5 -114.666 42.5 -207.999c0 -90.667 -14.5 -159 -43.5 -205s-66.833 -69 -113.5 -69c-25.333 0 -48.166 5.16699 -68.499 15.5
s-34.833 24.5 -43.5 42.5h-5v-219h-82v896zM306.999 103.999c15.333 28.667 23 75.332 23 139.999v38c0 64.667 -7.66699 111.334 -23 140.001s-39 43 -71 43c-62.667 0 -94 -61 -94 -183v-38c0 -122 31.333 -183 94 -183c32 0 55.667 14.333 71 43z" />
    <glyph glyph-name="ydieresis" unicode="&#xff;" horiz-adv-x="410" 
d="M86 723h87v-95h-87v95zM236 723h88v-95h-88v95zM38 -174v57h29c52.667 0 87.334 39 104.001 117l-161 526h90l89 -314l27 -94h4l23 96l75 312h83l-134 -499c-17.333 -65.333 -39.333 -116.5 -66 -153.5s-61.334 -55.5 -104.001 -55.5c-24 0 -43.667 2.66699 -59 8z" />
    <glyph glyph-name="Amacron" unicode="&#x100;" horiz-adv-x="547" 
d="M148 831h251v-72h-251v72zM217 686h113l218 -686h-95l-47 153h-272l-47 -153h-88zM381 233l-92.9961 305c-2.66699 9.33301 -5.83398 22.833 -9.50098 40.5s-5.83398 29.5 -6.50098 35.5h-4c-0.666992 -6 -2.83398 -17.833 -6.50098 -35.5
s-6.83398 -31.167 -9.50098 -40.5l-94 -305h223z" />
    <glyph glyph-name="amacron" unicode="&#x101;" 
d="M103 671h251v-72h-251v72zM76 20c-28 21.333 -42.0039 59.999 -42.0039 115.999c0 67.333 22.833 113.5 68.5 138.5s111.5 37.5 197.5 37.5v68c0 27.333 -6 48.333 -18 63s-33.667 22 -65 22c-28.667 0 -49.334 -8 -62.001 -24s-19 -35.667 -19 -59v-12h-81
c-0.666992 4 -1 11.333 -1 22c0 46.667 15.333 82.667 46 108s71.667 38 123 38c52.667 0 92.334 -12.667 119.001 -38s40 -61.666 40 -108.999v-295c0 -11.333 2.66699 -20 8 -26s12 -9 20 -9h32v-57c-14.667 -8 -32.667 -12 -54 -12s-39.166 5.83301 -53.499 17.5
s-24.166 27.5 -29.499 47.5h-5c-13.333 -22 -31.166 -39 -53.499 -51s-47.166 -18 -74.499 -18c-36 0 -68 10.667 -96 32zM242.996 75.999c16.667 10 30.333 24.833 41 44.5s16 43.167 16 70.5v48c-60 0 -105 -6.83301 -135 -20.5s-45 -39.5 -45 -77.5
c0 -28.667 5.83301 -49.167 17.5 -61.5s29.5 -18.5 53.5 -18.5c18 0 35.333 5 52 15z" />
    <glyph glyph-name="Abreve" unicode="&#x102;" horiz-adv-x="547" 
d="M209 800.5c-18.667 9.66699 -33.167 22.001 -43.5 37.001s-15.5 30.167 -15.5 45.5h64c2 -8 8.5 -15.5 19.5 -22.5s24.167 -10.5 39.5 -10.5c16 0 29.833 3.66699 41.5 11s17.834 14.666 18.501 21.999h64c0 -15.333 -5.16699 -30.5 -15.5 -45.5
s-24.833 -27.333 -43.5 -37s-40.334 -14.5 -65.001 -14.5c-24 0 -45.333 4.83301 -64 14.5zM217 686.001h113l218 -686h-95l-47 153h-272l-47 -153h-88zM381 233.001l-92.9961 305c-2.66699 9.33301 -5.83398 22.833 -9.50098 40.5s-5.83398 29.5 -6.50098 35.5h-4
c-0.666992 -6 -2.83398 -17.833 -6.50098 -35.5s-6.83398 -31.167 -9.50098 -40.5l-94 -305h223z" />
    <glyph glyph-name="abreve" unicode="&#x103;" 
d="M163.5 640.5c-19 9.66699 -33.665 22 -43.998 37s-15.5 30.167 -15.5 45.5h65c2 -8 8.33301 -15.5 19 -22.5s24 -10.5 40 -10.5s29.667 3.5 41 10.5s17.666 14.5 18.999 22.5h64c0 -15.333 -5.16699 -30.5 -15.5 -45.5s-24.833 -27.333 -43.5 -37
s-40.334 -14.5 -65.001 -14.5c-24 0 -45.5 4.83301 -64.5 14.5zM76.002 20c-28 21.333 -42.0039 59.999 -42.0039 115.999c0 67.333 22.833 113.5 68.5 138.5s111.5 37.5 197.5 37.5v68c0 27.333 -6 48.333 -18 63s-33.667 22 -65 22c-28.667 0 -49.334 -8 -62.001 -24
s-19 -35.667 -19 -59v-12h-81c-0.666992 4 -1 11.333 -1 22c0 46.667 15.333 82.667 46 108s71.667 38 123 38c52.667 0 92.334 -12.667 119.001 -38s40 -61.666 40 -108.999v-295c0 -11.333 2.66699 -20 8 -26s12 -9 20 -9h32v-57c-14.667 -8 -32.667 -12 -54 -12
s-39.166 5.83301 -53.499 17.5s-24.166 27.5 -29.499 47.5h-5c-13.333 -22 -31.166 -39 -53.499 -51s-47.166 -18 -74.499 -18c-36 0 -68 10.667 -96 32zM242.998 75.999c16.667 10 30.333 24.833 41 44.5s16 43.167 16 70.5v48c-60 0 -105 -6.83301 -135 -20.5
s-45 -39.5 -45 -77.5c0 -28.667 5.83301 -49.167 17.5 -61.5s29.5 -18.5 53.5 -18.5c18 0 35.333 5 52 15z" />
    <glyph glyph-name="Aogonek" unicode="&#x104;" horiz-adv-x="547" 
d="M571 -117v-51c-22 -9.33301 -42.333 -14 -61 -14c-25.333 0 -47.333 7.16699 -66 21.5s-28 37.166 -28 68.499c0 19.333 3.16699 36.333 9.5 51s15.5 28.334 27.5 41.001l-47 153h-272l-47 -153h-88l218 686h113l218 -686h-30c-16 -22 -24 -42.667 -24 -62
c0 -16 3.66699 -29.167 11 -39.5s19 -15.5 35 -15.5h31zM381 233l-92.9961 305c-2.66699 9.33301 -5.83398 22.833 -9.50098 40.5s-5.83398 29.5 -6.50098 35.5h-4c-0.666992 -6 -2.83398 -17.833 -6.50098 -35.5s-6.83398 -31.167 -9.50098 -40.5l-94 -305h223z" />
    <glyph glyph-name="aogonek" unicode="&#x105;" 
d="M360 -160.5c-18.667 14.333 -28.002 37.166 -28.002 68.499c0 32 10.667 61 32 87c-15.333 4 -28 11.333 -38 22s-17 24 -21 40h-5c-13.333 -22 -31.166 -39 -53.499 -51s-47.166 -18 -74.499 -18c-36 0 -68 10.667 -96 32s-42 60 -42 116
c0 67.333 22.833 113.5 68.5 138.5s111.5 37.5 197.5 37.5v68c0 27.333 -6 48.333 -18 63s-33.667 22 -65 22c-28.667 0 -49.334 -8 -62.001 -24s-19 -35.667 -19 -59v-12h-81c-0.666992 4 -1 11.333 -1 22c0 46.667 15.333 82.667 46 108s71.667 38 123 38
c52.667 0 92.334 -12.667 119.001 -38s40 -61.666 40 -108.999v-295c0 -11.333 2.66699 -20 8 -26s12 -9 20 -9h32v-57c-10 -7.33301 -17.833 -17.5 -23.5 -30.5s-8.5 -24.833 -8.5 -35.5c0 -16 3.66699 -29.167 11 -39.5s19 -15.5 35 -15.5h31v-51
c-22 -9.33301 -42.333 -14 -61 -14c-25.333 0 -47.333 7.16699 -66 21.5zM242.998 76c16.667 10 30.333 24.833 41 44.5s16 43.167 16 70.5v48c-60 0 -105 -6.83301 -135 -20.5s-45 -39.5 -45 -77.5c0 -28.667 5.83301 -49.167 17.5 -61.5s29.5 -18.5 53.5 -18.5
c18 0 35.333 5 52 15z" />
    <glyph glyph-name="Cacute" unicode="&#x106;" horiz-adv-x="592" 
d="M337 883h90l1 -3l-108 -129h-69zM42 343c0 236.667 90 354.997 270 354.997c72.667 0 130.667 -22.167 174 -66.5s65 -108.833 65 -193.5h-90c0 58.667 -13.333 103.167 -40 133.5s-63 45.5 -109 45.5c-60 0 -104.667 -20.667 -134 -62s-44 -103.666 -44 -186.999v-50
c0 -83.333 14.667 -145.666 44 -186.999s74 -62 134 -62c47.333 0 84.5 15 111.5 45s40.5 74 40.5 132h87c0 -85.333 -21.5 -149.666 -64.5 -192.999s-101.167 -65 -174.5 -65c-180 0 -270 118.333 -270 355z" />
    <glyph glyph-name="cacute" unicode="&#x107;" horiz-adv-x="410" 
d="M241 723h90l1 -3l-107 -129h-70zM79.5 54.5c-29 44.333 -43.499 113.832 -43.499 208.499s14.667 164.167 44 208.5s74.666 66.5 135.999 66.5c56 0 96.833 -17.333 122.5 -52s38.5 -86.334 38.5 -155.001h-85c0 47.333 -5.5 81.5 -16.5 102.5s-30.833 31.5 -59.5 31.5
c-32 0 -55.667 -15.167 -71 -45.5s-23 -76.166 -23 -137.499v-38c0 -61.333 7.5 -107.166 22.5 -137.499s38.833 -45.5 71.5 -45.5c28.667 0 49.167 11 61.5 33s18.5 55.667 18.5 101h81c0 -60 -13.167 -109.5 -39.5 -148.5s-66.833 -58.5 -121.5 -58.5
c-62 0 -107.5 22.167 -136.5 66.5z" />
    <glyph glyph-name="Ccircumflex" unicode="&#x108;" horiz-adv-x="592" 
d="M257 882h78l86 -135h-80l-44 79l-46 -79h-80zM42 343c0 236.667 90 354.997 270 354.997c72.667 0 130.667 -22.167 174 -66.5s65 -108.833 65 -193.5h-90c0 58.667 -13.333 103.167 -40 133.5s-63 45.5 -109 45.5c-60 0 -104.667 -20.667 -134 -62
s-44 -103.666 -44 -186.999v-50c0 -83.333 14.667 -145.666 44 -186.999s74 -62 134 -62c47.333 0 84.5 15 111.5 45s40.5 74 40.5 132h87c0 -85.333 -21.5 -149.666 -64.5 -192.999s-101.167 -65 -174.5 -65c-180 0 -270 118.333 -270 355z" />
    <glyph glyph-name="ccircumflex" unicode="&#x109;" horiz-adv-x="410" 
d="M167 722h78l85 -135h-80l-44 79l-45 -79h-80zM79.5 54.5c-29 44.333 -43.499 113.832 -43.499 208.499s14.667 164.167 44 208.5s74.666 66.5 135.999 66.5c56 0 96.833 -17.333 122.5 -52s38.5 -86.334 38.5 -155.001h-85c0 47.333 -5.5 81.5 -16.5 102.5
s-30.833 31.5 -59.5 31.5c-32 0 -55.667 -15.167 -71 -45.5s-23 -76.166 -23 -137.499v-38c0 -61.333 7.5 -107.166 22.5 -137.499s38.833 -45.5 71.5 -45.5c28.667 0 49.167 11 61.5 33s18.5 55.667 18.5 101h81c0 -60 -13.167 -109.5 -39.5 -148.5
s-66.833 -58.5 -121.5 -58.5c-62 0 -107.5 22.167 -136.5 66.5z" />
    <glyph glyph-name="Cdotaccent" unicode="&#x10a;" horiz-adv-x="592" 
d="M252 883h88v-95h-88v95zM42 343c0 236.667 90 354.997 270 354.997c72.667 0 130.667 -22.167 174 -66.5s65 -108.833 65 -193.5h-90c0 58.667 -13.333 103.167 -40 133.5s-63 45.5 -109 45.5c-60 0 -104.667 -20.667 -134 -62s-44 -103.666 -44 -186.999v-50
c0 -83.333 14.667 -145.666 44 -186.999s74 -62 134 -62c47.333 0 84.5 15 111.5 45s40.5 74 40.5 132h87c0 -85.333 -21.5 -149.666 -64.5 -192.999s-101.167 -65 -174.5 -65c-180 0 -270 118.333 -270 355z" />
    <glyph glyph-name="cdotaccent" unicode="&#x10b;" horiz-adv-x="410" 
d="M162 723h87v-95h-87v95zM79.5 54.5c-29 44.333 -43.499 113.832 -43.499 208.499s14.667 164.167 44 208.5s74.666 66.5 135.999 66.5c56 0 96.833 -17.333 122.5 -52s38.5 -86.334 38.5 -155.001h-85c0 47.333 -5.5 81.5 -16.5 102.5s-30.833 31.5 -59.5 31.5
c-32 0 -55.667 -15.167 -71 -45.5s-23 -76.166 -23 -137.499v-38c0 -61.333 7.5 -107.166 22.5 -137.499s38.833 -45.5 71.5 -45.5c28.667 0 49.167 11 61.5 33s18.5 55.667 18.5 101h81c0 -60 -13.167 -109.5 -39.5 -148.5s-66.833 -58.5 -121.5 -58.5
c-62 0 -107.5 22.167 -136.5 66.5z" />
    <glyph glyph-name="Ccaron" unicode="&#x10c;" horiz-adv-x="592" 
d="M171 883h80l45 -79l45 79h80l-87 -135h-78zM42 343c0 236.667 90 354.997 270 354.997c72.667 0 130.667 -22.167 174 -66.5s65 -108.833 65 -193.5h-90c0 58.667 -13.333 103.167 -40 133.5s-63 45.5 -109 45.5c-60 0 -104.667 -20.667 -134 -62
s-44 -103.666 -44 -186.999v-50c0 -83.333 14.667 -145.666 44 -186.999s74 -62 134 -62c47.333 0 84.5 15 111.5 45s40.5 74 40.5 132h87c0 -85.333 -21.5 -149.666 -64.5 -192.999s-101.167 -65 -174.5 -65c-180 0 -270 118.333 -270 355z" />
    <glyph glyph-name="ccaron" unicode="&#x10d;" horiz-adv-x="410" 
d="M81 723h80l44 -79l45 79h80l-86 -135h-78zM79.5 54.5c-29 44.333 -43.499 113.832 -43.499 208.499s14.667 164.167 44 208.5s74.666 66.5 135.999 66.5c56 0 96.833 -17.333 122.5 -52s38.5 -86.334 38.5 -155.001h-85c0 47.333 -5.5 81.5 -16.5 102.5
s-30.833 31.5 -59.5 31.5c-32 0 -55.667 -15.167 -71 -45.5s-23 -76.166 -23 -137.499v-38c0 -61.333 7.5 -107.166 22.5 -137.499s38.833 -45.5 71.5 -45.5c28.667 0 49.167 11 61.5 33s18.5 55.667 18.5 101h81c0 -60 -13.167 -109.5 -39.5 -148.5
s-66.833 -58.5 -121.5 -58.5c-62 0 -107.5 22.167 -136.5 66.5z" />
    <glyph glyph-name="Dcaron" unicode="&#x10e;" horiz-adv-x="592" 
d="M171 883h80l45 -79l45 79h80l-87 -135h-78zM70 686l213 0.000976562c82 0 145.833 -28.333 191.5 -85s68.5 -139.334 68.5 -248.001c0 -116 -22.667 -203.833 -68 -263.5s-109.333 -89.5 -192 -89.5h-213v686zM275 80.001c55.333 0 98.5 20.832 129.5 62.499
s46.5 103.5 46.5 185.5v50c0 74.667 -15.5 131.334 -46.5 170.001s-74.167 58 -129.5 58h-117v-526h117z" />
    <glyph glyph-name="dcaron" unicode="&#x10f;" horiz-adv-x="504" 
d="M82.5 56c-28.333 45.333 -42.5 114.667 -42.5 208c0 90.667 14.5 159 43.5 205s66.833 69 113.5 69c26 0 49 -5.5 69 -16.5s34.333 -26.167 43 -45.5h5v247h82v-723h-62l-11 61h-5c-12.667 -24 -29 -42.167 -49 -54.5s-42 -18.5 -66 -18.5
c-52 0 -92.167 22.667 -120.5 68zM476 578.001h-40v108h100v-99l-49 -133h-51zM314 244.001v34.002c0 124.667 -31.333 187 -94 187c-32 0 -55.667 -14.333 -71 -43s-23 -75.334 -23 -140.001v-38c0 -64.667 7.66699 -111.334 23 -140.001s39 -43 71 -43
c62.667 0 94 61 94 183z" />
    <glyph glyph-name="Dcroat" unicode="&#x110;" horiz-adv-x="592" 
d="M70 323l-65 0.000976562v64h65v299h213c82 0 145.833 -28.333 191.5 -85s68.5 -139.334 68.5 -248.001c0 -116 -22.667 -203.833 -68 -263.5s-109.333 -89.5 -192 -89.5h-213v323zM275 80.001c55.333 0 98.5 20.832 129.5 62.499s46.5 103.5 46.5 185.5v50
c0 74.667 -15.5 131.334 -46.5 170.001s-74.167 58 -129.5 58h-117v-219h157v-64h-157v-243h117z" />
    <glyph glyph-name="dcroat" unicode="&#x111;" horiz-adv-x="453" 
d="M82.5 56c-28.333 45.333 -42.5 114.667 -42.5 208c0 90.667 14.5 159 43.5 205s66.833 69 113.5 69c26 0 49 -5.5 69 -16.5s34.333 -26.167 43 -45.5h5v107h-111v68h111v72h82v-72h58v-68h-58v-583h-62l-11 61h-5c-12.667 -24 -29 -42.167 -49 -54.5s-42 -18.5 -66 -18.5
c-52 0 -92.167 22.667 -120.5 68zM314 244.001v34.002c0 124.667 -31.333 187 -94 187c-32 0 -55.667 -14.333 -71 -43s-23 -75.334 -23 -140.001v-38c0 -64.667 7.66699 -111.334 23 -140.001s39 -43 71 -43c62.667 0 94 61 94 183z" />
    <glyph glyph-name="Emacron" unicode="&#x112;" horiz-adv-x="547" 
d="M148 831h251v-72h-251v72zM70 686h423v-80h-335v-215h291v-80h-291v-231h341v-80h-429v686z" />
    <glyph glyph-name="emacron" unicode="&#x113;" 
d="M103 671h251v-72h-251v72zM91.5 53.5c-33 43.667 -49.5 113.5 -49.5 209.5c0 94 16.333 163.333 49 208s82.334 67 149.001 67c58.667 0 102.167 -19.5 130.5 -58.5s42.5 -101.833 42.5 -188.5v-52h-285c0.666992 -61.333 10.167 -106.333 28.5 -135
s47.166 -43 86.499 -43c26.667 0 48.167 10.667 64.5 32s24.5 50 24.5 86h81c0 -58.667 -15.833 -105.167 -47.5 -139.5s-73.167 -51.5 -124.5 -51.5c-66.667 0 -116.5 21.833 -149.5 65.5zM327 312c0 50 -7.33203 88 -21.999 114s-36.334 39 -65.001 39
c-35.333 0 -61.833 -12.5 -79.5 -37.5s-28.167 -63.5 -31.5 -115.5h198z" />
    <glyph glyph-name="Ebreve" unicode="&#x114;" horiz-adv-x="547" 
d="M209 800.5c-18.667 9.66699 -33.167 22.001 -43.5 37.001s-15.5 30.167 -15.5 45.5h64c2 -8 8.5 -15.5 19.5 -22.5s24.167 -10.5 39.5 -10.5c16 0 29.833 3.66699 41.5 11s17.834 14.666 18.501 21.999h64c0 -15.333 -5.16699 -30.5 -15.5 -45.5
s-24.833 -27.333 -43.5 -37s-40.334 -14.5 -65.001 -14.5c-24 0 -45.333 4.83301 -64 14.5zM70 686.001h423v-80h-335v-215h291v-80h-291v-231h341v-80h-429v686z" />
    <glyph glyph-name="ebreve" unicode="&#x115;" 
d="M163.5 640.5c-19 9.66699 -33.665 22 -43.998 37s-15.5 30.167 -15.5 45.5h65c2 -8 8.33301 -15.5 19 -22.5s24 -10.5 40 -10.5s29.667 3.5 41 10.5s17.666 14.5 18.999 22.5h64c0 -15.333 -5.16699 -30.5 -15.5 -45.5s-24.833 -27.333 -43.5 -37
s-40.334 -14.5 -65.001 -14.5c-24 0 -45.5 4.83301 -64.5 14.5zM91.502 53.5c-33 43.667 -49.5 113.5 -49.5 209.5c0 94 16.333 163.333 49 208s82.334 67 149.001 67c58.667 0 102.167 -19.5 130.5 -58.5s42.5 -101.833 42.5 -188.5v-52h-285
c0.666992 -61.333 10.167 -106.333 28.5 -135s47.166 -43 86.499 -43c26.667 0 48.167 10.667 64.5 32s24.5 50 24.5 86h81c0 -58.667 -15.833 -105.167 -47.5 -139.5s-73.167 -51.5 -124.5 -51.5c-66.667 0 -116.5 21.833 -149.5 65.5zM327.002 312
c0 50 -7.33203 88 -21.999 114s-36.334 39 -65.001 39c-35.333 0 -61.833 -12.5 -79.5 -37.5s-28.167 -63.5 -31.5 -115.5h198z" />
    <glyph glyph-name="Edotaccent" unicode="&#x116;" horiz-adv-x="547" 
d="M230 883h87v-95h-87v95zM70 686h423v-80h-335v-215h291v-80h-291v-231h341v-80h-429v686z" />
    <glyph glyph-name="edotaccent" unicode="&#x117;" 
d="M185 723h87v-95h-87v95zM91.5 53.5c-33 43.667 -49.5 113.5 -49.5 209.5c0 94 16.333 163.333 49 208s82.334 67 149.001 67c58.667 0 102.167 -19.5 130.5 -58.5s42.5 -101.833 42.5 -188.5v-52h-285c0.666992 -61.333 10.167 -106.333 28.5 -135s47.166 -43 86.499 -43
c26.667 0 48.167 10.667 64.5 32s24.5 50 24.5 86h81c0 -58.667 -15.833 -105.167 -47.5 -139.5s-73.167 -51.5 -124.5 -51.5c-66.667 0 -116.5 21.833 -149.5 65.5zM327 312c0 50 -7.33203 88 -21.999 114s-36.334 39 -65.001 39c-35.333 0 -61.833 -12.5 -79.5 -37.5
s-28.167 -63.5 -31.5 -115.5h198z" />
    <glyph glyph-name="Eogonek" unicode="&#x118;" horiz-adv-x="547" 
d="M425 -160.5c-18.667 14.333 -28 37.166 -28 68.499c0 19.333 3.16699 36.333 9.5 51s15.5 28.334 27.5 41.001h-364v686h423v-80h-335v-215h291v-80h-291v-231h341v-80c-16 -22 -24 -42.667 -24 -62c0 -16 3.66699 -29.167 11 -39.5s19 -15.5 35 -15.5h31v-51
c-22 -9.33301 -42.333 -14 -61 -14c-25.333 0 -47.333 7.16699 -66 21.5z" />
    <glyph glyph-name="eogonek" unicode="&#x119;" 
d="M244 -160.5c-18.667 14.333 -28 37.168 -28 68.501c0 30.667 9 57.334 27 80.001c-69.333 0 -120.166 22.167 -152.499 66.5s-48.5 113.833 -48.5 208.5c0 94 16.333 163.333 49 208s82.334 67 149.001 67c58.667 0 102.167 -19.5 130.5 -58.5s42.5 -101.833 42.5 -188.5
v-52h-285c0.666992 -61.333 10.167 -106.333 28.5 -135s47.166 -43 86.499 -43c26.667 0 48.167 10.667 64.5 32s24.5 50 24.5 86h81c0 -40.667 -8 -75.834 -24 -105.501s-38 -51.834 -66 -66.501c-7.33301 -8.66699 -14 -19.167 -20 -31.5s-9 -24.833 -9 -37.5
c0 -15.333 3.66699 -28.333 11 -39s18.666 -16 33.999 -16h32v-51c-22 -9.33301 -42.333 -14 -61 -14c-25.333 0 -47.333 7.16699 -66 21.5zM327 312.002c0 50 -7.33203 88 -21.999 114s-36.334 39 -65.001 39c-35.333 0 -61.833 -12.5 -79.5 -37.5
s-28.167 -63.5 -31.5 -115.5h198z" />
    <glyph glyph-name="Ecaron" unicode="&#x11a;" horiz-adv-x="547" 
d="M149 883h80l44 -79l45 79h80l-86 -135h-78zM70 686h423v-80h-335v-215h291v-80h-291v-231h341v-80h-429v686z" />
    <glyph glyph-name="ecaron" unicode="&#x11b;" 
d="M104 723h80l44 -79l45 79h80l-86 -135h-79zM91.5 53.5c-33 43.667 -49.5 113.5 -49.5 209.5c0 94 16.333 163.333 49 208s82.334 67 149.001 67c58.667 0 102.167 -19.5 130.5 -58.5s42.5 -101.833 42.5 -188.5v-52h-285c0.666992 -61.333 10.167 -106.333 28.5 -135
s47.166 -43 86.499 -43c26.667 0 48.167 10.667 64.5 32s24.5 50 24.5 86h81c0 -58.667 -15.833 -105.167 -47.5 -139.5s-73.167 -51.5 -124.5 -51.5c-66.667 0 -116.5 21.833 -149.5 65.5zM327 312c0 50 -7.33203 88 -21.999 114s-36.334 39 -65.001 39
c-35.333 0 -61.833 -12.5 -79.5 -37.5s-28.167 -63.5 -31.5 -115.5h198z" />
    <glyph glyph-name="Gcircumflex" unicode="&#x11c;" horiz-adv-x="638" 
d="M275 747h-80l86 135h78l85 -135h-80l-44 79zM305 357l267.997 0.00195312v-357h-58l-19 76c-40 -58.667 -99 -88 -177 -88c-87.333 0 -154.166 29.667 -200.499 89s-69.5 148 -69.5 266c0 116.667 24 205 72 265s115.667 90 203 90c74.667 0 134.834 -21 180.501 -63
s68.5 -103 68.5 -183h-90c0 55.333 -14.167 96.666 -42.5 123.999s-67.166 41 -116.499 41c-58 0 -103 -21 -135 -63s-48 -104 -48 -186v-50c0 -82.667 15.167 -144.834 45.5 -186.501s74.5 -62.5 132.5 -62.5c56.667 0 98.167 16 124.5 48s39.5 81 39.5 147v16h-178v77z
" />
    <glyph glyph-name="gcircumflex" unicode="&#x11d;" 
d="M189 722h79l85 -135h-80l-44 79l-45 -79h-80zM47 -146.5c-22.667 23.667 -34 53.5039 -34 89.5039c0 26 6.16699 49.167 18.5 69.5s28.833 34.5 49.5 42.5c-13.333 8.66699 -23.833 20 -31.5 34s-11.5 29 -11.5 45c0 20.667 6.66699 39 20 55s31.333 28 54 36
c-40.667 33.333 -61 78.666 -61 135.999c0 55.333 15.333 98.666 46 129.999s72.667 47 126 47c27.333 0 52.666 -6.33301 75.999 -19c26 12.667 44 25.334 54 38.001s15.333 30.667 16 54h67c0 -32 -7.83301 -59.333 -23.5 -82s-37.167 -37.334 -64.5 -44.001
c31.333 -32.667 47 -74 47 -124c0 -54 -15.167 -96.833 -45.5 -128.5s-71.166 -47.834 -122.499 -48.501h-55c-13.333 0 -24.666 -4.5 -33.999 -13.5s-14 -20.167 -14 -33.5c0 -12.667 4.66699 -23.667 14 -33s20.666 -14 33.999 -14h150c37.333 0 67.333 -11.833 90 -35.5
s34 -52.834 34 -87.501c0 -43.333 -13.5 -79 -40.5 -107s-64.833 -42 -113.5 -42h-149c-41.333 0 -73.333 11.833 -96 35.5zM288.5 281.004c15.667 19.333 23.5 46 23.5 80c0 35.333 -7.83301 62.333 -23.5 81s-37.834 28 -66.501 28s-50.667 -9.66699 -66 -29
s-23 -46 -23 -80c0 -35.333 7.66699 -62.333 23 -81s37.333 -28 66 -28s50.834 9.66699 66.501 29zM301 -110.996c17.333 0 32 6 44 18s18 26.667 18 44c0 18 -5.33301 32.667 -16 44s-26 17 -46 17h-145c-20 0 -35.167 -5.66699 -45.5 -17s-15.5 -26 -15.5 -44
s5.33301 -32.833 16 -44.5s25.667 -17.5 45 -17.5h145z" />
    <glyph glyph-name="Gbreve" unicode="&#x11e;" horiz-adv-x="638" 
d="M255 800.5c-18.667 9.66699 -33.165 22 -43.498 37s-15.5 30.167 -15.5 45.5h64c2 -8 8.5 -15.5 19.5 -22.5s24.167 -10.5 39.5 -10.5c16 0 29.667 3.5 41 10.5s17.666 14.5 18.999 22.5h64c0 -15.333 -5.16699 -30.5 -15.5 -45.5s-24.833 -27.333 -43.5 -37
s-40.334 -14.5 -65.001 -14.5c-24 0 -45.333 4.83301 -64 14.5zM305.002 357l267.997 0.00195312v-357h-58l-19 76c-40 -58.667 -99 -88 -177 -88c-87.333 0 -154.166 29.667 -200.499 89s-69.5 148 -69.5 266c0 116.667 24 205 72 265s115.667 90 203 90
c74.667 0 134.834 -21 180.501 -63s68.5 -103 68.5 -183h-90c0 55.333 -14.167 96.666 -42.5 123.999s-67.166 41 -116.499 41c-58 0 -103 -21 -135 -63s-48 -104 -48 -186v-50c0 -82.667 15.167 -144.834 45.5 -186.501s74.5 -62.5 132.5 -62.5
c56.667 0 98.167 16 124.5 48s39.5 81 39.5 147v16h-178v77z" />
    <glyph glyph-name="gbreve" unicode="&#x11f;" 
d="M163.5 640.5c-19 9.66699 -33.665 22 -43.998 37s-15.5 30.167 -15.5 45.5h65c2 -8 8.33301 -15.5 19 -22.5s24 -10.5 40 -10.5s29.667 3.5 41 10.5s17.666 14.5 18.999 22.5h64c0 -15.333 -5.16699 -30.5 -15.5 -45.5s-24.833 -27.333 -43.5 -37
s-40.334 -14.5 -65.001 -14.5c-24 0 -45.5 4.83301 -64.5 14.5zM47.002 -146.5c-22.667 23.667 -34.001 53.5068 -34.001 89.5068c0 26 6.16699 49.167 18.5 69.5s28.833 34.5 49.5 42.5c-13.333 8.66699 -23.833 20 -31.5 34s-11.5 29 -11.5 45c0 20.667 6.66699 39 20 55
s31.333 28 54 36c-40.667 33.333 -61 78.666 -61 135.999c0 55.333 15.333 98.666 46 129.999s72.667 47 126 47c27.333 0 52.666 -6.33301 75.999 -19c21.333 11.333 36.833 24.666 46.5 39.999s15.834 32.666 18.501 51.999h72c0 -32 -7.83301 -59.333 -23.5 -82
s-37.167 -37.334 -64.5 -44.001c31.333 -32.667 47 -74 47 -124c0 -54 -15.167 -96.833 -45.5 -128.5s-71.166 -47.834 -122.499 -48.501h-55c-13.333 0 -24.666 -4.5 -33.999 -13.5s-14 -20.167 -14 -33.5c0 -12.667 4.66699 -23.667 14 -33s20.666 -14 33.999 -14h150
c37.333 0 67.333 -11.833 90 -35.5s34 -52.834 34 -87.501c0 -43.333 -13.5 -79 -40.5 -107s-64.833 -42 -113.5 -42h-149c-41.333 0 -73.333 11.833 -96 35.5zM288.501 281.007c15.667 19.333 23.5 46 23.5 80c0 35.333 -7.83301 62.333 -23.5 81s-37.834 28 -66.501 28
s-50.667 -9.66699 -66 -29s-23 -46 -23 -80c0 -35.333 7.66699 -62.333 23 -81s37.333 -28 66 -28s50.834 9.66699 66.501 29zM301.001 -110.993c17.333 0 32 6 44 18s18 26.667 18 44c0 18 -5.33301 32.667 -16 44s-26 17 -46 17h-145c-20 0 -35.167 -5.66699 -45.5 -17
s-15.5 -26 -15.5 -44s5.33301 -32.833 16 -44.5s25.667 -17.5 45 -17.5h145z" />
    <glyph glyph-name="Gdotaccent" unicode="&#x120;" horiz-adv-x="638" 
d="M363 788h-87v95h87v-95zM305 357l267.997 0.00195312v-357h-58l-19 76c-40 -58.667 -99 -88 -177 -88c-87.333 0 -154.166 29.667 -200.499 89s-69.5 148 -69.5 266c0 116.667 24 205 72 265s115.667 90 203 90c74.667 0 134.834 -21 180.501 -63s68.5 -103 68.5 -183
h-90c0 55.333 -14.167 96.666 -42.5 123.999s-67.166 41 -116.499 41c-58 0 -103 -21 -135 -63s-48 -104 -48 -186v-50c0 -82.667 15.167 -144.834 45.5 -186.501s74.5 -62.5 132.5 -62.5c56.667 0 98.167 16 124.5 48s39.5 81 39.5 147v16h-178v77z" />
    <glyph glyph-name="gdotaccent" unicode="&#x121;" 
d="M185 723h87v-95h-87v95zM47 -146.5c-22.667 23.667 -34.001 53.5068 -34.001 89.5068c0 26 6.16699 49.167 18.5 69.5s28.833 34.5 49.5 42.5c-13.333 8.66699 -23.833 20 -31.5 34s-11.5 29 -11.5 45c0 20.667 6.66699 39 20 55s31.333 28 54 36
c-40.667 33.333 -61 78.666 -61 135.999c0 55.333 15.333 98.666 46 129.999s72.667 47 126 47c27.333 0 52.666 -6.33301 75.999 -19c21.333 11.333 36.833 24.666 46.5 39.999s15.834 32.666 18.501 51.999h72c0 -32 -7.83301 -59.333 -23.5 -82
s-37.167 -37.334 -64.5 -44.001c31.333 -32.667 47 -74 47 -124c0 -54 -15.167 -96.833 -45.5 -128.5s-71.166 -47.834 -122.499 -48.501h-55c-13.333 0 -24.666 -4.5 -33.999 -13.5s-14 -20.167 -14 -33.5c0 -12.667 4.66699 -23.667 14 -33s20.666 -14 33.999 -14h150
c37.333 0 67.333 -11.833 90 -35.5s34 -52.834 34 -87.501c0 -43.333 -13.5 -79 -40.5 -107s-64.833 -42 -113.5 -42h-149c-41.333 0 -73.333 11.833 -96 35.5zM288.499 281.007c15.667 19.333 23.5 46 23.5 80c0 35.333 -7.83301 62.333 -23.5 81s-37.834 28 -66.501 28
s-50.667 -9.66699 -66 -29s-23 -46 -23 -80c0 -35.333 7.66699 -62.333 23 -81s37.333 -28 66 -28s50.834 9.66699 66.501 29zM300.999 -110.993c17.333 0 32 6 44 18s18 26.667 18 44c0 18 -5.33301 32.667 -16 44s-26 17 -46 17h-145c-20 0 -35.167 -5.66699 -45.5 -17
s-15.5 -26 -15.5 -44s5.33301 -32.833 16 -44.5s25.667 -17.5 45 -17.5h145z" />
    <glyph glyph-name="Gcommaaccent" unicode="&#x122;" horiz-adv-x="638" 
d="M305 357l267.997 0.00195312v-357h-58l-19 76c-40 -58.667 -99 -88 -177 -88c-87.333 0 -154.166 29.667 -200.499 89s-69.5 148 -69.5 266c0 116.667 24 205 72 265s115.667 90 203 90c74.667 0 134.834 -21 180.501 -63s68.5 -103 68.5 -183h-90
c0 55.333 -14.167 96.666 -42.5 123.999s-67.166 41 -116.499 41c-58 0 -103 -21 -135 -63s-48 -104 -48 -186v-50c0 -82.667 15.167 -144.834 45.5 -186.501s74.5 -62.5 132.5 -62.5c56.667 0 98.167 16 124.5 48s39.5 81 39.5 147v16h-178v77zM276.997 -59.998h85v-84
l-29 -78h-44l22 71h-34v91z" />
    <glyph glyph-name="gcommaaccent" unicode="&#x123;" 
d="M170 679l30 78h44l-22 -71h34v-91h-86v84zM47 -146.5c-22.667 23.667 -34.001 53.5068 -34.001 89.5068c0 26 6.16699 49.167 18.5 69.5s28.833 34.5 49.5 42.5c-13.333 8.66699 -23.833 20 -31.5 34s-11.5 29 -11.5 45c0 20.667 6.66699 39 20 55s31.333 28 54 36
c-40.667 33.333 -61 78.666 -61 135.999c0 55.333 15.333 98.666 46 129.999s72.667 47 126 47c27.333 0 52.666 -6.33301 75.999 -19c21.333 11.333 36.833 24.666 46.5 39.999s15.834 32.666 18.501 51.999h72c0 -32 -7.83301 -59.333 -23.5 -82
s-37.167 -37.334 -64.5 -44.001c31.333 -32.667 47 -74 47 -124c0 -54 -15.167 -96.833 -45.5 -128.5s-71.166 -47.834 -122.499 -48.501h-55c-13.333 0 -24.666 -4.5 -33.999 -13.5s-14 -20.167 -14 -33.5c0 -12.667 4.66699 -23.667 14 -33s20.666 -14 33.999 -14h150
c37.333 0 67.333 -11.833 90 -35.5s34 -52.834 34 -87.501c0 -43.333 -13.5 -79 -40.5 -107s-64.833 -42 -113.5 -42h-149c-41.333 0 -73.333 11.833 -96 35.5zM288.499 281.007c15.667 19.333 23.5 46 23.5 80c0 35.333 -7.83301 62.333 -23.5 81s-37.834 28 -66.501 28
s-50.667 -9.66699 -66 -29s-23 -46 -23 -80c0 -35.333 7.66699 -62.333 23 -81s37.333 -28 66 -28s50.834 9.66699 66.501 29zM300.999 -110.993c17.333 0 32 6 44 18s18 26.667 18 44c0 18 -5.33301 32.667 -16 44s-26 17 -46 17h-145c-20 0 -35.167 -5.66699 -45.5 -17
s-15.5 -26 -15.5 -44s5.33301 -32.833 16 -44.5s25.667 -17.5 45 -17.5h145z" />
    <glyph glyph-name="Hcircumflex" unicode="&#x124;" horiz-adv-x="592" 
d="M257 882h78l86 -135h-80l-44 79l-46 -79h-80zM70 686h88v-295h276v295h88v-686h-88v311h-276v-311h-88v686z" />
    <glyph glyph-name="hcircumflex" unicode="&#x125;" 
d="M64 882h79l85 -135h-80l-44 79l-45 -79h-81zM60 723h82.001v-252h6c25.333 44.667 64.666 67 117.999 67c42 0 74.167 -12.5 96.5 -37.5s33.5 -65.5 33.5 -121.5v-379h-82v373c0 34 -6.33301 57.833 -19 71.5s-31 20.5 -55 20.5c-27.333 0 -50.5 -13 -69.5 -39
s-28.5 -61 -28.5 -105v-321h-82v723z" />
    <glyph glyph-name="Hbar" unicode="&#x126;" horiz-adv-x="592" 
d="M70 490h-50v72h50v124h88v-124h276v124h88v-124h50v-72h-50v-490h-88v306h-276v-306h-88v490zM434 386v104h-276v-104h276z" />
    <glyph glyph-name="hbar" unicode="&#x127;" 
d="M60 583h-59.999v68h60v72h82v-72h108v-68h-108v-112h6c25.333 44.667 64.666 67 117.999 67c42 0 74.167 -12.5 96.5 -37.5s33.5 -65.5 33.5 -121.5v-379h-82v373c0 34 -6.33301 57.833 -19 71.5s-31 20.5 -55 20.5c-27.333 0 -50.5 -13 -69.5 -39s-28.5 -61 -28.5 -105
v-321h-82v583z" />
    <glyph glyph-name="Itilde" unicode="&#x128;" horiz-adv-x="228" 
d="M-10 851c14.667 21.333 35.667 32 63 32c10 0 19.333 -1.33301 28 -4s19.334 -6.66699 32.001 -12c24 -9.33301 42.333 -14 55 -14c20 0 31.333 10 34 30h58c0 -26.667 -7.33301 -50.667 -22 -72s-35.667 -32 -63 -32c-10 0 -19.333 1.33301 -28 4
s-19.334 6.66699 -32.001 12c-22.667 10 -41 15 -55 15c-20 0 -31.333 -10.333 -34 -31h-58c0 26.667 7.33301 50.667 22 72zM70 686h88v-686h-88v686z" />
    <glyph glyph-name="itilde" unicode="&#x129;" horiz-adv-x="228" 
d="M-10 691c14.667 21.333 35.667 32 63 32c10 0 19.333 -1.33301 28 -4s19.334 -6.66699 32.001 -12c22.667 -10 41 -15 55 -15c20 0 31.333 10.333 34 31h58c0 -26.667 -7.33301 -50.667 -22 -72s-35.667 -32 -63 -32c-10 0 -19.333 1.33301 -28 4
s-19.334 6.66699 -32.001 12c-22.667 10 -41 15 -55 15c-20 0 -31.333 -10.333 -34 -31h-58c0 26.667 7.33301 50.667 22 72zM73 526h82v-526h-82v526z" />
    <glyph glyph-name="Imacron" unicode="&#x12a;" horiz-adv-x="228" 
d="M-11 831h251v-72h-251v72zM70 686h88v-686h-88v686z" />
    <glyph glyph-name="imacron" unicode="&#x12b;" horiz-adv-x="228" 
d="M-11 671h251v-72h-251v72zM73 526h82v-526h-82v526z" />
    <glyph glyph-name="Ibreve" unicode="&#x12c;" horiz-adv-x="228" 
d="M49.5 800.5c-19 9.66699 -33.665 22 -43.998 37s-15.5 30.167 -15.5 45.5h65c2 -8 8.5 -15.5 19.5 -22.5s24.167 -10.5 39.5 -10.5c16 0 29.667 3.5 41 10.5s17.666 14.5 18.999 22.5h64c0 -15.333 -5.16699 -30.5 -15.5 -45.5s-24.833 -27.333 -43.5 -37
s-40.334 -14.5 -65.001 -14.5c-24 0 -45.5 4.83301 -64.5 14.5zM70.002 686h88v-686h-88v686z" />
    <glyph glyph-name="ibreve" unicode="&#x12d;" horiz-adv-x="228" 
d="M49.5 640.5c-19 9.66699 -33.665 22 -43.998 37s-15.5 30.167 -15.5 45.5h65c2 -8 8.5 -15.5 19.5 -22.5s24.167 -10.5 39.5 -10.5c16 0 29.667 3.5 41 10.5s17.666 14.5 18.999 22.5h64c0 -15.333 -5.16699 -30.5 -15.5 -45.5s-24.833 -27.333 -43.5 -37
s-40.334 -14.5 -65.001 -14.5c-24 0 -45.5 4.83301 -64.5 14.5zM73.002 526h82v-526h-82v526z" />
    <glyph glyph-name="Iogonek" unicode="&#x12e;" horiz-adv-x="228" 
d="M205 -117l0.000976562 -50.9971c-22 -9.33301 -42.333 -14 -61 -14c-25.333 0 -47.5 7.16699 -66.5 21.5s-28.5 37.166 -28.5 68.499c0 19.333 3.16699 36.166 9.5 50.499s15.166 28.166 26.499 41.499h-15v686h88v-686h-6c-16.667 -22 -25 -42.667 -25 -62
c0 -15.333 3.83301 -28.333 11.5 -39s19.167 -16 34.5 -16h32z" />
    <glyph glyph-name="iogonek" unicode="&#x12f;" horiz-adv-x="182" 
d="M136 628h-88v95h88v-95zM179 -117l0.00195312 -50.9971c-22 -9.33301 -42.333 -14 -61 -14c-25.333 0 -47.333 7.16699 -66 21.5s-28 37.166 -28 68.499c0 19.333 3.16699 36.166 9.5 50.499s15.166 28.166 26.499 41.499h-10v526h82v-526h-5
c-16.667 -21.333 -25 -42 -25 -62c0 -15.333 3.66699 -28.333 11 -39s18.666 -16 33.999 -16h32z" />
    <glyph glyph-name="Idotaccent" unicode="&#x130;" horiz-adv-x="228" 
d="M71 883h87v-95h-87v95zM70 686h88v-686h-88v686z" />
    <glyph glyph-name="dotlessi" unicode="&#x131;" horiz-adv-x="228" 
d="M73 526h82v-526h-82v526z" />
    <glyph glyph-name="IJ" unicode="&#x132;" horiz-adv-x="638" 
d="M70 686h88v-686h-88v686zM284.5 33c-29 30 -43.498 73.333 -43.498 130v45h88v-50c0 -28.667 6.66699 -50.667 20 -66s32.666 -23 57.999 -23s44.666 7.66699 57.999 23s20 37.333 20 66v528h88v-523c0 -56.667 -14.5 -100 -43.5 -130s-69.833 -45 -122.5 -45
s-93.5 15 -122.5 45z" />
    <glyph glyph-name="ij" unicode="&#x133;" horiz-adv-x="364" 
d="M50 723h82v-98h-82v98zM232 723h82v-98h-82v98zM50 526h82v-526h-82v526zM141 -170v57h44c31.333 0 47 16 47 48v591h82v-587c0 -34.667 -8.16699 -63.5 -24.5 -86.5s-42.833 -34.5 -79.5 -34.5c-23.333 0 -46.333 4 -69 12z" />
    <glyph glyph-name="Jcircumflex" unicode="&#x134;" horiz-adv-x="410" 
d="M263 882h78l86 -135h-80l-44 79l-46 -79h-80zM56.5 33c-29 30 -43.498 73.333 -43.498 130v45h88v-50c0 -28.667 6.66699 -50.667 20 -66s32.666 -23 57.999 -23s44.666 7.66699 57.999 23s20 37.333 20 66v528h88v-523c0 -56.667 -14.5 -100 -43.5 -130
s-69.833 -45 -122.5 -45s-93.5 15 -122.5 45z" />
    <glyph glyph-name="jcircumflex" unicode="&#x135;" horiz-adv-x="182" 
d="M52 722h78l86 -135h-80l-44 79l-46 -79h-80zM-41 -170v57h44c31.333 0 47 16 47 48v591h82v-587c0 -34.667 -8.16699 -63.5 -24.5 -86.5s-42.833 -34.5 -79.5 -34.5c-23.333 0 -46.333 4 -69 12z" />
    <glyph glyph-name="Kcommaaccent" unicode="&#x136;" horiz-adv-x="547" 
d="M70 686h88v-363l272 363h98l-206 -277l213 -409h-100l-167 335l-110 -122v-213h-88v686zM265 -151h-34v91h85v-84l-29 -78h-44z" />
    <glyph glyph-name="kcommaaccent" unicode="&#x137;" horiz-adv-x="410" 
d="M60 723h82v-441l170 244h91l-155 -216l163 -310h-93l-120 240l-56 -61v-179h-82v723zM197 -151h-34v91h85v-84l-29 -78h-45z" />
    <glyph glyph-name="kgreenlandic" unicode="&#x138;" horiz-adv-x="408" 
d="M60 526h82v-244l170 244h91l-155 -216l163 -310h-93l-120 240l-56 -61v-179h-82v526z" />
    <glyph glyph-name="Lacute" unicode="&#x139;" 
d="M137 883h90l1 -3l-107 -129h-70zM70 686h88v-606h280v-80h-368v686z" />
    <glyph glyph-name="lacute" unicode="&#x13a;" horiz-adv-x="182" 
d="M118 883h90v-3l-107 -129h-69zM50 723h82v-723h-82v723z" />
    <glyph glyph-name="Lcommaaccent" unicode="&#x13b;" 
d="M70 686h88v-606h280v-80h-368v686zM220 -151h-34v91h85v-84l-29 -78h-45z" />
    <glyph glyph-name="lcommaaccent" unicode="&#x13c;" horiz-adv-x="182" 
d="M50 723h82v-723h-82v723zM83 -151h-34v91h85v-84l-29 -78h-44z" />
    <glyph glyph-name="Lcaron" unicode="&#x13d;" 
d="M70 686h88v-606h280v-80h-368v686zM359 578h-40v108h100v-99l-48 -133h-52z" />
    <glyph glyph-name="lcaron" unicode="&#x13e;" horiz-adv-x="239" 
d="M50 723h82v-723h-82v723zM212 578h-40v108h100v-99l-48 -133h-52z" />
    <glyph glyph-name="Ldot" unicode="&#x13f;" 
d="M70 686h88v-606h280v-80h-368v686zM295 525h101v-111h-101v111z" />
    <glyph glyph-name="ldot" unicode="&#x140;" horiz-adv-x="323" 
d="M50 723h82v-723h-82v723zM172 399h101v-111h-101v111z" />
    <glyph glyph-name="Lslash" unicode="&#x141;" 
d="M70 245l-70 -61v71l70 62v369h88v-291l137 122v-73l-137 -121v-243h280v-80h-368v245z" />
    <glyph glyph-name="lslash" unicode="&#x142;" horiz-adv-x="182" 
d="M50 246l-71 -62v71l71 63v405h82v-332l87 77v-72l-87 -77v-319h-82v246z" />
    <glyph glyph-name="Nacute" unicode="&#x143;" horiz-adv-x="592" 
d="M322 883h90l1 -3l-107 -129h-70zM70 686h76l255 -431c6 -10.667 13.833 -26.834 23.5 -48.501s15.834 -36.167 18.501 -43.5l3 1c0 7.33301 -0.5 20.333 -1.5 39s-1.5 36 -1.5 52v431h79v-686h-73l-257 437c-7.33301 12 -15.833 28.667 -25.5 50
s-15.834 35.333 -18.501 42l-3 -1c0.666992 -6.66699 1.5 -19.167 2.5 -37.5s1.5 -36.166 1.5 -53.499v-437h-79v686z" />
    <glyph glyph-name="nacute" unicode="&#x144;" 
d="M254 723h90l1 -3l-107 -129h-70zM60 526h62.001l11 -61h6c27.333 48.667 69.666 73 126.999 73c42 0 74.167 -12.5 96.5 -37.5s33.5 -65.5 33.5 -121.5v-379h-82v373c0 34 -6.33301 57.833 -19 71.5s-31 20.5 -55 20.5c-27.333 0 -50.5 -13 -69.5 -39
s-28.5 -61 -28.5 -105v-321h-82v526z" />
    <glyph glyph-name="Ncommaaccent" unicode="&#x145;" horiz-adv-x="592" 
d="M70 686h76l255 -431c6 -10.667 13.833 -26.834 23.5 -48.501s15.834 -36.167 18.501 -43.5l3 1c0 7.33301 -0.5 20.333 -1.5 39s-1.5 36 -1.5 52v431h79v-686h-73l-257 437c-7.33301 12 -15.833 28.667 -25.5 50s-15.834 35.333 -18.501 42l-3 -1
c0.666992 -6.66699 1.5 -19.167 2.5 -37.5s1.5 -36.166 1.5 -53.499v-437h-79v686zM288 -151h-35v91h86v-84l-29 -78h-45z" />
    <glyph glyph-name="ncommaaccent" unicode="&#x146;" 
d="M60 526h62.001l11 -61h6c27.333 48.667 69.666 73 126.999 73c42 0 74.167 -12.5 96.5 -37.5s33.5 -65.5 33.5 -121.5v-379h-82v373c0 34 -6.33301 57.833 -19 71.5s-31 20.5 -55 20.5c-27.333 0 -50.5 -13 -69.5 -39s-28.5 -61 -28.5 -105v-321h-82v526zM220.001 -151
h-34v91h85v-84l-29 -78h-45z" />
    <glyph glyph-name="Ncaron" unicode="&#x147;" horiz-adv-x="592" 
d="M171 883h80l45 -79l45 79h80l-87 -135h-78zM70 686h76l255 -431c6 -10.667 13.833 -26.834 23.5 -48.501s15.834 -36.167 18.501 -43.5l3 1c0 7.33301 -0.5 20.333 -1.5 39s-1.5 36 -1.5 52v431h79v-686h-73l-257 437c-7.33301 12 -15.833 28.667 -25.5 50
s-15.834 35.333 -18.501 42l-3 -1c0.666992 -6.66699 1.5 -19.167 2.5 -37.5s1.5 -36.166 1.5 -53.499v-437h-79v686z" />
    <glyph glyph-name="ncaron" unicode="&#x148;" 
d="M104 723h80l44 -79l45 79h80l-86 -135h-79zM60 526h62.001l11 -61h6c27.333 48.667 69.666 73 126.999 73c42 0 74.167 -12.5 96.5 -37.5s33.5 -65.5 33.5 -121.5v-379h-82v373c0 34 -6.33301 57.833 -19 71.5s-31 20.5 -55 20.5c-27.333 0 -50.5 -13 -69.5 -39
s-28.5 -61 -28.5 -105v-321h-82v526z" />
    <glyph glyph-name="napostrophe" unicode="&#x149;" horiz-adv-x="573" 
d="M82 594h-35v91h86v-84l-29 -78h-45zM177 526h62.002l11 -61h6c27.333 48.667 69.666 73 126.999 73c42 0 74.167 -12.5 96.5 -37.5s33.5 -65.5 33.5 -121.5v-379h-82v373c0 34.667 -6.33301 58.667 -19 72s-31.334 20 -56.001 20c-26.667 0 -49.5 -13 -68.5 -39
s-28.5 -61 -28.5 -105v-321h-82v526z" />
    <glyph glyph-name="Eng" unicode="&#x14a;" horiz-adv-x="592" 
d="M349 -170v57h44c31.333 0 47 16 47 48v80l-248 422c-7.33301 12 -15.833 28.667 -25.5 50s-15.834 35.333 -18.501 42l-3 -1c0.666992 -6.66699 1.5 -19.167 2.5 -37.5s1.5 -36.166 1.5 -53.499v-437h-79v686h76l255 -431c6 -10.667 13.833 -26.834 23.5 -48.501
s15.834 -36.167 18.501 -43.5l3 1c0 7.33301 -0.5 20.333 -1.5 39s-1.5 36 -1.5 52l-3 431h82v-747c0 -34.667 -8.16699 -63.5 -24.5 -86.5s-42.833 -34.5 -79.5 -34.5c-23.333 0 -46.333 4 -69 12z" />
    <glyph glyph-name="eng" unicode="&#x14b;" 
d="M223 -170l0.000976562 57h44c31.333 0 47 16 47 48v438c0 34 -6.33301 57.833 -19 71.5s-31 20.5 -55 20.5c-27.333 0 -50.5 -13 -69.5 -39s-28.5 -61 -28.5 -105v-321h-82v526h62l11 -61h6c27.333 48.667 69.666 73 126.999 73c42 0 74.167 -12.5 96.5 -37.5
s33.5 -65.5 33.5 -121.5v-440c0 -34.667 -8.16699 -63.5 -24.5 -86.5s-42.833 -34.5 -79.5 -34.5c-23.333 0 -46.333 4 -69 12z" />
    <glyph glyph-name="Omacron" unicode="&#x14c;" horiz-adv-x="638" 
d="M194 831h251v-72h-251v72zM120 78c-47.333 60 -71 148.333 -71 265s23.667 205 71 265s113.666 90 198.999 90s151.666 -30 198.999 -90s71 -148.333 71 -265s-23.667 -205 -71 -265s-113.666 -90 -198.999 -90s-151.666 30 -198.999 90zM450 132
c31.333 42 47 104 47 186v50c0 82 -15.667 144 -47 186s-75 63 -131 63s-99.667 -21 -131 -63s-47 -104 -47 -186v-50c0 -82 15.667 -144 47 -186s75 -63 131 -63s99.667 21 131 63z" />
    <glyph glyph-name="omacron" unicode="&#x14d;" 
d="M103 671h251v-72h-251v72zM87.5 55.5c-31.667 45 -47.5 114.167 -47.5 207.5s15.833 162.5 47.5 207.5s78.5 67.5 140.5 67.5s108.833 -22.5 140.5 -67.5s47.5 -114.167 47.5 -207.5s-15.833 -162.5 -47.5 -207.5s-78.5 -67.5 -140.5 -67.5s-108.833 22.5 -140.5 67.5z
M330 244v38c0 122 -34 183 -102 183s-102 -61 -102 -183v-38c0 -122 34 -183 102 -183s102 61 102 183z" />
    <glyph glyph-name="Obreve" unicode="&#x14e;" horiz-adv-x="638" 
d="M255 800.5c-18.667 9.66699 -33.165 22 -43.498 37s-15.5 30.167 -15.5 45.5h64c2 -8 8.5 -15.5 19.5 -22.5s24.167 -10.5 39.5 -10.5c16 0 29.667 3.5 41 10.5s17.666 14.5 18.999 22.5h64c0 -15.333 -5.16699 -30.5 -15.5 -45.5s-24.833 -27.333 -43.5 -37
s-40.334 -14.5 -65.001 -14.5c-24 0 -45.333 4.83301 -64 14.5zM120.002 78c-47.333 60 -71 148.333 -71 265s23.667 205 71 265s113.666 90 198.999 90s151.666 -30 198.999 -90s71 -148.333 71 -265s-23.667 -205 -71 -265s-113.666 -90 -198.999 -90
s-151.666 30 -198.999 90zM450.002 132c31.333 42 47 104 47 186v50c0 82 -15.667 144 -47 186s-75 63 -131 63s-99.667 -21 -131 -63s-47 -104 -47 -186v-50c0 -82 15.667 -144 47 -186s75 -63 131 -63s99.667 21 131 63z" />
    <glyph glyph-name="obreve" unicode="&#x14f;" 
d="M163.5 640.5c-19 9.66699 -33.665 22 -43.998 37s-15.5 30.167 -15.5 45.5h65c2 -8 8.33301 -15.5 19 -22.5s24 -10.5 40 -10.5s29.667 3.5 41 10.5s17.666 14.5 18.999 22.5h64c0 -15.333 -5.16699 -30.5 -15.5 -45.5s-24.833 -27.333 -43.5 -37
s-40.334 -14.5 -65.001 -14.5c-24 0 -45.5 4.83301 -64.5 14.5zM87.502 55.5c-31.667 45 -47.5 114.167 -47.5 207.5s15.833 162.5 47.5 207.5s78.5 67.5 140.5 67.5s108.833 -22.5 140.5 -67.5s47.5 -114.167 47.5 -207.5s-15.833 -162.5 -47.5 -207.5
s-78.5 -67.5 -140.5 -67.5s-108.833 22.5 -140.5 67.5zM330.002 244v38c0 122 -34 183 -102 183s-102 -61 -102 -183v-38c0 -122 34 -183 102 -183s102 61 102 183z" />
    <glyph glyph-name="Ohungarumlaut" unicode="&#x150;" horiz-adv-x="638" 
d="M286 883h89l1 -3l-84 -129h-68zM416 883h90l1 -3l-84 -129h-69zM120 78c-47.333 60 -71 148.333 -71 265s23.667 205 71 265s113.666 90 198.999 90s151.666 -30 198.999 -90s71 -148.333 71 -265s-23.667 -205 -71 -265s-113.666 -90 -198.999 -90
s-151.666 30 -198.999 90zM450 132c31.333 42 47 104 47 186v50c0 82 -15.667 144 -47 186s-75 63 -131 63s-99.667 -21 -131 -63s-47 -104 -47 -186v-50c0 -82 15.667 -144 47 -186s75 -63 131 -63s99.667 21 131 63z" />
    <glyph glyph-name="ohungarumlaut" unicode="&#x151;" 
d="M194 723h90l1 -3l-84 -129h-69zM325 723h90l1 -3l-84 -129h-69zM87.5 55.5c-31.667 45 -47.5 114.167 -47.5 207.5s15.833 162.5 47.5 207.5s78.5 67.5 140.5 67.5s108.833 -22.5 140.5 -67.5s47.5 -114.167 47.5 -207.5s-15.833 -162.5 -47.5 -207.5
s-78.5 -67.5 -140.5 -67.5s-108.833 22.5 -140.5 67.5zM330 244v38c0 122 -34 183 -102 183s-102 -61 -102 -183v-38c0 -122 34 -183 102 -183s102 61 102 183z" />
    <glyph glyph-name="OE" unicode="&#x152;" horiz-adv-x="820" 
d="M107.5 77.5c-39 59.667 -58.499 148.167 -58.499 265.5s19.5 205.833 58.5 265.5s94.167 89.5 165.5 89.5c64 0 114.667 -26.667 152 -80v68h353v-80h-265v-215h220v-80h-220v-231h271v-80h-359v68c-36.667 -53.333 -87.334 -80 -152.001 -80
c-71.333 0 -126.5 29.833 -165.5 89.5zM387.501 132c25 42 37.5 104 37.5 186v50c0 82 -12.5 144 -37.5 186s-59.833 63 -104.5 63s-79.5 -21 -104.5 -63s-37.5 -104 -37.5 -186v-50c0 -82 12.5 -144 37.5 -186s59.833 -63 104.5 -63s79.5 21 104.5 63z" />
    <glyph glyph-name="oe" unicode="&#x153;" horiz-adv-x="774" 
d="M100.5 55.5c-31.667 45 -47.501 114.167 -47.501 207.5s15.833 162.5 47.5 207.5s78.5 67.5 140.5 67.5c66.667 0 115.334 -25.667 146.001 -77c32.667 51.333 84.667 77 156 77c58.667 0 102.167 -19.5 130.5 -58.5s42.5 -101.833 42.5 -188.5v-52h-285
c0.666992 -61.333 10.167 -106.333 28.5 -135s47.166 -43 86.499 -43c26.667 0 48.167 10.667 64.5 32s24.5 50 24.5 86h81c0 -58.667 -15.833 -105.167 -47.5 -139.5s-73.167 -51.5 -124.5 -51.5c-73.333 0 -125.666 25.333 -156.999 76c-30 -50.667 -78.667 -76 -146 -76
c-62 0 -108.833 22.5 -140.5 67.5zM342.999 244v38c0 122 -34 183 -102 183s-102 -61 -102 -183v-38c0 -122 34 -183 102 -183s102 61 102 183zM629.999 312c0 50 -7.33203 88 -21.999 114s-36.334 39 -65.001 39c-35.333 0 -61.833 -12.5 -79.5 -37.5
s-28.167 -63.5 -31.5 -115.5h198z" />
    <glyph glyph-name="Racute" unicode="&#x154;" horiz-adv-x="592" 
d="M300 883h90l1 -3l-107 -129h-70zM70 686h276c66 0 116.667 -17.167 152 -51.5s53 -80.5 53 -138.5c0 -42.667 -10.667 -79.667 -32 -111s-51.333 -53.333 -90 -66l138 -319h-98l-127 303h-184v-303h-88v686zM343 383c34.667 0 62.667 10.333 84 31s32 48 32 82
c0 34.667 -10 61.667 -30 81s-48.667 29 -86 29h-185v-223h185z" />
    <glyph glyph-name="racute" unicode="&#x155;" horiz-adv-x="273" 
d="M119 723h90l1 -3l-107 -129h-70zM60 526l62 0.000976562l11 -69h6c7.33301 23.333 18.333 42.666 33 57.999s33.334 23 56.001 23c9.33301 0 17.666 -1.16699 24.999 -3.5l14 -4.5v-85h-27c-28.667 0 -52.167 -9.83301 -70.5 -29.5s-27.5 -51.167 -27.5 -94.5v-321h-82
v526z" />
    <glyph glyph-name="Rcommaaccent" unicode="&#x156;" horiz-adv-x="592" 
d="M70 686h276c66 0 116.667 -17.167 152 -51.5s53 -80.5 53 -138.5c0 -42.667 -10.667 -79.667 -32 -111s-51.333 -53.333 -90 -66l138 -319h-98l-127 303h-184v-303h-88v686zM343 383c34.667 0 62.667 10.333 84 31s32 48 32 82c0 34.667 -10 61.667 -30 81
s-48.667 29 -86 29h-185v-223h185zM288 -151h-35v91h86v-84l-29 -78h-45z" />
    <glyph glyph-name="rcommaaccent" unicode="&#x157;" horiz-adv-x="273" 
d="M60 526l62 0.000976562l11 -69h6c7.33301 23.333 18.333 42.666 33 57.999s33.334 23 56.001 23c9.33301 0 17.666 -1.16699 24.999 -3.5l14 -4.5v-85h-27c-28.667 0 -52.167 -9.83301 -70.5 -29.5s-27.5 -51.167 -27.5 -94.5v-321h-82v526zM101 -150.999h-35v91h86v-84
l-29 -78h-45z" />
    <glyph glyph-name="Rcaron" unicode="&#x158;" horiz-adv-x="592" 
d="M171 883h80l45 -79l45 79h80l-87 -135h-78zM70 686h276c66 0 116.667 -17.167 152 -51.5s53 -80.5 53 -138.5c0 -42.667 -10.667 -79.667 -32 -111s-51.333 -53.333 -90 -66l138 -319h-98l-127 303h-184v-303h-88v686zM343 383c34.667 0 62.667 10.333 84 31s32 48 32 82
c0 34.667 -10 61.667 -30 81s-48.667 29 -86 29h-185v-223h185z" />
    <glyph glyph-name="rcaron" unicode="&#x159;" horiz-adv-x="273" 
d="M-3 723h81l44 -79l45 79h80l-86 -135h-78zM60 526l62 0.000976562l11 -69h6c7.33301 23.333 18.333 42.666 33 57.999s33.334 23 56.001 23c9.33301 0 17.666 -1.16699 24.999 -3.5l14 -4.5v-85h-27c-28.667 0 -52.167 -9.83301 -70.5 -29.5s-27.5 -51.167 -27.5 -94.5
v-321h-82v526z" />
    <glyph glyph-name="Sacute" unicode="&#x15a;" horiz-adv-x="547" 
d="M300 883h90l1 -3l-108 -129h-69zM105.5 38c-43 33.333 -64.501 85.3311 -64.501 155.998l1 20h91l-1 -21c0 -40.667 12.5 -71.5 37.5 -92.5s57.833 -31.5 98.5 -31.5c46 0 81.5 9.83301 106.5 29.5s37.5 47.834 37.5 84.501c0 24.667 -6.83301 44.834 -20.5 60.501
s-30.667 28.167 -51 37.5s-48.166 19.666 -83.499 30.999c-43.333 14.667 -78.333 28.667 -105 42s-49.5 32.833 -68.5 58.5s-28.5 59.5 -28.5 101.5c0 60 20.333 105.667 61 137s93 47 157 47s115.833 -15.833 155.5 -47.5s59.5 -80.167 59.5 -145.5v-12h-91v15
c0 34 -11.5 60.667 -34.5 80s-52.167 29 -87.5 29c-38 0 -68.667 -8.16699 -92 -24.5s-35 -40.166 -35 -71.499c0 -23.333 6.66699 -42.5 20 -57.5s30 -27 50 -36s47.333 -19.167 82 -30.5c44 -14.667 79.5 -28.5 106.5 -41.5s50 -32.333 69 -58s28.5 -58.834 28.5 -99.501
c0 -73.333 -20.833 -126.666 -62.5 -159.999s-98.167 -50 -169.5 -50c-68 0 -123.5 16.667 -166.5 50z" />
    <glyph glyph-name="sacute" unicode="&#x15b;" horiz-adv-x="410" 
d="M231 723h90l1 -3l-107 -129h-69zM75 32.5c-28 29.667 -42.0029 66.1689 -42.0029 109.502c0 8 0.166992 13.5 0.5 16.5s0.5 4.83301 0.5 5.5h86v-10c0 -31.333 8 -54.833 24 -70.5s36.667 -23.5 62 -23.5c22.667 0 41.5 6.83301 56.5 20.5s22.5 32.834 22.5 57.501
c0 18.667 -4.66699 34 -14 46s-20.666 21.5 -33.999 28.5s-32 14.833 -56 23.5c-29.333 10 -53 20 -71 30s-33.333 24.833 -46 44.5s-19 45.5 -19 77.5c0 46 14.833 82.5 44.5 109.5s69.5 40.5 119.5 40.5c47.333 0 84.333 -13.833 111 -41.5s40 -61.834 40 -102.501l-1 -19
h-85v9c0 23.333 -5.66699 42.833 -17 58.5s-30 23.5 -56 23.5s-44.333 -7.33301 -55 -22s-16 -31.334 -16 -50.001c0 -22.667 7.83301 -39.5 23.5 -50.5s39.834 -21.833 72.501 -32.5c30 -10.667 54.667 -21.167 74 -31.5s35.833 -25.833 49.5 -46.5
s20.5 -48.334 20.5 -83.001c0 -54 -15.167 -94.5 -45.5 -121.5s-71.166 -40.5 -122.499 -40.5c-56.667 0 -99 14.833 -127 44.5z" />
    <glyph glyph-name="Scircumflex" unicode="&#x15c;" horiz-adv-x="547" 
d="M235 882h78l85 -135h-80l-44 79l-45 -79h-80zM105.5 38c-43 33.333 -64.501 85.3311 -64.501 155.998l1 20h91l-1 -21c0 -40.667 12.5 -71.5 37.5 -92.5s57.833 -31.5 98.5 -31.5c46 0 81.5 9.83301 106.5 29.5s37.5 47.834 37.5 84.501
c0 24.667 -6.83301 44.834 -20.5 60.501s-30.667 28.167 -51 37.5s-48.166 19.666 -83.499 30.999c-43.333 14.667 -78.333 28.667 -105 42s-49.5 32.833 -68.5 58.5s-28.5 59.5 -28.5 101.5c0 60 20.333 105.667 61 137s93 47 157 47s115.833 -15.833 155.5 -47.5
s59.5 -80.167 59.5 -145.5v-12h-91v15c0 34 -11.5 60.667 -34.5 80s-52.167 29 -87.5 29c-38 0 -68.667 -8.16699 -92 -24.5s-35 -40.166 -35 -71.499c0 -23.333 6.66699 -42.5 20 -57.5s30 -27 50 -36s47.333 -19.167 82 -30.5c44 -14.667 79.5 -28.5 106.5 -41.5
s50 -32.333 69 -58s28.5 -58.834 28.5 -99.501c0 -73.333 -20.833 -126.666 -62.5 -159.999s-98.167 -50 -169.5 -50c-68 0 -123.5 16.667 -166.5 50z" />
    <glyph glyph-name="scircumflex" unicode="&#x15d;" horiz-adv-x="410" 
d="M167 722h78l85 -135h-80l-44 79l-45 -79h-80zM75 32.5c-28 29.667 -42.0029 66.1689 -42.0029 109.502c0 8 0.166992 13.5 0.5 16.5s0.5 4.83301 0.5 5.5h86v-10c0 -31.333 8 -54.833 24 -70.5s36.667 -23.5 62 -23.5c22.667 0 41.5 6.83301 56.5 20.5
s22.5 32.834 22.5 57.501c0 18.667 -4.66699 34 -14 46s-20.666 21.5 -33.999 28.5s-32 14.833 -56 23.5c-29.333 10 -53 20 -71 30s-33.333 24.833 -46 44.5s-19 45.5 -19 77.5c0 46 14.833 82.5 44.5 109.5s69.5 40.5 119.5 40.5c47.333 0 84.333 -13.833 111 -41.5
s40 -61.834 40 -102.501l-1 -19h-85v9c0 23.333 -5.66699 42.833 -17 58.5s-30 23.5 -56 23.5s-44.333 -7.33301 -55 -22s-16 -31.334 -16 -50.001c0 -22.667 7.83301 -39.5 23.5 -50.5s39.834 -21.833 72.501 -32.5c30 -10.667 54.667 -21.167 74 -31.5
s35.833 -25.833 49.5 -46.5s20.5 -48.334 20.5 -83.001c0 -54 -15.167 -94.5 -45.5 -121.5s-71.166 -40.5 -122.499 -40.5c-56.667 0 -99 14.833 -127 44.5z" />
    <glyph glyph-name="Scedilla" unicode="&#x15e;" horiz-adv-x="547" 
d="M180 -174l-0.000976562 48.998h76c12 0 21 1.83301 27 5.5s9 9.83398 9 18.501c0 8 -2.5 14 -7.5 18s-13.833 6 -26.5 6h-33l10 67c-58.667 5.33301 -105.667 24.5 -141 57.5s-53 81.833 -53 146.5l1 20h91l-1 -21c0 -40.667 12.5 -71.5 37.5 -92.5
s57.833 -31.5 98.5 -31.5c46 0 81.5 9.83301 106.5 29.5s37.5 47.834 37.5 84.501c0 24.667 -6.83301 44.834 -20.5 60.501s-30.667 28.167 -51 37.5s-48.166 19.666 -83.499 30.999c-43.333 14.667 -78.333 28.667 -105 42s-49.5 32.833 -68.5 58.5s-28.5 59.5 -28.5 101.5
c0 60 20.333 105.667 61 137s93 47 157 47s115.833 -15.833 155.5 -47.5s59.5 -80.167 59.5 -145.5v-12h-91v15c0 34 -11.5 60.667 -34.5 80s-52.167 29 -87.5 29c-38 0 -68.667 -8.16699 -92 -24.5s-35 -40.166 -35 -71.499c0 -23.333 6.66699 -42.5 20 -57.5
s30 -27 50 -36s47.333 -19.167 82 -30.5c44 -14.667 79.5 -28.5 106.5 -41.5s50 -32.333 69 -58s28.5 -58.834 28.5 -99.501c0 -70 -19 -121.667 -57 -155s-90.333 -51.333 -157 -54l-3 -25c54 -4 81 -25.667 81 -65c0 -30 -10.667 -51 -32 -63s-45.333 -18 -72 -18
c-30.667 0 -58.667 2.66699 -84 8z" />
    <glyph glyph-name="scedilla" unicode="&#x15f;" horiz-adv-x="410" 
d="M111 -174l-0.00195312 49.001h76c12 0 21 1.83301 27 5.5s9 9.83398 9 18.501c0 8 -2.5 14 -7.5 18s-13.833 6 -26.5 6h-33l10 67c-44.667 6 -78 23.333 -100 52s-33 62 -33 100c0 8 0.166992 13.5 0.5 16.5s0.5 4.83301 0.5 5.5h86v-10c0 -31.333 8 -54.833 24 -70.5
s36.667 -23.5 62 -23.5c22.667 0 41.5 6.83301 56.5 20.5s22.5 32.834 22.5 57.501c0 18.667 -4.66699 34 -14 46s-20.666 21.5 -33.999 28.5s-32 14.833 -56 23.5c-29.333 10 -53 20 -71 30s-33.333 24.833 -46 44.5s-19 45.5 -19 77.5c0 46 14.833 82.5 44.5 109.5
s69.5 40.5 119.5 40.5c47.333 0 84.333 -13.833 111 -41.5s40 -61.834 40 -102.501l-1 -19h-85v9c0 23.333 -5.66699 42.833 -17 58.5s-30 23.5 -56 23.5s-44.333 -7.33301 -55 -22s-16 -31.334 -16 -50.001c0 -22.667 7.83301 -39.5 23.5 -50.5
s39.834 -21.833 72.501 -32.5c30 -10.667 54.667 -21.167 74 -31.5s35.833 -25.833 49.5 -46.5s20.5 -48.334 20.5 -83.001c0 -50.667 -13.333 -89.167 -40 -115.5s-63 -41.5 -109 -45.5l-3 -25c54 -4 81 -25.667 81 -65c0 -30 -10.667 -51 -32 -63s-45.333 -18 -72 -18
c-30.667 0 -58.667 2.66699 -84 8z" />
    <glyph glyph-name="Scaron" unicode="&#x160;" horiz-adv-x="547" 
d="M149 883h80l44 -79l45 79h80l-86 -135h-78zM105.5 38c-43 33.333 -64.501 85.3311 -64.501 155.998l1 20h91l-1 -21c0 -40.667 12.5 -71.5 37.5 -92.5s57.833 -31.5 98.5 -31.5c46 0 81.5 9.83301 106.5 29.5s37.5 47.834 37.5 84.501
c0 24.667 -6.83301 44.834 -20.5 60.501s-30.667 28.167 -51 37.5s-48.166 19.666 -83.499 30.999c-43.333 14.667 -78.333 28.667 -105 42s-49.5 32.833 -68.5 58.5s-28.5 59.5 -28.5 101.5c0 60 20.333 105.667 61 137s93 47 157 47s115.833 -15.833 155.5 -47.5
s59.5 -80.167 59.5 -145.5v-12h-91v15c0 34 -11.5 60.667 -34.5 80s-52.167 29 -87.5 29c-38 0 -68.667 -8.16699 -92 -24.5s-35 -40.166 -35 -71.499c0 -23.333 6.66699 -42.5 20 -57.5s30 -27 50 -36s47.333 -19.167 82 -30.5c44 -14.667 79.5 -28.5 106.5 -41.5
s50 -32.333 69 -58s28.5 -58.834 28.5 -99.501c0 -73.333 -20.833 -126.666 -62.5 -159.999s-98.167 -50 -169.5 -50c-68 0 -123.5 16.667 -166.5 50z" />
    <glyph glyph-name="scaron" unicode="&#x161;" horiz-adv-x="410" 
d="M81 723h80l44 -79l45 79h80l-86 -135h-78zM75 32.5c-28 29.667 -42.0029 66.1689 -42.0029 109.502c0 8 0.166992 13.5 0.5 16.5s0.5 4.83301 0.5 5.5h86v-10c0 -31.333 8 -54.833 24 -70.5s36.667 -23.5 62 -23.5c22.667 0 41.5 6.83301 56.5 20.5
s22.5 32.834 22.5 57.501c0 18.667 -4.66699 34 -14 46s-20.666 21.5 -33.999 28.5s-32 14.833 -56 23.5c-29.333 10 -53 20 -71 30s-33.333 24.833 -46 44.5s-19 45.5 -19 77.5c0 46 14.833 82.5 44.5 109.5s69.5 40.5 119.5 40.5c47.333 0 84.333 -13.833 111 -41.5
s40 -61.834 40 -102.501l-1 -19h-85v9c0 23.333 -5.66699 42.833 -17 58.5s-30 23.5 -56 23.5s-44.333 -7.33301 -55 -22s-16 -31.334 -16 -50.001c0 -22.667 7.83301 -39.5 23.5 -50.5s39.834 -21.833 72.501 -32.5c30 -10.667 54.667 -21.167 74 -31.5
s35.833 -25.833 49.5 -46.5s20.5 -48.334 20.5 -83.001c0 -54 -15.167 -94.5 -45.5 -121.5s-71.166 -40.5 -122.499 -40.5c-56.667 0 -99 14.833 -127 44.5z" />
    <glyph glyph-name="uni0162" unicode="&#x162;" horiz-adv-x="501" 
d="M206 606h-187v80h462v-80h-187v-606h-88v606zM242 -151h-34v91h85v-84l-29 -78h-44z" />
    <glyph glyph-name="uni0163" unicode="&#x163;" horiz-adv-x="228" 
d="M81 24.5c-14.667 23 -22 51.833 -22 86.5v342h-45v73h45l18 146h64v-146h71v-73h-71v-344c0 -32 15.667 -48 47 -48h24v-57c-7.33301 -4 -16.5 -7.33301 -27.5 -10s-21.5 -4 -31.5 -4c-33.333 0 -57.333 11.5 -72 34.5zM106 -151h-34v91h85v-84l-29 -78h-45z" />
    <glyph glyph-name="Tcaron" unicode="&#x164;" horiz-adv-x="501" 
d="M126 883h80l44 -79l45 79h80l-86 -135h-78zM206 606h-187v80h462v-80h-187v-606h-88v606z" />
    <glyph glyph-name="tcaron" unicode="&#x165;" horiz-adv-x="307" 
d="M292 578h-40v108h101v-99l-49 -133h-52zM81 24.5c-14.667 23 -22 51.833 -22 86.5v342h-45v73h45l18 146h64v-146h71v-73h-71v-344c0 -32 15.667 -48 47 -48h24v-57c-7.33301 -4 -16.5 -7.33301 -27.5 -10s-21.5 -4 -31.5 -4c-33.333 0 -57.333 11.5 -72 34.5z" />
    <glyph glyph-name="Tbar" unicode="&#x166;" horiz-adv-x="501" 
d="M206 320h-129v73h129v213h-187v80h462v-80h-187v-213h131v-73h-131v-320h-88v320z" />
    <glyph glyph-name="tbar" unicode="&#x167;" horiz-adv-x="229" 
d="M81 24.5c-14.667 23 -22 51.833 -22 86.5v170h-43v68h43v104h-45v73h45l18 146h64v-146h71v-73h-71v-104h66v-68h-66v-172c0 -32 15.667 -48 47 -48h24v-57c-7.33301 -4 -16.5 -7.33301 -27.5 -10s-21.5 -4 -31.5 -4c-33.333 0 -57.333 11.5 -72 34.5z" />
    <glyph glyph-name="Utilde" unicode="&#x168;" horiz-adv-x="592" 
d="M172 851c14.667 21.333 35.666 32 62.999 32c10 0 19.333 -1.33301 28 -4s19.334 -6.66699 32.001 -12c24 -9.33301 42.333 -14 55 -14c20 0 31.333 10 34 30h58c0 -26.667 -7.33301 -50.667 -22 -72s-35.667 -32 -63 -32c-10 0 -19.5 1.33301 -28.5 4
s-19.833 6.66699 -32.5 12c-22.667 10 -40.667 15 -54 15c-20 0 -31.333 -10.333 -34 -31h-58c0 26.667 7.33301 50.667 22 72zM129.499 48.5c-39.667 40.333 -59.498 98.5 -59.498 174.5v463h88v-468c0 -48 12.167 -84.833 36.5 -110.5s58.166 -38.5 101.499 -38.5
s77.166 12.833 101.499 38.5s36.5 62.5 36.5 110.5v468h88v-463c0 -76 -19.833 -134.167 -59.5 -174.5s-95.167 -60.5 -166.5 -60.5s-126.833 20.167 -166.5 60.5z" />
    <glyph glyph-name="utilde" unicode="&#x169;" 
d="M104 691c14.667 21.333 35.667 32 63 32c10 0 19.333 -1.33301 28 -4s19.334 -6.66699 32.001 -12c22.667 -10 41 -15 55 -15c20 0 31.333 10.333 34 31h58c0 -26.667 -7.33301 -50.667 -22 -72s-35.667 -32 -63 -32c-10 0 -19.333 1.33301 -28 4
s-19.334 6.66699 -32.001 12c-22.667 10 -41 15 -55 15c-20 0 -31.333 -10.333 -34 -31h-58c0 26.667 7.33301 50.667 22 72zM93.5 25.5c-22.333 25 -33.501 65.5 -33.501 121.5v379h82v-373c0 -34 6.33301 -57.833 19 -71.5s31 -20.5 55 -20.5c27.333 0 50.5 13 69.5 39
s28.5 61 28.5 105v321h82v-526h-62l-11 61h-6c-27.333 -48.667 -69.666 -73 -126.999 -73c-42 0 -74.167 12.5 -96.5 37.5z" />
    <glyph glyph-name="Umacron" unicode="&#x16a;" horiz-adv-x="592" 
d="M171 831h250v-72h-250v72zM129.5 48.5c-39.667 40.333 -59.498 98.5 -59.498 174.5v463h88v-468c0 -48 12.167 -84.833 36.5 -110.5s58.166 -38.5 101.499 -38.5s77.166 12.833 101.499 38.5s36.5 62.5 36.5 110.5v468h88v-463c0 -76 -19.833 -134.167 -59.5 -174.5
s-95.167 -60.5 -166.5 -60.5s-126.833 20.167 -166.5 60.5z" />
    <glyph glyph-name="umacron" unicode="&#x16b;" 
d="M103 671h251v-72h-251v72zM93.5 25.5c-22.333 25 -33.501 65.5 -33.501 121.5v379h82v-373c0 -34 6.33301 -57.833 19 -71.5s31 -20.5 55 -20.5c27.333 0 50.5 13 69.5 39s28.5 61 28.5 105v321h82v-526h-62l-11 61h-6c-27.333 -48.667 -69.666 -73 -126.999 -73
c-42 0 -74.167 12.5 -96.5 37.5z" />
    <glyph glyph-name="Ubreve" unicode="&#x16c;" horiz-adv-x="592" 
d="M231.5 800.5c-19 9.66699 -33.665 22 -43.998 37s-15.5 30.167 -15.5 45.5h65c2 -8 8.33301 -15.5 19 -22.5s24 -10.5 40 -10.5s29.667 3.5 41 10.5s17.666 14.5 18.999 22.5h64c0 -15.333 -5.16699 -30.5 -15.5 -45.5s-24.833 -27.333 -43.5 -37
s-40.334 -14.5 -65.001 -14.5c-24 0 -45.5 4.83301 -64.5 14.5zM129.502 48.5c-39.667 40.333 -59.498 98.5 -59.498 174.5v463h88v-468c0 -48 12.167 -84.833 36.5 -110.5s58.166 -38.5 101.499 -38.5s77.166 12.833 101.499 38.5s36.5 62.5 36.5 110.5v468h88v-463
c0 -76 -19.833 -134.167 -59.5 -174.5s-95.167 -60.5 -166.5 -60.5s-126.833 20.167 -166.5 60.5z" />
    <glyph glyph-name="ubreve" unicode="&#x16d;" 
d="M163.5 640.5c-19 9.66699 -33.665 22 -43.998 37s-15.5 30.167 -15.5 45.5h65c2 -8 8.33301 -15.5 19 -22.5s24 -10.5 40 -10.5s29.667 3.5 41 10.5s17.666 14.5 18.999 22.5h64c0 -15.333 -5.16699 -30.5 -15.5 -45.5s-24.833 -27.333 -43.5 -37
s-40.334 -14.5 -65.001 -14.5c-24 0 -45.5 4.83301 -64.5 14.5zM93.502 25.5c-22.333 25 -33.501 65.5 -33.501 121.5v379h82v-373c0 -34 6.33301 -57.833 19 -71.5s31 -20.5 55 -20.5c27.333 0 50.5 13 69.5 39s28.5 61 28.5 105v321h82v-526h-62l-11 61h-6
c-27.333 -48.667 -69.666 -73 -126.999 -73c-42 0 -74.167 12.5 -96.5 37.5z" />
    <glyph glyph-name="Uring" unicode="&#x16e;" horiz-adv-x="592" 
d="M228.5 751c-19 18.667 -28.501 41.333 -28.501 68s9.33301 49.334 28 68.001s41.334 28 68.001 28s49.334 -9.5 68.001 -28.5s28 -41.5 28 -67.5c0 -26.667 -9.33301 -49.334 -28 -68.001s-41.334 -28 -68.001 -28c-26 0 -48.5 9.33301 -67.5 28zM331.499 782.999
c10.333 10 15.5 22 15.5 36s-5.16699 26 -15.5 36s-22.166 15 -35.499 15c-14 0 -26 -5 -36 -15s-15 -22 -15 -36s5 -26 15 -36s22 -15 36 -15c13.333 0 25.166 5 35.499 15zM129.499 48.499c-39.667 40.333 -59.498 98.5 -59.498 174.5v463h88v-468
c0 -48 12.167 -84.833 36.5 -110.5s58.166 -38.5 101.499 -38.5s77.166 12.833 101.499 38.5s36.5 62.5 36.5 110.5v468h88v-463c0 -76 -19.833 -134.167 -59.5 -174.5s-95.167 -60.5 -166.5 -60.5s-126.833 20.167 -166.5 60.5z" />
    <glyph glyph-name="uring" unicode="&#x16f;" 
d="M160.5 590c-19 18.667 -28.501 41.667 -28.501 69c0 26.667 9.33301 49.167 28 67.5s41.334 27.5 68.001 27.5s49.334 -9.33301 68.001 -28s28 -41 28 -67c0 -26.667 -9.33301 -49.5 -28 -68.5s-41.334 -28.5 -68.001 -28.5c-26 0 -48.5 9.33301 -67.5 28zM263.499 622.5
c10.333 10.333 15.501 22.5 15.501 36.5s-5 25.833 -15 35.5s-22 14.5 -36 14.5s-26 -4.83301 -36 -14.5s-15 -21.5 -15 -35.5s5 -26.167 15 -36.5s22 -15.5 36 -15.5c13.333 0 25.166 5.16699 35.499 15.5zM93.5 25.5c-22.333 25 -33.501 65.5 -33.501 121.5v379h82v-373
c0 -34 6.33301 -57.833 19 -71.5s31 -20.5 55 -20.5c27.333 0 50.5 13 69.5 39s28.5 61 28.5 105v321h82v-526h-62l-11 61h-6c-27.333 -48.667 -69.666 -73 -126.999 -73c-42 0 -74.167 12.5 -96.5 37.5z" />
    <glyph glyph-name="Uhungarumlaut" unicode="&#x170;" horiz-adv-x="592" 
d="M262 883h90l1 -3l-84 -129h-69zM393 883h89l1 -3l-84 -129h-68zM129.5 48.5c-39.667 40.333 -59.498 98.5 -59.498 174.5v463h88v-468c0 -48 12.167 -84.833 36.5 -110.5s58.166 -38.5 101.499 -38.5s77.166 12.833 101.499 38.5s36.5 62.5 36.5 110.5v468h88v-463
c0 -76 -19.833 -134.167 -59.5 -174.5s-95.167 -60.5 -166.5 -60.5s-126.833 20.167 -166.5 60.5z" />
    <glyph glyph-name="uhungarumlaut" unicode="&#x171;" 
d="M194 723h90l1 -3l-84 -129h-69zM325 723h90l1 -3l-84 -129h-69zM93.5 25.5c-22.333 25 -33.501 65.5 -33.501 121.5v379h82v-373c0 -34 6.33301 -57.833 19 -71.5s31 -20.5 55 -20.5c27.333 0 50.5 13 69.5 39s28.5 61 28.5 105v321h82v-526h-62l-11 61h-6
c-27.333 -48.667 -69.666 -73 -126.999 -73c-42 0 -74.167 12.5 -96.5 37.5z" />
    <glyph glyph-name="Uogonek" unicode="&#x172;" horiz-adv-x="592" 
d="M522 686l0.000976562 -462.999c0 -55.333 -10.833 -101.5 -32.5 -138.5s-52.5 -63.5 -92.5 -79.5c-7.33301 -8.66699 -13.666 -19 -18.999 -31s-8 -24 -8 -36c0 -16 3.66699 -29.167 11 -39.5s19 -15.5 35 -15.5h31v-51c-22 -9.33301 -42.333 -14 -61 -14
c-25.333 0 -47.333 7.16699 -66 21.5s-28 37.166 -28 68.499c0 30.667 9 57.667 27 81c-5.33301 -0.666992 -13 -1 -23 -1c-71.333 0 -126.833 20.167 -166.5 60.5s-59.5 98.5 -59.5 174.5v463h88v-468c0 -48 12.167 -84.833 36.5 -110.5s58.166 -38.5 101.499 -38.5
s77.166 12.833 101.499 38.5s36.5 62.5 36.5 110.5v468h88z" />
    <glyph glyph-name="uogonek" unicode="&#x173;" 
d="M443 -117v-50.998c-22 -9.33301 -42.333 -14 -61 -14c-25.333 0 -47.333 7.16699 -66 21.5s-28 37.166 -28 68.499c0 21.333 3.83301 39.666 11.5 54.999s18.5 30.333 32.5 45l-9 53h-6c-27.333 -48.667 -69.666 -73 -126.999 -73c-42 0 -74.167 12.5 -96.5 37.5
s-33.5 65.5 -33.5 121.5v379h82v-373c0 -34 6.33301 -57.833 19 -71.5s31 -20.5 55 -20.5c27.333 0 50.5 13 69.5 39s28.5 61 28.5 105v321h82v-526h-5c-16.667 -22 -25 -42.667 -25 -62c0 -15.333 3.66699 -28.333 11 -39s18.666 -16 33.999 -16h32z" />
    <glyph glyph-name="Wcircumflex" unicode="&#x174;" horiz-adv-x="774" 
d="M349 882h78l85 -135h-80l-44 79l-45 -79h-80zM10 686l92.999 0.00195312l105 -474c4 -16.667 8.16699 -39 12.5 -67l8.5 -55h4c0.666992 7.33301 2.5 22.166 5.5 44.499s6.83301 48.166 11.5 77.499l79 474h122l85 -474c4 -20.667 7.83301 -44.167 11.5 -70.5
s5.83398 -43.5 6.50098 -51.5h4l8.5 53.5c4.33301 27 8.5 49.833 12.5 68.5l105 474h80l-159 -686h-114l-84 465c-3.33301 19.333 -7 44.666 -11 75.999l-8 62h-4l-8 -62c-4 -31.333 -7.66699 -56.666 -11 -75.999l-82 -465h-114z" />
    <glyph glyph-name="wcircumflex" unicode="&#x175;" horiz-adv-x="592" 
d="M257 722h78l86 -135h-80l-44 79l-46 -79h-80zM1 526l90 0.00195312l66 -296c4 -18 8.16699 -41.167 12.5 -69.5l8.5 -55.5h4c0.666992 8 2.5 25.167 5.5 51.5s6.5 50.833 10.5 73.5l53 296h95l54 -296c4 -22 7.5 -46.333 10.5 -73s4.83301 -44 5.5 -52h4
c0.666992 7.33301 3 23.666 7 48.999s8.66699 50.666 14 75.999l66 296h83l-131 -526h-91l-55 300c-4 22.667 -7.5 46.667 -10.5 72s-4.83301 41.666 -5.5 48.999h-4c-0.666992 -7.33301 -2.5 -23.666 -5.5 -48.999s-6.5 -49.333 -10.5 -72l-54 -300h-91z" />
    <glyph glyph-name="Ycircumflex" unicode="&#x176;" horiz-adv-x="547" 
d="M235 882h78l85 -135h-80l-44 79l-45 -79h-80zM230 284l-222 402h97l174 -318h4l171 318h85l-221 -402v-284h-88v284z" />
    <glyph glyph-name="ycircumflex" unicode="&#x177;" horiz-adv-x="410" 
d="M167 722h78l85 -135h-80l-44 79l-45 -79h-80zM38 -174v57h29c52.667 0 87.334 39 104.001 117l-161 526h90l89 -314l27 -94h4l23 96l75 312h83l-134 -499c-17.333 -65.333 -39.333 -116.5 -66 -153.5s-61.334 -55.5 -104.001 -55.5c-24 0 -43.667 2.66699 -59 8z" />
    <glyph glyph-name="Ydieresis" unicode="&#x178;" horiz-adv-x="547" 
d="M155 883h87v-95h-87v95zM305 883h87v-95h-87v95zM230 284l-222 402h97l174 -318h4l171 318h85l-221 -402v-284h-88v284z" />
    <glyph glyph-name="Zacute" unicode="&#x179;" horiz-adv-x="501" 
d="M277 883h90l1 -3l-108 -129h-69zM20 38l326 568h-305v80h431v-38l-327 -568h334v-80h-459v38z" />
    <glyph glyph-name="zacute" unicode="&#x17a;" horiz-adv-x="410" 
d="M231 723h90l1 -3l-107 -129h-69zM26 39l231 414h-215v73h328v-38l-232 -415h245v-73h-357v39z" />
    <glyph glyph-name="Zdotaccent" unicode="&#x17b;" horiz-adv-x="501" 
d="M207 883h87v-95h-87v95zM20 38l326 568h-305v80h431v-38l-327 -568h334v-80h-459v38z" />
    <glyph glyph-name="zdotaccent" unicode="&#x17c;" horiz-adv-x="410" 
d="M162 723h87v-95h-87v95zM26 39l231 414h-215v73h328v-38l-232 -415h245v-73h-357v39z" />
    <glyph glyph-name="Zcaron" unicode="&#x17d;" horiz-adv-x="501" 
d="M126 883h80l44 -79l45 79h80l-86 -135h-78zM20 38l326 568h-305v80h431v-38l-327 -568h334v-80h-459v38z" />
    <glyph glyph-name="zcaron" unicode="&#x17e;" horiz-adv-x="410" 
d="M81 723h80l44 -79l45 79h80l-86 -135h-78zM26 39l231 414h-215v73h328v-38l-232 -415h245v-73h-357v39z" />
    <glyph glyph-name="longs" unicode="&#x17f;" horiz-adv-x="182" 
d="M55 453h-46v73h46v84c0 34.667 8.16699 63.5 24.5 86.5s42.833 34.5 79.5 34.5c23.333 0 46.333 -4 69 -12v-57h-44c-31.333 0 -47 -16 -47 -48v-614h-82v453z" />
    <glyph glyph-name="florin" unicode="&#x192;" 
d="M27 -170l7 57h44c15.333 0 27.833 4.16699 37.5 12.5s14.834 20.166 15.501 35.499l68 467h-71l11 73h71l21 135c6 38.667 18.333 68.5 37 89.5s47 31.5 85 31.5c22.667 0 44.667 -4 66 -12l-8 -57h-44c-15.333 0 -27.833 -4.16699 -37.5 -12.5
s-14.834 -20.166 -15.501 -35.499l-22 -139h91l-11 -73h-91l-67 -463c-5.33301 -38.667 -17.5 -68.5 -36.5 -89.5s-47.5 -31.5 -85.5 -31.5c-23.333 0 -45 4 -65 12z" />
    <glyph glyph-name="Aringacute" unicode="&#x1fa;" horiz-adv-x="547" 
d="M314 957h90l1 -4l-93 -105h-69zM209 661c-20.667 17.333 -31.002 40 -31.002 68c0 25.333 9.33301 47 28 65s41.334 27 68.001 27s49.334 -9 68.001 -27s28 -39.667 28 -65c0 -26.667 -10.667 -49.667 -32 -69l210 -660h-95l-47 153h-272l-47 -153h-88zM309.498 694.5
c10.333 9.66699 15.5 21.167 15.5 34.5s-5.16699 24.833 -15.5 34.5s-22.166 14.5 -35.499 14.5c-14 0 -26 -4.83301 -36 -14.5s-15 -21.167 -15 -34.5s5 -24.833 15 -34.5s22 -14.5 36 -14.5c13.333 0 25.166 4.83301 35.499 14.5zM380.998 233l-92.9961 305
c-2.66699 9.33301 -5.83398 22.833 -9.50098 40.5s-5.83398 29.5 -6.50098 35.5h-4c-0.666992 -6 -2.83398 -17.833 -6.50098 -35.5s-6.83398 -31.167 -9.50098 -40.5l-94 -305h223z" />
    <glyph glyph-name="aringacute" unicode="&#x1fb;" 
d="M271 883h90l1 -3l-97 -112h-69zM160.5 590.5c-19 17 -28.5 38.499 -28.5 64.499c0 25.333 9.33301 46.666 28 63.999s41.667 26 69 26c26.667 0 49.167 -8.66699 67.5 -26s27.5 -38.666 27.5 -63.999s-9.16699 -46.666 -27.5 -63.999s-40.833 -26 -67.5 -26
s-49.5 8.5 -68.5 25.5zM264 621.499c10 9 15 20.167 15 33.5s-5 24.333 -15 33s-21.667 13 -35 13c-14 0 -26.167 -4.33301 -36.5 -13s-15.5 -19.667 -15.5 -33s5.16699 -24.5 15.5 -33.5s22.5 -13.5 36.5 -13.5c13.333 0 25 4.5 35 13.5zM76 19.999
c-28 21.333 -42.0039 59.999 -42.0039 115.999c0 67.333 22.833 113.5 68.5 138.5s111.5 37.5 197.5 37.5v68c0 27.333 -6 48.333 -18 63s-33.667 22 -65 22c-28.667 0 -49.334 -8 -62.001 -24s-19 -35.667 -19 -59v-12h-81c-0.666992 4 -1 11.333 -1 22
c0 46.667 15.333 82.667 46 108s71.667 38 123 38c52.667 0 92.334 -12.667 119.001 -38s40 -61.666 40 -108.999v-295c0 -11.333 2.66699 -20 8 -26s12 -9 20 -9h32v-57c-14.667 -8 -32.667 -12 -54 -12s-39.166 5.83301 -53.499 17.5s-24.166 27.5 -29.499 47.5h-5
c-13.333 -22 -31.166 -39 -53.499 -51s-47.166 -18 -74.499 -18c-36 0 -68 10.667 -96 32zM242.996 75.998c16.667 10 30.333 24.833 41 44.5s16 43.167 16 70.5v48c-60 0 -105 -6.83301 -135 -20.5s-45 -39.5 -45 -77.5c0 -28.667 5.83301 -49.167 17.5 -61.5
s29.5 -18.5 53.5 -18.5c18 0 35.333 5 52 15z" />
    <glyph glyph-name="AEacute" unicode="&#x1fc;" horiz-adv-x="820" 
d="M534 883h90l1 -3l-108 -129h-69zM279 686h498v-80h-367l49 -215h274v-80h-256l52 -231h254v-80h-330l-34 153h-273l-59 -153h-88zM402 233l-68 310c-2.66699 9.33301 -5 21 -7 35s-3.33301 23 -4 27h-4c-1.33301 -4.66699 -4 -13 -8 -25s-8.33301 -24.333 -13 -37
l-121 -310h225z" />
    <glyph glyph-name="aeacute" unicode="&#x1fd;" horiz-adv-x="729" 
d="M391 723h90l1 -3l-107 -129h-70zM85 19.5c-30 21 -44.999 59.833 -44.999 116.5c0 67.333 22.833 113.5 68.5 138.5s111.5 37.5 197.5 37.5v68c0 27.333 -6 48.333 -18 63s-33.667 22 -65 22c-28.667 0 -49.334 -8 -62.001 -24s-19 -35.667 -19 -59v-12h-81
c-0.666992 4 -1 11.333 -1 22c0 46.667 15.333 82.667 46 108s71.667 38 123 38c64.667 0 109.667 -20 135 -60c32 40 78.667 60 140 60c58.667 0 102.167 -19.5 130.5 -58.5s42.5 -101.833 42.5 -188.5v-52h-285c0.666992 -61.333 10.167 -106.333 28.5 -135
s47.166 -43 86.499 -43c26.667 0 48.167 10.667 64.5 32s24.5 50 24.5 86h81c0 -58.667 -15.833 -105.167 -47.5 -139.5s-73.167 -51.5 -124.5 -51.5c-75.333 0 -128.666 26.667 -159.999 80c-18.667 -25.333 -41.167 -45 -67.5 -59s-54.5 -21 -84.5 -21
c-42 0 -78 10.5 -108 31.5zM591.001 312c0 50 -7.33203 88 -21.999 114s-36.334 39 -65.001 39c-35.333 0 -61.833 -12.5 -79.5 -37.5s-28.167 -63.5 -31.5 -115.5h198zM273.002 93c22 21.333 33 51.333 33 90v56c-60 0 -105 -6.83301 -135 -20.5s-45 -39.5 -45 -77.5
c0 -28.667 5.83301 -49.167 17.5 -61.5s29.5 -18.5 53.5 -18.5c28.667 0 54 10.667 76 32z" />
    <glyph glyph-name="Oslashacute" unicode="&#x1fe;" horiz-adv-x="638" 
d="M346 883h90l1 -3l-108 -129h-69zM121 76c-48 60 -72 149 -72 267c0 116.667 23.667 205 71 265s113.666 90 198.999 90c63.333 0 116.333 -16.667 159 -50l47 75h64l-72 -114c48 -61.333 72 -150 72 -266c0 -116.667 -23.667 -205 -71 -265s-113.666 -90 -198.999 -90
c-64.667 0 -117.667 16.333 -159 49l-46 -74h-64zM432 574c-29.333 28.667 -67 42.999 -113 42.999c-56 0 -99.667 -21 -131 -63s-47 -104 -47 -186v-50c0 -65.333 10.333 -118.666 31 -159.999zM450 131.999c31.333 42 46.999 104 46.999 186v50
c0 64.667 -10.333 117.667 -31 159l-260 -416c28.667 -28 66.334 -42 113.001 -42c56 0 99.667 21 131 63z" />
    <glyph glyph-name="oslashacute" unicode="&#x1ff;" horiz-adv-x="501" 
d="M277 723h90l1 -3l-108 -129h-69zM109 55c-31.333 45.333 -47.001 114.667 -47.001 208s15.833 162.5 47.5 207.5s78.5 67.5 140.5 67.5c42.667 0 77.667 -10.333 105 -31l28 51h55l-48 -87c32 -44.667 48 -114 48 -208c0 -93.333 -15.833 -162.5 -47.5 -207.5
s-78.5 -67.5 -140.5 -67.5c-43.333 0 -78.666 10.333 -105.999 31l-27 -51h-55zM315.999 435.001c-16.667 20 -38.667 30 -66 30c-68 0 -102 -61 -102 -183v-38c0 -40 3.33301 -73 10 -99zM351.999 244.001v38c0 38 -3.66699 70.667 -11 98l-157 -289c16 -20 38 -30 66 -30
c68 0 102 61 102 183z" />
    <glyph glyph-name="circumflex" unicode="&#x2c6;" horiz-adv-x="273" 
d="M96 722h78l85 -135h-80l-44 79l-45 -79h-80z" />
    <glyph glyph-name="caron" unicode="&#x2c7;" horiz-adv-x="273" 
d="M10 723h80l44 -79l45 79h80l-86 -135h-78z" />
    <glyph glyph-name="uni02C9" unicode="&#x2c9;" horiz-adv-x="500" 
d="M0 844h501v-53h-501v53z" />
    <glyph glyph-name="breve" unicode="&#x2d8;" horiz-adv-x="273" 
d="M70 640.5c-18.667 9.66699 -33.165 22 -43.498 37s-15.5 30.167 -15.5 45.5h64c2 -8 8.5 -15.5 19.5 -22.5s24.167 -10.5 39.5 -10.5c16 0 29.667 3.5 41 10.5s17.666 14.5 18.999 22.5h64c0 -15.333 -5.16699 -30.5 -15.5 -45.5s-24.833 -27.333 -43.5 -37
s-40.334 -14.5 -65.001 -14.5c-24 0 -45.333 4.83301 -64 14.5z" />
    <glyph glyph-name="dotaccent" unicode="&#x2d9;" horiz-adv-x="273" 
d="M93 723h87v-95h-87v95z" />
    <glyph glyph-name="ring" unicode="&#x2da;" horiz-adv-x="273" 
d="M71.5 590c-19 18.667 -28.501 41.667 -28.501 69c0 26.667 9.33301 49.167 28 67.5s41.334 27.5 68.001 27.5s49.334 -9.33301 68.001 -28s28 -41 28 -67c0 -26.667 -9.33301 -49.5 -28 -68.5s-41.334 -28.5 -68.001 -28.5c-26 0 -48.5 9.33301 -67.5 28zM174.499 622.5
c10.333 10.333 15.501 22.5 15.501 36.5s-5 25.833 -15 35.5s-22 14.5 -36 14.5s-26 -4.83301 -36 -14.5s-15 -21.5 -15 -35.5s5 -26.167 15 -36.5s22 -15.5 36 -15.5c13.333 0 25.166 5.16699 35.499 15.5z" />
    <glyph glyph-name="ogonek" unicode="&#x2db;" horiz-adv-x="273" 
d="M100 -160.5c-18.667 14.333 -27.999 37.1689 -27.999 68.502c0 22 4.16699 40.833 12.5 56.5s20.166 31.5 35.499 47.5h60v-4c-7.33301 -8.66699 -14.166 -19.334 -20.499 -32.001s-9.5 -25.334 -9.5 -38.001c0 -15.333 3.66699 -28.333 11 -39s18.666 -16 33.999 -16h32
v-51c-22 -9.33301 -42.333 -14 -61 -14c-25.333 0 -47.333 7.16699 -66 21.5z" />
    <glyph glyph-name="tilde" unicode="&#x2dc;" horiz-adv-x="273" 
d="M12 691c14.667 21.333 35.667 32 63 32c10 0 19.333 -1.33301 28 -4s19.334 -6.66699 32.001 -12c22.667 -10 41 -15 55 -15c20 0 31.333 10.333 34 31h58c0 -26.667 -7.33301 -50.667 -22 -72s-35.667 -32 -63 -32c-10 0 -19.333 1.33301 -28 4
s-19.334 6.66699 -32.001 12c-22.667 10 -41 15 -55 15c-20 0 -31.333 -10.333 -34 -31h-58c0 26.667 7.33301 50.667 22 72z" />
    <glyph glyph-name="hungarumlaut" unicode="&#x2dd;" horiz-adv-x="273" 
d="M66 723h90l1 -3l-84 -129h-69zM196 723h90l1 -3l-84 -129h-69z" />
    <glyph glyph-name="pi" unicode="&#x3c0;" horiz-adv-x="556" 
d="M110 214.5c12.667 91.667 19.668 171.167 21.001 238.5c-51.333 0 -87 -4.33301 -107 -13l-12 56c24 20 72.333 30 145 30h381l-8 -73h-78v-297c0 -71.333 4.33301 -123.333 13 -156h-80c-10 18 -15 67 -15 147v306h-157c-3.33301 -72.667 -11.333 -156 -24 -250
s-26.334 -161.667 -41.001 -203h-81c16 51.333 30.333 122.833 43 214.5z" />
    <glyph glyph-name="Wgrave" unicode="&#x1e80;" horiz-adv-x="774" 
d="M270 880l1 3h90l86 -132h-69zM10 686l92.999 0.00195312l105 -474c4 -16.667 8.16699 -39 12.5 -67l8.5 -55h4c0.666992 7.33301 2.5 22.166 5.5 44.499s6.83301 48.166 11.5 77.499l79 474h122l85 -474c4 -20.667 7.83301 -44.167 11.5 -70.5
s5.83398 -43.5 6.50098 -51.5h4l8.5 53.5c4.33301 27 8.5 49.833 12.5 68.5l105 474h80l-159 -686h-114l-84 465c-3.33301 19.333 -7 44.666 -11 75.999l-8 62h-4l-8 -62c-4 -31.333 -7.66699 -56.666 -11 -75.999l-82 -465h-114z" />
    <glyph glyph-name="wgrave" unicode="&#x1e81;" horiz-adv-x="592" 
d="M178 720l1 3h91l85 -132h-68zM1 526l90 0.00195312l66 -296c4 -18 8.16699 -41.167 12.5 -69.5l8.5 -55.5h4c0.666992 8 2.5 25.167 5.5 51.5s6.5 50.833 10.5 73.5l53 296h95l54 -296c4 -22 7.5 -46.333 10.5 -73s4.83301 -44 5.5 -52h4
c0.666992 7.33301 3 23.666 7 48.999s8.66699 50.666 14 75.999l66 296h83l-131 -526h-91l-55 300c-4 22.667 -7.5 46.667 -10.5 72s-4.83301 41.666 -5.5 48.999h-4c-0.666992 -7.33301 -2.5 -23.666 -5.5 -48.999s-6.5 -49.333 -10.5 -72l-54 -300h-91z" />
    <glyph glyph-name="Wacute" unicode="&#x1e82;" horiz-adv-x="774" 
d="M414 883h89l1 -3l-107 -129h-69zM10 686l92.999 0.00195312l105 -474c4 -16.667 8.16699 -39 12.5 -67l8.5 -55h4c0.666992 7.33301 2.5 22.166 5.5 44.499s6.83301 48.166 11.5 77.499l79 474h122l85 -474c4 -20.667 7.83301 -44.167 11.5 -70.5
s5.83398 -43.5 6.50098 -51.5h4l8.5 53.5c4.33301 27 8.5 49.833 12.5 68.5l105 474h80l-159 -686h-114l-84 465c-3.33301 19.333 -7 44.666 -11 75.999l-8 62h-4l-8 -62c-4 -31.333 -7.66699 -56.666 -11 -75.999l-82 -465h-114z" />
    <glyph glyph-name="wacute" unicode="&#x1e83;" horiz-adv-x="592" 
d="M322 723h90l1 -3l-107 -129h-70zM1 526l90 0.00195312l66 -296c4 -18 8.16699 -41.167 12.5 -69.5l8.5 -55.5h4c0.666992 8 2.5 25.167 5.5 51.5s6.5 50.833 10.5 73.5l53 296h95l54 -296c4 -22 7.5 -46.333 10.5 -73s4.83301 -44 5.5 -52h4
c0.666992 7.33301 3 23.666 7 48.999s8.66699 50.666 14 75.999l66 296h83l-131 -526h-91l-55 300c-4 22.667 -7.5 46.667 -10.5 72s-4.83301 41.666 -5.5 48.999h-4c-0.666992 -7.33301 -2.5 -23.666 -5.5 -48.999s-6.5 -49.333 -10.5 -72l-54 -300h-91z" />
    <glyph glyph-name="Wdieresis" unicode="&#x1e84;" horiz-adv-x="774" 
d="M269 883h86v-95h-86v95zM418 883h88v-95h-88v95zM10 686l92.999 0.00195312l105 -474c4 -16.667 8.16699 -39 12.5 -67l8.5 -55h4c0.666992 7.33301 2.5 22.166 5.5 44.499s6.83301 48.166 11.5 77.499l79 474h122l85 -474c4 -20.667 7.83301 -44.167 11.5 -70.5
s5.83398 -43.5 6.50098 -51.5h4l8.5 53.5c4.33301 27 8.5 49.833 12.5 68.5l105 474h80l-159 -686h-114l-84 465c-3.33301 19.333 -7 44.666 -11 75.999l-8 62h-4l-8 -62c-4 -31.333 -7.66699 -56.666 -11 -75.999l-82 -465h-114z" />
    <glyph glyph-name="wdieresis" unicode="&#x1e85;" horiz-adv-x="592" 
d="M177 723h87v-95h-87v95zM327 723h88v-95h-88v95zM1 526l90 0.00195312l66 -296c4 -18 8.16699 -41.167 12.5 -69.5l8.5 -55.5h4c0.666992 8 2.5 25.167 5.5 51.5s6.5 50.833 10.5 73.5l53 296h95l54 -296c4 -22 7.5 -46.333 10.5 -73s4.83301 -44 5.5 -52h4
c0.666992 7.33301 3 23.666 7 48.999s8.66699 50.666 14 75.999l66 296h83l-131 -526h-91l-55 300c-4 22.667 -7.5 46.667 -10.5 72s-4.83301 41.666 -5.5 48.999h-4c-0.666992 -7.33301 -2.5 -23.666 -5.5 -48.999s-6.5 -49.333 -10.5 -72l-54 -300h-91z" />
    <glyph glyph-name="Ygrave" unicode="&#x1ef2;" horiz-adv-x="547" 
d="M156 880l1 3h90l86 -132h-69zM230 284l-222 402h97l174 -318h4l171 318h85l-221 -402v-284h-88v284z" />
    <glyph glyph-name="ygrave" unicode="&#x1ef3;" horiz-adv-x="410" 
d="M87 720l1 3h91l86 -132h-69zM38 -174v57h29c52.667 0 87.334 39 104.001 117l-161 526h90l89 -314l27 -94h4l23 96l75 312h83l-134 -499c-17.333 -65.333 -39.333 -116.5 -66 -153.5s-61.334 -55.5 -104.001 -55.5c-24 0 -43.667 2.66699 -59 8z" />
    <glyph glyph-name="endash" unicode="&#x2013;" 
d="M0 308h455v-75h-455v75z" />
    <glyph glyph-name="emdash" unicode="&#x2014;" horiz-adv-x="820" 
d="M0 308h820v-75h-820v75z" />
    <glyph glyph-name="uni2015" unicode="&#x2015;" horiz-adv-x="820" 
d="M102 308h613v-75h-613v75z" />
    <glyph glyph-name="underscoredbl" unicode="&#x2017;" horiz-adv-x="500" 
d="M23 -71h455v-53h-455v53zM23 -164h455v-53h-455v53z" />
    <glyph glyph-name="quoteleft" unicode="&#x2018;" horiz-adv-x="182" 
d="M41 553l48 133h52l-40 -124h40v-108h-100v99z" />
    <glyph glyph-name="quoteright" unicode="&#x2019;" horiz-adv-x="182" 
d="M81 578h-40v108h100v-99l-48 -133h-52z" />
    <glyph glyph-name="quotesinglbase" unicode="&#x201a;" horiz-adv-x="182" 
d="M77 0h-40v108h100v-99l-48 -133h-52z" />
    <glyph glyph-name="quotereversed" unicode="&#x201b;" horiz-adv-x="182" 
d="M41 587v99h100v-108h-40l40 -124h-52z" />
    <glyph glyph-name="quotedblleft" unicode="&#x201c;" horiz-adv-x="273" 
d="M22 553l48 133h52l-40 -124h40v-108h-100v99zM149 553l48 133h52l-40 -124h40v-108h-100v99z" />
    <glyph glyph-name="quotedblright" unicode="&#x201d;" horiz-adv-x="273" 
d="M64 578h-40v108h100v-99l-48 -133h-52zM191 578h-40v108h100v-99l-48 -133h-52z" />
    <glyph glyph-name="quotedblbase" unicode="&#x201e;" horiz-adv-x="273" 
d="M64 0h-40v108h100v-99l-48 -133h-52zM191 0h-40v108h100v-99l-48 -133h-52z" />
    <glyph glyph-name="dagger" unicode="&#x2020;" 
d="M200 435l-165 -18v93l165 -17l-17 193h88l-17 -193l166 17v-93l-166 18l20 -605h-94z" />
    <glyph glyph-name="daggerdbl" unicode="&#x2021;" 
d="M200 23l-165 -17v93l165 -18l-20 179l20 175l-165 -18v93l165 -17l-17 193h88l-17 -193l166 17v-93l-166 18l20 -175l-20 -179l166 18v-93l-166 17l17 -193h-88z" />
    <glyph glyph-name="bullet" unicode="&#x2022;" horiz-adv-x="287" 
d="M66 265c-21.333 22 -32 48.333 -32 79s10.667 56.834 32 78.501s47 32.5 77 32.5c30.667 0 56.667 -10.833 78 -32.5s32 -47.834 32 -78.501s-10.667 -57 -32 -79s-47.333 -33 -78 -33c-30 0 -55.667 11 -77 33z" />
    <glyph glyph-name="ellipsis" unicode="&#x2026;" horiz-adv-x="820" 
d="M87 108h100v-108h-100v108zM360 108h100v-108h-100v108zM632 108h100v-108h-100v108z" />
    <glyph glyph-name="perthousand" unicode="&#x2030;" horiz-adv-x="820" 
d="M65 378.5c-20 27.667 -30 73.832 -30 138.499c0 65.333 10 111.833 30 139.5s49.333 41.5 88 41.5s68 -13.833 88 -41.5s30 -74.167 30 -139.5s-9.83301 -111.666 -29.5 -138.999s-49.167 -41 -88.5 -41c-38.667 0 -68 13.833 -88 41.5zM452 685.998h63l-379 -686h-62z
M191.5 424.998c7 19.333 10.5 47.666 10.5 84.999v15c0 37.333 -3.5 65.666 -10.5 84.999s-19.833 29 -38.5 29s-31.5 -9.66699 -38.5 -29s-10.5 -47.666 -10.5 -84.999v-15c0 -37.333 3.5 -65.666 10.5 -84.999s19.833 -29 38.5 -29s31.5 9.66699 38.5 29zM349 29.498
c-20 27.667 -30 73.832 -30 138.499c0 65.333 10 111.833 30 139.5s49.333 41.5 88 41.5s68 -13.833 88 -41.5s30 -74.167 30 -139.5s-9.83301 -111.666 -29.5 -138.999s-49.167 -41 -88.5 -41c-38.667 0 -68 13.833 -88 41.5zM614 29.4961
c-20 27.667 -30 73.832 -30 138.499c0 65.333 10 111.833 30 139.5s49.333 41.5 88 41.5s68 -13.833 88 -41.5s30 -74.167 30 -139.5s-9.83301 -111.666 -29.5 -138.999s-49.167 -41 -88.5 -41c-38.667 0 -68 13.833 -88 41.5zM475.5 75.9941
c7 19.333 10.5 47.666 10.5 84.999v15c0 37.333 -3.5 65.666 -10.5 84.999s-19.833 29 -38.5 29s-31.5 -9.66699 -38.5 -29s-10.5 -47.666 -10.5 -84.999v-15c0 -37.333 3.5 -65.666 10.5 -84.999s19.833 -29 38.5 -29s31.5 9.66699 38.5 29zM740.5 75.9941
c7 19.333 10.5 47.666 10.5 84.999v15c0 37.333 -3.5 65.666 -10.5 84.999s-19.833 29 -38.5 29s-31.5 -9.66699 -38.5 -29s-10.5 -47.666 -10.5 -84.999v-15c0 -37.333 3.5 -65.666 10.5 -84.999s19.833 -29 38.5 -29s31.5 9.66699 38.5 29z" />
    <glyph glyph-name="minute" unicode="&#x2032;" horiz-adv-x="157" 
d="M48 686h90l1 -3l-47 -157h-69z" />
    <glyph glyph-name="second" unicode="&#x2033;" horiz-adv-x="291" 
d="M48 686h90l1 -3l-47 -157h-69zM175 686h90l1 -3l-47 -157h-69z" />
    <glyph glyph-name="guilsinglleft" unicode="&#x2039;" horiz-adv-x="273" 
d="M29 326l141 200h71l-113 -200l113 -200h-71z" />
    <glyph glyph-name="guilsinglright" unicode="&#x203a;" horiz-adv-x="273" 
d="M145 326l-113 200h71l141 -200l-141 -200h-71z" />
    <glyph glyph-name="exclamdbl" unicode="&#x203c;" 
d="M60 686h113l-26 -515h-62zM275 686h113l-26 -515h-62zM67 108h100v-108h-100v108zM282 108h100v-108h-100v108z" />
    <glyph glyph-name="uni203E" unicode="&#x203e;" horiz-adv-x="500" 
d="M0 844h501v-53h-501v53z" />
    <glyph glyph-name="fraction" unicode="&#x2044;" horiz-adv-x="137" 
d="M242 698h62l-415 -710h-63z" />
    <glyph glyph-name="uni207F" unicode="&#x207f;" horiz-adv-x="299" 
d="M35 727h46l8 -41h1c8.66699 16.667 20.5 29 35.5 37s31.833 12 50.5 12c59.333 0 89 -36.667 89 -110v-256h-59v252c0 22.667 -4 38.5 -12 47.5s-20 13.5 -36 13.5c-18 0 -33 -8.5 -45 -25.5s-18 -40.167 -18 -69.5v-218h-60v358z" />
    <glyph glyph-name="franc" unicode="&#x20a3;" horiz-adv-x="504" 
d="M60 686l338 0.000976562v-80h-250v-222h136v69h62l11 -69h6c7.33301 23.333 18.333 42.666 33 57.999s33.334 23 56.001 23c9.33301 0 17.666 -1.16699 24.999 -3.5l14 -4.5v-85h-27c-28.667 0 -52.167 -9.83301 -70.5 -29.5s-27.5 -51.167 -27.5 -94.5v-248h-82v304
h-136v-304h-88v686z" />
    <glyph glyph-name="lira" unicode="&#x20a4;" 
d="M30 79h61v151h-72v71h72v50h-72v72h72v76c0 65.333 14 114.833 42 148.5s67.667 50.5 119 50.5c52 0 91.833 -15.167 119.5 -45.5s41.5 -79.833 41.5 -148.5v-13h-82v16c0 78.667 -26.333 118 -79 118c-52 0 -78 -36.667 -78 -110v-92h133v-72h-133v-50h133v-71h-133
l-10 -151h249v-79h-383v79z" />
    <glyph glyph-name="peseta" unicode="&#x20a7;" horiz-adv-x="953" 
d="M616 52v-47.9961c-7.33301 -4 -16.5 -7.33301 -27.5 -10s-21.5 -4 -31.5 -4c-33.333 0 -57.333 10.667 -72 32s-22 47.666 -22 78.999v352h-26c-6.66699 -52.667 -27.834 -94.5 -63.501 -125.5s-82.167 -46.5 -139.5 -46.5h-76v-281h-88v686h164
c57.333 0 103.333 -14.333 138 -43s56 -67.667 64 -117h27l18 146h64v-146h148c21.333 8 45.666 12 72.999 12c47.333 0 84.333 -13.833 111 -41.5s40 -61.834 40 -102.501l-1 -19h-85v9c0 23.333 -5.66699 42.666 -17 57.999s-30 23 -56 23s-44.167 -7.16699 -54.5 -21.5
s-15.5 -30.833 -15.5 -49.5c0 -22.667 7.83301 -39.5 23.5 -50.5s39.834 -21.833 72.501 -32.5c30 -10.667 54.5 -21.167 73.5 -31.5s35.333 -25.833 49 -46.5s20.5 -48.334 20.5 -83.001c0 -54 -15.167 -94.5 -45.5 -121.5s-71.166 -40.5 -122.499 -40.5
c-67.333 0 -115 21.333 -143 64zM231 361.004c35.333 0 63.5 11 84.5 33s31.5 52 31.5 90c0 37.333 -10.167 67 -30.5 89s-48.833 33 -85.5 33h-73v-245h73zM819 81.0039c14.667 13.333 21.998 32.3291 21.998 56.9961c0 18.667 -4.66699 34 -14 46
s-20.666 21.5 -33.999 28.5s-32 14.833 -56 23.5c-28.667 10.667 -52 20.834 -70 30.501s-33.333 24.334 -46 44.001s-19 45.5 -19 77.5c0 24.667 4 46.334 12 65.001h-69v-344c0 -32 14 -48 42 -48h23c-13.333 22.667 -20 49.667 -20 81c0 8 0.166992 13.5 0.5 16.5
s0.5 4.83301 0.5 5.5h86v-10c0 -31.333 7.83301 -54.666 23.5 -69.999s36.5 -23 62.5 -23c22.667 0 41.334 6.66699 56.001 20z" />
    <glyph glyph-name="Euro" unicode="&#x20ac;" 
d="M175 54c-48 44 -79 107 -93 189h-63v65h56c-0.666992 7.33301 -1 19 -1 35c0 15.333 0.333008 27 1 35h-56v65h63c14 82 45 145 93 189s109.667 66 185 66c24 0 46.333 -3.33301 67 -10v-71c-19.333 5.33301 -37.666 8 -54.999 8c-50 0 -93.333 -15.333 -130 -46
s-61.667 -76 -75 -136h202v-65h-211c-0.666992 -8 -1 -19.667 -1 -35c0 -16 0.333008 -27.667 1 -35h211v-65h-202c13.333 -60 38.333 -105.333 75 -136s80 -46 130 -46c17.333 0 35.666 2.66699 54.999 8v-71c-24.667 -6.66699 -47 -10 -67 -10c-75.333 0 -137 22 -185 66z
" />
    <glyph glyph-name="uni2105" unicode="&#x2105;" horiz-adv-x="758" 
d="M79.5 356.5c-21 31 -31.5 80.166 -31.5 147.499c0 66.667 10.667 115.667 32 147s54.333 47 99 47c40 0 69.333 -13 88 -39s28 -65 28 -117h-69c0 33.333 -3.5 57.5 -10.5 72.5s-19.167 22.5 -36.5 22.5c-20.667 0 -36 -10 -46 -30s-15 -50.333 -15 -91v-25
c0 -40 5 -70 15 -90s25.333 -30 46 -30c17.333 0 30 7.83301 38 23.5s12 39.5 12 71.5h66c0 -45.333 -9.5 -82.666 -28.5 -111.999s-48.167 -44 -87.5 -44c-45.333 0 -78.5 15.5 -99.5 46.5zM549 697.999h62l-415 -710h-63zM474.5 34.499
c-22.333 31.667 -33.499 80.5 -33.499 146.5c0 130 44.667 195 134 195c90 0 135 -65 135 -195c0 -66 -11.333 -114.833 -34 -146.5s-56.334 -47.5 -101.001 -47.5s-78.167 15.833 -100.5 47.5zM641.001 168.999v25c0 80.667 -22 121 -66 121
c-43.333 0 -65 -40.333 -65 -121v-25c0 -80.667 21.667 -121 65 -121c44 0 66 40.333 66 121z" />
    <glyph glyph-name="uni2113" unicode="&#x2113;" horiz-adv-x="349" 
d="M110.5 37.5c-22.333 33 -34.168 76.5 -35.501 130.5v14l-34 -32v70c14 14 25 25.667 33 35v253c0 79.333 12.833 137 38.5 173s57.167 54 94.5 54c34 0 59.833 -14 77.5 -42s26.5 -65 26.5 -111c0 -106.667 -56 -222 -168 -346v-38c0 -48 8 -83.5 24 -106.5
s37 -34.5 63 -34.5c24.667 0 47.667 10 69 30v-73c-25.333 -17.333 -52.666 -26 -81.999 -26c-48.667 0 -84.167 16.5 -106.5 49.5zM254.998 583c0 58.667 -15.667 88.001 -47 88.001c-18 0 -33.333 -13 -46 -39s-19 -67.333 -19 -124v-190
c74.667 99.333 112 187.666 112 264.999z" />
    <glyph glyph-name="uni2116" unicode="&#x2116;" horiz-adv-x="880" 
d="M606 352c-22.667 32 -34 81.667 -34 149s11.333 117 34 149s56.334 48 101.001 48s78.334 -16 101.001 -48s34 -81.667 34 -149s-11.333 -117 -34 -149s-56.334 -48 -101.001 -48s-78.334 16 -101.001 48zM64 686h76l255 -431c6 -10.667 13.833 -26.834 23.5 -48.501
s15.834 -36.167 18.501 -43.5l3 1c0 7.33301 -0.5 20.333 -1.5 39s-1.5 36 -1.5 52v431h79v-686h-73l-257 437c-7.33301 12 -15.833 28.667 -25.5 50s-15.834 35.333 -18.501 42l-3 -1c0.666992 -6.66699 1.5 -19.167 2.5 -37.5s1.5 -36.166 1.5 -53.499v-437h-79v686z
M770 488v26c0 81.333 -21 122 -63 122s-63 -40.667 -63 -122v-26c0 -81.333 21 -122 63 -122s63 40.667 63 122zM584 264h247v-62h-247v62z" />
    <glyph glyph-name="trademark" unicode="&#x2122;" horiz-adv-x="820" 
d="M190 637h-110v49h271v-49h-109v-354h-52v354zM394 686h79l84 -323h4l84 323h78v-404h-52v336h-4l-88 -336h-47l-87 336h-4v-336h-47v404z" />
    <glyph glyph-name="uni2126" unicode="&#x2126;" horiz-adv-x="768" 
d="M114 84l25.001 0.000976562c4.66699 0 14.334 -0.666992 29.001 -2c16 -1.33301 28.667 -2 38 -2c-61.333 61.333 -92 149 -92 263c0 116.667 23.667 205 71 265s113.666 90 198.999 90s151.666 -30 198.999 -90s71 -148.333 71 -265c0 -113.333 -31 -201 -93 -263
c6 0 14.333 0.666992 25 2c18.667 1.33301 33 2 43 2h25v-84h-238v61c46.667 10 82.667 35.167 108 75.5s38 95.166 38 164.499v67c0 82 -15.667 144 -47 186s-75 63 -131 63s-99.667 -21 -131 -63s-47 -104 -47 -186v-63c0 -70 12.667 -125.667 38 -167s61 -67 107 -77v-61
h-237v84z" />
    <glyph glyph-name="estimated" unicode="&#x212e;" horiz-adv-x="600" 
d="M165.5 23.5c-39 23.667 -68.8359 56.168 -89.5029 97.501s-31 88.666 -31 141.999s10.333 100.666 31 141.999s50.5 73.833 89.5 97.5s84.5 35.5 136.5 35.5s97.333 -12.167 136 -36.5s68.5 -58.166 89.5 -101.499s31.5 -92.333 31.5 -147v-5h-406v-165
c38.667 -35.333 88.334 -53 149.001 -53c43.333 0 81.5 9.66699 114.5 29s58.167 46 75.5 80l34 -21c-21.333 -40.667 -51.166 -72.5 -89.499 -95.5s-83.166 -34.5 -134.499 -34.5c-52 0 -97.5 11.833 -136.5 35.5zM450.997 290.001v151c-40 36.667 -89.667 55 -149 55
c-60 0 -109.667 -18 -149 -54v-152h298z" />
    <glyph glyph-name="oneeighth" unicode="&#x215b;" horiz-adv-x="684" 
d="M529 698h62l-415 -710h-63zM30 342h79v258h-80v43c16 2 35.167 7.16699 57.5 15.5s40.833 17.5 55.5 27.5h29v-344h73v-58h-214v58zM443.5 22c-19 22.667 -28.499 51.998 -28.499 87.998c0 20.667 4 39 12 55s20 29 36 39c-12.667 10.667 -22.5 23.5 -29.5 38.5
s-10.5 31.167 -10.5 48.5c0 33.333 9.33301 61.166 28 83.499s45 33.5 79 33.5s60.333 -11.167 79 -33.5s28 -50.166 28 -83.499c0 -17.333 -3.5 -33.666 -10.5 -48.999s-17.167 -28.333 -30.5 -39c17.333 -10 29.666 -22.667 36.999 -38s11 -33.666 11 -54.999
c0 -36 -9.5 -65.333 -28.5 -88s-47.5 -34 -85.5 -34c-38.667 0 -67.5 11.333 -86.5 34zM563.001 246.998c8 10.667 11.998 25.334 11.998 44.001c0 18 -4.16699 32.333 -12.5 43s-19.166 16 -32.499 16s-24.166 -5.33301 -32.499 -16s-12.5 -25 -12.5 -43
c0 -18.667 4 -33.334 12 -44.001s19 -16 33 -16s25 5.33301 33 16zM567.999 62.998c8.66699 11.333 13 27 13 47s-4.33301 35.667 -13 47s-21.334 17 -38.001 17s-29.5 -5.66699 -38.5 -17s-13.5 -27 -13.5 -47s4.5 -35.667 13.5 -47s21.833 -17 38.5 -17
s29.334 5.66699 38.001 17z" />
    <glyph glyph-name="threeeighths" unicode="&#x215c;" horiz-adv-x="684" 
d="M70 312.5c-20.667 22.333 -31 52.835 -31 91.502v11h64v-13c0 -44 16.667 -66 50 -66c17.333 0 30.833 5.33301 40.5 16s14.5 27 14.5 49c0 41.333 -18.667 62 -56 62h-35v57h36c14 0 25.667 5.16699 35 15.5s14 25.166 14 44.499c0 20 -4.33301 35.167 -13 45.5
s-19.667 15.5 -33 15.5c-14 0 -25.333 -5.33301 -34 -16s-13 -26.334 -13 -47.001v-13h-63v18c0 34.667 10.167 62.5 30.5 83.5s46.5 31.5 78.5 31.5c33.333 0 60 -10 80 -30s30 -48.333 30 -85c0 -21.333 -4 -39 -12 -53s-20 -26 -36 -36c16 -8.66699 29 -21.167 39 -37.5
s15 -35.833 15 -58.5c0 -36.667 -10.5 -65.667 -31.5 -87s-48.5 -32 -82.5 -32c-37.333 0 -66.333 11.167 -87 33.5zM523 698.002h62l-415 -710h-63zM443.5 22.002c-19 22.667 -28.499 51.998 -28.499 87.998c0 20.667 4 39 12 55s20 29 36 39
c-12.667 10.667 -22.5 23.5 -29.5 38.5s-10.5 31.167 -10.5 48.5c0 33.333 9.33301 61.166 28 83.499s45 33.5 79 33.5s60.333 -11.167 79 -33.5s28 -50.166 28 -83.499c0 -17.333 -3.5 -33.666 -10.5 -48.999s-17.167 -28.333 -30.5 -39
c17.333 -10 29.666 -22.667 36.999 -38s11 -33.666 11 -54.999c0 -36 -9.5 -65.333 -28.5 -88s-47.5 -34 -85.5 -34c-38.667 0 -67.5 11.333 -86.5 34zM563.001 247c8 10.667 11.998 25.334 11.998 44.001c0 18 -4.16699 32.333 -12.5 43s-19.166 16 -32.499 16
s-24.166 -5.33301 -32.499 -16s-12.5 -25 -12.5 -43c0 -18.667 4 -33.334 12 -44.001s19 -16 33 -16s25 5.33301 33 16zM567.999 63c8.66699 11.333 13 27 13 47s-4.33301 35.667 -13 47s-21.334 17 -38.001 17s-29.5 -5.66699 -38.5 -17s-13.5 -27 -13.5 -47
s4.5 -35.667 13.5 -47s21.833 -17 38.5 -17s29.334 5.66699 38.001 17z" />
    <glyph glyph-name="fiveeighths" unicode="&#x215d;" horiz-adv-x="684" 
d="M527 698h62l-415 -710h-63zM66 307c-21.333 23.333 -31.999 55.667 -31.999 97h64c0 -22.667 5.16699 -40.667 15.5 -54s23.166 -20 38.499 -20c16 0 28.667 7.16699 38 21.5s14 35.5 14 63.5c0 24 -4.5 42.833 -13.5 56.5s-20.5 20.5 -34.5 20.5
c-10.667 0 -20.667 -3.83301 -30 -11.5s-17.333 -18.167 -24 -31.5l-57 10l14 227h193v-64h-140l-6 -100c18 18 38.667 27 62 27c29.333 0 53.333 -11.5 72 -34.5s28 -56.167 28 -99.5c0 -45.333 -10.333 -80.5 -31 -105.5s-49 -37.5 -85 -37.5s-64.667 11.667 -86 35z
M450.501 22.001c-19 22.667 -28.499 51.998 -28.499 87.998c0 20.667 4 39 12 55s20 29 36 39c-12.667 10.667 -22.5 23.5 -29.5 38.5s-10.5 31.167 -10.5 48.5c0 33.333 9.33301 61.166 28 83.499s45 33.5 79 33.5s60.333 -11.167 79 -33.5s28 -50.166 28 -83.499
c0 -17.333 -3.5 -33.666 -10.5 -48.999s-17.167 -28.333 -30.5 -39c17.333 -10 29.666 -22.667 36.999 -38s11 -33.666 11 -54.999c0 -36 -9.5 -65.333 -28.5 -88s-47.5 -34 -85.5 -34c-38.667 0 -67.5 11.333 -86.5 34zM570.002 246.999
c8 10.667 11.998 25.334 11.998 44.001c0 18 -4.16699 32.333 -12.5 43s-19.166 16 -32.499 16s-24.166 -5.33301 -32.499 -16s-12.5 -25 -12.5 -43c0 -18.667 4 -33.334 12 -44.001s19 -16 33 -16s25 5.33301 33 16zM575 62.999c8.66699 11.333 13 27 13 47
s-4.33301 35.667 -13 47s-21.334 17 -38.001 17s-29.5 -5.66699 -38.5 -17s-13.5 -27 -13.5 -47s4.5 -35.667 13.5 -47s21.833 -17 38.5 -17s29.334 5.66699 38.001 17z" />
    <glyph glyph-name="seveneighths" unicode="&#x215e;" horiz-adv-x="684" 
d="M511 698h62l-415 -710h-63zM107 299c3.33301 103.333 39.667 211.333 109 324h-157v63h236l-1 -42c-79.333 -120 -119 -227.333 -119 -322c0 -6.66699 0.666992 -18.667 2 -36h-70v13zM454.501 22c-19 22.667 -28.499 51.998 -28.499 87.998c0 20.667 4 39 12 55
s20 29 36 39c-12.667 10.667 -22.5 23.5 -29.5 38.5s-10.5 31.167 -10.5 48.5c0 33.333 9.33301 61.166 28 83.499s45 33.5 79 33.5s60.333 -11.167 79 -33.5s28 -50.166 28 -83.499c0 -17.333 -3.5 -33.666 -10.5 -48.999s-17.167 -28.333 -30.5 -39
c17.333 -10 29.666 -22.667 36.999 -38s11 -33.666 11 -54.999c0 -36 -9.5 -65.333 -28.5 -88s-47.5 -34 -85.5 -34c-38.667 0 -67.5 11.333 -86.5 34zM574.002 246.998c8 10.667 11.998 25.334 11.998 44.001c0 18 -4.16699 32.333 -12.5 43s-19.166 16 -32.499 16
s-24.166 -5.33301 -32.499 -16s-12.5 -25 -12.5 -43c0 -18.667 4 -33.334 12 -44.001s19 -16 33 -16s25 5.33301 33 16zM579 62.998c8.66699 11.333 13 27 13 47s-4.33301 35.667 -13 47s-21.334 17 -38.001 17s-29.5 -5.66699 -38.5 -17s-13.5 -27 -13.5 -47
s4.5 -35.667 13.5 -47s21.833 -17 38.5 -17s29.334 5.66699 38.001 17z" />
    <glyph glyph-name="arrowleft" unicode="&#x2190;" horiz-adv-x="1000" 
d="M42 242v21l197 163h42l-58 -137h737v-73h-737l58 -137h-42z" />
    <glyph glyph-name="arrowup" unicode="&#x2191;" horiz-adv-x="500" 
d="M214 529l-137 -58v42l163 197h21l163 -197v-42l-137 58v-737h-73v737z" />
    <glyph glyph-name="arrowright" unicode="&#x2192;" horiz-adv-x="1000" 
d="M778 216h-737v73h737l-58 137h42l197 -163v-21l-197 -163h-42z" />
    <glyph glyph-name="arrowdown" unicode="&#x2193;" horiz-adv-x="500" 
d="M77 -11v42l137 -58v737h73v-737l137 58v-42l-163 -197h-21z" />
    <glyph glyph-name="arrowboth" unicode="&#x2194;" horiz-adv-x="1000" 
d="M42 242v21l197 163h42l-53 -137h550l-58 137h42l197 -163v-21l-197 -163h-42l58 137h-550l53 -137h-42z" />
    <glyph glyph-name="arrowupdn" unicode="&#x2195;" horiz-adv-x="500" 
d="M76 -9v42l137 -58v550l-137 -53v42l163 197h21l163 -197v-42l-137 53v-550l137 58v-42l-163 -197h-21z" />
    <glyph glyph-name="arrowupdnbse" unicode="&#x21a8;" horiz-adv-x="500" 
d="M76 -9v42l137 -58v550l-137 -53v42l163 197h21l163 -197v-42l-137 53v-550l137 58v-42l-163 -197h-21zM75 -255h350v-48h-350v48z" />
    <glyph glyph-name="partialdiff" unicode="&#x2202;" horiz-adv-x="494" 
d="M98.5 50c-28.333 41.333 -42.498 92.6689 -42.498 154.002c0 48.667 8.33301 91.667 25 129s38.667 66 66 86s56.666 30 87.999 30c29.333 0 54 -7.33301 74 -22s34.333 -30.334 43 -47.001h4c0.666992 4 1 15.333 1 34c0 46.667 -6.33301 89.167 -19 127.5
s-30 68.666 -52 90.999s-46.667 33.5 -74 33.5c-36.667 0 -69.334 -11.333 -98.001 -34v74c32.667 19.333 68.667 29 108 29c38 0 73.167 -12.5 105.5 -37.5s58.5 -63.833 78.5 -116.5s30 -118.667 30 -198c0 -124.667 -19 -221.667 -57 -291s-92 -104 -162 -104
c-50.667 0 -90.167 20.667 -118.5 62zM308.502 131.003c22.333 46.667 35.832 102.668 40.499 168.001c-6 21.333 -18.167 40.5 -36.5 57.5s-39.833 25.5 -64.5 25.5c-20 0 -38.167 -8.33301 -54.5 -25s-29.166 -38.834 -38.499 -66.501s-14 -57.5 -14 -89.5
c0 -42.667 7.33301 -76.667 22 -102s35 -38 61 -38c34 0 62.167 23.333 84.5 70z" />
    <glyph glyph-name="uni2206" unicode="&#x2206;" horiz-adv-x="559" 
d="M16 38l209 648h113l210 -648v-38h-532v38zM436 84l-155 505h-4l-160 -505h319z" />
    <glyph glyph-name="product" unicode="&#x220f;" horiz-adv-x="823" 
d="M188 643h-82v80h611v-80h-83v-771h-81v771h-284v-771h-81v771z" />
    <glyph glyph-name="summation" unicode="&#x2211;" horiz-adv-x="713" 
d="M87 -65l290 364l-281 357v67h549v-78h-429v-4l262 -326l-283 -351v-4h467v-88h-575v63z" />
    <glyph glyph-name="minus" unicode="&#x2212;" horiz-adv-x="479" 
d="M43 297h392v-84h-392v84z" />
    <glyph glyph-name="uni2215" unicode="&#x2215;" horiz-adv-x="137" 
d="M242 698h62l-415 -710h-63z" />
    <glyph glyph-name="uni2219" unicode="&#x2219;" horiz-adv-x="273" 
d="M85 399h101v-111h-101v111z" />
    <glyph glyph-name="radical" unicode="&#x221a;" horiz-adv-x="549" 
d="M127 293l-77 -29.999l-20 60l162 68l74 -204l53 -143c6.66699 -18.667 13.667 -43.334 21 -74.001l137 887h71l-162 -1005h-90z" />
    <glyph glyph-name="infinity" unicode="&#x221e;" horiz-adv-x="713" 
d="M87 186c-26.667 29.333 -39.999 66.333 -39.999 111c0 44 13.5 81 40.5 111s62.833 45 107.5 45c31.333 0 59.5 -8.5 84.5 -25.5s50.5 -40.833 76.5 -71.5c24.667 30 49.667 53.667 75 71s54 26 86 26c44.667 0 80.5 -15 107.5 -45s40.5 -67 40.5 -111
c0 -44.667 -13.333 -81.667 -40 -111s-62.334 -44 -107.001 -44c-32.667 0 -61.667 8.5 -87 25.5s-50.333 40.5 -75 70.5c-25.333 -30 -50.666 -53.5 -75.999 -70.5s-54 -25.5 -86 -25.5c-44.667 0 -80.334 14.667 -107.001 44zM251.001 235
c17.333 14 36.668 34.668 58.001 62.001c-20.667 26 -39.834 45.833 -57.501 59.5s-36.5 20.5 -56.5 20.5s-37.333 -8 -52 -24s-22 -35.333 -22 -58s7.16699 -41.834 21.5 -57.501s31.5 -23.5 51.5 -23.5c20.667 0 39.667 7 57 21zM569.503 237.501
c14.333 15.667 21.498 34.833 21.498 57.5s-7.33301 42 -22 58s-32 24 -52 24c-20.667 0 -39.667 -6.66699 -57 -20s-36.666 -33.333 -57.999 -60c21.333 -27.333 40.833 -48 58.5 -62s36.834 -21 57.501 -21c20 0 37.167 7.83301 51.5 23.5z" />
    <glyph glyph-name="orthogonal" unicode="&#x221f;" horiz-adv-x="979" 
d="M177 625h74v-559h551v-66h-625v625z" />
    <glyph glyph-name="intersection" unicode="&#x2229;" horiz-adv-x="722" 
d="M96 402c0 54 11.668 101.833 35.001 143.5s55.166 73.834 95.499 96.501s84.833 34 133.5 34s93.167 -11.333 133.5 -34s72.333 -54.834 96 -96.501s35.5 -89.5 35.5 -143.5v-402h-74v395c0 42 -8.5 79.333 -25.5 112s-40 58 -69 76s-61.167 27 -96.5 27
s-67.5 -9 -96.5 -27s-52 -43.333 -69 -76s-25.5 -70 -25.5 -112v-395h-73v402z" />
    <glyph glyph-name="integral" unicode="&#x222b;" horiz-adv-x="274" 
d="M33 -91c56.667 0 85 19.333 85 58l-15.5 392c-7.66699 194.667 -11.5 324 -11.5 388c0 43.333 13.833 72.833 41.5 88.5s66.5 23.5 116.5 23.5v-49c-58 0 -87 -19 -87 -57c3.33301 -67.333 8.83301 -198.5 16.5 -393.5s11.5 -324.5 11.5 -388.5
c0 -43.333 -13.667 -72.833 -41 -88.5s-66 -23.5 -116 -23.5v50z" />
    <glyph glyph-name="approxequal" unicode="&#x2248;" horiz-adv-x="549" 
d="M35 334c0 2 5.83301 9.33301 17.5 22s27.834 24.5 48.501 35.5s44.667 16.5 72 16.5c16 0 31.333 -2.66699 46 -8s32.334 -13 53.001 -23c22 -10.667 40.333 -18.5 55 -23.5s30.334 -7.5 47.001 -7.5c24 0 46.167 5.5 66.5 16.5s37.333 23 51 36s20.5 20.167 20.5 21.5
v-94c0 -2 -5.83301 -9.33301 -17.5 -22s-27.834 -24.5 -48.501 -35.5s-44.667 -16.5 -72 -16.5c-16 0 -31.333 2.66699 -46 8s-32.334 13 -53.001 23c-22 10.667 -40.333 18.5 -55 23.5s-30.334 7.5 -47.001 7.5c-24 0 -46.167 -5.5 -66.5 -16.5s-37.333 -23 -51 -36
s-20.5 -20.167 -20.5 -21.5v94zM35 121c0 2 5.83301 9.33301 17.5 22s27.834 24.5 48.501 35.5s44.667 16.5 72 16.5c16 0 31.333 -2.66699 46 -8s32.334 -13 53.001 -23c22 -10.667 40.333 -18.5 55 -23.5s30.334 -7.5 47.001 -7.5c24 0 46.167 5.5 66.5 16.5
s37.333 23 51 36s20.5 20.167 20.5 21.5v-94c0 -2 -5.83301 -9.33301 -17.5 -22s-27.834 -24.5 -48.501 -35.5s-44.667 -16.5 -72 -16.5c-16 0 -31.333 2.66699 -46 8s-32.334 13 -53.001 23c-22 10.667 -40.333 18.5 -55 23.5s-30.334 7.5 -47.001 7.5
c-24 0 -46.167 -5.5 -66.5 -16.5s-37.333 -23 -51 -36s-20.5 -20.167 -20.5 -21.5v94z" />
    <glyph glyph-name="notequal" unicode="&#x2260;" horiz-adv-x="549" 
d="M172 106h-90v83h132l65 129h-197v84h240l42 82h61l-42 -82h91v-84h-134l-65 -129h199v-83h-241l-41 -81h-61z" />
    <glyph glyph-name="equivalence" unicode="&#x2261;" horiz-adv-x="478" 
d="M43 516h392v-84h-392v84zM43 303h392v-84h-392v84zM43 90h392v-83h-392v83z" />
    <glyph glyph-name="lessequal" unicode="&#x2264;" horiz-adv-x="549" 
d="M78 300v107l392 197v-90l-311 -160l311 -160v-90zM79 83h392v-83h-392v83z" />
    <glyph glyph-name="greaterequal" unicode="&#x2265;" horiz-adv-x="549" 
d="M79 194l311 160l-311 160v90l392 -197v-107l-392 -196v90zM78 83h392v-83h-392v83z" />
    <glyph glyph-name="house" unicode="&#x2302;" horiz-adv-x="600" 
d="M75 310l225 253l225 -253v-310h-450v310zM462 60v227l-162 181l-161 -181v-227h323z" />
    <glyph glyph-name="revlogicalnot" unicode="&#x2310;" horiz-adv-x="479" 
d="M39 453h396v-93h-312v-163h-84v256z" />
    <glyph glyph-name="integraltp" unicode="&#x2320;" horiz-adv-x="604" 
d="M259 747c0 43.333 13.833 72.833 41.5 88.5s66.5 23.5 116.5 23.5v-49c-58 0 -87 -19 -87 -57l17 -1003h-74c-9.33301 586.667 -14 919 -14 997z" />
    <glyph glyph-name="integralbt" unicode="&#x2321;" horiz-adv-x="604" 
d="M187 -201c58 0 87 19 87 57l-17 1003h74c9.33301 -586.667 14 -919 14 -997c0 -43.333 -13.833 -72.833 -41.5 -88.5s-66.5 -23.5 -116.5 -23.5v49z" />
    <glyph glyph-name="uniF6C3" unicode="&#xf6c3;" horiz-adv-x="0" 
d="M-143 -151h-34v91h85v-84l-29 -78h-45z" />
    <glyph glyph-name="uniFB01" unicode="&#xfb01;" horiz-adv-x="410" 
d="M55 453h-46v73h46v84c0 34.667 8.16699 63.5 24.5 86.5s42.833 34.5 79.5 34.5c23.333 0 46.333 -4 69 -12v-57h-44c-31.333 0 -47 -16 -47 -48v-88h91v-73h-91v-453h-82v453zM278 723h82v-98h-82v98zM278 526h82v-526h-82v526z" />
    <glyph glyph-name="uniFB02" unicode="&#xfb02;" horiz-adv-x="410" 
d="M55 453h-46v73h46v84c0 34.667 8.16699 63.5 24.5 86.5s42.833 34.5 79.5 34.5c23.333 0 46.333 -4 69 -12v-57h-44c-31.333 0 -47 -16 -47 -48v-88h91v-73h-91v-453h-82v453zM278 723h82v-723h-82v723z" />
    <glyph glyph-name="ampersand.alt" horiz-adv-x="547" 
d="M440 0l-42.999 60.001c-24.667 -24 -52 -42.167 -82 -54.5s-60 -18.5 -90 -18.5c-56.667 0 -102 18 -136 54s-51 83 -51 141c0 41.333 10.167 81.166 30.5 119.499s49.5 68.833 87.5 91.5c-28 40.667 -42 85.667 -42 135c0 48 13.833 88.333 41.5 121s65.5 49 113.5 49
c37.333 0 69.166 -12.667 95.499 -38s39.5 -61 39.5 -107c0 -45.333 -12.5 -83.333 -37.5 -114s-56.167 -55.667 -93.5 -75l124 -169c16.667 42 25 91.667 25 149h78c0 -86 -17.333 -158.667 -52 -218l92 -126h-100zM213.001 599.501
c-12 -17.667 -17.999 -40.167 -17.999 -67.5c0 -20 3.16699 -39.667 9.5 -59s15.166 -36.666 26.499 -51.999c63.333 27.333 95 69.666 95 126.999c0 22 -5.33301 40.5 -16 55.5s-25.667 22.5 -45 22.5c-22.667 0 -40 -8.83301 -52 -26.5zM296.002 75.001
c21.333 10 40.333 25 57 45l-153 212c-25.333 -14.667 -44.833 -35.167 -58.5 -61.5s-20.5 -54.833 -20.5 -85.5c0 -37.333 9.83301 -67.5 29.5 -90.5s47.167 -34.5 82.5 -34.5c20.667 0 41.667 5 63 15z" />
    </font>
</defs>
</svg>
