<?xml version="1.0" encoding="utf-8"?>
<!-- Generator: Adobe Illustrator 21.0.1, SVG Export Plug-In . SVG Version: 6.00 Build 0)  -->
<svg version="1.1" id="Layer_1" xmlns="http://www.w3.org/2000/svg" xmlns:xlink="http://www.w3.org/1999/xlink" x="0px" y="0px"
	 viewBox="0 0 50 50" style="enable-background:new 0 0 50 50;" xml:space="preserve">
<path d="M2,35.1c0,3,2.4,5.4,5.4,5.4c1.5,0,2.8-0.6,3.9-1.6l8.4,4.8c0,0.3-0.1,0.6-0.1,0.8c0,0.1,0,0.2,0,0.4
	c0.2,2.8,2.5,5.1,5.4,5.1s5.2-2.2,5.4-5.1c0-0.1,0-0.2,0-0.3c0-0.3,0-0.6-0.1-0.8l8.4-4.8c1,1,2.4,1.6,3.9,1.6c3,0,5.4-2.4,5.4-5.4
	c0-2.5-1.7-4.6-4.1-5.2v-9.8c2.3-0.6,4.1-2.7,4.1-5.2c0-3-2.4-5.4-5.4-5.4c-1.5,0-2.8,0.6-3.9,1.6l-8.4-4.9c0-0.2,0.1-0.3,0.1-0.5
	c0-0.1,0-0.2,0-0.3C30.4,2.4,28,0,25,0s-5.4,2.4-5.4,5.4c0,0.1,0,0.2,0,0.4c0,0.2,0,0.3,0.1,0.5l-8.4,4.9c-1-1-2.4-1.6-3.9-1.6
	c-3,0-5.4,2.4-5.4,5.4c0,2.5,1.7,4.6,4.1,5.2v9.8C3.8,30.5,2,32.6,2,35.1z M23.6,10.6v9.1c-1,0.2-1.8,0.8-2.5,1.4l-8.5-4.9
	c0.1-0.5,0.2-0.9,0.2-1.4c0-0.5-0.1-1-0.2-1.4l8.1-4.7C21.5,9.7,22.5,10.3,23.6,10.6z M29.2,8.7l8.1,4.7c-0.1,0.5-0.2,1-0.2,1.4
	c0,0.5,0.1,1,0.2,1.4l-8.5,4.9c-0.7-0.7-1.5-1.2-2.5-1.4v-9.1C27.5,10.3,28.5,9.7,29.2,8.7z M41.2,29.9c-1,0.3-1.8,0.8-2.5,1.4
	l-8.5-4.9c0.1-0.5,0.2-0.9,0.2-1.4s-0.1-1-0.2-1.4l8.5-4.9c0.7,0.7,1.5,1.2,2.5,1.4L41.2,29.9L41.2,29.9z M26.4,39.4v-9.1
	c1-0.2,1.8-0.8,2.5-1.4l8.5,4.9c-0.1,0.5-0.2,0.9-0.2,1.4c0,0.5,0.1,1,0.2,1.4l-8.1,4.7C28.5,40.3,27.5,39.7,26.4,39.4z M20.8,41.3
	l-8.1-4.7c0.1-0.5,0.2-1,0.2-1.4c0-0.5-0.1-1-0.2-1.4l8.5-4.9c0.7,0.7,1.5,1.2,2.5,1.4v9.1C22.5,39.7,21.5,40.3,20.8,41.3z M25,22.3
	c1.5,0,2.7,1.2,2.7,2.7s-1.2,2.7-2.7,2.7s-2.7-1.2-2.7-2.7S23.5,22.3,25,22.3z M11.3,18.6l8.5,4.9c-0.1,0.5-0.2,0.9-0.2,1.4
	s0.1,1,0.2,1.4l-8.5,4.9c-0.7-0.7-1.5-1.2-2.5-1.4v-9.8C9.8,19.8,10.6,19.3,11.3,18.6z M7.4,37.8c-1.5,0-2.7-1.2-2.7-2.7
	c0-1.5,1.2-2.7,2.7-2.7c0,0,0,0,0,0c1.5,0,2.7,1.2,2.7,2.7c0,0.5-0.1,0.9-0.4,1.3l0,0C9.3,37.3,8.4,37.8,7.4,37.8z M27.7,44.8
	c-0.1,1.4-1.3,2.5-2.7,2.5s-2.6-1.1-2.7-2.5c0-0.1,0-0.1,0-0.2c0-0.3,0.1-0.7,0.2-1c0.4-1,1.4-1.7,2.5-1.7s2.1,0.7,2.5,1.7
	c0.1,0.3,0.2,0.7,0.2,1C27.7,44.6,27.7,44.7,27.7,44.8z M45.3,35.1c0,1.5-1.2,2.7-2.7,2.7c-1,0-1.9-0.5-2.3-1.4l0,0
	c-0.2-0.4-0.4-0.9-0.4-1.3c0-1.5,1.2-2.7,2.7-2.7c0,0,0,0,0,0C44.1,32.4,45.3,33.7,45.3,35.1z M42.6,12.2c1.5,0,2.7,1.2,2.7,2.7
	c0,1.5-1.2,2.7-2.7,2.7c0,0,0,0,0,0c-1.5,0-2.7-1.2-2.7-2.7c0-0.5,0.1-0.9,0.4-1.3l0,0C40.7,12.7,41.6,12.2,42.6,12.2z M25,2.7
	c1.5,0,2.7,1.2,2.7,2.7c0,0.1,0,0.1,0,0.2c0,0.3-0.1,0.6-0.2,0.8c-0.4,1-1.4,1.7-2.5,1.7c-1.1,0-2.1-0.7-2.5-1.7l0,0
	c-0.1-0.3-0.2-0.5-0.2-0.8c0-0.1,0-0.1,0-0.2C22.3,3.9,23.5,2.7,25,2.7z M4.7,14.9c0-1.5,1.2-2.7,2.7-2.7c1,0,1.9,0.5,2.3,1.4l0,0
	c0.2,0.4,0.4,0.9,0.4,1.3c0,1.5-1.2,2.7-2.7,2.7c0,0,0,0,0,0C5.9,17.6,4.7,16.3,4.7,14.9z"/>
</svg>
