<?xml version="1.0" encoding="utf-8"?>
<!-- Generator: Adobe Illustrator 21.0.1, SVG Export Plug-In . SVG Version: 6.00 Build 0)  -->
<svg version="1.1" id="Layer_1" xmlns="http://www.w3.org/2000/svg" xmlns:xlink="http://www.w3.org/1999/xlink" x="0px" y="0px"
	 viewBox="0 0 106 176" style="enable-background:new 0 0 106 176;" xml:space="preserve">
<style type="text/css">
	.st0{fill:#FFFFFF;}
</style>
<g>
	<g>
		<path class="st0" d="M83,62.8c5.3,5.3,14,5.3,19.3,0c5.3-5.3,5.3-14,0-19.3L62.8,3.9c-5.3-5.3-14-5.3-19.3,0s-5.3,14,0,19.3
			L83,62.8z"/>
		<path class="st0" d="M23.4,113.1c-5.3-5.3-14-5.3-19.3,0v0c-5.3,5.3-5.3,14,0,19.3L43.5,172c5.3,5.3,14,5.3,19.3,0
			c5.3-5.3,5.3-14,0-19.3L23.4,113.1z"/>
		<path class="st0" d="M23.5,38.8c-5.3-5.3-14-5.3-19.4,0s-5.3,14,0,19.4L82.9,137c5.3,5.3,14,5.3,19.4,0s5.3-14,0-19.4L23.5,38.8z"
			/>
	</g>
</g>
</svg>
