<?xml version="1.0" encoding="utf-8"?>
<!-- Generator: Adobe Illustrator 21.0.1, SVG Export Plug-In . SVG Version: 6.00 Build 0)  -->
<svg version="1.1" id="Layer_1" xmlns="http://www.w3.org/2000/svg" xmlns:xlink="http://www.w3.org/1999/xlink" x="0px" y="0px"
	 viewBox="0 0 56.7 56.7" style="enable-background:new 0 0 56.7 56.7;" xml:space="preserve">
<style type="text/css">
	.st0{fill:#FFFFFF;}
</style>
<g id="Layer_1_1_">
</g>
<path id="Shape" class="st0" d="M6.7,15c0.1-0.7-0.2-1.4-0.7-1.9L0.7,6.8v-1h16.4l12.7,27.9L41,5.8h15.7v1l-4.5,4.3
	c-0.4,0.3-0.6,0.8-0.5,1.3v31.9c-0.1,0.5,0.1,1,0.5,1.3l4.4,4.3v1H34.4v-1l4.6-4.4c0.5-0.4,0.5-0.6,0.5-1.3V18.4L26.7,50.8H25
	L10.1,18.4v21.7c-0.1,0.9,0.2,1.8,0.8,2.5l6,7.2v1H0v-1l6-7.2c0.6-0.7,0.9-1.6,0.8-2.5L6.7,15L6.7,15z"/>
</svg>
